<svg version="1.1" xmlns="http://www.w3.org/2000/svg" xmlns:xlink="http://www.w3.org/1999/xlink" width="77.8967" height="60" viewBox="0,0,77.8967,60"><g transform="translate(-260.00001,-149.73568)"><g data-paper-data="{&quot;isPaintingLayer&quot;:true}" fill-rule="nonzero" stroke-linecap="butt" stroke-linejoin="miter" stroke-miterlimit="10" stroke-dasharray="" stroke-dashoffset="0" style="mix-blend-mode: normal"><path d="M319.99976,149.73568v20.63975c1.74074,-0.89966 3.67642,-1.37451 5.64344,-1.38441c3.24988,-0.00002 6.36665,1.26794 8.66464,3.52493c2.29799,2.25699 3.58895,5.31812 3.58887,8.50996c-0.00005,6.64651 -5.48613,12.03454 -12.2535,12.03449c-1.96699,-0.00978 -3.90267,-0.48449 -5.64344,-1.38402v18.0593h-59.99976v-60z" fill="#cca676" stroke="none" stroke-width="0.11881"/><path d="M303.91764,171.45901c-0.00873,3.11059 -1.62522,6.06796 -4.43783,8.11899c4.1632,2.23487 6.65921,5.97167 6.65962,9.97019c0.00001,6.64106 -6.75976,12.02474 -15.09844,12.02481c-4.00444,0.00004 -7.84488,-1.26683 -10.67646,-3.52193c-2.83158,-2.2551 -4.42235,-5.31368 -4.42234,-8.50288c0.00856,-3.93397 2.43281,-7.61584 6.49111,-9.85854c-2.89787,-2.05585 -4.56844,-5.06327 -4.572,-8.23064c0.00016,-5.98255 5.8329,-10.83232 13.028,-10.83243c7.19522,-0.00006 13.02819,4.84975 13.02835,10.83243zM286.84967,173.11777c-0.00001,2.20415 1.94425,3.99097 4.34266,3.99101c1.15181,0.00007 2.25649,-0.42038 3.07097,-1.16884c0.81448,-0.74847 1.27204,-1.76364 1.27204,-2.82217c0,-1.05853 -0.45756,-2.07369 -1.27204,-2.82216c-0.81448,-0.74847 -1.91916,-1.16891 -3.07097,-1.16884c-2.39841,0.00004 -4.34268,1.78686 -4.34266,3.991zM286.0418,187.83747c-0.00006,1.30593 0.57448,2.55838 1.59722,3.48184c1.02274,0.92346 2.4099,1.44227 3.85633,1.4423c1.44642,-0.00003 2.83359,-0.51884 3.85634,-1.4423c1.02274,-0.92346 1.59728,-2.17591 1.59722,-3.48184c-0.00011,-2.7193 -2.4417,-4.9237 -5.45356,-4.92376c-3.01186,0.00006 -5.45344,2.20446 -5.45355,4.92376z" fill="#a6a5e7" stroke="#ffffff" stroke-width="3"/></g></g></svg>