<svg version="1.1" xmlns="http://www.w3.org/2000/svg" xmlns:xlink="http://www.w3.org/1999/xlink" width="191.84456" height="104.20851" viewBox="0,0,191.84456,104.20851"><g transform="translate(-224.08108,-127.89563)"><g data-paper-data="{&quot;isPaintingLayer&quot;:true}" fill="#ffffff" fill-rule="nonzero" stroke="#ffffff" stroke-linecap="butt" stroke-linejoin="miter" stroke-miterlimit="10" stroke-dasharray="" stroke-dashoffset="0" style="mix-blend-mode: normal"><path d="M282.85641,179.3471c0,-28.33386 17.9199,-51.303 40.02519,-51.303c22.1053,0 40.02519,22.96914 40.02519,51.303c0,28.33386 -17.9199,51.303 -40.02519,51.303c-22.1053,0 -40.02519,-22.96914 -40.02519,-51.303z" stroke-width="0.29695"/><path d="M258.83558,195.6712c-2.55705,-19.03816 6.44035,-36.02175 20.0962,-37.93394c13.65586,-1.91219 26.79902,11.97115 29.35602,31.00931c2.55705,19.03816 -6.44035,36.02175 -20.0962,37.93394c-13.65586,1.91219 -26.79902,-11.97115 -29.35602,-31.00931z" stroke-width="0.29276"/><path d="M355.16992,226.68034c-13.65586,-1.91219 -22.65326,-18.89578 -20.0962,-37.93394c2.55705,-19.03816 15.70016,-32.9215 29.35602,-31.00931c13.65586,1.91219 22.65326,18.89578 20.0962,37.93394c-2.55705,19.03816 -15.70016,32.9215 -29.35602,31.00931z" stroke-width="0.29276"/><path d="M252.77961,231.90842c-16.57597,-0.91805 -29.34127,-14.91184 -28.51208,-31.25607c0.82914,-16.34423 14.93883,-28.84962 31.51474,-27.93157c16.57597,0.91805 29.34127,14.91184 28.51208,31.25607c-0.82914,16.34423 -14.93883,28.84962 -31.51474,27.93157z" stroke-width="0.29648"/><path d="M352.47021,201.97082c-0.87382,-16.94452 12.5791,-31.45232 30.04788,-32.40405c17.46884,-0.95173 32.3385,12.01294 33.21232,28.95746c0.87382,16.94452 -12.5791,31.45232 -30.04788,32.40405c-17.46884,0.95173 -32.3385,-12.01294 -33.21232,-28.95746z" stroke-width="0.3099"/></g></g></svg>