<svg version="1.1" xmlns="http://www.w3.org/2000/svg" xmlns:xlink="http://www.w3.org/1999/xlink" width="154.9096" height="173.92545" viewBox="0,0,154.9096,173.92545"><g transform="translate(-246.73606,-65.92497)"><g data-paper-data="{&quot;isPaintingLayer&quot;:true}" fill-rule="nonzero" stroke-linecap="butt" stroke-linejoin="miter" stroke-miterlimit="10" stroke-dasharray="" stroke-dashoffset="0" style="mix-blend-mode: normal"><path d="M294.38471,99.02422c14.95833,-5.99744 49.4098,-5.91536 75.37264,-3.27523c7.87325,0.80062 5.82754,21.11071 3.03246,30.51025c-3.95344,13.29486 -33.69797,-0.0889 -47.53725,-0.33324c-5.17041,-0.09128 -5.13612,18.21111 0,17.66173c15.28559,-1.63496 35.49816,-2.63467 43.88055,8.66427c7.87983,10.62155 8.88021,26.47608 6.21639,41.65503c-2.53405,14.43947 -19.59042,27.55804 -35.47011,29.6584c-19.46739,2.57489 -51.55755,4.93149 -60.70141,-11.99665c-4.52704,-8.38094 3.74272,-21.64622 13.16416,-25.32628c11.089,-4.33143 24.7378,16.94725 34.37309,10.33047c9.60925,-6.5989 5.13104,-33.88506 -1.41832,-32.86951c-12.13888,1.88224 -33.80655,9.69892 -37.7085,-2.78721c-4.22979,-13.53522 -9.60602,-55.31564 6.7963,-61.89205z" fill="#4fe3e4" stroke="#ffffff" stroke-width="7.5"/><path d="M246.73606,239.85042v-173.92545h154.9096v173.92545z" fill="none" stroke="none" stroke-width="0"/></g></g></svg>