<svg version="1.1" xmlns="http://www.w3.org/2000/svg" xmlns:xlink="http://www.w3.org/1999/xlink" width="171.29169" height="245.79416" viewBox="0,0,171.29169,245.79416"><g transform="translate(-241.96409,-57.06438)"><g data-paper-data="{&quot;isPaintingLayer&quot;:true}" fill-rule="nonzero" stroke-linecap="butt" stroke-linejoin="miter" stroke-miterlimit="10" stroke-dasharray="" stroke-dashoffset="0" style="mix-blend-mode: normal"><path d="M374.97394,173.72108c12.59452,-4.90419 32.15265,2.80908 37.42306,15.07023c2.14119,4.98121 -1.00813,12.99899 -6.04431,15.18567c-7.70938,3.3474 -15.53146,-10.38209 -23.39794,-9.06961c-6.98686,1.16572 -11.46763,13.13037 -13.05382,19.49851c-3.24661,13.03409 -10.98315,33.10645 -23.78664,30.83571c-6.02929,-1.06932 -5.18907,-17.42768 -5.18907,-17.42768c0,0 15.93202,-12.05921 18.31786,-20.97582c2.56475,-9.58527 4.26269,-28.65137 15.73085,-33.117z" fill="#d35227" stroke="#d35227" stroke-width="0.35491"/><path d="M314.02836,109.04201c-2.52423,-13.9577 4.58645,-3.07689 19.73532,-14.44518c3.57602,-2.86367 7.59846,10.63746 3.32187,11.99438c25.06139,5.16592 -31.19181,24.07756 -23.05719,2.4508z" fill="#d3613a" stroke="#d3613a" stroke-width="0.31323"/><path d="M269.34995,140.80147c-2.08718,-6.76838 10.37286,-26.33166 21.39586,-32.27708c10.71434,-5.77894 25.83266,-12.15242 32.67046,-18.74219c3.30562,-3.18572 8.81341,9.60619 4.73121,11.48835c25.49084,1.98935 -51.98278,61.63016 -58.79754,39.53093z" fill="#d3613a" stroke="#d3613a" stroke-width="0.31323"/><g><path d="M361.84063,145.83195c1.6004,-9.20608 8.55254,-15.84719 15.52806,-14.83336c6.97552,1.01385 11.33292,9.29873 9.73252,18.50481c-1.6004,9.20608 -8.55254,15.84719 -15.52806,14.83336c-6.97552,-1.01385 -11.33292,-9.29873 -9.73252,-18.50481z" fill="#d3613a" stroke="#d3613a" stroke-width="0.3288"/><path d="M363.45169,145.64049c1.05813,-6.77135 5.84937,-11.62087 10.70154,-10.83172c4.85217,0.78915 7.92786,6.91813 6.86973,13.68948c-1.05813,6.77135 -5.84937,11.62087 -10.70154,10.83172c-4.85217,-0.78915 -7.92786,-6.91813 -6.86973,-13.68948z" fill="#f9d6b6" stroke="#f9d6b6" stroke-width="0.23513"/></g><g><path d="M268.43723,164.33677c-6.97552,1.01385 -13.92767,-5.62727 -15.52806,-14.83336c-1.6004,-9.20608 2.75701,-17.49097 9.73253,-18.50481c6.97552,-1.01385 13.92767,5.62727 15.52806,14.83336c1.6004,9.20608 -2.75701,17.49097 -9.73253,18.50481z" fill="#d3613a" stroke="#d3613a" stroke-width="0.3288"/><path d="M269.68897,159.32997c-4.85217,0.78915 -9.64342,-4.06039 -10.70154,-10.83172c-1.05813,-6.77135 2.01756,-12.90033 6.86974,-13.68948c4.85217,-0.78915 9.64342,4.06039 10.70154,10.83172c1.05813,6.77135 -2.01756,12.90033 -6.86974,13.68948z" fill="#f9d6b6" stroke="#f9d6b6" stroke-width="0.23513"/></g><path d="M266.3095,152.96836c-1.77681,-26.35891 20.75768,-49.41911 50.33216,-51.50638c29.5745,-2.08726 54.98974,17.5888 56.76654,43.94773c1.77681,26.35891 -20.75768,49.41911 -50.33216,51.50638c-29.5745,2.08726 -54.98974,-17.5888 -56.76654,-43.94773z" fill="#d3613a" stroke="#d3613a" stroke-width="0.37237"/><g><path d="M269.53597,67.55967h19.86322h29.49424h31.1916h21.56951c1.83512,2.65681 2.7722,5.43723 2.77572,8.23591c-0.00026,14.49779 -24.51614,26.25054 -54.75808,26.25066c-30.24221,0.00007 -54.75851,-11.75273 -54.75877,-26.25066c0.03933,-2.80156 1.01392,-5.58203 2.88677,-8.23591z" fill="#dea463" stroke="#dea463" stroke-width="0.53409"/><path d="M267.83481,68.22011c0,-6.08769 23.29185,-11.02274 52.02378,-11.02274c28.73195,0 52.02378,4.93504 52.02378,11.02274c0,6.08769 -23.29185,11.02274 -52.02378,11.02274c-28.73195,0 -52.02378,-4.93504 -52.02378,-11.02274z" fill="#c87137" stroke="#c87137" stroke-width="0.26599"/></g><g stroke-width="0.26458"><path d="M371.37663,120.23941c0,0 -7.04427,0.94367 -10.07535,-0.98651c-4.05082,-2.57953 -9.28117,-7.82426 -8.36211,-12.58091c0.55473,-2.871 7.17749,-3.43198 7.17749,-3.43198c0,0 -14.99854,-20.52678 -9.4612,-26.94126c6.08693,-7.05112 19.75069,4.0386 26.93666,10.45942c7.97284,7.1239 12.16208,18.20069 9.79057,26.42868c-1.75873,6.10191 -16.00604,7.05254 -16.00604,7.05254z" fill="#f9d6b6" stroke="#f9d6b6"/><path d="M367.32499,182.16207c3.38256,-8.01807 9.61432,-25.44779 8.51294,-32.51297c-2.07481,-13.30949 -4.87844,-25.52224 -3.95662,-29.80832c1.19799,-5.57017 15.14498,-11.7101 18.56605,-6.86999c4.65449,6.58513 6.35247,14.17287 6.90418,22.93392c0.89757,14.25336 1.17977,51.47936 -18.95575,63.3618c-49.85356,29.41973 -58.33781,7.59092 -38.55958,-2.09795c8.17281,-4.00366 24.10623,-6.9884 27.48878,-15.00648z" fill="#d76036" stroke="#d76036"/></g><g stroke-width="0.26458"><path d="M252.37484,113.18686c-2.37151,-8.228 1.81773,-19.30479 9.79057,-26.42868c7.18597,-6.42081 20.84972,-17.51053 26.93666,-10.45942c5.53734,6.41447 -9.4612,26.94126 -9.4612,26.94126c0,0 6.62277,0.561 7.17749,3.43198c0.91907,4.75664 -4.31129,10.00138 -8.36211,12.58091c-3.03109,1.93018 -10.07535,0.98651 -10.07535,0.98651c0,0 -14.24733,-0.95063 -16.00604,-7.05254z" fill="#f9d6b6" stroke="#f9d6b6"/><path d="M299.92131,197.16856c19.77823,9.68887 11.29398,31.51768 -38.55958,2.09795c-20.13553,-11.88243 -19.85332,-49.10844 -18.95575,-63.3618c0.5517,-8.76104 2.24969,-16.34879 6.90418,-22.93392c3.42109,-4.84011 17.36807,1.29982 18.56605,6.86999c0.92182,4.28609 -1.88182,16.49884 -3.95662,29.80832c-1.10138,7.06517 5.13038,24.49488 8.51294,32.51297c3.38256,8.01808 19.31597,11.00281 27.48878,15.00648z" fill="#d76036" stroke="#d76036"/></g><path d="M317.21586,193.04741v0.00045c9.38405,-0.0001 18.25204,0.48259 18.25204,0.48259c17.79122,-0.86834 11.67467,88.04194 13.09589,93.8512c2.29769,9.39173 -22.01591,5.06553 -22.01591,5.06553c0,0 -0.55994,-8.61747 -3.11766,-11.97447c-1.19006,-1.56191 -3.24106,-2.3746 -5.22757,-2.32418c-0.21816,-0.0224 -0.43838,-0.04081 -0.6522,-0.05806c-0.58623,-0.04736 -1.17348,-0.08268 -1.76083,-0.11572c-0.66782,-0.03107 -1.33551,-0.06347 -2.00403,-0.07869c-0.36246,-0.00885 -0.4686,-0.00619 -0.82799,-0.00708c-0.1057,0.0006 -0.21151,0.00354 -0.3171,0.00619c-0.95176,-0.06258 -1.90699,-0.09245 -2.85899,-0.12396c-2.9115,-0.07807 -5.82473,-0.09371 -8.73725,-0.11115c-2.55298,-0.05364 -4.4,-2.4639 -6.95295,-2.5163c-2.01786,-0.03629 -3.04912,-3.542 -5.06727,-3.55785c-0.18833,-3.07183 -0.87826,-5.01931 -1.15108,-8.49255c-1.19964,-15.27242 2.33508,-62.33826 7.99217,-67.63025c2.06567,-1.93242 11.96668,-2.41555 21.35073,-2.41566z" fill="#d3613a" stroke="#d3613a" stroke-width="0.361"/><path d="M296.34266,235.52487c0,-18.10964 9.9996,-32.79041 22.33474,-32.79041c12.33513,0 22.33474,14.68076 22.33474,32.79041c0,18.10964 -9.9996,32.79041 -22.33474,32.79041c-12.33513,0 -22.33474,-14.68076 -22.33474,-32.79041z" fill="#f9d6b6" stroke="#d3613a" stroke-width="0.72487"/><g fill="#f9d6b6" stroke="#f9d6b6" stroke-width="0.23715"><path d="M290.27528,181.49144c-16.92243,-13.72096 -23.28921,-36.42336 -14.22059,-50.7072c9.06863,-14.28385 30.13854,-14.74016 47.06098,-1.0192c16.92243,13.72096 23.28921,36.42336 14.22059,50.7072c-9.06863,14.28385 -30.13854,14.74016 -47.06098,1.0192z"/><path d="M301.07569,179.51331c-8.37367,-14.82201 -0.82095,-37.31304 16.86947,-50.23512c17.69042,-12.92208 38.81954,-11.38188 47.19321,3.44013c8.37367,14.82201 0.82095,37.31304 -16.86947,50.23512c-17.69042,12.92208 -38.81954,11.38188 -47.19321,-3.44013z"/></g><path d="M300.49353,175.69202c10.52777,3.67209 21.44311,8.32807 40.57949,-0.96938c-13.30724,7.05323 -26.85132,6.83668 -40.57949,0.96938z" fill="#ffffff" stroke="#92391b" stroke-width="0.31323"/><path d="M319.53626,170.37968c0.02393,2.90772 0.13946,6.011 0.32498,9.48039c-0.05074,-0.01178 -0.10187,-0.01461 -0.15271,-0.01106c-0.03034,0.00186 -0.0602,0.00611 -0.09007,0.01319c-0.15765,-3.13805 -0.23274,-6.28364 -0.19689,-9.48269z" fill="#ffffff" stroke="#92391b" stroke-width="0.31323"/><g fill="#92391b" stroke="#92391b" stroke-width="0.23715"><path d="M316.3073,170.53901c-1.97461,-1.3236 -2.8142,-3.5023 -1.87526,-4.86626c0.93893,-1.36396 3.30083,-1.39667 5.27545,-0.07306c1.97461,1.3236 2.8142,3.5023 1.87526,4.86626c-0.93893,1.36396 -3.30083,1.39667 -5.27545,0.07306z"/><path d="M316.92124,170.46597c-0.93893,-1.36396 -0.09935,-3.54265 1.87526,-4.86626c1.97461,-1.3236 4.33652,-1.29089 5.27545,0.07306c0.93893,1.36396 0.09935,3.54265 -1.87526,4.86626c-1.97461,1.3236 -4.33652,1.29089 -5.27545,-0.07306z"/></g><g><path d="M306.48702,158.35023c-5.3015,5.22158 -13.60572,4.67756 -18.54801,-1.2151c-4.94229,-5.89265 -4.6511,-14.90251 0.6504,-20.12409c5.3015,-5.22158 13.60572,-4.67756 18.54801,1.2151c4.94229,5.89265 4.6511,14.90251 -0.6504,20.12409z" fill="#ffffff" stroke="#ffffff" stroke-width="0.90331"/><path d="M288.92119,148.62538c0,-4.62414 3.92467,-8.37274 8.766,-8.37274c4.84133,0 8.766,3.7486 8.766,8.37274c0,4.62414 -3.92467,8.37274 -8.766,8.37274c-4.84133,0 -8.766,-3.7486 -8.766,-8.37274z" fill="#690400" stroke="#690400" stroke-width="0.1656"/><path d="M299.17367,144.25877c0,-2.2941 1.69547,-4.15383 3.78692,-4.15383c2.09147,0 3.78692,1.85973 3.78692,4.15383c0,2.2941 -1.69547,4.15383 -3.78692,4.15383c-2.09147,0 -3.78692,-1.85973 -3.78692,-4.15383z" fill="#ffffff" stroke="#ffffff" stroke-width="0.3191"/></g><g><path d="M329.05551,138.22614c4.94229,-5.89265 13.24652,-6.43667 18.54801,-1.2151c5.3015,5.22158 5.59268,14.23144 0.6504,20.12409c-4.94229,5.89265 -13.24652,6.43667 -18.54801,1.2151c-5.3015,-5.22158 -5.59268,-14.23144 -0.6504,-20.12409z" fill="#ffffff" stroke="#ffffff" stroke-width="0.90331"/><path d="M338.50573,156.9981c-4.84133,0 -8.766,-3.7486 -8.766,-8.37274c0,-4.62414 3.92467,-8.37274 8.766,-8.37274c4.84133,0 8.766,3.7486 8.766,8.37274c0,4.62414 -3.92467,8.37274 -8.766,8.37274z" fill="#690400" stroke="#690400" stroke-width="0.1656"/><path d="M333.23231,148.4126c-2.09147,0 -3.78692,-1.85973 -3.78692,-4.15383c0,-2.2941 1.69547,-4.15383 3.78692,-4.15383c2.09147,0 3.78692,1.85973 3.78692,4.15383c0,2.2941 -1.69547,4.15383 -3.78692,4.15383z" fill="#ffffff" stroke="#ffffff" stroke-width="0.3191"/></g><path d="M299.60931,279.86812c-3.13677,-0.50982 -4.12712,-1.12347 -6.70173,-1.37739c-3.13324,-0.30901 -3.95459,-2.54372 -5.1693,-4.08053c-3.74338,-4.73604 -6.04277,-12.77859 -1.40864,-16.85327c4.69747,-4.13035 16.06271,-4.44795 21.22864,-0.52479c4.73235,3.59389 2.59693,10.54784 0.24207,15.43317c-1.41717,2.94007 -4.21259,8.04942 -8.19104,7.40281z" fill="#d3613a" stroke="#d76036" stroke-width="0.30757"/><path d="M311.62603,282.91283c-1.17586,2.38194 -7.96308,0.9521 -7.96308,0.9521c-28.34164,22.48773 -31.3253,-14.79276 -15.75532,-8.97448c5.85244,2.18697 11.13424,3.02126 18.60062,-0.8796c3.03661,-1.58649 6.61053,5.87813 5.11779,8.90198z" fill="#f9d6b6" stroke="#f9d6b6" stroke-width="0.30423"/><path d="M327.4844,288.90623c8.3937,2.41547 13.4235,0.47434 18.67776,-2.95875c13.97855,-9.13344 20.43704,29.34632 -13.36504,12.37726c0,0 -6.37303,2.85771 -8.1415,0.68213c-2.24508,-2.76185 -0.58497,-11.08302 2.82879,-10.10064z" fill="#f9d6b6" stroke="#f9d6b6" stroke-width="0.31323"/></g></g></svg>