<svg version="1.1" xmlns="http://www.w3.org/2000/svg" xmlns:xlink="http://www.w3.org/1999/xlink" width="167.28524" height="303.69758" viewBox="0,0,167.28524,303.69758"><g transform="translate(-235.60662,-28.15121)"><g data-paper-data="{&quot;isPaintingLayer&quot;:true}" fill-rule="nonzero" stroke="#7802ff" stroke-width="0" stroke-linecap="round" stroke-linejoin="round" stroke-miterlimit="10" stroke-dasharray="" stroke-dashoffset="0" style="mix-blend-mode: normal"><path d="M323.01777,96.08381c6.35083,54.55136 -0.31582,234.07506 -0.31582,234.07506l-10.22117,1.68944c0,0 -1.42098,-186.21545 6.6623,-237.12272c1.06694,-6.71936 3.01852,-5.99634 3.87467,1.35822z" fill="#6b9b1f"/><path d="M400.3948,244.89262c-9.34256,36.88869 -48.06029,69.32765 -81.78005,67.87846c-35.76942,-1.53727 -74.38151,-39.38939 -81.72882,-79.24521c-13.72704,-74.46289 87.54087,-205.37466 87.54087,-205.37466c0,0 94.89661,142.00278 75.96799,216.74141z" fill="#85c227"/><g fill="#6b9b1f"><path d="M323.01814,96.0843c6.35083,54.55135 -0.31582,234.07506 -0.31582,234.07506l-10.22117,1.68943c0,0 -1.42098,-186.21544 6.66231,-237.12272c1.06694,-6.71935 3.01852,-5.99633 3.87467,1.35823z"/><path d="M317.48526,253.90833l-2.15165,12.35147c0,0 -35.43044,-8.73752 -43.06913,-21.28505c-1.00825,-1.65619 -0.40042,-3.95581 1.19224,-4.57015c11.81337,-4.55683 44.02853,13.50373 44.02853,13.50373z"/><path d="M325.90401,151.80072l-2.15165,12.35147c0,0 -35.43043,-8.73751 -43.06913,-21.28507c-1.00825,-1.65617 -0.40042,-3.95579 1.19224,-4.57013c11.81336,-4.55682 44.02853,13.50373 44.02853,13.50373z"/><path d="M361.85205,185.25063c1.59267,0.61434 2.20049,2.91396 1.19224,4.57014c-7.63869,12.54754 -43.06914,21.28507 -43.06914,21.28507l-2.15165,-12.35148c0,0 32.21518,-18.06056 44.02854,-13.50373z"/></g></g></g></svg>