<svg version="1.1" xmlns="http://www.w3.org/2000/svg" xmlns:xlink="http://www.w3.org/1999/xlink" width="709.06926" height="401.97721" viewBox="0,0,709.06926,401.97721"><g transform="translate(-216.53793,-46.38145)"><g data-paper-data="{&quot;isPaintingLayer&quot;:true}" fill-rule="nonzero" stroke-miterlimit="10" stroke-dasharray="" stroke-dashoffset="0" style="mix-blend-mode: normal"><g stroke="#1ce652" stroke-linecap="round" stroke-linejoin="bevel"><path d="M796.45191,446.46241c-21.8036,-5.06387 -46.4806,-58.42044 -24.1224,-59.49313c49.67936,-2.3835 55.36004,-8.52857 57.50785,11.32898c1.58354,14.64069 -16.27042,52.13911 -33.38545,48.16415z" fill="#5a6d28" stroke-width="0"/><path d="M884.84493,213.10142c35.88168,23.34766 44.72868,76.42971 38.83054,116.24338c-5.89814,39.81367 -26.54158,66.35521 -67.0922,77.66044c-40.55061,11.30523 -101.00638,7.37315 -126.56593,-29.24584c-25.55956,-36.61897 -16.22085,-105.92192 19.90587,-143.76897c36.12672,-37.84704 99.04005,-44.23669 134.92173,-20.88901z" fill="#dcff82" stroke-width="0.5"/><path d="M850.5371,448.06542c-21.8036,-5.06387 -46.4806,-58.42045 -24.1224,-59.49313c49.67936,-2.3835 55.36004,-8.52857 57.50785,11.32897c1.58354,14.64069 -16.27041,52.13912 -33.38545,48.16416z" fill="#8caa3f" stroke-width="0"/></g><g stroke="#1ce652" stroke-linecap="round" stroke-linejoin="bevel"><path d="M611.00145,444.46542c-21.8036,-5.06387 -46.4806,-58.42044 -24.1224,-59.49313c49.67937,-2.3835 55.36004,-8.52857 57.50785,11.32898c1.58354,14.64069 -16.27042,52.13911 -33.38546,48.16415z" fill="#5a6d28" stroke-width="0"/><path d="M699.39448,211.10443c35.88168,23.34766 44.72868,76.42972 38.83054,116.24338c-5.89814,39.81367 -26.54158,66.35521 -67.0922,77.66044c-40.55061,11.30523 -101.00638,7.37314 -126.56593,-29.24584c-25.55956,-36.61897 -16.22086,-105.92192 19.90586,-143.76897c36.12672,-37.84704 99.04005,-44.23669 134.92173,-20.88901z" fill="#dcff82" stroke-width="0.5"/><path d="M665.08664,446.06843c-21.80361,-5.06387 -46.4806,-58.42045 -24.1224,-59.49313c49.67936,-2.3835 55.36004,-8.52857 57.50785,11.32897c1.58354,14.64069 -16.27042,52.13913 -33.38545,48.16417z" fill="#8caa3f" stroke-width="0"/></g><g stroke="#1ce652" stroke-linecap="round" stroke-linejoin="bevel"><path d="M433.32878,442.46842c-21.80361,-5.06386 -46.4806,-58.42044 -24.1224,-59.49313c49.67937,-2.3835 55.36004,-8.52857 57.50785,11.32898c1.58355,14.64069 -16.27042,52.13911 -33.38545,48.16415z" fill="#5a6d28" stroke-width="0"/><path d="M521.72181,209.10743c35.88169,23.34766 44.72868,76.42972 38.83054,116.24338c-5.89814,39.81367 -26.54158,66.35521 -67.0922,77.66044c-40.55062,11.30523 -101.00638,7.37315 -126.56593,-29.24584c-25.55956,-36.61897 -16.22085,-105.92192 19.90587,-143.76897c36.12672,-37.84704 99.04004,-44.23669 134.92173,-20.88901z" fill="#dcff82" stroke-width="0.5"/><path d="M487.41397,444.07143c-21.80361,-5.06386 -46.4806,-58.42045 -24.1224,-59.49313c49.67937,-2.3835 55.36004,-8.52857 57.50785,11.32897c1.58355,14.64069 -16.27042,52.13912 -33.38545,48.16416z" fill="#8caa3f" stroke-width="0"/></g><path d="M383.3528,117.32816c35.30333,22.97133 44.00773,75.19779 38.20465,114.36972c-5.80308,39.17193 -26.11377,65.28567 -66.01078,76.40868c-39.897,11.123 -99.37832,7.25431 -124.52589,-28.77444c-25.14758,-36.02873 -15.9594,-104.21463 19.58502,-141.45165c35.54442,-37.237 97.44368,-43.52367 132.74701,-20.55231z" fill="#dcff82" stroke="#1ce652" stroke-width="0.5" stroke-linecap="round" stroke-linejoin="bevel"/><path d="M225.38415,89.25313c-13.05701,-12.74627 19.06099,-52.78158 36.58191,-40.5901c26.31021,18.30725 24.13688,91.39657 24.13688,91.39657c0,0 -18.11705,5.90177 -17.0243,0.97687c5.57034,-25.1051 2.97281,-57.23088 -15.53195,-75.56727c-13.39145,-13.2696 -19.38795,32.34971 -28.16255,23.78394z" fill="#5ea444" stroke="none" stroke-width="13.6911" stroke-linecap="round" stroke-linejoin="miter"/><g fill="#000000" stroke="#000000" stroke-width="1.79985" stroke-linecap="butt" stroke-linejoin="miter"><path d="M380.72669,167.14005c20.41986,-21.64291 0,0 0,0z"/><path d="M375.21821,165.41866c0,0 20.41986,-21.64291 0,0z"/></g><g fill="#000000" stroke="#000000" stroke-width="1.79985" stroke-linecap="butt" stroke-linejoin="miter"><path d="M257.77276,155.79969c20.41986,21.64291 0,0 0,0z"/><path d="M252.26429,157.5211c0,0 20.41986,21.64291 0,0z"/></g><path d="M387.66534,65.46913c-18.50476,18.33639 -15.10649,56.97324 -15.53195,75.56726c-0.13003,5.68262 -17.0243,-0.97687 -17.0243,-0.97687c0,0 -2.17331,-73.08931 24.13688,-91.39656c17.52092,-12.19147 49.63893,27.84383 36.58191,40.5901c-8.77461,8.56578 -14.7711,-37.05354 -28.16255,-23.78394z" fill="#5ea444" stroke="none" stroke-width="13.6911" stroke-linecap="round" stroke-linejoin="miter"/><path d="M246.29917,194.69087c0,-19.96477 15.41394,-36.14941 34.42802,-36.14941c19.01406,0 34.42802,16.18464 34.42802,36.14941c0,19.96477 -15.41394,36.14941 -34.42802,36.14941c-19.01406,0 -34.42802,-16.18464 -34.42802,-36.14941z" fill="#ffffff" stroke="none" stroke-width="11.3386" stroke-linecap="round" stroke-linejoin="miter"/><path d="M325.48631,194.69087c0,-19.96477 15.41394,-36.14941 34.42802,-36.14941c19.01406,0 34.42802,16.18464 34.42802,36.14941c0,19.96477 -15.41394,36.14941 -34.42802,36.14941c-19.01406,0 -34.42802,-16.18464 -34.42802,-36.14941z" fill="#f9f9f9" stroke="none" stroke-width="11.3386" stroke-linecap="round" stroke-linejoin="miter"/><path d="M260.06699,195.0049c0,-12.67203 10.25682,-22.94473 22.90926,-22.94473c12.65245,0 22.90927,10.27271 22.90927,22.94473c0,12.67204 -10.25683,22.94476 -22.90927,22.94476c-12.65245,0 -22.90926,-10.27272 -22.90926,-22.94476z" fill="#000000" stroke="#1ce652" stroke-width="0.41802" stroke-linecap="round" stroke-linejoin="bevel"/><path d="M278.09389,189.48644c0,-7.0018 5.19306,-12.67789 11.599,-12.67789c6.40595,0 11.59901,5.67609 11.59901,12.67789c0,7.0018 -5.19306,12.67789 -11.59901,12.67789c-6.40594,0 -11.599,-5.67609 -11.599,-12.67789z" fill="#ffffff" stroke="#1ce652" stroke-width="0" stroke-linecap="round" stroke-linejoin="bevel"/><path d="M336.60811,195.0049c0,-12.67203 10.25682,-22.94473 22.90926,-22.94473c12.65245,0 22.90927,10.27271 22.90927,22.94473c0,12.67204 -10.25683,22.94476 -22.90927,22.94476c-12.65245,0 -22.90926,-10.27272 -22.90926,-22.94476z" fill="#000000" stroke="#1ce652" stroke-width="0.41802" stroke-linecap="round" stroke-linejoin="bevel"/><path d="M354.63501,189.48644c0,-7.0018 5.19306,-12.67789 11.599,-12.67789c6.40595,0 11.59901,5.67609 11.59901,12.67789c0,7.0018 -5.19306,12.67789 -11.59901,12.67789c-6.40594,0 -11.599,-5.67609 -11.599,-12.67789z" fill="#ffffff" stroke="#1ce652" stroke-width="0" stroke-linecap="round" stroke-linejoin="bevel"/><path d="M234.82987,244.25665c0,-6.14192 7.10844,-11.12092 15.87715,-11.12092c8.7687,0 15.87715,4.97901 15.87715,11.12092c0,6.14192 -7.10844,11.12092 -15.87715,11.12092c-8.7687,0 -15.87715,-4.97901 -15.87715,-11.12092z" fill="#e8abab" stroke="none" stroke-width="15.7952" stroke-linecap="round" stroke-linejoin="miter"/><path d="M374.88355,244.25665c0,-6.14192 7.10844,-11.12092 15.87715,-11.12092c8.7687,0 15.87715,4.97901 15.87715,11.12092c0,6.14192 -7.10844,11.12092 -15.87715,11.12092c-8.7687,0 -15.87715,-4.97901 -15.87715,-11.12092z" fill="#e8abab" stroke="none" stroke-width="15.7952" stroke-linecap="round" stroke-linejoin="miter"/><path d="M321.54819,256.87039c8.94576,-0.18608 25.69756,-7.758 25.69756,-7.758c-7.06385,5.56625 -16.37066,11.10761 -25.73862,11.29965c-9.49199,0.19458 -11.40347,-1.47749 -26.52673,-10.37084c0,0 17.42595,7.01934 26.56779,6.82919z" fill="#000000" stroke="#020202" stroke-width="0" stroke-linecap="round" stroke-linejoin="bevel"/></g></g></svg>