<svg version="1.1" xmlns="http://www.w3.org/2000/svg" xmlns:xlink="http://www.w3.org/1999/xlink" width="60.00016" height="60" viewBox="0,0,60.00016,60"><g transform="translate(-239.99984,-150)"><g data-paper-data="{&quot;isPaintingLayer&quot;:true}" fill-rule="nonzero" stroke-linecap="butt" stroke-linejoin="miter" stroke-miterlimit="10" stroke-dasharray="" stroke-dashoffset="0" style="mix-blend-mode: normal"><path d="M300,150v60h-60.00015v-18.0593c1.74077,0.89953 3.67646,1.37424 5.64344,1.38402c6.76737,0.00004 12.25345,-5.38798 12.2535,-12.03449c0.00008,-3.19183 -1.29088,-6.25297 -3.58887,-8.50996c-2.29799,-2.25699 -5.41476,-3.52495 -8.66464,-3.52493c-1.96702,0.0099 -3.9027,0.48475 -5.64344,1.38441v-20.63975z" fill="#044281" stroke="none" stroke-width="0.11881"/><g><path d="M251.81745,165.28803c0.0609,-6.40426 0.0609,-6.40426 0.0609,-6.40426l5.90709,3.30712z" fill="#c4c418" stroke="#e3e31c" stroke-width="0.35835"/><path d="M265.56436,161.39397l-9.56509,6.4902c0,0 0,0 -0.09861,-12.56832z" fill="#f6f626" stroke="#f6f626" stroke-width="0.6388"/><path d="M257.17552,163.22334c0.03089,-2.98247 0.03089,-2.98247 0.03089,-2.98247l2.99592,1.54013z" fill="#c4c418" stroke="#e3e31c" stroke-width="0.22208"/><g><path d="M260.9468,161.47198c0,-0.59964 0.47643,-1.08575 1.06413,-1.08575c0.5877,0 1.06413,0.48611 1.06413,1.08575c0,0.59964 -0.47643,1.08575 -1.06413,1.08575c-0.5877,0 -1.06413,-0.48611 -1.06413,-1.08575z" fill="#000000" stroke="#000000" stroke-width="0.33116"/><path d="M261.97421,161.07819c0,-0.27512 0.22066,-0.49816 0.49286,-0.49816c0.2722,0 0.49286,0.22303 0.49286,0.49816c0,0.27512 -0.22066,0.49816 -0.49286,0.49816c-0.2722,0 -0.49286,-0.22303 -0.49286,-0.49816z" fill="#ffffff" stroke="#ffffff" stroke-width="0.15266"/></g></g><g><path d="M278.21745,177.48804c0.0609,-6.40427 0.0609,-6.40427 0.0609,-6.40427l5.90708,3.30712z" fill="#c4c418" stroke="#e3e31c" stroke-width="0.35835"/><path d="M291.96436,173.59397l-9.56509,6.4902c0,0 0,0 -0.09861,-12.56832z" fill="#f6f626" stroke="#f6f626" stroke-width="0.6388"/><path d="M283.57551,175.42334c0.03089,-2.98246 0.03088,-2.98247 0.03088,-2.98247l2.99592,1.54013z" fill="#c4c418" stroke="#e3e31c" stroke-width="0.22208"/><g><path d="M287.34679,173.67198c0,-0.59964 0.47642,-1.08575 1.06413,-1.08575c0.58771,0 1.06414,0.48611 1.06414,1.08575c0,0.59964 -0.47643,1.08575 -1.06414,1.08575c-0.58771,0 -1.06413,-0.48611 -1.06413,-1.08575z" fill="#000000" stroke="#000000" stroke-width="0.33116"/><path d="M288.3742,173.2782c0,-0.27513 0.22066,-0.49816 0.49286,-0.49816c0.2722,0 0.49286,0.22303 0.49286,0.49816c0,0.27513 -0.22066,0.49815 -0.49286,0.49815c-0.2722,0 -0.49286,-0.22303 -0.49286,-0.49815z" fill="#ffffff" stroke="#ffffff" stroke-width="0.15266"/></g></g><g><path d="M273.61746,201.48803c0.0609,-6.40427 0.0609,-6.40427 0.0609,-6.40427l5.90708,3.30712z" fill="#c4c418" stroke="#e3e31c" stroke-width="0.35835"/><path d="M287.36436,197.59397l-9.56509,6.4902c0,0 0,0 -0.09861,-12.56832z" fill="#f6f626" stroke="#f6f626" stroke-width="0.6388"/><path d="M278.97552,199.42334c0.03089,-2.98246 0.03088,-2.98247 0.03088,-2.98247l2.99592,1.54013z" fill="#c4c418" stroke="#e3e31c" stroke-width="0.22208"/><g><path d="M282.7468,197.67198c0,-0.59964 0.47642,-1.08575 1.06413,-1.08575c0.58771,0 1.06414,0.48611 1.06414,1.08575c0,0.59964 -0.47643,1.08575 -1.06414,1.08575c-0.58771,0 -1.06413,-0.48611 -1.06413,-1.08575z" fill="#000000" stroke="#000000" stroke-width="0.33116"/><path d="M283.77421,197.27819c0,-0.27513 0.22066,-0.49816 0.49286,-0.49816c0.2722,0 0.49286,0.22303 0.49286,0.49816c0,0.27513 -0.22066,0.49815 -0.49286,0.49815c-0.2722,0 -0.49286,-0.22303 -0.49286,-0.49815z" fill="#ffffff" stroke="#ffffff" stroke-width="0.15266"/></g></g><g><path d="M261.41746,176.08804c0.0609,-6.40427 0.0609,-6.40427 0.0609,-6.40427l5.90708,3.30712z" fill="#c4c418" stroke="#e3e31c" stroke-width="0.35835"/><path d="M275.16436,172.19397l-9.56509,6.4902c0,0 0,0 -0.09861,-12.56832z" fill="#f6f626" stroke="#f6f626" stroke-width="0.6388"/><path d="M266.77552,174.02334c0.03089,-2.98246 0.03088,-2.98247 0.03088,-2.98247l2.99592,1.54013z" fill="#c4c418" stroke="#e3e31c" stroke-width="0.22208"/><g><path d="M270.5468,172.27198c0,-0.59964 0.47642,-1.08575 1.06413,-1.08575c0.58771,0 1.06414,0.48611 1.06414,1.08575c0,0.59964 -0.47643,1.08575 -1.06414,1.08575c-0.58771,0 -1.06413,-0.48611 -1.06413,-1.08575z" fill="#000000" stroke="#000000" stroke-width="0.33116"/><path d="M271.57421,171.8782c0,-0.27513 0.22066,-0.49816 0.49286,-0.49816c0.2722,0 0.49286,0.22303 0.49286,0.49816c0,0.27513 -0.22066,0.49816 -0.49286,0.49816c-0.2722,0 -0.49286,-0.22303 -0.49286,-0.49816z" fill="#ffffff" stroke="#ffffff" stroke-width="0.15266"/></g></g><g data-paper-data="{&quot;index&quot;:null}"><path d="M274.99638,159.39089l5.90708,-3.30712c0,0 0,0 0.0609,6.40427z" fill="#c4c418" stroke="#e3e31c" stroke-width="0.35835"/><path d="M276.88115,152.51585c-0.09861,12.56832 -0.09861,12.56832 -0.09861,12.56832l-9.56509,-6.4902z" fill="#f6f626" stroke="#f6f626" stroke-width="0.6388"/><path d="M272.5795,158.981l2.99592,-1.54013c0,0 0,0.00001 0.03088,2.98247z" fill="#c4c418" stroke="#e3e31c" stroke-width="0.22208"/><g><path d="M270.77089,159.75773c-0.58771,0 -1.06414,-0.48611 -1.06414,-1.08575c0,-0.59964 0.47643,-1.08575 1.06414,-1.08575c0.58771,0 1.06413,0.48611 1.06413,1.08575c0,0.59964 -0.47642,1.08575 -1.06413,1.08575z" fill="#000000" stroke="#000000" stroke-width="0.33116"/><path d="M270.31475,158.77635c-0.2722,0 -0.49286,-0.22303 -0.49286,-0.49816c0,-0.27513 0.22066,-0.49816 0.49286,-0.49816c0.2722,0 0.49286,0.22303 0.49286,0.49816c0,0.27513 -0.22066,0.49816 -0.49286,0.49816z" fill="#ffffff" stroke="#ffffff" stroke-width="0.15266"/></g></g><g data-paper-data="{&quot;index&quot;:null}"><path d="M272.59637,184.39089l5.90708,-3.30712c0,0 0,0 0.0609,6.40427z" fill="#c4c418" stroke="#e3e31c" stroke-width="0.35835"/><path d="M274.48115,177.51585c-0.09861,12.56832 -0.09861,12.56832 -0.09861,12.56832l-9.56509,-6.4902z" fill="#f6f626" stroke="#f6f626" stroke-width="0.6388"/><path d="M270.17949,183.981l2.99592,-1.54013c0,0 0,0.00001 0.03088,2.98247z" fill="#c4c418" stroke="#e3e31c" stroke-width="0.22208"/><g><path d="M268.37089,184.75773c-0.58771,0 -1.06414,-0.48611 -1.06414,-1.08575c0,-0.59964 0.47643,-1.08575 1.06414,-1.08575c0.58771,0 1.06413,0.48611 1.06413,1.08575c0,0.59964 -0.47642,1.08575 -1.06413,1.08575z" fill="#000000" stroke="#000000" stroke-width="0.33116"/><path d="M267.91475,183.77635c-0.2722,0 -0.49286,-0.22303 -0.49286,-0.49815c0,-0.27513 0.22066,-0.49816 0.49286,-0.49816c0.2722,0 0.49286,0.22304 0.49286,0.49816c0,0.27513 -0.22066,0.49815 -0.49286,0.49815z" fill="#ffffff" stroke="#ffffff" stroke-width="0.15266"/></g></g><g data-paper-data="{&quot;index&quot;:null}"><path d="M261.79637,198.99089l5.90709,-3.30712c0,0 0,0 0.0609,6.40427z" fill="#c4c418" stroke="#e3e31c" stroke-width="0.35835"/><path d="M263.68115,192.11585c-0.09861,12.56832 -0.09861,12.56832 -0.09861,12.56832l-9.56508,-6.4902z" fill="#f6f626" stroke="#f6f626" stroke-width="0.6388"/><path d="M259.37949,198.581l2.99592,-1.54013c0,0 0,0.00001 0.03089,2.98247z" fill="#c4c418" stroke="#e3e31c" stroke-width="0.22208"/><g><path d="M257.57089,199.35773c-0.58771,0 -1.06413,-0.48611 -1.06413,-1.08575c0,-0.59964 0.47643,-1.08575 1.06413,-1.08575c0.58771,0 1.06413,0.48611 1.06413,1.08575c0,0.59964 -0.47642,1.08575 -1.06413,1.08575z" fill="#000000" stroke="#000000" stroke-width="0.33116"/><path d="M257.11474,198.37635c-0.2722,0 -0.49286,-0.22303 -0.49286,-0.49815c0,-0.27513 0.22066,-0.49816 0.49286,-0.49816c0.2722,0 0.49286,0.22304 0.49286,0.49816c0,0.27513 -0.22067,0.49815 -0.49286,0.49815z" fill="#ffffff" stroke="#ffffff" stroke-width="0.15266"/></g></g><g data-paper-data="{&quot;index&quot;:null}"><path d="M290.19638,187.79089l5.90708,-3.30712c0,0 0,0 0.0609,6.40426z" fill="#c4c418" stroke="#e3e31c" stroke-width="0.35835"/><path d="M292.08115,180.91585c-0.09861,12.56832 -0.09861,12.56832 -0.09861,12.56832l-9.56508,-6.4902z" fill="#f6f626" stroke="#f6f626" stroke-width="0.6388"/><path d="M287.7795,187.381l2.99592,-1.54013c0,0 0,0 0.03089,2.98247z" fill="#c4c418" stroke="#e3e31c" stroke-width="0.22208"/><g><path d="M285.97089,188.15773c-0.58771,0 -1.06414,-0.48611 -1.06414,-1.08575c0,-0.59964 0.47643,-1.08575 1.06414,-1.08575c0.58771,0 1.06413,0.48611 1.06413,1.08575c0,0.59964 -0.47642,1.08575 -1.06413,1.08575z" fill="#000000" stroke="#000000" stroke-width="0.33116"/><path d="M285.51475,187.17635c-0.2722,0 -0.49287,-0.22303 -0.49287,-0.49815c0,-0.27513 0.22067,-0.49816 0.49287,-0.49816c0.2722,0 0.49286,0.22304 0.49286,0.49816c0,0.27513 -0.22066,0.49815 -0.49286,0.49815z" fill="#ffffff" stroke="#ffffff" stroke-width="0.15266"/></g></g><g data-paper-data="{&quot;index&quot;:null}"><path d="M291.19638,162.59089l5.90708,-3.30712c0,0 0,0 0.0609,6.40427z" fill="#c4c418" stroke="#e3e31c" stroke-width="0.35835"/><path d="M293.08115,155.71585c-0.09861,12.56832 -0.09861,12.56832 -0.09861,12.56832l-9.56508,-6.4902z" fill="#f6f626" stroke="#f6f626" stroke-width="0.6388"/><path d="M288.7795,162.181l2.99592,-1.54013c0,0 0,0.00001 0.03089,2.98247z" fill="#c4c418" stroke="#e3e31c" stroke-width="0.22208"/><g><path d="M286.97089,162.95773c-0.58771,0 -1.06414,-0.48611 -1.06414,-1.08575c0,-0.59964 0.47643,-1.08575 1.06414,-1.08575c0.58771,0 1.06413,0.48611 1.06413,1.08575c0,0.59964 -0.47642,1.08575 -1.06413,1.08575z" fill="#000000" stroke="#000000" stroke-width="0.33116"/><path d="M286.51475,161.97635c-0.2722,0 -0.49286,-0.22303 -0.49286,-0.49815c0,-0.27513 0.22066,-0.49816 0.49286,-0.49816c0.2722,0 0.49286,0.22304 0.49286,0.49816c0,0.27513 -0.22066,0.49815 -0.49286,0.49815z" fill="#ffffff" stroke="#ffffff" stroke-width="0.15266"/></g></g></g></g></svg>