<svg version="1.1" xmlns="http://www.w3.org/2000/svg" xmlns:xlink="http://www.w3.org/1999/xlink" width="137.88154" height="143.38385" viewBox="0,0,137.88154,143.38385"><g transform="translate(-245.70899,-116.14419)"><g data-paper-data="{&quot;isPaintingLayer&quot;:true}" fill-rule="nonzero" stroke="#ffffff" stroke-linecap="butt" stroke-linejoin="miter" stroke-miterlimit="10" stroke-dasharray="" stroke-dashoffset="0" style="mix-blend-mode: normal"><path d="M245.709,259.52805v-143.38385h137.88154v143.38385z" fill="none" stroke-width="0"/><path d="M344.72673,144.31358c1.99671,8.50592 -35.5936,35.70301 -26.90574,28.37786c7.50824,-6.33055 31.11906,1.76694 36.74213,8.27687c6.55481,7.58865 8.83043,17.35158 8.38995,27.78694c-0.59596,14.11883 -8.02216,28.57516 -20.25153,35.17626c-13.30865,7.18371 -32.8154,7.36332 -45.13138,-1.47757c-11.54652,-8.28852 -16.92333,-25.84533 -15.6232,-40.20229c3.58566,-33.34901 26.41297,-53.65718 42.14948,-68.13312c5.67704,-5.2223 19.09977,3.67502 20.63029,10.19503zM308.56298,209.05101c-0.00003,7.99994 6.47679,14.48504 14.46612,14.48459c7.98891,-0.00012 14.46511,-6.48506 14.46508,-14.48459c0.00005,-7.99952 -6.47616,-14.48449 -14.46508,-14.48461c-7.98933,-0.00047 -14.46617,6.48467 -14.46612,14.48461z" fill="#1999e1" stroke-width="6"/></g></g></svg>