<svg version="1.1" xmlns="http://www.w3.org/2000/svg" xmlns:xlink="http://www.w3.org/1999/xlink" width="137.88154" height="143.38385" viewBox="0,0,137.88154,143.38385"><g transform="translate(-245.70899,-116.14419)"><g data-paper-data="{&quot;isPaintingLayer&quot;:true}" fill-rule="nonzero" stroke="#ffffff" stroke-linecap="butt" stroke-linejoin="miter" stroke-miterlimit="10" stroke-dasharray="" stroke-dashoffset="0" style="mix-blend-mode: normal"><path d="M245.709,259.52805v-143.38385h137.88154v143.38385z" fill="none" stroke-width="0"/><path d="M291.21056,137.20116c13.30207,-5.33337 43.93891,-5.26039 67.02703,-2.91258c7.00149,0.71197 5.18228,18.77323 2.69669,27.13201c-3.5157,11.82279 -29.96677,-0.07906 -42.2737,-0.29634c-4.59792,-0.08117 -4.56742,16.19469 0,15.70614c13.5931,-1.45393 31.56764,-2.34294 39.02189,7.70492c7.00734,9.44548 7.89695,23.54452 5.52808,37.04279c-2.25347,12.84067 -17.42127,24.50668 -31.54269,26.37448c-17.31187,2.28978 -45.84885,4.38545 -53.98026,-10.66832c-4.02578,-7.45296 3.32831,-19.24945 11.70656,-22.52203c9.86117,-3.85183 21.99871,15.07077 30.56714,9.18663c8.54526,-5.86824 4.56291,-30.13315 -1.26127,-29.23004c-10.7948,1.67383 -30.06333,8.62501 -33.53323,-2.4786c-3.76145,-12.03654 -8.5424,-49.19083 6.04378,-55.03907z" fill="#4fe3e4" stroke-width="6"/></g></g></svg>