<svg version="1.1" xmlns="http://www.w3.org/2000/svg" xmlns:xlink="http://www.w3.org/1999/xlink" width="149.05116" height="174.04731" viewBox="0,0,149.05116,174.04731"><g transform="translate(-244.54864,-93.90212)"><g data-paper-data="{&quot;isPaintingLayer&quot;:true}" fill-rule="nonzero" stroke="#ffffff" stroke-linecap="butt" stroke-linejoin="miter" stroke-miterlimit="10" stroke-dasharray="" stroke-dashoffset="0" style="mix-blend-mode: normal"><path d="M276.90174,136.44044c1.66724,-18.55701 26.28127,-26.69672 42.76393,-28.46617c10.84712,-1.16444 24.56239,2.32593 30.77709,12.40832c9.30248,15.09189 10.65791,43.9596 -0.64792,55.11516c-4.02756,3.97405 8.55939,11.22451 11.92606,18.68256c4.54651,10.07166 1.6686,24.15662 -1.88303,32.76791c-6.53662,15.84872 -25.35125,26.5043 -40.82011,25.1816c-18.01503,-1.54041 -42.03599,-16.75457 -43.06489,-37.07382c-0.39274,-7.75574 8.0463,-15.33182 14.90258,-16.16472c10.83288,-1.31596 17.13296,22.22181 27.83833,19.2981c8.59113,-2.3463 13.22547,-24.16106 7.45131,-24.45168c-7.77726,-0.39144 -20.72065,-0.85011 -25.45937,-9.37424c-2.23921,-4.02791 -0.71594,-10.2417 1.71473,-14.12619c5.00735,-8.00231 19.52742,-4.62583 23.14276,-13.52912c1.96433,-4.83744 1.04734,-13.40887 -3.28572,-15.52338c-8.78793,-4.28845 -15.42453,17.22231 -24.94564,16.05784c-9.1211,-1.11554 -21.33391,-10.51946 -20.41006,-20.80219z" fill="#ff950b" stroke-width="7.5"/><path d="M244.54865,267.94944v-174.04731h149.05116v174.04731z" fill="none" stroke-width="0"/></g></g></svg>