<svg version="1.1" xmlns="http://www.w3.org/2000/svg" xmlns:xlink="http://www.w3.org/1999/xlink" width="204.59417" height="297.22955" viewBox="0,0,204.59417,297.22955"><defs><linearGradient x1="222.86283" y1="236.90177" x2="415.73705" y2="146.37199" gradientUnits="userSpaceOnUse" id="color-1"><stop offset="0" stop-color="#ff9900"/><stop offset="1" stop-color="#ab2100"/></linearGradient><linearGradient x1="222.86284" y1="236.90177" x2="415.73705" y2="146.37199" gradientUnits="userSpaceOnUse" id="color-2"><stop offset="0" stop-color="#000000"/><stop offset="1" stop-color="#000000" stop-opacity="0"/></linearGradient></defs><g transform="translate(-214.89515,-20.15421)"><g data-paper-data="{&quot;isPaintingLayer&quot;:true}" fill-rule="nonzero" stroke-miterlimit="10" stroke-dasharray="" stroke-dashoffset="0" style="mix-blend-mode: normal"><path d="M296.17939,65.41288c31.39132,-18.52224 58.7302,-13.67788 83.87338,17.93057c25.14318,31.60846 48.08766,89.97723 36.21547,135.3735c-11.87221,45.39627 -58.5596,77.81454 -94.43392,91.41884c-35.87431,13.6043 -60.93111,8.39298 -80.45024,-18.48105c-19.51913,-26.87401 -33.49846,-75.40841 -22.76757,-120.62027c10.73088,-45.21186 46.17158,-87.09935 77.56288,-105.62159z" fill="url(#color-1)" stroke="url(#color-2)" stroke-width="0" stroke-linecap="round" stroke-linejoin="bevel" style="mix-blend-mode: lighten"/><path d="M333.13324,73.71695l-0.08656,-51.34344c0,0 7.35149,-3.96195 10.06493,-1.29854c12.87863,12.64118 -1.15023,51.92396 -1.15023,51.92396z" fill="#502d16" stroke="#000000" stroke-width="0" stroke-linecap="round" stroke-linejoin="bevel"/><path d="M401.78013,63.99782c3.78989,7.88471 -0.68375,11.39955 -18.84855,9.82159c-18.16481,-1.57797 -25.27702,-3.51998 -35.99378,-13.29595c-10.71676,-9.77597 7.15708,-18.59493 22.59945,-17.25347c15.44236,1.34146 28.45297,12.84312 32.24288,20.72783z" fill="#008000" stroke="#000000" stroke-width="0" stroke-linecap="round" stroke-linejoin="bevel"/><path d="M342.05859,137.99241c2.33483,9.94635 -41.62116,41.74911 -31.46206,33.18348c8.77971,-7.4026 36.38889,2.06615 42.9642,9.67851c7.66483,8.87374 10.32581,20.28997 9.81074,32.49248c-0.69689,16.50977 -9.38067,33.4142 -23.68101,41.13315c-15.56239,8.40022 -38.37248,8.61025 -52.77411,-1.72778c-13.50185,-9.69214 -19.7892,-30.22208 -18.26889,-47.0103c4.19287,-38.99645 30.88585,-62.74369 49.28724,-79.67106c6.63841,-6.10667 22.33419,4.29737 24.1239,11.92149zM299.77073,213.69274c-0.00005,9.35467 7.5736,16.938 16.91586,16.93747c9.34178,-0.00013 16.91469,-7.58326 16.91466,-16.93747c0.00005,-9.35419 -7.57286,-16.93734 -16.91466,-16.93749c-9.34226,-0.00055 -16.91593,7.58281 -16.91586,16.93749z" fill="#1999e1" stroke="#ffffff" stroke-width="6.5" stroke-linecap="butt" stroke-linejoin="miter"/></g></g></svg>