<svg version="1.1" xmlns="http://www.w3.org/2000/svg" xmlns:xlink="http://www.w3.org/1999/xlink" width="204.59417" height="297.22955" viewBox="0,0,204.59417,297.22955"><defs><linearGradient x1="222.86283" y1="236.90176" x2="415.73705" y2="146.37198" gradientUnits="userSpaceOnUse" id="color-1"><stop offset="0" stop-color="#ff9900"/><stop offset="1" stop-color="#ab2100"/></linearGradient><linearGradient x1="222.86284" y1="236.90176" x2="415.73705" y2="146.37198" gradientUnits="userSpaceOnUse" id="color-2"><stop offset="0" stop-color="#000000"/><stop offset="1" stop-color="#000000" stop-opacity="0"/></linearGradient></defs><g transform="translate(-214.89516,-20.15421)"><g data-paper-data="{&quot;isPaintingLayer&quot;:true}" fill-rule="nonzero" stroke-linecap="round" stroke-miterlimit="10" stroke-dasharray="" stroke-dashoffset="0" style="mix-blend-mode: normal"><g stroke-width="0" stroke-linejoin="bevel"><path d="M296.17939,65.41287c31.39132,-18.52224 58.7302,-13.67788 83.87338,17.93057c25.14318,31.60846 48.08766,89.97723 36.21547,135.3735c-11.87221,45.39627 -58.5596,77.81454 -94.43392,91.41884c-35.87431,13.6043 -60.93111,8.39298 -80.45024,-18.48105c-19.51913,-26.87401 -33.49846,-75.40841 -22.76757,-120.62027c10.73088,-45.21186 46.17158,-87.09935 77.56288,-105.62159z" fill="url(#color-1)" stroke="url(#color-2)" style="mix-blend-mode: lighten"/><path d="M333.13324,73.71694l-0.08656,-51.34344c0,0 7.35149,-3.96195 10.06493,-1.29854c12.87863,12.64118 -1.15023,51.92396 -1.15023,51.92396z" fill="#502d16" stroke="#000000"/><path d="M401.78013,63.99781c3.78989,7.88471 -0.68375,11.39955 -18.84855,9.82159c-18.16481,-1.57797 -25.27702,-3.51998 -35.99378,-13.29595c-10.71676,-9.77597 7.15708,-18.59493 22.59945,-17.25347c15.44236,1.34146 28.45297,12.84312 32.24288,20.72783z" fill="#008000" stroke="#000000"/></g><path d="M347.84724,57.76691c13.43469,0.66188 27.85595,7.45382 36.02629,10.14775" fill="#00ff00" stroke="#000000" stroke-width="0" stroke-linejoin="bevel"/><path d="M361.53646,135.85253c11.08243,13.59595 17.3084,32.03595 17.30828,51.26337c-0.00029,40.03855 -26.45782,72.4961 -59.09483,72.49633c-32.63701,-0.00024 -59.09454,-32.45779 -59.09483,-72.49633c-0.00014,-19.22744 6.22583,-37.66742 17.30828,-51.26337c11.08243,-13.59595 26.11351,-21.23413 41.78657,-21.23426c15.67305,0.00012 30.70412,7.63831 41.78657,21.23426zM296.50299,187.29787c0.00016,22.23215 10.88483,40.25487 24.31186,40.2554c13.42706,-0.00052 24.31171,-18.02325 24.31186,-40.2554c0.00027,-22.23264 -10.88451,-40.25616 -24.31186,-40.25666c-13.42736,0.00052 -24.31215,18.02402 -24.31186,40.25666z" fill="#00add6" stroke="#ffffff" stroke-width="7.5" stroke-linejoin="miter"/></g></g></svg>