<svg version="1.1" xmlns="http://www.w3.org/2000/svg" xmlns:xlink="http://www.w3.org/1999/xlink" width="271.3309" height="248.21371" viewBox="0,0,271.3309,248.21371"><g transform="translate(-184.13366,-55.73476)"><g data-paper-data="{&quot;isPaintingLayer&quot;:true}" fill-rule="nonzero" stroke-linecap="butt" stroke-linejoin="miter" stroke-miterlimit="10" stroke-dasharray="" stroke-dashoffset="0" style="mix-blend-mode: normal"><path d="M337.82134,191.62963l116.26262,-65.09034c0,0 0,0 1.19859,126.04803z" data-paper-data="{&quot;index&quot;:null}" fill="#c4c418" stroke="#e3e31c" stroke-width="0.35835"/><path d="M374.91723,56.31585c-1.9408,247.36832 -1.9408,247.36832 -1.9408,247.36832l-188.25898,-127.73941z" data-paper-data="{&quot;index&quot;:null}" fill="#f6f626" stroke="#f6f626" stroke-width="0.6388"/><path d="M290.25257,183.5622l58.9653,-30.31261c0,0 0,0 0.60791,58.7006z" data-paper-data="{&quot;index&quot;:null}" fill="#c4c418" stroke="#e3e31c" stroke-width="0.22208"/><g data-paper-data="{&quot;index&quot;:null}"><path d="M254.65573,198.84974c-11.56713,0 -20.94414,-9.56748 -20.94414,-21.36957c0,-11.80209 9.377,-21.36957 20.94414,-21.36957c11.5671,0 20.94411,9.56748 20.94411,21.36957c0,11.80209 -9.37697,21.36957 -20.94411,21.36957z" fill="#000000" stroke="#000000" stroke-width="0.33116"/><path d="M245.67799,179.53436c-5.35745,0 -9.70049,-4.38971 -9.70049,-9.80467c0,-5.415 4.34308,-9.80471 9.70049,-9.80471c5.35745,0 9.70049,4.38975 9.70049,9.80471c0,5.415 -4.34308,9.80467 -9.70049,9.80467z" fill="#ffffff" stroke="#ffffff" stroke-width="0.15266"/></g></g></g></svg>