<svg version="1.1" xmlns="http://www.w3.org/2000/svg" xmlns:xlink="http://www.w3.org/1999/xlink" width="60.00016" height="60" viewBox="0,0,60.00016,60"><g transform="translate(-239.99984,-150)"><g data-paper-data="{&quot;isPaintingLayer&quot;:true}" fill-rule="nonzero" stroke-miterlimit="10" stroke-dasharray="" stroke-dashoffset="0" style="mix-blend-mode: normal"><path d="M300,150v60h-60.00015v-18.0593c1.74077,0.89953 3.67646,1.37424 5.64344,1.38402c6.76737,0.00004 12.25345,-5.38798 12.2535,-12.03449c0.00008,-3.19183 -1.29088,-6.25297 -3.58887,-8.50996c-2.29799,-2.25699 -5.41476,-3.52495 -8.66464,-3.52493c-1.96702,0.0099 -3.9027,0.48475 -5.64344,1.38441v-20.63975z" fill="#559f41" stroke="none" stroke-width="0.11881" stroke-linecap="butt" stroke-linejoin="miter"/><g stroke="#dacc2e" stroke-width="0" stroke-linecap="round" stroke-linejoin="bevel"><path d="M279.34154,159.11267l-1.68982,-2.9199l2.81947,0.1549" fill="#f79e00"/><path d="M285.65125,157.14604c1.19053,1.92295 0.77691,4.79988 2.05381,6.70396c1.2769,1.90408 4.24432,2.83529 5.00176,3.39452c0.75745,0.55922 -0.69508,0.74646 -0.36401,0.95622c0.33107,0.20976 2.44574,0.44204 0.14709,1.35464c-2.29865,0.9126 -9.0105,2.50548 -12.01587,-0.09288c-3.00537,-2.59836 -2.30403,-9.38777 -0.55599,-12.29805c1.74804,-2.91028 4.54267,-1.94135 5.7332,-0.0184z" fill="#008000"/><path d="M294.35449,168.11898c-1.16307,0.60382 -2.2981,0.49292 -2.53516,-0.24771c-0.23706,-0.74063 0.51362,-1.83052 1.67669,-2.43435c1.16307,-0.60382 2.2981,-0.49292 2.53516,0.24771c0.23706,0.74063 -0.51362,1.83052 -1.67669,2.43435z" fill="#800080"/><path d="M293.55203,170.90516c-1.09341,-0.78713 -1.72927,-1.98966 -1.42025,-2.68593c0.30902,-0.69627 1.44592,-0.62261 2.53933,0.16453c1.09341,0.78713 1.72927,1.98966 1.42025,2.68593c-0.30902,0.69627 -1.44592,0.62261 -2.53933,-0.16453z" fill="#800080"/><path d="M283.95449,170.73466c0,0.26426 0,1.05704 0,1.58556c0,0.52852 0,1.3213 0,1.58556h-0.31124c0,-0.26426 0,-1.05704 0,-1.58556c0,-0.52852 0,-1.3213 0,-1.58556z" fill="#f79e00"/><path d="M283.89214,174.0181c-0.01642,0.02737 -0.0522,0.08508 -0.10563,0.149c-0.02844,0.03402 -0.06742,0.07659 -0.11969,0.12264c-0.07252,0.06393 -0.14654,0.11398 -0.23252,0.16804c-0.08085,0.05086 -0.14381,0.08851 -0.20913,0.13719c-0.08858,0.06603 -0.14123,0.12459 -0.17663,0.16968l-0.22008,-0.28029c0.05207,-0.06632 0.12552,-0.14654 0.23949,-0.23149c0.07756,-0.05782 0.15443,-0.10386 0.22851,-0.15049c0.08192,-0.05153 0.13969,-0.09137 0.19323,-0.13857c0.03769,-0.0332 0.06474,-0.06292 0.08375,-0.08566c0.03603,-0.04312 0.06013,-0.08199 0.07137,-0.1007z" fill="#f79e00"/><path d="M283.91767,173.87226c-0.00065,0.01612 -0.00121,0.04848 0.00267,0.10305c0.00278,0.03915 0.00748,0.08494 0.01446,0.13829c0.00635,0.04852 0.014,0.09872 0.02224,0.14848c0.00824,0.04975 0.01795,0.10443 0.02967,0.16662c0.02008,0.10659 0.03933,0.2 0.05602,0.28453c0.00858,0.04348 0.01521,0.0782 0.02004,0.1067c0.00285,0.01678 0.00511,0.03158 0.00682,0.04483c0.00101,0.00801 0.00186,0.01582 0.00251,0.02357c0.0008,0.00961 0.00136,0.01992 0.00136,0.03081h-0.31124c0,0.00634 0.00033,0.01018 0.00041,0.01146c0.00008,0.00128 0.00003,0.00064 -0.00027,-0.00192c-0.00055,-0.00423 -0.00166,-0.01185 -0.00382,-0.02453c-0.00371,-0.02181 -0.00928,-0.05136 -0.01771,-0.09402c-0.0157,-0.07955 -0.03625,-0.17947 -0.05682,-0.28867c-0.01227,-0.06512 -0.02264,-0.12341 -0.03156,-0.17734c-0.0089,-0.05376 -0.01744,-0.10966 -0.0247,-0.16506c-0.00797,-0.06087 -0.01381,-0.11677 -0.01744,-0.16781c-0.00518,-0.07298 -0.00493,-0.12403 -0.00352,-0.159z" fill="#f79e00"/><path d="M283.90967,173.73027c0.04891,0.08105 0.11326,0.19524 0.19519,0.36885c0.06147,0.13027 0.08927,0.19751 0.1685,0.37513c0.05295,0.11871 0.1033,0.2269 0.15912,0.33c0.077,0.14221 0.14305,0.23413 0.19007,0.29401l-0.22008,0.28029c-0.05803,-0.0739 -0.13679,-0.1841 -0.22622,-0.34928c-0.0636,-0.11746 -0.11923,-0.23752 -0.17352,-0.35924c-0.08186,-0.18353 -0.10579,-0.24201 -0.16464,-0.36672c-0.07535,-0.15969 -0.13291,-0.26143 -0.17519,-0.33148z" fill="#f79e00"/><path d="M286.80518,170.5088c0.05333,0.42912 0.09927,0.98489 0.10958,1.83947c0.00543,0.4285 0.00101,0.93315 -0.0005,1.14595c-0.00251,0.36037 -0.00302,0.51335 -0.00302,0.67915h-0.31125c0,-0.16751 0.0005,-0.32182 0.00302,-0.68269c0.00151,-0.21495 0.00609,-0.7138 0.00101,-1.13631c-0.01012,-0.83757 -0.05495,-1.37457 -0.10579,-1.78359z" fill="#f79e00"/><path d="M286.85852,174.32881c-0.0269,0.02709 -0.06705,0.07423 -0.11115,0.16188c-0.01091,0.02173 -0.02127,0.04427 -0.03123,0.06746c-0.01773,0.04138 -0.03538,0.08778 -0.05666,0.14875c-0.02503,0.07181 -0.05461,0.16358 -0.08282,0.23729c-0.01641,0.04295 -0.03296,0.08161 -0.05071,0.11703c-0.02556,0.05098 -0.0492,0.08602 -0.06891,0.11112l-0.22008,-0.28029c0.00438,-0.00551 0.01368,-0.01825 0.0267,-0.04419c0.00966,-0.0192 0.02042,-0.04386 0.03324,-0.07736c0.02279,-0.05954 0.04942,-0.14214 0.07813,-0.22446c0.02347,-0.06731 0.04489,-0.12402 0.06788,-0.1777c0.01287,-0.03005 0.02696,-0.06079 0.04239,-0.09154c0.06487,-0.1289 0.12948,-0.20786 0.18013,-0.25891z" fill="#f79e00"/><path d="M286.91016,174.03233c0.07393,0.08253 0.17036,0.20404 0.27775,0.39176c0.06044,0.10566 0.11318,0.21241 0.15895,0.30864c0.01453,0.0306 0.02912,0.06163 0.04491,0.09551c0.05875,0.12594 0.11964,0.2592 0.18627,0.38475c0.08989,0.16941 0.16439,0.27511 0.22143,0.34774l-0.22008,0.28029c-0.06979,-0.08888 -0.15726,-0.21391 -0.25923,-0.40609c-0.07278,-0.13715 -0.13959,-0.28337 -0.19597,-0.40424c-0.01559,-0.03339 -0.02967,-0.06337 -0.04355,-0.09258c-0.04404,-0.09258 -0.0915,-0.1883 -0.14431,-0.28062c-0.09185,-0.16056 -0.17197,-0.2608 -0.23135,-0.32708z" fill="#f79e00"/><path d="M286.96318,174.14268c0,0.15415 0,0.61661 0,0.92491c0,0.3083 0,0.77076 0,0.92491h-0.31125c0,-0.15415 0,-0.61661 0,-0.92491c0,-0.3083 0,-0.77076 0,-0.92491z" fill="#f79e00"/><path d="M280.62069,157.92513c0,-1.07636 0.73158,-1.94892 1.63403,-1.94892c0.90245,0 1.63403,0.87256 1.63403,1.94892c0,1.07636 -0.73158,1.94892 -1.63403,1.94892c-0.90245,0 -1.63403,-0.87256 -1.63403,-1.94892z" fill="#ffffff"/><path d="M281.18769,156.81846c0.38728,-0.50516 1.1783,-0.52761 1.58207,-0.03368c0.40377,0.49393 0.42025,1.50423 0.03297,2.0094c-0.38728,0.50517 -1.1783,0.50517 -1.58207,0.01123c-0.40377,-0.49393 -0.42025,-1.4818 -0.03297,-1.98696z" fill="#000000"/><path d="M283.49856,157.40119l-0.85002,0.36317l0.52686,-1.14316" fill="#f9f9f9"/><path d="M288.19318,166.28788c1.62619,1.18346 1.87072,2.27346 0.35461,2.72505c-1.51612,0.45159 -4.79283,0.26473 -6.41902,-0.91872c-1.62619,-1.18345 -1.60174,-3.36349 -0.08562,-3.81507c1.51612,-0.45158 4.52385,0.82527 6.15004,2.00874z" fill="#800080"/></g><g stroke="#dacc2e" stroke-width="0" stroke-linecap="round" stroke-linejoin="bevel"><path d="M274.57279,168.55991c0.73075,1.78582 -1.05805,4.80895 -1.56983,7.35061c-0.51178,2.54166 0.40768,5.01698 -0.21121,6.67347c-0.61889,1.65649 -3.2617,4.04071 -5.60993,3.86015c-2.34823,-0.18056 -4.33588,-2.46405 -6.45065,-4.89357c1.20938,-0.04775 2.41946,-0.09553 3.3327,-0.39284c0.91324,-0.29731 1.53176,-0.84483 2.02879,-3.4665c0.49703,-2.62167 0.87292,-7.31782 2.68602,-9.39168c1.8131,-2.07386 5.06337,-1.52546 5.79412,0.26036z" fill="#ce0a0a"/><path d="M274.76053,169.49618l2.91754,2.63952l-3.81864,0.74123" fill="#f79e00"/><path d="M269.1107,169.70159c0,-1.15328 0.90519,-2.0882 2.0218,-2.0882c1.11661,0 2.0218,0.93492 2.0218,2.0882c0,1.15328 -0.90519,2.0882 -2.0218,2.0882c-1.11661,0 -2.0218,-0.93492 -2.0218,-2.0882z" fill="#ffffff"/><path d="M270.00649,168.5329c0.53001,-0.60018 1.61256,-0.62686 2.16513,-0.04001c0.55257,0.58685 0.57513,1.78719 0.04512,2.38739c-0.53001,0.6002 -1.61256,0.6002 -2.16513,0.01335c-0.55257,-0.58685 -0.57513,-1.76054 -0.04512,-2.36073z" fill="#000000"/><path d="M269.93008,168.25362l0.82303,1.31197l-1.29867,-0.62661" fill="#f9f9f9"/><path d="M267.388,185.32967c0.06353,0.183 0.16187,0.4984 0.23576,0.94431c0.05155,0.31107 0.09349,0.69431 0.10979,1.20707c0.02717,0.85461 -0.01148,1.80512 -0.01148,2.15243h-0.47654c0,-0.35701 0.03774,-1.31672 0.01179,-2.13321c-0.01552,-0.48827 -0.05513,-0.84487 -0.102,-1.12774c-0.06708,-0.40482 -0.15551,-0.68711 -0.21111,-0.84725z" fill="#f79e00"/><path d="M267.79551,189.51432c-0.02694,0.13282 -0.05655,0.29346 -0.10357,0.58765c-0.01684,0.10533 -0.06404,0.40947 -0.09726,0.60148c-0.03491,0.20173 -0.07298,0.39669 -0.11921,0.58016c-0.06462,0.25647 -0.12815,0.42112 -0.17566,0.52819l-0.42623,-0.24012c0.03455,-0.07786 0.08717,-0.21125 0.14347,-0.43471c0.04108,-0.16302 0.07622,-0.3416 0.1099,-0.53627c0.03236,-0.18703 0.07808,-0.48177 0.096,-0.5939c0.04795,-0.30004 0.07901,-0.46917 0.10801,-0.61213z" fill="#f79e00"/><path d="M267.59954,189.25424c0.08966,0.09141 0.19957,0.19904 0.40436,0.38907c0.07332,0.06804 0.28573,0.26311 0.41815,0.38962c0.13913,0.13292 0.27146,0.26565 0.39092,0.40077c0.16698,0.18889 0.26341,0.33181 0.32309,0.43086l-0.39427,0.30158c-0.04339,-0.07202 -0.12096,-0.18895 -0.26644,-0.35352c-0.10614,-0.12007 -0.22723,-0.2419 -0.36148,-0.37017c-0.12899,-0.12323 -0.33485,-0.31225 -0.4129,-0.38468c-0.20886,-0.1938 -0.32464,-0.307 -0.42115,-0.4054z" fill="#f79e00"/><path d="M270.31575,189.60201c0.08966,0.09141 0.19957,0.19904 0.40436,0.38907c0.07332,0.06804 0.28573,0.26311 0.41815,0.38962c0.13913,0.13292 0.27146,0.26565 0.39092,0.40077c0.16698,0.18889 0.26341,0.33181 0.32309,0.43086l-0.39427,0.30158c-0.04339,-0.07202 -0.12096,-0.18895 -0.26644,-0.35352c-0.10614,-0.12007 -0.22723,-0.2419 -0.36148,-0.37017c-0.12899,-0.12323 -0.33485,-0.31225 -0.4129,-0.38468c-0.20886,-0.1938 -0.32464,-0.307 -0.42115,-0.4054z" fill="#f79e00"/><path d="M270.02867,185.33466c0.06353,0.183 0.16187,0.4984 0.23576,0.94431c0.05155,0.31107 0.09349,0.69431 0.10979,1.20707c0.02717,0.85461 -0.01148,1.80512 -0.01148,2.15243h-0.47654c0,-0.35701 0.03774,-1.31672 0.01179,-2.13321c-0.01552,-0.48827 -0.05513,-0.84487 -0.102,-1.12774c-0.06708,-0.40482 -0.15551,-0.68711 -0.21111,-0.84725z" fill="#f79e00"/><path d="M270.33221,189.6274c-0.02694,0.13282 -0.05655,0.29346 -0.10357,0.58765c-0.01684,0.10533 -0.06404,0.40947 -0.09726,0.60148c-0.03491,0.20173 -0.07298,0.39669 -0.11921,0.58016c-0.06462,0.25647 -0.12815,0.42112 -0.17566,0.52819l-0.42623,-0.24012c0.03455,-0.07786 0.08717,-0.21125 0.14347,-0.43471c0.04108,-0.16302 0.07622,-0.3416 0.1099,-0.53627c0.03236,-0.18703 0.07808,-0.48177 0.096,-0.5939c0.04795,-0.30004 0.07901,-0.46917 0.10801,-0.61213z" fill="#f79e00"/><path d="M268.96708,181.42612c-0.94815,0.352 -2.36801,0.87912 -2.5163,0.46643c-0.14829,-0.41269 0.38775,-3.39947 1.31465,-4.29981c0.92691,-0.90034 2.42267,-0.70646 3.07385,0.41058c0.65119,1.11703 0.45773,3.15712 0.26426,5.19725" fill="#aa0000"/></g><g stroke-width="0" stroke-linecap="round" stroke-linejoin="bevel"><path d="M287.04473,187.10334c1.39195,2.1504 0.90835,5.36764 2.40129,7.49695c1.49293,2.1293 4.96239,3.17067 5.4906,3.86569c0.52821,0.69503 -1.88483,1.04372 -1.49774,1.27829c0.38709,0.23457 3.57429,0.35502 1.70158,1.30591c-1.87272,0.95089 -8.80536,2.73223 -12.31913,-0.1735c-3.51377,-2.90573 -3.60866,-10.49823 -2.02232,-13.75276c1.58634,-3.25453 4.85377,-2.17098 6.24572,-0.02058z" fill="#0000ff" stroke="#dacc2e"/><path d="M279.9712,188.89086h-5.21591" fill="#000000" stroke="#dacc2e"/><path d="M280.09803,191.70759l-4.21048,-3.33404l4.91687,-1.17223" fill="#000000" stroke="#dacc2e"/><path d="M284.42899,190.81174c-1.22261,0 -2.21373,-1.05847 -2.21373,-2.36415c0,-1.30568 0.99112,-2.36415 2.21373,-2.36415c1.22261,0 2.21373,1.05847 2.21373,2.36415c0,1.30568 -0.99112,2.36415 -2.21373,2.36415z" fill="#ffffff" stroke="#dacc2e"/><path d="M285.45612,187.41753c0.55078,0.60566 0.52734,1.79006 -0.04689,2.38226c-0.57423,0.5922 -1.69921,0.5922 -2.24999,-0.01347c-0.55078,-0.60567 -0.52734,-1.81696 0.04689,-2.40916c0.57423,-0.5922 1.69921,-0.56528 2.24999,0.04038z" fill="#000000" stroke="#dacc2e"/><path d="M283.03033,187.26551l1.06507,0.871l-1.4556,0.16331" fill="#f9f9f9" stroke="#dacc2e"/><path d="M288.65194,202.25484c-0.15726,0.36006 -0.31186,0.86484 -0.39966,1.62011c-0.0062,0.05336 -0.01222,0.10915 -0.01798,0.16758c-0.07207,0.73043 -0.06684,1.57201 -0.06684,1.93091h-0.51463c0,-0.34681 -0.006,-1.23007 0.07052,-2.00571c0.0062,-0.06281 0.01268,-0.12296 0.01939,-0.18067c0.09552,-0.82168 0.2673,-1.39719 0.45487,-1.82666z" fill="#000000" stroke="none"/><path d="M286.31235,201.67267c-0.12576,0.19777 -0.30599,0.51789 -0.44762,0.97066c-0.10196,0.32593 -0.16877,0.66983 -0.21044,1.0394c-0.06018,0.53373 -0.06228,1.10542 -0.06272,1.41124c-0.00017,0.12054 0.00253,1 0.0027,0.87946h-0.51463c0,0.12623 -0.0027,-0.75433 -0.0027,-0.88056c0.00044,-0.30279 0.00194,-0.91428 0.0675,-1.49545c0.04593,-0.4073 0.12098,-0.79881 0.23938,-1.17731c0.16509,-0.52776 0.37578,-0.90192 0.52168,-1.13134z" fill="#000000" stroke="none"/><path d="M288.17253,205.77228c0.01928,0.04061 0.05912,0.12176 0.13224,0.24638c0.0248,0.04226 0.05696,0.0956 0.09926,0.16277c0.08623,0.1369 0.17357,0.26688 0.29563,0.44816c0.10537,0.1565 0.20354,0.30286 0.28976,0.44239c0.04832,0.07819 0.08841,0.14705 0.12226,0.20963c0.04829,0.08928 0.07792,0.1549 0.09712,0.20169l-0.32548,0.19824c-0.01262,-0.0308 -0.03501,-0.08116 -0.07552,-0.15605c-0.02877,-0.05322 -0.06428,-0.11436 -0.10912,-0.18693c-0.08093,-0.13097 -0.17432,-0.27032 -0.28039,-0.42787c-0.12151,-0.18047 -0.21257,-0.31591 -0.30297,-0.45944c-0.04479,-0.07112 -0.0794,-0.12848 -0.1066,-0.17484c-0.08081,-0.13773 -0.12692,-0.23107 -0.15124,-0.28231z" fill="#000000" stroke="none"/><path d="M287.92191,205.96466c-0.05332,0.04097 -0.14238,0.11932 -0.25647,0.27114c-0.08797,0.11706 -0.16843,0.24786 -0.23847,0.37407c-0.01074,0.01934 -0.02103,0.03818 -0.0308,0.05644c-0.05914,0.11007 -0.11558,0.22516 -0.16921,0.3422c-0.07187,0.15685 -0.13113,0.30148 -0.14918,0.34546l-0.32548,-0.19824c0.01825,-0.04448 0.08067,-0.1969 0.15691,-0.36326c0.05703,-0.12445 0.11787,-0.24866 0.18248,-0.36892c0.0107,-0.01991 0.02198,-0.04061 0.03381,-0.06188c0.07649,-0.13782 0.16791,-0.28723 0.27152,-0.4251c0.13712,-0.18247 0.25146,-0.28581 0.33066,-0.3467z" fill="#000000" stroke="none"/><path d="M285.23595,206.02281c-0.04969,0.0169 -0.12409,0.04999 -0.21891,0.12975c-0.04574,0.03846 -0.08934,0.08186 -0.13114,0.12699c-0.02311,0.02493 -0.04727,0.05214 -0.07448,0.08378c-0.06369,0.074 -0.13613,0.16393 -0.20827,0.24325c-0.10336,0.11364 -0.17893,0.17376 -0.24442,0.21365l-0.16274,-0.39648c0.03093,-0.01884 0.07969,-0.05422 0.16334,-0.14623c0.06038,-0.0664 0.13169,-0.1545 0.20093,-0.23495c0.0296,-0.03438 0.0571,-0.06539 0.08428,-0.09474c0.04877,-0.05264 0.10419,-0.10824 0.16569,-0.15999c0.13249,-0.11148 0.24488,-0.16381 0.32805,-0.19203z" fill="#000000" stroke="none"/><path d="M285.61149,205.7258c0.00318,0.08871 0.01605,0.21665 0.06955,0.37164c0.02225,0.06446 0.04881,0.12614 0.07803,0.1859c0.02231,0.04562 0.0484,0.09469 0.0806,0.15091c0.06086,0.10628 0.13884,0.22789 0.21135,0.34901c0.10615,0.17733 0.16476,0.29774 0.20859,0.40452l-0.32548,0.19824c-0.03329,-0.08111 -0.08072,-0.18053 -0.17714,-0.3416c-0.06733,-0.11247 -0.14726,-0.23694 -0.21576,-0.35655c-0.03631,-0.06339 -0.06728,-0.12145 -0.09478,-0.17767c-0.03587,-0.07334 -0.0707,-0.15358 -0.10086,-0.24096c-0.07435,-0.2154 -0.09313,-0.39779 -0.09765,-0.52418z" fill="#000000" stroke="none"/><path d="M287.55659,200.49627c-0.79985,-0.03284 -2.39954,-0.09853 -3.1904,-1.20423c-0.79086,-1.10571 -0.77288,-3.25135 0.02698,-4.37893c0.79986,-1.12758 2.38155,-1.23705 3.17241,-0.13134c0.79086,1.10571 0.79086,3.42651 0.79086,4.58693c0,1.16042 0,1.16042 -0.79985,1.12758z" fill="#000080" stroke="#dacc2e"/></g></g></g></svg>