<svg version="1.1" xmlns="http://www.w3.org/2000/svg" xmlns:xlink="http://www.w3.org/1999/xlink" width="219.89335" height="156.69271" viewBox="0,0,219.89335,156.69271"><g transform="translate(-203.5089,-102.2146)"><g data-paper-data="{&quot;isPaintingLayer&quot;:true}" fill-rule="nonzero" stroke-linejoin="miter" stroke-miterlimit="10" stroke-dasharray="" stroke-dashoffset="0" style="mix-blend-mode: normal"><path d="M243.65377,155.95912c-6.01012,-11.9846 -2.45166,-14.92054 19.45924,-27.62773c6.0855,-3.52927 28.14639,-13.70086 28.3946,-3.65353c0.58141,23.53377 0,91.35063 0,91.35063c0,0 11.28595,-1.01763 16.28222,1.2558c6.96195,3.16786 5.34053,20.69178 -1.38995,21.34871c-19.53293,1.90649 -33.77329,0.53607 -58.17914,0.41858c-7.29142,-0.0351 -7.54172,-19.53216 -0.99282,-22.39519c5.09412,-2.22702 18.26785,-0.83721 18.26785,-0.83721l-0.19856,-58.18569c0,0 -17.48164,6.62449 -21.64344,-1.6744z" fill="#00ff46" stroke="#ffffff" stroke-width="7.5" stroke-linecap="round"/><path d="M385.35434,135.94538c2.02054,8.60744 -36.01844,36.12916 -27.22688,28.71657c7.59785,-6.40612 31.49049,1.78803 37.18068,8.37567c6.63304,7.67922 8.93582,17.55868 8.4901,28.1186c-0.60308,14.28735 -8.11792,28.91622 -20.49325,35.59612c-13.4675,7.26945 -33.20708,7.45121 -45.67006,-1.4952c-11.68434,-8.38745 -17.12533,-26.15381 -15.80967,-40.68213c3.62846,-33.74705 26.72823,-54.29761 42.65256,-68.94634c5.7448,-5.28464 19.32774,3.71889 20.87652,10.31671zM348.75894,201.45551c-0.00003,8.09543 6.5541,14.65793 14.63878,14.65748c8.08426,-0.00012 14.63776,-6.56246 14.63773,-14.65748c0.00005,-8.095 -6.55346,-14.65737 -14.63773,-14.65749c-8.08469,-0.00048 -14.63883,6.56207 -14.63878,14.65749z" fill="#00ff46" stroke="#ffffff" stroke-width="7.5" stroke-linecap="butt"/><g data-paper-data="{&quot;isHelperItem&quot;:true}" fill="none" stroke-linecap="butt"><path d="M203.5089,258.90732v-156.6927h219.89335v156.6927z" stroke="none" stroke-width="NaN"/><g data-paper-data="{&quot;isSelectionBound&quot;:true,&quot;isHelperItem&quot;:true}" stroke="#009dec"><path d="M203.5089,258.90732v-78.34636v-78.34635h109.94667h109.94667v78.34635v78.34636h-109.94667z" stroke-width="0"/><path d="M313.0816,182.43081v-1.49587h-1.49588c-0.20653,0 -0.37396,-0.16744 -0.37396,-0.37397c0,-0.20654 0.16743,-0.37396 0.37396,-0.37396h1.49588v-1.49587c0,-0.20654 0.16744,-0.37397 0.37397,-0.37397c0.20653,0 0.37396,0.16744 0.37396,0.37397v1.49587h1.49588c0.20653,0 0.37397,0.16743 0.37397,0.37396c0,0.20654 -0.16744,0.37397 -0.37397,0.37397h-1.49588v1.49587c0,0.20654 -0.16743,0.37396 -0.37396,0.37396c-0.20653,0 -0.37397,-0.16743 -0.37397,-0.37396z" stroke-width="0.37397"/></g></g></g></g></svg>