<svg version="1.1" xmlns="http://www.w3.org/2000/svg" xmlns:xlink="http://www.w3.org/1999/xlink" width="55.4505" height="101.17065" viewBox="0,0,55.4505,101.17065"><g transform="translate(-292.27475,-129.4099)"><g data-paper-data="{&quot;isPaintingLayer&quot;:true}" fill-rule="nonzero" stroke-linecap="butt" stroke-linejoin="miter" stroke-miterlimit="10" stroke-dasharray="" stroke-dashoffset="0" style="mix-blend-mode: normal"><g><path d="M320.17386,183.94922c-2.29189,-2.81937 -2.345,-6.51807 -0.11863,-8.26128c2.22637,-1.74321 5.88914,-0.87082 8.18103,1.94855c2.29189,2.81937 2.345,6.51807 0.11863,8.26128c-2.22637,1.74321 -5.88914,0.87082 -8.18103,-1.94855z" fill="#82d22d" stroke="#82d22d" stroke-width="0.29894"/><path d="M311.15691,186.48126c-2.22637,-1.74321 -2.17326,-5.44191 0.11863,-8.26128c2.29189,-2.81937 5.95466,-3.69176 8.18103,-1.94855c2.22637,1.74321 2.17326,5.44191 -0.11863,8.26128c-2.29189,2.81937 -5.95466,3.69176 -8.18103,1.94855z" fill="#82d22d" stroke="#82d22d" stroke-width="0.29894"/><path d="M323.05036,229.53067c0.11003,2.27832 -9.00786,-0.34319 -8.38359,-1.46206c4.72557,-8.46949 8.09387,-45.4543 -1.0899,-58.01693c-1.88158,-2.57384 4.82467,-3.3256 5.03755,-2.93613c8.6537,15.832 4.31768,59.96627 4.43595,62.41511z" fill="#82d22d" stroke="#82d22d" stroke-width="0.29531"/><path d="M306.54488,146.07788c0,-9.11864 6.30583,-16.51076 14.08446,-16.51076c7.77863,0 14.08446,7.39212 14.08446,16.51076c0,9.11864 -6.30583,16.51076 -14.08446,16.51076c-7.77863,0 -14.08446,-7.39212 -14.08446,-16.51076z" fill-opacity="0.95294" fill="#e62eff" stroke-opacity="0.95294" stroke="#b783d3" stroke-width="0.31445"/><path d="M322.47566,153.36336c5.53743,6.2352 1.31288,21.50874 -3.42948,24.84895c-23.801,16.76391 -46.98388,-71.93367 3.42948,-24.84895z" fill-opacity="0.95294" fill="#e65dff" stroke-opacity="0.95294" stroke="#e55eff" stroke-width="0.36502"/><path d="M320.95381,178.2123c-4.74236,-3.34021 -8.96691,-18.61374 -3.42948,-24.84895c50.41337,-47.08473 27.23048,41.61286 3.42948,24.84895z" fill-opacity="0.95294" fill="#e55eff" stroke-opacity="0.95294" stroke="#e65dff" stroke-width="0.36502"/></g></g></g></svg>