<svg version="1.1" xmlns="http://www.w3.org/2000/svg" xmlns:xlink="http://www.w3.org/1999/xlink" width="688.18769" height="425.42493" viewBox="0,0,688.18769,425.42493"><g transform="translate(23.34309,31.9617)"><g data-paper-data="{&quot;isPaintingLayer&quot;:true}" fill-rule="nonzero" stroke="#ffffff" stroke-linecap="butt" stroke-linejoin="miter" stroke-miterlimit="10" stroke-dasharray="" stroke-dashoffset="0" style="mix-blend-mode: normal"><path d="M-23.09309,393.21322v-424.92492h687.68769v424.92493z" fill-opacity="0.22745" fill="#000000" stroke-width="0.5"/><path d="M283.55857,113.80596c16.08851,-13.48948 43.44824,-12.32001 61.13989,-1.40784c13.94208,8.59945 24.422,28.04828 23.51535,45.33208c-1.41598,26.99306 -43.8953,65.88636 -43.8953,65.88636c0,0 29.619,-2.79201 42.32761,3.94192c5.53322,2.93187 8.33826,26.94445 1.04513,27.59343c-23.35103,2.0779 -90.58922,3.00782 -94.0614,-3.94192c-17.15684,-34.33998 52.7644,-63.93744 55.65299,-99.39267c0.61639,-7.56563 -4.27707,-21.76133 -13.32535,-13.79671c-8.72296,7.67825 -7.32824,26.41469 -17.76715,30.97222c-8.57505,3.74377 -22.25955,1.29734 -26.91203,-7.32071c-7.72459,-14.30873 0.15628,-37.7008 12.28024,-47.86615z" fill="#53e300" stroke-width="7.5"/></g></g></svg>