<svg version="1.1" xmlns="http://www.w3.org/2000/svg" xmlns:xlink="http://www.w3.org/1999/xlink" width="337.04636" height="150.75404" viewBox="0,0,337.04636,150.75404"><g transform="translate(-151.40747,-104.62298)"><g data-paper-data="{&quot;isPaintingLayer&quot;:true}" fill-rule="nonzero" stroke-linecap="butt" stroke-linejoin="miter" stroke-miterlimit="10" stroke-dasharray="" stroke-dashoffset="0" style="mix-blend-mode: normal"><path d="M261.18398,182.12153l-108.51905,61.99797c0,0 0,0 -1.11876,-120.0596z" fill="#9c0000" stroke="#d30000" stroke-width="0.27313"/><path d="M235.4524,255.37702v-150.75404h253.00143v150.75404z" fill="#ff1515" stroke="none" stroke-width="0"/><g><path d="M414.85466,177.14918c0,-13.50823 10.95371,-24.4588 24.46581,-24.4588c13.5121,0 24.46581,10.95058 24.46581,24.4588c0,13.50823 -10.95371,24.4588 -24.46581,24.4588c-13.5121,0 -24.46581,-10.95058 -24.46581,-24.4588z" fill="#000000" stroke="#000000" stroke-width="0.33116"/><path d="M438.47613,168.27829c0,-6.19777 5.07329,-11.22205 11.33156,-11.22205c6.25823,0 11.33156,5.02427 11.33156,11.22205c0,6.19777 -5.07329,11.22205 -11.33156,11.22205c-6.25823,0 -11.33156,-5.02427 -11.33156,-11.22205z" fill="#ffffff" stroke="#ffffff" stroke-width="0.15266"/></g><path d="M377.87549,176.79627l-74.38634,47.7209c0,0 0,0 -0.76687,-92.4119z" fill="#9c0000" stroke="#d30000" stroke-width="0.1984"/></g></g></svg>