<svg version="1.1" xmlns="http://www.w3.org/2000/svg" xmlns:xlink="http://www.w3.org/1999/xlink" width="251.25669" height="297.73512" viewBox="0,0,251.25669,297.73512"><g transform="translate(-194.37166,-31.00745)"><g data-paper-data="{&quot;isPaintingLayer&quot;:true}" fill-rule="nonzero" stroke-miterlimit="10" stroke-dasharray="" stroke-dashoffset="0" style="mix-blend-mode: normal"><path d="M291.31277,326.47621c-26.05933,-6.05225 -55.55289,-69.8232 -28.83072,-71.10526c59.376,-2.84872 66.16545,-10.19321 68.73248,13.54022c1.89263,17.49832 -19.44615,62.31585 -39.90177,57.56504z" fill="#5a6d28" stroke="#1ce652" stroke-width="0" stroke-linecap="round" stroke-linejoin="bevel"/><path d="M396.95873,47.56681c42.88523,27.90476 53.45902,91.3476 46.40965,138.93227c-7.04937,47.58467 -31.72208,79.30671 -80.18755,92.81854c-48.46546,13.51183 -120.72124,8.81227 -151.26962,-34.95417c-30.54838,-43.76642 -19.38691,-126.59622 23.79118,-171.83042c43.17809,-45.23419 118.37111,-52.871 161.25634,-24.96622z" fill="#dcff82" stroke="#1ce652" stroke-width="0.5" stroke-linecap="round" stroke-linejoin="bevel"/><path d="M355.95454,328.39209c-26.05933,-6.05225 -55.55288,-69.82321 -28.83071,-71.10526c59.376,-2.84872 66.16545,-10.19321 68.73248,13.54021c1.89263,17.49832 -19.44615,62.31586 -39.90177,57.56505z" fill="#8caa3f" stroke="#1ce652" stroke-width="0" stroke-linecap="round" stroke-linejoin="bevel"/><path d="M290.71515,91.19947c15.25147,-12.78766 41.18775,-11.67903 57.95895,-1.3346c13.21671,8.15204 23.1514,26.58901 22.29191,42.97358c-1.34231,25.58868 -41.61155,62.45848 -41.61155,62.45848c0,0 28.07801,-2.64675 40.12542,3.73683c5.24534,2.77933 7.90444,25.5426 0.99076,26.15782c-22.13614,1.9698 -85.87612,2.85133 -89.16765,-3.73683c-16.26422,-32.55337 50.01922,-60.61096 52.75752,-94.22155c0.58432,-7.17201 -4.05454,-20.62915 -12.63207,-13.07891c-8.26913,7.27877 -6.94697,25.04041 -16.84277,29.36082c-8.12892,3.549 -21.10145,1.22985 -25.51187,-6.93983c-7.3227,-13.56429 0.14815,-35.73933 11.64134,-45.37581z" fill="#53e300" stroke="#ffffff" stroke-width="7.5" stroke-linecap="butt" stroke-linejoin="miter"/></g></g></svg>