<svg version="1.1" xmlns="http://www.w3.org/2000/svg" xmlns:xlink="http://www.w3.org/1999/xlink" width="198.81677" height="303.69756" viewBox="0,0,198.81677,303.69756"><g transform="translate(-220.59162,-28.15127)"><g data-paper-data="{&quot;isPaintingLayer&quot;:true}" fill-rule="nonzero" stroke-miterlimit="10" stroke-dasharray="" stroke-dashoffset="0" style="mix-blend-mode: normal"><path d="M324.47884,96.08385c7.5479,54.55136 -0.37535,234.07506 -0.37535,234.07506l-12.14775,1.68944c0,0 -1.68882,-186.21545 7.91808,-237.12272c1.26805,-6.71936 3.58748,-5.99634 4.605,1.35822z" fill="#6b9b1f" stroke="#7802ff" stroke-width="0" stroke-linecap="round" stroke-linejoin="round"/><path d="M416.44066,244.89268c-11.10354,36.88869 -57.11915,69.32765 -97.19474,67.87846c-42.51159,-1.53727 -88.40165,-39.38939 -97.13385,-79.24521c-16.31444,-74.46289 104.04142,-205.37466 104.04142,-205.37466c0,0 112.78364,142.00278 90.28717,216.74141z" fill="#85c227" stroke="#7802ff" stroke-width="0" stroke-linecap="round" stroke-linejoin="round"/><g fill="#6b9b1f" stroke="#7802ff" stroke-width="0" stroke-linecap="round" stroke-linejoin="round"><path d="M324.47929,96.08434c7.5479,54.55135 -0.37535,234.07506 -0.37535,234.07506l-12.14776,1.68943c0,0 -1.68882,-186.21544 7.91809,-237.12272c1.26805,-6.71935 3.58748,-5.99633 4.605,1.35823z"/><path d="M317.90353,253.90837l-2.55721,12.35147c0,0 -42.10871,-8.73752 -51.18721,-21.28505c-1.1983,-1.65619 -0.4759,-3.95581 1.41697,-4.57015c14.04007,-4.55683 52.32745,13.50373 52.32745,13.50373z"/><path d="M327.90913,151.80076l-2.55721,12.35147c0,0 -42.1087,-8.73751 -51.18721,-21.28507c-1.19829,-1.65617 -0.4759,-3.95579 1.41697,-4.57013c14.04006,-4.55682 52.32745,13.50373 52.32745,13.50373z"/><path d="M370.633,185.25068c1.89287,0.61434 2.61526,2.91396 1.41697,4.57014c-9.0785,12.54754 -51.18722,21.28507 -51.18722,21.28507l-2.55721,-12.35148c0,0 38.28741,-18.06056 52.32746,-13.50373z"/></g><path d="M343.38343,141.83276c12.77645,5.90578 22.20893,21.36431 22.77614,36.51899c1.02437,27.3689 -25.02437,58.23013 -40.24811,81.11731c-5.84276,8.78392 -25.85483,9.95321 -30.88765,0.64687c-7.72626,-14.28689 25.58349,-41.36753 25.58349,-41.36753c0,0 -29.40746,-0.68631 -36.07856,-10.72007c-10.32489,-15.52922 -8.60946,-43.49087 3.94307,-57.14653c7.98783,-8.68979 20.82962,-13.10912 33.46954,-13.29078c7.58395,-0.10902 15.09511,1.30794 21.44207,4.24174zM305.94379,182.39086c-0.00039,7.76422 6.14558,14.05865 13.72736,14.05896c7.5822,0.00031 13.72885,-6.29431 13.72845,-14.05896c-0.00022,-7.7642 -6.14669,-14.05815 -13.72845,-14.05784c-7.58133,0.00031 -13.72714,6.29405 -13.72736,14.05784z" fill="#fd9b9b" stroke="#ffffff" stroke-width="9" stroke-linecap="butt" stroke-linejoin="miter"/></g></g></svg>