<svg version="1.1" xmlns="http://www.w3.org/2000/svg" xmlns:xlink="http://www.w3.org/1999/xlink" width="573.09621" height="236.6684" viewBox="0,0,573.09621,236.6684"><g transform="translate(-33.4519,-52.08463)"><g data-paper-data="{&quot;isPaintingLayer&quot;:true}" fill-rule="nonzero" stroke-miterlimit="10" stroke-dasharray="" stroke-dashoffset="0" style="mix-blend-mode: normal"><path d="M92.75104,281.50303c-63.18715,-11.8584 -74.26678,-179.46848 -2.93977,-209.79085c32.9212,-18.56083 420.25039,-12.75294 460.8586,-5.06335c66.78966,12.64733 66.57266,203.71639 -11.80904,214.63979c-48.01296,4.27062 -400.22158,0.9378 -446.10979,0.21442z" fill="#98ff66" stroke="#007710" stroke-width="14.5" stroke-linecap="butt" stroke-linejoin="miter"/><g fill="#365a24" stroke="#f9a439" stroke-width="0" stroke-linecap="round" stroke-linejoin="bevel"><path d="M421.37083,105.13096c6.69433,1.92094 11.29139,6.68906 14.64473,13.10203c3.35335,6.41296 5.46231,14.47028 6.70854,25.32299c1.24627,10.85271 1.63104,24.49979 1.63104,38.8056c0,14.30582 -0.38341,29.26928 -1.43796,38.39536c-1.05454,9.12606 -2.78005,12.41399 -6.80654,14.22278c-4.02646,1.80881 -10.35412,2.13803 -13.90124,-0.65738c-3.54714,-2.79542 -4.31367,-8.71503 -4.69712,-12.74366c-0.38346,-4.02864 -0.38439,-6.16549 -3.6439,-7.31653c-3.25952,-1.15103 -9.77785,-1.31605 -13.3249,3.28816c-3.54701,4.60422 -4.12146,13.97601 -6.90164,18.99133c-2.7802,5.01531 -7.76556,5.674 -11.60021,5.09847c-3.8347,-0.57555 -6.51928,-2.38439 -8.6119,-4.54612c-2.09263,-2.16174 -3.59326,-4.67609 -3.7851,-14.78874c-0.19184,-10.11264 0.92555,-27.82363 2.83127,-44.35756c1.90571,-16.53393 4.59914,-31.89071 8.8338,-43.84227c4.23466,-11.95157 10.00979,-20.49647 17.29295,-25.23278c4.55198,-2.9602 9.69264,-4.43235 14.5424,-4.65113c2.90987,-0.13128 5.71541,0.18912 8.22577,0.90946zM410.14668,135.40165c-1.24622,0.37642 -1.1794,1.07407 -2.50129,3.28323c-1.32189,2.20916 -4.03271,5.92992 -5.65963,13.31333c-1.62693,7.3834 -2.16891,18.42981 -2.47393,25.05731c-0.30504,6.62752 -0.37268,8.83643 3.17706,10.17097c3.54968,1.33453 13.12963,1.94941 15.32332,-1.30119c2.19372,-3.25058 1.45748,-16.97128 0.78094,-26.06564c-0.67655,-9.09436 -1.47868,-17.01843 -3.15976,-20.95359c-1.26079,-2.95136 -3.01523,-3.65872 -4.33983,-3.66877c-0.4415,-0.00337 -0.83534,0.07023 -1.14689,0.16435z"/><path d="M218.63851,107.98726c4.34843,-0.43262 9.14968,0.25953 11.23332,6.40257c2.08364,6.14304 1.44952,17.73627 0.5889,30.97397c-0.86062,13.23768 -1.94771,28.11884 -1.67593,37.98227c0.27175,9.86344 1.90236,14.70846 3.98601,18.6019c2.08361,3.89346 4.62011,6.83508 7.06611,7.09467c2.446,0.25959 4.80131,-2.16291 6.79436,-7.44067c1.99303,-5.27775 3.62361,-13.41047 3.71425,-28.72461c0.09069,-15.31413 -1.35884,-37.80889 0.00006,-50.26804c1.35891,-12.45914 5.52593,-14.88159 9.60259,-15.74682c4.07666,-0.86522 8.06261,-0.17308 10.78039,3.72032c2.71778,3.89341 4.16723,10.98792 5.07314,22.32211c0.90592,11.3342 1.26827,26.90749 0.6296,40.33655c-0.6387,13.42905 -2.27842,24.71303 -5.246,34.4393c-2.96761,9.72627 -7.26274,17.89394 -13.5777,22.58365c-6.31499,4.68972 -14.64906,5.90095 -21.99262,4.97636c-7.34353,-0.92459 -13.69567,-3.98491 -19.03157,-10.6174c-5.3359,-6.63249 -9.65491,-16.83636 -11.55831,-29.40391c-1.9034,-12.56755 -1.39096,-27.49728 -0.7426,-41.83891c0.64836,-14.34163 1.43258,-28.09369 3.77241,-35.74854c2.33983,-7.65486 6.23518,-9.21218 10.58361,-9.6448z"/><path d="M175.16795,107.70793c3.28975,-1.33158 7.36266,-1.64488 9.94749,0.31329c2.58483,1.95816 3.68138,6.18772 5.01295,17.78013c1.33157,11.5924 2.89807,30.5471 3.5247,46.21265c0.62663,15.66555 0.31332,28.04092 -2.1148,37.98855c-2.42814,9.94763 -6.97099,17.46685 -13.86379,22.9498c-6.8928,5.48294 -16.13517,8.92925 -24.98619,8.53765c-8.85101,-0.3916 -17.31014,-4.62116 -23.34139,-10.41739c-6.03125,-5.79622 -9.6342,-13.15878 -10.41751,-19.03337c-0.7833,-5.87458 1.25315,-10.26079 4.54289,-12.45398c3.28974,-2.19319 7.83261,-2.19319 12.0623,0.39159c4.22969,2.58479 8.14595,7.75425 12.45396,10.57407c4.30802,2.81981 9.00752,3.28977 12.37563,2.11487c3.3681,-1.1749 5.40455,-3.99461 6.26617,-20.75657c0.86161,-16.76195 0.54831,-47.46605 1.64488,-63.993c1.09658,-16.52695 3.60298,-18.8767 6.89273,-20.20828z"/><path d="M297.66779,131.23764c5.19672,-5.83447 10.43529,-9.95191 17.1074,-13.32099c6.67211,-3.36907 14.77721,-5.98951 22.48535,-4.97352c7.70814,1.01598 15.01887,5.66827 18.78508,10.20992c3.76621,4.54165 3.98774,8.97239 2.71385,12.29554c-1.27389,3.32315 -4.0431,5.53851 -7.69858,5.70465c-3.65549,0.16614 -8.197,-1.71692 -12.62787,-2.88003c-4.43088,-1.16309 -8.75085,-1.60618 -12.84941,0.49852c-4.09855,2.10469 -7.97545,6.75698 -10.85551,11.02168c-2.88007,4.26472 -4.76313,8.14162 -6.14778,13.12636c-1.38464,4.98475 -2.27079,11.07701 -2.04924,17.0033c0.22155,5.9263 1.55078,11.68626 3.93238,17.16947c2.38161,5.4832 5.81544,10.68932 10.63402,13.73553c4.81859,3.0462 11.02164,3.93236 15.0094,2.60308c3.98777,-1.32929 5.76007,-4.87388 6.32342,-8.44152c0.56334,-3.56764 -0.08221,-7.15804 -2.77882,-8.69543c-2.69657,-1.53739 -7.44376,-1.02156 -11.50992,-1.71749c-4.06616,-0.69593 -7.45077,-2.60352 -8.79742,-6.1617c-1.34664,-3.55818 -0.65518,-8.7665 2.79223,-11.42621c3.4474,-2.65971 9.65031,-2.77048 16.46286,-2.99202c6.81254,-0.22155 14.23403,-0.55385 18.97031,2.9355c4.73629,3.48935 6.78709,10.79994 6.92637,17.66786c0.13928,6.86792 -1.63298,13.29237 -3.48925,19.38488c-1.85626,6.09252 -3.79634,11.85248 -8.25575,16.22796c-4.4594,4.37547 -11.43783,7.36622 -18.30569,8.197c-6.86785,0.83077 -13.62473,-0.49845 -20.54798,-3.5447c-6.92325,-3.04624 -14.01243,-7.80928 -18.7756,-13.68021c-4.76317,-5.87092 -7.20008,-12.84934 -9.30474,-19.66181c-2.10466,-6.81247 -3.87696,-13.45858 -4.43081,-21.65572c-0.55385,-8.19713 0.11076,-17.94477 3.02051,-26.59446c2.90975,-8.6497 8.06443,-16.20097 13.26115,-22.03544z"/><path d="M498.3858,106.31617c8.19712,4.09853 15.61806,11.18758 18.99663,20.1048c3.37857,8.91722 2.71525,19.66076 -0.44178,27.80258c-3.15703,8.14181 -8.80709,13.68035 -9.36096,17.77894c-0.55386,4.0986 3.98826,6.75652 6.92372,11.85201c2.93547,5.09548 4.26359,12.62805 5.26055,19.82822c0.99692,7.20016 1.66172,14.06808 1.05248,19.82822c-0.60923,5.76015 -2.49118,10.41337 -5.92507,12.79497c-3.43391,2.38162 -8.41903,2.49215 -11.68681,1.32906c-3.26778,-1.16309 -4.81805,-3.60083 -5.37192,-7.31168c-0.55388,-3.71085 -0.11068,-8.69483 -0.66453,-15.23034c-0.55386,-6.53551 -2.10487,-14.62211 -4.81876,-18.49916c-2.7139,-3.87706 -6.592,-3.5446 -9.08438,-2.71381c-2.49237,0.83078 -3.60007,2.16092 -4.09855,6.64715c-0.49848,4.48622 -0.38606,12.12816 -0.71836,18.88525c-0.33231,6.75708 -1.10843,12.62738 -3.54539,15.95057c-2.43697,3.32318 -6.53618,4.09993 -10.02549,2.99223c-3.48932,-1.1077 -6.36906,-4.09884 -8.14142,-10.63432c-1.77236,-6.5355 -2.43647,-16.61612 -3.32264,-30.46255c-0.88617,-13.84643 -1.99419,-31.45828 -2.10497,-46.30174c-0.11079,-14.84344 0.77637,-26.91671 1.88408,-34.33835c1.1077,-7.42164 2.43613,-10.19223 5.64849,-12.18614c3.21236,-1.9939 8.30773,-3.21156 15.34172,-3.26696c7.034,-0.0554 16.00623,1.05251 24.20335,5.15103zM479.0569,164.46992c2.38157,-2.16002 4.76204,-4.31911 7.30983,-7.33766c2.54776,-3.01856 5.26218,-6.89644 6.59146,-11.10581c1.32927,-4.20937 1.27408,-8.75038 0.02785,-11.85201c-1.2462,-3.10163 -3.68298,-4.76292 -6.11998,-5.75988c-2.437,-0.99696 -4.87474,-1.32901 -7.31168,-1.66133z"/></g></g></g></svg>