<svg version="1.1" xmlns="http://www.w3.org/2000/svg" xmlns:xlink="http://www.w3.org/1999/xlink" width="198.81677" height="303.69758" viewBox="0,0,198.81677,303.69758"><g transform="translate(-220.59161,-28.15123)"><g data-paper-data="{&quot;isPaintingLayer&quot;:true}" fill-rule="nonzero" stroke-miterlimit="10" stroke-dasharray="" stroke-dashoffset="0" style="mix-blend-mode: normal"><path d="M324.47884,96.08384c7.5479,54.55136 -0.37535,234.07506 -0.37535,234.07506l-12.14775,1.68944c0,0 -1.68882,-186.21545 7.91808,-237.12272c1.26805,-6.71936 3.58748,-5.99634 4.605,1.35822z" fill="#6b9b1f" stroke="#7802ff" stroke-width="0" stroke-linecap="round" stroke-linejoin="round"/><path d="M416.44065,244.89265c-11.10354,36.88869 -57.11915,69.32765 -97.19474,67.87846c-42.51159,-1.53727 -88.40165,-39.38939 -97.13385,-79.24521c-16.31444,-74.46289 104.04142,-205.37466 104.04142,-205.37466c0,0 112.78364,142.00278 90.28717,216.74141z" fill="#85c227" stroke="#7802ff" stroke-width="0" stroke-linecap="round" stroke-linejoin="round"/><g fill="#6b9b1f" stroke="#7802ff" stroke-width="0" stroke-linecap="round" stroke-linejoin="round"><path d="M324.47929,96.08433c7.5479,54.55135 -0.37535,234.07506 -0.37535,234.07506l-12.14776,1.68943c0,0 -1.68882,-186.21544 7.91809,-237.12272c1.26805,-6.71935 3.58748,-5.99633 4.605,1.35823z"/><path d="M317.90352,253.90836l-2.55721,12.35147c0,0 -42.10871,-8.73752 -51.18721,-21.28505c-1.1983,-1.65619 -0.4759,-3.95581 1.41697,-4.57015c14.04007,-4.55683 52.32745,13.50373 52.32745,13.50373z"/><path d="M327.90912,151.80075l-2.55721,12.35147c0,0 -42.1087,-8.73751 -51.18721,-21.28507c-1.19829,-1.65617 -0.4759,-3.95579 1.41697,-4.57013c14.04006,-4.55682 52.32745,13.50373 52.32745,13.50373z"/><path d="M370.63299,185.25066c1.89287,0.61434 2.61526,2.91396 1.41697,4.57014c-9.0785,12.54754 -51.18722,21.28507 -51.18722,21.28507l-2.55721,-12.35148c0,0 38.28741,-18.06056 52.32746,-13.50373z"/></g><path d="M347.4629,149.69344c8.38105,15.93184 -0.95475,45.42462 3.56684,64.14972c1.17937,2.38667 10.96859,-1.17641 13.77839,-0.2318c7.33199,2.46495 8.48705,19.89609 2.38082,26.55022c-4.13355,4.50442 -18.70551,0.65488 -18.70551,0.65488c0,0 3.18579,20.45517 -3.74229,26.22278c-6.77191,5.63764 -20.08182,5.40999 -26.8444,-0.23804c-6.64052,-5.54605 0.64921,-25.47916 -3.98931,-25.11386c-20.21543,1.59201 -31.99078,-0.84769 -39.55581,-1.45611c-45.83935,-3.68667 35.47258,-100.28372 53.27747,-99.8874c8.70927,0.19387 16.26718,2.56964 19.83381,9.34961zM289.64268,215.57797l30.27101,0.98234c2.01721,-43.31725 1.25067,-27.90774 2.03983,-44.24997l-0.01584,0.02246c0,-0.0154 0.01584,-0.33839 0.01584,-0.3495z" fill="#c962c4" stroke="#ffffff" stroke-width="9" stroke-linecap="butt" stroke-linejoin="miter"/></g></g></svg>