<svg version="1.1" xmlns="http://www.w3.org/2000/svg" xmlns:xlink="http://www.w3.org/1999/xlink" width="149.05116" height="174.04731" viewBox="0,0,149.05116,174.04731"><g transform="translate(-244.54864,-93.90213)"><g data-paper-data="{&quot;isPaintingLayer&quot;:true}" fill-rule="nonzero" stroke="#ffffff" stroke-linejoin="miter" stroke-miterlimit="10" stroke-dasharray="" stroke-dashoffset="0" style="mix-blend-mode: normal"><path d="M360.93316,129.78419c10.8561,13.31829 16.95492,31.38169 16.9548,50.21644c-0.0003,39.22086 -25.91748,71.01554 -57.88796,71.01577c-31.97048,-0.00023 -57.88768,-31.79491 -57.88796,-71.01577c-0.00013,-18.83477 6.09868,-36.89815 16.9548,-50.21644c10.8561,-13.31829 25.58021,-20.80048 40.93318,-20.8006c15.35297,0.00011 30.07706,7.48231 40.93318,20.8006zM297.22783,180.1789c0.00015,21.77811 10.66253,39.43276 23.81535,39.43327c13.15284,-0.00051 23.81521,-17.65516 23.81535,-39.43327c0.00028,-21.7786 -10.66221,-39.43403 -23.81535,-39.43452c-13.15314,0.00051 -23.81563,17.65592 -23.81535,39.43452z" fill="#00a2d6" stroke-width="7.5" stroke-linecap="round"/><path d="M244.54864,267.94944v-174.04731h149.05116v174.04731z" fill="none" stroke-width="0" stroke-linecap="butt"/></g></g></svg>