<svg version="1.1" xmlns="http://www.w3.org/2000/svg" xmlns:xlink="http://www.w3.org/1999/xlink" width="219.89335" height="156.69271" viewBox="0,0,219.89335,156.69271"><g transform="translate(-203.5089,-102.2146)"><g data-paper-data="{&quot;isPaintingLayer&quot;:true}" fill-rule="nonzero" stroke-linejoin="miter" stroke-miterlimit="10" stroke-dasharray="" stroke-dashoffset="0" style="mix-blend-mode: normal"><path d="M242.72514,155.95912c-6.01012,-11.9846 -2.45166,-14.92054 19.45924,-27.62773c6.0855,-3.52927 28.14639,-13.70086 28.3946,-3.65353c0.58141,23.53377 0,91.35063 0,91.35063c0,0 11.28595,-1.01763 16.28222,1.2558c6.96195,3.16786 5.34053,20.69178 -1.38995,21.34871c-19.53293,1.90649 -33.77329,0.53607 -58.17914,0.41858c-7.29142,-0.0351 -7.54172,-19.53216 -0.99282,-22.39519c5.09412,-2.22702 18.26785,-0.83721 18.26785,-0.83721l-0.19856,-58.18569c0,0 -10.71994,4.06221 -17.36919,1.83951c-1.84192,-0.61571 -3.37147,-1.7137 -4.27425,-3.51391z" fill="#ffde00" stroke="#ffffff" stroke-width="7.5" stroke-linecap="round"/><path d="M325.10617,123.76739c20.72299,-7.62885 81.43133,-10.98439 74.17541,11.90724c-9.2541,29.19566 -28.3306,71.04016 -40.1921,101.67254c-3.16731,8.17964 -25.72204,4.65126 -25.30287,-4.14592c0.95262,-19.99289 22.59685,-57.01577 28.99179,-76.50982c4.43051,-13.5058 -16.17021,-6.84393 -31.39761,-6.88641c-7.58691,-0.02122 -14.5017,-23.00897 -6.27463,-26.03763z" fill="#ffde00" stroke="#ffffff" stroke-width="8.5" stroke-linecap="butt"/><g data-paper-data="{&quot;isHelperItem&quot;:true}" fill="none" stroke-linecap="butt"><path d="M203.5089,258.90732v-156.6927h219.89335v156.6927z" stroke="none" stroke-width="NaN"/><g data-paper-data="{&quot;isSelectionBound&quot;:true,&quot;isHelperItem&quot;:true}" stroke="#009dec"><path d="M203.5089,258.90732v-78.34636v-78.34635h109.94667h109.94667v78.34635v78.34636h-109.94667z" stroke-width="0"/><path d="M313.0816,182.43081v-1.49587h-1.49588c-0.20653,0 -0.37396,-0.16744 -0.37396,-0.37397c0,-0.20654 0.16743,-0.37396 0.37396,-0.37396h1.49588v-1.49587c0,-0.20654 0.16744,-0.37397 0.37397,-0.37397c0.20653,0 0.37396,0.16744 0.37396,0.37397v1.49587h1.49588c0.20653,0 0.37397,0.16743 0.37397,0.37396c0,0.20654 -0.16744,0.37397 -0.37397,0.37397h-1.49588v1.49587c0,0.20654 -0.16743,0.37396 -0.37396,0.37396c-0.20653,0 -0.37397,-0.16743 -0.37397,-0.37396z" stroke-width="0.37397"/></g></g></g></g></svg>