<svg version="1.1" xmlns="http://www.w3.org/2000/svg" xmlns:xlink="http://www.w3.org/1999/xlink" width="265.01866" height="209.05723" viewBox="0,0,265.01866,209.05723"><g transform="translate(-187.49067,-75.47139)"><g data-paper-data="{&quot;isPaintingLayer&quot;:true}" fill-rule="nonzero" stroke-linecap="butt" stroke-linejoin="miter" stroke-miterlimit="10" stroke-dasharray="" stroke-dashoffset="0" style="mix-blend-mode: normal"><path d="M187.49067,255.83452c1.17398,-123.46077 1.17398,-123.46077 1.17398,-123.46077l113.87622,63.7543z" fill="#33a719" stroke="none" stroke-width="0"/><path d="M452.50933,180.00002c0,57.72956 -46.14909,104.5286 -103.07683,104.5286c-56.92774,0 -103.07683,-46.79903 -103.07683,-104.5286c0,-57.72956 46.14909,-104.52863 103.07683,-104.52863c56.92774,0 103.07683,46.79907 103.07683,104.52863z" fill="#44e022" stroke="none" stroke-width="0"/><path d="M289.56581,230.63606c0.75925,-73.31727 0.75925,-73.31727 0.75925,-73.31727l73.64791,37.86055z" fill="#33a719" stroke="none" stroke-width="0"/><g><path d="M385.39201,182.26902c0,-11.55985 9.18457,-20.93095 20.51424,-20.93095c11.32972,0 20.51421,9.3711 20.51421,20.93095c0,11.55985 -9.18453,20.93095 -20.51421,20.93095c-11.32972,0 -20.51424,-9.3711 -20.51424,-20.93095z" fill="#000000" stroke="#000000" stroke-width="0.33116"/><path d="M405.19826,174.67762c0,-5.30381 4.2539,-9.60346 9.50138,-9.60346c5.24744,0 9.50138,4.29961 9.50138,9.60346c0,5.30381 -4.2539,9.60342 -9.50138,9.60342c-5.24744,0 -9.50138,-4.29957 -9.50138,-9.60342z" fill="#ffffff" stroke="#ffffff" stroke-width="0.15266"/></g></g></g></svg>