<svg version="1.1" xmlns="http://www.w3.org/2000/svg" xmlns:xlink="http://www.w3.org/1999/xlink" width="200.0777" height="199.20003" viewBox="0,0,200.0777,199.20003"><g transform="translate(-219.96116,-80.39999)"><g data-paper-data="{&quot;isPaintingLayer&quot;:true}" fill-rule="nonzero" stroke-width="0" stroke-linecap="round" stroke-linejoin="bevel" stroke-miterlimit="10" stroke-dasharray="" stroke-dashoffset="0" style="mix-blend-mode: normal"><path d="M239.63135,238.42267c1.55501,-0.85254 2.09083,-1.00427 5.57492,0.39382c3.48409,1.39807 9.91609,4.34579 12.79941,6.24136c2.88331,1.89557 2.21759,2.73882 -0.68948,5.3352c-2.90707,2.5964 -8.05545,6.94589 -13.06193,8.7282c-5.00648,1.7824 -9.68553,1.02745 -13.80926,-0.07835c-4.12373,-1.1058 -7.08618,-2.39998 -8.80366,-4.38201c-1.71748,-1.98204 -2.07253,-4.60055 -1.27365,-6.79752c0.79888,-2.19696 2.75168,-3.97223 5.0374,-4.81552c2.28573,-0.84329 4.90424,-0.75451 7.50065,-1.48683c2.59641,-0.73231 5.1706,-2.2857 6.7256,-3.13826z" fill="#e9afaf" stroke="#62565b"/><path d="M400.65853,237.84657c1.28709,0.77671 3.86129,2.3301 6.45769,3.0624c2.59641,0.73233 5.21492,0.64355 7.50065,1.48683c2.28572,0.84329 4.23852,2.61856 5.0374,4.81552c0.79888,2.19698 0.44383,4.81548 -1.92751,7.19462c-2.37135,2.37916 -6.87271,4.57435 -10.74198,5.61195c-3.86928,1.03757 -7.73327,1.02741 -11.82285,-1.02029c-4.08959,-2.04772 -9.54908,-6.66006 -12.45615,-9.25646c-2.90707,-2.59638 -3.57279,-3.43963 -4.23853,-4.28289c1.84104,-1.81505 3.68208,-3.63009 6.08003,-5.15186c2.39795,-1.52176 5.3528,-2.75024 8.30766,-3.97874c1.63634,0.09564 3.27268,0.19146 4.35877,0.31512c1.08609,0.12367 1.62192,0.27544 1.88983,0.3513c0.26791,0.07586 0.26791,0.07586 1.55501,0.8525z" fill="#e9afaf" stroke="#62565b"/><path d="M271.17296,134.68912c-0.16848,-2.78807 -0.3448,-5.70578 0.98285,-9.3946c1.32765,-3.68881 4.11661,-8.3628 6.90976,-12.57106c2.79315,-4.20827 5.02549,-7.04414 5.81695,-8.89367c0.79146,-1.84953 0.51746,-3.82045 0.28073,-5.5233c4.66131,-1.98027 9.32253,-3.9605 16.06611,-5.81556c6.74358,-1.85505 15.56918,-3.58482 24.96754,-2.91661c9.39837,0.6682 19.36877,3.73432 29.33937,6.8005c-1.469,1.96407 -2.93798,3.9281 -2.18729,6.14782c0.75069,2.21972 3.72103,4.69501 6.60896,7.83046c2.88792,3.13545 5.69325,6.93089 7.50853,11.05649c1.81528,4.1256 2.64037,8.58112 5.28074,10.06637c2.64037,1.48525 7.09597,0.00005 11.55159,-1.48515c3.21567,4.24469 9.87735,13.0381 12.85975,17.98811c2.98242,4.95002 6.44782,11.55079 9.40209,22.11243c2.95425,10.56164 5.39709,25.08306 5.91061,34.8542c0.5135,9.77115 -0.9024,14.79088 -3.19656,19.74165c-2.29417,4.95077 -5.4663,9.832 -7.8776,11.44765c-2.41127,1.61559 -4.06147,-0.03457 -8.76463,0.1304c-4.70316,0.16502 -12.45907,2.14524 -14.76947,4.5381c-2.31038,2.39284 0.82498,5.19816 -0.41266,7.17847c-1.23764,1.98034 -6.84829,3.13542 -9.32368,2.1453c-2.4754,-0.99012 -1.81532,-4.12548 -2.14536,-5.4457c-0.33004,-1.32016 -1.65019,-0.82516 -2.64034,-1.40274c-0.99015,-0.57758 -1.65022,-2.22772 -2.47534,-2.3103c-0.82512,-0.08252 -1.81524,1.40266 -2.39282,1.07262c-0.57759,-0.33002 -0.74261,-2.47538 -1.4027,-2.3928c-0.66009,0.0825 -1.81522,2.39286 -3.05291,2.55782c-1.23768,0.16514 -2.55783,-1.81509 -3.46547,0.16515c-0.90764,1.98026 -1.40269,7.92094 -6.18835,11.05643c-4.78566,3.13548 -13.86172,3.46559 -23.3506,3.38301c-9.48889,-0.0825 -19.39004,-0.57756 -24.83588,-3.38296c-5.44584,-2.80538 -6.43596,-7.92098 -7.26108,-9.98381c-0.82512,-2.06282 -1.48519,-1.07272 -1.81525,-1.0727c-0.33005,0 -0.33005,-0.9901 -1.07266,-1.73272c-0.7426,-0.74268 -2.22778,-1.23766 -3.30044,-0.6601c-1.07266,0.57758 -1.73273,2.22776 -2.47534,2.64034c-0.74261,0.41258 -1.56771,-0.41258 -2.55785,-0.57754c-0.99014,-0.16504 -2.14528,0.33002 -2.55785,2.22778c-0.41257,1.89776 -0.08253,5.19816 -3.05293,5.9408c-2.9704,0.74262 -9.24113,-1.07258 -14.52191,-3.38292c-5.28078,-2.31034 -9.57128,-5.11566 -14.08758,-8.99371c-4.5163,-3.87807 -9.25809,-8.82863 -11.65097,-16.50234c-2.39288,-7.67371 -2.43662,-18.0697 -1.51137,-28.87889c0.92525,-10.80919 2.81939,-22.03027 7.74714,-33.97484c4.92775,-11.94457 12.88853,-24.61121 18.91326,-28.6964c6.02473,-4.08519 10.11278,0.41163 14.2009,4.90854z" fill="#8e8e8e" stroke="#62565b"/><path d="M272.28415,184.09549c1.82234,2.82865 5.62201,9.83593 8.93005,15.3779c3.30804,5.54197 6.12432,9.61847 9.39629,14.56866c3.27197,4.95019 6.9994,10.77376 10.8098,15.18199c3.81039,4.40823 7.70341,7.4008 12.75637,8.84945c5.05295,1.44867 11.26522,1.35328 16.69094,-1.43267c5.42572,-2.78594 10.0643,-8.26216 14.33028,-14.45302c4.26598,-6.19086 8.15908,-13.09595 12.98633,-21.3461c4.82724,-8.25015 10.5882,-17.84464 11.83073,-18.42702c1.24253,-0.58238 -2.03358,7.84759 -5.24555,15.34895c-3.21196,7.50136 -6.35958,14.07367 -8.34759,18.48306c-1.98802,4.40938 -2.81634,6.65562 -2.15364,8.86032c0.66269,2.20471 2.81632,4.36774 5.54987,5.24129c2.73354,0.87355 6.04683,0.45759 9.40162,-0.66559c3.3548,-1.12315 6.75091,-2.95341 9.98146,-5.11652c3.23053,-2.16311 6.29532,-4.65892 8.35549,-7.11729c2.06019,-2.45836 3.11564,-4.87907 3.39523,-3.64745c0.27959,1.23163 -0.2167,6.11544 -2.81534,10.52896c-2.59863,4.41352 -7.2994,8.35629 -5.01105,9.07976c2.28835,0.72347 11.56553,-1.77234 16.94974,-3.68586c5.38421,-1.91351 6.87518,-3.24461 7.49643,-2.74542c0.62125,0.49921 0.37275,2.82863 -1.05622,5.11509c-1.42895,2.28646 -4.03826,4.52982 -6.64762,6.77321c-6.17101,3.2475 -12.34201,6.495 -18.51302,9.7425c-2.72221,0.69438 -5.44443,1.38875 -8.05369,2.05431c-2.60926,0.66557 -5.10557,1.30232 -7.60187,1.93907c-5.88119,0.91515 -11.76238,1.8303 -17.64357,2.74546c-8.57623,1.1382 -17.15245,2.27638 -26.47124,2.23479c-9.31879,-0.04166 -19.38013,-1.26299 -29.44148,-2.48438c-6.68379,-0.57106 -13.36758,-1.14211 -20.82261,-3.08529c-7.45503,-1.94318 -15.6813,-5.25847 -22.40008,-9.28416c-6.71878,-4.02571 -11.92995,-8.76169 -14.60521,-12.88097c-2.67526,-4.11926 -2.81438,-7.62148 -2.95351,-11.12377c3.94224,5.05311 7.88448,10.10622 13.33468,13.09037c5.4502,2.98414 12.40809,3.89928 14.10615,2.60971c1.69806,-1.28955 -1.86373,-4.7837 -4.14166,-7.48758c-2.27793,-2.70387 -3.27192,-4.61733 -3.92723,-6.92751c-0.65531,-2.31019 -0.97191,-5.01697 -1.28852,-7.7238c2.38745,3.3724 4.7749,6.74479 8.74361,10.01173c3.96871,3.26694 9.51846,6.42832 13.61875,8.09223c4.10029,1.66391 6.75091,1.83029 9.11169,0.83192c2.36078,-0.99836 4.43158,-3.1614 5.38417,-5.44931c0.95259,-2.2879 0.78692,-4.70052 -1.53247,-10.10831c-2.31939,-5.40779 -6.79231,-13.81037 -9.48442,-19.59248c-2.6921,-5.78212 -3.60326,-8.94349 -4.13634,-11.19921c-0.53308,-2.25572 -0.68807,-3.60568 1.13427,-0.77704z" fill="#999999" stroke="#62565b"/><path d="M304.10159,206.36394c0,-6.94619 6.94294,-12.5772 15.50748,-12.5772c8.56454,0 15.50748,5.631 15.50748,12.5772c0,6.94619 -6.94294,12.5772 -15.50748,12.5772c-8.56454,0 -15.50748,-5.631 -15.50748,-12.5772z" fill="#e9afaf" stroke="#62565b"/><g stroke="#62565b"><path d="M275.05192,167.9202c0,-8.27295 6.8833,-14.9795 15.37428,-14.9795c8.49098,0 15.37428,6.70655 15.37428,14.9795c0,8.27295 -6.8833,14.9795 -15.37428,14.9795c-8.49098,0 -15.37428,-6.70655 -15.37428,-14.9795z" fill="#000000"/><path d="M290.94295,163.16215c0,-3.35393 2.72891,-6.07284 6.0952,-6.07284c3.36628,0 6.0952,2.7189 6.0952,6.07284c0,3.35393 -2.72891,6.07284 -6.0952,6.07284c-3.36628,0 -6.0952,-2.7189 -6.0952,-6.07284z" fill="#ffffff"/></g><path d="M236.99547,110.69483c0,-16.73137 14.4953,-30.29483 32.37616,-30.29483c17.88086,0 32.37616,13.56346 32.37616,30.29483c0,16.73137 -14.4953,30.29483 -32.37616,30.29483c-17.88086,0 -32.37616,-13.56346 -32.37616,-30.29483z" fill="#676767" stroke="#62565b"/><path d="M337.82133,111.18558c0,-16.60365 14.08115,-30.06358 31.45112,-30.06358c17.36997,0 31.45112,13.45992 31.45112,30.06358c0,16.60365 -14.08115,30.06358 -31.45112,30.06358c-17.36997,0 -31.45112,-13.45992 -31.45112,-30.06358z" fill="#676767" stroke="#62565b"/><path d="M282.73643,244.84332c1.58027,-3.00637 6.59086,-2.85218 8.51801,0.46251c1.92715,3.31471 0.77086,9.78995 2.31263,13.68281c1.54177,3.89284 5.78133,5.20327 9.11537,8.24823c3.33404,3.04497 5.76215,7.82409 -0.65539,10.34871c-6.41754,2.52463 -21.67992,2.79441 -27.17243,0.13481c-5.49251,-2.65954 -1.21443,-8.24802 2.08106,-11.65915c3.2955,-3.41113 5.60804,-4.64449 5.83928,-8.34467c0.23124,-3.70019 -1.6188,-9.86698 -0.03852,-12.87332z" fill="#e9afaf" stroke="#62565b"/><path d="M364.54055,244.72838c1.58027,3.00635 -0.26976,9.17314 -0.03852,12.87332c0.23124,3.70019 2.54378,4.93355 5.83928,8.34467c3.2955,3.41113 7.57358,8.99961 2.08106,11.65915c-5.49252,2.6596 -20.75489,2.38982 -27.17243,-0.13481c-6.41755,-2.52462 -3.98944,-7.30374 -0.65539,-10.34871c3.33405,-3.04497 7.5736,-4.35539 9.11537,-8.24823c1.54177,-3.89286 0.38547,-10.3681 2.31263,-13.68281c1.92715,-3.31469 6.93775,-3.46888 8.51801,-0.46251z" fill="#e9afaf" stroke="#62565b"/><path d="M296.8268,266.09592c0.00273,-0.00614 0.00075,-0.00195 -0.00437,0.01021c-0.00456,0.01023 -0.01088,0.02822 -0.01963,0.05308c-0.01506,0.04265 -0.03539,0.10394 -0.06171,0.18976c-0.04366,0.14229 -0.10157,0.34457 -0.17463,0.62067c-0.12009,0.45375 -0.28035,1.1055 -0.45638,1.89609c-0.15829,0.71091 -0.32614,1.51977 -0.47754,2.34026c-0.02577,0.13972 -0.05097,0.27916 -0.07549,0.41809c-0.10119,0.57348 -0.20831,1.23704 -0.28785,1.87652c-0.06044,0.48602 -0.17715,1.0487 -0.34685,1.67466c-0.15117,0.55761 -0.33049,1.11368 -0.5077,1.61082c-0.013,0.03621 -0.02914,0.08635 -0.04868,0.15083c-0.01968,0.06508 -0.04104,0.13965 -0.0639,0.22166c-0.04701,0.16862 -0.1023,0.3765 -0.15381,0.56792c-0.06262,0.23266 -0.1189,0.43822 -0.17649,0.63646c-0.07918,0.27262 -0.14166,0.46446 -0.19409,0.61155l-1.52483,-0.54352c0.03929,-0.11022 0.09201,-0.27052 0.16438,-0.51962c0.05306,-0.18251 0.10601,-0.37587 0.16787,-0.60563c0.04935,-0.18322 0.10803,-0.40389 0.15761,-0.5818c0.02456,-0.08792 0.04933,-0.17471 0.07359,-0.25501c0.02349,-0.07773 0.04823,-0.15542 0.07352,-0.22641c0.16575,-0.465 0.33179,-0.9806 0.47012,-1.49086c0.1559,-0.57506 0.25428,-1.06056 0.30283,-1.45088c0.08414,-0.67653 0.19621,-1.36932 0.3001,-1.95805c0.02527,-0.14334 0.05123,-0.28691 0.07773,-0.43052c0.1555,-0.84272 0.32744,-1.67115 0.48937,-2.39834c0.18108,-0.81324 0.34524,-1.48112 0.47156,-1.95843c0.07675,-0.29002 0.14023,-0.51277 0.192,-0.68145c0.03109,-0.10129 0.05844,-0.18472 0.08281,-0.25367c0.01425,-0.04023 0.02785,-0.07691 0.04108,-0.11044c0.01532,-0.03862 0.0312,-0.07577 0.04806,-0.11129z" fill="#e09090" stroke="none"/><path d="M351.50054,266.08459c0.41556,0.65392 0.87867,1.52991 1.2566,2.83255c0.26645,0.91841 0.46355,1.9648 0.6452,2.8072c0.01861,0.08623 0.03706,0.17072 0.0555,0.25407c0.18027,0.81377 0.41591,1.76473 0.80406,2.82427c0.56833,1.55139 1.2834,2.83463 1.86838,3.77712l-1.37542,0.85369c-0.61934,-0.99786 -1.39379,-2.38373 -2.01298,-4.07397c-0.42335,-1.15562 -0.6771,-2.1849 -0.86453,-3.03099c-0.0192,-0.08667 -0.03824,-0.17405 -0.05744,-0.26296c-0.19601,-0.90896 -0.37204,-1.85146 -0.61747,-2.69739c-0.32875,-1.13313 -0.72143,-1.86972 -1.06817,-2.41538z" fill="#e09090" stroke="none"/><path d="M366.78631,266.58477c-0.34674,0.54566 -0.73942,1.28225 -1.06817,2.41538c-0.24542,0.84594 -0.42146,1.78843 -0.61747,2.69739c-0.0192,0.08891 -0.03824,0.17629 -0.05744,0.26296c-0.18743,0.84609 -0.44118,1.87537 -0.86453,3.03099c-0.61919,1.69024 -1.39365,3.07612 -2.01298,4.07397l-1.37542,-0.85369c0.58498,-0.94249 1.30005,-2.22572 1.86838,-3.77712c0.38815,-1.05954 0.62379,-2.0105 0.80406,-2.82427c0.01844,-0.08335 0.03689,-0.16784 0.0555,-0.25407c0.18165,-0.8424 0.37875,-1.88879 0.6452,-2.8072c0.37793,-1.30265 0.84104,-2.17864 1.2566,-2.83255z" fill="#e09090" stroke="none"/><path d="M234.38689,245.87187c-0.36598,0.68877 -0.90342,1.53108 -1.85694,2.51025c-0.66766,0.68562 -1.41309,1.31376 -2.12701,1.95097c-0.61431,0.54831 -1.0959,1.00587 -1.56507,1.50118c-0.223,0.23541 -0.44984,0.4868 -0.67959,0.75771c-1.06879,1.26034 -1.82906,2.51452 -2.35277,3.4754l-1.56832,-0.85477c0.55764,-1.02314 1.3841,-2.39057 2.55885,-3.77585c0.25244,-0.29769 0.5013,-0.57343 0.74509,-0.83079c0.51383,-0.54244 1.03412,-1.03566 1.67245,-1.60541c0.7669,-0.6845 1.42708,-1.23848 2.03673,-1.86454c0.8175,-0.8395 1.25961,-1.53824 1.55927,-2.10222z" fill="#e09090" stroke="none"/><path d="M243.31452,250.09747c-0.05161,-0.00219 -0.1427,-0.00001 -0.27632,0.03574c-0.10078,0.02696 -0.22947,0.07397 -0.38829,0.15596c-0.27339,0.14115 -0.60591,0.37039 -1.00138,0.72269c-0.3666,0.32659 -0.75027,0.72589 -1.14338,1.18169c-0.41384,0.47982 -0.81109,0.99087 -1.17064,1.47996c0,0 -0.00885,0.01164 -0.00885,0.01165c-0.73935,1.00662 -1.48635,2.14747 -2.20383,3.32787c-0.82353,1.35486 -1.46102,2.52255 -1.63973,2.85045l-1.42141,-0.77469c0.18237,-0.3346 0.83427,-1.52877 1.67783,-2.91657c0.73448,-1.20838 1.5078,-2.39065 2.28244,-3.44533l0.00866,-0.01198c0.37651,-0.51215 0.80031,-1.05806 1.24905,-1.57836c0.42533,-0.49315 0.85891,-0.94694 1.29246,-1.33317c0.46613,-0.41525 0.90987,-0.7326 1.33553,-0.95236c0.25204,-0.13013 0.48904,-0.22157 0.7125,-0.28135c0.30665,-0.08205 0.56309,-0.09777 0.7631,-0.08932z" fill="#e09090" stroke="none"/><path d="M397.90333,248.24631c0.10017,0.51951 0.32049,1.30741 0.91685,2.28534c0.42,0.68873 0.96179,1.37057 1.63719,2.09508c0.13152,0.14108 0.26582,0.28133 0.40251,0.42118c0.483,0.49404 0.95736,0.94553 1.62319,1.5756c0.61682,0.58368 1.36627,1.29026 2.01551,1.99322c0.06253,0.05991 0.12046,0.12353 0.17271,0.18459c0.05998,0.07007 0.11943,0.14524 0.17659,0.22004c0.11149,0.14594 0.23916,0.32423 0.34596,0.47095c0.12997,0.17856 0.23843,0.32377 0.34558,0.45617c0.14856,0.18356 0.24725,0.28271 0.30847,0.33891l-1.09507,1.19221c-0.12756,-0.11717 -0.28011,-0.27598 -0.47166,-0.51262c-0.13372,-0.16521 -0.26164,-0.33722 -0.39615,-0.52203c-0.11944,-0.16408 -0.22722,-0.3148 -0.32353,-0.44086c-0.04681,-0.06128 -0.08668,-0.11103 -0.12052,-0.15074c-0.03542,-0.04137 -0.05641,-0.06194 -0.06554,-0.07079c-0.01664,-0.01544 -0.03257,-0.03136 -0.04792,-0.04791c-0.60868,-0.66106 -1.32363,-1.33597 -1.95712,-1.93543c-0.66467,-0.62897 -1.16031,-1.10041 -1.66807,-1.61976c-0.1445,-0.14781 -0.28774,-0.29737 -0.42907,-0.44901c-0.72407,-0.7767 -1.34128,-1.54615 -1.83519,-2.35608c-0.71362,-1.17024 -0.99413,-2.14663 -1.12429,-2.8217z" fill="#e09090" stroke="none"/><path d="M407.75208,243.90188c0.12696,0.46751 0.3741,1.19445 0.94294,2.21055c0.40029,0.71503 0.89023,1.45295 1.48314,2.27434c0.13604,0.18847 0.2745,0.37722 0.41478,0.56648c0.58287,0.78642 2.11281,2.75226 2.99152,4.13193c-0.02368,-0.03712 -0.05044,-0.07241 -0.07994,-0.10535c-0.00346,-0.00383 0.0189,0.01952 0.05824,0.05196c0.04017,0.03321 0.09257,0.07322 0.15924,0.12148c0.13713,0.09922 0.30339,0.21079 0.48497,0.33511c0.20374,0.13948 0.39363,0.27268 0.57307,0.41152c0.25718,0.19904 0.42698,0.35964 0.55123,0.49826l-1.20546,1.08047c-0.0468,-0.05222 -0.14107,-0.14724 -0.33653,-0.29852c-0.14114,-0.10923 -0.29964,-0.22099 -0.4968,-0.35598c-0.16169,-0.11069 -0.35954,-0.24364 -0.51943,-0.35936c-0.08203,-0.05942 -0.16458,-0.12165 -0.24106,-0.18474c-0.07581,-0.0626 -0.15837,-0.13645 -0.23286,-0.2196c-0.02943,-0.03276 -0.05619,-0.06805 -0.07994,-0.10535c-0.8379,-1.3156 -2.28896,-3.17724 -2.92666,-4.03765c-0.14337,-0.19343 -0.28596,-0.38778 -0.42681,-0.58292c-0.6124,-0.84838 -1.14115,-1.64161 -1.58309,-2.43103c-0.63698,-1.13784 -0.93286,-1.9887 -1.09264,-2.57706z" fill="#e09090" stroke="none"/><path d="M283.61424,265.96459c0.01637,0.03575 0.03174,0.07311 0.04652,0.11194c0.01277,0.03371 0.02586,0.07057 0.03956,0.111c0.02342,0.06929 0.04962,0.15308 0.07931,0.25479c0.04945,0.16938 0.10985,0.39297 0.18261,0.68402c0.11974,0.47901 0.2747,1.14908 0.44457,1.96473c0.1519,0.72935 0.31243,1.56007 0.45632,2.40485c0.02452,0.14395 0.0485,0.28787 0.0718,0.43155c0.09578,0.5901 0.19831,1.28437 0.27313,1.96199c0.04317,0.39095 0.13487,0.87776 0.28284,1.45491c0.1313,0.51211 0.29023,1.02995 0.44957,1.49718c0.02431,0.07133 0.04797,0.14935 0.0704,0.2274c0.02316,0.08063 0.04673,0.16775 0.07008,0.256c0.04712,0.17858 0.10276,0.40003 0.14959,0.58392c0.05869,0.23059 0.10898,0.42466 0.15952,0.60788c0.06893,0.25007 0.11945,0.41108 0.15722,0.52183l-1.53217,0.52249c-0.0504,-0.1478 -0.11023,-0.34048 -0.18566,-0.61417c-0.05486,-0.19901 -0.10831,-0.40532 -0.16772,-0.63882c-0.04888,-0.19211 -0.1013,-0.40073 -0.14599,-0.56998c-0.02173,-0.08231 -0.04206,-0.15717 -0.06085,-0.22251c-0.01865,-0.06474 -0.0341,-0.1151 -0.0466,-0.15149c-0.17035,-0.49953 -0.34201,-1.05801 -0.48549,-1.61765c-0.16107,-0.62823 -0.27003,-1.19246 -0.32378,-1.67927c-0.07073,-0.64051 -0.16872,-1.30549 -0.262,-1.8803c-0.0226,-0.13926 -0.04588,-0.27903 -0.06973,-0.41909c-0.1401,-0.8225 -0.29681,-1.63359 -0.4453,-2.34661c-0.16514,-0.79293 -0.31642,-1.44683 -0.43025,-1.90219c-0.06926,-0.27709 -0.12438,-0.48014 -0.16608,-0.62302c-0.02514,-0.08617 -0.04463,-0.14773 -0.0591,-0.19059c-0.00841,-0.02498 -0.01448,-0.04305 -0.0189,-0.05334c-0.00495,-0.01222 -0.00688,-0.01644 -0.00423,-0.01026z" fill="#e09090" stroke="none"/><g stroke="#62565b"><path d="M346.06076,181.91856c-8.49098,0 -15.37428,-6.70655 -15.37428,-14.9795c0,-8.27295 6.8833,-14.9795 15.37428,-14.9795c8.49098,0 15.37428,6.70655 15.37428,14.9795c0,8.27295 -6.8833,14.9795 -15.37428,14.9795z" fill="#000000"/><path d="M339.44882,168.25384c-3.36628,0 -6.0952,-2.7189 -6.0952,-6.07284c0,-3.35393 2.72891,-6.07284 6.0952,-6.07284c3.36628,0 6.0952,2.7189 6.0952,6.07284c0,3.35393 -2.72891,6.07284 -6.0952,6.07284z" fill="#ffffff"/></g><path d="M304.97438,224.32975c8.97429,1.86978 20.71396,1.87839 30.77858,0.14205c7.03569,-1.21379 -8.78795,8.24149 -15.4637,8.40522c-6.87874,0.16888 -22.56151,-10.05709 -15.31488,-8.54727z" fill="#000000" stroke="#020202"/><g fill="#e6e6e6" stroke="#020202"><path d="M320.09492,225.76214l0.05174,7.21799c0,0 -2.23493,-0.3654 -3.42906,-0.65542c-0.88493,-0.21493 -2.80812,-0.85944 -2.80812,-0.85944l-0.22148,-5.96878z"/><path d="M326.27616,225.56663l-0.4049,5.99351c0,0 -1.8686,0.7202 -2.8489,0.92697c-0.96158,0.20284 -3.03807,0.48582 -3.03807,0.48582l0.28137,-7.21728z"/></g></g></g></svg>