<svg version="1.1" xmlns="http://www.w3.org/2000/svg" xmlns:xlink="http://www.w3.org/1999/xlink" width="295.55004" height="195.64419" viewBox="0,0,295.55004,195.64419"><g transform="translate(-166.52409,-79.04706)"><g data-paper-data="{&quot;isPaintingLayer&quot;:true}" fill-rule="nonzero" stroke-linecap="butt" stroke-linejoin="miter" stroke-miterlimit="10" stroke-dasharray="" stroke-dashoffset="0" style="mix-blend-mode: normal"><g><path d="M220.1773,228.5311l40.29937,-22.56185c0,0 0,0 0.41546,43.69122z" data-paper-data="{&quot;index&quot;:null}" fill="#c4c418" stroke="#e3e31c" stroke-width="0.35835"/><path d="M233.03561,181.62815c-0.67273,85.7437 -0.67273,85.7437 -0.67273,85.7437l-65.255,-44.27749z" data-paper-data="{&quot;index&quot;:null}" fill="#f6f626" stroke="#f6f626" stroke-width="0.6388"/><path d="M203.68884,225.73474l20.43876,-10.50707c0,0 0,0 0.21072,20.34701z" data-paper-data="{&quot;index&quot;:null}" fill="#c4c418" stroke="#e3e31c" stroke-width="0.22208"/><g data-paper-data="{&quot;index&quot;:null}"><path d="M191.35013,231.03376c-4.00944,0 -7.25973,-3.31631 -7.25973,-7.4072c0,-4.09088 3.25029,-7.4072 7.25973,-7.4072c4.00943,0 7.25972,3.31631 7.25972,7.4072c0,4.09088 -3.25028,7.4072 -7.25972,7.4072z" fill="#000000" stroke="#000000" stroke-width="0.33116"/><path d="M188.23824,224.33859c-1.85702,0 -3.36242,-1.52158 -3.36242,-3.39853c0,-1.87697 1.50541,-3.39854 3.36242,-3.39854c1.85702,0 3.36242,1.52159 3.36242,3.39854c0,1.87697 -1.50541,3.39853 -3.36242,3.39853z" fill="#ffffff" stroke="#ffffff" stroke-width="0.15266"/></g></g><g><path d="M420.17729,235.5311l40.29937,-22.56185c0,0 0,0 0.41546,43.69122z" data-paper-data="{&quot;index&quot;:null}" fill="#c4c418" stroke="#e3e31c" stroke-width="0.35835"/><path d="M433.0356,188.62815c-0.67273,85.7437 -0.67273,85.7437 -0.67273,85.7437l-65.255,-44.27749z" data-paper-data="{&quot;index&quot;:null}" fill="#f6f626" stroke="#f6f626" stroke-width="0.6388"/><path d="M403.68883,232.73474l20.43876,-10.50707c0,0 0,0 0.21072,20.34701z" data-paper-data="{&quot;index&quot;:null}" fill="#c4c418" stroke="#e3e31c" stroke-width="0.22208"/><g data-paper-data="{&quot;index&quot;:null}"><path d="M391.35012,238.03376c-4.00944,0 -7.25973,-3.31631 -7.25973,-7.4072c0,-4.09088 3.25029,-7.4072 7.25973,-7.4072c4.00943,0 7.25972,3.31631 7.25972,7.4072c0,4.09088 -3.25028,7.4072 -7.25972,7.4072z" fill="#000000" stroke="#000000" stroke-width="0.33116"/><path d="M388.23823,231.33859c-1.85702,0 -3.36242,-1.52158 -3.36242,-3.39853c0,-1.87697 1.50541,-3.39854 3.36242,-3.39854c1.85702,0 3.36242,1.52159 3.36242,3.39854c0,1.87697 -1.50541,3.39853 -3.36242,3.39853z" fill="#ffffff" stroke="#ffffff" stroke-width="0.15266"/></g></g><g><path d="M221.1773,126.5311l40.29937,-22.56185c0,0 0,0 0.41546,43.69122z" data-paper-data="{&quot;index&quot;:null}" fill="#c4c418" stroke="#e3e31c" stroke-width="0.35835"/><path d="M234.03561,79.62815c-0.67273,85.7437 -0.67273,85.7437 -0.67273,85.7437l-65.255,-44.27749z" data-paper-data="{&quot;index&quot;:null}" fill="#f6f626" stroke="#f6f626" stroke-width="0.6388"/><path d="M204.68884,123.73474l20.43876,-10.50707c0,0 0,0 0.21072,20.34701z" data-paper-data="{&quot;index&quot;:null}" fill="#c4c418" stroke="#e3e31c" stroke-width="0.22208"/><g data-paper-data="{&quot;index&quot;:null}"><path d="M192.35013,129.03376c-4.00944,0 -7.25973,-3.31631 -7.25973,-7.4072c0,-4.09088 3.25029,-7.4072 7.25973,-7.4072c4.00943,0 7.25972,3.31631 7.25972,7.4072c0,4.09088 -3.25028,7.4072 -7.25972,7.4072z" fill="#000000" stroke="#000000" stroke-width="0.33116"/><path d="M189.23824,122.33859c-1.85702,0 -3.36242,-1.52158 -3.36242,-3.39853c0,-1.87697 1.50541,-3.39854 3.36242,-3.39854c1.85702,0 3.36242,1.52159 3.36242,3.39854c0,1.87697 -1.50541,3.39853 -3.36242,3.39853z" fill="#ffffff" stroke="#ffffff" stroke-width="0.15266"/></g></g><g><path d="M421.17729,133.5311l40.29937,-22.56185c0,0 0,0 0.41546,43.69122z" data-paper-data="{&quot;index&quot;:null}" fill="#c4c418" stroke="#e3e31c" stroke-width="0.35835"/><path d="M434.0356,86.62815c-0.67273,85.7437 -0.67273,85.7437 -0.67273,85.7437l-65.255,-44.27749z" data-paper-data="{&quot;index&quot;:null}" fill="#f6f626" stroke="#f6f626" stroke-width="0.6388"/><path d="M404.68883,130.73474l20.43876,-10.50707c0,0 0,0 0.21072,20.34701z" data-paper-data="{&quot;index&quot;:null}" fill="#c4c418" stroke="#e3e31c" stroke-width="0.22208"/><g data-paper-data="{&quot;index&quot;:null}"><path d="M392.35012,136.03376c-4.00944,0 -7.25973,-3.31631 -7.25973,-7.4072c0,-4.09088 3.25029,-7.4072 7.25973,-7.4072c4.00943,0 7.25972,3.31631 7.25972,7.4072c0,4.09088 -3.25028,7.4072 -7.25972,7.4072z" fill="#000000" stroke="#000000" stroke-width="0.33116"/><path d="M389.23823,129.33859c-1.85702,0 -3.36242,-1.52158 -3.36242,-3.39853c0,-1.87697 1.50541,-3.39854 3.36242,-3.39854c1.85702,0 3.36242,1.52159 3.36242,3.39854c0,1.87697 -1.50541,3.39853 -3.36242,3.39853z" fill="#ffffff" stroke="#ffffff" stroke-width="0.15266"/></g></g><g><path d="M320.67729,230.0311l40.29937,-22.56185c0,0 0,0 0.41546,43.69122z" data-paper-data="{&quot;index&quot;:null}" fill="#c4c418" stroke="#e3e31c" stroke-width="0.35835"/><path d="M333.53561,183.12815c-0.67273,85.7437 -0.67273,85.7437 -0.67273,85.7437l-65.255,-44.27749z" data-paper-data="{&quot;index&quot;:null}" fill="#f6f626" stroke="#f6f626" stroke-width="0.6388"/><path d="M304.18884,227.23474l20.43876,-10.50707c0,0 0,0 0.21072,20.34701z" data-paper-data="{&quot;index&quot;:null}" fill="#c4c418" stroke="#e3e31c" stroke-width="0.22208"/><g data-paper-data="{&quot;index&quot;:null}"><path d="M291.85013,232.53376c-4.00944,0 -7.25973,-3.31631 -7.25973,-7.4072c0,-4.09088 3.25029,-7.4072 7.25973,-7.4072c4.00943,0 7.25972,3.31631 7.25972,7.4072c0,4.09088 -3.25028,7.4072 -7.25972,7.4072z" fill="#000000" stroke="#000000" stroke-width="0.33116"/><path d="M288.73824,225.83859c-1.85702,0 -3.36242,-1.52158 -3.36242,-3.39853c0,-1.87697 1.50541,-3.39854 3.36242,-3.39854c1.85702,0 3.36242,1.52159 3.36242,3.39854c0,1.87697 -1.50541,3.39853 -3.36242,3.39853z" fill="#ffffff" stroke="#ffffff" stroke-width="0.15266"/></g></g><g><path d="M321.67729,128.0311l40.29937,-22.56185c0,0 0,0 0.41546,43.69122z" data-paper-data="{&quot;index&quot;:null}" fill="#c4c418" stroke="#e3e31c" stroke-width="0.35835"/><path d="M334.53561,81.12815c-0.67273,85.7437 -0.67273,85.7437 -0.67273,85.7437l-65.255,-44.27749z" data-paper-data="{&quot;index&quot;:null}" fill="#f6f626" stroke="#f6f626" stroke-width="0.6388"/><path d="M305.18884,125.23474l20.43876,-10.50707c0,0 0,0 0.21072,20.34701z" data-paper-data="{&quot;index&quot;:null}" fill="#c4c418" stroke="#e3e31c" stroke-width="0.22208"/><g data-paper-data="{&quot;index&quot;:null}"><path d="M292.85013,130.53376c-4.00944,0 -7.25973,-3.31631 -7.25973,-7.4072c0,-4.09088 3.25029,-7.4072 7.25973,-7.4072c4.00943,0 7.25972,3.31631 7.25972,7.4072c0,4.09088 -3.25028,7.4072 -7.25972,7.4072z" fill="#000000" stroke="#000000" stroke-width="0.33116"/><path d="M289.73824,123.83859c-1.85702,0 -3.36242,-1.52158 -3.36242,-3.39853c0,-1.87697 1.50541,-3.39854 3.36242,-3.39854c1.85702,0 3.36242,1.52159 3.36242,3.39854c0,1.87697 -1.50541,3.39853 -3.36242,3.39853z" fill="#ffffff" stroke="#ffffff" stroke-width="0.15266"/></g></g></g></g></svg>