<svg version="1.1" xmlns="http://www.w3.org/2000/svg" xmlns:xlink="http://www.w3.org/1999/xlink" width="154.9096" height="173.92545" viewBox="0,0,154.9096,173.92545"><g transform="translate(-246.73606,-65.92497)"><g data-paper-data="{&quot;isPaintingLayer&quot;:true}" fill-rule="nonzero" stroke-linejoin="miter" stroke-miterlimit="10" stroke-dasharray="" stroke-dashoffset="0" style="mix-blend-mode: normal"><path d="M285.40039,125.42594c-7.07827,-14.11457 -2.88738,-17.5723 22.91764,-32.53789c7.16705,-4.15651 33.14872,-16.13585 33.44105,-4.30285c0.68474,27.71632 0,107.58598 0,107.58598c0,0 13.29175,-1.19848 19.17598,1.47899c8.19927,3.73087 6.28967,24.36924 -1.63697,25.14292c-23.00444,2.24532 -39.77567,0.63135 -68.51907,0.49297c-8.58729,-0.04133 -8.88208,-23.00352 -1.16927,-26.37539c5.99947,-2.62282 21.51452,-0.986 21.51452,-0.986l-0.23385,-68.52677c0,0 -20.58858,7.80184 -25.49003,-1.97198z" fill="#ff3535" stroke="#ffffff" stroke-width="7.5" stroke-linecap="round"/><path d="M246.73606,239.85042v-173.92545h154.9096v173.92545z" fill="none" stroke="none" stroke-width="0" stroke-linecap="butt"/></g></g></svg>