<svg version="1.1" xmlns="http://www.w3.org/2000/svg" xmlns:xlink="http://www.w3.org/1999/xlink" width="210.27585" height="376.86734" viewBox="0,0,210.27585,376.86734"><g transform="translate(-290.4679,-121.88447)"><g data-paper-data="{&quot;isPaintingLayer&quot;:true}" fill-rule="nonzero" stroke-width="0" stroke-linecap="round" stroke-linejoin="bevel" stroke-miterlimit="10" stroke-dasharray="" stroke-dashoffset="0" style="mix-blend-mode: normal"><path d="M323.84103,478.25434h1.654" fill="#000000" stroke="none"/><path d="M496.06551,476.14032l4.67824,22.61149" fill="#000000" stroke="none"/><path d="M359.22701,496.02284l-13.64486,-5.06809" fill="#000000" stroke="none"/><path d="M356.32196,128.61204c3.47669,7.54067 -5.03389,20.30601 -7.46877,31.0383c-2.43489,10.73229 1.93962,21.18445 -1.00488,28.17904c-2.94449,6.99459 -15.51813,17.06212 -26.69028,16.29968c-11.17212,-0.76243 -20.62874,-10.40456 -30.69013,-20.6633c5.75384,-0.20163 11.51103,-0.40341 15.85594,-1.65879c4.34494,-1.25539 7.28763,-3.56734 9.65232,-14.63744c2.36471,-11.07013 4.15308,-30.89982 12.77923,-39.65683c8.62617,-8.75701 24.08987,-6.44131 27.56656,1.09939z" fill="#ce0a0a" stroke="#dacc2e"/><path d="M357.21513,132.56551l13.88076,11.14549l-18.16786,3.12986" fill="#f79e00" stroke="#dacc2e"/><path d="M330.33503,133.43286c0,-4.86978 4.30661,-8.81749 9.61909,-8.81749c5.31248,0 9.61909,3.94774 9.61909,8.81749c0,4.86978 -4.30661,8.81752 -9.61909,8.81752c-5.31248,0 -9.61909,-3.94774 -9.61909,-8.81752z" fill="#ffffff" stroke="#dacc2e"/><path d="M334.59694,128.49798c2.52161,-2.5343 7.67202,-2.64693 10.30099,-0.16895c2.62895,2.47798 2.73628,7.54651 0.21467,10.08086c-2.52161,2.53435 -7.67202,2.53435 -10.30099,0.05637c-2.62895,-2.47798 -2.73628,-7.43399 -0.21467,-9.96829z" fill="#000000" stroke="#dacc2e"/><path d="M334.23341,127.31872l3.91572,5.53985l-6.17864,-2.64587" fill="#f9f9f9" stroke="#dacc2e"/><path d="M322.139,199.42316c0.30228,0.77274 0.77012,2.10453 1.1217,3.98739c0.24526,1.31352 0.44478,2.93178 0.52234,5.09689c0.12926,3.60862 -0.05461,7.62223 -0.05461,9.08876h-2.26726c0,-1.50749 0.17957,-5.5599 0.05608,-9.0076c-0.07385,-2.06176 -0.26225,-3.56751 -0.48526,-4.76193c-0.31917,-1.70938 -0.7399,-2.90136 -1.00441,-3.57756z" fill="#f79e00" stroke="#dacc2e"/><path d="M324.0778,217.09306c-0.1282,0.56083 -0.26907,1.23915 -0.49278,2.48137c-0.08009,0.44478 -0.30468,1.72902 -0.46273,2.53977c-0.16608,0.8518 -0.34722,1.67503 -0.56717,2.44975c-0.30746,1.08295 -0.60971,1.77818 -0.83574,2.23032l-2.02788,-1.01394c0.16436,-0.32875 0.4147,-0.89203 0.68258,-1.83557c0.19545,-0.68838 0.36263,-1.44244 0.52288,-2.26441c0.15398,-0.78974 0.37147,-2.0343 0.45674,-2.50778c0.22817,-1.26692 0.37589,-1.98109 0.51388,-2.58476z" fill="#f79e00" stroke="#dacc2e"/><path d="M323.14545,215.99484c0.42659,0.38598 0.94949,0.84046 1.92384,1.64287c0.34887,0.2873 1.35942,1.111 1.98943,1.64519c0.6619,0.56127 1.29155,1.1217 1.85986,1.69229c0.79445,0.79758 1.25322,1.4011 1.53713,1.81935l-1.87582,1.27344c-0.20646,-0.30409 -0.57546,-0.79782 -1.26764,-1.49275c-0.505,-0.50699 -1.08111,-1.02145 -1.71985,-1.56305c-0.61369,-0.52036 -1.5931,-1.31847 -1.96446,-1.62432c-0.99371,-0.81833 -1.54453,-1.29634 -2.00371,-1.71182z" fill="#f79e00" stroke="#dacc2e"/><path d="M336.06827,217.46334c0.42659,0.38598 0.94949,0.84046 1.92382,1.64287c0.34887,0.2873 1.35942,1.111 1.98943,1.64519c0.6619,0.56127 1.29152,1.1217 1.85986,1.69229c0.79445,0.79758 1.25324,1.4011 1.53715,1.81935l-1.87584,1.27344c-0.20646,-0.30409 -0.57546,-0.79782 -1.26764,-1.49275c-0.505,-0.50699 -1.08111,-1.02145 -1.71983,-1.56305c-0.61369,-0.52036 -1.59312,-1.31847 -1.96449,-1.62432c-0.99371,-0.81833 -1.54451,-1.29634 -2.00368,-1.71182z" fill="#f79e00" stroke="#dacc2e"/><path d="M334.70245,199.44424c0.30228,0.77274 0.77012,2.10453 1.12168,3.98739c0.24526,1.31352 0.44478,2.93175 0.52234,5.09689c0.12926,3.60862 -0.05461,7.62223 -0.05461,9.08876h-2.26726c0,-1.50749 0.17957,-5.5599 0.05608,-9.0076c-0.07385,-2.06176 -0.26227,-3.56751 -0.48528,-4.76193c-0.31917,-1.70938 -0.7399,-2.90136 -1.00441,-3.57756z" fill="#f79e00" stroke="#dacc2e"/><path d="M336.14661,217.57053c-0.1282,0.56083 -0.26907,1.23915 -0.49278,2.48137c-0.08009,0.44478 -0.30468,1.72902 -0.46273,2.53977c-0.16608,0.8518 -0.34722,1.67503 -0.56717,2.44975c-0.30746,1.08295 -0.60971,1.77818 -0.83574,2.23032l-2.02788,-1.01394c0.16436,-0.32875 0.4147,-0.89203 0.68258,-1.83557c0.19545,-0.68838 0.36263,-1.44244 0.52288,-2.26441c0.15398,-0.78974 0.37147,-2.0343 0.45674,-2.50778c0.22817,-1.26692 0.37589,-1.98109 0.51388,-2.58476z" fill="#f79e00" stroke="#dacc2e"/><path d="M329.65178,182.94023c-4.51102,1.48633 -11.26626,3.71213 -11.97179,1.96952c-0.70553,-1.74262 1.84478,-14.35445 6.2547,-18.15618c4.40991,-3.80173 11.52626,-2.98303 14.62441,1.73368c3.09816,4.71672 2.17771,13.33107 1.25726,21.9456" fill="#aa0000" stroke="#dacc2e"/></g></g></svg>