<svg version="1.1" xmlns="http://www.w3.org/2000/svg" xmlns:xlink="http://www.w3.org/1999/xlink" width="101.7355" height="143.38385" viewBox="0,0,101.7355,143.38385"><g transform="translate(-272.10779,-116.14419)"><g data-paper-data="{&quot;isPaintingLayer&quot;:true}" fill-rule="nonzero" stroke="#ffffff" stroke-linecap="butt" stroke-linejoin="miter" stroke-miterlimit="10" stroke-dasharray="" stroke-dashoffset="0" style="mix-blend-mode: normal"><path d="M341.31946,139.45152c10.65363,4.92453 18.5189,17.81461 18.99187,30.45133c0.85417,22.82154 -20.86655,48.55516 -33.56085,67.63961c-4.87198,7.32446 -21.55903,8.29949 -25.75564,0.53939c-6.44253,-11.91312 21.33278,-34.49428 21.33278,-34.49428c0,0 -24.52139,-0.57228 -30.08409,-8.93892c-8.60941,-12.94904 -7.17899,-36.26483 3.28793,-47.6516c6.66065,-7.24598 17.36876,-10.93103 27.90855,-11.08251c6.32387,-0.09091 12.58705,1.09063 17.87946,3.53697zM310.10044,173.27086c-0.00032,6.47419 5.12449,11.7228 11.44655,11.72306c6.32242,0.00026 11.44779,-5.24851 11.44746,-11.72306c-0.00019,-6.47418 -5.12541,-11.72238 -11.44746,-11.72211c-6.32169,0.00026 -11.44636,5.24829 -11.44655,11.72211z" fill="#fd9b9b" stroke-width="6"/><path d="M272.10779,259.52805v-143.38385h101.7355v143.38385z" fill="none" stroke-width="0"/></g></g></svg>