<svg version="1.1" xmlns="http://www.w3.org/2000/svg" xmlns:xlink="http://www.w3.org/1999/xlink" width="435.2486" height="290.77344" viewBox="0,0,435.2486,290.77344"><g transform="translate(-59.0012,-74.0015)"><g data-paper-data="{&quot;isPaintingLayer&quot;:true}" fill-rule="nonzero" stroke-linecap="butt" stroke-linejoin="miter" stroke-miterlimit="10" stroke-dasharray="" stroke-dashoffset="0" style="mix-blend-mode: normal"><g><g fill="#c87137" stroke="#c87137" stroke-width="0.26459"><path d="M153.99936,243.48815l0.75082,-2.41349l-0.25028,118.74431c0,0 10.7617,2.8962 -10.76169,3.3789c-21.52339,0.4827 -0.50054,-0.96539 0,-118.74431z"/><path d="M163.64067,244.36537c0.50054,117.77892 21.52339,119.22701 0,118.74431c-21.52339,-0.4827 -10.7617,-3.3789 -10.7617,-3.3789l-0.25027,-118.74431l0.75081,2.41349z"/></g><g fill="#4eb632" stroke="#4eb632"><path d="M189.81403,191.28458c-15.23764,-17.94434 -16.52464,-42.25661 -2.87456,-54.30299c13.65008,-12.04638 37.06821,-7.26513 52.30586,10.6792c15.23764,17.94434 16.52463,42.25661 2.87455,54.30299c-13.65008,12.04638 -37.0682,7.26513 -52.30585,-10.6792z" stroke-width="0.30795"/><path d="M161.75448,256.28533c-12.90559,-11.96028 -13.63727,-33.20853 -1.63424,-47.45931c12.00303,-14.25078 32.19546,-16.10761 45.10105,-4.14733c12.90559,11.96028 13.63727,33.20854 1.63424,47.45932c-12.00303,14.25078 -32.19546,16.1076 -45.10105,4.14732z" stroke-width="0.30123"/><path d="M88.21964,229.45364c-2.06872,-20.83118 11.32872,-39.36536 29.92401,-41.39725c18.59529,-2.03189 35.34677,13.20795 37.41548,34.03913c2.06872,20.83118 -11.32872,39.36536 -29.92401,41.39725c-18.59529,2.03189 -35.34677,-13.20795 -37.41548,-34.03913z" stroke-width="0.26459"/><path d="M176.17274,215.33711c-1.81645,-18.29096 12.45671,-34.83922 31.87998,-36.96159c19.42327,-2.12236 36.64147,10.98487 38.45791,29.27583c1.81645,18.29096 -12.45671,34.83922 -31.87998,36.96159c-19.42327,2.12236 -36.64147,-10.98487 -38.45791,-29.27583z" stroke-width="0.3853"/><path d="M119.60107,192.74976c-1.54213,-15.5287 7.89156,-29.28462 21.07075,-30.72469c13.17919,-1.44007 25.11318,9.981 26.65531,25.5097c1.54213,15.5287 -7.89156,29.28462 -21.07075,30.72469c-13.17919,1.44007 -25.11318,-9.981 -26.65531,-25.5097z" stroke-width="0.26459"/><path d="M119.74406,187.5349c-2.35082,-23.6718 12.13513,-44.65268 32.35525,-46.86212c20.22012,-2.20943 38.51747,15.18924 40.86829,38.86105c2.35082,23.6718 -12.13513,44.65269 -32.35526,46.86213c-20.22012,2.20943 -38.51746,-15.18925 -40.86828,-38.86105z" stroke-width="0.26459"/><path d="M69.97486,172.17633c-2.35082,-23.6718 12.13513,-44.65268 32.35526,-46.86212c20.22012,-2.20943 38.51746,15.18924 40.86828,38.86105c2.35082,23.6718 -12.13513,44.65268 -32.35525,46.86212c-20.22012,2.20943 -38.51747,-15.18924 -40.86829,-38.86105z" stroke-width="0.26459"/><path d="M92.4485,132.28639c-2.35082,-23.6718 12.13513,-44.65268 32.35525,-46.86212c20.22012,-2.20943 38.51747,15.18924 40.86829,38.86105c2.35082,23.6718 -12.13513,44.65268 -32.35526,46.86212c-20.22012,2.20943 -38.51746,-15.18924 -40.86828,-38.86105z" stroke-width="0.26459"/><path d="M136.94648,121.1851c-2.35082,-23.6718 12.13513,-44.65269 32.35525,-46.86213c20.22012,-2.20943 38.51747,15.18925 40.86829,38.86105c2.35082,23.6718 -12.13513,44.65268 -32.35525,46.86212c-20.22012,2.20943 -38.51747,-15.18924 -40.86829,-38.86105z" stroke-width="0.26459"/><path d="M59.34421,204.87975c-2.06872,-20.83118 11.32871,-39.36537 29.924,-41.39726c18.59529,-2.03189 35.34678,13.20795 37.41549,34.03913c2.06872,20.83118 -11.32872,39.36537 -29.92401,41.39726c-18.59529,2.03189 -35.34677,-13.20795 -37.41548,-34.03913z" stroke-width="0.26459"/><path d="M60.46094,156.23183c-2.06872,-20.83118 11.32871,-39.36536 29.924,-41.39725c18.59529,-2.03189 35.34678,13.20795 37.41549,34.03913c2.06872,20.83118 -11.32872,39.36536 -29.92401,41.39725c-18.59529,2.03189 -35.34677,-13.20795 -37.41548,-34.03913z" stroke-width="0.26459"/><path d="M187.49175,131.25965c-2.06991,-20.84318 9.28688,-39.16421 25.36609,-40.92117c16.07921,-1.75696 30.79197,13.71547 32.86188,34.55866c2.06991,20.84318 -9.28688,39.1642 -25.36609,40.92116c-16.07921,1.75696 -30.79197,-13.71547 -32.86188,-34.55865z" stroke-width="0.24611"/></g></g><g><g fill="#c87137" stroke="#c87137" stroke-width="0.26459"><path d="M396.52353,244.8893l0.75082,-2.41349l-0.25028,118.74431c0,0 10.7617,2.8962 -10.76169,3.3789c-21.52339,0.4827 -0.50054,-0.96539 0,-118.74431z"/><path d="M406.16484,245.76652c0.50054,117.77892 21.52339,119.22701 0,118.74431c-21.52339,-0.4827 -10.7617,-3.3789 -10.7617,-3.3789l-0.25027,-118.74431l0.75081,2.41349z"/></g><g fill="#4eb632" stroke="#4eb632"><path d="M432.3382,192.68573c-15.23764,-17.94434 -16.52464,-42.25661 -2.87456,-54.30299c13.65008,-12.04638 37.06821,-7.26513 52.30586,10.6792c15.23764,17.94434 16.52463,42.25661 2.87455,54.30299c-13.65008,12.04638 -37.0682,7.26513 -52.30585,-10.6792z" stroke-width="0.30795"/><path d="M404.27865,257.68648c-12.90559,-11.96028 -13.63727,-33.20853 -1.63424,-47.45931c12.00303,-14.25078 32.19546,-16.10761 45.10105,-4.14733c12.90559,11.96028 13.63727,33.20854 1.63424,47.45932c-12.00303,14.25078 -32.19546,16.1076 -45.10105,4.14732z" stroke-width="0.30123"/><path d="M330.74381,230.85479c-2.06872,-20.83118 11.32872,-39.36536 29.92401,-41.39725c18.59529,-2.03189 35.34677,13.20795 37.41548,34.03913c2.06872,20.83118 -11.32872,39.36536 -29.92401,41.39725c-18.59529,2.03189 -35.34677,-13.20795 -37.41548,-34.03913z" stroke-width="0.26459"/><path d="M418.69691,216.73826c-1.81645,-18.29096 12.45671,-34.83922 31.87998,-36.96159c19.42327,-2.12236 36.64147,10.98487 38.45791,29.27583c1.81645,18.29096 -12.45671,34.83922 -31.87998,36.96159c-19.42327,2.12236 -36.64147,-10.98487 -38.45791,-29.27583z" stroke-width="0.3853"/><path d="M362.12524,194.15091c-1.54213,-15.5287 7.89156,-29.28462 21.07075,-30.72469c13.17919,-1.44007 25.11318,9.981 26.65531,25.5097c1.54213,15.5287 -7.89156,29.28462 -21.07075,30.72469c-13.17919,1.44007 -25.11318,-9.981 -26.65531,-25.5097z" stroke-width="0.26459"/><path d="M362.26823,188.93605c-2.35082,-23.6718 12.13513,-44.65268 32.35525,-46.86212c20.22012,-2.20943 38.51747,15.18924 40.86829,38.86105c2.35082,23.6718 -12.13513,44.65269 -32.35526,46.86213c-20.22012,2.20943 -38.51746,-15.18925 -40.86828,-38.86105z" stroke-width="0.26459"/><path d="M312.49903,173.57748c-2.35082,-23.6718 12.13513,-44.65268 32.35526,-46.86212c20.22012,-2.20943 38.51746,15.18924 40.86828,38.86105c2.35082,23.6718 -12.13513,44.65268 -32.35525,46.86212c-20.22012,2.20943 -38.51747,-15.18924 -40.86829,-38.86105z" stroke-width="0.26459"/><path d="M334.97267,133.68754c-2.35082,-23.6718 12.13513,-44.65268 32.35525,-46.86212c20.22012,-2.20943 38.51747,15.18924 40.86829,38.86105c2.35082,23.6718 -12.13513,44.65268 -32.35526,46.86212c-20.22012,2.20943 -38.51746,-15.18924 -40.86828,-38.86105z" stroke-width="0.26459"/><path d="M379.47065,122.58625c-2.35082,-23.6718 12.13513,-44.65269 32.35525,-46.86213c20.22012,-2.20943 38.51747,15.18925 40.86829,38.86105c2.35082,23.6718 -12.13513,44.65268 -32.35525,46.86212c-20.22012,2.20943 -38.51747,-15.18924 -40.86829,-38.86105z" stroke-width="0.26459"/><path d="M301.86838,206.2809c-2.06872,-20.83118 11.32871,-39.36537 29.924,-41.39726c18.59529,-2.03189 35.34678,13.20795 37.41549,34.03913c2.06872,20.83118 -11.32872,39.36537 -29.92401,41.39726c-18.59529,2.03189 -35.34677,-13.20795 -37.41548,-34.03913z" stroke-width="0.26459"/><path d="M302.9851,157.63298c-2.06872,-20.83118 11.32871,-39.36536 29.924,-41.39725c18.59529,-2.03189 35.34678,13.20795 37.41549,34.03913c2.06872,20.83118 -11.32872,39.36536 -29.92401,41.39725c-18.59529,2.03189 -35.34677,-13.20795 -37.41548,-34.03913z" stroke-width="0.26459"/><path d="M430.01592,132.6608c-2.06991,-20.84318 9.28688,-39.16421 25.36609,-40.92117c16.07921,-1.75696 30.79197,13.71547 32.86188,34.55866c2.06991,20.84318 -9.28688,39.1642 -25.36609,40.92116c-16.07921,1.75696 -30.79197,-13.71547 -32.86188,-34.55865z" stroke-width="0.24611"/></g></g></g></g></svg>