<svg version="1.1" xmlns="http://www.w3.org/2000/svg" xmlns:xlink="http://www.w3.org/1999/xlink" width="137.88154" height="143.38385" viewBox="0,0,137.88154,143.38385"><g transform="translate(-245.709,-116.1442)"><g data-paper-data="{&quot;isPaintingLayer&quot;:true}" fill-rule="nonzero" stroke="#ffffff" stroke-linejoin="miter" stroke-miterlimit="10" stroke-dasharray="" stroke-dashoffset="0" style="mix-blend-mode: normal"><path d="M352.76759,141.90818c9.97497,12.23732 15.57879,28.83461 15.57867,46.14065c-0.00027,36.03752 -23.8139,65.2516 -53.18951,65.25181c-29.37561,-0.00021 -53.18926,-29.2143 -53.18951,-65.25181c-0.00012,-17.30605 5.60368,-33.90333 15.57867,-46.14065c9.97497,-12.23732 23.50401,-19.11222 37.61086,-19.11233c14.10685,0.0001 27.63587,6.87502 37.61086,19.11233zM294.23287,188.21262c0.00014,20.0105 9.79711,36.23222 21.88239,36.23269c12.0853,-0.00047 21.88226,-16.22219 21.88239,-36.23269c0.00025,-20.01095 -9.79682,-36.23339 -21.88239,-36.23384c-12.08557,0.00047 -21.88265,16.22289 -21.88239,36.23384z" fill="#00a4d6" stroke-width="6" stroke-linecap="round"/><path d="M245.709,259.52805v-143.38385h137.88154v143.38385z" fill="none" stroke-width="0" stroke-linecap="butt"/></g></g></svg>