<svg version="1.1" xmlns="http://www.w3.org/2000/svg" xmlns:xlink="http://www.w3.org/1999/xlink" width="77.8967" height="60" viewBox="0,0,77.8967,60"><g transform="translate(-260.00001,-149.73568)"><g data-paper-data="{&quot;isPaintingLayer&quot;:true}" fill-rule="nonzero" stroke-linecap="butt" stroke-linejoin="miter" stroke-miterlimit="10" stroke-dasharray="" stroke-dashoffset="0" style="mix-blend-mode: normal"><path d="M319.99976,149.73568v20.63975c1.74074,-0.89966 3.67642,-1.37451 5.64344,-1.38441c3.24988,-0.00002 6.36665,1.26794 8.66464,3.52493c2.29799,2.25699 3.58895,5.31812 3.58887,8.50996c-0.00005,6.64651 -5.48613,12.03454 -12.2535,12.03449c-1.96699,-0.00978 -3.90267,-0.48449 -5.64344,-1.38402v18.0593h-59.99976v-60z" fill="#cca676" stroke="none" stroke-width="0.11881"/><path d="M300.04113,161.96739c2.72683,5.18353 -0.31063,14.7792 1.1605,20.87153c0.38371,0.77652 3.5687,-0.38275 4.48289,-0.07542c2.38551,0.80199 2.76132,6.47332 0.77462,8.63829c-1.34488,1.46554 -6.08596,0.21307 -6.08596,0.21307c0,0 1.03652,6.65522 -1.21758,8.53175c-2.20328,1.83424 -6.53375,1.76017 -8.734,-0.07745c-2.16054,-1.80444 0.21122,-8.28981 -1.29795,-8.17096c-6.57722,0.51797 -10.40841,-0.2758 -12.86974,-0.47376c-14.91413,-1.19948 11.54124,-32.62796 17.33417,-32.49901c2.83361,0.06307 5.29263,0.83605 6.45306,3.04196zM281.22894,183.40336l9.84887,0.31961c0.65631,-14.09355 0.40692,-9.07996 0.66367,-14.39701l-0.00515,0.00731c0,-0.00501 0.00515,-0.1101 0.00515,-0.11371z" fill="#c962c4" stroke="#ffffff" stroke-width="2.5"/></g></g></svg>