<svg version="1.1" xmlns="http://www.w3.org/2000/svg" xmlns:xlink="http://www.w3.org/1999/xlink" width="77.8967" height="60" viewBox="0,0,77.8967,60"><g transform="translate(-260.00001,-149.73568)"><g data-paper-data="{&quot;isPaintingLayer&quot;:true}" fill-rule="nonzero" stroke-linecap="butt" stroke-linejoin="miter" stroke-miterlimit="10" stroke-dasharray="" stroke-dashoffset="0" style="mix-blend-mode: normal"><path d="M319.99976,149.73568v20.63975c1.74074,-0.89966 3.67642,-1.37451 5.64344,-1.38441c3.24988,-0.00002 6.36665,1.26794 8.66464,3.52493c2.29799,2.25699 3.58895,5.31812 3.58887,8.50996c-0.00005,6.64651 -5.48613,12.03454 -12.2535,12.03449c-1.96699,-0.00978 -3.90267,-0.48449 -5.64344,-1.38402v18.0593h-59.99976v-60z" fill="#cca676" stroke="none" stroke-width="0.11881"/><path d="M276.49999,167.79912c0.50308,-5.59944 7.93018,-8.05554 12.90369,-8.58945c3.27304,-0.35136 7.41152,0.70183 9.28675,3.74412c2.80695,4.55387 3.21594,13.26448 -0.1955,16.63058c-1.21528,1.19914 2.58273,3.38691 3.5986,5.63732c1.37187,3.03905 0.50349,7.28908 -0.56819,9.88747c-1.97237,4.78223 -7.64955,7.99747 -12.31716,7.59836c-5.4359,-0.46481 -12.68404,-5.05557 -12.99451,-11.18675c-0.11851,-2.34024 2.42791,-4.62626 4.49674,-4.87758c3.26874,-0.39708 5.16974,6.70526 8.40001,5.82306c2.59231,-0.70798 3.99069,-7.29042 2.24838,-7.37811c-2.34673,-0.11812 -6.2523,-0.25651 -7.68217,-2.82861c-0.67566,-1.21539 -0.21603,-3.09035 0.5174,-4.26247c1.51093,-2.41464 5.89225,-1.39581 6.98315,-4.08231c0.59272,-1.45966 0.31603,-4.04603 -0.99144,-4.68406c-2.65169,-1.29401 -4.65424,5.1967 -7.52716,4.84533c-2.75222,-0.33661 -6.43735,-3.17417 -6.15858,-6.2769z" fill="#ff950b" stroke="#ffffff" stroke-width="2.5"/></g></g></svg>