<svg version="1.1" xmlns="http://www.w3.org/2000/svg" xmlns:xlink="http://www.w3.org/1999/xlink" width="92.60786" height="125.00953" viewBox="0,0,92.60786,125.00953"><g transform="translate(-267.89663,-113.49723)"><g data-paper-data="{&quot;isPaintingLayer&quot;:true}" fill-rule="nonzero" stroke-width="0" stroke-linecap="round" stroke-linejoin="bevel" stroke-miterlimit="10" stroke-dasharray="" stroke-dashoffset="0" style="mix-blend-mode: normal"><path d="M328.71812,215.97337c1.21627,0.48625 2.43255,0.9725 3.89905,0.0403c1.4665,-0.93218 3.18316,-3.28268 5.44212,-4.61573c2.25894,-1.33306 5.06014,-1.64861 7.86134,-1.96417c-3.14157,4.71728 -5.85791,8.79605 -7.23032,14.29742c-1.37241,5.50136 -0.74643,9.80186 -0.02245,14.77558c-2.35818,-1.69555 -4.71635,-3.39109 -6.33382,-5.06405c-1.61747,-1.67296 -2.49422,-3.32331 -3.16816,-4.59821c-0.67394,-1.2749 -1.14502,-2.17425 -1.8227,-2.89003c-0.67769,-0.71578 -1.562,-1.24799 -2.44629,-1.78019c1.28799,-1.00249 2.57596,-2.00497 3.21284,-3.37182c0.63689,-1.36685 0.62265,-3.09797 0.6084,-4.82913z" fill="#4790cd" stroke="#62565b"/><path d="M283.29159,148.02445c3.43454,-4.38843 6.94161,-7.94864 10.22378,-10.30694c3.28217,-2.3583 6.33945,-3.5147 8.69472,-4.43328c2.35528,-0.91858 4.00849,-1.59931 7.31502,-1.93968c3.30653,-0.34037 8.26616,-0.34037 12.73967,0.63214c4.47352,0.97251 8.46067,2.91747 12.52087,5.56755c4.06021,2.65008 8.19468,6.0063 11.56616,10.2763c3.37147,4.27 5.98305,9.45665 7.61275,13.66422c1.62969,4.20756 2.27534,7.43175 1.92958,10.64848c-0.34577,3.21674 -1.68291,6.42588 -2.75268,9.19755c-1.06976,2.77167 -1.87205,5.10561 -0.79012,7.24512c1.08193,2.13951 4.04792,4.08442 5.99295,7.75566c1.94503,3.67124 2.86885,9.06838 1.52737,10.38872c-1.34149,1.32036 -4.94812,-1.43622 -9.18284,-3.25223c-4.23472,-1.816 -9.09698,-2.69121 -12.98277,-2.40692c-3.88578,0.28429 -6.79466,1.72809 -8.5124,4.1406c-1.71774,2.41252 -2.24424,5.79354 -1.70936,8.12757c0.53488,2.33404 2.13112,3.62084 4.1449,2.95136c2.01378,-0.66948 4.44497,-3.29517 6.48723,-4.80254c2.04226,-1.50737 3.69546,-1.89636 4.42483,-1.31285c0.72937,0.58352 0.53488,2.13948 -0.53489,4.37625c-1.06977,2.23676 -3.01472,5.15419 -3.69546,8.8254c-0.68074,3.67122 -0.09727,8.09589 -0.63215,10.50286c-0.53488,2.40698 -2.18806,2.79596 -4.01152,0.68074c-1.82346,-2.11521 -3.817,-6.73439 -7.07493,-9.38449c-3.25792,-2.6501 -7.77994,-3.33083 -11.15938,-4.72882c-3.37944,-1.39798 -5.61613,-3.51311 -7.80425,-5.50673c-2.18811,-1.99361 -4.32761,-3.86567 -6.4671,-5.73772c-3.59823,-3.40373 -7.19646,-6.80746 -10.94061,-7.97445c-3.74415,-1.16699 -7.63405,-0.09726 -10.89193,1.167c-3.25788,1.26426 -5.88356,2.72297 -7.68269,3.7441c-1.79913,1.02113 -2.77161,1.60461 -3.11198,0.29171c-0.34037,-1.3129 -0.04863,-4.52207 0.82663,-7.34233c0.87526,-2.82026 2.33398,-5.25146 3.93861,-7.00196c1.60463,-1.7505 3.35509,-2.82022 3.35507,-4.81386c-0.00002,-1.99364 -1.75047,-4.91107 -3.06335,-7.68271c-1.31288,-2.77164 -2.18809,-5.39727 -2.19154,-8.16202c-0.0035,-2.76476 0.86169,-5.65777 2.98458,-9.73274c2.12289,-4.07497 5.47265,-9.27262 8.90719,-13.66106z" fill="#4790cd" stroke="#62565b"/><path d="M314.80084,113.49724c2.6379,6.33338 5.27578,12.66675 7.91368,19.00012c-1.45875,-0.14587 -2.91745,-0.29174 -4.64365,-0.46193c-1.7262,-0.17019 -3.71977,-0.36468 -5.83497,-0.31606c-2.11519,0.04862 -4.35194,0.34037 -6.58868,0.63212z" fill="#4790cd" stroke="#62565b"/><path d="M284.19651,160.49401c0,-3.41805 2.44761,-6.18892 5.46688,-6.18892c3.01927,0 5.46688,2.77088 5.46688,6.18892c0,3.41805 -2.44761,6.18892 -5.46688,6.18892c-3.01927,0 -5.46688,-2.77087 -5.46688,-6.18892z" fill="#000000" stroke="#62565b"/><path d="M276.64529,186.85587c3.14603,3.93684 6.29207,7.87369 8.77625,10.33207c2.48419,2.45838 4.30644,3.43827 6.12873,4.41819c-4.73131,0.59408 -9.46253,1.18814 -12.98685,2.07352c-3.52432,0.88538 -5.84145,2.06199 -6.93127,3.16607c-1.08983,1.10407 -0.95229,2.13555 -0.81476,3.16704c-1.03148,-0.68766 -2.06297,-1.37532 -2.56153,-2.80223c-0.49855,-1.42692 -0.46417,-3.59295 0.01632,-5.79c0.48049,-2.19705 1.40706,-4.42491 2.54168,-6.14403c1.13463,-1.71913 2.47731,-2.92952 3.48391,-4.2482c1.0066,-1.31868 1.67705,-2.74554 2.34752,-4.17243z" fill="#4790cd" stroke="#62565b"/><path d="M294.8746,184.54937l-3.43779,-7.51514l3.35783,-3.43778l9.67375,-2.55835l13.11154,-0.79948l14.07091,1.59897l8.15474,3.91747l-3.43779,8.31463l-13.03158,8.47453l-17.42875,0.23985z" fill="#000000" stroke="#020202"/><path d="M298.57547,174.11057c1.02628,-0.35426 2.28323,-0.61559 3.54017,-0.87691l-0.96643,8.4182l-5.19125,-6.29263c0.79561,-0.44719 1.59122,-0.89439 2.6175,-1.24865z" fill="#ececec" stroke="#020202"/><path d="M306.06605,172.51135c1.07959,-0.115 2.36313,-0.08769 3.64666,-0.06038l-2.83027,7.98684l-3.64729,-7.29682c0.87565,-0.25732 1.75131,-0.51463 2.8309,-0.62964z" fill="#ececec" stroke="#020202"/><path d="M311.13694,171.9685c1.07959,-0.115 2.36313,-0.0877 3.64666,-0.06039l-2.83027,7.98684l-3.64729,-7.29682c0.87565,-0.25732 1.7513,-0.51463 2.83089,-0.62964z" fill="#ececec" stroke="#020202"/><path d="M292.19898,174.59265c0.95102,-0.52374 2.14517,-0.99516 3.33931,-1.46657l0.48024,8.45987l-6.18637,-5.31743c0.7079,-0.57606 1.4158,-1.15213 2.36683,-1.67587z" fill="#ececec" stroke="#020202"/><path d="M317.4508,171.90481c1.07959,-0.115 2.36313,-0.0877 3.64666,-0.06039l-2.83027,7.98684l-3.64729,-7.29682c0.87565,-0.25732 1.7513,-0.51463 2.83089,-0.62963z" fill="#ececec" stroke="#020202"/><path d="M329.80078,173.03841c1.07468,0.15429 2.312,0.49671 3.54931,0.83915l-4.70925,7.04436l-1.73884,-7.97011c0.91205,-0.03385 1.8241,-0.06769 2.89878,0.0866z" fill="#ececec" stroke="#020202"/><path d="M323.56267,172.31257c1.08551,0.0204 2.35564,0.2074 3.62577,0.39441l-3.80329,7.57199l-2.70977,-7.69437c0.90089,-0.14622 1.80178,-0.29243 2.88729,-0.27203z" fill="#ececec" stroke="#020202"/><path d="M335.53857,171.9345c1.02868,0.34724 2.18304,0.90907 3.3374,1.4709l-5.91231,6.06999l-0.25973,-8.15346c0.90299,0.13266 1.80596,0.26532 2.83464,0.61257z" fill="#ececec" stroke="#020202"/><path d="M298.38809,185.27826c-0.99834,-0.42668 -2.10519,-1.07713 -3.21205,-1.72758l6.36922,-5.58866l-0.37917,8.14877c-0.88983,-0.20292 -1.77967,-0.40584 -2.77801,-0.83253z" fill="#ececec" stroke="#020202"/><path d="M303.19987,187.3661c-1.02061,-0.28756 -2.17395,-0.7762 -3.3273,-1.26486l5.49002,-6.12176l0.63366,7.84716c-0.88788,-0.08649 -1.77578,-0.17298 -2.79639,-0.46055z" fill="#ececec" stroke="#020202"/><path d="M309.24898,188.87703c-1.06313,-0.27781 -2.26776,-0.76134 -3.47238,-1.24487l5.56743,-6.45108l0.81137,8.11795c-0.92165,-0.07209 -1.84329,-0.14419 -2.90642,-0.422z" fill="#ececec" stroke="#020202"/><path d="M336.15271,187.95509c-0.98021,0.49661 -2.20271,0.93296 -3.42521,1.36931l-0.10683,-8.52064l5.98808,5.54097c-0.73791,0.55687 -1.47582,1.11375 -2.45603,1.61036z" fill="#ececec" stroke="#020202"/><path d="M317.25651,189.43273c-1.09677,0.06731 -2.39209,-0.01677 -3.68741,-0.10084l3.27998,-7.86477l3.30064,7.46092c-0.89822,0.21869 -1.79644,0.43739 -2.89321,0.50469z" fill="#ececec" stroke="#020202"/><path d="M323.94603,188.06783c-1.04341,0.34458 -2.31738,0.59337 -3.59136,0.84216l1.16747,-8.44096l5.09296,6.37347c-0.81284,0.44037 -1.62567,0.88074 -2.66907,1.22532z" fill="#ececec" stroke="#020202"/><path d="M328.99231,186.53542c-1.01828,0.41295 -2.27299,0.74559 -3.52769,1.07823l0.60573,-8.49975l5.50399,6.02208c-0.78188,0.49325 -1.56375,0.9865 -2.58204,1.39945z" fill="#ececec" stroke="#020202"/><path d="M338.47803,171.4487c7.40076,1.81026 12.45388,1.28181 17.59583,0.74415c-0.48956,2.73306 -0.97884,5.46598 -1.92702,8.00054c-0.94818,2.53456 -2.35513,4.87065 -3.61166,6.87142c-1.25654,2.00077 -2.36263,3.66609 -3.79099,5.15524c-1.42836,1.48915 -3.17876,2.80214 -5.07514,4.09071c-1.89639,1.28857 -3.93897,2.55271 -5.73195,3.7083c-1.79298,1.15559 -3.33641,2.20268 -4.76767,3.65973c-1.43126,1.45704 -2.75015,3.32413 -3.36362,5.33094c-0.61347,2.00681 -0.5215,4.15282 0.28991,5.70611c0.81141,1.5533 1.87773,2.22197 2.02003,4.36304c0.1423,2.14108 -0.35052,3.01344 -3.25716,4.40025c-2.90665,1.38681 -5.00383,1.23445 -7.54476,0.41703c-2.54093,-0.81741 -4.53448,-2.22737 -6.30607,-3.68711c-1.77159,-1.45974 -3.32131,-2.9691 -5.31492,-4.7439c-1.99361,-1.7748 -4.43102,-3.81546 -6.8709,-5.86631c-2.43989,-2.05084 -4.88205,-4.11172 -7.72666,-6.29987c-2.84461,-2.18815 -6.09135,-4.50303 -9.19995,-7.54631c-3.1086,-3.04328 -6.0786,-6.81485 -8.00985,-10.05262c-1.93125,-3.23775 -2.824,-5.94172 -3.41116,-8.00726c-0.58716,-2.06554 -0.86894,-3.4929 -1.15083,-4.92012c5.36728,1.41947 5.91706,1.56476 15.22646,0.29404c9.30939,-1.27071 17.39864,-6.29168 26.41958,-6.83834c0.56381,-0.03417 1.12799,-0.05055 1.69189,-0.05116c8.45843,-0.00912 16.87842,3.5744 23.81664,5.27151zM301.94824,176.81064c-2.21146,1.12965 -4.3168,0.51187 0.33003,4.84559c4.28918,4.00018 6.30076,2.2103 12.7169,3.23236c6.81863,-0.66795 6.8136,0.83937 14.36993,-3.4459c2.89859,-3.66819 4.37403,-3.60911 -2.6203,-4.84903c-4.11796,-0.73002 -4.10813,-0.5828 -10.89096,-0.64007c-6.78283,-0.05728 -6.43536,-0.27501 -10.77736,0.09167z" fill="#a2d6df" stroke="#62565b"/><path d="M288.63374,158.0745c0,-1.42418 1.06217,-2.57872 2.37242,-2.57872c1.31025,0 2.37242,1.15454 2.37242,2.57872c0,1.42418 -1.06217,2.57872 -2.37242,2.57872c-1.31025,0 -2.37242,-1.15453 -2.37242,-2.57872z" fill="#e6e6e6" stroke="#62565b"/><path d="M332.89537,159.92595c0,-3.41805 2.44761,-6.18892 5.46688,-6.18892c3.01927,0 5.46688,2.77087 5.46688,6.18892c0,3.41805 -2.44761,6.18892 -5.46688,6.18892c-3.01927,0 -5.46688,-2.77087 -5.46688,-6.18892z" fill="#000000" stroke="#62565b"/><path d="M337.35945,157.59161c0,-1.42418 1.06217,-2.57872 2.37242,-2.57872c1.31025,0 2.37242,1.15454 2.37242,2.57872c0,1.42418 -1.06217,2.57872 -2.37242,2.57872c-1.31025,0 -2.37242,-1.15453 -2.37242,-2.57872z" fill="#e6e6e6" stroke="#62565b"/><path d="M278.38552,166.27668c0,-1.23596 0.20039,-2.23791 0.44758,-2.23791c0.24719,0 0.44758,1.00195 0.44758,2.23791c0,1.23596 -0.20039,2.23791 -0.44758,2.23791c-0.24719,0 -0.44758,-1.00195 -0.44758,-2.23791z" fill="#000000" stroke="#62565b"/><path d="M280.61248,163.85582c0,-1.81333 0.32349,-3.28333 0.72253,-3.28333c0.39904,0 0.72253,1.47 0.72253,3.28333c0,1.81333 -0.32349,3.28333 -0.72253,3.28333c-0.39904,0 -0.72253,-1.47 -0.72253,-3.28333z" fill="#000000" stroke="#62565b"/><path d="M276.41574,167.46947c0,-1.23596 0.20039,-2.23791 0.44758,-2.23791c0.24719,0 0.44758,1.00195 0.44758,2.23791c0,1.23596 -0.20038,2.23791 -0.44758,2.23791c-0.24719,0 -0.44758,-1.00195 -0.44758,-2.23791z" fill="#000000" stroke="#62565b"/><path d="M345.46417,163.70416c0,-1.81333 0.32349,-3.28334 0.72253,-3.28334c0.39904,0 0.72252,1.47001 0.72252,3.28334c0,1.81333 -0.32348,3.28333 -0.72252,3.28333c-0.39904,0 -0.72253,-1.47 -0.72253,-3.28333z" fill="#000000" stroke="#62565b"/><path d="M348.98402,166.37894c0,-1.23596 0.20039,-2.23791 0.44758,-2.23791c0.24719,0 0.44758,1.00195 0.44758,2.23791c0,1.23596 -0.20038,2.2379 -0.44758,2.2379c-0.24719,0 -0.44758,-1.00194 -0.44758,-2.2379z" fill="#000000" stroke="#62565b"/><path d="M351.06583,167.54966c0,-1.23596 0.20039,-2.23791 0.44758,-2.23791c0.24719,0 0.44758,1.00195 0.44758,2.23791c0,1.23596 -0.20039,2.23791 -0.44758,2.23791c-0.24719,0 -0.44758,-1.00195 -0.44758,-2.23791z" fill="#000000" stroke="#62565b"/></g></g></svg>