<svg version="1.1" xmlns="http://www.w3.org/2000/svg" xmlns:xlink="http://www.w3.org/1999/xlink" width="246.14766" height="200.67251" viewBox="0,0,246.14766,200.67251"><g transform="translate(-196.99552,-79.66375)"><g data-paper-data="{&quot;isPaintingLayer&quot;:true}" fill-rule="nonzero" stroke-linecap="butt" stroke-linejoin="miter" stroke-miterlimit="10" stroke-dasharray="" stroke-dashoffset="0" style="mix-blend-mode: normal"><g><path d="M310.00448,235.06808c-0.36862,39.55889 -0.36862,39.55889 -0.36862,39.55889l-35.75635,-20.42794z" data-paper-data="{&quot;index&quot;:null}" fill="#9c0000" stroke="#d30000" stroke-width="0.27313"/><path d="M198.99552,278.33626v-49.67251h83.36239v49.67251z" data-paper-data="{&quot;index&quot;:null}" fill="#ff1515" stroke="none" stroke-width="0"/><g data-paper-data="{&quot;index&quot;:null}"><path d="M215.18464,260.61969c-4.45215,0 -8.06133,-3.60814 -8.06133,-8.05902c0,-4.45087 3.60918,-8.05902 8.06133,-8.05902c4.45215,0 8.06133,3.60814 8.06133,8.05902c0,4.45087 -3.60918,8.05902 -8.06133,8.05902z" fill="#000000" stroke="#000000" stroke-width="0.33116"/><path d="M211.72917,253.33536c-2.06206,0 -3.73368,-1.65547 -3.73368,-3.6976c0,-2.04213 1.67163,-3.6976 3.73368,-3.6976c2.06206,0 3.73368,1.65547 3.73368,3.6976c0,2.04213 -1.67163,3.6976 -3.73368,3.6976z" fill="#ffffff" stroke="#ffffff" stroke-width="0.15266"/></g><path d="M260.1929,237.71899c-0.25268,30.44914 -0.25268,30.44914 -0.25268,30.44914l-24.50983,-15.72374z" data-paper-data="{&quot;index&quot;:null}" fill="#9c0000" stroke="#d30000" stroke-width="0.1984"/></g><g><path d="M310.00448,162.06809c-0.36862,39.55889 -0.36862,39.55889 -0.36862,39.55889l-35.75635,-20.42794z" data-paper-data="{&quot;index&quot;:null}" fill="#9c0000" stroke="#d30000" stroke-width="0.27313"/><path d="M198.99552,205.33626v-49.67251h83.36239v49.67251z" data-paper-data="{&quot;index&quot;:null}" fill="#ff1515" stroke="none" stroke-width="0"/><g data-paper-data="{&quot;index&quot;:null}"><path d="M215.18464,187.61969c-4.45215,0 -8.06133,-3.60814 -8.06133,-8.05902c0,-4.45087 3.60918,-8.05902 8.06133,-8.05902c4.45215,0 8.06133,3.60814 8.06133,8.05902c0,4.45087 -3.60918,8.05902 -8.06133,8.05902z" fill="#000000" stroke="#000000" stroke-width="0.33116"/><path d="M211.72917,180.33536c-2.06206,0 -3.73368,-1.65547 -3.73368,-3.6976c0,-2.04213 1.67163,-3.6976 3.73368,-3.6976c2.06206,0 3.73368,1.65547 3.73368,3.6976c0,2.04213 -1.67163,3.6976 -3.73368,3.6976z" fill="#ffffff" stroke="#ffffff" stroke-width="0.15266"/></g><path d="M260.1929,164.71899c-0.25268,30.44914 -0.25268,30.44914 -0.25268,30.44914l-24.50983,-15.72374z" data-paper-data="{&quot;index&quot;:null}" fill="#9c0000" stroke="#d30000" stroke-width="0.1984"/></g><g><path d="M443.00448,237.06808c-0.36862,39.55889 -0.36862,39.55889 -0.36862,39.55889l-35.75635,-20.42794z" data-paper-data="{&quot;index&quot;:null}" fill="#9c0000" stroke="#d30000" stroke-width="0.27313"/><path d="M331.99552,280.33626v-49.67251h83.36239v49.67251z" data-paper-data="{&quot;index&quot;:null}" fill="#ff1515" stroke="none" stroke-width="0"/><g data-paper-data="{&quot;index&quot;:null}"><path d="M348.18464,262.61969c-4.45215,0 -8.06133,-3.60814 -8.06133,-8.05902c0,-4.45087 3.60918,-8.05902 8.06133,-8.05902c4.45215,0 8.06133,3.60814 8.06133,8.05902c0,4.45087 -3.60918,8.05902 -8.06133,8.05902z" fill="#000000" stroke="#000000" stroke-width="0.33116"/><path d="M344.72917,255.33536c-2.06206,0 -3.73368,-1.65547 -3.73368,-3.6976c0,-2.04213 1.67163,-3.6976 3.73368,-3.6976c2.06206,0 3.73368,1.65547 3.73368,3.6976c0,2.04213 -1.67163,3.6976 -3.73368,3.6976z" fill="#ffffff" stroke="#ffffff" stroke-width="0.15266"/></g><path d="M393.1929,239.71899c-0.25268,30.44914 -0.25268,30.44914 -0.25268,30.44914l-24.50983,-15.72374z" data-paper-data="{&quot;index&quot;:null}" fill="#9c0000" stroke="#d30000" stroke-width="0.1984"/></g><g><path d="M443.00448,164.06809c-0.36862,39.55889 -0.36862,39.55889 -0.36862,39.55889l-35.75635,-20.42794z" data-paper-data="{&quot;index&quot;:null}" fill="#9c0000" stroke="#d30000" stroke-width="0.27313"/><path d="M331.99552,207.33626v-49.67251h83.36239v49.67251z" data-paper-data="{&quot;index&quot;:null}" fill="#ff1515" stroke="none" stroke-width="0"/><g data-paper-data="{&quot;index&quot;:null}"><path d="M348.18464,189.61969c-4.45215,0 -8.06133,-3.60814 -8.06133,-8.05902c0,-4.45087 3.60918,-8.05902 8.06133,-8.05902c4.45215,0 8.06133,3.60814 8.06133,8.05902c0,4.45087 -3.60918,8.05902 -8.06133,8.05902z" fill="#000000" stroke="#000000" stroke-width="0.33116"/><path d="M344.72917,182.33536c-2.06206,0 -3.73368,-1.65547 -3.73368,-3.6976c0,-2.04213 1.67163,-3.6976 3.73368,-3.6976c2.06206,0 3.73368,1.65547 3.73368,3.6976c0,2.04213 -1.67163,3.6976 -3.73368,3.6976z" fill="#ffffff" stroke="#ffffff" stroke-width="0.15266"/></g><path d="M393.1929,166.71898c-0.25268,30.44914 -0.25268,30.44914 -0.25268,30.44914l-24.50983,-15.72374z" data-paper-data="{&quot;index&quot;:null}" fill="#9c0000" stroke="#d30000" stroke-width="0.1984"/></g><g><path d="M308.00448,86.06809c-0.36862,39.55889 -0.36862,39.55889 -0.36862,39.55889l-35.75635,-20.42794z" data-paper-data="{&quot;index&quot;:null}" fill="#9c0000" stroke="#d30000" stroke-width="0.27313"/><path d="M196.99552,129.33626v-49.67251h83.36239v49.67251z" data-paper-data="{&quot;index&quot;:null}" fill="#ff1515" stroke="none" stroke-width="0"/><g data-paper-data="{&quot;index&quot;:null}"><path d="M213.18464,111.61969c-4.45215,0 -8.06133,-3.60814 -8.06133,-8.05902c0,-4.45087 3.60918,-8.05902 8.06133,-8.05902c4.45215,0 8.06133,3.60814 8.06133,8.05902c0,4.45087 -3.60918,8.05902 -8.06133,8.05902z" fill="#000000" stroke="#000000" stroke-width="0.33116"/><path d="M209.72917,104.33536c-2.06206,0 -3.73368,-1.65547 -3.73368,-3.6976c0,-2.04213 1.67163,-3.6976 3.73368,-3.6976c2.06206,0 3.73368,1.65547 3.73368,3.6976c0,2.04213 -1.67163,3.6976 -3.73368,3.6976z" fill="#ffffff" stroke="#ffffff" stroke-width="0.15266"/></g><path d="M258.1929,88.71899c-0.25268,30.44914 -0.25268,30.44914 -0.25268,30.44914l-24.50983,-15.72374z" data-paper-data="{&quot;index&quot;:null}" fill="#9c0000" stroke="#d30000" stroke-width="0.1984"/></g><g><path d="M441.00448,88.06809c-0.36862,39.55889 -0.36862,39.55889 -0.36862,39.55889l-35.75635,-20.42794z" data-paper-data="{&quot;index&quot;:null}" fill="#9c0000" stroke="#d30000" stroke-width="0.27313"/><path d="M329.99552,131.33626v-49.67251h83.36239v49.67251z" data-paper-data="{&quot;index&quot;:null}" fill="#ff1515" stroke="none" stroke-width="0"/><g data-paper-data="{&quot;index&quot;:null}"><path d="M346.18464,113.61969c-4.45215,0 -8.06133,-3.60814 -8.06133,-8.05902c0,-4.45087 3.60918,-8.05902 8.06133,-8.05902c4.45215,0 8.06133,3.60814 8.06133,8.05902c0,4.45087 -3.60918,8.05902 -8.06133,8.05902z" fill="#000000" stroke="#000000" stroke-width="0.33116"/><path d="M342.72917,106.33536c-2.06206,0 -3.73368,-1.65547 -3.73368,-3.6976c0,-2.04213 1.67163,-3.6976 3.73368,-3.6976c2.06206,0 3.73368,1.65547 3.73368,3.6976c0,2.04213 -1.67163,3.6976 -3.73368,3.6976z" fill="#ffffff" stroke="#ffffff" stroke-width="0.15266"/></g><path d="M391.1929,90.71898c-0.25268,30.44914 -0.25268,30.44914 -0.25268,30.44914l-24.50983,-15.72374z" data-paper-data="{&quot;index&quot;:null}" fill="#9c0000" stroke="#d30000" stroke-width="0.1984"/></g></g></g></svg>