<svg version="1.1" xmlns="http://www.w3.org/2000/svg" xmlns:xlink="http://www.w3.org/1999/xlink" width="201.19493" height="170.15557" viewBox="0,0,201.19493,170.15557"><g transform="translate(-218.09365,-96.60508)"><g data-paper-data="{&quot;isPaintingLayer&quot;:true}" fill-rule="nonzero" stroke-linejoin="miter" stroke-miterlimit="10" stroke-dasharray="" stroke-dashoffset="0" style="mix-blend-mode: normal"><path d="M236.49059,157.80395c-6.01012,-11.9846 -2.45166,-14.92054 19.45924,-27.62773c6.0855,-3.52927 28.14639,-13.70086 28.3946,-3.65353c0.58141,23.53377 0,91.35063 0,91.35063c0,0 11.28595,-1.01763 16.28222,1.2558c6.96195,3.16786 5.34053,20.69178 -1.38995,21.34871c-19.53293,1.90649 -33.77329,0.53607 -58.17914,0.41858c-7.29142,-0.0351 -7.54172,-19.53216 -0.99282,-22.39519c5.09412,-2.22702 18.26785,-0.83721 18.26785,-0.83721l-0.19856,-58.18569c0,0 -17.48164,6.62449 -21.64344,-1.6744z" fill="#6000af" stroke="#ffffff" stroke-width="7.5" stroke-linecap="round"/><path d="M391.58157,136.34692c9.30547,11.41598 14.53318,26.89931 14.53307,43.04381c-0.00025,33.61878 -22.21557,60.87209 -49.61958,60.87229c-27.404,-0.0002 -49.61934,-27.25351 -49.61958,-60.87229c-0.00011,-16.14452 5.22758,-31.62783 14.53307,-43.04381c9.30547,-11.41598 21.92648,-17.82946 35.08652,-17.82957c13.16004,0.00009 25.78103,6.41358 35.08652,17.82957zM336.97555,179.54353c0.00013,18.66745 9.13956,33.80042 20.41371,33.80085c11.27417,-0.00044 20.41358,-15.1334 20.41371,-33.80085c0.00024,-18.66787 -9.13928,-33.8015 -20.41371,-33.80192c-11.27442,0.00044 -20.41394,15.13405 -20.41371,33.80192z" fill="#6000af" stroke="#ffffff" stroke-width="7.5" stroke-linecap="round"/><path d="M218.09365,266.76065v-170.15557h201.19493v170.15557z" fill="none" stroke="#000000" stroke-width="0" stroke-linecap="butt"/></g></g></svg>