<svg version="1.1" xmlns="http://www.w3.org/2000/svg" xmlns:xlink="http://www.w3.org/1999/xlink" width="212.86513" height="357.96863" viewBox="0,0,212.86513,357.96863"><g transform="translate(-287.87862,-140.78318)"><g data-paper-data="{&quot;isPaintingLayer&quot;:true}" fill-rule="nonzero" stroke-miterlimit="10" stroke-dasharray="" stroke-dashoffset="0" style="mix-blend-mode: normal"><path d="M323.84103,478.25434h1.654" fill="#000000" stroke="none" stroke-width="0" stroke-linecap="round" stroke-linejoin="bevel"/><path d="M500.74375,498.75181l-4.67824,-22.61149" fill="#000000" stroke="none" stroke-width="0" stroke-linecap="round" stroke-linejoin="bevel"/><path d="M359.22701,496.02284l-13.64486,-5.06809" fill="#000000" stroke="none" stroke-width="0" stroke-linecap="round" stroke-linejoin="bevel"/><path d="M325.89786,148.10263c6.09628,-7.73155 20.40653,-11.62731 27.35414,0.07401c6.94761,11.70132 6.53203,38.99937 -8.85706,49.44664c-15.38912,10.44726 -45.75171,4.04265 -53.95357,0.62381c-8.20186,-3.41884 5.757,-3.85191 7.45232,-4.69528c1.69529,-0.84337 -8.87297,-2.09705 -6.55961,-4.59596c2.31339,-2.49891 17.50841,-6.24302 24.04696,-13.8987c6.53854,-7.65569 4.42053,-19.22295 10.51682,-26.9545z" fill="#0000ff" stroke="#dacc2e" stroke-width="0" stroke-linecap="round" stroke-linejoin="bevel"/><path d="M356.87752,154.52949h22.84388" fill="#000000" stroke="#dacc2e" stroke-width="0" stroke-linecap="round" stroke-linejoin="bevel"/><path d="M353.22828,148.45494l21.5342,4.21465l-18.44045,11.98717" fill="#000000" stroke="#dacc2e" stroke-width="0" stroke-linecap="round" stroke-linejoin="bevel"/><path d="M327.65857,152.93573c0,-4.69446 4.34075,-8.50004 9.69538,-8.50004c5.3546,0 9.69538,3.80558 9.69538,8.50004c0,4.69446 -4.34075,8.50006 -9.69538,8.50006c-5.3546,0 -9.69538,-3.80561 -9.69538,-8.50006z" fill="#ffffff" stroke="#dacc2e" stroke-width="0" stroke-linecap="round" stroke-linejoin="bevel"/><path d="M332.85544,149.23229c2.41225,-2.1776 7.33925,-2.27435 9.85417,-0.14519c2.51495,2.12919 2.6176,6.48426 0.20535,8.66189c-2.41225,2.17763 -7.33925,2.1776 -9.85417,0.04841c-2.51495,-2.12919 -2.6176,-6.38756 -0.20535,-8.56514z" fill="#000000" stroke="#dacc2e" stroke-width="0" stroke-linecap="round" stroke-linejoin="bevel"/><path d="M345.18995,152.40447l-6.37505,-0.58717l4.66466,-3.1316" fill="#f9f9f9" stroke="#dacc2e" stroke-width="0" stroke-linecap="round" stroke-linejoin="bevel"/><path d="M315.34592,209.93767v0v0z" fill="#dacc2e" stroke="none" stroke-width="0.26459" stroke-linecap="butt" stroke-linejoin="miter"/><path d="M320.84867,201.51963c0.82151,1.54413 1.57385,3.61332 1.99219,6.56759c0.02938,0.20748 0.05776,0.42375 0.0849,0.64959c0.33516,2.78872 0.30884,5.96438 0.30884,7.21131h-2.25393c0,-1.2904 0.02287,-4.31619 -0.29277,-6.94239c-0.02524,-0.21008 -0.05161,-0.41066 -0.07875,-0.60252c-0.38453,-2.71551 -1.06162,-4.53039 -1.75035,-5.82496z" fill="#000000" stroke="none" stroke-width="0" stroke-linecap="round" stroke-linejoin="bevel"/><path d="M330.8873,199.10491c0.63898,0.82486 1.56175,2.17011 2.28478,4.06761c0.51856,1.36088 0.84726,2.7685 1.04841,4.23291c0.28713,2.08953 0.29373,4.28807 0.29563,5.37673c0,0.45385 -0.01185,3.61981 -0.01185,3.16596h-2.25393c0.00077,0.43338 0.01259,-2.72864 0.01185,-3.16202c-0.00193,-1.09953 -0.01107,-3.15499 -0.27467,-5.07396c-0.1825,-1.32874 -0.47512,-2.56519 -0.92166,-3.73705c-0.62031,-1.6279 -1.40963,-2.77885 -1.96044,-3.48991z" fill="#000000" stroke="none" stroke-width="0" stroke-linecap="round" stroke-linejoin="bevel"/><path d="M321.97346,216.02239c-0.10651,0.18425 -0.30846,0.51983 -0.66239,1.01503c-0.11915,0.16669 -0.27073,0.37291 -0.46688,0.62863c-0.39588,0.51602 -0.7947,1.00298 -1.32689,1.65185c-0.46459,0.56646 -0.87358,1.06749 -1.22803,1.53836c-0.19643,0.26094 -0.35192,0.48076 -0.47793,0.6721c-0.1774,0.26924 -0.27544,0.45032 -0.33073,0.56106l-1.42552,-0.71276c0.08413,-0.16824 0.21389,-0.40418 0.42539,-0.72517c0.14825,-0.22499 0.3238,-0.47257 0.53543,-0.7537c0.37762,-0.50167 0.80758,-1.02788 1.26905,-1.59056c0.53456,-0.65178 0.9171,-1.11912 1.29475,-1.61132c0.18526,-0.24147 0.32612,-0.43327 0.43472,-0.58521c0.32022,-0.44806 0.49472,-0.73982 0.57916,-0.88584z" fill="#000000" stroke="none" stroke-width="0" stroke-linecap="round" stroke-linejoin="bevel"/><path d="M321.44323,215.21559c0.34688,0.21892 0.84767,0.59046 1.44818,1.24652c0.45375,0.4957 0.85414,1.03288 1.18914,1.5284c0.05179,0.07648 0.1012,0.15091 0.14807,0.2225c0.28299,0.43237 0.54944,0.87896 0.79921,1.3264c0.33387,0.59814 0.60728,1.14616 0.68721,1.30608l-1.42549,0.71276c-0.07906,-0.15812 -0.33859,-0.67812 -0.65335,-1.24206c-0.23488,-0.42081 -0.48205,-0.83462 -0.74106,-1.23035c-0.04283,-0.06567 -0.08787,-0.13339 -0.13491,-0.20292c-0.30676,-0.45375 -0.65914,-0.92403 -1.04442,-1.34492c-0.49966,-0.54586 -0.88967,-0.82756 -1.12322,-0.97486z" fill="#000000" stroke="none" stroke-width="0" stroke-linecap="round" stroke-linejoin="bevel"/><path d="M334.24751,214.59036c0.36423,0.10149 0.85651,0.28961 1.43677,0.69043c0.26936,0.18606 0.51208,0.38594 0.72566,0.57522c0.11902,0.10553 0.23947,0.21704 0.3691,0.34065c0.30323,0.28924 0.61555,0.60602 0.87999,0.84474c0.36635,0.33081 0.57988,0.45802 0.71536,0.52575l-0.71276,1.42552c-0.28682,-0.14341 -0.61779,-0.35957 -1.07048,-0.76815c-0.31592,-0.28518 -0.63321,-0.60854 -0.91213,-0.87458c-0.11915,-0.11375 -0.22499,-0.2116 -0.3262,-0.30122c-0.1831,-0.16226 -0.37402,-0.31829 -0.57434,-0.45658c-0.41525,-0.28675 -0.74111,-0.40572 -0.95874,-0.46649z" fill="#000000" stroke="none" stroke-width="0" stroke-linecap="round" stroke-linejoin="bevel"/><path d="M333.76723,215.12703c-0.01978,0.45442 -0.10205,1.11016 -0.42766,1.88462c-0.13208,0.31415 -0.28466,0.60267 -0.44175,0.86634c-0.12042,0.20215 -0.25608,0.4109 -0.41509,0.6388c-0.30001,0.43006 -0.65011,0.87757 -0.94496,1.28195c-0.42225,0.57911 -0.62999,0.93654 -0.77583,1.22818l-1.42549,-0.71276c0.19195,-0.38391 0.44862,-0.81682 0.91355,-1.45441c0.31755,-0.43549 0.65904,-0.87273 0.92562,-1.25484c0.14102,-0.20213 0.25525,-0.37855 0.35298,-0.54259c0.12796,-0.21485 0.24433,-0.43662 0.34178,-0.66839c0.23429,-0.55724 0.29069,-1.01722 0.30459,-1.33619z" fill="#000000" stroke="none" stroke-width="0" stroke-linecap="round" stroke-linejoin="bevel"/><path d="M323.65611,196.25552c-3.50307,0.11807 -3.50307,0.1181 -3.50307,-4.05409c0,-4.17218 0,-12.5164 3.4637,-16.49183c3.4637,-3.97546 10.39094,-3.58187 13.89407,0.47224c3.50312,4.05411 3.58185,11.76854 0.11815,15.74398c-3.4637,3.97546 -10.46979,4.21161 -13.97284,4.32971z" fill="#000080" stroke="#dacc2e" stroke-width="0" stroke-linecap="round" stroke-linejoin="bevel"/></g></g></svg>