<svg version="1.1" xmlns="http://www.w3.org/2000/svg" xmlns:xlink="http://www.w3.org/1999/xlink" width="203.84866" height="194.40488" viewBox="0,0,203.84866,194.40488"><g transform="translate(-218.86702,-72.24444)"><g data-paper-data="{&quot;isPaintingLayer&quot;:true}" fill-rule="nonzero" stroke-miterlimit="10" stroke-dasharray="" stroke-dashoffset="0" style="mix-blend-mode: normal"><path d="M241.05495,188.45421c0,-43.18597 35.61795,-78.1951 79.55492,-78.1951c43.93696,0 79.55491,35.00914 79.55491,78.1951c0,43.18597 -35.61795,78.19511 -79.55491,78.19511c-43.93696,0 -79.55492,-35.00914 -79.55492,-78.19511z" fill="#0000ff" stroke="none" stroke-width="6.11847" stroke-linecap="butt" stroke-linejoin="miter"/><path d="M264.8664,87.86713c11.15616,4.90828 22.31211,9.81646 31.60903,7.21272c9.29692,-2.60374 16.73435,-12.71957 24.1718,-22.83541c6.94629,10.11584 13.89245,20.23148 23.06079,22.17465c9.16834,1.94317 20.5586,-4.28653 26.37623,-6.95462c5.81764,-2.6681 6.06267,-1.77462 5.41938,3.88428c-0.64328,5.6589 -2.17482,16.0825 -3.19125,23.39824c-1.01643,7.31574 -1.51767,11.52295 -2.01892,15.73017c-1.09017,1.26426 -2.1803,2.52849 -6.11771,3.72453c-3.93741,1.19604 -10.72162,2.32376 -18.08269,3.14953c-7.36107,0.82577 -15.29812,1.3495 -22.93305,1.40188c-7.63493,0.05238 -14.96684,-0.3666 -21.36943,-0.82302c-6.40259,-0.45641 -11.87532,-0.95022 -16.708,-1.79946c-4.83268,-0.84924 -9.02485,-2.05381 -11.33594,-3.03399c-2.31109,-0.98018 -2.74084,-1.73586 -3.1706,-2.49156z" fill="#fcc800" stroke="none" stroke-width="0" stroke-linecap="round" stroke-linejoin="bevel"/><g><g stroke="#ff8e00" stroke-width="0" stroke-linecap="round" stroke-linejoin="bevel"><path d="M261.44325,174.27289c0,-13.4107 11.06124,-24.28221 24.70598,-24.28221c13.64474,0 24.70597,10.87151 24.70597,24.28221c0,13.4107 -11.06123,24.28222 -24.70597,24.28222c-13.64474,0 -24.70598,-10.87152 -24.70598,-24.28222z" fill="#000000"/><path d="M283.961,166.94981c0,-6.44339 5.409,-11.66678 12.08135,-11.66678c6.67235,0 12.08136,5.22339 12.08136,11.66678c0,6.44339 -5.40901,11.66678 -12.08136,11.66678c-6.67235,0 -12.08135,-5.22339 -12.08135,-11.66678z" fill="#f9f9f9"/></g><g stroke="#ff8e00" stroke-width="0" stroke-linecap="round" stroke-linejoin="bevel"><path d="M356.20392,198.55511c-13.40304,0 -24.26835,-10.87152 -24.26835,-24.28222c0,-13.4107 10.86531,-24.28221 24.26835,-24.28221c13.40304,0 24.26835,10.87151 24.26835,24.28221c0,13.4107 -10.86531,24.28222 -24.26835,24.28222z" fill="#000000"/><path d="M346.48602,178.61659c-6.55416,0 -11.86735,-5.22339 -11.86735,-11.66678c0,-6.44339 5.31319,-11.66678 11.86735,-11.66678c6.55416,0 11.86736,5.22339 11.86736,11.66678c0,6.44339 -5.3132,11.66678 -11.86736,11.66678z" fill="#f9f9f9"/></g><path d="M246.38623,262.03685c-27.5192,-20.60701 -27.5192,-20.60701 -27.5192,-20.60701l33.11693,-14.9999z" fill="#000080" stroke="none" stroke-width="0.12463" stroke-linecap="butt" stroke-linejoin="miter"/><path d="M246.38623,262.03685c-27.5192,-20.60701 -27.5192,-20.60701 -27.5192,-20.60701l33.11693,-14.9999z" fill="#000080" stroke="none" stroke-width="0.12463" stroke-linecap="butt" stroke-linejoin="miter"/><path d="M389.59875,226.42995l33.11693,14.9999c0,0 0,0 -27.5192,20.60701z" fill="#000080" stroke="none" stroke-width="0.12463" stroke-linecap="butt" stroke-linejoin="miter"/><path d="M340.51637,229.55818c-1.20248,0.73741 -2.57694,1.53471 -4.07055,2.29961c-3.44349,-1.82834 -7.94813,-2.8433 -12.62352,-2.84425c-4.78958,0.00663 -9.39159,1.07707 -12.85451,2.98998c-2.09333,-1.05123 -3.97385,-2.18265 -5.49786,-3.15846c-4.14625,-2.6548 -5.68503,-4.14894 -7.22385,-5.64308c8.46849,0.65279 16.93705,1.3065 25.4248,1.29813c8.48775,-0.00742 16.9941,-0.67522 25.50077,-1.34308c-2.15681,1.86967 -4.31374,3.73884 -8.65528,6.40114z" fill="#000000" stroke="none" stroke-width="0" stroke-linecap="round" stroke-linejoin="bevel"/><path d="M323.00943,235.4953c-4.19932,-0.11392 -8.4398,-1.68301 -12.04165,-3.49177c3.46292,-1.91291 8.06494,-2.98335 12.85451,-2.98998c4.67539,0.00095 9.18003,1.01591 12.62352,2.84425c-3.89905,1.99674 -8.63555,3.76781 -13.43639,3.63751z" fill="#ffaaaa" stroke="none" stroke-width="2.23224" stroke-linecap="butt" stroke-linejoin="miter"/></g></g></g></svg>