<svg version="1.1" xmlns="http://www.w3.org/2000/svg" xmlns:xlink="http://www.w3.org/1999/xlink" width="221.38922" height="155.94477" viewBox="0,0,221.38922,155.94477"><g transform="translate(-206.87461,-99.97079)"><g data-paper-data="{&quot;isPaintingLayer&quot;:true}" fill-rule="nonzero" stroke="#ffffff" stroke-linejoin="miter" stroke-miterlimit="10" stroke-dasharray="" stroke-dashoffset="0" style="mix-blend-mode: normal"><path d="M248.35035,130.80224c11.65553,-9.77263 31.47664,-8.92539 44.29358,-1.01993c10.10052,6.22998 17.69283,20.31994 17.036,32.84141c-1.02582,19.55547 -31.80051,47.73222 -31.80051,47.73222c0,0 21.45787,-2.02271 30.66478,2.85577c4.00861,2.12403 6.04076,19.52025 0.75716,19.99042c-16.91695,1.50536 -65.62853,2.17905 -68.14399,-2.85577c-12.42949,-24.87804 38.22585,-46.3203 40.31852,-72.0063c0.44655,-5.48102 -3.09858,-15.76527 -9.65372,-9.99521c-6.31946,5.56261 -5.30904,19.13646 -12.87164,22.43822c-6.21231,2.71222 -16.12622,0.93988 -19.49677,-5.30358c-5.59618,-10.36615 0.11322,-27.31283 8.89658,-34.67725z" fill="#ff9400" stroke-width="7.5" stroke-linecap="butt"/><path d="M206.87461,255.91556v-155.94477h221.38922v155.94477z" fill="none" stroke-width="0" stroke-linecap="butt"/><path d="M401.70908,139.23045c8.68208,10.65121 13.55958,25.09729 13.55948,40.16024c-0.00023,31.36661 -20.72732,56.79418 -46.29549,56.79437c-25.56817,-0.00019 -46.29527,-25.42776 -46.29549,-56.79437c-0.0001,-15.06297 4.87738,-29.50904 13.55948,-40.16024c8.68208,-10.65121 20.45759,-16.63504 32.73602,-16.63514c12.27843,0.00008 24.05392,5.98392 32.73602,16.63514zM350.7612,179.53325c0.00012,17.41689 8.52729,31.53608 19.04617,31.53648c10.5189,-0.00041 19.04604,-14.11959 19.04617,-31.53648c0.00022,-17.41728 -8.52703,-31.53709 -19.04617,-31.53748c-10.51913,0.00041 -19.04638,14.1202 -19.04617,31.53748z" fill="#ff9400" stroke-width="7.5" stroke-linecap="round"/></g></g></svg>