<svg version="1.1" xmlns="http://www.w3.org/2000/svg" xmlns:xlink="http://www.w3.org/1999/xlink" width="251.25669" height="297.73512" viewBox="0,0,251.25669,297.73512"><g transform="translate(-194.37165,-31.00745)"><g data-paper-data="{&quot;isPaintingLayer&quot;:true}" fill-rule="nonzero" stroke-miterlimit="10" stroke-dasharray="" stroke-dashoffset="0" style="mix-blend-mode: normal"><path d="M291.31277,326.47621c-26.05933,-6.05225 -55.55289,-69.8232 -28.83072,-71.10526c59.376,-2.84872 66.16545,-10.19321 68.73248,13.54022c1.89263,17.49832 -19.44615,62.31585 -39.90177,57.56504z" fill="#5a6d28" stroke="#1ce652" stroke-width="0" stroke-linecap="round" stroke-linejoin="bevel"/><path d="M396.95873,47.56681c42.88523,27.90476 53.45902,91.3476 46.40965,138.93227c-7.04937,47.58467 -31.72208,79.30671 -80.18755,92.81854c-48.46546,13.51183 -120.72124,8.81227 -151.26962,-34.95417c-30.54838,-43.76642 -19.38691,-126.59622 23.79118,-171.83042c43.17809,-45.23419 118.37111,-52.871 161.25634,-24.96622z" fill="#dcff82" stroke="#1ce652" stroke-width="0.5" stroke-linecap="round" stroke-linejoin="bevel"/><path d="M355.95454,328.39209c-26.05933,-6.05225 -55.55288,-69.82321 -28.83071,-71.10526c59.376,-2.84872 66.16545,-10.19321 68.73248,13.54021c1.89263,17.49832 -19.44615,62.31586 -39.90177,57.56505z" fill="#8caa3f" stroke="#1ce652" stroke-width="0" stroke-linecap="round" stroke-linejoin="bevel"/><path d="M366.51205,126.52332c-0.02912,10.3793 -5.42296,20.24734 -14.80797,27.0911c13.89158,7.45722 22.22015,19.92602 22.22152,33.26808c0.00004,22.15963 -22.55569,40.12367 -50.37983,40.12389c-13.36184,0.00014 -26.17648,-4.2271 -35.62477,-11.75182c-9.44829,-7.52472 -14.75631,-17.73047 -14.75627,-28.37207c0.02856,-13.1267 8.11768,-25.41222 21.65924,-32.89557c-9.66952,-6.85988 -15.24378,-16.89487 -15.25567,-27.46363c0.00052,-19.96235 19.46299,-36.14487 43.47128,-36.14521c24.00872,-0.0002 43.47193,16.18248 43.47247,36.14521zM309.56033,132.05816c-0.00004,7.35469 6.48748,13.31692 14.49041,13.31706c3.84333,0.00022 7.52936,-1.40272 10.2471,-3.90016c2.71773,-2.49746 4.24453,-5.88483 4.24453,-9.41688c0.00002,-3.53205 -1.5268,-6.91942 -4.24453,-9.41686c-2.71773,-2.49746 -6.40376,-3.90038 -10.2471,-3.90014c-8.00293,0.00014 -14.49047,5.96233 -14.49041,13.317zM306.86469,181.17425c-0.0002,4.35757 1.9169,8.53671 5.32953,11.61805c3.41266,3.08136 8.04127,4.81251 12.86764,4.81259c4.82637,-0.00012 9.45499,-1.73125 12.86764,-4.81259c3.41266,-3.08136 5.32975,-7.26049 5.32955,-11.61805c-0.00038,-9.07365 -8.14736,-16.42922 -18.1972,-16.42942c-10.04986,0.0002 -18.1968,7.35575 -18.19718,16.42942z" fill="#a6a5e7" stroke="#ffffff" stroke-width="7.5" stroke-linecap="butt" stroke-linejoin="miter"/></g></g></svg>