<svg version="1.1" xmlns="http://www.w3.org/2000/svg" xmlns:xlink="http://www.w3.org/1999/xlink" width="688.18769" height="425.42493" viewBox="0,0,688.18769,425.42493"><g transform="translate(23.34309,31.9617)"><g data-paper-data="{&quot;isPaintingLayer&quot;:true}" fill-rule="nonzero" stroke="#ffffff" stroke-linecap="butt" stroke-linejoin="miter" stroke-miterlimit="10" stroke-dasharray="" stroke-dashoffset="0" style="mix-blend-mode: normal"><path d="M-23.09309,393.21322v-424.92492h687.68769v424.92493z" fill-opacity="0.22745" fill="#000000" stroke-width="0.5"/><path d="M357.37543,113.78168c9.90062,18.82046 -1.12786,53.66061 4.21355,75.78077c1.3932,2.81939 12.95731,-1.3897 16.27656,-0.27383c8.66137,2.91187 10.02585,23.50347 2.81249,31.36407c-4.883,5.32112 -22.09703,0.77362 -22.09703,0.77362c0,0 3.76341,24.16391 -4.42081,30.97726c-7.99973,6.6598 -23.72287,6.39087 -31.71158,-0.2812c-7.84452,-6.55161 0.76692,-30.09881 -4.71261,-29.66727c-23.88071,1.88066 -37.79105,-1.00138 -46.72771,-1.72012c-54.15054,-4.35509 41.90415,-118.46626 62.93726,-117.99809c10.28834,0.22901 19.21659,3.03554 23.4299,11.0448zM289.07176,191.61181l35.75948,1.16045c2.38296,-51.17114 1.47744,-32.96771 2.40968,-52.27297l-0.0187,0.02654c0,-0.01819 0.0187,-0.39974 0.0187,-0.41288z" fill="#c962c4" stroke-width="7.5"/></g></g></svg>