<svg version="1.1" xmlns="http://www.w3.org/2000/svg" xmlns:xlink="http://www.w3.org/1999/xlink" width="251.25669" height="297.73512" viewBox="0,0,251.25669,297.73512"><g transform="translate(-194.37166,-31.00745)"><g data-paper-data="{&quot;isPaintingLayer&quot;:true}" fill-rule="nonzero" stroke-linecap="round" stroke-miterlimit="10" stroke-dasharray="" stroke-dashoffset="0" style="mix-blend-mode: normal"><path d="M291.31277,326.47621c-26.05933,-6.05225 -55.55289,-69.8232 -28.83072,-71.10526c59.376,-2.84872 66.16545,-10.19321 68.73248,13.54022c1.89263,17.49832 -19.44615,62.31585 -39.90177,57.56504z" fill="#5a6d28" stroke="#1ce652" stroke-width="0" stroke-linejoin="bevel"/><path d="M396.95873,47.56681c42.88523,27.90476 53.45902,91.3476 46.40965,138.93227c-7.04937,47.58467 -31.72208,79.30671 -80.18755,92.81854c-48.46546,13.51183 -120.72124,8.81227 -151.26962,-34.95417c-30.54838,-43.76642 -19.38691,-126.59622 23.79118,-171.83042c43.17809,-45.23419 118.37111,-52.871 161.25634,-24.96622z" fill="#dcff82" stroke="#1ce652" stroke-width="0.5" stroke-linejoin="bevel"/><path d="M355.95454,328.39209c-26.05933,-6.05225 -55.55288,-69.82321 -28.83071,-71.10526c59.376,-2.84872 66.16545,-10.19321 68.73248,13.54021c1.89263,17.49832 -19.44615,62.31586 -39.90177,57.56505z" fill="#8caa3f" stroke="#1ce652" stroke-width="0" stroke-linejoin="bevel"/><path d="M363.94229,105.74221c10.8561,13.31829 16.95492,31.38169 16.9548,50.21644c-0.0003,39.22086 -25.91748,71.01554 -57.88796,71.01577c-31.97048,-0.00023 -57.88768,-31.79491 -57.88796,-71.01577c-0.00013,-18.83477 6.09868,-36.89815 16.9548,-50.21644c10.8561,-13.31829 25.58021,-20.80048 40.93318,-20.8006c15.35297,0.00011 30.07706,7.48231 40.93318,20.8006zM300.23696,156.13691c0.00015,21.77811 10.66253,39.43276 23.81535,39.43327c13.15284,-0.00051 23.81521,-17.65516 23.81535,-39.43327c0.00028,-21.7786 -10.66221,-39.43403 -23.81535,-39.43452c-13.15314,0.00051 -23.81563,17.65592 -23.81535,39.43452z" fill="#00a2d6" stroke="#ffffff" stroke-width="7.5" stroke-linejoin="miter"/></g></g></svg>