<svg version="1.1" xmlns="http://www.w3.org/2000/svg" xmlns:xlink="http://www.w3.org/1999/xlink" width="221.38922" height="155.94477" viewBox="0,0,221.38922,155.94477"><g transform="translate(-206.87461,-99.97079)"><g data-paper-data="{&quot;isPaintingLayer&quot;:true}" fill-rule="nonzero" stroke="#ffffff" stroke-linejoin="miter" stroke-miterlimit="10" stroke-dasharray="" stroke-dashoffset="0" style="mix-blend-mode: normal"><path d="M243.32191,155.9218c-6.01012,-11.9846 -2.45166,-14.92054 19.45924,-27.62773c6.0855,-3.52927 28.14639,-13.70086 28.3946,-3.65353c0.58141,23.53377 0,91.35063 0,91.35063c0,0 11.28595,-1.01763 16.28222,1.2558c6.96195,3.16786 5.34053,20.69178 -1.38995,21.34871c-19.53293,1.90649 -33.77329,0.53607 -58.17914,0.41858c-7.29142,-0.0351 -7.54172,-19.53216 -0.99282,-22.39519c5.09412,-2.22702 18.26785,-0.83721 18.26785,-0.83721l-0.19856,-58.18569c0,0 -17.48164,6.62449 -21.64344,-1.6744z" fill="#ff2157" stroke-width="7.5" stroke-linecap="round"/><path d="M335.00703,131.82173c11.65553,-9.77263 31.47664,-8.92539 44.29358,-1.01993c10.10052,6.22998 17.69283,20.31994 17.036,32.84141c-1.02582,19.55547 -31.80051,47.73222 -31.80051,47.73222c0,0 21.45787,-2.02271 30.66478,2.85577c4.00861,2.12403 6.04076,19.52025 0.75716,19.99042c-16.91695,1.50536 -65.62853,2.17905 -68.14399,-2.85577c-12.42949,-24.87804 38.22585,-46.3203 40.31852,-72.0063c0.44655,-5.48102 -3.09858,-15.76527 -9.65372,-9.99521c-6.31946,5.56261 -5.30904,19.13646 -12.87164,22.43822c-6.21231,2.71222 -16.12622,0.93988 -19.49677,-5.30358c-5.59618,-10.36615 0.11322,-27.31283 8.89658,-34.67725z" fill="#ff2157" stroke-width="7.5" stroke-linecap="butt"/><path d="M206.87461,255.91556v-155.94477h221.38922v155.94477z" fill="none" stroke-width="0" stroke-linecap="butt"/></g></g></svg>