<svg version="1.1" xmlns="http://www.w3.org/2000/svg" xmlns:xlink="http://www.w3.org/1999/xlink" width="320.42712" height="323.5" viewBox="0,0,320.42712,323.5"><g transform="translate(-159.78644,-18.25)"><g data-paper-data="{&quot;isPaintingLayer&quot;:true}" fill-rule="nonzero" stroke-miterlimit="10" stroke-dasharray="" stroke-dashoffset="0" style="mix-blend-mode: normal"><path d="M466.96356,180c0,82.01429 -65.79783,148.5 -146.96356,148.5c-81.16573,0 -146.96356,-66.48571 -146.96356,-148.5c0,-82.01429 65.79783,-148.5 146.96356,-148.5c81.16573,0 146.96356,66.48571 146.96356,148.5z" fill="#60a040" stroke="#29441b" stroke-width="26.5" stroke-linecap="butt" stroke-linejoin="miter"/><path d="M230.12084,200.18787c0,-46.76658 40.24027,-84.67838 89.87916,-84.67838c49.63889,0 89.87916,37.9118 89.87916,84.67838c0,46.76658 -40.24027,84.67838 -89.87916,84.67838c-49.63889,0 -89.87916,-37.9118 -89.87916,-84.67838z" fill="#dcff82" stroke="none" stroke-width="12.6164" stroke-linecap="round" stroke-linejoin="miter"/><path d="M245.48749,108.86391c-10.27287,-10.02839 14.99662,-41.52699 28.78157,-31.93509c20.70009,14.4036 18.99019,71.90812 18.99019,71.90812c0,0 -14.25396,4.64334 -13.39422,0.76858c4.38258,-19.75195 2.33892,-45.02756 -12.22008,-59.45409c-10.536,-10.44013 -15.25386,25.4518 -22.15746,18.7125z" fill="#3d6c2c" stroke="none" stroke-width="13.6911" stroke-linecap="round" stroke-linejoin="miter"/><path d="M270.96989,161.22078c0,0 16.06574,17.028 0,0z" fill="#000000" stroke="#000000" stroke-width="1.79985" stroke-linecap="butt" stroke-linejoin="miter"/><path d="M266.63599,162.57513c0,0 16.06574,17.028 0,0z" fill="#000000" stroke="#000000" stroke-width="1.79985" stroke-linecap="butt" stroke-linejoin="miter"/><path d="M373.16553,90.15137c-14.559,14.42653 -11.88534,44.82486 -12.22008,59.45409c-0.1023,4.47092 -13.39422,-0.76858 -13.39422,-0.76858c0,0 -1.7099,-57.50451 18.99019,-71.90811c13.78494,-9.59189 39.05444,21.9067 28.78157,31.93509c-6.9036,6.7393 -11.62147,-29.15263 -22.15746,-18.7125z" fill="#3d6c2c" stroke="none" stroke-width="13.6911" stroke-linecap="round" stroke-linejoin="miter"/><path d="M261.9428,191.81921c0,-15.70769 12.12723,-28.44129 27.08694,-28.44129c14.9597,0 27.08694,12.7336 27.08694,28.44129c0,15.70769 -12.12723,28.44129 -27.08694,28.44129c-14.9597,0 -27.08694,-12.7336 -27.08694,-28.44129z" fill="#ffffff" stroke="none" stroke-width="11.3386" stroke-linecap="round" stroke-linejoin="miter"/><path d="M371.27632,162.97078c0,0 -16.06574,17.028 0,0z" data-paper-data="{&quot;index&quot;:null}" fill="#000000" stroke="#000000" stroke-width="1.79985" stroke-linecap="butt" stroke-linejoin="miter"/><path d="M376.11022,164.32513c0,0 -16.06574,17.028 0,0z" data-paper-data="{&quot;index&quot;:null}" fill="#000000" stroke="#000000" stroke-width="1.79985" stroke-linecap="butt" stroke-linejoin="miter"/><path d="M324.24491,191.81921c0,-15.70769 12.12723,-28.44129 27.08694,-28.44129c14.9597,0 27.08694,12.7336 27.08694,28.44129c0,15.70769 -12.12723,28.44129 -27.08694,28.44129c-14.9597,0 -27.08694,-12.7336 -27.08694,-28.44129z" fill="#f9f9f9" stroke="none" stroke-width="11.3386" stroke-linecap="round" stroke-linejoin="miter"/><path d="M272.77492,192.06628c0,-9.96998 8.06976,-18.05224 18.02432,-18.05224c9.95457,0 18.02434,8.08226 18.02434,18.05224c0,9.96998 -8.06977,18.05225 -18.02434,18.05225c-9.95457,0 -18.02432,-8.08227 -18.02432,-18.05225z" fill="#000000" stroke="#1ce652" stroke-width="0.41802" stroke-linecap="round" stroke-linejoin="bevel"/><path d="M286.95796,187.72451c0,-5.50881 4.08575,-9.97459 9.12575,-9.97459c5.04001,0 9.12576,4.46578 9.12576,9.97459c0,5.50881 -4.08575,9.97459 -9.12576,9.97459c-5.04001,0 -9.12575,-4.46578 -9.12575,-9.97459z" fill="#ffffff" stroke="#1ce652" stroke-width="0" stroke-linecap="round" stroke-linejoin="bevel"/><path d="M332.99521,192.06628c0,-9.96998 8.06976,-18.05224 18.02432,-18.05224c9.95457,0 18.02434,8.08226 18.02434,18.05224c0,9.96998 -8.06977,18.05225 -18.02434,18.05225c-9.95457,0 -18.02432,-8.08227 -18.02432,-18.05225z" fill="#000000" stroke="#1ce652" stroke-width="0.41802" stroke-linecap="round" stroke-linejoin="bevel"/><path d="M347.17825,187.72451c0,-5.50881 4.08575,-9.97459 9.12575,-9.97459c5.04001,0 9.12576,4.46578 9.12576,9.97459c0,5.50881 -4.08575,9.97459 -9.12576,9.97459c-5.04001,0 -9.12575,-4.46578 -9.12575,-9.97459z" fill="#ffffff" stroke="#1ce652" stroke-width="0" stroke-linecap="round" stroke-linejoin="bevel"/><path d="M252.9191,230.8161c0,-4.83228 5.59271,-8.74961 12.49167,-8.74961c6.89895,0 12.49167,3.91733 12.49167,8.74961c0,4.83228 -5.59271,8.74961 -12.49167,8.74961c-6.89895,0 -12.49167,-3.91733 -12.49167,-8.74961z" fill="#e8abab" stroke="none" stroke-width="15.7952" stroke-linecap="round" stroke-linejoin="miter"/><path d="M363.10919,230.8161c0,-4.83228 5.59271,-8.74961 12.49167,-8.74961c6.89895,0 12.49167,3.91733 12.49167,8.74961c0,4.83228 -5.59271,8.74961 -12.49167,8.74961c-6.89895,0 -12.49167,-3.91733 -12.49167,-8.74961z" fill="#e8abab" stroke="none" stroke-width="15.7952" stroke-linecap="round" stroke-linejoin="miter"/><path d="M337.37999,230.7567c-1.53199,7.82786 -4.96749,15.31509 -16.1489,15.23456c-1.36286,0 -1.63295,0.03881 -2.92218,-0.13028c-8.6298,-1.13183 -17.22548,-7.14582 -17.22548,-15.03925" fill="#000000" stroke="none" stroke-width="23.695" stroke-linecap="round" stroke-linejoin="miter"/></g></g></svg>