<svg version="1.1" xmlns="http://www.w3.org/2000/svg" xmlns:xlink="http://www.w3.org/1999/xlink" width="37.06958" height="67.51377" viewBox="0,0,37.06958,67.51377"><g transform="translate(-265.83417,-154.55126)"><g data-paper-data="{&quot;isPaintingLayer&quot;:true}" fill-rule="nonzero" stroke-linecap="butt" stroke-linejoin="miter" stroke-miterlimit="10" stroke-dasharray="" stroke-dashoffset="0" style="mix-blend-mode: normal"><g><path d="M284.48481,190.94437c-1.52713,-1.8786 -1.56252,-4.34312 -0.07905,-5.50466c1.48347,-1.16154 3.92405,-0.58024 5.45118,1.29836c1.52713,1.8786 1.56252,4.34312 0.07905,5.50466c-1.48347,1.16154 -3.92405,0.58024 -5.45118,-1.29836z" fill="#82d22d" stroke="#82d22d" stroke-width="0.29894"/><path d="M278.47663,192.63152c-1.48347,-1.16154 -1.44809,-3.62605 0.07905,-5.50466c1.52713,-1.8786 3.96771,-2.45989 5.45118,-1.29836c1.48347,1.16154 1.44809,3.62605 -0.07905,5.50466c-1.52713,1.8786 -3.96771,2.45989 -5.45118,1.29836z" fill="#82d22d" stroke="#82d22d" stroke-width="0.29894"/><path d="M286.40147,221.31621c0.07332,1.51809 -6.00212,-0.22867 -5.58615,-0.9742c3.14874,-5.64339 5.39311,-30.28711 -0.72622,-38.65784c-1.25373,-1.715 3.21477,-2.21591 3.35662,-1.9564c5.76613,10.54918 2.87696,39.95673 2.95576,41.58844z" fill="#82d22d" stroke="#82d22d" stroke-width="0.29531"/><path d="M275.40354,165.70994c0,-6.07593 4.2017,-11.00145 9.38476,-11.00145c5.18306,0 9.38476,4.92552 9.38476,11.00145c0,6.07593 -4.2017,11.00145 -9.38476,11.00145c-5.18306,0 -9.38476,-4.92552 -9.38476,-11.00145z" fill-opacity="0.95294" fill="#e62eff" stroke-opacity="0.95294" stroke="#b783d3" stroke-width="0.31445"/><path d="M286.01854,170.5644c3.6897,4.15464 0.8748,14.33171 -2.28513,16.55735c-15.85908,11.17013 -31.3063,-47.93085 2.28513,-16.55735z" fill-opacity="0.95294" fill="#e65dff" stroke-opacity="0.95294" stroke="#e55eff" stroke-width="0.36502"/><path d="M285.0045,187.12175c-3.15993,-2.22565 -5.97483,-12.40271 -2.28513,-16.55735c33.59144,-31.3735 18.14422,27.72748 2.28513,16.55735z" fill-opacity="0.95294" fill="#e55eff" stroke-opacity="0.95294" stroke="#e65dff" stroke-width="0.36502"/></g></g></g></svg>