<svg version="1.1" xmlns="http://www.w3.org/2000/svg" xmlns:xlink="http://www.w3.org/1999/xlink" width="77.8967" height="93.98568" viewBox="0,0,77.8967,93.98568"><g transform="translate(-260.00001,-115.75)"><g data-paper-data="{&quot;isPaintingLayer&quot;:true}" fill-rule="nonzero" stroke-linecap="butt" stroke-linejoin="miter" stroke-miterlimit="10" stroke-dasharray="" stroke-dashoffset="0" style="mix-blend-mode: normal"><path d="M319.99976,149.73568v20.63975c1.74074,-0.89966 3.67642,-1.37451 5.64344,-1.38441c3.24988,-0.00002 6.36665,1.26794 8.66464,3.52493c2.29799,2.25699 3.58895,5.31812 3.58887,8.50996c-0.00005,6.64651 -5.48613,12.03454 -12.2535,12.03449c-1.96699,-0.00978 -3.90267,-0.48449 -5.64344,-1.38402v18.0593h-59.99976v-60z" fill="#cca676" stroke="none" stroke-width="0.11881"/><text transform="translate(265.875,132) scale(0.5,0.5)" font-size="40" xml:space="preserve" fill="#49b522" fill-rule="nonzero" stroke="none" stroke-width="1" stroke-linecap="butt" stroke-linejoin="miter" stroke-miterlimit="10" stroke-dasharray="" stroke-dashoffset="0" font-family="MyMarker" font-weight="normal" text-anchor="start" style="mix-blend-mode: normal"><tspan x="0" dy="0"> </tspan></text><path d="M280.41615,161.85131c4.47401,-3.75125 12.0824,-3.42604 17.00222,-0.3915c3.87711,2.3914 6.79145,7.79987 6.53932,12.60627c-0.39376,7.50642 -12.20672,18.32216 -12.20672,18.32216c0,0 8.23667,-0.77642 11.77077,1.0962c1.53872,0.81532 2.31876,7.49291 0.29064,7.67338c-6.49362,0.57784 -25.19171,0.83644 -26.15728,-1.0962c-4.7711,-9.54951 14.67311,-17.78019 15.47639,-27.63983c0.17141,-2.10391 -1.1894,-6.05155 -3.70561,-3.83669c-2.42574,2.13522 -2.03789,7.34559 -4.94082,8.61298c-2.38461,1.0411 -6.1901,0.36078 -7.48389,-2.0358c-2.14811,-3.97908 0.04346,-10.48411 3.41498,-13.31097z" fill="#53e300" stroke="#ffffff" stroke-width="2.5"/></g></g></svg>