<svg version="1.1" xmlns="http://www.w3.org/2000/svg" xmlns:xlink="http://www.w3.org/1999/xlink" width="178.38287" height="170.15557" viewBox="0,0,178.38287,170.15557"><g transform="translate(-231.55651,-96.60508)"><g data-paper-data="{&quot;isPaintingLayer&quot;:true}" fill-rule="nonzero" stroke-linecap="butt" stroke-linejoin="miter" stroke-miterlimit="10" stroke-dasharray="" stroke-dashoffset="0" style="mix-blend-mode: normal"><path d="M287.67721,147.33126c1.25039,-13.91736 19.7104,-20.02198 32.07205,-21.34903c8.13512,-0.87331 18.42128,1.7444 23.08217,9.30598c6.97667,11.3186 7.99321,32.96878 -0.48593,41.33522c-3.02058,2.98045 6.41936,8.41815 8.94429,14.01153c3.40979,7.55353 1.25141,18.11696 -1.41224,24.57525c-4.90233,11.88621 -19.0129,19.87767 -30.61423,18.88567c-13.5109,-1.15527 -31.52611,-12.56558 -32.29776,-27.80459c-0.29455,-5.81664 6.03455,-11.49854 11.17662,-12.1232c8.12443,-0.98694 12.84936,16.66589 20.87817,14.47317c6.44317,-1.75968 9.91883,-18.12029 5.58833,-18.33825c-5.83278,-0.29357 -15.54005,-0.63756 -19.09399,-7.03048c-1.67936,-3.02085 -0.53694,-7.68106 1.28601,-10.59434c3.75541,-6.00156 14.64516,-3.46928 17.35658,-10.14656c1.47321,-3.62797 0.78548,-10.05637 -2.46422,-11.64221c-6.59076,-3.21625 -11.56807,12.91638 -18.70871,12.04304c-6.84063,-0.83663 -15.99998,-7.88938 -15.30712,-15.60121z" fill="#ff950b" stroke="#ffffff" stroke-width="7.5"/><path d="M231.55651,266.76065v-170.15557h178.38287v170.15557z" fill="none" stroke="#000000" stroke-width="0"/></g></g></svg>