<svg version="1.1" xmlns="http://www.w3.org/2000/svg" xmlns:xlink="http://www.w3.org/1999/xlink" width="688.18769" height="425.42493" viewBox="0,0,688.18769,425.42493"><g transform="translate(11.33108,31.9617)"><g data-paper-data="{&quot;isPaintingLayer&quot;:true}" fill-rule="nonzero" stroke="#ffffff" stroke-linecap="butt" stroke-linejoin="miter" stroke-miterlimit="10" stroke-dasharray="" stroke-dashoffset="0" style="mix-blend-mode: normal"><path d="M-11.08108,393.21322v-424.92492h687.68769v424.92493z" fill-opacity="0.22745" fill="#000000" stroke-width="0.5"/><path d="M343.3916,114.11664c13.96953,6.45727 24.28283,23.35934 24.90301,39.92918c1.12002,29.92465 -27.36117,63.66774 -44.00653,88.69216c-6.38837,9.60417 -28.26919,10.88266 -33.77197,0.70727c-8.44774,-15.62102 27.97251,-45.23048 27.97251,-45.23048c0,0 -32.15357,-0.7504 -39.44763,-11.72113c-11.28905,-16.97937 -9.41341,-47.55211 4.31129,-62.48296c8.73374,-9.50126 22.77471,-14.33326 36.59497,-14.53189c8.29215,-0.1192 16.50472,1.43008 23.44436,4.63784zM302.4558,158.46211c-0.00043,8.48926 6.71946,15.37147 15.00924,15.37181c8.29025,0.00034 15.01086,-6.88209 15.01044,-15.37181c-0.00024,-8.48924 -6.72068,-15.37092 -15.01044,-15.37057c-8.28929,0.00034 -15.009,6.8818 -15.00924,15.37057z" fill="#fd9b9b" stroke-width="7.5"/></g></g></svg>