<svg version="1.1" xmlns="http://www.w3.org/2000/svg" xmlns:xlink="http://www.w3.org/1999/xlink" width="208.55005" height="87.58909" viewBox="0,0,208.55005,87.58909"><g transform="translate(-215.52408,-136.04706)"><g data-paper-data="{&quot;isPaintingLayer&quot;:true}" fill-rule="nonzero" stroke-linecap="butt" stroke-linejoin="miter" stroke-miterlimit="10" stroke-dasharray="" stroke-dashoffset="0" style="mix-blend-mode: normal"><g><path d="M269.1773,184.5311l40.29937,-22.56185c0,0 0,0 0.41546,43.69122z" data-paper-data="{&quot;index&quot;:null}" fill="#c4c418" stroke="#e3e31c" stroke-width="0.35835"/><path d="M282.03561,137.62815c-0.67273,85.7437 -0.67273,85.7437 -0.67273,85.7437l-65.255,-44.27749z" data-paper-data="{&quot;index&quot;:null}" fill="#f6f626" stroke="#f6f626" stroke-width="0.6388"/><path d="M252.68884,181.73474l20.43876,-10.50707c0,0 0,0 0.21072,20.34701z" data-paper-data="{&quot;index&quot;:null}" fill="#c4c418" stroke="#e3e31c" stroke-width="0.22208"/><g data-paper-data="{&quot;index&quot;:null}"><path d="M240.35013,187.03376c-4.00944,0 -7.25973,-3.31631 -7.25973,-7.4072c0,-4.09088 3.25029,-7.4072 7.25973,-7.4072c4.00943,0 7.25972,3.31631 7.25972,7.4072c0,4.09088 -3.25028,7.4072 -7.25972,7.4072z" fill="#000000" stroke="#000000" stroke-width="0.33116"/><path d="M237.23824,180.33859c-1.85702,0 -3.36242,-1.52158 -3.36242,-3.39853c0,-1.87697 1.50541,-3.39854 3.36242,-3.39854c1.85702,0 3.36242,1.52159 3.36242,3.39854c0,1.87697 -1.50541,3.39853 -3.36242,3.39853z" fill="#ffffff" stroke="#ffffff" stroke-width="0.15266"/></g></g><g><path d="M383.17729,183.5311l40.29937,-22.56185c0,0 0,0 0.41546,43.69122z" data-paper-data="{&quot;index&quot;:null}" fill="#c4c418" stroke="#e3e31c" stroke-width="0.35835"/><path d="M396.0356,136.62815c-0.67273,85.7437 -0.67273,85.7437 -0.67273,85.7437l-65.255,-44.27749z" data-paper-data="{&quot;index&quot;:null}" fill="#f6f626" stroke="#f6f626" stroke-width="0.6388"/><path d="M366.68883,180.73474l20.43876,-10.50707c0,0 0,0 0.21072,20.34701z" data-paper-data="{&quot;index&quot;:null}" fill="#c4c418" stroke="#e3e31c" stroke-width="0.22208"/><g data-paper-data="{&quot;index&quot;:null}"><path d="M354.35012,186.03376c-4.00944,0 -7.25973,-3.31631 -7.25973,-7.4072c0,-4.09088 3.25029,-7.4072 7.25973,-7.4072c4.00943,0 7.25972,3.31631 7.25972,7.4072c0,4.09088 -3.25028,7.4072 -7.25972,7.4072z" fill="#000000" stroke="#000000" stroke-width="0.33116"/><path d="M351.23823,179.33859c-1.85702,0 -3.36242,-1.52158 -3.36242,-3.39853c0,-1.87697 1.50541,-3.39854 3.36242,-3.39854c1.85702,0 3.36242,1.52159 3.36242,3.39854c0,1.87697 -1.50541,3.39853 -3.36242,3.39853z" fill="#ffffff" stroke="#ffffff" stroke-width="0.15266"/></g></g></g></g></svg>