<svg version="1.1" xmlns="http://www.w3.org/2000/svg" xmlns:xlink="http://www.w3.org/1999/xlink" width="178.38287" height="170.15557" viewBox="0,0,178.38287,170.15557"><g transform="translate(-231.55651,-96.60508)"><g data-paper-data="{&quot;isPaintingLayer&quot;:true}" fill-rule="nonzero" stroke-linecap="butt" stroke-linejoin="miter" stroke-miterlimit="10" stroke-dasharray="" stroke-dashoffset="0" style="mix-blend-mode: normal"><path d="M342.96604,133.05615c6.97269,13.25464 -0.79431,37.79142 2.96747,53.36993c0.98119,1.98561 9.12541,-0.97872 11.46305,-0.19285c6.09992,2.05074 7.06088,16.55273 1.98075,22.08869c-3.43894,3.7475 -15.56222,0.54483 -15.56222,0.54483c0,0 2.65044,17.01786 -3.11343,21.81628c-5.63395,4.69028 -16.70725,4.50089 -22.33344,-0.19804c-5.52464,-4.61409 0.54011,-21.19761 -3.31893,-20.8937c-16.81841,1.32449 -26.61501,-0.70524 -32.90881,-1.21143c-38.13646,-3.06715 29.51173,-83.43194 44.32467,-83.10222c7.24575,0.16129 13.53362,2.13783 16.50092,7.77849zM294.86198,187.86938l25.18424,0.81727c1.67824,-36.03817 1.04051,-23.21809 1.69706,-36.81416l-0.01317,0.01869c0,-0.01281 0.01317,-0.28153 0.01317,-0.29078z" fill="#c962c4" stroke="#ffffff" stroke-width="7.5"/><path d="M231.55651,266.76065v-170.15557h178.38287v170.15557z" fill="none" stroke="#000000" stroke-width="0"/></g></g></svg>