<svg version="1.1" xmlns="http://www.w3.org/2000/svg" xmlns:xlink="http://www.w3.org/1999/xlink" width="149.05116" height="174.04731" viewBox="0,0,149.05116,174.04731"><g transform="translate(-244.54864,-93.90212)"><g data-paper-data="{&quot;isPaintingLayer&quot;:true}" fill-rule="nonzero" stroke="#ffffff" stroke-linecap="butt" stroke-linejoin="miter" stroke-miterlimit="10" stroke-dasharray="" stroke-dashoffset="0" style="mix-blend-mode: normal"><path d="M341.82685,118.5238c13.03506,6.02532 22.65846,21.79675 23.23716,37.25818c1.0451,27.92289 -25.53089,59.40879 -41.06278,82.75924c-5.96103,8.96172 -26.37816,10.15469 -31.51285,0.65996c-7.88264,-14.57608 26.10134,-42.20486 26.10134,-42.20486c0,0 -30.0027,-0.7002 -36.80884,-10.93706c-10.53388,-15.84356 -8.78372,-44.37119 4.02289,-58.30326c8.14951,-8.86569 21.25123,-13.37446 34.147,-13.5598c7.73746,-0.11123 15.40066,1.33442 21.87609,4.3276zM303.62938,159.90285c-0.0004,7.92138 6.26997,14.34322 14.00522,14.34354c7.73568,0.00032 14.00673,-6.42172 14.00634,-14.34354c-0.00023,-7.92136 -6.27111,-14.3427 -14.00634,-14.34238c-7.73479,0.00032 -14.00499,6.42145 -14.00522,14.34238z" fill="#fd9b9b" stroke-width="7.5"/><path d="M244.54865,267.94944v-174.04731h149.05116v174.04731z" fill="none" stroke-width="0"/></g></g></svg>