<svg version="1.1" xmlns="http://www.w3.org/2000/svg" xmlns:xlink="http://www.w3.org/1999/xlink" width="92.60785" height="125.00953" viewBox="0,0,92.60785,125.00953"><g transform="translate(-267.89664,-113.49719)"><g data-paper-data="{&quot;isPaintingLayer&quot;:true}" fill-rule="nonzero" stroke-linecap="round" stroke-linejoin="bevel" stroke-miterlimit="10" stroke-dasharray="" stroke-dashoffset="0" style="mix-blend-mode: normal"><path d="M283.29158,148.02445c3.43454,-4.38843 6.94161,-7.94864 10.22378,-10.30694c3.28217,-2.3583 6.33945,-3.5147 8.69472,-4.43328c2.35528,-0.91858 4.00849,-1.59931 7.31502,-1.93968c3.30653,-0.34037 8.26616,-0.34037 12.73967,0.63214c4.47352,0.97251 8.46067,2.91747 12.52087,5.56755c4.06021,2.65008 8.19468,6.0063 11.56616,10.2763c3.37147,4.27 5.98305,9.45665 7.61275,13.66422c1.62969,4.20756 2.27534,7.43175 1.92958,10.64848c-0.34577,3.21674 -1.68291,6.42588 -2.75268,9.19755c-1.06976,2.77167 -1.87205,5.10561 -0.79012,7.24512c1.08193,2.13951 4.04792,4.08442 5.99295,7.75566c1.94503,3.67124 2.86885,9.06838 1.52737,10.38872c-1.34149,1.32036 -4.94812,-1.43622 -9.18284,-3.25223c-4.23472,-1.816 -9.09698,-2.69121 -12.98277,-2.40692c-3.88578,0.28429 -6.79466,1.72809 -8.5124,4.1406c-1.71774,2.41252 -2.24424,5.79354 -1.70936,8.12757c0.53488,2.33404 2.13112,3.62084 4.1449,2.95136c2.01378,-0.66948 4.44497,-3.29517 6.48723,-4.80254c2.04226,-1.50737 3.69546,-1.89636 4.42483,-1.31285c0.72937,0.58352 0.53488,2.13948 -0.53489,4.37625c-1.06977,2.23676 -3.01472,5.15419 -3.69546,8.8254c-0.68074,3.67122 -0.09727,8.09589 -0.63215,10.50286c-0.53488,2.40698 -2.18806,2.79596 -4.01152,0.68074c-1.82346,-2.11521 -3.817,-6.73439 -7.07493,-9.38449c-3.25792,-2.6501 -7.77994,-3.33083 -11.15938,-4.72882c-3.37944,-1.39798 -5.61613,-3.51311 -7.80425,-5.50673c-2.18811,-1.99361 -4.32761,-3.86567 -6.4671,-5.73772c-3.59823,-3.40373 -7.19646,-6.80746 -10.94061,-7.97445c-3.74415,-1.16699 -7.63405,-0.09726 -10.89193,1.167c-3.25788,1.26426 -5.88356,2.72297 -7.68269,3.7441c-1.79913,1.02113 -2.77161,1.60461 -3.11198,0.29171c-0.34037,-1.3129 -0.04863,-4.52207 0.82663,-7.34233c0.87526,-2.82026 2.33398,-5.25146 3.93861,-7.00196c1.60463,-1.7505 3.35509,-2.82022 3.35507,-4.81386c-0.00002,-1.99364 -1.75047,-4.91107 -3.06335,-7.68271c-1.31288,-2.77164 -2.18809,-5.39727 -2.19154,-8.16202c-0.0035,-2.76476 0.86169,-5.65777 2.98458,-9.73274c2.12289,-4.07497 5.47265,-9.27262 8.90719,-13.66106z" fill="#4790cd" stroke="#62565b" stroke-width="0"/><path d="M314.80084,113.4972c2.6379,6.33338 5.27578,12.66675 7.91368,19.00012c-1.45875,-0.14587 -2.91745,-0.29174 -4.64365,-0.46193c-1.7262,-0.17019 -3.71977,-0.36468 -5.83497,-0.31606c-2.11519,0.04862 -4.35194,0.34037 -6.58868,0.63212z" fill="#4790cd" stroke="#62565b" stroke-width="0"/><path d="M276.64529,186.85583c3.14603,3.93684 6.29207,7.87369 8.77625,10.33207c2.48419,2.45838 4.30644,3.43827 6.12873,4.41819c-4.73131,0.59408 -9.46253,1.18814 -12.98685,2.07352c-3.52432,0.88538 -5.84145,2.06199 -6.93127,3.16607c-1.08983,1.10407 -0.95229,2.13555 -0.81476,3.16704c-1.03148,-0.68766 -2.06297,-1.37532 -2.56153,-2.80223c-0.49855,-1.42692 -0.46417,-3.59295 0.01632,-5.79c0.48049,-2.19705 1.40706,-4.42491 2.54168,-6.14403c1.13463,-1.71913 2.47731,-2.92952 3.48391,-4.2482c1.0066,-1.31868 1.67705,-2.74554 2.34752,-4.17243z" fill="#4790cd" stroke="#62565b" stroke-width="0"/><path d="M328.71811,215.97333c1.21627,0.48625 2.43255,0.9725 3.89905,0.0403c1.4665,-0.93218 3.18316,-3.28268 5.44212,-4.61573c2.25894,-1.33306 5.06014,-1.64861 7.86134,-1.96417c-3.14157,4.71728 -5.85791,8.79605 -7.23032,14.29742c-1.37241,5.50136 -0.74643,9.80186 -0.02245,14.77558c-2.35818,-1.69555 -4.71635,-3.39109 -6.33382,-5.06405c-1.61747,-1.67296 -2.49422,-3.32331 -3.16816,-4.59821c-0.67394,-1.2749 -1.14502,-2.17425 -1.8227,-2.89003c-0.67769,-0.71578 -1.562,-1.24799 -2.44629,-1.78019c1.28799,-1.00249 2.57596,-2.00497 3.21284,-3.37182c0.63689,-1.36685 0.62265,-3.09797 0.6084,-4.82913z" fill="#4790cd" stroke="#62565b" stroke-width="0"/><path d="M271.32361,172.77265c5.36729,1.41947 5.91697,1.56485 15.22638,0.29413c9.30941,-1.27072 17.39856,-6.29173 26.41951,-6.83839c9.02095,-0.54666 18.10771,3.40999 25.50848,5.22025c7.40076,1.81026 12.45403,1.28186 17.59598,0.74418c-0.48955,2.73306 -0.97911,5.46612 -1.92729,8.00068c-0.94818,2.53456 -2.35496,4.87059 -3.6115,6.87136c-1.25653,2.00078 -2.36271,3.66611 -3.79107,5.15526c-1.42836,1.48915 -3.17882,2.80199 -5.07521,4.09056c-1.89639,1.28857 -3.93858,2.55279 -5.73156,3.70837c-1.79298,1.15559 -3.33664,2.20247 -4.7679,3.65952c-1.43126,1.45704 -2.74996,3.32408 -3.36343,5.33089c-0.61347,2.00681 -0.52162,4.15316 0.2898,5.70646c0.81141,1.5533 1.87742,2.22188 2.01972,4.36295c0.1423,2.14108 -0.3504,3.01355 -3.25705,4.40036c-2.90665,1.38681 -5.00361,1.23422 -7.54453,0.41681c-2.54093,-0.81742 -4.53453,-2.22753 -6.30613,-3.68727c-1.77159,-1.45974 -3.32115,-2.96909 -5.31477,-4.74389c-1.99361,-1.77481 -4.43124,-3.81503 -6.87113,-5.86588c-2.43989,-2.05084 -4.88182,-4.11213 -7.72643,-6.30029c-2.84461,-2.18816 -6.09154,-4.50293 -9.20015,-7.54621c-3.10861,-3.04328 -6.07867,-6.81495 -8.00993,-10.05271c-1.93126,-3.23776 -2.8237,-5.94162 -3.41086,-8.00716c-0.58716,-2.06554 -0.86905,-3.49276 -1.15094,-4.91998z" fill="#a2d6df" stroke="#62565b" stroke-width="0"/><path d="M284.19651,160.49401c0,-3.41805 2.44761,-6.18892 5.46688,-6.18892c3.01927,0 5.46688,2.77088 5.46688,6.18892c0,3.41805 -2.44761,6.18892 -5.46688,6.18892c-3.01927,0 -5.46688,-2.77087 -5.46688,-6.18892z" fill="#000000" stroke="#62565b" stroke-width="0"/><path d="M288.63373,158.0745c0,-1.42418 1.06217,-2.57872 2.37242,-2.57872c1.31025,0 2.37242,1.15454 2.37242,2.57872c0,1.42418 -1.06217,2.57872 -2.37242,2.57872c-1.31025,0 -2.37242,-1.15453 -2.37242,-2.57872z" fill="#e6e6e6" stroke="#62565b" stroke-width="0"/><path d="M332.89536,159.92595c0,-3.41805 2.44761,-6.18892 5.46688,-6.18892c3.01927,0 5.46688,2.77087 5.46688,6.18892c0,3.41805 -2.44761,6.18892 -5.46688,6.18892c-3.01927,0 -5.46688,-2.77087 -5.46688,-6.18892z" fill="#000000" stroke="#62565b" stroke-width="0"/><path d="M337.35944,157.59159c0,-1.42418 1.06217,-2.57872 2.37242,-2.57872c1.31025,0 2.37242,1.15454 2.37242,2.57872c0,1.42418 -1.06217,2.57872 -2.37242,2.57872c-1.31025,0 -2.37242,-1.15453 -2.37242,-2.57872z" fill="#e6e6e6" stroke="#62565b" stroke-width="0"/><path d="M278.38551,166.27668c0,-1.23596 0.20039,-2.23791 0.44758,-2.23791c0.24719,0 0.44758,1.00195 0.44758,2.23791c0,1.23596 -0.20039,2.23791 -0.44758,2.23791c-0.24719,0 -0.44758,-1.00195 -0.44758,-2.23791z" fill="#000000" stroke="#62565b" stroke-width="0"/><path d="M280.61247,163.8558c0,-1.81333 0.32349,-3.28333 0.72253,-3.28333c0.39904,0 0.72253,1.47 0.72253,3.28333c0,1.81333 -0.32349,3.28333 -0.72253,3.28333c-0.39904,0 -0.72253,-1.47 -0.72253,-3.28333z" fill="#000000" stroke="#62565b" stroke-width="0"/><path d="M276.41573,167.46945c0,-1.23596 0.20039,-2.23791 0.44758,-2.23791c0.24719,0 0.44758,1.00195 0.44758,2.23791c0,1.23596 -0.20038,2.23791 -0.44758,2.23791c-0.24719,0 -0.44758,-1.00195 -0.44758,-2.23791z" fill="#000000" stroke="#62565b" stroke-width="0"/><path d="M345.46416,163.70416c0,-1.81333 0.32349,-3.28334 0.72253,-3.28334c0.39904,0 0.72252,1.47001 0.72252,3.28334c0,1.81333 -0.32348,3.28333 -0.72252,3.28333c-0.39904,0 -0.72253,-1.47 -0.72253,-3.28333z" fill="#000000" stroke="#62565b" stroke-width="0"/><path d="M348.98401,166.37894c0,-1.23596 0.20039,-2.23791 0.44758,-2.23791c0.24719,0 0.44758,1.00195 0.44758,2.23791c0,1.23596 -0.20038,2.2379 -0.44758,2.2379c-0.24719,0 -0.44758,-1.00194 -0.44758,-2.2379z" fill="#000000" stroke="#62565b" stroke-width="0"/><path d="M351.06582,167.54962c0,-1.23596 0.20039,-2.23791 0.44758,-2.23791c0.24719,0 0.44758,1.00195 0.44758,2.23791c0,1.23596 -0.20039,2.23791 -0.44758,2.23791c-0.24719,0 -0.44758,-1.00195 -0.44758,-2.23791z" fill="#000000" stroke="#62565b" stroke-width="0"/><g><path d="M302.42292,177.25997c5.33364,-1.14814 18.94847,-1.28591 25.08916,-0.57405c6.14069,0.71186 4.8073,2.27329 2.35099,3.51329c-2.45632,1.24 -6.0354,2.15849 -10.70239,2.52589c-4.66699,0.3674 -10.4216,0.1837 -14.77276,-0.98742c-4.35116,-1.17112 -7.29864,-3.32957 -1.965,-4.4777z" fill="#e6e6e6" stroke="#62565b" stroke-width="0"/><path d="M302.08945,177.32826c0.07815,0.1382 0.19773,0.35241 0.34792,0.62107c0.10595,0.18952 0.23464,0.41881 0.39988,0.70666c0.19727,0.34363 0.43819,0.75611 0.76106,1.29898c0.19705,0.33132 0.45256,0.75818 0.79047,1.31768c0.03736,0.06186 0.06168,0.10112 0.08022,0.13036c0.01779,0.02806 0.02945,0.04563 0.04272,0.06632c0.01493,0.02326 0.0305,0.04835 0.05427,0.088c0.03305,0.05515 0.07607,0.12883 0.11325,0.19283l-0.14808,0.03471c-0.03719,-0.064 -0.07995,-0.13725 -0.11269,-0.19188c-0.02344,-0.03911 -0.03858,-0.06346 -0.05293,-0.08584c-0.01288,-0.02008 -0.02477,-0.03801 -0.04295,-0.0667c-0.01896,-0.02991 -0.04361,-0.06971 -0.08116,-0.13189c-0.338,-0.55965 -0.59361,-0.98667 -0.79077,-1.31816c-0.32304,-0.54315 -0.56417,-0.956 -0.76169,-1.30007c-0.16546,-0.28822 -0.29432,-0.51781 -0.40034,-0.70746c-0.15027,-0.26881 -0.26969,-0.48272 -0.34772,-0.62073z" fill="#000000" stroke="none" stroke-width="1.6"/><path d="M308.18916,176.57467c-0.14306,0.23884 -0.51695,0.78902 -1.19261,1.75264c-0.3355,0.47849 -0.70367,1.00868 -1.12313,1.63481c-0.25304,0.37771 -0.56412,0.84913 -0.92192,1.40844c-0.03927,0.0614 -0.06457,0.10091 -0.08075,0.12638c-0.01609,0.02533 -0.02424,0.03844 -0.03418,0.05477c-0.01465,0.02407 -0.03137,0.05184 -0.04602,0.0759c-0.03339,0.05489 -0.07334,0.12002 -0.11526,0.18813l-0.15747,-0.03484c0.04189,-0.06807 0.08176,-0.13306 0.11504,-0.18778c0.0174,-0.0286 0.02865,-0.04733 0.04604,-0.07593c0.01026,-0.01686 0.01869,-0.03042 0.035,-0.05608c0.01627,-0.02561 0.04167,-0.06529 0.08089,-0.12659c0.35816,-0.55987 0.66957,-1.03179 0.92288,-1.40991c0.41992,-0.62682 0.78847,-1.15755 1.12416,-1.6363c0.67597,-0.96408 1.04791,-1.51147 1.18937,-1.74765z" fill="#000000" stroke="none" stroke-width="1.6"/><path d="M308.20467,176.54468c0.0831,0.14006 0.21026,0.35716 0.36997,0.62944c0.11266,0.19208 0.24952,0.42445 0.42524,0.71618c0.20977,0.34826 0.46597,0.7663 0.80931,1.31648c0.20954,0.33578 0.48126,0.7684 0.8406,1.33544c0.02,0.03155 0.05333,0.08379 0.09916,0.15546c-0.02553,-0.03986 0.18692,0.29199 0.16139,0.25213c0.0626,0.09791 0.36765,0.57423 0.43025,0.67214c0.1691,0.26447 0.31866,0.49898 0.44174,0.69292c0.07229,0.11392 0.12997,0.20521 0.17581,0.27816c0.06198,0.09863 0.09773,0.15646 0.11957,0.19227l-0.15747,0.03517c-0.02157,-0.03537 -0.05711,-0.09286 -0.11898,-0.19133c-0.04575,-0.07282 -0.10336,-0.16401 -0.17561,-0.27785c-0.123,-0.19382 -0.27252,-0.42824 -0.4416,-0.69268c0.29393,0.45896 -0.72413,-1.13104 -0.43021,-0.67209c-0.00988,-0.01545 -0.15152,-0.23673 -0.16142,-0.25218c-0.04583,-0.07167 -0.07924,-0.12403 -0.09934,-0.15575c-0.35943,-0.56719 -0.63126,-0.99997 -0.84091,-1.33592c-0.34352,-0.55046 -0.59994,-0.96888 -0.80998,-1.31758c-0.17595,-0.29211 -0.31298,-0.52479 -0.42572,-0.71699c-0.1598,-0.27243 -0.28679,-0.48923 -0.36977,-0.62909z" fill="#000000" stroke="none" stroke-width="1.6"/><path d="M315.74219,176.29373c-0.04944,0.08333 -0.11901,0.20549 -0.22754,0.40754c-0.07985,0.14864 -0.171,0.32215 -0.28854,0.54824c-0.17547,0.33754 -0.46692,0.90381 -0.7496,1.43936c-0.35811,0.67845 -0.75147,1.40316 -1.18441,2.15245c-0.2625,0.4543 -0.57999,0.98768 -0.93887,1.55399c-0.03927,0.06198 -0.06457,0.10186 -0.08075,0.12757c-0.01609,0.02557 -0.02424,0.03881 -0.03418,0.05529c-0.01465,0.02429 -0.03137,0.05233 -0.04602,0.07662c-0.03339,0.05541 -0.07334,0.12116 -0.11526,0.18992l-0.15747,-0.03517c0.04189,-0.06871 0.08176,-0.13432 0.11504,-0.18956c0.0174,-0.02887 0.02865,-0.04778 0.04604,-0.07665c0.01026,-0.01701 0.01869,-0.03071 0.035,-0.05661c0.01627,-0.02585 0.04167,-0.06591 0.08089,-0.12779c0.35814,-0.56514 0.67505,-1.09753 0.93715,-1.55115c0.43228,-0.74815 0.82514,-1.47193 1.18296,-2.14983c0.28253,-0.53527 0.57368,-1.10096 0.74937,-1.43893c0.11759,-0.22621 0.20893,-0.40007 0.28902,-0.54916c0.1089,-0.20271 0.17903,-0.3259 0.2292,-0.41046z" fill="#000000" stroke="none" stroke-width="1.6"/><path d="M315.72542,176.26357c0.0831,0.14006 0.21026,0.35716 0.36998,0.62944c0.11266,0.19208 0.24951,0.42445 0.42523,0.71618c0.20977,0.34826 0.46598,0.76631 0.80932,1.31649c0.20954,0.33578 0.48126,0.7684 0.8406,1.33544c0.01029,0.01624 0.02401,0.03842 0.04105,0.0663c0.0166,0.02719 0.03632,0.05976 0.05897,0.09737c0.04429,0.07357 0.09918,0.16546 0.16227,0.27152c0.12572,0.21136 0.28057,0.47323 0.43255,0.73044c0.05629,0.09505 0.38764,0.65594 0.44393,0.75099c0.07283,0.12298 0.13024,0.21965 0.1764,0.2971c0.06224,0.10442 0.09763,0.16311 0.11935,0.19874l-0.15747,0.03517c-0.02193,-0.03597 -0.05747,-0.09491 -0.11977,-0.19943c-0.04622,-0.07754 -0.10367,-0.17429 -0.17652,-0.29729c1.07391,1.81748 -1.51788,-2.56855 -0.44396,-0.75106c-0.15199,-0.25722 -0.30678,-0.51899 -0.43244,-0.73024c-0.06306,-0.10601 -0.11787,-0.19777 -0.16205,-0.27116c-0.0226,-0.03753 -0.04222,-0.06994 -0.05871,-0.09693c-0.01694,-0.02775 -0.03043,-0.04948 -0.04033,-0.06515c-0.35943,-0.56719 -0.63125,-0.99997 -0.8409,-1.33592c-0.34352,-0.55046 -0.59995,-0.96888 -0.80999,-1.31758c-0.17595,-0.29211 -0.31297,-0.52479 -0.42571,-0.71699c-0.1598,-0.27243 -0.28679,-0.48923 -0.36978,-0.62909z" fill="#000000" stroke="none" stroke-width="1.6"/><path d="M323.08437,176.38883c-0.04941,0.08328 -0.11772,0.2034 -0.2211,0.39712c-0.07603,0.14245 -0.16188,0.30743 -0.27164,0.52097c-0.16269,0.31649 -0.43545,0.85342 -0.69844,1.35679c-0.33489,0.64098 -0.70639,1.3304 -1.12541,2.05723c-0.25405,0.44066 -0.56466,0.96293 -0.92354,1.52924c-0.03927,0.06198 -0.06457,0.10186 -0.08075,0.12757c-0.01609,0.02557 -0.02424,0.03881 -0.03418,0.05529c-0.01465,0.02429 -0.03137,0.05233 -0.04602,0.07662c-0.03339,0.05541 -0.07334,0.12116 -0.11526,0.18992l-0.15747,-0.03517c0.04189,-0.06871 0.08176,-0.13432 0.11504,-0.18956c0.0174,-0.02887 0.02865,-0.04778 0.04604,-0.07665c0.01026,-0.01701 0.01869,-0.03071 0.035,-0.05661c0.01627,-0.02585 0.04167,-0.06591 0.08089,-0.1278c0.35813,-0.56513 0.66814,-1.08639 0.92177,-1.52633c0.41832,-0.72561 0.78929,-1.41403 1.12385,-2.05439c0.26284,-0.50308 0.53526,-1.03933 0.69821,-1.35634c0.10983,-0.21367 0.1959,-0.37905 0.2722,-0.52201c0.10379,-0.19448 0.17269,-0.31568 0.22285,-0.40024z" fill="#000000" stroke="none" stroke-width="1.6"/><path d="M323.09905,176.34448c0.0831,0.14006 0.21026,0.35716 0.36997,0.62944c0.11266,0.19208 0.24952,0.42445 0.42524,0.71618c0.20977,0.34826 0.46597,0.7663 0.80931,1.31648c0.20954,0.33578 0.48126,0.7684 0.8406,1.33544c0.03994,0.06302 0.09167,0.14369 0.15562,0.2432c0.03288,0.05133 0.16659,0.2593 0.19947,0.31062c0.20564,0.32102 0.32119,0.50587 0.40145,0.63751l-0.15747,0.03517c-0.07981,-0.13091 -0.195,-0.31519 -0.40047,-0.63596c0.58598,0.91192 -0.78539,-1.22244 -0.19941,-0.31052c-0.06394,-0.09949 -0.1158,-0.18037 -0.15589,-0.24364c-0.35943,-0.56719 -0.63125,-0.99997 -0.84091,-1.33592c-0.34352,-0.55046 -0.59995,-0.96888 -0.80999,-1.31758c-0.17595,-0.29211 -0.31298,-0.52479 -0.42572,-0.71699c-0.1598,-0.27243 -0.28679,-0.48923 -0.36978,-0.62909z" fill="#000000" stroke="none" stroke-width="1.6"/><path d="M329.14498,176.93435c-0.14497,0.24435 -0.41696,0.70411 -0.86603,1.42909c-0.23082,0.37263 -0.51009,0.81876 -0.8656,1.38284c0.03522,-0.05589 -0.89053,1.4087 -0.85531,1.35282c-0.03927,0.06198 -0.06457,0.10186 -0.08075,0.12757c-0.01609,0.02557 -0.02424,0.03881 -0.03418,0.05529c-0.01465,0.02429 -0.03137,0.05233 -0.04602,0.07662c-0.03339,0.05541 -0.07334,0.12116 -0.11526,0.18992l-0.15747,-0.03517c0.04189,-0.06871 0.08176,-0.13432 0.11504,-0.18956c0.0174,-0.02887 0.02865,-0.04778 0.04604,-0.07665c0.01026,-0.01701 0.01869,-0.03071 0.035,-0.05661c0.01627,-0.02585 0.04167,-0.06591 0.08089,-0.1278c0.04398,-0.06939 0.81122,-1.28324 0.8552,-1.35264c0.35545,-0.56398 0.6346,-1.00991 0.86526,-1.3823c0.44864,-0.72429 0.7203,-1.18351 0.86523,-1.42777z" fill="#000000" stroke="none" stroke-width="1.6"/><path d="M329.1348,176.90421c0.05023,0.08466 0.10179,0.17243 0.14076,0.24102c0.02818,0.04959 0.04606,0.08259 0.05776,0.10586c0.00518,0.01031 0.00888,0.01812 0.01198,0.02499c0.0029,0.00645 0.0052,0.01156 0.0075,0.01665c0.0023,0.00482 0.0048,0.01005 0.0086,0.01719c0.00379,0.0071 0.00892,0.01625 0.01642,0.02909c0.01496,0.02557 0.03887,0.06484 0.07958,0.1303c0.04132,0.06644 0.09917,0.15857 0.17912,0.28534c-0.00146,-0.00231 0.11325,0.17928 0.11175,0.17698c-0.02508,-0.03957 0.7518,1.18717 0.72672,1.14759c0.03955,0.06241 0.06892,0.10654 0.09446,0.14335c0.02449,0.03531 0.04476,0.0629 0.06639,0.09316c0.02447,0.03424 0.04822,0.06849 0.07919,0.11581c0.04345,0.06638 0.09051,0.14244 0.13047,0.208l-0.15747,0.03517c-0.03985,-0.06537 -0.08636,-0.14053 -0.12906,-0.20576c-0.03028,-0.04626 -0.05335,-0.07953 -0.07719,-0.11289c-0.02085,-0.02918 -0.04216,-0.05821 -0.0671,-0.09417c-0.02634,-0.03798 -0.05637,-0.0831 -0.09642,-0.14629c-0.009,-0.01424 -0.71776,-1.13343 -0.72676,-1.14768c-0.00112,-0.00178 -0.11069,-0.17529 -0.11179,-0.17705c-0.07997,-0.12681 -0.13793,-0.21912 -0.17939,-0.28579c-0.04076,-0.06555 -0.06516,-0.10562 -0.08071,-0.13219c-0.00786,-0.01343 -0.01354,-0.02353 -0.01794,-0.03181c-0.00458,-0.00852 -0.00768,-0.01504 -0.01048,-0.02103c-0.0028,-0.0061 -0.0051,-0.01125 -0.0077,-0.01706c-0.00272,-0.00606 -0.00602,-0.01298 -0.01072,-0.02235c-0.01083,-0.02154 -0.02795,-0.0532 -0.0559,-0.10239c-0.03859,-0.06791 -0.08985,-0.15516 -0.14002,-0.23972z" fill="#000000" stroke="none" stroke-width="1.6"/></g></g></g></svg>