<svg version="1.1" xmlns="http://www.w3.org/2000/svg" xmlns:xlink="http://www.w3.org/1999/xlink" width="325.93324" height="258.9341" viewBox="0,0,325.93324,258.9341"><g transform="translate(-157.03338,-50.53295)"><g data-paper-data="{&quot;isPaintingLayer&quot;:true}" fill-rule="nonzero" stroke-linecap="butt" stroke-linejoin="miter" stroke-miterlimit="10" stroke-dasharray="" stroke-dashoffset="0" style="mix-blend-mode: normal"><g><path d="M271.37028,275.66918l43.53789,-24.37495c0,0 0,0 0.44884,47.20231z" data-paper-data="{&quot;index&quot;:null}" fill="#33a719" stroke="none" stroke-width="0"/><path d="M253.44237,229.53895c21.76498,0 39.40899,17.89252 39.40899,39.96406c0,22.07154 -17.64402,39.96404 -39.40899,39.96404c-21.76498,0 -39.40899,-17.89251 -39.40899,-39.96404c0,-22.07154 17.64402,-39.96406 39.40899,-39.96406z" data-paper-data="{&quot;index&quot;:null}" fill="#44e022" stroke="none" stroke-width="0"/><path d="M247.88316,275.30646l28.15754,-14.47509c0,0 0,0 0.29028,28.03113z" data-paper-data="{&quot;index&quot;:null}" fill="#33a719" stroke="none" stroke-width="0"/><g data-paper-data="{&quot;index&quot;:null}"><path d="M231.85096,278.37296c-4.33164,0 -7.84312,-3.58282 -7.84312,-8.00246c0,-4.41964 3.51147,-8.00246 7.84312,-8.00246c4.33163,0 7.84314,3.58282 7.84314,8.00246c0,4.41964 -3.51148,8.00246 -7.84314,8.00246z" fill="#000000" stroke="#000000" stroke-width="0.33116"/><path d="M228.48902,271.13976c-2.00625,0 -3.63263,-1.64385 -3.63263,-3.67164c0,-2.0278 1.62639,-3.67166 3.63263,-3.67166c2.00625,0 3.63263,1.64387 3.63263,3.67166c0,2.0278 -1.62639,3.67164 -3.63263,3.67164z" fill="#ffffff" stroke="#ffffff" stroke-width="0.15266"/></g></g><g><path d="M385.97989,274.66318l43.53789,-24.37495c0,0 0,0 0.44884,47.20231z" data-paper-data="{&quot;index&quot;:null}" fill="#33a719" stroke="none" stroke-width="0"/><path d="M368.05198,228.53295c21.76498,0 39.40899,17.89252 39.40899,39.96406c0,22.07154 -17.64402,39.96404 -39.40899,39.96404c-21.76498,0 -39.40899,-17.89251 -39.40899,-39.96404c0,-22.07154 17.64402,-39.96406 39.40899,-39.96406z" data-paper-data="{&quot;index&quot;:null}" fill="#44e022" stroke="none" stroke-width="0"/><path d="M362.49277,274.30046l28.15754,-14.47509c0,0 0,0 0.29028,28.03113z" data-paper-data="{&quot;index&quot;:null}" fill="#33a719" stroke="none" stroke-width="0"/><g data-paper-data="{&quot;index&quot;:null}"><path d="M346.46057,277.36696c-4.33164,0 -7.84312,-3.58282 -7.84312,-8.00246c0,-4.41964 3.51147,-8.00246 7.84312,-8.00246c4.33163,0 7.84314,3.58282 7.84314,8.00246c0,4.41964 -3.51148,8.00246 -7.84314,8.00246z" fill="#000000" stroke="#000000" stroke-width="0.33116"/><path d="M343.09863,270.13376c-2.00625,0 -3.63263,-1.64385 -3.63263,-3.67164c0,-2.0278 1.62639,-3.67166 3.63263,-3.67166c2.00625,0 3.63263,1.64387 3.63263,3.67166c0,2.0278 -1.62639,3.67164 -3.63263,3.67164z" fill="#ffffff" stroke="#ffffff" stroke-width="0.15266"/></g></g><g><path d="M324.37028,186.16918l43.53789,-24.37495c0,0 0,0 0.44884,47.20231z" data-paper-data="{&quot;index&quot;:null}" fill="#33a719" stroke="none" stroke-width="0"/><path d="M306.44237,140.03895c21.76498,0 39.40899,17.89252 39.40899,39.96406c0,22.07154 -17.64402,39.96404 -39.40899,39.96404c-21.76498,0 -39.40899,-17.89251 -39.40899,-39.96404c0,-22.07154 17.64402,-39.96406 39.40899,-39.96406z" data-paper-data="{&quot;index&quot;:null}" fill="#44e022" stroke="none" stroke-width="0"/><path d="M300.88316,185.80646l28.15754,-14.47509c0,0 0,0 0.29028,28.03113z" data-paper-data="{&quot;index&quot;:null}" fill="#33a719" stroke="none" stroke-width="0"/><g data-paper-data="{&quot;index&quot;:null}"><path d="M284.85096,188.87296c-4.33164,0 -7.84312,-3.58282 -7.84312,-8.00246c0,-4.41964 3.51147,-8.00246 7.84312,-8.00246c4.33163,0 7.84314,3.58282 7.84314,8.00246c0,4.41964 -3.51148,8.00246 -7.84314,8.00246z" fill="#000000" stroke="#000000" stroke-width="0.33116"/><path d="M281.48902,181.63976c-2.00625,0 -3.63263,-1.64385 -3.63263,-3.67164c0,-2.0278 1.62639,-3.67166 3.63263,-3.67166c2.00625,0 3.63263,1.64387 3.63263,3.67166c0,2.0278 -1.62639,3.67164 -3.63263,3.67164z" fill="#ffffff" stroke="#ffffff" stroke-width="0.15266"/></g></g><g><path d="M438.97989,185.16318l43.53789,-24.37495c0,0 0,0 0.44884,47.20231z" data-paper-data="{&quot;index&quot;:null}" fill="#33a719" stroke="none" stroke-width="0"/><path d="M421.05198,139.03295c21.76498,0 39.40899,17.89252 39.40899,39.96406c0,22.07154 -17.64402,39.96404 -39.40899,39.96404c-21.76498,0 -39.40899,-17.89251 -39.40899,-39.96404c0,-22.07154 17.64402,-39.96406 39.40899,-39.96406z" data-paper-data="{&quot;index&quot;:null}" fill="#44e022" stroke="none" stroke-width="0"/><path d="M415.49277,184.80046l28.15754,-14.47509c0,0 0,0 0.29028,28.03113z" data-paper-data="{&quot;index&quot;:null}" fill="#33a719" stroke="none" stroke-width="0"/><g data-paper-data="{&quot;index&quot;:null}"><path d="M399.46057,187.86696c-4.33164,0 -7.84312,-3.58282 -7.84312,-8.00246c0,-4.41964 3.51147,-8.00246 7.84312,-8.00246c4.33163,0 7.84314,3.58282 7.84314,8.00246c0,4.41964 -3.51148,8.00246 -7.84314,8.00246z" fill="#000000" stroke="#000000" stroke-width="0.33116"/><path d="M396.09863,180.63376c-2.00625,0 -3.63263,-1.64385 -3.63263,-3.67164c0,-2.0278 1.62639,-3.67166 3.63263,-3.67166c2.00625,0 3.63263,1.64387 3.63263,3.67166c0,2.0278 -1.62639,3.67164 -3.63263,3.67164z" fill="#ffffff" stroke="#ffffff" stroke-width="0.15266"/></g></g><g><path d="M267.37028,97.66918l43.53789,-24.37495c0,0 0,0 0.44884,47.20231z" data-paper-data="{&quot;index&quot;:null}" fill="#33a719" stroke="none" stroke-width="0"/><path d="M249.44237,51.53895c21.76498,0 39.40899,17.89252 39.40899,39.96406c0,22.07154 -17.64402,39.96404 -39.40899,39.96404c-21.76498,0 -39.40899,-17.89251 -39.40899,-39.96404c0,-22.07154 17.64402,-39.96406 39.40899,-39.96406z" data-paper-data="{&quot;index&quot;:null}" fill="#44e022" stroke="none" stroke-width="0"/><path d="M243.88316,97.30646l28.15754,-14.47509c0,0 0,0 0.29028,28.03113z" data-paper-data="{&quot;index&quot;:null}" fill="#33a719" stroke="none" stroke-width="0"/><g data-paper-data="{&quot;index&quot;:null}"><path d="M227.85096,100.37296c-4.33164,0 -7.84312,-3.58282 -7.84312,-8.00246c0,-4.41964 3.51147,-8.00246 7.84312,-8.00246c4.33163,0 7.84314,3.58282 7.84314,8.00246c0,4.41964 -3.51148,8.00246 -7.84314,8.00246z" fill="#000000" stroke="#000000" stroke-width="0.33116"/><path d="M224.48902,93.13976c-2.00625,0 -3.63263,-1.64385 -3.63263,-3.67164c0,-2.0278 1.62639,-3.67166 3.63263,-3.67166c2.00625,0 3.63263,1.64387 3.63263,3.67166c0,2.0278 -1.62639,3.67164 -3.63263,3.67164z" fill="#ffffff" stroke="#ffffff" stroke-width="0.15266"/></g></g><g><path d="M381.97989,96.66318l43.53789,-24.37495c0,0 0,0 0.44884,47.20231z" data-paper-data="{&quot;index&quot;:null}" fill="#33a719" stroke="none" stroke-width="0"/><path d="M364.05198,50.53295c21.76498,0 39.40899,17.89252 39.40899,39.96406c0,22.07154 -17.64402,39.96404 -39.40899,39.96404c-21.76498,0 -39.40899,-17.89251 -39.40899,-39.96404c0,-22.07154 17.64402,-39.96406 39.40899,-39.96406z" data-paper-data="{&quot;index&quot;:null}" fill="#44e022" stroke="none" stroke-width="0"/><path d="M358.49277,96.30046l28.15754,-14.47509c0,0 0,0 0.29028,28.03113z" data-paper-data="{&quot;index&quot;:null}" fill="#33a719" stroke="none" stroke-width="0"/><g data-paper-data="{&quot;index&quot;:null}"><path d="M342.46057,99.36696c-4.33164,0 -7.84312,-3.58282 -7.84312,-8.00246c0,-4.41964 3.51147,-8.00246 7.84312,-8.00246c4.33163,0 7.84314,3.58282 7.84314,8.00246c0,4.41964 -3.51148,8.00246 -7.84314,8.00246z" fill="#000000" stroke="#000000" stroke-width="0.33116"/><path d="M339.09863,92.13376c-2.00625,0 -3.63263,-1.64385 -3.63263,-3.67164c0,-2.0278 1.62639,-3.67166 3.63263,-3.67166c2.00625,0 3.63263,1.64387 3.63263,3.67166c0,2.0278 -1.62639,3.67164 -3.63263,3.67164z" fill="#ffffff" stroke="#ffffff" stroke-width="0.15266"/></g></g><g><path d="M214.37028,187.16918l43.53789,-24.37495c0,0 0,0 0.44884,47.20231z" data-paper-data="{&quot;index&quot;:null}" fill="#33a719" stroke="none" stroke-width="0"/><path d="M196.44237,141.03895c21.76498,0 39.40899,17.89252 39.40899,39.96406c0,22.07154 -17.64402,39.96404 -39.40899,39.96404c-21.76498,0 -39.40899,-17.89251 -39.40899,-39.96404c0,-22.07154 17.64402,-39.96406 39.40899,-39.96406z" data-paper-data="{&quot;index&quot;:null}" fill="#44e022" stroke="none" stroke-width="0"/><path d="M190.88316,186.80646l28.15754,-14.47509c0,0 0,0 0.29028,28.03113z" data-paper-data="{&quot;index&quot;:null}" fill="#33a719" stroke="none" stroke-width="0"/><g data-paper-data="{&quot;index&quot;:null}"><path d="M174.85096,189.87296c-4.33164,0 -7.84312,-3.58282 -7.84312,-8.00246c0,-4.41964 3.51147,-8.00246 7.84312,-8.00246c4.33163,0 7.84314,3.58282 7.84314,8.00246c0,4.41964 -3.51148,8.00246 -7.84314,8.00246z" fill="#000000" stroke="#000000" stroke-width="0.33116"/><path d="M171.48902,182.63976c-2.00625,0 -3.63263,-1.64385 -3.63263,-3.67164c0,-2.0278 1.62639,-3.67166 3.63263,-3.67166c2.00625,0 3.63263,1.64387 3.63263,3.67166c0,2.0278 -1.62639,3.67164 -3.63263,3.67164z" fill="#ffffff" stroke="#ffffff" stroke-width="0.15266"/></g></g></g></g></svg>