<svg version="1.1" xmlns="http://www.w3.org/2000/svg" xmlns:xlink="http://www.w3.org/1999/xlink" width="198.81677" height="303.69758" viewBox="0,0,198.81677,303.69758"><g transform="translate(-220.59162,-28.15124)"><g data-paper-data="{&quot;isPaintingLayer&quot;:true}" fill-rule="nonzero" stroke-miterlimit="10" stroke-dasharray="" stroke-dashoffset="0" style="mix-blend-mode: normal"><path d="M324.47884,96.08384c7.5479,54.55136 -0.37535,234.07506 -0.37535,234.07506l-12.14775,1.68944c0,0 -1.68882,-186.21545 7.91808,-237.12272c1.26805,-6.71936 3.58748,-5.99634 4.605,1.35822z" fill="#6b9b1f" stroke="#7802ff" stroke-width="0" stroke-linecap="round" stroke-linejoin="round"/><path d="M416.44065,244.89265c-11.10354,36.88869 -57.11915,69.32765 -97.19474,67.87846c-42.51159,-1.53727 -88.40165,-39.38939 -97.13385,-79.24521c-16.31444,-74.46289 104.04142,-205.37466 104.04142,-205.37466c0,0 112.78364,142.00278 90.28717,216.74141z" fill="#85c227" stroke="#7802ff" stroke-width="0" stroke-linecap="round" stroke-linejoin="round"/><g fill="#6b9b1f" stroke="#7802ff" stroke-width="0" stroke-linecap="round" stroke-linejoin="round"><path d="M324.47929,96.08433c7.5479,54.55135 -0.37535,234.07506 -0.37535,234.07506l-12.14776,1.68943c0,0 -1.68882,-186.21544 7.91809,-237.12272c1.26805,-6.71935 3.58748,-5.99633 4.605,1.35823z"/><path d="M317.90352,253.90836l-2.55721,12.35147c0,0 -42.10871,-8.73752 -51.18721,-21.28505c-1.1983,-1.65619 -0.4759,-3.95581 1.41697,-4.57015c14.04007,-4.55683 52.32745,13.50373 52.32745,13.50373z"/><path d="M327.90912,151.80075l-2.55721,12.35147c0,0 -42.1087,-8.73751 -51.18721,-21.28507c-1.19829,-1.65617 -0.4759,-3.95579 1.41697,-4.57013c14.04006,-4.55682 52.32745,13.50373 52.32745,13.50373z"/><path d="M370.63299,185.25066c1.89287,0.61434 2.61526,2.91396 1.41697,4.57014c-9.0785,12.54754 -51.18722,21.28507 -51.18722,21.28507l-2.55721,-12.35148c0,0 38.28741,-18.06056 52.32746,-13.50373z"/></g><path d="M278.95597,163.11254c1.61055,-17.926 25.38763,-25.78895 41.30982,-27.49823c10.47829,-1.12485 23.72719,2.24684 29.73057,11.98639c8.98617,14.57872 10.2955,42.46483 -0.62589,53.24107c-3.89061,3.83892 8.26834,10.84284 11.52053,18.04729c4.39191,9.72919 1.61185,23.33522 -1.81901,31.6537c-6.31435,15.30981 -24.48922,25.60307 -39.4321,24.32534c-17.40246,-1.48803 -40.60663,-16.18486 -41.60054,-35.81319c-0.37939,-7.49202 7.7727,-14.81049 14.39584,-15.61506c10.46453,-1.27121 16.55039,21.4662 26.89174,18.64191c8.299,-2.26651 12.77576,-23.33951 7.19794,-23.62025c-7.51281,-0.37814 -20.01608,-0.8212 -24.59367,-9.05548c-2.16307,-3.89094 -0.6916,-9.89344 1.65641,-13.64585c4.83708,-7.7302 18.86343,-4.46854 22.35583,-13.06909c1.89754,-4.67294 1.01172,-12.95293 -3.174,-14.99553c-8.48911,-4.14263 -14.90005,16.63671 -24.0974,15.51181c-8.81095,-1.07761 -20.60849,-10.16177 -19.71606,-20.09484z" fill="#ff950b" stroke="#ffffff" stroke-width="9" stroke-linecap="butt" stroke-linejoin="miter"/></g></g></svg>