<svg version="1.1" xmlns="http://www.w3.org/2000/svg" xmlns:xlink="http://www.w3.org/1999/xlink" width="978.69086" height="409.13715" viewBox="0,0,978.69086,409.13715"><g transform="translate(134.02554,35.28642)"><g data-paper-data="{&quot;isPaintingLayer&quot;:true}" fill-rule="nonzero" stroke-miterlimit="10" stroke-dasharray="" stroke-dashoffset="0" style="mix-blend-mode: normal"><path d="M-27.31613,261.53878v-270.64456h681.58893v270.64456z" fill="#49a082" stroke="#4e8846" stroke-width="0.28216" stroke-linecap="butt" stroke-linejoin="miter"/><g fill="#1a4971" stroke="none"><g><path d="M283.07237,201.83033l-1.71543,3.54397c-14.33411,-6.52907 -28.66796,-13.058 -35.26548,-17.84672c-6.59753,-4.78871 -5.45826,-7.83679 1.99486,-5.16286c7.45312,2.67392 21.21944,11.06968 34.98606,19.4656z" stroke-width="0" stroke-linecap="round" stroke-linejoin="bevel"/><g stroke-width="0.26459" stroke-linecap="butt" stroke-linejoin="miter"><path d="M245.47437,142.78424c0.86875,117.92191 37.35612,119.37177 0,118.88848c-37.35612,-0.48329 -18.67806,-3.383 -18.67806,-3.383l-0.43438,-118.88848l1.30312,2.41642z"/><path d="M230.49776,141.92019l1.30312,-2.41642l-0.43437,118.88848c0,0 18.67807,2.8997 -18.67805,3.383c-37.35612,0.48329 -0.86875,-0.96657 0,-118.88847z"/></g><g stroke-linecap="butt" stroke-linejoin="miter"><path d="M215.04402,133.41807c-21.40077,0 -38.74953,-13.47004 -38.74953,-30.08619c0,-16.61615 17.34876,-30.0862 38.74953,-30.0862c21.40077,0 38.74953,13.47005 38.74953,30.0862c0,16.61615 -17.34876,30.08619 -38.74953,30.08619z" stroke-width="0.31572"/><path d="M278.41806,145.30987c-25.31966,0 -45.8453,-13.60341 -45.8453,-30.38408c0,-16.78066 20.52564,-30.38408 45.8453,-30.38408c25.31966,0 45.8453,13.60342 45.8453,30.38408c0,16.78067 -20.52564,30.38408 -45.8453,30.38408z" stroke-width="0.34512"/><path d="M177.86067,149.93155c-21.40077,0 -38.74952,-13.47004 -38.74952,-30.08619c0,-16.61615 17.34875,-30.08619 38.74952,-30.08619c21.40077,0 38.74952,13.47005 38.74952,30.08619c0,16.61614 -17.34875,30.08619 -38.74952,30.08619z" stroke-width="0.31572"/><path d="M263.96169,102.67012c-21.40077,0 -38.74952,-13.47004 -38.74952,-30.08619c0,-16.61615 17.34875,-30.08619 38.74952,-30.08619c21.40077,0 38.74952,13.47005 38.74952,30.08619c0,16.61615 -17.34875,30.08619 -38.74952,30.08619z" stroke-width="0.31572"/><path d="M218.04895,95.34443c-21.40077,0 -38.74952,-13.47005 -38.74952,-30.0862c0,-16.61615 17.34875,-30.08619 38.74952,-30.08619c21.40077,0 38.74953,13.47004 38.74953,30.08619c0,16.61615 -17.34876,30.0862 -38.74953,30.0862z" stroke-width="0.31572"/><path d="M171.60913,105.53986c-21.40077,0 -38.74953,-13.47005 -38.74953,-30.0862c0,-16.61615 17.34876,-30.08619 38.74953,-30.08619c21.40077,0 38.74953,13.47005 38.74953,30.08619c0,16.61615 -17.34876,30.0862 -38.74953,30.0862z" stroke-width="0.31572"/><path d="M228.67695,153.80686c-21.40077,0 -38.74952,-13.47005 -38.74952,-30.08619c0,-16.61615 17.34875,-30.08619 38.74952,-30.08619c21.40077,0 38.74953,13.47005 38.74953,30.08619c0,16.61615 -17.34876,30.08619 -38.74953,30.08619z" stroke-width="0.31572"/><path d="M297.3213,112.64242c-21.40077,0 -38.74953,-13.47004 -38.74953,-30.08619c0,-16.61615 17.34875,-30.08619 38.74953,-30.08619c21.40077,0 38.74952,13.47004 38.74952,30.08619c0,16.61615 -17.34875,30.08619 -38.74952,30.08619z" stroke-width="0.31572"/><path d="M273.04936,78.97602c-28.50792,0 -51.61816,-13.44548 -51.61816,-30.03131c0,-16.58583 23.11023,-30.03131 51.61816,-30.03131c28.50793,0 51.61816,13.44548 51.61816,30.03131c0,16.58583 -23.11024,30.03131 -51.61816,30.03131z" stroke-width="0.36407"/><path d="M215.90708,63.95347c-26.08578,5.93081 -52.53961,-2.121 -59.0863,-17.98423c-6.54668,-15.86322 9.29288,-33.53078 35.37866,-39.46159c26.08578,-5.93081 52.53962,2.121 59.0863,17.98422c6.54668,15.86322 -9.29288,33.53078 -35.37866,39.46159z" stroke-width="0.35621"/><path d="M280.96067,28.42167c10.2167,21.25468 4.16895,44.5878 -13.50802,52.11599c-17.67697,7.52819 -40.28926,-3.59933 -50.50596,-24.854c-10.2167,-21.25468 -4.16896,-44.5878 13.50802,-52.11599c17.67697,-7.52819 40.28927,3.59932 50.50597,24.85401z" stroke-width="0.35906"/><path d="M215.99818,152.60891c-19.9845,17.20478 -48.81959,20.28904 -64.40499,6.88891c-15.5854,-13.40014 -12.01923,-38.21032 7.96527,-55.41509c19.9845,-17.20477 48.81959,-20.28905 64.40499,-6.88891c15.5854,13.40014 12.01923,38.21032 -7.96527,55.4151z" stroke-width="0.38972"/><path d="M301.52116,98.82126c24.29046,15.31279 32.07329,40.19425 17.38344,55.5743c-14.68984,15.38004 -46.28962,15.43456 -70.58008,0.12177c-24.29046,-15.31279 -32.07328,-40.19425 -17.38344,-55.5743c14.68984,-15.38004 46.28962,-15.43456 70.58008,-0.12177z" stroke-width="0.4104"/><path d="M283.8693,207.38086c-9.6692,-9.1473 -12.39204,-22.71303 -6.08164,-30.29989c6.31041,-7.58686 19.26444,-6.32188 28.93364,2.82543c9.6692,9.1473 12.39204,22.71303 6.08164,30.29989c-6.31041,7.58686 -19.26444,6.32188 -28.93364,-2.82542z" stroke-width="0.19787"/><path d="M295.30613,208.57322c-10.02814,8.1081 -24.49746,9.56162 -32.31815,3.24653c-7.82068,-6.31509 -6.0312,-18.00738 3.99694,-26.11548c10.02814,-8.1081 24.49746,-9.56162 32.31815,-3.24653c7.82069,6.31509 6.0312,18.00738 -3.99694,26.11548z" stroke-width="0.18883"/></g></g><g><g stroke-linecap="butt" stroke-linejoin="miter"><g stroke-width="0.26459"><path d="M570.54454,151.41679l0.73477,-1.94533l-0.24492,95.71106c0,0 11.54611,23.96968 -9.51723,24.35875c-21.06334,0.38907 -1.50429,-22.4134 -1.01444,-117.34633z"/><path d="M579.97977,152.12385c0.48985,94.93293 21.06334,117.7354 0,117.34632c-21.06334,-0.38907 -10.53167,-24.35875 -10.53167,-24.35875l-0.24492,-95.71105l0.73477,1.94534z"/></g><g><path d="M605.59369,109.33932c-14.91196,-14.46362 -16.17142,-34.05995 -2.81311,-43.76965c13.35831,-9.70969 36.27589,-5.85589 51.18785,8.60773c14.91196,14.46362 16.17142,34.05996 2.81311,43.76965c-13.35831,9.70969 -36.27589,5.85589 -51.18785,-8.60773z" stroke-width="0.30795"/><path d="M578.13391,161.73165c-12.62974,-9.6403 -13.34578,-26.76696 -1.59931,-38.25347c11.74647,-11.4865 31.5073,-12.98315 44.13705,-3.34285c12.62974,9.6403 13.34578,26.76697 1.59931,38.25347c-11.74647,11.4865 -31.5073,12.98315 -44.13704,3.34285z" stroke-width="0.30123"/><path d="M506.17082,140.10459c-2.0245,-16.79049 11.08658,-31.72952 29.28441,-33.36728c18.19782,-1.63776 34.59125,10.64596 36.61575,27.43644c2.0245,16.79048 -11.08658,31.72952 -29.2844,33.36728c-18.19782,1.63776 -34.59125,-10.64596 -36.61575,-27.43644z" stroke-width="0.26459"/><path d="M592.24398,128.72631c-1.77762,-14.743 12.19045,-28.08134 31.19856,-29.79202c19.00811,-1.71068 35.85828,8.8541 37.6359,23.59709c1.77762,14.74299 -12.19045,28.08134 -31.19856,29.79202c-19.00811,1.71068 -35.85828,-8.8541 -37.6359,-23.59709z" stroke-width="0.3853"/><path d="M536.88149,110.5203c-1.50917,-12.51655 7.72289,-23.60417 20.62038,-24.76491c12.89749,-1.16074 24.57639,8.04495 26.08556,20.56149c1.50917,12.51655 -7.72289,23.60418 -20.62038,24.76492c-12.89749,1.16074 -24.57639,-8.04495 -26.08556,-20.5615z" stroke-width="0.26459"/><path d="M537.02143,106.31699c-2.30057,-19.08009 11.87575,-35.99124 31.66368,-37.77211c19.78793,-1.78087 37.69418,12.24294 39.99475,31.32303c2.30057,19.0801 -11.87575,35.99124 -31.66368,37.77211c-19.78793,1.78087 -37.69418,-12.24294 -39.99475,-31.32303z" stroke-width="0.26459"/><path d="M488.31602,93.93757c-2.30057,-19.08009 11.87574,-35.99125 31.66368,-37.77211c19.78793,-1.78086 37.69419,12.24294 39.99475,31.32303c2.30057,19.0801 -11.87574,35.99124 -31.66367,37.7721c-19.78793,1.78087 -37.69419,-12.24293 -39.99476,-31.32303z" stroke-width="0.26459"/><path d="M553.85617,52.83728c-2.30057,-19.08009 11.87575,-35.99124 31.66368,-37.77211c19.78793,-1.78087 37.69418,12.24294 39.99475,31.32303c2.30057,19.0801 -11.87575,35.99124 -31.66368,37.77211c-19.78793,1.78087 -37.69418,-12.24294 -39.99475,-31.32303z" stroke-width="0.26459"/><path d="M581.96772,55.33615c2.29467,19.03118 -11.80499,35.91486 -31.53373,37.76018c-19.72874,1.84532 -37.65574,-12.04276 -40.09354,-31.06055c-2.4378,-19.01779 11.5318,-36.00223 31.24285,-37.98553c19.71105,-1.9833 37.7394,11.78157 40.3202,30.78496l-35.765,3.72548z" stroke-width="0.26459"/><path d="M477.91258,120.29739c-2.0245,-16.79049 11.08658,-31.72953 29.2844,-33.36729c18.19783,-1.63776 34.59126,10.64596 36.61575,27.43644c2.0245,16.79049 -11.08658,31.72953 -29.2844,33.36728c-18.19783,1.63776 -34.59126,-10.64595 -36.61575,-27.43644z" stroke-width="0.26459"/><path d="M479.00544,81.08588c-2.0245,-16.79049 11.08658,-31.72953 29.2844,-33.36729c18.19782,-1.63776 34.59125,10.64595 36.61575,27.43644c2.0245,16.79049 -11.08658,31.72953 -29.2844,33.36729c-18.19783,1.63776 -34.59125,-10.64595 -36.61575,-27.43644z" stroke-width="0.26459"/><path d="M603.32105,60.95764c-2.02566,-16.80016 9.08838,-31.56739 24.8239,-32.98354c15.73553,-1.41615 30.13382,11.05503 32.15948,27.85519c2.02566,16.80016 -9.08838,31.5674 -24.82391,32.98355c-15.73553,1.41616 -30.13381,-11.05504 -32.15947,-27.85519z" stroke-width="0.24611"/></g></g><path d="M556.83212,204.26089c6.52571,3.63121 4.43537,6.27866 -3.50448,4.53016c-7.93985,-1.74849 -21.72857,-7.89286 -35.51755,-14.03734l2.21349,-3.35344c15.14157,4.61475 30.28283,9.2294 36.80854,12.86063z" stroke-width="0" stroke-linecap="round" stroke-linejoin="bevel"/><path d="M487.99411,183.22324c0,-9.18381 6.42307,-16.62875 14.34633,-16.62875c7.92325,0 14.34633,7.44494 14.34633,16.62875c0,9.18381 -6.42307,16.62875 -14.34633,16.62875c-7.92325,0 -14.34633,-7.44494 -14.34633,-16.62875z" stroke-width="0" stroke-linecap="round" stroke-linejoin="bevel"/><path d="M489.42875,199.18683c0,-5.51029 7.70768,-9.97725 17.21559,-9.97725c9.50791,0 17.21559,4.46696 17.21559,9.97725c0,5.51029 -7.70768,9.97725 -17.21559,9.97725c-9.50791,0 -17.21559,-4.46697 -17.21559,-9.97725z" stroke-width="0" stroke-linecap="round" stroke-linejoin="bevel"/><path d="M515.25213,204.50804c0,-6.24498 2.56923,-11.30755 5.73853,-11.30755c3.16931,0 5.73853,5.06257 5.73853,11.30755c0,6.24498 -2.56923,11.30755 -5.73853,11.30755c-3.16931,0 -5.73853,-5.06257 -5.73853,-11.30755z" stroke-width="0" stroke-linecap="round" stroke-linejoin="bevel"/><path d="M503.77507,189.87473c0,-6.97969 8.34998,-12.63785 18.65022,-12.63785c10.30024,0 18.65022,5.65816 18.65022,12.63785c0,6.97969 -8.34999,12.63785 -18.65022,12.63785c-10.30024,0 -18.65022,-5.65816 -18.65022,-12.63785z" stroke-width="0" stroke-linecap="round" stroke-linejoin="bevel"/></g><g stroke-width="0"><path d="M-12.44945,147.56054c0.69012,103.17908 41.43341,127.96225 11.75862,127.53938c-29.67479,-0.42287 -26.59601,-26.47462 -26.59601,-26.47462l-0.34505,-104.02481l1.03517,2.11432z" stroke-linecap="butt" stroke-linejoin="miter"/><path d="M-25.74215,144.6222l1.03517,-2.1143l-0.34507,104.02481c0,0 44.54843,28.15957 -20.46337,27.4975c-29.67675,-0.30222 -2.1193,-24.36029 -1.42918,-127.53937z" stroke-linecap="butt" stroke-linejoin="miter"/><path d="M-8.8903,227.68619c-8.59899,1.71281 -9.14535,-1.82335 -0.99539,-6.0003c8.14996,-4.17695 24.99562,-8.9943 41.84161,-13.81176l1.05499,4.17571c-16.65127,6.96184 -33.3022,13.92354 -41.90121,15.63635z" stroke-linecap="round" stroke-linejoin="bevel"/><path d="M-32.79925,194.51123c7.86238,3.47988 5.67623,6.49877 -3.65712,5.16066c-9.33335,-1.3381 -25.81314,-7.03317 -42.29324,-12.72834l2.26698,-3.79339c17.91068,3.94063 35.821,7.88117 43.68338,11.36107z" stroke-linecap="round" stroke-linejoin="bevel"/><path d="M-66.5267,8.34625c5.40952,4.89605 7.64769,10.66028 4.99908,12.87475c-2.64861,2.21447 -9.181,0.04062 -14.59052,-4.85544c-5.40952,-4.89606 -7.64768,-10.66027 -4.99908,-12.87474c2.64861,-2.21447 9.181,-0.04062 14.59052,4.85544z" stroke-linecap="round" stroke-linejoin="bevel"/><path d="M-113.02582,190.67875c0,-10.33322 8.09143,-18.70997 18.07272,-18.70997c9.98129,0 18.07273,8.37674 18.07273,18.70997c0,10.33322 -8.09144,18.70996 -18.07273,18.70996c-9.98129,0 -18.07272,-8.37674 -18.07272,-18.70996z" stroke-linecap="round" stroke-linejoin="bevel"/><path d="M47.23805,190.69695c2.95822,5.69531 -3.56309,13.49009 -14.56576,17.41013c-11.00267,3.92004 -22.32022,2.4809 -25.27845,-3.21441c-2.95822,-5.69531 3.56308,-13.4901 14.56576,-17.41014c11.00268,-3.92004 22.32023,-2.4809 25.27845,3.21442z" stroke-linecap="round" stroke-linejoin="bevel"/><path d="M14.21186,104.73535c-17.28481,-15.72782 -18.7447,-37.03698 -3.26074,-47.59536c15.48396,-10.55838 42.0483,-6.36773 59.33311,9.36009c17.28481,15.72782 18.7447,37.03699 3.26075,47.59537c-15.48396,10.55838 -42.0483,6.36773 -59.33311,-9.36009z" stroke-linecap="butt" stroke-linejoin="miter"/><path d="M-17.61745,161.70707c-14.63946,-10.48291 -15.46942,-29.10654 -1.85379,-41.59703c13.61563,-12.49049 36.52089,-14.11796 51.16035,-3.63504c14.63946,10.48292 15.46943,29.10654 1.8538,41.59704c-13.61563,12.4905 -36.5209,14.11795 -51.16035,3.63504z" stroke-linecap="butt" stroke-linejoin="miter"/><path d="M-101.03168,138.18968c-2.34664,-18.25807 12.85073,-34.50287 33.94428,-36.28378c21.09355,-1.78091 40.09559,11.57648 42.44224,29.83455c2.34664,18.25807 -12.85073,34.50287 -33.94428,36.28377c-21.09355,1.7809 -40.09559,-11.57647 -42.44223,-29.83454z" stroke-linecap="butt" stroke-linejoin="miter"/><path d="M-1.11365,141.20523c-2.26538,-23.54914 15.53537,-44.85461 39.75907,-47.5871c24.2237,-2.73249 45.69736,14.14274 47.96273,37.69189c2.26538,23.54915 -15.53536,44.85462 -39.75907,47.58711c-24.2237,2.73249 -45.69735,-14.14274 -47.96273,-37.69189z" stroke-linecap="butt" stroke-linejoin="miter"/><path d="M-65.43421,106.01954c-1.74931,-13.61056 8.9518,-25.66731 23.9016,-26.92951c14.9498,-1.2622 28.48712,8.74813 30.23643,22.35869c1.74931,13.61056 -8.9518,25.66731 -23.90159,26.92951c-14.9498,1.26219 -28.48712,-8.74813 -30.23643,-22.35869z" stroke-linecap="butt" stroke-linejoin="miter"/><path d="M-65.27197,101.44886c-2.66664,-20.7478 13.76548,-39.13709 36.70216,-41.07361c22.93668,-1.93652 43.69227,13.31304 46.35892,34.06085c2.66664,20.74781 -13.76547,39.13709 -36.70215,41.07361c-22.93668,1.93652 -43.69228,-13.31304 -46.35892,-34.06085z" stroke-linecap="butt" stroke-linejoin="miter"/><path d="M-121.72765,87.9874c-2.66664,-20.7478 13.76548,-39.13708 36.70216,-41.0736c22.93668,-1.93652 43.69228,13.31304 46.35892,34.06084c2.66664,20.74781 -13.76548,39.13709 -36.70215,41.07361c-22.93668,1.93652 -43.69228,-13.31305 -46.35892,-34.06085z" stroke-linecap="butt" stroke-linejoin="miter"/><path d="M-133.78653,116.65121c-2.34664,-18.25807 12.85073,-34.50287 33.94429,-36.28378c21.09355,-1.78091 40.09559,11.57647 42.44224,29.83454c2.34665,18.25807 -12.85074,34.50287 -33.94429,36.28378c-21.09355,1.7809 -40.09559,-11.57647 -42.44223,-29.83454z" stroke-linecap="butt" stroke-linejoin="miter"/><path d="M-132.51978,74.01238c-2.34664,-18.25807 12.85073,-34.50287 33.94429,-36.28377c21.09355,-1.7809 40.09559,11.57647 42.44224,29.83454c2.34665,18.25807 -12.85073,34.50287 -33.94428,36.28378c-21.09355,1.78091 -40.09559,-11.57647 -42.44224,-29.83454z" stroke-linecap="butt" stroke-linejoin="miter"/><path d="M11.51263,39.72802c0.87435,-22.58233 16.92466,-40.02177 35.84936,-38.95207c18.9247,1.0697 33.5574,20.24347 32.68305,42.8258c-0.87435,22.58234 -16.92466,40.02177 -35.84936,38.95207c-18.9247,-1.0697 -33.5574,-20.24346 -32.68305,-42.8258z" stroke-linecap="butt" stroke-linejoin="miter"/><path d="M47.91129,201.89266c6.04593,5.47206 3.96899,15.74239 -4.63897,22.93942c-8.60796,7.19703 -20.4873,8.59539 -26.53323,3.12333c-6.04593,-5.47206 -3.96899,-15.74239 4.63898,-22.93942c8.60797,-7.19703 20.4873,-8.59539 26.53323,-3.12333z" stroke-linecap="round" stroke-linejoin="bevel"/><path d="M-45.75839,43.29472c-2.66664,-20.7478 13.76548,-39.13709 36.70215,-41.07361c22.93668,-1.93652 43.69228,13.31305 46.35892,34.06085c2.66664,20.74781 -13.76548,39.13709 -36.70216,41.07361c-22.93668,1.93652 -43.69227,-13.31304 -46.35891,-34.06084z" stroke-linecap="butt" stroke-linejoin="miter"/><path d="M-13.31789,41.54523c3.40363,22.9094 -17.51013,43.2337 -46.77338,45.45507c-29.26326,2.22137 -55.85403,-14.49688 -59.46997,-37.39016c-3.61594,-22.89328 17.1049,-43.33887 46.34193,-45.72633c29.23702,-2.38746 55.97812,14.18245 59.80618,37.05841l-53.04954,4.48466z" stroke-linecap="butt" stroke-linejoin="miter"/><path d="M-95.40383,182.63844c-0.60874,-7.57126 8.55287,-14.29642 20.46303,-15.02106c11.91017,-0.72465 22.05874,4.82564 22.66749,12.3969c0.60874,7.57126 -8.55286,14.29642 -20.46303,15.02106c-11.91017,0.72465 -22.05874,-4.82564 -22.66749,-12.39689z" stroke-linecap="round" stroke-linejoin="bevel"/></g></g><g fill="#12334f" stroke="none"><g><path d="M412.56901,177.14539c7.47967,-2.99392 8.62301,0.41891 2.00196,5.7807c-6.62104,5.3618 -21.00597,12.67206 -35.39117,19.98246l-1.72155,-3.96809c13.81568,-9.40067 27.63107,-18.80116 35.11076,-21.79507z" stroke-width="0" stroke-linecap="round" stroke-linejoin="bevel"/><g stroke-width="0.26459" stroke-linecap="butt" stroke-linejoin="miter"><path d="M433.06305,131.746l1.30777,-2.70559l-0.43592,133.116c0,0 18.74464,3.24672 -18.74463,3.78785c-37.48927,0.54113 -0.87185,-1.08223 0,-133.116z"/><path d="M448.09304,132.94307c0.87185,132.03378 37.48927,133.65714 0,133.11601c-37.48926,-0.54113 -18.74463,-3.78785 -18.74463,-3.78785l-0.43592,-133.116l1.30777,2.70559z"/></g><g stroke-linecap="butt" stroke-linejoin="miter"><path d="M406.84144,88.65459c0,-18.60462 17.41059,-33.68664 38.88764,-33.68664c21.47705,0 38.88764,15.08203 38.88764,33.68665c0,18.60462 -17.41059,33.68665 -38.88764,33.68665c-21.47705,0 -38.88764,-15.08203 -38.88764,-33.68664z" stroke-width="0.31572"/><path d="M336.12045,101.63596c0,-18.78883 20.5988,-34.02018 46.0087,-34.02018c25.4099,0 46.00871,15.23135 46.00871,34.02018c0,18.78883 -20.5988,34.02018 -46.00871,34.02018c-25.4099,0 -46.0087,-15.23135 -46.0087,-34.02018z" stroke-width="0.34512"/><path d="M444.15732,107.14426c0,-18.60462 17.41058,-33.68664 38.88763,-33.68664c21.47705,0 38.88763,15.08203 38.88763,33.68665c0,18.60462 -17.41058,33.68665 -38.88763,33.68665c-21.47705,0 -38.88763,-15.08203 -38.88763,-33.68664z" stroke-width="0.31572"/><path d="M357.74942,54.22699c0,-18.60462 17.41059,-33.68664 38.88764,-33.68664c21.47705,0 38.88764,15.08203 38.88764,33.68665c0,18.60462 -17.41059,33.68665 -38.88764,33.68665c-21.47705,0 -38.88764,-15.08203 -38.88764,-33.68664z" stroke-width="0.31572"/><path d="M403.8258,46.02463c0,-18.60462 17.41058,-33.68664 38.88763,-33.68664c21.47705,0 38.88763,15.08203 38.88763,33.68665c0,18.60462 -17.41058,33.68664 -38.88763,33.68664c-21.47705,0 -38.88763,-15.08202 -38.88763,-33.68664z" stroke-width="0.31572"/><path d="M450.43115,57.44016c0,-18.60462 17.41058,-33.68664 38.88763,-33.68664c21.47705,0 38.88763,15.08202 38.88763,33.68665c0,18.60462 -17.41058,33.68665 -38.88763,33.68665c-21.47705,0 -38.88763,-15.08203 -38.88763,-33.68665z" stroke-width="0.31572"/><path d="M393.15992,111.48334c0,-18.60462 17.41059,-33.68664 38.88764,-33.68664c21.47705,0 38.88763,15.08203 38.88763,33.68665c0,18.60462 -17.41058,33.68665 -38.88763,33.68665c-21.47705,0 -38.88764,-15.08203 -38.88764,-33.68665z" stroke-width="0.31572"/><path d="M324.27091,65.39269c0,-18.60462 17.41058,-33.68664 38.88763,-33.68664c21.47705,0 38.88763,15.08203 38.88763,33.68665c0,18.60462 -17.41058,33.68665 -38.88763,33.68665c-21.47705,0 -38.88763,-15.08203 -38.88763,-33.68664z" stroke-width="0.31572"/><path d="M335.71485,27.75885c0,-18.57068 23.19261,-33.62519 51.80214,-33.62519c28.60953,0 51.80214,15.05451 51.80214,33.62519c0,18.57068 -23.19261,33.62519 -51.80214,33.62519c-28.60953,0 -51.80214,-15.0545 -51.80214,-33.62518z" stroke-width="0.36407"/><path d="M409.35818,0.37972c6.57002,-17.76159 33.11814,-26.77697 59.2969,-20.13642c26.17876,6.64055 42.07477,26.42241 35.50475,44.184c-6.57002,17.7616 -33.11813,26.77698 -59.29689,20.13643c-26.17876,-6.64055 -42.07477,-26.42241 -35.50476,-44.18401z" stroke-width="0.35621"/><path d="M430.26346,-23.04853c17.73998,8.4291 23.80928,34.55453 13.55616,58.35278c-10.25311,23.79825 -32.94599,36.25741 -50.68597,27.82831c-17.73998,-8.4291 -23.80928,-34.55452 -13.55617,-58.35277c10.25311,-23.79825 32.946,-36.25741 50.68598,-27.82831z" stroke-width="0.35906"/><path d="M436.77786,81.78198c15.64095,-15.00374 44.57882,-11.55038 64.63455,7.71331c20.05572,19.26369 23.63461,47.04294 7.99366,62.04669c-15.64095,15.00375 -44.57882,11.55038 -64.63454,-7.71331c-20.05572,-19.26369 -23.63461,-47.04294 -7.99366,-62.04669z" stroke-width="0.38972"/><path d="M429.77535,83.74052c14.74221,17.2206 6.93163,45.07965 -17.4454,62.22494c-24.37703,17.1453 -56.08943,17.08425 -70.83164,-0.13634c-14.74221,-17.2206 -6.93163,-45.07964 17.4454,-62.22494c24.37703,-17.1453 56.08943,-17.08425 70.83164,0.13634z" stroke-width="0.4104"/><path d="M347.62171,208.31879c-6.3329,-8.4948 -3.60035,-23.68394 6.10332,-33.92592c9.70367,-10.24197 22.70387,-11.65834 29.03677,-3.16355c6.3329,8.4948 3.60035,23.68394 -6.10332,33.92592c-9.70367,10.24197 -22.70387,11.65834 -29.03677,3.16355z" stroke-width="0.19787"/><path d="M361.16971,177.24954c7.84856,-7.07082 22.36946,-5.44335 32.43334,3.63505c10.06387,9.07841 11.85975,22.16994 4.01119,29.24076c-7.84856,7.07082 -22.36947,5.44335 -32.43334,-3.63505c-10.06387,-9.07841 -11.85974,-22.16994 -4.01118,-29.24076z" stroke-width="0.18883"/></g></g><g><g stroke-linecap="butt" stroke-linejoin="miter"><g stroke-width="0.26459"><path d="M122.11818,130.94098c0.4916,106.29367 20.12036,131.82494 -1.01805,131.38931c-21.13841,-0.43563 -9.55115,-27.2738 -9.55115,-27.2738l-0.2458,-107.16491l0.73739,2.17813z"/><path d="M112.64931,129.99012l0.73739,-2.17813l-0.2458,107.16492c0,0 10.56921,26.83816 -10.5692,27.27379c-21.13841,0.43563 -0.4916,-25.09564 0,-131.3893z"/></g><g><path d="M25.49619,92.5946c-13.40593,-10.87167 -12.14197,-32.81312 2.82314,-49.00761c14.9651,-16.19449 37.96437,-20.50949 51.3703,-9.63782c13.40593,10.87167 12.14197,32.81313 -2.82314,49.00762c-14.96511,16.19449 -37.96436,20.50949 -51.37029,9.63782z" stroke-width="0.30795"/><path d="M60.12978,137.87607c-11.78834,-12.86111 -11.06975,-32.03734 1.60501,-42.83131c12.67476,-10.79396 32.50602,-9.11821 44.29436,3.7429c11.78834,12.86111 11.06975,32.03734 -1.60501,42.83131c-12.67476,10.79397 -32.50602,9.11821 -44.29436,-3.7429z" stroke-width="0.30123"/><path d="M139.89746,148.12356c-18.26269,-1.83375 -31.42049,-18.56056 -29.38878,-37.36038c2.03171,-18.79982 18.48357,-32.55354 36.74626,-30.7198c18.26269,1.83375 31.42049,18.56056 29.38878,37.36039c-2.03171,18.79983 -18.48358,32.55354 -36.74626,30.71979z" stroke-width="0.26459"/><path d="M52.49374,131.08481c-19.07586,-1.9154 -33.09373,-16.84995 -31.30976,-33.35726c1.78396,-16.50731 18.69419,-28.33639 37.77004,-26.42098c19.07586,1.9154 33.09372,16.84995 31.30977,33.35727c-1.78396,16.50731 -18.69419,28.33639 -37.77004,26.42099z" stroke-width="0.3853"/><path d="M119.64506,107.3012c-12.94346,-1.29965 -22.20843,-13.71414 -20.69388,-27.72856c1.51455,-14.01441 13.23508,-24.32177 26.17854,-23.02212c12.94346,1.29965 22.20842,13.71414 20.69387,27.72856c-1.51455,14.01442 -13.23507,24.32177 -26.17853,23.02212z" stroke-width="0.26459"/><path d="M105.54586,114.64426c-19.85846,-1.99398 -34.0853,-20.92891 -31.77654,-42.29234c2.30876,-21.36343 20.27885,-37.06548 40.13731,-35.0715c19.85846,1.99398 34.08529,20.92891 31.77653,42.29235c-2.30876,21.36343 -20.27884,37.06548 -40.1373,35.0715z" stroke-width="0.26459"/><path d="M154.42486,100.78337c-19.85846,-1.99398 -34.0853,-20.9289 -31.77653,-42.29234c2.30876,-21.36344 20.27884,-37.06548 40.13731,-35.0715c19.85846,1.99398 34.0853,20.92891 31.77653,42.29234c-2.30876,21.36343 -20.27884,37.06548 -40.1373,35.0715z" stroke-width="0.26459"/><path d="M88.65111,54.76457c-19.85846,-1.99398 -34.0853,-20.9289 -31.77654,-42.29234c2.30877,-21.36343 20.27885,-37.06548 40.13731,-35.0715c19.85846,1.99398 34.0853,20.92891 31.77653,42.29234c-2.30876,21.36344 -20.27884,37.06548 -40.1373,35.0715z" stroke-width="0.26459"/><path d="M136.53358,26.1014l-35.89248,-4.17131c2.59001,-21.27755 20.68262,-36.68967 40.46392,-34.46903c19.78131,2.22064 33.80069,21.23764 31.3542,42.53131c-2.44649,21.29366 -20.43738,36.84375 -40.23644,34.7776c-19.79905,-2.06615 -33.94897,-20.97033 -31.64612,-42.27899z" stroke-width="0.26459"/><path d="M168.25643,125.946c-18.26269,-1.83375 -31.4205,-18.56056 -29.38879,-37.36039c2.03171,-18.79982 18.48357,-32.55355 36.74626,-30.7198c18.26269,1.83375 31.4205,18.56056 29.38879,37.36039c-2.03171,18.79982 -18.48357,32.55355 -36.74626,30.7198z" stroke-width="0.26459"/><path d="M167.15966,82.042c-18.26269,-1.83375 -31.42049,-18.56057 -29.38878,-37.36039c2.03171,-18.79982 18.48357,-32.55354 36.74626,-30.71979c18.26269,1.83375 31.4205,18.56056 29.38879,37.36039c-2.03171,18.79982 -18.48358,32.55355 -36.74627,30.7198z" stroke-width="0.26459"/><path d="M46.87312,59.97386c-15.79161,-1.58563 -26.94526,-18.12008 -24.91238,-36.93073c2.03288,-18.81065 16.48248,-32.77428 32.27409,-31.18865c15.79161,1.58563 26.94527,18.12008 24.91239,36.93073c-2.03288,18.81065 -16.48249,32.77429 -32.2741,31.18866z" stroke-width="0.24611"/></g></g><path d="M162.74158,174.83805l2.22138,3.75475c-13.83813,6.8798 -27.67599,13.75947 -35.64415,15.71721c-7.96815,1.95775 -10.06594,-1.00653 -3.51697,-5.07229c6.54897,-4.06578 21.7442,-9.23266 36.93973,-14.39967z" stroke-width="0" stroke-linecap="round" stroke-linejoin="bevel"/><path d="M180.48776,184.30121c-7.9515,0 -14.39747,-8.33589 -14.39747,-18.61873c0,-10.28284 6.44597,-18.61873 14.39747,-18.61873c7.9515,0 14.39746,8.33589 14.39746,18.61873c0,10.28284 -6.44596,18.61873 -14.39746,18.61873z" stroke-width="0" stroke-linecap="round" stroke-linejoin="bevel"/><path d="M176.16852,194.72769c-9.5418,0 -17.27695,-5.00153 -17.27695,-11.17124c0,-6.1697 7.73515,-11.17124 17.27695,-11.17124c9.5418,0 17.27695,5.00154 17.27695,11.17124c0,6.1697 -7.73516,11.17124 -17.27695,11.17124z" stroke-width="0" stroke-linecap="round" stroke-linejoin="bevel"/><path d="M161.77105,202.17519c-3.1806,0 -5.75898,-5.6684 -5.75898,-12.66073c0,-6.99233 2.57838,-12.66074 5.75898,-12.66074c3.1806,0 5.75899,5.66841 5.75899,12.66074c0,6.99233 -2.57839,12.66073 -5.75899,12.66073z" stroke-width="0" stroke-linecap="round" stroke-linejoin="bevel"/><path d="M160.33131,187.2802c-10.33694,0 -18.7167,-6.33528 -18.7167,-14.15024c0,-7.81496 8.37976,-14.15024 18.7167,-14.15024c10.33694,0 18.7167,6.33527 18.7167,14.15024c0,7.81496 -8.37975,14.15024 -18.7167,14.15024z" stroke-width="0" stroke-linecap="round" stroke-linejoin="bevel"/></g><g stroke-width="0"><path d="M736.8536,142.92682l1.03886,-2.36734l-0.34628,116.47358c0,0 3.08975,29.16941 -26.69081,29.64288c-29.78057,0.47348 11.10795,-27.27553 11.80053,-142.80218z" stroke-linecap="butt" stroke-linejoin="miter"/><path d="M757.274,142.67604c0.69258,115.52666 28.34825,142.46377 -1.43427,142.80216c-65.24352,0.7413 -20.53632,-30.78816 -20.53632,-30.78816l-0.3463,-116.47358l1.03887,2.36733z" stroke-linecap="butt" stroke-linejoin="miter"/><path d="M677.03351,216.08058l1.05875,-4.67542c16.90603,5.39396 33.81174,10.7878 41.99074,15.46462c8.17902,4.67681 7.63071,8.63615 -0.99893,6.71836c-8.62965,-1.91778 -25.33993,-9.7126 -42.05056,-17.50756z" stroke-linecap="round" stroke-linejoin="bevel"/><path d="M786.91731,183.72243l2.27506,4.24735c-16.53885,6.37672 -33.07737,12.75332 -42.44398,14.25155c-9.36662,1.49824 -11.56056,-1.88192 -3.67016,-5.77824c7.8904,-3.89633 25.86456,-8.30845 43.83908,-12.72067z" stroke-linecap="round" stroke-linejoin="bevel"/><path d="M791.56841,-17.43698c2.65805,2.47948 0.41191,8.93352 -5.01689,14.41548c-5.4288,5.48197 -11.98448,7.91598 -14.64253,5.4365c-2.65805,-2.47948 -0.41191,-8.93351 5.01689,-14.41548c5.4288,-5.48197 11.98448,-7.91597 14.64252,-5.43649z" stroke-linecap="round" stroke-linejoin="bevel"/><path d="M805.45361,213.10099c-10.01687,0 -18.13714,-9.37919 -18.13714,-20.94901c0,-11.56982 8.12027,-20.949 18.13714,-20.949c10.01687,0 18.13714,9.37919 18.13714,20.94901c0,11.56982 -8.12028,20.94901 -18.13714,20.94901z" stroke-linecap="round" stroke-linejoin="bevel"/><path d="M688.1242,188.57326c11.04189,4.38916 17.58645,13.11676 14.61768,19.49363c-2.96877,6.37688 -14.32666,7.98824 -25.36855,3.59908c-11.04189,-4.38916 -17.58645,-13.11675 -14.61768,-19.49363c2.96877,-6.37688 14.32666,-7.98825 25.36855,-3.59909z" stroke-linecap="round" stroke-linejoin="bevel"/><path d="M636.35497,106.40385c-15.53914,-11.82192 -14.07406,-35.68118 3.27237,-53.29117c17.34642,-17.60999 44.00545,-22.30214 59.54459,-10.48022c15.53914,11.82191 14.07405,35.68118 -3.27237,53.29117c-17.34642,17.60998 -44.00545,22.30214 -59.54459,10.48023z" stroke-linecap="butt" stroke-linejoin="miter"/><path d="M676.49961,155.64317c-13.66416,-13.98524 -12.83122,-34.83759 1.86041,-46.57501c14.69163,-11.73742 37.67854,-9.9152 51.3427,4.07005c13.66416,13.98525 12.83122,34.83759 -1.86041,46.57501c-14.69163,11.73742 -37.67854,9.91519 -51.3427,-4.07005z" stroke-linecap="butt" stroke-linejoin="miter"/><path d="M768.96035,166.78635c-21.16874,-1.99403 -36.42028,-20.18286 -34.06527,-40.6259c2.35501,-20.44303 21.42477,-35.39891 42.59351,-33.40488c21.16874,1.99403 36.42028,20.18287 34.06527,40.6259c-2.35501,20.44304 -21.42477,35.39891 -42.59351,33.40488z" stroke-linecap="butt" stroke-linejoin="miter"/><path d="M663.146,178.96042c-24.31004,-3.05949 -42.17423,-26.91461 -39.90078,-53.28191c2.27346,-26.3673 23.82365,-45.26201 48.13369,-42.20252c24.31004,3.05949 42.17423,26.91461 39.90078,53.28191c-2.27346,26.3673 -23.82365,45.26201 -48.13369,42.20252z" stroke-linecap="butt" stroke-linejoin="miter"/><path d="M745.4853,122.39588c-15.00309,-1.41325 -25.74234,-14.91285 -23.98679,-30.1522c1.75555,-15.23935 15.34111,-26.44762 30.3442,-25.03438c15.00309,1.41325 25.74233,14.91284 23.98678,30.15219c-1.75555,15.23935 -15.34111,26.44763 -30.34419,25.03439z" stroke-linecap="butt" stroke-linejoin="miter"/><path d="M729.14254,130.38078c-23.01843,-2.16826 -39.50912,-22.75821 -36.83297,-45.98893c2.67615,-23.23072 23.50572,-40.30521 46.52415,-38.13695c23.01843,2.16826 39.50912,22.75821 36.83298,45.98894c-2.67615,23.23072 -23.50572,40.30521 -46.52415,38.13695z" stroke-linecap="butt" stroke-linejoin="miter"/><path d="M785.79944,115.30838c-23.01843,-2.16827 -39.50912,-22.75821 -36.83298,-45.98893c2.67615,-23.23072 23.50572,-40.30521 46.52416,-38.13695c23.01843,2.16826 39.50911,22.75821 36.83297,45.98894c-2.67615,23.23073 -23.50572,40.30522 -46.52415,38.13695z" stroke-linecap="butt" stroke-linejoin="miter"/><path d="M801.83194,142.67034c-21.16874,-1.99403 -36.42028,-20.18287 -34.06527,-40.6259c2.35501,-20.44303 21.42477,-35.3989 42.59351,-33.40487c21.16874,1.99403 36.42028,20.18287 34.06527,40.6259c-2.35501,20.44303 -21.42477,35.39891 -42.59351,33.40487z" stroke-linecap="butt" stroke-linejoin="miter"/><path d="M800.56067,94.92888c-21.16874,-1.99403 -36.42028,-20.18287 -34.06527,-40.6259c2.35501,-20.44303 21.42477,-35.3989 42.59351,-33.40488c21.16874,1.99403 36.42028,20.18287 34.06527,40.6259c-2.35501,20.44303 -21.42477,35.39891 -42.59351,33.40488z" stroke-linecap="butt" stroke-linejoin="miter"/><path d="M665.80887,71.08759c-18.99216,1.19772 -35.09966,-18.32871 -35.97713,-43.6135c-0.87747,-25.28479 13.80738,-46.75311 32.79954,-47.95082c18.99216,-1.19771 35.09966,18.32872 35.97713,43.61351c0.87747,25.28479 -13.80738,46.7531 -32.79954,47.95081z" stroke-linecap="butt" stroke-linejoin="miter"/><path d="M688.70782,208.20497c8.63864,8.0583 10.72299,19.5577 4.65551,25.68461c-6.06748,6.12691 -17.98916,4.5612 -26.6278,-3.49711c-8.63864,-8.0583 -10.72298,-19.55769 -4.6555,-25.68461c6.06748,-6.12691 17.98915,-4.56121 26.6278,3.4971z" stroke-linecap="round" stroke-linejoin="bevel"/><path d="M709.55941,65.26726c-23.01843,-2.16826 -39.50912,-22.75822 -36.83297,-45.98894c2.67615,-23.23072 23.50572,-40.30522 46.52415,-38.13695c23.01843,2.16827 39.50912,22.75822 36.83298,45.98894c-2.67615,23.23072 -23.50572,40.30522 -46.52415,38.13695z" stroke-linecap="butt" stroke-linejoin="miter"/><path d="M776.86165,29.51762l-53.23863,-5.02134c3.8417,-25.61355 30.67812,-44.1664 60.01935,-41.49323c29.34123,2.67317 50.13593,25.5655 46.5071,51.19846c-3.62883,25.63296 -30.31437,44.35189 -59.68193,41.86469c-29.36756,-2.4872 -50.35586,-25.24372 -46.9401,-50.89472z" stroke-linecap="butt" stroke-linejoin="miter"/><path d="M783.15767,197.02991c-11.95262,-0.81136 -21.14688,-8.34133 -20.53597,-16.81866c0.61091,-8.47733 10.79566,-14.69181 22.74828,-13.88044c11.95262,0.81136 21.14687,8.34133 20.53596,16.81865c-0.61091,8.47733 -10.79566,14.69181 -22.74827,13.88045z" stroke-linecap="round" stroke-linejoin="bevel"/></g></g><path d="M-23.68485,373.72307v-119.28331h668.47221v119.28331z" fill="#3b6600" stroke="#4e8846" stroke-width="0.25532" stroke-linecap="butt" stroke-linejoin="miter"/><g><g><path d="M348.51029,217.75898l-1.84344,4.43075c-15.40373,-8.16278 -30.80716,-16.3254 -37.89698,-22.31236c-7.08983,-5.98695 -5.86554,-9.79772 2.14371,-6.45471c8.00927,3.343 22.80284,13.83955 37.59672,24.33632z" fill="#9e5423" stroke="#0000ff" stroke-width="0" stroke-linecap="round" stroke-linejoin="bevel"/><g fill="#9e5423" stroke="#9e5423" stroke-width="0.26459" stroke-linecap="butt" stroke-linejoin="miter"><path d="M308.10674,143.93828c0.93358,147.42853 40.14362,149.24117 0,148.63695c-40.14362,-0.60422 -20.07181,-4.2295 -20.07181,-4.2295l-0.46679,-148.63695l1.40036,3.02106z"/><path d="M292.01258,142.85803l1.40036,-3.02106l-0.46679,148.63695c0,0 20.07182,3.62528 -20.0718,4.2295c-40.14362,0.60422 -0.93358,-1.20842 0,-148.63694z"/></g><g fill="#41972a" stroke="#41972a" stroke-linecap="butt" stroke-linejoin="miter"><path d="M275.40568,132.2285c-22.99769,0 -41.641,-16.84055 -41.641,-37.61441c0,-20.77386 18.64331,-37.61441 41.641,-37.61441c22.99769,0 41.641,16.84054 41.641,37.61441c0,20.77387 -18.64331,37.61441 -41.641,37.61441z" stroke-width="0.31572"/><path d="M343.50868,147.09588c-27.209,0 -49.26626,-17.00729 -49.26626,-37.98684c0,-20.97955 22.05726,-37.98683 49.26626,-37.98683c27.209,0 49.26626,17.00728 49.26626,37.98684c0,20.97955 -22.05726,37.98684 -49.26626,37.98684z" stroke-width="0.34512"/><path d="M235.44773,152.87401c-22.99769,0 -41.641,-16.84055 -41.641,-37.61441c0,-20.77386 18.64331,-37.61441 41.641,-37.61441c22.99769,0 41.641,16.84055 41.641,37.61441c0,20.77386 -18.64331,37.61441 -41.641,37.61441z" stroke-width="0.31572"/><path d="M327.97357,93.78674c-22.99769,0 -41.641,-16.84054 -41.641,-37.61441c0,-20.77386 18.64331,-37.61441 41.641,-37.61441c22.99769,0 41.641,16.84054 41.641,37.61441c0,20.77387 -18.64331,37.61441 -41.641,37.61441z" stroke-width="0.31572"/><path d="M278.63484,84.628c-22.99769,0 -41.641,-16.84054 -41.641,-37.61441c0,-20.77386 18.64331,-37.61441 41.641,-37.61441c22.99769,0 41.64099,16.84054 41.64099,37.61441c0,20.77387 -18.6433,37.61441 -41.64099,37.61441z" stroke-width="0.31572"/><path d="M228.7297,97.37454c-22.99769,0 -41.641,-16.84054 -41.641,-37.6144c0,-20.77386 18.64331,-37.61441 41.641,-37.61441c22.99769,0 41.641,16.84054 41.641,37.61441c0,20.77386 -18.64331,37.61441 -41.641,37.61441z" stroke-width="0.31572"/><path d="M290.0559,157.71901c-22.99769,0 -41.641,-16.84054 -41.641,-37.61441c0,-20.77386 18.64331,-37.61441 41.641,-37.61441c22.99769,0 41.641,16.84055 41.641,37.61441c0,20.77387 -18.64331,37.61441 -41.641,37.61441z" stroke-width="0.31572"/><path d="M363.82246,106.25432c-22.99769,0 -41.641,-16.84055 -41.641,-37.61441c0,-20.77386 18.64331,-37.61441 41.641,-37.61441c22.99769,0 41.641,16.84054 41.641,37.61441c0,20.77387 -18.64331,37.61441 -41.641,37.61441z" stroke-width="0.31572"/><path d="M337.73937,64.16386c-30.63518,0 -55.46989,-16.80983 -55.46989,-37.54579c0,-20.73596 24.83472,-37.54578 55.46989,-37.54578c30.63518,0 55.46988,16.80982 55.46988,37.54578c0,20.73596 -24.83471,37.54579 -55.46988,37.54579z" stroke-width="0.36407"/><path d="M276.33315,45.38234c-28.03229,7.41483 -56.4601,-2.65172 -63.49529,-22.48427c-7.03519,-19.83254 9.98632,-41.92091 38.01861,-49.33573c28.03229,-7.41482 56.4601,2.65173 63.49529,22.48427c7.03519,19.83255 -9.98631,41.9209 -38.0186,49.33573z" stroke-width="0.35621"/><path d="M346.24101,0.95972c10.97906,26.57306 4.48004,55.74464 -14.51598,65.15654c-18.99602,9.41191 -43.29563,-4.49996 -54.2747,-31.07302c-10.97906,-26.57306 -4.48004,-55.74463 14.51599,-65.15654c18.99602,-9.41191 43.29564,4.49995 54.2747,31.07302z" stroke-width="0.35906"/><path d="M276.43104,156.2213c-21.47573,21.50978 -52.46249,25.3658 -69.21087,8.61266c-16.74838,-16.75314 -12.91609,-47.77136 8.55964,-69.28115c21.47573,-21.50978 52.46249,-25.36581 69.21087,-8.61267c16.74838,16.75314 12.91609,47.77137 -8.55964,69.28116z" stroke-width="0.38972"/><path d="M368.33572,88.97481c26.103,19.14439 34.46658,50.25173 18.68058,69.4802c-15.786,19.22847 -49.74374,19.29662 -75.84674,0.15223c-26.103,-19.14438 -34.46657,-50.25173 -18.68058,-69.48019c15.786,-19.22846 49.74373,-19.29662 75.84673,-0.15224z" stroke-width="0.4104"/><path d="M349.36669,224.69837c-10.39071,-11.43616 -13.31674,-28.39632 -6.53545,-37.88158c6.78129,-9.48526 20.70195,-7.90375 31.09266,3.53241c10.39072,11.43616 13.31673,28.39632 6.53545,37.88159c-6.78129,9.48526 -20.70194,7.90374 -31.09266,-3.53242z" stroke-width="0.19787"/><path d="M361.65692,226.18909c-10.77643,10.13692 -26.32545,11.95415 -34.72971,4.0589c-8.40427,-7.89525 -6.48125,-22.51323 4.29519,-32.65015c10.77643,-10.13692 26.32545,-11.95415 34.72972,-4.0589c8.40427,7.89525 6.48124,22.51323 -4.29519,32.65015z" stroke-width="0.18883"/></g></g><g><g stroke-linecap="butt" stroke-linejoin="miter"><g fill="#c87137" stroke="#c87137" stroke-width="0.26459"><path d="M546.42229,158.87146l0.7896,-2.4321l-0.2632,119.66004c0,0 12.40768,29.9674 -10.2274,30.45383c-22.63508,0.48643 -1.61653,-28.02171 -1.09013,-146.70892z"/><path d="M556.56157,159.75545c0.5264,118.68721 22.63508,147.19534 0,146.70891c-22.63508,-0.48643 -11.31753,-30.45383 -11.31753,-30.45383l-0.2632,-119.66004l0.7896,2.4321z"/></g><g fill="#4eb632" stroke="#4eb632"><path d="M584.0868,106.2653c-16.02468,-18.08272 -17.37813,-42.58248 -3.02302,-54.72176c14.35511,-12.13927 38.98279,-7.32115 55.00747,10.76157c16.02468,18.08272 17.37813,42.58249 3.02302,54.72176c-14.35511,12.13927 -38.98279,7.32115 -55.00746,-10.76157z" stroke-width="0.30795"/><path d="M554.57798,171.76733c-13.57218,-12.05251 -14.34164,-33.46463 -1.71865,-47.82531c12.62299,-14.36068 33.85836,-16.23182 47.43053,-4.17931c13.57218,12.05251 14.34164,33.46464 1.71865,47.82532c-12.62299,14.36068 -33.85836,16.23182 -47.43053,4.17931z" stroke-width="0.30123"/><path d="M477.24503,144.72872c-2.17557,-20.99183 11.91386,-39.66894 31.4696,-41.7165c19.55574,-2.04756 37.17244,13.3098 39.34801,34.30163c2.17557,20.99183 -11.91386,39.66895 -31.4696,41.71651c-19.55574,2.04756 -37.17244,-13.3098 -39.348,-34.30163z" stroke-width="0.26459"/><path d="M569.74094,130.50332c-1.91026,-18.43202 13.1001,-35.10789 33.52658,-37.24662c20.42649,-2.13873 38.53401,11.06958 40.44428,29.5016c1.91026,18.43202 -13.1001,35.10789 -33.52659,37.24662c-20.42649,2.13873 -38.53401,-11.06958 -40.44427,-29.5016z" stroke-width="0.3853"/><path d="M510.24732,107.74178c-1.62178,-15.64845 8.29916,-29.51045 22.15906,-30.96163c13.8599,-1.45118 26.41027,10.05797 28.03206,25.70643c1.62179,15.64845 -8.29917,29.51044 -22.15906,30.96163c-13.8599,1.45119 -26.41027,-10.05797 -28.03205,-25.70643z" stroke-width="0.26459"/><path d="M510.3977,102.48671c-2.47223,-23.85435 12.76192,-44.99703 34.02641,-47.22351c21.2645,-2.22648 40.50691,15.30639 42.97914,39.16074c2.47223,23.85435 -12.76191,44.99704 -34.02641,47.22351c-21.2645,2.22647 -40.50692,-15.30639 -42.97915,-39.16074z" stroke-width="0.26459"/><path d="M458.05791,87.00969c-2.47223,-23.85435 12.76191,-44.99703 34.02641,-47.22351c21.26449,-2.22648 40.50691,15.30639 42.97914,39.16074c2.47223,23.85435 -12.76191,44.99704 -34.0264,47.22351c-21.2645,2.22647 -40.50691,-15.30638 -42.97915,-39.16073z" stroke-width="0.26459"/><path d="M528.48864,35.62523c-2.47223,-23.85435 12.76191,-44.99703 34.0264,-47.22351c21.2645,-2.22648 40.50692,15.30638 42.97915,39.16074c2.47223,23.85435 -12.76191,44.99704 -34.0264,47.22351c-21.2645,2.22647 -40.50692,-15.30639 -42.97915,-39.16074z" stroke-width="0.26459"/><path d="M558.69787,38.74936c2.46589,23.79319 -12.68588,44.90154 -33.88676,47.2086c-21.20088,2.30706 -40.4656,-15.05612 -43.0853,-38.83257c-2.61971,-23.77645 12.3923,-45.01078 33.57418,-47.49034c21.18188,-2.47956 40.5555,14.72957 43.32889,38.48803l-38.43378,4.65767z" stroke-width="0.26459"/><path d="M446.87817,119.96531c-2.17557,-20.99183 11.91385,-39.66894 31.46959,-41.7165c19.55574,-2.04756 37.17244,13.3098 39.34801,34.30163c2.17557,20.99183 -11.91386,39.66894 -31.4696,41.7165c-19.55574,2.04756 -37.17244,-13.3098 -39.348,-34.30163z" stroke-width="0.26459"/><path d="M448.05258,70.94223c-2.17557,-20.99183 11.91386,-39.66894 31.4696,-41.7165c19.55574,-2.04756 37.17244,13.30981 39.34801,34.30164c2.17557,20.99183 -11.91386,39.66894 -31.4696,41.7165c-19.55574,2.04756 -37.17244,-13.3098 -39.348,-34.30163z" stroke-width="0.26459"/><path d="M581.64458,45.77748c-2.17682,-21.00391 9.76655,-39.46624 26.67625,-41.23674c16.90971,-1.77051 32.38239,13.82125 34.55921,34.82516c2.17682,21.00392 -9.76655,39.46624 -26.67625,41.23675c-16.90971,1.77051 -32.38239,-13.82125 -34.55921,-34.82516z" stroke-width="0.24611"/></g></g><path d="M531.68666,224.9383c7.01265,4.53982 4.76634,7.84972 -3.76598,5.6637c-8.53232,-2.186 -23.34995,-9.86782 -38.16786,-17.54978l2.37866,-4.19255c16.27143,5.76946 32.54252,11.53879 39.55518,16.07863z" fill="#c87137" stroke="#0000ff" stroke-width="0" stroke-linecap="round" stroke-linejoin="bevel"/><path d="M457.71198,198.63658c0,-11.48179 6.90236,-20.78962 15.41685,-20.78962c8.51449,0 15.41684,9.30784 15.41684,20.78963c0,11.48179 -6.90235,20.78963 -15.41684,20.78963c-8.51449,0 -15.41685,-9.30784 -15.41685,-20.78962z" fill="#4eb632" stroke="#0000ff" stroke-width="0" stroke-linecap="round" stroke-linejoin="bevel"/><path d="M459.25367,218.59461c0,-6.88907 8.28283,-12.47377 18.50021,-12.47377c10.21738,0 18.50022,5.5847 18.50022,12.47377c0,6.88907 -8.28283,12.47377 -18.50022,12.47377c-10.21738,0 -18.50021,-5.5847 -18.50021,-12.47377z" fill="#4eb632" stroke="#0000ff" stroke-width="0" stroke-linecap="round" stroke-linejoin="bevel"/><path d="M487.00399,225.24729c0,-7.80762 2.76094,-14.13694 6.16674,-14.13694c3.4058,0 6.16674,6.32932 6.16674,14.13694c0,7.80762 -2.76094,14.13694 -6.16674,14.13694c-3.4058,0 -6.16674,-6.32932 -6.16674,-14.13694z" fill="#4eb632" stroke="#0000ff" stroke-width="0" stroke-linecap="round" stroke-linejoin="bevel"/><path d="M474.67051,206.95242c0,-8.72616 8.97306,-15.80012 20.0419,-15.80012c11.06883,0 20.0419,7.07396 20.0419,15.80012c0,8.72616 -8.97307,15.80012 -20.0419,15.80012c-11.06883,0 -20.0419,-7.07396 -20.0419,-15.80012z" fill="#4eb632" stroke="#0000ff" stroke-width="0" stroke-linecap="round" stroke-linejoin="bevel"/></g><g stroke-width="0"><path d="M61.0314,148.28525c0.74162,128.99673 44.52517,159.98119 12.63605,159.45251c-31.88912,-0.52868 -28.5806,-33.09915 -28.5806,-33.09915l-0.3708,-130.05408l1.11242,2.64336z" fill="#aa6130" stroke="#c87137" stroke-linecap="butt" stroke-linejoin="miter"/><path d="M46.74681,144.61166l1.11242,-2.64335l-0.37082,130.05407c0,0 47.87262,35.20571 -21.99035,34.37797c-31.89121,-0.37784 -2.27744,-30.45576 -1.53582,-159.45249z" fill="#aa6130" stroke="#c87137" stroke-linecap="butt" stroke-linejoin="miter"/><path d="M64.85613,248.46007c-9.24065,2.14139 -9.82777,-2.2796 -1.06966,-7.5017c8.7581,-5.22212 26.86079,-11.24488 44.96382,-17.26775l1.13371,5.22056c-17.89379,8.70384 -35.7872,17.40751 -45.02786,19.54889z" fill="#aa6130" stroke="#0000ff" stroke-linecap="round" stroke-linejoin="bevel"/><path d="M39.16311,206.98401c8.44907,4.35062 6.09978,8.12491 -3.93002,6.45197c-10.0298,-1.67292 -27.7393,-8.79302 -45.44914,-15.91325l2.43614,-4.74258c19.24717,4.92667 38.49395,9.85322 46.94302,14.20386z" fill="#aa6130" stroke="#0000ff" stroke-linecap="round" stroke-linejoin="bevel"/><path d="M2.91894,-25.76349c5.81318,6.12116 8.21835,13.32771 5.37211,16.09629c-2.84624,2.76858 -9.86608,0.05078 -15.67926,-6.07037c-5.81317,-6.12115 -8.21835,-13.32771 -5.3721,-16.09629c2.84624,-2.76858 9.86609,-0.05078 15.67926,6.07038z" fill="#328c1a" stroke="#0000ff" stroke-linecap="round" stroke-linejoin="bevel"/><path d="M-47.04994,202.19256c0,-12.91882 8.69521,-23.3916 19.42131,-23.3916c10.72609,0 19.4213,10.47277 19.4213,23.3916c0,12.91882 -8.69521,23.39161 -19.4213,23.39161c-10.72609,0 -19.4213,-10.47278 -19.4213,-23.39161z" fill="#328c1a" stroke="#0000ff" stroke-linecap="round" stroke-linejoin="bevel"/><path d="M125.17277,202.21531c3.17897,7.12041 -3.82896,16.86561 -15.65265,21.76654c-11.82369,4.90092 -23.98574,3.10168 -27.16471,-4.01873c-3.17897,-7.12041 3.82896,-16.86561 15.65265,-21.76653c11.82369,-4.90092 23.98575,-3.10168 27.16472,4.01872z" fill="#328c1a" stroke="#0000ff" stroke-linecap="round" stroke-linejoin="bevel"/><path d="M89.68218,94.74426c-18.5746,-19.66326 -20.14342,-46.30444 -3.50406,-59.50476c16.63936,-13.20031 45.18593,-7.96107 63.76053,11.70219c18.5746,19.66326 20.14342,46.30445 3.50406,59.50477c-16.63936,13.20032 -45.18592,7.96107 -63.76053,-11.70219z" fill="#328c1a" stroke="#4eb632" stroke-linecap="butt" stroke-linejoin="miter"/><path d="M55.47778,165.97153c-15.73184,-13.10597 -16.62375,-36.38963 -1.99213,-52.00552c14.63162,-15.61589 39.24607,-17.65058 54.97792,-4.54461c15.73185,13.10597 16.62375,36.38964 1.99213,52.00552c-14.63162,15.61588 -39.24608,17.65057 -54.97792,4.5446z" fill="#328c1a" stroke="#4eb632" stroke-linecap="butt" stroke-linejoin="miter"/><path d="M-34.1608,136.56959c-2.52175,-22.82663 13.80965,-43.13624 36.4772,-45.36277c22.66755,-2.22653 43.08751,14.47316 45.60926,37.29979c2.52175,22.82664 -13.80964,43.13624 -36.47719,45.36277c-22.66755,2.22653 -43.08751,-14.47315 -45.60926,-37.29979z" fill="#328c1a" stroke="#4eb632" stroke-linecap="butt" stroke-linejoin="miter"/><path d="M73.21308,140.3397c-2.43442,-29.44165 16.69461,-56.07822 42.72588,-59.49443c26.03127,-3.41621 49.10728,17.68156 51.54169,47.12321c2.43442,29.44165 -16.6946,56.07822 -42.72587,59.49444c-26.03127,3.41621 -49.10727,-17.68156 -51.54169,-47.12321z" fill="#328c1a" stroke="#4eb632" stroke-linecap="butt" stroke-linejoin="miter"/><path d="M4.09295,96.34978c-1.87985,-17.01622 9.61978,-32.08982 25.68513,-33.66785c16.06535,-1.57802 30.61281,10.9371 32.49266,27.95332c1.87985,17.01622 -9.61978,32.08983 -25.68512,33.66785c-16.06535,1.57802 -30.61281,-10.93711 -32.49266,-27.95332z" fill="#328c1a" stroke="#4eb632" stroke-linecap="butt" stroke-linejoin="miter"/><path d="M4.26729,90.63541c-2.86562,-25.93936 14.79265,-48.93003 39.44086,-51.35112c24.64821,-2.42108 46.95258,16.64425 49.8182,42.58361c2.86562,25.93936 -14.79265,48.93004 -39.44086,51.35112c-24.64821,2.42108 -46.95258,-16.64425 -49.8182,-42.58361z" fill="#328c1a" stroke="#4eb632" stroke-linecap="butt" stroke-linejoin="miter"/><path d="M-56.40109,73.80561c-2.86563,-25.93936 14.79265,-48.93003 39.44086,-51.35111c24.64821,-2.42108 46.95258,16.64425 49.8182,42.58361c2.86563,25.93936 -14.79265,48.93003 -39.44085,51.35111c-24.64821,2.42108 -46.95258,-16.64425 -49.81821,-42.58361z" fill="#328c1a" stroke="#4eb632" stroke-linecap="butt" stroke-linejoin="miter"/><path d="M-69.3598,109.64172c-2.52175,-22.82663 13.80965,-43.13624 36.4772,-45.36277c22.66755,-2.22653 43.08751,14.47316 45.60926,37.29979c2.52175,22.82663 -13.80965,43.13624 -36.4772,45.36277c-22.66755,2.22653 -43.08751,-14.47315 -45.60925,-37.29979z" fill="#328c1a" stroke="#4eb632" stroke-linecap="butt" stroke-linejoin="miter"/><path d="M-67.99852,56.33374c-2.52175,-22.82664 13.80965,-43.13623 36.47719,-45.36276c22.66755,-2.22653 43.08751,14.47316 45.60926,37.29979c2.52175,22.82664 -13.80965,43.13624 -36.4772,45.36277c-22.66755,2.22653 -43.0875,-14.47316 -45.60925,-37.29979z" fill="#328c1a" stroke="#4eb632" stroke-linecap="butt" stroke-linejoin="miter"/><path d="M86.78153,13.47068c0.93959,-28.23292 18.18757,-50.03608 38.52442,-48.69872c20.33686,1.33736 36.06145,25.30882 35.12185,53.54175c-0.93959,28.23293 -18.18757,50.03609 -38.52443,48.69872c-20.33685,-1.33737 -36.06144,-25.30882 -35.12185,-53.54175z" fill="#328c1a" stroke="#4eb632" stroke-linecap="butt" stroke-linejoin="miter"/><path d="M125.89624,216.21243c6.49708,6.84129 4.26516,19.68148 -4.98513,28.67936c-9.25029,8.99788 -22.01604,10.74615 -28.51312,3.90486c-6.49708,-6.84129 -4.26516,-19.68148 4.98512,-28.67936c9.25029,-8.99788 22.01605,-10.74614 28.51313,-3.90485z" fill="#328c1a" stroke="#0000ff" stroke-linecap="round" stroke-linejoin="bevel"/><path d="M25.23697,17.92984c-2.86563,-25.93936 14.79265,-48.93003 39.44086,-51.35111c24.64821,-2.42108 46.95258,16.64425 49.81821,42.58361c2.86562,25.93936 -14.79265,48.93004 -39.44086,51.35112c-24.64821,2.42108 -46.95257,-16.64425 -49.8182,-42.58361z" fill="#328c1a" stroke="#4eb632" stroke-linecap="butt" stroke-linejoin="miter"/><path d="M60.09817,15.74259c3.65761,28.64183 -18.81672,54.05171 -50.26359,56.82891c-31.44687,2.7772 -60.02184,-18.1243 -63.9076,-46.74599c-3.88576,-28.62168 18.38127,-54.1832 49.79995,-57.16805c31.41868,-2.98485 60.15519,17.73121 64.2689,46.33123l-57.00808,5.60682z" fill="#328c1a" stroke="#4eb632" stroke-linecap="butt" stroke-linejoin="miter"/><path d="M-28.113,192.14038c-0.65417,-9.46576 9.19107,-17.87369 21.98997,-18.77966c12.7989,-0.90597 23.70476,6.03311 24.35893,15.49887c0.65417,9.46576 -9.19107,17.8737 -21.98997,18.77966c-12.79889,0.90597 -23.70475,-6.03312 -24.35892,-15.49887z" fill="#328c1a" stroke="#0000ff" stroke-linecap="round" stroke-linejoin="bevel"/></g></g></g></g></svg>