<svg version="1.1" xmlns="http://www.w3.org/2000/svg" xmlns:xlink="http://www.w3.org/1999/xlink" width="211.88212" height="189.78755" viewBox="0,0,211.88212,189.78755"><g transform="translate(-215.63769,-80.428)"><g data-paper-data="{&quot;isPaintingLayer&quot;:true}" fill-rule="nonzero" stroke-linejoin="miter" stroke-miterlimit="10" stroke-dasharray="" stroke-dashoffset="0" style="mix-blend-mode: normal"><path d="M321.05099,182.22982c-1.47273,3.99243 -2.86714,-3.35575 -3.99911,-7.53189c-5.54864,-20.47048 9.34541,-52.89888 15.40438,-72.17072c4.42107,-14.06216 18.86962,-4.49325 12.41755,-0.97227c-18.04691,5.4972 -15.50324,58.12143 -23.82282,80.67488z" fill="#f6d972" stroke="none" stroke-width="1.72767" stroke-linecap="round"/><path d="M327.63926,223.78485c0,-25.64297 20.2691,-46.4307 45.27231,-46.4307c25.0032,0 45.27231,20.78773 45.27231,46.4307c0,25.64297 -20.2691,46.4307 -45.27231,46.4307c-25.0032,0 -45.27231,-20.78773 -45.27231,-46.4307z" fill="#d793d3" stroke="none" stroke-width="1.20167" stroke-linecap="round"/><path d="M299.96894,101.55494c-6.45207,-3.52098 7.99648,-13.08988 12.41755,0.97227c6.05897,19.27183 20.95302,51.70024 15.40438,72.17072c-1.13197,4.17614 -2.52638,11.52432 -3.99911,7.53189c-8.31958,-22.55345 -5.77591,-75.17767 -23.82281,-80.67488z" fill="#f6d972" stroke="none" stroke-width="1.72767" stroke-linecap="round"/><g fill="#d793d3" stroke="none" stroke-linecap="round"><path d="M215.63769,158.72491c0,-28.70441 23.18756,-51.97392 51.79088,-51.97392c28.60332,0 51.79088,23.26952 51.79088,51.97392c0,28.70441 -23.18757,51.97393 -51.79088,51.97393c-28.60332,0 -51.79088,-23.26952 -51.79088,-51.97393z" stroke-width="1.35983"/><path d="M234.57414,225.53534c0,-24.6762 19.00772,-44.68021 42.45493,-44.68021c23.44721,0 42.45493,20.00401 42.45493,44.68021c0,24.6762 -19.00772,44.68021 -42.45492,44.68021c-23.44721,0 -42.45493,-20.00401 -42.45493,-44.68021z" stroke-width="1.14153"/></g><g fill="#e3b4e0" stroke="none" stroke-linecap="round"><path d="M222.23921,161.4099c0,-26.3135 21.71353,-47.6448 48.49853,-47.6448c26.785,0 48.49854,21.3313 48.49854,47.6448c0,26.3135 -21.71353,47.64481 -48.49853,47.64481c-26.785,0 -48.49853,-21.33131 -48.49853,-47.64481z" stroke-width="1.35983"/><path d="M239.97187,222.65542c0,-22.62082 17.7994,-40.95861 39.75607,-40.95861c21.95667,0 39.75607,18.33779 39.75607,40.95861c0,22.62082 -17.7994,40.95862 -39.75607,40.95862c-21.95667,0 -39.75607,-18.33779 -39.75607,-40.95862z" stroke-width="1.14153"/></g><path d="M322.18755,158.72492c0,-28.70441 23.57943,-51.97392 52.66613,-51.97392c29.0867,0 52.66613,23.26952 52.66613,51.97392c0,28.70441 -23.57943,51.97393 -52.66613,51.97393c-29.0867,0 -52.66613,-23.26952 -52.66613,-51.97393z" fill="#d793d3" stroke="none" stroke-width="1.37127" stroke-linecap="round"/><g fill="#e3b4e0" stroke="none" stroke-linecap="round"><path d="M375.48526,209.05471c-26.785,0 -48.49853,-21.33131 -48.49853,-47.64481c0,-26.3135 21.71353,-47.6448 48.49853,-47.6448c26.785,0 48.49854,21.3313 48.49854,47.6448c0,26.3135 -21.71353,47.64481 -48.49853,47.64481z" stroke-width="1.35983"/><path d="M369.38323,264.02663c-23.55176,0 -42.64424,-18.43016 -42.64424,-41.16491c0,-22.73475 19.09248,-41.16491 42.64424,-41.16491c23.55176,0 42.64423,18.43016 42.64423,41.16491c0,22.73475 -19.09247,41.16491 -42.64423,41.16491z" stroke-width="1.18524"/></g><path d="M311.91746,133.25319c3.55409,-11.52716 21.95907,-13.09625 25.22431,-1.3761c8.32498,29.88149 3.95996,94.84377 -5.28324,126.67896c-1.88569,6.49464 -11.63526,4.71931 -14.08862,-0.66443c-15.63869,-34.31813 -14.39083,-96.94545 -5.85245,-124.63843z" fill="#f6d972" stroke="none" stroke-width="2.78079" stroke-linecap="round"/><path d="M289.513,93.30812c0,-7.11322 5.42321,-12.87963 12.11308,-12.87963c6.68987,0 12.11309,5.76641 12.11309,12.87963c0,7.11322 -5.42322,12.87962 -12.11309,12.87962c-6.68987,0 -12.11308,-5.7664 -12.11308,-12.87962z" fill="#e3b4e0" stroke="none" stroke-width="0.32738" stroke-linecap="round"/><path d="M325.71299,93.30762c0,-7.11322 5.42322,-12.87962 12.11309,-12.87962c6.68987,0 12.11309,5.7664 12.11309,12.87962c0,7.11322 -5.42322,12.87962 -12.11309,12.87962c-6.68987,0 -12.11309,-5.7664 -12.11309,-12.87962z" fill="#e3b4e0" stroke="none" stroke-width="0.32738" stroke-linecap="round"/><g stroke="#000000" stroke-linecap="butt"><g stroke-width="0.26459"><path d="M315.53316,136.20476c0,-2.12889 1.36566,-3.85471 3.05027,-3.85471c1.68462,0 3.05027,1.72581 3.05027,3.85471c0,2.1289 -1.36565,3.85471 -3.05027,3.85471c-1.68462,0 -3.05027,-1.72582 -3.05027,-3.85471z" fill="#000000"/><path d="M317.38948,134.82883c0,-0.60826 0.44384,-1.10134 0.99134,-1.10134c0.5475,0 0.99133,0.49309 0.99133,1.10134c0,0.60826 -0.44383,1.10135 -0.99133,1.10135c-0.5475,0 -0.99134,-0.49309 -0.99134,-1.10135z" fill="#ffffff"/></g><g fill="#000000" stroke-width="0.86154"><path d="M318.05879,133.6724c-5.30812,-5.62605 0,0 0,0z"/><path d="M317.38863,134.37536c-5.30812,-5.62605 0,0 0,0z"/></g></g><g><g stroke="#000000" stroke-width="0.26459" stroke-linecap="butt"><path d="M329.39358,140.05947c-1.68462,0 -3.05027,-1.72582 -3.05027,-3.85471c0,-2.12889 1.36565,-3.85471 3.05027,-3.85471c1.68462,0 3.05027,1.72581 3.05027,3.85471c0,2.1289 -1.36566,3.85471 -3.05027,3.85471z" fill="#000000"/><path d="M329.59619,135.93017c-0.5475,0 -0.99133,-0.49309 -0.99133,-1.10135c0,-0.60826 0.44383,-1.10134 0.99133,-1.10134c0.5475,0 0.99134,0.49309 0.99134,1.10134c0,0.60826 -0.44384,1.10135 -0.99134,1.10135z" fill="#ffffff"/></g><g><path d="M329.91823,133.6724c5.30812,-5.62605 0,0 0,0z" fill="#000000" stroke="#000000" stroke-width="0.86154" stroke-linecap="butt"/><path d="M330.58838,134.37536c5.30812,-5.62605 0,0 0,0z" fill="#000000" stroke="#000000" stroke-width="0.86154" stroke-linecap="butt"/><path d="M322.23324,144.41024c10.73421,-0.8535 0.61887,3.32325 0,0z" fill="#000000" stroke="#000000" stroke-width="0.86154" stroke-linecap="butt"/><path d="M311.96611,144.07847c0,-1.34945 1.1266,-2.44339 2.51633,-2.44339c1.38973,0 2.51633,1.09394 2.51633,2.44339c0,1.34945 -1.1266,2.4434 -2.51633,2.4434c-1.38973,0 -2.51633,-1.09395 -2.51633,-2.4434z" fill="#dc9494" stroke="none" stroke-width="5.42747" stroke-linecap="round"/><path d="M330.76601,144.07847c0,-1.34945 1.1266,-2.44339 2.51633,-2.44339c1.38973,0 2.51634,1.09394 2.51634,2.44339c0,1.34945 -1.12661,2.4434 -2.51634,2.4434c-1.38973,0 -2.51633,-1.09395 -2.51633,-2.4434z" fill="#dc9494" stroke="none" stroke-width="5.42747" stroke-linecap="round"/></g></g></g></g></svg>