<svg version="1.1" xmlns="http://www.w3.org/2000/svg" xmlns:xlink="http://www.w3.org/1999/xlink" width="219.89335" height="156.69271" viewBox="0,0,219.89335,156.69271"><g transform="translate(-203.5089,-102.2146)"><g data-paper-data="{&quot;isPaintingLayer&quot;:true}" fill-rule="nonzero" stroke-linejoin="miter" stroke-miterlimit="10" stroke-dasharray="" stroke-dashoffset="0" style="mix-blend-mode: normal"><path d="M235.72848,156.4119c-6.01012,-11.9846 -2.45166,-14.92054 19.45924,-27.62773c6.0855,-3.52927 28.14639,-13.70086 28.3946,-3.65353c0.58141,23.53377 0,91.35063 0,91.35063c0,0 11.28595,-1.01763 16.28222,1.2558c6.96195,3.16786 5.34053,20.69178 -1.38995,21.34871c-19.53293,1.90649 -33.77329,0.53607 -58.17914,0.41858c-7.29142,-0.0351 -7.54172,-19.53216 -0.99282,-22.39519c5.09412,-2.22702 18.26785,-0.83721 18.26785,-0.83721l-0.19856,-58.18569c0,0 -17.48164,6.62449 -21.64344,-1.6744z" fill="#e200ff" stroke="#ffffff" stroke-width="7.5" stroke-linecap="round"/><path d="M331.84382,124.45957c13.639,-5.46845 45.05182,-5.39362 68.72473,-2.98635c7.17883,0.73 5.31354,19.24873 2.76499,27.81923c-3.60475,12.12224 -30.72579,-0.08106 -43.34443,-0.30384c-4.71438,-0.08323 -4.6831,16.60488 0,16.10396c13.93739,-1.49076 32.36719,-2.40229 40.01026,7.90008c7.18483,9.68472 8.09697,24.14087 5.6681,37.98103c-2.31054,13.1659 -17.86253,25.1274 -32.34162,27.04251c-17.75035,2.34778 -47.01014,4.49653 -55.3475,-10.93853c-4.12775,-7.64173 3.4126,-19.73701 12.00307,-23.09248c10.11095,-3.94939 22.55591,15.45248 31.34136,9.41932c8.7617,-6.01687 4.67848,-30.89638 -1.29322,-29.9704c-11.06822,1.71622 -30.82479,8.84347 -34.38258,-2.54138c-3.85672,-12.3414 -8.75876,-50.43676 6.19686,-56.43312z" fill="#e200ff" stroke="#ffffff" stroke-width="7.5" stroke-linecap="butt"/><g data-paper-data="{&quot;isHelperItem&quot;:true}" fill="none" stroke-linecap="butt"><path d="M203.5089,258.90732v-156.6927h219.89335v156.6927z" stroke="none" stroke-width="NaN"/><g data-paper-data="{&quot;isSelectionBound&quot;:true,&quot;isHelperItem&quot;:true}" stroke="#009dec"><path d="M203.5089,258.90732v-78.34636v-78.34635h109.94667h109.94667v78.34635v78.34636h-109.94667z" stroke-width="0"/><path d="M313.0816,182.43081v-1.49587h-1.49588c-0.20653,0 -0.37396,-0.16744 -0.37396,-0.37397c0,-0.20654 0.16743,-0.37396 0.37396,-0.37396h1.49588v-1.49587c0,-0.20654 0.16744,-0.37397 0.37397,-0.37397c0.20653,0 0.37396,0.16744 0.37396,0.37397v1.49587h1.49588c0.20653,0 0.37397,0.16743 0.37397,0.37396c0,0.20654 -0.16744,0.37397 -0.37397,0.37397h-1.49588v1.49587c0,0.20654 -0.16743,0.37396 -0.37396,0.37396c-0.20653,0 -0.37397,-0.16743 -0.37397,-0.37396z" stroke-width="0.37397"/></g></g></g></g></svg>