<svg version="1.1" xmlns="http://www.w3.org/2000/svg" xmlns:xlink="http://www.w3.org/1999/xlink" width="217.93324" height="243.9341" viewBox="0,0,217.93324,243.9341"><g transform="translate(-211.03338,-58.03295)"><g data-paper-data="{&quot;isPaintingLayer&quot;:true}" fill-rule="nonzero" stroke-linecap="butt" stroke-linejoin="miter" stroke-miterlimit="10" stroke-dasharray="" stroke-dashoffset="0" style="mix-blend-mode: normal"><g><path d="M270.37028,268.16918l43.53789,-24.37495c0,0 0,0 0.44884,47.20231z" data-paper-data="{&quot;index&quot;:null}" fill="#33a719" stroke="none" stroke-width="0"/><path d="M252.44237,222.03895c21.76498,0 39.40899,17.89252 39.40899,39.96406c0,22.07154 -17.64402,39.96404 -39.40899,39.96404c-21.76498,0 -39.40899,-17.89251 -39.40899,-39.96404c0,-22.07154 17.64402,-39.96406 39.40899,-39.96406z" data-paper-data="{&quot;index&quot;:null}" fill="#44e022" stroke="none" stroke-width="0"/><path d="M246.88316,267.80646l28.15754,-14.47509c0,0 0,0 0.29028,28.03113z" data-paper-data="{&quot;index&quot;:null}" fill="#33a719" stroke="none" stroke-width="0"/><g data-paper-data="{&quot;index&quot;:null}"><path d="M230.85096,270.87296c-4.33164,0 -7.84312,-3.58282 -7.84312,-8.00246c0,-4.41964 3.51147,-8.00246 7.84312,-8.00246c4.33163,0 7.84314,3.58282 7.84314,8.00246c0,4.41964 -3.51148,8.00246 -7.84314,8.00246z" fill="#000000" stroke="#000000" stroke-width="0.33116"/><path d="M227.48902,263.63976c-2.00625,0 -3.63263,-1.64385 -3.63263,-3.67164c0,-2.0278 1.62639,-3.67166 3.63263,-3.67166c2.00625,0 3.63263,1.64387 3.63263,3.67166c0,2.0278 -1.62639,3.67164 -3.63263,3.67164z" fill="#ffffff" stroke="#ffffff" stroke-width="0.15266"/></g></g><g><path d="M384.97989,267.16318l43.53789,-24.37495c0,0 0,0 0.44884,47.20231z" data-paper-data="{&quot;index&quot;:null}" fill="#33a719" stroke="none" stroke-width="0"/><path d="M367.05198,221.03295c21.76498,0 39.40899,17.89252 39.40899,39.96406c0,22.07154 -17.64402,39.96404 -39.40899,39.96404c-21.76498,0 -39.40899,-17.89251 -39.40899,-39.96404c0,-22.07154 17.64402,-39.96406 39.40899,-39.96406z" data-paper-data="{&quot;index&quot;:null}" fill="#44e022" stroke="none" stroke-width="0"/><path d="M361.49277,266.80046l28.15754,-14.47509c0,0 0,0 0.29028,28.03113z" data-paper-data="{&quot;index&quot;:null}" fill="#33a719" stroke="none" stroke-width="0"/><g data-paper-data="{&quot;index&quot;:null}"><path d="M345.46057,269.86696c-4.33164,0 -7.84312,-3.58282 -7.84312,-8.00246c0,-4.41964 3.51147,-8.00246 7.84312,-8.00246c4.33163,0 7.84314,3.58282 7.84314,8.00246c0,4.41964 -3.51148,8.00246 -7.84314,8.00246z" fill="#000000" stroke="#000000" stroke-width="0.33116"/><path d="M342.09863,262.63376c-2.00625,0 -3.63263,-1.64385 -3.63263,-3.67164c0,-2.0278 1.62639,-3.67166 3.63263,-3.67166c2.00625,0 3.63263,1.64387 3.63263,3.67166c0,2.0278 -1.62639,3.67164 -3.63263,3.67164z" fill="#ffffff" stroke="#ffffff" stroke-width="0.15266"/></g></g><g><path d="M268.37028,179.16918l43.53789,-24.37495c0,0 0,0 0.44884,47.20231z" data-paper-data="{&quot;index&quot;:null}" fill="#33a719" stroke="none" stroke-width="0"/><path d="M250.44237,133.03895c21.76498,0 39.40899,17.89252 39.40899,39.96406c0,22.07154 -17.64402,39.96404 -39.40899,39.96404c-21.76498,0 -39.40899,-17.89251 -39.40899,-39.96404c0,-22.07154 17.64402,-39.96406 39.40899,-39.96406z" data-paper-data="{&quot;index&quot;:null}" fill="#44e022" stroke="none" stroke-width="0"/><path d="M244.88316,178.80646l28.15754,-14.47509c0,0 0,0 0.29028,28.03113z" data-paper-data="{&quot;index&quot;:null}" fill="#33a719" stroke="none" stroke-width="0"/><g data-paper-data="{&quot;index&quot;:null}"><path d="M228.85096,181.87296c-4.33164,0 -7.84312,-3.58282 -7.84312,-8.00246c0,-4.41964 3.51147,-8.00246 7.84312,-8.00246c4.33163,0 7.84314,3.58282 7.84314,8.00246c0,4.41964 -3.51148,8.00246 -7.84314,8.00246z" fill="#000000" stroke="#000000" stroke-width="0.33116"/><path d="M225.48902,174.63976c-2.00625,0 -3.63263,-1.64385 -3.63263,-3.67164c0,-2.0278 1.62639,-3.67166 3.63263,-3.67166c2.00625,0 3.63263,1.64387 3.63263,3.67166c0,2.0278 -1.62639,3.67164 -3.63263,3.67164z" fill="#ffffff" stroke="#ffffff" stroke-width="0.15266"/></g></g><g><path d="M382.97989,178.16318l43.53789,-24.37495c0,0 0,0 0.44884,47.20231z" data-paper-data="{&quot;index&quot;:null}" fill="#33a719" stroke="none" stroke-width="0"/><path d="M365.05198,132.03295c21.76498,0 39.40899,17.89252 39.40899,39.96406c0,22.07154 -17.64402,39.96404 -39.40899,39.96404c-21.76498,0 -39.40899,-17.89251 -39.40899,-39.96404c0,-22.07154 17.64402,-39.96406 39.40899,-39.96406z" data-paper-data="{&quot;index&quot;:null}" fill="#44e022" stroke="none" stroke-width="0"/><path d="M359.49277,177.80046l28.15754,-14.47509c0,0 0,0 0.29028,28.03113z" data-paper-data="{&quot;index&quot;:null}" fill="#33a719" stroke="none" stroke-width="0"/><g data-paper-data="{&quot;index&quot;:null}"><path d="M343.46057,180.86696c-4.33164,0 -7.84312,-3.58282 -7.84312,-8.00246c0,-4.41964 3.51147,-8.00246 7.84312,-8.00246c4.33163,0 7.84314,3.58282 7.84314,8.00246c0,4.41964 -3.51148,8.00246 -7.84314,8.00246z" fill="#000000" stroke="#000000" stroke-width="0.33116"/><path d="M340.09863,173.63376c-2.00625,0 -3.63263,-1.64385 -3.63263,-3.67164c0,-2.0278 1.62639,-3.67166 3.63263,-3.67166c2.00625,0 3.63263,1.64387 3.63263,3.67166c0,2.0278 -1.62639,3.67164 -3.63263,3.67164z" fill="#ffffff" stroke="#ffffff" stroke-width="0.15266"/></g></g><g><path d="M325.97989,104.16318l43.53789,-24.37495c0,0 0,0 0.44884,47.20231z" data-paper-data="{&quot;index&quot;:null}" fill="#33a719" stroke="none" stroke-width="0"/><path d="M308.05198,58.03295c21.76498,0 39.40899,17.89252 39.40899,39.96406c0,22.07154 -17.64402,39.96404 -39.40899,39.96404c-21.76498,0 -39.40899,-17.89251 -39.40899,-39.96404c0,-22.07154 17.64402,-39.96406 39.40899,-39.96406z" data-paper-data="{&quot;index&quot;:null}" fill="#44e022" stroke="none" stroke-width="0"/><path d="M302.49277,103.80046l28.15754,-14.47509c0,0 0,0 0.29028,28.03113z" data-paper-data="{&quot;index&quot;:null}" fill="#33a719" stroke="none" stroke-width="0"/><g data-paper-data="{&quot;index&quot;:null}"><path d="M286.46057,106.86696c-4.33164,0 -7.84312,-3.58282 -7.84312,-8.00246c0,-4.41964 3.51147,-8.00246 7.84312,-8.00246c4.33163,0 7.84314,3.58282 7.84314,8.00246c0,4.41964 -3.51148,8.00246 -7.84314,8.00246z" fill="#000000" stroke="#000000" stroke-width="0.33116"/><path d="M283.09863,99.63376c-2.00625,0 -3.63263,-1.64385 -3.63263,-3.67164c0,-2.0278 1.62639,-3.67166 3.63263,-3.67166c2.00625,0 3.63263,1.64387 3.63263,3.67166c0,2.0278 -1.62639,3.67164 -3.63263,3.67164z" fill="#ffffff" stroke="#ffffff" stroke-width="0.15266"/></g></g></g></g></svg>