<svg version="1.1" xmlns="http://www.w3.org/2000/svg" xmlns:xlink="http://www.w3.org/1999/xlink" width="253.69926" height="185.52048" viewBox="0,0,253.69926,185.52048"><g transform="translate(-199.06407,-65.46117)"><g data-paper-data="{&quot;isPaintingLayer&quot;:true}" fill-rule="nonzero" stroke-linejoin="miter" stroke-miterlimit="10" stroke-dasharray="" stroke-dashoffset="0" style="mix-blend-mode: normal"><path d="M246.73606,239.85042v-173.92545h154.9096v173.92545z" fill="none" stroke="none" stroke-width="0" stroke-linecap="butt"/><path d="M199.06407,250.98165v-185.52048h253.69926v185.52048z" fill="none" stroke="#ffffff" stroke-width="0" stroke-linecap="butt"/><g fill="#ff7a00" stroke="#ffffff" stroke-width="7.5" stroke-linecap="round"><path d="M228.81664,132.84677c-7.07827,-14.11457 -2.88738,-17.5723 22.91764,-32.53789c7.16705,-4.15651 33.14872,-16.13585 33.44105,-4.30285c0.68474,27.71632 0,107.58598 0,107.58598c0,0 13.29175,-1.19848 19.17598,1.47899c8.19927,3.73087 6.28967,24.36924 -1.63697,25.14292c-23.00444,2.24532 -39.77567,0.63135 -68.51907,0.49297c-8.58729,-0.04133 -8.88208,-23.00352 -1.16927,-26.37539c5.99947,-2.62282 21.51452,-0.986 21.51452,-0.986l-0.23385,-68.52677c0,0 -20.58858,7.80184 -25.49003,-1.97198z"/><path d="M403.16398,107.80038c10.84036,13.29899 16.93035,31.33622 16.93022,50.14367c-0.0003,39.16402 -25.87992,70.91263 -57.80407,70.91286c-31.92415,-0.00023 -57.80379,-31.74884 -57.80407,-70.91286c-0.00013,-18.80747 6.08985,-36.84468 16.93023,-50.14367c10.84036,-13.29899 25.54314,-20.77033 40.87386,-20.77046c15.33072,0.00011 30.03348,7.47147 40.87387,20.77046zM339.55097,158.12205c0.00015,21.74655 10.64708,39.37562 23.78084,39.37612c13.13378,-0.00051 23.7807,-17.62957 23.78084,-39.37612c0.00028,-21.74704 -10.64676,-39.37689 -23.78084,-39.37737c-13.13408,0.00051 -23.78111,17.63034 -23.78084,39.37737z"/></g></g></g></svg>