<svg version="1.1" xmlns="http://www.w3.org/2000/svg" xmlns:xlink="http://www.w3.org/1999/xlink" width="168.17426" height="249.53905" viewBox="0,0,168.17426,249.53905"><g transform="translate(-243.51861,-57.76769)"><g data-paper-data="{&quot;isPaintingLayer&quot;:true}" fill-rule="nonzero" stroke-linecap="butt" stroke-linejoin="miter" stroke-miterlimit="10" stroke-dasharray="" stroke-dashoffset="0" style="mix-blend-mode: normal"><path d="M373.93698,179.8917c12.42345,-4.77511 31.71592,2.73514 36.91475,14.67353c2.11211,4.85009 -0.99443,12.65683 -5.9622,14.78595c-7.60467,3.25931 -15.3205,-10.1088 -23.08013,-8.83088c-6.89197,1.13504 -11.31187,12.78475 -12.87652,18.98526c-3.20251,12.691 -10.83397,32.23501 -23.46354,30.02404c-5.94739,-1.04117 -5.11859,-16.96894 -5.11859,-16.96894c0,0 15.71562,-11.74178 18.06905,-20.42369c2.52991,-9.33296 4.20479,-27.8972 15.51718,-32.24527z" fill="#d35227" stroke="#d35227" stroke-width="0.33814"/><path d="M314.60583,108.38064c-2.48994,-13.5903 4.52414,-2.9959 19.46726,-14.06495c3.52745,-2.78829 7.49525,10.35747 3.27675,11.67866c24.72098,5.02995 -30.76814,23.44379 -22.74401,2.38629z" fill="#d3613a" stroke="#d3613a" stroke-width="0.29843"/><path d="M270.5343,139.30413c-2.05883,-6.59022 10.23196,-25.63856 21.10524,-31.42748c10.56881,-5.62683 25.48177,-11.83254 32.22669,-18.24886c3.26072,-3.10186 8.6937,9.35333 4.66695,11.18595c25.1446,1.93698 -51.27669,60.00791 -57.99888,38.49039z" fill="#d3613a" stroke="#d3613a" stroke-width="0.29843"/><g><path d="M361.76868,144.20219c1.57866,-8.96375 8.43637,-15.43007 15.31714,-14.44291c6.88077,0.98716 11.17899,9.05397 9.60033,18.01772c-1.57866,8.96375 -8.43637,15.43007 -15.31714,14.44291c-6.88077,-0.98716 -11.17899,-9.05397 -9.60033,-18.01773z" fill="#d3613a" stroke="#d3613a" stroke-width="0.3288"/><path d="M363.35785,144.01577c1.04375,-6.5931 5.76992,-11.31498 10.55618,-10.54661c4.78627,0.76838 7.82017,6.73604 6.77642,13.32914c-1.04375,6.5931 -5.76991,11.31498 -10.55618,10.5466c-4.78627,-0.76838 -7.82018,-6.73604 -6.77643,-13.32914z" fill="#f9d6b6" stroke="#f9d6b6" stroke-width="0.23513"/></g><g><path d="M269.63397,162.21992c-6.88077,0.98716 -13.73849,-5.47915 -15.31714,-14.4429c-1.57865,-8.96375 2.71956,-17.03057 9.60033,-18.01773c6.88077,-0.98716 13.73848,5.47916 15.31714,14.4429c1.57866,8.96375 -2.71956,17.03056 -9.60033,18.01773z" fill="#d3613a" stroke="#d3613a" stroke-width="0.3288"/><path d="M270.8687,157.34492c-4.78627,0.76838 -9.51243,-3.9535 -10.55618,-10.5466c-1.04375,-6.59311 1.99016,-12.56076 6.77642,-13.32914c4.78627,-0.76838 9.51243,3.9535 10.55618,10.54661c1.04375,6.59311 -1.99016,12.56076 -6.77643,13.32914z" fill="#f9d6b6" stroke="#f9d6b6" stroke-width="0.23513"/></g><path d="M267.53514,151.15075c-1.75267,-25.66509 20.47572,-48.11828 49.64851,-50.15061c29.17278,-2.03232 54.24282,17.12582 55.99549,42.79093c1.75267,25.66509 -20.47572,48.11829 -49.6485,50.15062c-29.17278,2.03232 -54.24282,-17.12583 -55.99549,-42.79093z" fill="#d3613a" stroke="#d3613a" stroke-width="0.35477"/><path d="M270.71778,67.99022h19.59342h29.09363h30.76793h21.27653c1.8102,2.58688 2.73454,5.2941 2.73802,8.01912c-0.00025,14.11618 -24.18313,25.55957 -54.0143,25.55969c-29.83143,0.00006 -54.01473,-11.44338 -54.01498,-25.55969c0.0388,-2.72781 1.00015,-5.43511 2.84756,-8.01912z" fill="#dea463" stroke="#dea463" stroke-width="0.5341"/><path d="M269.03974,68.63328c0,-5.92745 22.97547,-10.73259 51.31715,-10.73259c28.34168,0 51.31715,4.80515 51.31715,10.7326c0,5.92746 -22.97547,10.73259 -51.31715,10.73259c-28.34168,0 -51.31715,-4.80515 -51.31715,-10.73259z" fill="#c87137" stroke="#c87137" stroke-width="0.26599"/><g stroke-width="0.26459"><path d="M371.17514,119.2833c0,0 -6.94859,0.91883 -9.93851,-0.96053c-3.99579,-2.51163 -9.15511,-7.6183 -8.24852,-12.24974c0.54719,-2.79542 7.08,-3.34164 7.08,-3.34164c0,0 -14.79481,-19.98647 -9.33269,-26.2321c6.00425,-6.86551 19.48242,3.93229 26.57078,10.18409c7.86455,6.93638 11.99688,17.7216 9.65758,25.73302c-1.73483,5.9413 -15.78864,6.86691 -15.78864,6.86691z" fill="#f9d6b6" stroke="#f9d6b6"/><path d="M367.17853,179.57603c3.33661,-7.80702 9.48373,-24.77795 8.39731,-31.65715c-2.04662,-12.95915 -4.81218,-24.85043 -3.90288,-29.0237c1.18172,-5.42355 14.93927,-11.40186 18.31388,-6.68915c4.59127,6.41179 6.26619,13.79981 6.8104,22.33024c0.88538,13.87817 1.16376,50.12431 -18.69827,61.69398c-49.1764,28.64533 -57.54541,7.39111 -38.03583,-2.04273c8.0618,-3.89828 23.77879,-6.80445 27.1154,-14.61148z" fill="#d76036" stroke="#d76036"/></g><g stroke-width="0.26459"><path d="M253.78976,112.41638c-2.3393,-8.01142 1.79304,-18.79664 9.65758,-25.73302c7.08835,-6.2518 20.56653,-17.04961 26.57078,-10.18409c5.46212,6.24563 -9.33269,26.2321 -9.33269,26.2321c0,0 6.5328,0.54622 7.07999,3.34164c0.90659,4.63144 -4.25272,9.73812 -8.24852,12.24975c-2.98992,1.87936 -9.93851,0.96053 -9.93851,0.96053c0,0 -14.0538,-0.92561 -15.78863,-6.86691z" fill="#f9d6b6" stroke="#f9d6b6"/><path d="M300.6904,194.18751c19.50958,9.43385 11.14057,30.68806 -38.03583,2.04273c-19.86203,-11.56966 -19.58365,-47.81581 -18.69827,-61.69398c0.54421,-8.53043 2.21913,-15.91845 6.8104,-22.33024c3.37461,-4.71271 17.13216,1.2656 18.31387,6.68915c0.90929,4.17327 -1.85626,16.06455 -3.90288,29.0237c-1.08642,6.8792 5.06069,23.85013 8.3973,31.65715c3.33661,7.80703 19.0536,10.7132 27.1154,14.61148z" fill="#d76036" stroke="#d76036"/></g><path d="M302.21206,190.64569c0,0 36.38041,-1.87195 40.61764,1.87277c15.13797,13.37843 4.03736,77.32948 9.06211,99.19985c2.09579,9.1219 -22.27609,2.06398 -22.27609,2.06398c0,0 -3.15853,-15.97202 -5.08188,-18.94596c-2.13949,-3.30816 -7.67056,-2.80992 -9.97582,0.04833c-2.62333,3.25266 -4.01468,17.54623 -4.01468,17.54623c0,0 -25.34548,4.1921 -22.98884,-4.90786c1.45767,-5.62865 -3.59001,-97.71864 14.65755,-96.8773z" fill="#d3613a" stroke="#d3613a" stroke-width="0.34985"/><path d="M313.2261,300.54415c-1.39193,2.32188 -8.05351,0.37978 -8.05351,0.37978c-30.39085,20.65908 -30.00441,-17.24639 -14.9522,-10.22528c5.65782,2.63909 10.86703,3.86898 18.69027,0.47193c3.18174,-1.38158 6.08247,6.42599 4.31544,9.37358z" fill="#f9d6b6" stroke="#f9d6b6" stroke-width="0.29843"/><path d="M330.89953,291.17058c7.82324,3.39705 13.03245,2.16716 18.69026,-0.47193c15.05222,-7.02111 15.43866,30.88436 -14.9522,10.22528c0,0 -6.66157,1.9421 -8.0535,-0.37978c-1.76703,-2.94759 1.13371,-10.75516 4.31544,-9.37358z" fill="#f9d6b6" stroke="#f9d6b6" stroke-width="0.29843"/><path d="M297.06588,233.28333c0,-15.86876 10.17344,-28.73292 22.723,-28.73292c12.54956,0 22.723,12.86416 22.723,28.73292c0,15.86876 -10.17343,28.73291 -22.723,28.73291c-12.54956,0 -22.723,-12.86416 -22.723,-28.73291z" fill="#f9d6b6" stroke="#d3613a" stroke-width="0.66536"/><g fill="#f9d6b6" stroke="#f9d6b6" stroke-width="0.23715"><path d="M291.17539,178.92305c-16.69258,-13.3598 -22.97288,-35.46461 -14.02743,-49.37247c8.94545,-13.90786 29.72918,-14.35216 46.42176,-0.99236c16.69258,13.3598 22.97287,35.46461 14.02743,49.37247c-8.94545,13.90786 -29.72917,14.35217 -46.42175,0.99236z"/><path d="M301.82911,176.997c-8.25993,-14.43186 -0.80981,-36.33087 16.64032,-48.91282c17.45013,-12.58194 38.29226,-11.08228 46.55219,3.34958c8.25993,14.43186 0.80981,36.33088 -16.64032,48.91283c-17.45013,12.58194 -38.29226,11.08228 -46.55219,-3.34958z"/></g><path d="M301.25486,173.27629c10.38477,3.57543 21.15185,8.10885 40.0283,-0.94387c-13.12649,6.86758 -26.4866,6.65672 -40.0283,0.94387z" fill="#ffffff" stroke="#92391b" stroke-width="0.29843"/><path d="M320.03891,168.10378c0.0236,2.83118 0.13756,5.85278 0.32056,9.23084c-0.05005,-0.01147 -0.10049,-0.01439 -0.15063,-0.01077c-0.02993,0.00181 -0.05939,0.00561 -0.08884,0.01285c-0.15551,-3.05545 -0.22958,-6.11824 -0.19421,-9.23308z" fill="#ffffff" stroke="#92391b" stroke-width="0.29843"/><g fill="#92391b" stroke="#92391b" stroke-width="0.23715"><path d="M316.85382,168.25892c-1.94779,-1.28876 -2.77597,-3.41012 -1.84979,-4.73818c0.92618,-1.32806 3.256,-1.35991 5.20379,-0.07114c1.94779,1.28876 2.77597,3.41011 1.84979,4.73817c-0.92618,1.32806 -3.256,1.35992 -5.20379,0.07115z"/><path d="M317.45943,168.1878c-0.92618,-1.32806 -0.098,-3.44941 1.84979,-4.73817c1.94779,-1.28876 4.27761,-1.25691 5.20379,0.07114c0.92618,1.32806 0.098,3.44941 -1.84979,4.73817c-1.94779,1.28876 -4.27761,1.25691 -5.20379,-0.07114z"/></g><g><path d="M307.16693,156.39098c-5.22949,5.08414 -13.42092,4.55443 -18.29608,-1.18311c-4.87516,-5.73755 -4.58792,-14.51025 0.64157,-19.59439c5.22949,-5.08413 13.42091,-4.55443 18.29607,1.18311c4.87516,5.73755 4.58793,14.51025 -0.64156,19.59439z" fill="#ffffff" stroke="#ffffff" stroke-width="0.90331"/><path d="M289.8397,146.92209c0,-4.50241 3.87137,-8.15235 8.64693,-8.15235c4.77556,0 8.64692,3.64993 8.64692,8.15235c0,4.50241 -3.87136,8.15234 -8.64692,8.15234c-4.77556,0 -8.64693,-3.64992 -8.64693,-8.15234z" fill="#690400" stroke="#690400" stroke-width="0.16561"/><path d="M299.95292,142.67041c0,-2.23372 1.67243,-4.0445 3.73549,-4.0445c2.06306,0 3.73549,1.81078 3.73549,4.0445c0,2.23372 -1.67243,4.0445 -3.73549,4.0445c-2.06306,0 -3.73549,-1.81078 -3.73549,-4.0445z" fill="#ffffff" stroke="#ffffff" stroke-width="0.3191"/></g><g><path d="M329.42886,136.79659c4.87516,-5.73755 13.06659,-6.26724 18.29607,-1.18311c5.22949,5.08414 5.51672,13.85684 0.64156,19.59439c-4.87516,5.73755 -13.06659,6.26725 -18.29607,1.18311c-5.22949,-5.08414 -5.51672,-13.85684 -0.64156,-19.59439z" fill="#ffffff" stroke="#ffffff" stroke-width="0.90331"/><path d="M338.75072,155.07443c-4.77557,0 -8.64693,-3.64992 -8.64693,-8.15234c0,-4.50241 3.87136,-8.15235 8.64693,-8.15235c4.77557,0 8.64693,3.64993 8.64693,8.15235c0,4.50241 -3.87136,8.15234 -8.64693,8.15234z" fill="#690400" stroke="#690400" stroke-width="0.16561"/><path d="M333.54893,146.71492c-2.06306,0 -3.73549,-1.81078 -3.73549,-4.0445c0,-2.23372 1.67244,-4.0445 3.73549,-4.0445c2.06306,0 3.73549,1.81078 3.73549,4.0445c0,2.23372 -1.67244,4.0445 -3.73549,4.0445z" fill="#ffffff" stroke="#ffffff" stroke-width="0.3191"/></g></g></g></svg>