<svg version="1.1" xmlns="http://www.w3.org/2000/svg" xmlns:xlink="http://www.w3.org/1999/xlink" width="200.99161" height="203.55176" viewBox="0,0,200.99161,203.55176"><g transform="translate(-209.17292,-76.72413)"><g data-paper-data="{&quot;isPaintingLayer&quot;:true}" fill-rule="nonzero" stroke-width="0" stroke-linecap="round" stroke-linejoin="bevel" stroke-miterlimit="10" stroke-dasharray="" stroke-dashoffset="0" style="mix-blend-mode: normal"><path d="M365.80925,97.87971l44.35528,7.46791l-35.49816,28.35397" fill="#000000" stroke="#dacc2e"/><path d="M300.92888,95.31859c14.71279,-19.64135 49.24927,-29.53826 66.01669,0.18798c16.76742,29.72624 15.76444,99.07468 -21.37573,125.61508c-37.14018,26.5404 -110.41753,10.27 -130.21196,1.58473c-19.79443,-8.68527 13.89404,-9.78544 17.9855,-11.92796c4.09145,-2.14252 -21.41413,-5.3274 -15.83099,-11.67565c5.58314,-6.34826 42.25499,-15.85987 58.03513,-35.30851c15.78015,-19.44864 10.66856,-48.83427 25.38135,-68.47565z" fill="#0000ff" stroke="#dacc2e"/><path d="M305.17818,107.59671c0,-11.92587 10.47604,-21.59369 23.3989,-21.59369c12.92286,0 23.3989,9.66782 23.3989,21.59369c0,11.92587 -10.47604,21.59369 -23.3989,21.59369c-12.92286,0 -23.3989,-9.66782 -23.3989,-21.59369z" fill="#ffffff" stroke="#dacc2e"/><path d="M317.72033,98.18838c5.82171,-5.53197 17.71261,-5.77783 23.78217,-0.3688c6.06956,5.40903 6.31728,16.47274 0.49558,22.00482c-5.8217,5.53206 -17.71261,5.53206 -23.78217,0.12303c-6.06956,-5.40903 -6.31729,-16.22709 -0.49558,-21.75906z" fill="#000000" stroke="#dacc2e"/><path d="M347.48853,106.24705l-15.38557,-1.49168l11.25773,-7.95556" fill="#f9f9f9" stroke="#dacc2e"/><path d="M288.74311,231.02007c1.98266,3.92273 3.79837,9.17931 4.80796,16.6844c0.07091,0.52709 0.1394,1.07649 0.20491,1.65023c0.80887,7.08451 0.74541,15.15202 0.74541,18.31974h-5.43963c0,-3.27815 0.05518,-10.96492 -0.70654,-17.63655c-0.06091,-0.5337 -0.12455,-1.04326 -0.19005,-1.53064c-0.92799,-6.89851 -2.56214,-11.50909 -4.22433,-14.79778z" fill="#000000" stroke="none"/><path d="M312.97046,224.88564c1.54209,2.09553 3.76911,5.51298 5.51409,10.33346c1.25148,3.45721 2.04478,7.03315 2.53023,10.75335c0.69296,5.30828 0.70886,10.89348 0.71347,13.65912c0,1.15297 -0.02859,9.19582 -0.02859,8.04285h-5.43963c0.00186,1.10096 0.03042,-6.93188 0.02859,-8.03284c-0.00465,-2.79325 -0.02677,-8.01498 -0.6629,-12.88998c-0.44046,-3.37556 -1.14665,-6.51666 -2.22431,-9.49368c-1.49702,-4.13552 -3.40202,-7.05946 -4.73132,-8.86584z" fill="#000000" stroke="none"/><path d="M293.12438,264.86311c-0.25703,0.46808 -0.74442,1.32058 -1.59859,2.57861c-0.28752,0.42347 -0.6534,0.94735 -1.12679,1.59698c-0.95547,1.31089 -1.91797,2.54799 -3.20231,4.19639c-1.12124,1.43905 -2.10831,2.71187 -2.96373,3.90808c-0.47405,0.6629 -0.84934,1.22133 -1.15344,1.70741c-0.42815,0.68397 -0.66475,1.14401 -0.79819,1.42531l-3.44032,-1.81071c0.20301,-0.42739 0.51616,-1.02677 1.02659,-1.84224c0.35779,-0.57158 0.78152,-1.20053 1.29227,-1.91472c0.91137,-1.27445 1.94903,-2.61125 3.06274,-4.04069c1.2901,-1.65579 2.21332,-2.84304 3.12474,-4.09342c0.44709,-0.61345 0.78705,-1.1007 1.04914,-1.48668c0.77286,-1.13825 1.19393,-1.87946 1.39772,-2.2504z" fill="#000000" stroke="none"/><path d="M292.17807,263.14682c0.83714,0.55614 2.04577,1.50002 3.49507,3.16667c1.0951,1.25928 2.06143,2.62395 2.86989,3.88277c0.12498,0.1943 0.24425,0.38336 0.35736,0.56523c0.68296,1.09841 1.32602,2.23293 1.92881,3.36961c0.80577,1.51952 1.46558,2.91173 1.6585,3.31799l-3.44031,1.81071c-0.19081,-0.40168 -0.81711,-1.72272 -1.57679,-3.15536c-0.5669,-1.06903 -1.16342,-2.12027 -1.78852,-3.12559c-0.10335,-0.16682 -0.21205,-0.33888 -0.3256,-0.51551c-0.74031,-1.15271 -1.59079,-2.34741 -2.5206,-3.41665c-1.20588,-1.38672 -2.14718,-2.10235 -2.71082,-2.47655z" fill="#000000" stroke="none"/><path d="M320.41333,264.22515c0.87908,0.25782 2.06705,0.73572 3.46747,1.75399c0.6501,0.47266 1.23588,0.98046 1.75135,1.4613c0.28727,0.26809 0.57795,0.55136 0.89081,0.86538c0.73183,0.7348 1.48555,1.53954 2.12376,2.14599c0.88413,0.84039 1.39948,1.16357 1.72645,1.33562l-1.72017,3.62141c-0.69219,-0.36433 -1.491,-0.91346 -2.5835,-1.95142c-0.76249,-0.72447 -1.5282,-1.54595 -2.20135,-2.22181c-0.28759,-0.28896 -0.54303,-0.53756 -0.78727,-0.76522c-0.44184,-0.41221 -0.90268,-0.8086 -1.38614,-1.1599c-1.00219,-0.72846 -1.78862,-1.0307 -2.31385,-1.18509z" fill="#000000" stroke="none"/><path d="M320.58756,263.58851c-0.04772,1.15441 -0.24629,2.82027 -1.03214,4.78773c-0.31877,0.79806 -0.68695,1.53103 -1.06607,2.20087c-0.29064,0.51355 -0.61802,1.04385 -1.00179,1.62282c-0.72404,1.09252 -1.56898,2.2294 -2.2806,3.25669c-1.0191,1.47117 -1.52045,2.37921 -1.87235,3.12009l-3.44032,-1.81071c0.46328,-0.97529 1.08273,-2.07507 2.20475,-3.69481c0.76634,-1.10632 1.59058,-2.2171 2.23391,-3.1878c0.34035,-0.51348 0.61605,-0.96168 0.8519,-1.37841c0.30885,-0.5458 0.58965,-1.1092 0.82482,-1.69799c0.56546,-1.41563 0.70156,-2.58417 0.73512,-3.39447z" fill="#000000" stroke="none"/><path d="M295.5186,217.64702c-8.4543,0.29998 -8.45432,0.29998 -8.45432,-10.29909c0,-10.59906 0,-31.7968 8.35931,-41.89612c8.35931,-10.09933 25.0776,-9.09943 33.53207,1.19967c8.45446,10.2991 8.64445,29.89702 0.28514,39.99632c-8.35931,10.0993 -25.26792,10.69924 -33.72222,10.99923z" fill="#000080" stroke="#dacc2e"/></g></g></svg>