<svg version="1.1" xmlns="http://www.w3.org/2000/svg" xmlns:xlink="http://www.w3.org/1999/xlink" width="211.66604" height="163.7981" viewBox="0,0,211.66604,163.7981"><g transform="translate(-209.11842,-99.97079)"><g data-paper-data="{&quot;isPaintingLayer&quot;:true}" fill-rule="nonzero" stroke="#ffffff" stroke-linejoin="miter" stroke-miterlimit="10" stroke-dasharray="" stroke-dashoffset="0" style="mix-blend-mode: normal"><path d="M243.32191,155.9218c-6.01012,-11.9846 -2.45166,-14.92054 19.45924,-27.62773c6.0855,-3.52927 28.14639,-13.70086 28.3946,-3.65353c0.58141,23.53377 0,91.35063 0,91.35063c0,0 11.28595,-1.01763 16.28222,1.2558c6.96195,3.16786 5.34053,20.69178 -1.38995,21.34871c-19.53293,1.90649 -33.77329,0.53607 -58.17914,0.41858c-7.29142,-0.0351 -7.54172,-19.53216 -0.99282,-22.39519c5.09412,-2.22702 18.26785,-0.83721 18.26785,-0.83721l-0.19856,-58.18569c0,0 -17.48164,6.62449 -21.64344,-1.6744z" fill="#6250e8" stroke-width="7.5" stroke-linecap="round"/><path d="M209.11842,263.76889v-163.7981h211.66604v163.7981z" fill="none" stroke-width="0" stroke-linecap="butt"/><path d="M404.48016,151.49064c-0.0253,9.01733 -4.71135,17.59046 -12.86486,23.53617c12.06871,6.47867 19.3044,17.3113 19.30559,28.90262c0.00003,19.25182 -19.5959,34.85861 -43.76895,34.8588c-11.60849,0.00012 -22.74158,-3.67241 -30.95006,-10.20974c-8.20848,-6.53733 -12.81997,-15.40386 -12.81994,-24.64906c0.02482,-11.4042 7.05247,-22.0776 18.81709,-28.57899c-8.40068,-5.95971 -13.24348,-14.67791 -13.25381,-23.85983c0.00045,-17.34287 16.90904,-31.40191 37.76693,-31.4022c20.85827,-0.00017 37.7675,14.059 37.76798,31.4022zM355.0017,156.29922c-0.00003,6.3896 5.63619,11.56947 12.58897,11.56958c3.33901,0.00019 6.54136,-1.21866 8.90247,-3.38838c2.36111,-2.16974 3.68756,-5.11261 3.68756,-8.18119c0.00002,-3.06858 -1.32645,-6.01145 -3.68756,-8.18118c-2.36111,-2.16974 -5.56346,-3.38857 -8.90247,-3.38837c-6.95278,0.00012 -12.58902,5.17995 -12.58897,11.56953zM352.65978,198.97025c-0.00017,3.78576 1.66536,7.41651 4.63019,10.09352c2.96485,2.67703 6.98608,4.18101 11.17914,4.18108c4.19305,-0.00011 8.21429,-1.50407 11.17914,-4.18108c2.96485,-2.67703 4.63038,-6.30776 4.63021,-10.09352c-0.00033,-7.883 -7.07825,-14.27336 -15.80935,-14.27353c-8.73111,0.00017 -15.809,6.39052 -15.80933,14.27353z" fill="#6250e8" stroke-width="7.75" stroke-linecap="butt"/></g></g></svg>