<svg version="1.1" xmlns="http://www.w3.org/2000/svg" xmlns:xlink="http://www.w3.org/1999/xlink" width="154.9096" height="173.92545" viewBox="0,0,154.9096,173.92545"><g transform="translate(-246.73606,-65.92497)"><g data-paper-data="{&quot;isPaintingLayer&quot;:true}" fill-rule="nonzero" stroke-linecap="butt" stroke-linejoin="miter" stroke-miterlimit="10" stroke-dasharray="" stroke-dashoffset="0" style="mix-blend-mode: normal"><path d="M290.85542,95.6021c14.91235,-12.50333 40.27194,-11.41934 56.67023,-1.30493c12.92284,7.97078 22.63663,25.9978 21.79625,42.01805c-1.31247,25.01971 -40.68631,61.06971 -40.68631,61.06971c0,0 27.45369,-2.5879 39.23322,3.65374c5.12871,2.71753 7.72868,24.97465 0.96873,25.5762c-21.64394,1.926 -83.96665,2.78793 -87.185,-3.65374c-15.90258,-31.82954 48.90703,-59.26327 51.58445,-92.12652c0.57133,-7.01254 -3.96439,-20.17046 -12.35119,-12.78809c-8.08526,7.11692 -6.7925,24.48364 -16.46827,28.70798c-7.94817,3.47009 -20.63226,1.2025 -24.94461,-6.78553c-7.15988,-13.26268 0.14485,-34.94466 11.3825,-44.36687z" fill="#53e300" stroke="#ffffff" stroke-width="7.5"/><path d="M246.73606,239.85042v-173.92545h154.9096v173.92545z" fill="none" stroke="none" stroke-width="0"/></g></g></svg>