<svg version="1.1" xmlns="http://www.w3.org/2000/svg" xmlns:xlink="http://www.w3.org/1999/xlink" width="178.38287" height="170.15557" viewBox="0,0,178.38287,170.15557"><g transform="translate(-231.55651,-96.60508)"><g data-paper-data="{&quot;isPaintingLayer&quot;:true}" fill-rule="nonzero" stroke-linecap="butt" stroke-linejoin="miter" stroke-miterlimit="10" stroke-dasharray="" stroke-dashoffset="0" style="mix-blend-mode: normal"><path d="M293.49315,131.82173c11.65553,-9.77263 31.47664,-8.92539 44.29358,-1.01993c10.10052,6.22998 17.69283,20.31994 17.036,32.84141c-1.02582,19.55547 -31.80051,47.73222 -31.80051,47.73222c0,0 21.45787,-2.02271 30.66478,2.85577c4.00861,2.12403 6.04076,19.52025 0.75716,19.99042c-16.91695,1.50536 -65.62853,2.17905 -68.14399,-2.85577c-12.42949,-24.87804 38.22585,-46.3203 40.31852,-72.0063c0.44655,-5.48102 -3.09858,-15.76527 -9.65372,-9.99521c-6.31946,5.56261 -5.30904,19.13646 -12.87164,22.43822c-6.21231,2.71222 -16.12622,0.93988 -19.49677,-5.30358c-5.59618,-10.36615 0.11322,-27.31283 8.89658,-34.67725z" fill="#53e300" stroke="#ffffff" stroke-width="7.5"/><path d="M231.55651,266.76065v-170.15557h178.38287v170.15557z" fill="none" stroke="#000000" stroke-width="0"/></g></g></svg>