<svg version="1.1" xmlns="http://www.w3.org/2000/svg" xmlns:xlink="http://www.w3.org/1999/xlink" width="204.59417" height="297.22955" viewBox="0,0,204.59417,297.22955"><defs><linearGradient x1="222.86283" y1="236.90176" x2="415.73705" y2="146.37198" gradientUnits="userSpaceOnUse" id="color-1"><stop offset="0" stop-color="#ff9900"/><stop offset="1" stop-color="#ab2100"/></linearGradient><linearGradient x1="222.86284" y1="236.90176" x2="415.73705" y2="146.37198" gradientUnits="userSpaceOnUse" id="color-2"><stop offset="0" stop-color="#000000"/><stop offset="1" stop-color="#000000" stop-opacity="0"/></linearGradient></defs><g transform="translate(-214.89515,-20.15421)"><g data-paper-data="{&quot;isPaintingLayer&quot;:true}" fill-rule="nonzero" stroke-miterlimit="10" stroke-dasharray="" stroke-dashoffset="0" style="mix-blend-mode: normal"><path d="M296.17939,65.41287c31.39132,-18.52224 58.7302,-13.67788 83.87338,17.93057c25.14318,31.60846 48.08766,89.97723 36.21547,135.3735c-11.87221,45.39627 -58.5596,77.81454 -94.43392,91.41884c-35.87431,13.6043 -60.93111,8.39298 -80.45024,-18.48105c-19.51913,-26.87401 -33.49846,-75.40841 -22.76757,-120.62027c10.73088,-45.21186 46.17158,-87.09935 77.56288,-105.62159z" fill="url(#color-1)" stroke="url(#color-2)" stroke-width="0" stroke-linecap="round" stroke-linejoin="bevel" style="mix-blend-mode: lighten"/><path d="M333.13324,73.71694l-0.08656,-51.34344c0,0 7.35149,-3.96195 10.06493,-1.29854c12.87863,12.64118 -1.15023,51.92396 -1.15023,51.92396z" fill="#502d16" stroke="#000000" stroke-width="0" stroke-linecap="round" stroke-linejoin="bevel"/><path d="M401.78013,63.99781c3.78989,7.88471 -0.68375,11.39955 -18.84855,9.82159c-18.16481,-1.57797 -25.27702,-3.51998 -35.99378,-13.29595c-10.71676,-9.77597 7.15708,-18.59493 22.59945,-17.25347c15.44236,1.34146 28.45297,12.84312 32.24288,20.72783z" fill="#008000" stroke="#000000" stroke-width="0" stroke-linecap="round" stroke-linejoin="bevel"/><path d="M275.26243,148.25798c1.61867,-18.01642 25.51566,-25.91902 41.51817,-27.63691c10.53114,-1.13052 23.84687,2.25818 29.88051,12.04685c9.03149,14.65225 10.34743,42.679 -0.62904,53.50958c-3.91023,3.85828 8.31004,10.89752 11.57864,18.13831c4.41407,9.77826 1.61998,23.45291 -1.82817,31.81335c-6.3462,15.38703 -24.61274,25.7322 -39.63097,24.44803c-17.49023,-1.49554 -40.81143,-16.26649 -41.81035,-35.99382c-0.3813,-7.52981 7.8119,-14.88518 14.46844,-15.69382c10.5173,-1.27762 16.63385,21.57446 27.02737,18.73593c8.34085,-2.27795 12.8402,-23.45722 7.23424,-23.73937c-7.5507,-0.38004 -20.11703,-0.82534 -24.71771,-9.10116c-2.17397,-3.91057 -0.69508,-9.94334 1.66477,-13.71467c4.86148,-7.76919 18.95856,-4.49108 22.46858,-13.135c1.90711,-4.69651 1.01683,-13.01825 -3.19,-15.07117c-8.53192,-4.16352 -14.97519,16.7206 -24.21894,15.59005c-8.85539,-1.08304 -20.71242,-10.21302 -19.81549,-20.19619z" fill="#ff950b" stroke="#ffffff" stroke-width="6.5" stroke-linecap="butt" stroke-linejoin="miter"/></g></g></svg>