<svg version="1.1" xmlns="http://www.w3.org/2000/svg" xmlns:xlink="http://www.w3.org/1999/xlink" width="171.46136" height="250.9003" viewBox="0,0,171.46136,250.9003"><g transform="translate(-241.87925,-57.09077)"><g data-paper-data="{&quot;isPaintingLayer&quot;:true}" fill-rule="nonzero" stroke-linecap="butt" stroke-linejoin="miter" stroke-miterlimit="10" stroke-dasharray="" stroke-dashoffset="0" style="mix-blend-mode: normal"><path d="M375.02096,173.60113c12.60701,-4.89803 32.18455,2.80555 37.4602,15.0513c2.14331,4.97496 -1.00913,12.98267 -6.0503,15.16659c-7.71703,3.3432 -15.54687,-10.36905 -23.42116,-9.05822c-6.9938,1.16426 -11.47901,13.11389 -13.06678,19.47402c-3.24983,13.01772 -10.99405,33.06487 -23.81024,30.79698c-6.03527,-1.06798 -5.19422,-17.40579 -5.19422,-17.40579c0,0 15.94783,-12.04406 18.33604,-20.94948c2.56729,-9.57323 4.26692,-28.61539 15.74646,-33.07541z" fill="#d35227" stroke="#d35227" stroke-width="0.35491"/><path d="M314.01491,109.0033c-2.52673,-13.94017 4.59099,-3.07302 19.7549,-14.42704c3.57957,-2.86007 7.606,10.6241 3.32516,11.97932c25.08627,5.15943 -31.22276,24.04732 -23.08006,2.44772z" fill="#d3613a" stroke="#d3613a" stroke-width="0.31323"/><path d="M269.29216,140.72288c-2.08925,-6.75988 10.38315,-26.2986 21.41709,-32.23655c10.72497,-5.77168 25.8583,-12.13716 32.70288,-18.71866c3.3089,-3.18172 8.82216,9.59412 4.73591,11.47392c25.51614,1.98685 -52.03437,61.55276 -58.85587,39.48129z" fill="#d3613a" stroke="#d3613a" stroke-width="0.31323"/><g><path d="M361.87464,145.74704c1.60198,-9.19452 8.56103,-15.82729 15.54347,-14.81473c6.98244,1.01258 11.34417,9.28705 9.74218,18.48158c-1.60198,9.19452 -8.56103,15.82729 -15.54347,14.81473c-6.98244,-1.01258 -11.34417,-9.28705 -9.74218,-18.48158z" fill="#d3613a" stroke="#d3613a" stroke-width="0.3288"/><path d="M363.48728,145.55581c1.05918,-6.76284 5.85517,-11.60627 10.71216,-10.81812c4.85699,0.78815 7.93573,6.90945 6.87655,13.67228c-1.05918,6.76284 -5.85517,11.60627 -10.71216,10.81812c-4.85699,-0.78815 -7.93573,-6.90945 -6.87655,-13.67228z" fill="#f9d6b6" stroke="#f9d6b6" stroke-width="0.23513"/></g><g><path d="M268.37853,164.22862c-6.98244,1.01258 -13.94149,-5.62021 -15.54347,-14.81473c-1.60198,-9.19452 2.75975,-17.469 9.74219,-18.48158c6.98244,-1.01258 13.94149,5.62021 15.54347,14.81473c1.60198,9.19452 -2.75975,17.469 -9.74219,18.48158z" fill="#d3613a" stroke="#d3613a" stroke-width="0.3288"/><path d="M269.63152,159.22811c-4.85699,0.78815 -9.65299,-4.05528 -10.71216,-10.81812c-1.05918,-6.76284 2.01956,-12.88413 6.87656,-13.67228c4.85699,-0.78815 9.65299,4.05528 10.71216,10.81812c1.05918,6.76284 -2.01956,12.88413 -6.87656,13.67228z" fill="#f9d6b6" stroke="#f9d6b6" stroke-width="0.23513"/></g><path d="M266.2487,152.87449c-1.77857,-26.32581 20.77828,-49.35705 50.38211,-51.44169c29.60385,-2.08464 55.04431,17.56672 56.82288,43.89254c1.77857,26.32581 -20.77828,49.35705 -50.38211,51.44169c-29.60385,2.08464 -55.04431,-17.56672 -56.82288,-43.89254z" fill="#d3613a" stroke="#d3613a" stroke-width="0.37237"/><g><path d="M269.47835,67.57306h19.88293h29.52351h31.22256h21.59092c1.83694,2.65348 2.77495,5.4304 2.77848,8.22556c-0.00026,14.47958 -24.54047,26.21757 -54.81242,26.21769c-30.27222,0.00007 -54.81285,-11.73798 -54.81311,-26.21769c0.03937,-2.79804 1.01492,-5.57503 2.88963,-8.22556z" fill="#dea463" stroke="#dea463" stroke-width="0.53409"/><path d="M267.77551,68.23267c0,-6.08005 23.31496,-11.0089 52.07541,-11.0089c28.76046,0 52.07541,4.92885 52.07541,11.0089c0,6.08005 -23.31496,11.0089 -52.07541,11.0089c-28.76046,0 -52.07541,-4.92885 -52.07541,-11.0089z" fill="#c87137" stroke="#c87137" stroke-width="0.26599"/></g><g stroke-width="0.26458"><path d="M371.42008,120.18664c0,0 -7.05126,0.94249 -10.08535,-0.98527c-4.05484,-2.57629 -9.29038,-7.81443 -8.3704,-12.56511c0.55528,-2.86739 7.18461,-3.42768 7.18461,-3.42768c0,0 -15.01342,-20.50101 -9.47059,-26.90742c6.09297,-7.04227 19.77029,4.03353 26.96339,10.44628c7.98075,7.11495 12.17414,18.17784 9.80028,26.3955c-1.76047,6.09425 -16.02193,7.04369 -16.02193,7.04369z" fill="#f9d6b6" stroke="#f9d6b6"/><path d="M367.36442,182.03154c3.38591,-8.008 9.62386,-25.41584 8.52138,-32.47213c-2.07687,-13.29278 -4.88328,-25.49018 -3.96054,-29.77089c1.19918,-5.56318 15.16001,-11.6954 18.58448,-6.86136c4.65911,6.57686 6.35878,14.15508 6.91103,22.90512c0.89846,14.23546 1.18094,51.41471 -18.97456,63.28222c-49.90303,29.38278 -58.39571,7.58139 -38.59785,-2.09532c8.18092,-3.99864 24.13015,-6.97963 27.51606,-14.98764z" fill="#d76036" stroke="#d76036"/></g><g stroke-width="0.26458"><path d="M252.30021,113.14295c-2.37386,-8.21767 1.81954,-19.28054 9.80028,-26.3955c7.1931,-6.41274 20.87041,-17.48854 26.96339,-10.44628c5.54283,6.40642 -9.47059,26.90742 -9.47059,26.90742c0,0 6.62934,0.56029 7.18461,3.42768c0.91998,4.75067 -4.31556,9.98882 -8.3704,12.56511c-3.0341,1.92775 -10.08535,0.98527 -10.08535,0.98527c0,0 -14.26147,-0.94943 -16.02193,-7.04369z" fill="#f9d6b6" stroke="#f9d6b6"/><path d="M299.89386,197.01918c19.79786,9.67671 11.30518,31.4781 -38.59785,2.09532c-20.15551,-11.86752 -19.87302,-49.04676 -18.97456,-63.28222c0.55225,-8.75004 2.25192,-16.32826 6.91103,-22.90512c3.42448,-4.83403 17.3853,1.29818 18.58448,6.86136c0.92274,4.2807 -1.88369,16.47811 -3.96054,29.77089c-1.10247,7.0563 5.13547,24.46412 8.52138,32.47213c3.38591,8.00801 19.33514,10.98899 27.51606,14.98764z" fill="#d76036" stroke="#d76036"/></g><path d="M319.13108,192.90324c9.39336,0.00011 19.30419,0.48262 21.37192,2.41262c5.66271,5.28534 9.20093,52.29208 8.0001,67.54532c-0.2731,3.46887 -0.96371,5.4139 -1.15222,8.48188c-2.02015,0.01583 -3.05244,3.51713 -5.0723,3.55338c-2.55548,0.05234 -4.40434,2.45957 -6.95985,2.51315c-2.91541,0.01742 -5.83153,0.03304 -8.74592,0.11101c-0.95294,0.03148 -1.90912,0.0613 -2.86182,0.1238c-0.1057,-0.00265 -0.21161,-0.00559 -0.31742,-0.00619c-0.35974,0.00089 -0.46599,-0.00176 -0.82881,0.00707c-0.66918,0.01521 -1.33754,0.04756 -2.00602,0.0786c-0.58793,0.03301 -1.17577,0.06829 -1.76258,0.11558c-0.21403,0.01724 -0.43448,0.03562 -0.65285,0.058c-1.98848,-0.05037 -4.04151,0.76131 -5.23276,2.32126c-2.56026,3.35279 -3.12076,11.95943 -3.12076,11.95943c0,0 -24.33773,4.32078 -22.03776,-5.05917c1.42263,-5.80196 -4.69999,-94.6006 13.10888,-93.73334c0,0 8.87679,-0.48207 18.27016,-0.48198v-0.00045z" fill="#d3613a" stroke="#d3613a" stroke-width="0.361"/><path d="M312.61436,301.05082c-1.41249,2.38165 -8.17252,0.38956 -8.17252,0.38956c-30.83991,21.19092 -30.44776,-17.69039 -15.17314,-10.48853c5.74142,2.70703 11.02761,3.9686 18.96644,0.48408c3.22876,-1.41716 6.17236,6.59141 4.37921,9.61489z" fill="#f9d6b6" stroke="#f9d6b6" stroke-width="0.31323"/><path d="M296.31166,235.32732c0,-18.0869 10.00952,-32.74922 22.35691,-32.74922c12.34737,0 22.35691,14.66232 22.35691,32.74922c0,18.0869 -10.00952,32.74922 -22.35691,32.74922c-12.34737,0 -22.35691,-14.66232 -22.35691,-32.74922z" fill="#f9d6b6" stroke="#d3613a" stroke-width="0.72487"/><g fill="#f9d6b6" stroke="#f9d6b6" stroke-width="0.23715"><path d="M290.23826,181.36175c-16.93923,-13.70373 -23.31232,-36.37761 -14.2347,-50.64351c9.07763,-14.26591 30.16845,-14.72164 47.10768,-1.01791c16.93923,13.70373 23.31232,36.37761 14.2347,50.64351c-9.07763,14.26591 -30.16845,14.72164 -47.10768,1.01791z"/><path d="M301.04939,179.38612c-8.38198,-14.80339 -0.82177,-37.26618 16.88621,-50.17204c17.70797,-12.90585 38.85806,-11.36758 47.24004,3.43581c8.38198,14.80339 0.82177,37.26618 -16.88621,50.17204c-17.70797,12.90585 -38.85806,11.36758 -47.24004,-3.43581z"/></g><path d="M300.46666,175.5696c10.53822,3.66748 21.46439,8.31762 40.61976,-0.96816c-13.32045,7.04437 -26.87796,6.82809 -40.61976,0.96816z" fill="#ffffff" stroke="#92391b" stroke-width="0.31323"/><path d="M319.52826,170.26394c0.02395,2.90407 0.1396,6.00345 0.3253,9.46849c-0.05079,-0.01177 -0.10198,-0.01459 -0.15286,-0.01105c-0.03037,0.00186 -0.06026,0.0061 -0.09016,0.01317c-0.15781,-3.13411 -0.23297,-6.27576 -0.19708,-9.47078z" fill="#ffffff" stroke="#92391b" stroke-width="0.31323"/><g fill="#92391b" stroke="#92391b" stroke-width="0.23715"><path d="M316.29611,170.42308c-1.97657,-1.32195 -2.81699,-3.4979 -1.87712,-4.86015c0.93987,-1.36225 3.30411,-1.39491 5.28069,-0.07297c1.97657,1.32195 2.81699,3.4979 1.87712,4.86015c-0.93987,1.36225 -3.30411,1.39491 -5.28069,0.07297z"/><path d="M316.91066,170.35012c-0.93987,-1.36225 -0.09945,-3.53821 1.87712,-4.86015c1.97657,-1.32195 4.34082,-1.28926 5.28069,0.07297c0.93987,1.36225 0.09945,3.53821 -1.87712,4.86015c-1.97657,1.32195 -4.34082,1.28926 -5.28069,-0.07297z"/></g><g><path d="M306.46608,158.24961c-5.30676,5.21503 -13.61922,4.67168 -18.56642,-1.21356c-4.94719,-5.88526 -4.65572,-14.8838 0.65104,-20.09882c5.30676,-5.21503 13.61922,-4.67168 18.56642,1.21356c4.94719,5.88526 4.65572,14.8838 -0.65104,20.09882z" fill="#ffffff" stroke="#ffffff" stroke-width="0.90331"/><path d="M288.88283,148.53695c0,-4.61833 3.92856,-8.36222 8.7747,-8.36222c4.84613,0 8.7747,3.74389 8.7747,8.36222c0,4.61833 -3.92856,8.36222 -8.7747,8.36222c-4.84613,0 -8.7747,-3.74389 -8.7747,-8.36222z" fill="#690400" stroke="#690400" stroke-width="0.1656"/><path d="M299.14548,144.17582c0,-2.29122 1.69715,-4.14862 3.79068,-4.14862c2.09354,0 3.79068,1.8574 3.79068,4.14862c0,2.29122 -1.69715,4.14862 -3.79068,4.14862c-2.09354,0 -3.79068,-1.8574 -3.79068,-4.14862z" fill="#ffffff" stroke="#ffffff" stroke-width="0.3191"/></g><g><path d="M329.05697,138.15077c4.94719,-5.88526 13.25966,-6.42859 18.56642,-1.21356c5.30676,5.21503 5.59823,14.21357 0.65104,20.09882c-4.94719,5.88526 -13.25966,6.42859 -18.56642,1.21356c-5.30676,-5.21503 -5.59823,-14.21357 -0.65104,-20.09882z" fill="#ffffff" stroke="#ffffff" stroke-width="0.90331"/><path d="M338.51656,156.89917c-4.84613,0 -8.7747,-3.74389 -8.7747,-8.36222c0,-4.61833 3.92856,-8.36222 8.7747,-8.36222c4.84613,0 8.7747,3.74389 8.7747,8.36222c0,4.61833 -3.92856,8.36222 -8.7747,8.36222z" fill="#690400" stroke="#690400" stroke-width="0.1656"/><path d="M333.23792,148.32444c-2.09354,0 -3.79068,-1.8574 -3.79068,-4.14862c0,-2.29122 1.69715,-4.14862 3.79068,-4.14862c2.09354,0 3.79068,1.8574 3.79068,4.14862c0,2.29122 -1.69715,4.14862 -3.79068,4.14862z" fill="#ffffff" stroke="#ffffff" stroke-width="0.3191"/></g><path d="M327.49235,275.94574c-2.3572,-4.87559 -4.49474,-11.81568 0.24231,-15.40239c5.17105,-3.91533 16.54757,-3.59837 21.2497,0.52375c4.63874,4.06656 2.33706,12.09306 -1.41004,16.81965c-1.21591,1.53374 -2.03808,3.76399 -5.17443,4.07239c-2.57716,0.25341 -3.5685,0.86584 -6.70838,1.37465c-3.9824,0.64532 -6.78059,-4.45384 -8.19917,-7.38805z" fill="#d3613a" stroke="#d76036" stroke-width="0.30757"/><path d="M329.86074,274.13326c8.07302,3.21671 13.30515,1.77922 18.93435,-1.11798c14.97608,-7.70779 16.92455,31.13438 -14.74308,10.98888c0,0 -6.67573,2.21681 -8.18263,-0.11602c-1.91299,-2.96149 0.70802,-11.06312 3.99135,-9.75488z" fill="#f9d6b6" stroke="#f9d6b6" stroke-width="0.31323"/></g></g></svg>