<svg version="1.1" xmlns="http://www.w3.org/2000/svg" xmlns:xlink="http://www.w3.org/1999/xlink" width="694.53599" height="302.65955" viewBox="0,0,694.53599,302.65955"><g transform="translate(27.292,-128.48244)"><g data-paper-data="{&quot;isPaintingLayer&quot;:true}" fill-rule="nonzero" stroke="none" stroke-linecap="round" stroke-linejoin="miter" stroke-miterlimit="10" stroke-dasharray="" stroke-dashoffset="0" style="mix-blend-mode: normal"><path d="M-24.3827,192.49322c0,0 22.03394,-7.36781 30.69294,-14.65762c7.09305,-5.97149 15.66242,-10.25737 24.47664,-10.02889c15.99726,0.41469 26.23115,24.12585 43.4209,20.47892c7.96365,-6.77928 14.70559,-39.96666 35.44827,-35.13653c10.78382,2.51111 21.85512,17.09067 34.96666,18.51488c11.74355,1.27562 22.4384,-11.02416 34.1486,-9.47193c16.10221,2.13441 26.31442,30.20096 41.94147,24.80816c19.21045,-6.62941 18.31125,-49.14932 47.94181,-37.4583c37.88538,16.13308 50.34589,-15.68319 72.30511,-14.00929c33.51846,2.55504 48.92664,31.69941 84.71746,32.19569c29.10787,0.40361 27.74789,-26.19301 57.33946,-20.95528c33.39022,11.06903 25.72297,-33.87239 85.72885,-12.39367c63.64425,22.16799 60.62249,55.11062 76.31423,44.42779c31.26064,-21.28202 10.58535,180.99432 10.58535,180.99432l-263.71665,6.52583l-360.77152,2.08013l-58.44888,-3.84807z" fill="#e08a00" stroke-width="1.50542"/><path d="M-16.63573,212.09393l91.39016,20.69808h60.92677l112.50682,-29.52022l61.61913,-1.69657l62.31147,-23.07327l92.08251,21.0374l110.42975,13.23321l86.54372,-22.05535l-0.34615,164.90607l-222.93661,2.03588l-454.52756,-3.39312z" fill="#db8000" stroke-width="1.51509"/><g fill="#626f04"><path d="M-4.25058,277.106c-7.27629,-7.19238 -7.68274,-41.19009 -5.75833,-32.99462c1.92441,8.19547 10.55693,16.49731 10.55693,16.49731c0,0 -0.80298,-22.77721 2.3993,-18.20393c3.20228,4.57328 8.67543,7.19212 9.11735,21.0483c0.44192,13.85619 4.8452,-42.83731 4.55868,-35.839c5.4718,6.71387 8.87742,34.70125 8.87742,34.70125l6.71805,-22.75492l2.3993,13.65296c0,0 7.53369,20.0147 2.3993,25.03039c-10.61895,10.37346 -30.69994,9.30847 -41.26801,-1.13774z" stroke-width="3"/><path d="M31.51731,277.43923c-5.13438,-5.01569 2.3993,-25.03039 2.3993,-25.03039c0,0 2.6891,-6.27326 4.91857,-10.09751c1.96551,-3.37148 4.19878,19.19946 4.19878,19.19946c0,0 4.25839,-18.56979 7.07794,-26.02594c2.81955,-7.45615 5.91624,41.01988 6.35815,27.16369c0.44192,-13.85619 9.63399,-10.64407 10.43697,-16.07067c0.80298,-5.42659 1.07969,13.2263 1.07969,13.2263c0,0 8.75249,-20.53261 7.55781,-15.644c-1.19468,4.88861 4.51708,24.94893 -2.7592,32.14131c-10.56808,10.44621 -30.64907,11.5112 -41.26801,1.13774z" stroke-width="3"/><path d="M75.73512,277.67487c-5.13438,-5.01569 2.3993,-25.03039 2.3993,-25.03039l2.3993,-13.65296l6.71805,22.75492c0,0 3.40562,-27.98738 8.87742,-34.70125c-0.28652,-6.99831 4.11676,49.69518 4.55868,35.839c0.44192,-13.85619 5.91507,-16.47502 9.11735,-21.0483c3.20228,-4.57328 2.3993,18.20393 2.3993,18.20393c0,0 8.63253,-8.30184 10.55694,-16.49731c1.92441,-8.19547 1.51796,25.80224 -5.75833,32.99462c-10.56808,10.44621 -30.64907,11.5112 -41.26801,1.13774z" stroke-width="3"/><path d="M114.77313,276.87036c-5.13438,-5.01569 2.3993,-25.03039 2.3993,-25.03039c0,0 2.6891,-6.27326 4.91856,-10.09751c1.96551,-3.37148 4.19878,19.19946 4.19878,19.19946c0,0 4.25839,-18.56979 7.07794,-26.02594c2.81955,-7.45615 5.91624,41.01988 6.35815,27.16369c0.44192,-13.85619 9.63399,-10.64407 10.43697,-16.07067c0.80298,-5.42659 1.07969,13.2263 1.07969,13.2263c0,0 8.75249,-20.53261 7.55781,-15.644c-1.19468,4.88861 4.51708,24.94893 -2.7592,32.14131c-10.56808,10.44621 -30.64907,11.5112 -41.26801,1.13774z" stroke-width="3"/><path d="M158.99958,277.106c-7.27629,-7.19238 -7.68274,-41.19009 -5.75833,-32.99462c1.92441,8.19547 10.55693,16.49731 10.55693,16.49731c0,0 -0.80297,-22.77721 2.3993,-18.20393c3.20228,4.57328 8.67543,7.19212 9.11735,21.0483c0.44192,13.85619 4.8452,-42.83731 4.55867,-35.839c5.4718,6.71387 8.87743,34.70125 8.87743,34.70125l6.71805,-22.75492l2.3993,13.65296c0,0 7.53369,20.0147 2.3993,25.03039c-10.61895,10.37346 -30.69994,9.30847 -41.26801,-1.13774z" stroke-width="3"/><path d="M194.76748,277.43923c-5.13438,-5.01569 2.3993,-25.03039 2.3993,-25.03039c0,0 2.6891,-6.27326 4.91857,-10.09751c1.9655,-3.37148 4.19878,19.19946 4.19878,19.19946c0,0 4.25839,-18.56979 7.07794,-26.02594c2.81955,-7.45615 5.91624,41.01988 6.35815,27.16369c0.44192,-13.85619 9.63399,-10.64407 10.43697,-16.07067c0.80298,-5.42659 1.07969,13.2263 1.07969,13.2263c0,0 8.75249,-20.53261 7.55781,-15.644c-1.19468,4.88861 4.51708,24.94893 -2.7592,32.14131c-10.56808,10.44621 -30.64907,11.5112 -41.26801,1.13774z" stroke-width="3"/><path d="M238.98529,277.67487c-5.13438,-5.01569 2.3993,-25.03039 2.3993,-25.03039l2.3993,-13.65296l6.71805,22.75492c0,0 3.40562,-27.98738 8.87742,-34.70125c-0.28652,-6.99831 4.11676,49.69518 4.55868,35.839c0.44192,-13.85619 5.91507,-16.47502 9.11735,-21.0483c3.20228,-4.57328 2.3993,18.20393 2.3993,18.20393c0,0 8.63253,-8.30184 10.55694,-16.49731c1.92441,-8.19547 1.51796,25.80224 -5.75833,32.99462c-10.56808,10.44621 -30.64907,11.5112 -41.26801,1.13774z" stroke-width="3"/><path d="M278.0233,276.87036c-5.13438,-5.01569 2.3993,-25.03039 2.3993,-25.03039c0,0 2.6891,-6.27326 4.91856,-10.09751c1.96551,-3.37148 4.19878,19.19946 4.19878,19.19946c0,0 4.25839,-18.56979 7.07794,-26.02594c2.81955,-7.45615 5.91624,41.01988 6.35815,27.16369c0.44192,-13.85619 9.63399,-10.64407 10.43697,-16.07067c0.80298,-5.42659 1.07969,13.2263 1.07969,13.2263c0,0 8.75249,-20.53261 7.55781,-15.644c-1.19468,4.88861 4.51708,24.94893 -2.7592,32.14131c-10.56808,10.44621 -30.64907,11.5112 -41.26801,1.13774z" stroke-width="3"/><path d="M315.69953,277.106c-7.27629,-7.19238 -7.68274,-41.19009 -5.75833,-32.99462c1.92441,8.19547 10.55693,16.49731 10.55693,16.49731c0,0 -0.80297,-22.77721 2.3993,-18.20393c3.20228,4.57328 8.67543,7.19212 9.11735,21.0483c0.44192,13.85619 4.8452,-42.83731 4.55867,-35.839c5.4718,6.71387 8.87743,34.70125 8.87743,34.70125l6.71805,-22.75492l2.3993,13.65296c0,0 7.53369,20.0147 2.3993,25.03039c-10.61895,10.37346 -30.69994,9.30847 -41.26801,-1.13774z" stroke-width="3"/><path d="M351.46743,277.43923c-5.13438,-5.01569 2.3993,-25.03039 2.3993,-25.03039c0,0 2.6891,-6.27326 4.91857,-10.09751c1.9655,-3.37148 4.19878,19.19946 4.19878,19.19946c0,0 4.25839,-18.56979 7.07794,-26.02594c2.81955,-7.45615 5.91624,41.01988 6.35815,27.16369c0.44192,-13.85619 9.63399,-10.64407 10.43697,-16.07067c0.80298,-5.42659 1.07969,13.2263 1.07969,13.2263c0,0 8.75249,-20.53261 7.55781,-15.644c-1.19468,4.88861 4.51708,24.94893 -2.7592,32.14131c-10.56808,10.44621 -30.64907,11.5112 -41.26801,1.13774z" stroke-width="3"/><path d="M395.68524,277.67487c-5.13438,-5.01569 2.3993,-25.03039 2.3993,-25.03039l2.3993,-13.65296l6.71805,22.75492c0,0 3.40562,-27.98738 8.87742,-34.70125c-0.28652,-6.99831 4.11676,49.69518 4.55868,35.839c0.44192,-13.85619 5.91507,-16.47502 9.11735,-21.0483c3.20228,-4.57328 2.3993,18.20393 2.3993,18.20393c0,0 8.63253,-8.30184 10.55694,-16.49731c1.92441,-8.19547 1.51796,25.80224 -5.75833,32.99462c-10.56808,10.44621 -30.64907,11.5112 -41.26801,1.13774z" stroke-width="3"/><path d="M434.72325,276.87036c-5.13438,-5.01569 2.3993,-25.03039 2.3993,-25.03039c0,0 2.6891,-6.27326 4.91856,-10.09751c1.96551,-3.37148 4.19878,19.19946 4.19878,19.19946c0,0 4.25839,-18.56979 7.07794,-26.02594c2.81955,-7.45615 5.91624,41.01988 6.35815,27.16369c0.44192,-13.85619 9.63399,-10.64407 10.43697,-16.07067c0.80298,-5.42659 1.07969,13.2263 1.07969,13.2263c0,0 8.75249,-20.53261 7.55781,-15.644c-1.19468,4.88861 4.51708,24.94893 -2.7592,32.14131c-10.56808,10.44621 -30.64907,11.5112 -41.26801,1.13774z" stroke-width="3"/><path d="M595.627,280.51925c-5.36515,-5.01569 2.50715,-25.03039 2.50715,-25.03039l2.50715,-13.65296l7.02005,22.75492c0,0 3.5587,-27.98738 9.2765,-34.70125c-0.29945,-6.99831 4.3018,49.69518 4.76355,35.839c0.4618,-13.85619 6.181,-16.47502 9.5272,-21.0483c3.34625,-4.57328 2.50715,18.20393 2.50715,18.20393c0,0 9.02055,-8.30184 11.0315,-16.49731c2.0109,-8.19547 1.5862,25.80224 -6.0172,32.99462c-11.0431,10.44621 -32.02674,11.5112 -43.12304,1.13774z" stroke-width="3.06668"/><path d="M557.57266,280.78253c-7.60335,-7.19238 -0.9562,-29.45823 -2.20455,-34.34684c-1.2484,-4.8886 7.8975,15.644 7.8975,15.644c0,0 0.28915,-18.65289 1.12825,-13.2263c0.83905,5.42659 10.44435,2.21448 10.9061,16.07067c0.4618,13.85619 3.6977,-34.61984 6.64395,-27.16369c2.9463,7.45615 7.39615,26.02594 7.39615,26.02594c0,0 2.33365,-22.57094 4.3875,-19.19946c2.3297,3.82425 5.13965,10.09751 5.13965,10.09751c0,0 7.87235,20.0147 2.50715,25.03039c-11.09625,10.37346 -32.75854,11.514 -43.80169,1.06779z" stroke-width="3.06668"/><path d="M509.84033,284.75061c-7.60335,-7.19238 -5.8225,-47.12806 -3.8116,-38.9326c2.0109,8.19547 11.0315,16.49731 11.0315,16.49731c0,0 -0.8391,-22.77721 2.50715,-18.20393c3.3462,4.57328 9.0654,7.19212 9.52715,21.0483c0.4618,13.85619 5.73145,-22.62336 8.6657,-34.31209c1.5993,-6.37085 5.3744,33.17434 5.3744,33.17434l7.02,-22.75492l2.50715,13.65296c0,0 16.02999,34.89039 10.6648,39.90608c-11.09625,10.37346 -42.44309,0.37076 -53.48623,-10.07546z" stroke-width="3.06668"/><path d="M468.8538,287.12549c-7.60336,-7.19238 0.76446,-36.37006 -0.48392,-41.25867c-1.24838,-4.8886 7.89754,15.644 7.89754,15.644c0,0 0.28914,-18.65289 1.12822,-13.2263c0.83907,5.42659 8.76483,16.72074 10.90612,16.07067c2.14129,-0.65007 1.939,-20.01829 4.00472,-16.63954c2.06573,3.37875 10.03531,15.50179 10.03531,15.50179c0,0 0.94775,-26.13114 4.38755,-25.31485c4.12915,0.97989 5.13965,16.21289 5.13965,16.21289c0,0 11.71125,37.2897 6.34605,42.30539c-11.09625,10.37346 -38.31811,1.15083 -49.36123,-9.29538z" stroke-width="3.06668"/></g><path d="M-0.52338,259.46963c16.044,-11.20312 37.63825,14.87924 57.07274,13.74688c20.41824,-1.18968 37.87824,-20.08251 58.29358,-21.33292c33.51804,-2.05292 65.59771,30.24141 98.55706,23.12623c23.09088,-4.98481 49.19147,-19.58629 74.66292,-18.48257c13.8808,0.60148 39.86837,13.56283 39.86837,13.56283c0,0 39.36028,-19.72368 46.14654,-19.72368c6.78626,0 70.41383,28.18575 107.22281,33.37851c25.6213,3.61449 52.0418,3.33987 77.45734,-1.77751c25.43409,-5.1211 48.96028,-38.59239 73.19747,-28.56659c15.2098,6.29159 24.43055,47.03337 24.43055,47.03337l-13.5725,114.42079l-660.98114,-3.03442c0,0 -24.27133,-123.08234 17.64426,-152.35092z" fill="#eeae48" stroke-width="1.58593"/><path d="M10.33463,275.75665c16.044,-11.20312 37.63825,14.87924 57.07274,13.74688c20.41824,-1.18968 37.87824,-20.08251 58.29357,-21.33292c33.51805,-2.05292 65.59772,30.24141 98.55706,23.12623c23.09088,-4.98481 49.19148,-19.58629 74.66292,-18.48257c13.8808,0.60148 39.86838,13.56283 39.86838,13.56283c0,0 39.36028,-19.72368 46.14653,-19.72368c6.78626,0 70.41383,28.18575 107.22282,33.37851c25.62129,3.61449 52.04178,3.33987 77.45732,-1.77751c25.4341,-5.1211 48.96029,-38.59239 73.19748,-28.56659c15.2098,6.29159 24.43054,47.03337 24.43054,47.03337l-13.57249,114.42079l-660.98113,-3.03442c0,0 -24.27133,-123.08234 17.64426,-152.35092z" fill="#eda739" stroke-width="1.58593"/></g></g></svg>