<svg version="1.1" xmlns="http://www.w3.org/2000/svg" xmlns:xlink="http://www.w3.org/1999/xlink" width="251.25669" height="297.73512" viewBox="0,0,251.25669,297.73512"><g transform="translate(-194.37166,-31.00745)"><g data-paper-data="{&quot;isPaintingLayer&quot;:true}" fill-rule="nonzero" stroke-miterlimit="10" stroke-dasharray="" stroke-dashoffset="0" style="mix-blend-mode: normal"><path d="M291.31277,326.47621c-26.05933,-6.05225 -55.55289,-69.8232 -28.83072,-71.10526c59.376,-2.84872 66.16545,-10.19321 68.73248,13.54022c1.89263,17.49832 -19.44615,62.31585 -39.90177,57.56504z" fill="#5a6d28" stroke="#1ce652" stroke-width="0" stroke-linecap="round" stroke-linejoin="bevel"/><path d="M396.95873,47.56681c42.88523,27.90476 53.45902,91.3476 46.40965,138.93227c-7.04937,47.58467 -31.72208,79.30671 -80.18755,92.81854c-48.46546,13.51183 -120.72124,8.81227 -151.26962,-34.95417c-30.54838,-43.76642 -19.38691,-126.59622 23.79118,-171.83042c43.17809,-45.23419 118.37111,-52.871 161.25634,-24.96622z" fill="#dcff82" stroke="#1ce652" stroke-width="0.5" stroke-linecap="round" stroke-linejoin="bevel"/><path d="M355.95454,328.39209c-26.05933,-6.05225 -55.55288,-69.82321 -28.83071,-71.10526c59.376,-2.84872 66.16545,-10.19321 68.73248,13.54021c1.89263,17.49832 -19.44615,62.31586 -39.90177,57.56505z" fill="#8caa3f" stroke="#1ce652" stroke-width="0" stroke-linecap="round" stroke-linejoin="bevel"/><path d="M293.45711,95.31381c14.95833,-5.99744 49.4098,-5.91536 75.37264,-3.27523c7.87325,0.80062 5.82754,21.11071 3.03246,30.51025c-3.95344,13.29486 -33.69797,-0.0889 -47.53725,-0.33324c-5.17041,-0.09128 -5.13612,18.21111 0,17.66173c15.28559,-1.63496 35.49816,-2.63467 43.88055,8.66427c7.87983,10.62155 8.88021,26.47608 6.21639,41.65503c-2.53405,14.43947 -19.59042,27.55804 -35.47011,29.6584c-19.46739,2.57489 -51.55755,4.93149 -60.70141,-11.99665c-4.52704,-8.38094 3.74272,-21.64622 13.16416,-25.32628c11.089,-4.33143 24.7378,16.94725 34.37309,10.33047c9.60925,-6.5989 5.13104,-33.88506 -1.41832,-32.86951c-12.13888,1.88224 -33.80655,9.69892 -37.7085,-2.78721c-4.22979,-13.53522 -9.60602,-55.31564 6.7963,-61.89205z" fill="#4fe3e4" stroke="#ffffff" stroke-width="7.5" stroke-linecap="butt" stroke-linejoin="miter"/></g></g></svg>