<svg version="1.1" xmlns="http://www.w3.org/2000/svg" xmlns:xlink="http://www.w3.org/1999/xlink" width="226.99874" height="173.89525" viewBox="0,0,226.99874,173.89525"><g transform="translate(-205.7527,-92.49142)"><g data-paper-data="{&quot;isPaintingLayer&quot;:true}" fill-rule="nonzero" stroke="#ffffff" stroke-linejoin="miter" stroke-miterlimit="10" stroke-dasharray="" stroke-dashoffset="0" style="mix-blend-mode: normal"><path d="M247.486,155.95911c-6.01012,-11.9846 -2.45166,-14.92054 19.45924,-27.62773c6.0855,-3.52927 28.14639,-13.70086 28.3946,-3.65353c0.58141,23.53377 0,91.35063 0,91.35063c0,0 11.28595,-1.01763 16.28222,1.2558c6.96195,3.16786 5.34053,20.69178 -1.38995,21.34871c-19.53293,1.90649 -33.77329,0.53607 -58.17914,0.41858c-7.29142,-0.0351 -7.54172,-19.53216 -0.99282,-22.39519c5.09412,-2.22702 18.26785,-0.83721 18.26785,-0.83721l-0.19856,-58.18569c0,0 -17.48164,6.62449 -21.64344,-1.6744z" fill="#4eff00" stroke-width="7.5" stroke-linecap="round"/><path d="M326.35641,144.26422c1.31535,-14.64034 20.73432,-21.06209 33.73814,-22.45808c8.55773,-0.91868 19.37823,1.83502 24.28125,9.78941c7.3391,11.90658 8.40844,34.68145 -0.51117,43.48251c-3.17749,3.13528 6.75283,8.85546 9.40893,14.7394c3.58692,7.94592 1.31642,19.0581 -1.4856,25.85189c-5.157,12.50368 -20.00059,20.91028 -32.20459,19.86675c-14.21277,-1.21528 -33.16384,-13.21834 -33.97557,-29.24899c-0.30985,-6.1188 6.34803,-12.09587 11.75723,-12.75298c8.54648,-1.03821 13.51686,17.53165 21.96276,15.22503c6.77788,-1.85109 10.4341,-19.06161 5.87863,-19.29089c-6.13578,-0.30882 -16.34733,-0.67068 -20.08589,-7.3957c-1.7666,-3.17778 -0.56483,-8.08008 1.35282,-11.1447c3.9505,-6.31333 15.40595,-3.6495 18.25822,-10.67366c1.54974,-3.81644 0.82628,-10.57878 -2.59223,-12.247c-6.93314,-3.38333 -12.16901,13.58736 -19.6806,12.66866c-7.19599,-0.88009 -16.83115,-8.29922 -16.1023,-16.41167z" fill="#4eff00" stroke-width="7.5" stroke-linecap="butt"/><path d="M205.7527,266.38667v-173.89525h226.99874v173.89525z" fill="none" stroke-width="0" stroke-linecap="butt"/></g></g></svg>