<svg version="1.1" xmlns="http://www.w3.org/2000/svg" xmlns:xlink="http://www.w3.org/1999/xlink" width="178.38287" height="170.15557" viewBox="0,0,178.38287,170.15557"><g transform="translate(-231.55651,-96.60508)"><g data-paper-data="{&quot;isPaintingLayer&quot;:true}" fill-rule="nonzero" stroke-linecap="butt" stroke-linejoin="miter" stroke-miterlimit="10" stroke-dasharray="" stroke-dashoffset="0" style="mix-blend-mode: normal"><path d="M355.37243,153.51698c-0.02397,8.54475 -4.46444,16.66859 -12.19064,22.3027c11.43622,6.13914 18.2927,16.40406 18.29383,27.3879c0.00003,18.24288 -18.56893,33.03175 -41.47512,33.03193c-11.00012,0.00011 -21.54975,-3.47995 -29.32804,-9.67467c-7.77829,-6.19472 -12.14811,-14.59658 -12.14808,-23.35726c0.02352,-10.80653 6.68287,-20.92057 17.83093,-27.08123c-7.96042,-5.64738 -12.54942,-13.90868 -12.55921,-22.60939c0.00043,-16.43397 16.02288,-29.75621 35.78766,-29.75649c19.76514,-0.00016 35.7882,13.3222 35.78865,29.75649zM308.48701,158.07355c-0.00003,6.05474 5.34081,10.96314 11.92921,10.96325c3.16402,0.00018 6.19854,-1.15479 8.43591,-3.2108c2.23737,-2.05603 3.4943,-4.84467 3.4943,-7.75243c0.00002,-2.90776 -1.25693,-5.6964 -3.4943,-7.75242c-2.23737,-2.05603 -5.27189,-3.21098 -8.43591,-3.21079c-6.5884,0.00011 -11.92926,4.90848 -11.92921,10.9632zM306.26783,198.50829c-0.00016,3.58736 1.57808,7.02783 4.38753,9.56454c2.80947,2.53673 6.61996,3.96189 10.59327,3.96196c3.9733,-0.0001 7.7838,-1.42525 10.59327,-3.96196c2.80947,-2.53673 4.38771,-5.97719 4.38755,-9.56454c-0.00031,-7.46987 -6.7073,-13.52533 -14.98082,-13.52549c-8.27353,0.00016 -14.98049,6.05561 -14.9808,13.52549z" fill="#a6a5e7" stroke="#ffffff" stroke-width="7.75"/><path d="M231.55651,266.76065v-170.15557h178.38287v170.15557z" fill="none" stroke="#000000" stroke-width="0"/></g></g></svg>