<svg version="1.1" xmlns="http://www.w3.org/2000/svg" xmlns:xlink="http://www.w3.org/1999/xlink" width="154.9096" height="173.92545" viewBox="0,0,154.9096,173.92545"><g transform="translate(-246.73606,-65.92497)"><g data-paper-data="{&quot;isPaintingLayer&quot;:true}" fill-rule="nonzero" stroke-linecap="butt" stroke-linejoin="miter" stroke-miterlimit="10" stroke-dasharray="" stroke-dashoffset="0" style="mix-blend-mode: normal"><path d="M351.88563,96.83339c9.10315,17.30452 -1.03701,49.3384 3.87416,69.67684c1.28098,2.5923 11.91364,-1.27776 14.96553,-0.25177c7.96372,2.67733 9.21829,21.61034 2.58595,28.83778c-4.48969,4.89253 -20.31717,0.7113 -20.31717,0.7113c0,0 3.46027,22.21757 -4.06473,28.48213c-7.35538,6.12338 -21.81206,5.87611 -29.15731,-0.25855c-7.21267,-6.0239 0.70514,-27.67443 -4.33302,-27.27766c-21.95718,1.72918 -34.74709,-0.92072 -42.96393,-1.58158c-49.78887,-4.0043 38.5289,-108.92415 57.86785,-108.49368c9.45964,0.21056 17.66875,2.79104 21.54269,10.15517zM289.08362,168.39453l32.87915,1.06698c2.19102,-47.04946 1.35844,-30.31226 2.21559,-48.06253l-0.01719,0.0244c0,-0.01673 0.01719,-0.36754 0.01719,-0.37962z" fill="#c962c4" stroke="#ffffff" stroke-width="7.5"/><path d="M246.73606,239.85042v-173.92545h154.9096v173.92545z" fill="none" stroke="none" stroke-width="0"/></g></g></svg>