<svg version="1.1" xmlns="http://www.w3.org/2000/svg" xmlns:xlink="http://www.w3.org/1999/xlink" width="149.05116" height="174.04731" viewBox="0,0,149.05116,174.04731"><g transform="translate(-244.54864,-93.90212)"><g data-paper-data="{&quot;isPaintingLayer&quot;:true}" fill-rule="nonzero" stroke="#ffffff" stroke-linecap="butt" stroke-linejoin="miter" stroke-miterlimit="10" stroke-dasharray="" stroke-dashoffset="0" style="mix-blend-mode: normal"><path d="M346.12929,125.55103c2.33481,9.94624 -41.62071,41.74865 -31.46172,33.18312c8.77961,-7.40251 36.38849,2.06614 42.96372,9.67841c7.66474,8.87364 10.32569,20.28975 9.81063,32.49214c-0.69688,16.50959 -9.38057,33.41382 -23.68075,41.1327c-15.56222,8.40014 -38.37207,8.61016 -52.77353,-1.72776c-13.50171,-9.69203 -19.78898,-30.22175 -18.26869,-47.00979c4.19283,-38.99604 30.88551,-62.74302 49.2867,-79.67019c6.63834,-6.1066 22.33395,4.29732 24.12364,11.92137zM303.84188,201.25053c-0.00004,9.35457 7.57352,16.93781 16.91568,16.93728c9.34168,-0.00014 16.91451,-7.58318 16.91447,-16.93728c0.00006,-9.35408 -7.57277,-16.93717 -16.91447,-16.9373c-9.34217,-0.00055 -16.91574,7.58273 -16.91568,16.9373z" fill="#1999e1" stroke-width="7.5"/><path d="M244.54865,267.94944v-174.04731h149.05116v174.04731z" fill="none" stroke-width="0"/></g></g></svg>