<svg version="1.1" xmlns="http://www.w3.org/2000/svg" xmlns:xlink="http://www.w3.org/1999/xlink" width="174.79668" height="174.79668" viewBox="0,0,174.79668,174.79668"><g transform="translate(-232.60166,-92.60166)"><g data-paper-data="{&quot;isPaintingLayer&quot;:true}" fill-rule="nonzero" stroke="none" stroke-linejoin="miter" stroke-miterlimit="10" stroke-dasharray="" stroke-dashoffset="0" style="mix-blend-mode: normal"><path d="M320,92.60166c24.11207,0 45.96165,9.79355 61.78322,25.61512c15.82157,15.82157 25.61512,37.67115 25.61512,61.78322c0,24.11207 -9.79355,45.96165 -25.61512,61.78322c-15.82157,15.82157 -37.67115,25.61512 -61.78322,25.61512c-24.11207,0 -45.96165,-9.79355 -61.78322,-25.61512c-15.82157,-15.82157 -25.61512,-37.67115 -25.61512,-61.78322c0,-24.11207 9.79355,-45.96165 25.61512,-61.78322c15.82157,-15.82157 37.67115,-25.61512 61.78322,-25.61512z" fill="#000000" stroke-width="1" stroke-linecap="butt"/><path d="M371.25019,220.41034l-102.50038,-2.50199l51.51195,-90.24722z" fill="#2f75d0" stroke-width="1.00388" stroke-linecap="round"/></g></g></svg>