<svg version="1.1" xmlns="http://www.w3.org/2000/svg" xmlns:xlink="http://www.w3.org/1999/xlink" width="60.00016" height="60" viewBox="0,0,60.00016,60"><defs><linearGradient x1="256.20134" y1="167.33012" x2="268.26684" y2="161.66691" gradientUnits="userSpaceOnUse" id="color-1"><stop offset="0" stop-color="#ff9900"/><stop offset="1" stop-color="#ab2100"/></linearGradient><linearGradient x1="256.20134" y1="167.33012" x2="268.26684" y2="161.66691" gradientUnits="userSpaceOnUse" id="color-2"><stop offset="0" stop-color="#000000"/><stop offset="1" stop-color="#000000" stop-opacity="0"/></linearGradient><linearGradient x1="277.70133" y1="166.58012" x2="289.76685" y2="160.91691" gradientUnits="userSpaceOnUse" id="color-3"><stop offset="0" stop-color="#ff9900"/><stop offset="1" stop-color="#ab2100"/></linearGradient><linearGradient x1="277.70134" y1="166.58012" x2="289.76685" y2="160.91691" gradientUnits="userSpaceOnUse" id="color-4"><stop offset="0" stop-color="#000000"/><stop offset="1" stop-color="#000000" stop-opacity="0"/></linearGradient><linearGradient x1="265.70133" y1="182.08012" x2="277.76685" y2="176.41691" gradientUnits="userSpaceOnUse" id="color-5"><stop offset="0" stop-color="#ff9900"/><stop offset="1" stop-color="#ab2100"/></linearGradient><linearGradient x1="265.70134" y1="182.08012" x2="277.76685" y2="176.41691" gradientUnits="userSpaceOnUse" id="color-6"><stop offset="0" stop-color="#000000"/><stop offset="1" stop-color="#000000" stop-opacity="0"/></linearGradient><linearGradient x1="284.95133" y1="182.33012" x2="297.01685" y2="176.66691" gradientUnits="userSpaceOnUse" id="color-7"><stop offset="0" stop-color="#ff9900"/><stop offset="1" stop-color="#ab2100"/></linearGradient><linearGradient x1="284.95134" y1="182.33012" x2="297.01685" y2="176.66691" gradientUnits="userSpaceOnUse" id="color-8"><stop offset="0" stop-color="#000000"/><stop offset="1" stop-color="#000000" stop-opacity="0"/></linearGradient><linearGradient x1="256.20133" y1="200.33012" x2="268.26685" y2="194.66691" gradientUnits="userSpaceOnUse" id="color-9"><stop offset="0" stop-color="#ff9900"/><stop offset="1" stop-color="#ab2100"/></linearGradient><linearGradient x1="256.20134" y1="200.33012" x2="268.26685" y2="194.66691" gradientUnits="userSpaceOnUse" id="color-10"><stop offset="0" stop-color="#000000"/><stop offset="1" stop-color="#000000" stop-opacity="0"/></linearGradient><linearGradient x1="273.45133" y1="200.08012" x2="285.51685" y2="194.41691" gradientUnits="userSpaceOnUse" id="color-11"><stop offset="0" stop-color="#ff9900"/><stop offset="1" stop-color="#ab2100"/></linearGradient><linearGradient x1="273.45134" y1="200.08012" x2="285.51685" y2="194.41691" gradientUnits="userSpaceOnUse" id="color-12"><stop offset="0" stop-color="#000000"/><stop offset="1" stop-color="#000000" stop-opacity="0"/></linearGradient></defs><g transform="translate(-239.99984,-150)"><g data-paper-data="{&quot;isPaintingLayer&quot;:true}" fill-rule="nonzero" stroke-miterlimit="10" stroke-dasharray="" stroke-dashoffset="0" style="mix-blend-mode: normal"><path d="M300,150v60h-60.00015v-18.0593c1.74077,0.89953 3.67646,1.37424 5.64344,1.38402c6.76737,0.00004 12.25345,-5.38798 12.2535,-12.03449c0.00008,-3.19183 -1.29088,-6.25297 -3.58887,-8.50996c-2.29799,-2.25699 -5.41476,-3.52495 -8.66464,-3.52493c-1.96702,0.0099 -3.9027,0.48475 -5.64344,1.38441v-20.63975z" fill="#36712a" stroke="none" stroke-width="0.11881" stroke-linecap="butt" stroke-linejoin="miter"/><g stroke-width="0" stroke-linecap="round" stroke-linejoin="bevel"><path d="M260.78775,156.6024c1.96373,-1.15868 3.67395,-0.85564 5.24681,1.12167c1.57287,1.97731 3.00819,5.62865 2.26551,8.46847c-0.74268,2.83982 -3.66327,4.86779 -5.90744,5.71883c-2.24417,0.85104 -3.81163,0.52503 -5.03267,-1.15611c-1.22105,-1.68114 -2.09554,-4.71727 -1.42426,-7.54556c0.67128,-2.82829 2.88833,-5.44862 4.85205,-6.6073z" fill="url(#color-1)" stroke="url(#color-2)"/><path d="M263.09945,157.12188l-0.00541,-3.21186c0,0 0.45988,-0.24785 0.62963,-0.08123c0.80564,0.79079 -0.07195,3.24817 -0.07195,3.24817z" fill="#502d16" stroke="#000000"/><path d="M267.39375,156.51388c0.23708,0.49324 -0.04277,0.71311 -1.1791,0.6144c-1.13632,-0.09871 -1.58124,-0.2202 -2.25164,-0.83175c-0.6704,-0.61155 0.44772,-1.16323 1.41374,-1.07931c0.96602,0.08392 1.77991,0.80342 2.017,1.29666z" fill="#008000" stroke="#000000"/><path d="M263.75055,155.6395c0.84043,0.0414 1.74257,0.46628 2.25367,0.63481" fill="#00ff00" stroke="#000000"/></g><g stroke-width="0" stroke-linecap="round" stroke-linejoin="bevel"><path d="M282.28776,155.85241c1.96373,-1.15868 3.67395,-0.85564 5.24681,1.12167c1.57286,1.97731 3.00819,5.62865 2.26551,8.46847c-0.74268,2.83982 -3.66328,4.8678 -5.90744,5.71883c-2.24417,0.85103 -3.81162,0.52504 -5.03267,-1.1561c-1.22105,-1.68114 -2.09554,-4.71727 -1.42426,-7.54556c0.67129,-2.82829 2.88833,-5.44862 4.85205,-6.6073z" fill="url(#color-3)" stroke="url(#color-4)"/><path d="M284.59945,156.37187l-0.00541,-3.21186c0,0 0.45988,-0.24784 0.62962,-0.08123c0.80564,0.79078 -0.07196,3.24818 -0.07196,3.24818z" fill="#502d16" stroke="#000000"/><path d="M288.89375,155.76388c0.23708,0.49324 -0.04277,0.71312 -1.1791,0.61441c-1.13632,-0.09871 -1.58124,-0.2202 -2.25164,-0.83175c-0.6704,-0.61155 0.44772,-1.16323 1.41374,-1.07931c0.96602,0.08391 1.77991,0.80342 2.017,1.29665z" fill="#008000" stroke="#000000"/><path d="M285.25055,154.8895c0.84042,0.0414 1.74257,0.46629 2.25367,0.63481" fill="#00ff00" stroke="#000000"/></g><g stroke-width="0" stroke-linecap="round" stroke-linejoin="bevel"><path d="M270.28776,171.35241c1.96373,-1.15868 3.67395,-0.85564 5.24681,1.12167c1.57286,1.97731 3.00819,5.62865 2.26551,8.46847c-0.74268,2.83982 -3.66328,4.8678 -5.90744,5.71883c-2.24417,0.85103 -3.81162,0.52504 -5.03267,-1.1561c-1.22105,-1.68114 -2.09554,-4.71727 -1.42426,-7.54556c0.67129,-2.82829 2.88833,-5.44862 4.85205,-6.6073z" fill="url(#color-5)" stroke="url(#color-6)"/><path d="M272.59945,171.87188l-0.00541,-3.21186c0,0 0.45988,-0.24784 0.62962,-0.08123c0.80564,0.79078 -0.07196,3.24818 -0.07196,3.24818z" fill="#502d16" stroke="#000000"/><path d="M276.89375,171.26388c0.23708,0.49324 -0.04277,0.71312 -1.1791,0.61441c-1.13632,-0.09871 -1.58124,-0.2202 -2.25164,-0.83175c-0.6704,-0.61155 0.44772,-1.16323 1.41374,-1.07931c0.96602,0.08391 1.77991,0.80342 2.017,1.29665z" fill="#008000" stroke="#000000"/><path d="M273.25055,170.3895c0.84042,0.0414 1.74257,0.46629 2.25367,0.63481" fill="#00ff00" stroke="#000000"/></g><g stroke-width="0" stroke-linecap="round" stroke-linejoin="bevel"><path d="M289.53776,171.60241c1.96373,-1.15868 3.67395,-0.85564 5.24681,1.12167c1.57286,1.97731 3.00819,5.62865 2.26551,8.46847c-0.74268,2.83982 -3.66328,4.8678 -5.90744,5.71883c-2.24417,0.85103 -3.81162,0.52504 -5.03267,-1.1561c-1.22105,-1.68114 -2.09554,-4.71727 -1.42426,-7.54556c0.67129,-2.82829 2.88833,-5.44862 4.85205,-6.6073z" fill="url(#color-7)" stroke="url(#color-8)"/><path d="M291.84945,172.12188l-0.00541,-3.21186c0,0 0.45988,-0.24784 0.62962,-0.08123c0.80564,0.79078 -0.07196,3.24818 -0.07196,3.24818z" fill="#502d16" stroke="#000000"/><path d="M296.14375,171.51388c0.23708,0.49324 -0.04277,0.71312 -1.1791,0.61441c-1.13632,-0.09871 -1.58124,-0.2202 -2.25164,-0.83175c-0.6704,-0.61155 0.44772,-1.16323 1.41374,-1.07931c0.96602,0.08391 1.77991,0.80342 2.017,1.29665z" fill="#008000" stroke="#000000"/><path d="M292.50055,170.6395c0.84042,0.0414 1.74257,0.46629 2.25367,0.63481" fill="#00ff00" stroke="#000000"/></g><g stroke-width="0" stroke-linecap="round" stroke-linejoin="bevel"><path d="M260.78776,189.60241c1.96373,-1.15868 3.67395,-0.85564 5.24681,1.12167c1.57286,1.97731 3.00819,5.62865 2.26551,8.46847c-0.74268,2.83982 -3.66328,4.8678 -5.90744,5.71883c-2.24417,0.85103 -3.81162,0.52504 -5.03267,-1.1561c-1.22105,-1.68114 -2.09554,-4.71727 -1.42426,-7.54556c0.67129,-2.82829 2.88833,-5.44862 4.85205,-6.6073z" fill="url(#color-9)" stroke="url(#color-10)"/><path d="M263.09945,190.12188l-0.00541,-3.21186c0,0 0.45988,-0.24784 0.62962,-0.08123c0.80564,0.79078 -0.07196,3.24818 -0.07196,3.24818z" fill="#502d16" stroke="#000000"/><path d="M267.39375,189.51388c0.23708,0.49324 -0.04277,0.71312 -1.1791,0.61441c-1.13632,-0.09871 -1.58124,-0.2202 -2.25164,-0.83175c-0.6704,-0.61155 0.44772,-1.16323 1.41374,-1.07931c0.96602,0.08391 1.77991,0.80342 2.017,1.29665z" fill="#008000" stroke="#000000"/><path d="M263.75055,188.6395c0.84042,0.0414 1.74257,0.46629 2.25367,0.63481" fill="#00ff00" stroke="#000000"/></g><g stroke-width="0" stroke-linecap="round" stroke-linejoin="bevel"><path d="M278.03776,189.35241c1.96373,-1.15868 3.67395,-0.85564 5.24681,1.12167c1.57286,1.97731 3.00819,5.62865 2.26551,8.46847c-0.74268,2.83982 -3.66328,4.8678 -5.90744,5.71883c-2.24417,0.85103 -3.81162,0.52504 -5.03267,-1.1561c-1.22105,-1.68114 -2.09554,-4.71727 -1.42426,-7.54556c0.67129,-2.82829 2.88833,-5.44862 4.85205,-6.6073z" fill="url(#color-11)" stroke="url(#color-12)"/><path d="M280.34945,189.87188l-0.00541,-3.21186c0,0 0.45988,-0.24784 0.62962,-0.08123c0.80564,0.79078 -0.07196,3.24818 -0.07196,3.24818z" fill="#502d16" stroke="#000000"/><path d="M284.64375,189.26388c0.23708,0.49324 -0.04277,0.71312 -1.1791,0.61441c-1.13632,-0.09871 -1.58124,-0.2202 -2.25164,-0.83175c-0.6704,-0.61155 0.44772,-1.16323 1.41374,-1.07931c0.96602,0.08391 1.77991,0.80342 2.017,1.29665z" fill="#008000" stroke="#000000"/><path d="M281.00055,188.3895c0.84042,0.0414 1.74257,0.46629 2.25367,0.63481" fill="#00ff00" stroke="#000000"/></g></g></g></svg>