<svg version="1.1" xmlns="http://www.w3.org/2000/svg" xmlns:xlink="http://www.w3.org/1999/xlink" width="688.18769" height="425.42492" viewBox="0,0,688.18769,425.42492"><g transform="translate(23.34309,31.96171)"><g data-paper-data="{&quot;isPaintingLayer&quot;:true}" fill-rule="nonzero" stroke="#ffffff" stroke-linejoin="miter" stroke-miterlimit="10" stroke-dasharray="" stroke-dashoffset="0" style="mix-blend-mode: normal"><path d="M-23.09309,393.21321v-424.92492h687.68769v424.92492z" fill-opacity="0.22745" fill="#000000" stroke-width="0.5" stroke-linecap="butt"/><path d="M366.90763,122.45486c12.44062,15.26218 19.42961,35.96207 19.42947,57.54587c-0.00034,44.94541 -29.70031,81.38074 -66.3371,81.38101c-36.63679,-0.00027 -66.33678,-36.4356 -66.3371,-81.38101c-0.00015,-21.58383 6.98882,-42.28369 19.42947,-57.54587c12.44062,-15.26218 29.31382,-23.83645 46.90766,-23.83659c17.59384,0.00012 34.46702,8.57441 46.90766,23.83659zM293.90409,180.205c0.00017,24.95678 12.2188,45.18824 27.29137,45.18883c15.07259,-0.00058 27.2912,-20.23205 27.29137,-45.18883c0.00032,-24.95733 -12.21844,-45.1897 -27.29137,-45.19026c-15.07293,0.00058 -27.29168,20.23292 -27.29137,45.19026z" fill="#00b7d6" stroke-width="7.5" stroke-linecap="round"/></g></g></svg>