<svg version="1.1" xmlns="http://www.w3.org/2000/svg" xmlns:xlink="http://www.w3.org/1999/xlink" width="204.59417" height="297.22955" viewBox="0,0,204.59417,297.22955"><defs><linearGradient x1="222.86283" y1="236.90177" x2="415.73705" y2="146.37199" gradientUnits="userSpaceOnUse" id="color-1"><stop offset="0" stop-color="#ff9900"/><stop offset="1" stop-color="#ab2100"/></linearGradient><linearGradient x1="222.86284" y1="236.90177" x2="415.73705" y2="146.37199" gradientUnits="userSpaceOnUse" id="color-2"><stop offset="0" stop-color="#000000"/><stop offset="1" stop-color="#000000" stop-opacity="0"/></linearGradient></defs><g transform="translate(-214.89515,-20.15421)"><g data-paper-data="{&quot;isPaintingLayer&quot;:true}" fill-rule="nonzero" stroke-miterlimit="10" stroke-dasharray="" stroke-dashoffset="0" style="mix-blend-mode: normal"><path d="M296.17939,65.41288c31.39132,-18.52224 58.7302,-13.67788 83.87338,17.93057c25.14318,31.60846 48.08766,89.97723 36.21547,135.3735c-11.87221,45.39627 -58.5596,77.81454 -94.43392,91.41884c-35.87431,13.6043 -60.93111,8.39298 -80.45024,-18.48105c-19.51913,-26.87401 -33.49846,-75.40841 -22.76757,-120.62027c10.73088,-45.21186 46.17158,-87.09935 77.56288,-105.62159z" fill="url(#color-1)" stroke="url(#color-2)" stroke-width="0" stroke-linecap="round" stroke-linejoin="bevel" style="mix-blend-mode: lighten"/><path d="M333.13324,73.71695l-0.08656,-51.34344c0,0 7.35149,-3.96195 10.06493,-1.29854c12.87863,12.64118 -1.15023,51.92396 -1.15023,51.92396z" fill="#502d16" stroke="#000000" stroke-width="0" stroke-linecap="round" stroke-linejoin="bevel"/><path d="M401.78013,63.99782c3.78989,7.88471 -0.68375,11.39955 -18.84855,9.82159c-18.16481,-1.57797 -25.27702,-3.51998 -35.99378,-13.29595c-10.71676,-9.77597 7.15708,-18.59493 22.59945,-17.25347c15.44236,1.34146 28.45297,12.84312 32.24288,20.72783z" fill="#008000" stroke="#000000" stroke-width="0" stroke-linecap="round" stroke-linejoin="bevel"/><path d="M339.79469,133.00565c12.73757,5.8878 22.14133,21.29929 22.70682,36.40784c1.02125,27.2856 -24.94821,58.0529 -40.12561,80.87042c-5.82498,8.75719 -25.77614,9.92293 -30.79363,0.6449c-7.70274,-14.24341 25.50563,-41.24162 25.50563,-41.24162c0,0 -29.31795,-0.68422 -35.96876,-10.68744c-10.29346,-15.48197 -8.58325,-43.35851 3.93108,-56.97261c7.96351,-8.66334 20.76622,-13.06921 33.36766,-13.25032c7.56087,-0.10868 15.04917,1.30396 21.37681,4.22882zM302.46901,173.44032c-0.00038,7.74059 6.12687,14.01586 13.68558,14.01617c7.55913,0.00032 13.68706,-6.27515 13.68667,-14.01617c-0.00022,-7.74058 -6.12798,-14.01536 -13.68667,-14.01505c-7.55826,0.00032 -13.68535,6.2749 -13.68558,14.01505z" fill="#fd9b9b" stroke="#ffffff" stroke-width="6.5" stroke-linecap="butt" stroke-linejoin="miter"/></g></g></svg>