<svg version="1.1" xmlns="http://www.w3.org/2000/svg" xmlns:xlink="http://www.w3.org/1999/xlink" width="320.42712" height="323.5" viewBox="0,0,320.42712,323.5"><g transform="translate(-159.78644,-18.25)"><g data-paper-data="{&quot;isPaintingLayer&quot;:true}" fill-rule="nonzero" stroke-miterlimit="10" stroke-dasharray="" stroke-dashoffset="0" style="mix-blend-mode: normal"><path d="M466.96356,180c0,82.01429 -65.79783,148.5 -146.96356,148.5c-81.16573,0 -146.96356,-66.48571 -146.96356,-148.5c0,-82.01429 65.79783,-148.5 146.96356,-148.5c81.16573,0 146.96356,66.48571 146.96356,148.5z" fill="#60a040" stroke="#29441b" stroke-width="26.5" stroke-linecap="butt" stroke-linejoin="miter"/><path d="M300.85984,99.26096c14.76608,-18.72695 49.42761,-28.16305 66.25574,0.17927c16.82813,28.34231 15.82153,94.46219 -21.4531,119.76701c-37.2747,25.30479 -110.81735,9.79189 -130.68345,1.51096c-19.86611,-8.28093 13.9443,-9.3299 18.05061,-11.37266c4.10624,-2.04276 -21.49164,-5.07937 -15.88834,-11.13209c5.60337,-6.05273 42.40794,-15.12151 58.24527,-33.66469c15.8373,-18.54321 10.70717,-46.5608 25.47328,-65.28775z" fill="#0000ff" stroke="#dacc2e" stroke-width="0" stroke-linecap="round" stroke-linejoin="bevel"/><path d="M375.89711,114.82775h55.33123" fill="#000000" stroke="#dacc2e" stroke-width="0" stroke-linecap="round" stroke-linejoin="bevel"/><path d="M367.05812,100.1143l52.15899,10.2085l-44.66547,29.03468" fill="#000000" stroke="#dacc2e" stroke-width="0" stroke-linecap="round" stroke-linejoin="bevel"/><path d="M305.12453,110.96743c0,-11.37067 10.51394,-20.58834 23.48364,-20.58834c12.96963,0 23.48363,9.21767 23.48363,20.58834c0,11.37067 -10.51393,20.5884 -23.48363,20.5884c-12.96963,0 -23.48364,-9.21775 -23.48364,-20.5884z" fill="#ffffff" stroke="#dacc2e" stroke-width="0" stroke-linecap="round" stroke-linejoin="bevel"/><path d="M317.71211,101.99716c5.84282,-5.27447 17.77674,-5.50881 23.86825,-0.35167c6.09158,5.15721 6.34021,15.70583 0.49738,20.98037c-5.84282,5.27454 -17.77674,5.27447 -23.86824,0.11726c-6.09158,-5.15721 -6.34021,-15.47161 -0.49739,-20.74602z" fill="#000000" stroke="#dacc2e" stroke-width="0" stroke-linecap="round" stroke-linejoin="bevel"/><path d="M347.5881,109.68065l-15.44131,-1.42221l11.29849,-7.58519" fill="#f9f9f9" stroke="#dacc2e" stroke-width="0" stroke-linecap="round" stroke-linejoin="bevel"/><path d="M275.30149,249.03449v0z" fill="#dacc2e" stroke="none" stroke-width="0.26459" stroke-linecap="butt" stroke-linejoin="miter"/><path d="M288.62995,228.64476c1.98982,3.74011 3.8121,8.75199 4.82538,15.90767c0.07116,0.50255 0.13991,1.02638 0.20564,1.5734c0.81181,6.75469 0.74805,14.44661 0.74805,17.46685h-5.45935c0,-3.12554 0.0554,-10.45445 -0.70913,-16.81549c-0.06113,-0.50885 -0.12501,-0.99468 -0.19075,-1.45939c-0.93139,-6.57736 -2.5714,-10.97327 -4.2396,-14.10891z" fill="#000000" stroke="none" stroke-width="0" stroke-linecap="round" stroke-linejoin="bevel"/><path d="M312.94499,222.79596c1.5477,1.99793 3.78278,5.25633 5.53407,9.85235c1.25603,3.29625 2.05219,6.70571 2.5394,10.25273c0.69547,5.06115 0.71146,10.38634 0.71606,13.02323c0,1.09929 -0.0287,8.76771 -0.0287,7.66842h-5.45935c0.00187,1.04971 0.0305,-6.60917 0.0287,-7.65888c-0.00467,-2.66322 -0.02682,-7.64185 -0.66529,-12.28988c-0.44204,-3.2184 -1.1508,-6.21326 -2.23239,-9.05168c-1.50248,-3.94301 -3.41434,-6.73079 -4.74848,-8.45308z" fill="#000000" stroke="none" stroke-width="0" stroke-linecap="round" stroke-linejoin="bevel"/><path d="M292.65225,263.12363c-0.25798,0.44628 -0.74714,1.2591 -1.60441,2.45855c-0.2886,0.40375 -0.65574,0.90324 -1.13085,1.52263c-0.95888,1.24988 -1.92488,2.42937 -3.21392,4.00103c-1.12531,1.37205 -2.11594,2.58562 -2.97447,3.72613c-0.47578,0.63203 -0.8524,1.16447 -1.15762,1.62792c-0.42969,0.65214 -0.66715,1.09074 -0.80107,1.35897l-3.45282,-1.72641c0.20377,-0.4075 0.51807,-0.97899 1.03036,-1.75647c0.35908,-0.54496 0.78429,-1.14463 1.29689,-1.82557c0.91465,-1.21512 1.95608,-2.48968 3.07382,-3.85257c1.29478,-1.57871 2.22135,-2.71067 3.13607,-3.90286c0.44872,-0.58487 0.78991,-1.04944 1.05296,-1.41746c0.77562,-1.08527 1.19829,-1.79196 1.40281,-2.14564z" fill="#000000" stroke="none" stroke-width="0" stroke-linecap="round" stroke-linejoin="bevel"/><path d="M292.99031,260.84497c0.84019,0.53026 2.05318,1.43018 3.5077,3.01925c1.09905,1.20066 2.06885,2.50179 2.88027,3.70201c0.12544,0.18524 0.24512,0.36553 0.35865,0.53893c0.68544,1.04727 1.33082,2.12897 1.9358,3.21274c0.80868,1.44878 1.47092,2.77616 1.66452,3.16351l-3.45274,1.72641c-0.1915,-0.38299 -0.82011,-1.6425 -1.58251,-3.00845c-0.56892,-1.01926 -1.1676,-2.02157 -1.79496,-2.98009c-0.10374,-0.15906 -0.21283,-0.32309 -0.32677,-0.49151c-0.74302,-1.09905 -1.59654,-2.23813 -2.52974,-3.25759c-1.21025,-1.32215 -2.15491,-2.00447 -2.7206,-2.36126z" fill="#000000" stroke="none" stroke-width="0" stroke-linecap="round" stroke-linejoin="bevel"/><path d="M320.1105,260.62846c0.88222,0.24582 2.07459,0.70148 3.48006,1.67232c0.65243,0.45067 1.24033,0.9348 1.75765,1.39327c0.28829,0.25561 0.58003,0.5257 0.89402,0.82511c0.73447,0.70058 1.49095,1.46787 2.13146,2.04609c0.88735,0.80127 1.40456,1.10939 1.73271,1.27344l-1.72641,3.45282c-0.69472,-0.34736 -1.49638,-0.87093 -2.59286,-1.86057c-0.7652,-0.69075 -1.53372,-1.47398 -2.20931,-2.11836c-0.2886,-0.27552 -0.54496,-0.51253 -0.79011,-0.7296c-0.4435,-0.39302 -0.90593,-0.77095 -1.39113,-1.1059c-1.0058,-0.69455 -1.79508,-0.98271 -2.32221,-1.1299z" fill="#000000" stroke="none" stroke-width="0" stroke-linecap="round" stroke-linejoin="bevel"/><path d="M320.24508,260.95494c-0.04791,1.10067 -0.24718,2.68897 -1.03586,4.56482c-0.31992,0.76092 -0.68949,1.45976 -1.06998,2.09841c-0.29167,0.48964 -0.62026,0.99526 -1.00541,1.54727c-0.72667,1.04167 -1.57466,2.1256 -2.28883,3.10507c-1.02275,1.40269 -1.52592,2.26844 -1.87917,2.97484l-3.45275,-1.72641c0.46493,-0.92989 1.08662,-1.97845 2.21275,-3.52279c0.76915,-1.05482 1.59629,-2.11388 2.24199,-3.03941c0.34157,-0.48959 0.61826,-0.9169 0.85497,-1.31423c0.30994,-0.5204 0.5918,-1.05757 0.82784,-1.61894c0.56748,-1.34971 0.70409,-2.46386 0.73776,-3.23644z" fill="#000000" stroke="none" stroke-width="0" stroke-linecap="round" stroke-linejoin="bevel"/><path d="M295.42998,215.89432c-8.48495,0.28598 -8.48494,0.28605 -8.48494,-9.8196c0,-10.10563 -0.00001,-30.31656 8.38959,-39.94563c8.38959,-9.62915 25.16838,-8.67582 33.65348,1.14383c8.48507,9.81965 8.67577,28.50513 0.28618,38.13423c-8.38959,9.62915 -25.35937,10.20114 -33.84427,10.48719z" fill="#000080" stroke="#dacc2e" stroke-width="0" stroke-linecap="round" stroke-linejoin="bevel"/></g></g></svg>