<svg version="1.1" xmlns="http://www.w3.org/2000/svg" xmlns:xlink="http://www.w3.org/1999/xlink" width="60.00015" height="60" viewBox="0,0,60.00015,60"><g transform="translate(-239.99985,-150)"><g data-paper-data="{&quot;isPaintingLayer&quot;:true}" fill-rule="nonzero" stroke-linecap="butt" stroke-linejoin="miter" stroke-miterlimit="10" stroke-dasharray="" stroke-dashoffset="0" style="mix-blend-mode: normal"><path d="M300,150v60h-60.00015v-18.0593c1.74077,0.89953 3.67646,1.37424 5.64344,1.38402c6.76737,0.00004 12.25345,-5.38798 12.2535,-12.03449c0.00008,-3.19183 -1.29088,-6.25297 -3.58887,-8.50996c-2.29799,-2.25699 -5.41476,-3.52495 -8.66464,-3.52493c-1.96702,0.0099 -3.9027,0.48475 -5.64344,1.38441v-20.63975z" fill="#8bc6e8" stroke="none" stroke-width="0.11881"/><g fill="#ffffff" stroke="#ffffff"><path d="M279.21781,161.43077c0,-3.49094 2.11198,-6.32091 4.71724,-6.32091c2.60526,0 4.71724,2.82997 4.71724,6.32091c0,3.49094 -2.11198,6.32091 -4.71724,6.32091c-2.60526,0 -4.71724,-2.82997 -4.71724,-6.32091z" stroke-width="0.29695"/><path d="M276.38679,163.44203c-0.30136,-2.34564 0.75904,-4.43815 2.36848,-4.67375c1.60944,-0.2356 3.15845,1.47494 3.45981,3.82058c0.30136,2.34564 -0.75904,4.43815 -2.36848,4.67375c-1.60944,0.2356 -3.15845,-1.47494 -3.45981,-3.82058z" stroke-width="0.29276"/><path d="M287.74045,167.26258c-1.60944,-0.2356 -2.66984,-2.3281 -2.36848,-4.67375c0.30136,-2.34564 1.85037,-4.05618 3.45981,-3.82058c1.60944,0.2356 2.66984,2.3281 2.36848,4.67375c-0.30136,2.34564 -1.85037,4.05618 -3.45981,3.82058z" stroke-width="0.29276"/><path d="M275.67305,167.90672c-1.95359,-0.11311 -3.45807,-1.83725 -3.36034,-3.85099c0.09772,-2.01373 1.76064,-3.55449 3.71423,-3.44138c1.95359,0.11311 3.45807,1.83725 3.36034,3.85099c-0.09772,2.01373 -1.76064,3.55449 -3.71423,3.44138z" stroke-width="0.29648"/><path d="M287.42227,164.21819c-0.10299,-2.08769 1.48253,-3.87516 3.54135,-3.99242c2.05882,-0.11726 3.81131,1.48008 3.9143,3.56778c0.10299,2.08769 -1.48253,3.87516 -3.54135,3.99242c-2.05882,0.11726 -3.81131,-1.48008 -3.9143,-3.56778z" stroke-width="0.3099"/></g><g fill="#ffffff" stroke="#ffffff"><g><path d="M253.84641,197.91315c0,-3.38742 2.10296,-6.13347 4.6971,-6.13347c2.59414,0 4.6971,2.74605 4.6971,6.13347c0,3.38742 -2.10296,6.13347 -4.6971,6.13347c-2.59414,0 -4.6971,-2.74605 -4.6971,-6.13347z" stroke-width="0.29346"/><path d="M250.53294,200.34948c0,-3.08504 2.42371,-5.58596 5.4135,-5.58596c2.98979,0 5.4135,2.50092 5.4135,5.58596c0,3.08504 -2.42371,5.58596 -5.4135,5.58596c-2.98979,0 -5.4135,-2.50092 -5.4135,-5.58596z" stroke-width="0.30066"/><path d="M247.16362,200.5503c0,-1.96737 1.27324,-3.56224 2.84387,-3.56224c1.57062,0 2.84387,1.59487 2.84387,3.56224c0,1.96737 -1.27324,3.56224 -2.84387,3.56224c-1.57062,0 -2.84387,-1.59487 -2.84387,-3.56224z" stroke-width="0.17402"/></g><g><path d="M258.43291,204.04661c-2.59414,0 -4.6971,-2.74605 -4.6971,-6.13347c0,-3.38742 2.10296,-6.13347 4.6971,-6.13347c2.59414,0 4.6971,2.74605 4.6971,6.13347c0,3.38742 -2.10296,6.13347 -4.6971,6.13347z" stroke-width="0.29346"/><path d="M261.02998,205.93544c-2.98979,0 -5.4135,-2.50092 -5.4135,-5.58596c0,-3.08504 2.42371,-5.58596 5.4135,-5.58596c2.98979,0 5.4135,2.50092 5.4135,5.58596c0,3.08504 -2.42371,5.58596 -5.4135,5.58596z" stroke-width="0.30066"/><path d="M266.96893,204.11255c-1.57062,0 -2.84387,-1.59487 -2.84387,-3.56224c0,-1.96737 1.27324,-3.56224 2.84387,-3.56224c1.57062,0 2.84387,1.59487 2.84387,3.56224c0,1.96737 -1.27324,3.56224 -2.84387,3.56224z" stroke-width="0.17402"/></g></g><g fill="#ffffff" stroke="#ffffff"><path d="M250.11163,160.35043c0,-3.6501 1.94135,-6.60908 4.33614,-6.60908c2.39478,0 4.33614,2.95899 4.33614,6.60908c0,3.6501 -1.94135,6.60908 -4.33614,6.60908c-2.39478,0 -4.33614,-2.95899 -4.33614,-6.60908z" stroke-width="0.2836"/><path d="M247.63267,162.3688c0,-2.62483 1.94787,-4.75267 4.35069,-4.75267c2.40282,0 4.35069,2.12784 4.35069,4.75267c0,2.62483 -1.94787,4.75267 -4.35069,4.75267c-2.40282,0 -4.35069,-2.12784 -4.35069,-4.75267z" stroke-width="0.2409"/><path d="M244.86051,163.87341c0,-1.76836 1.34484,-3.20189 3.00377,-3.20189c1.65894,0 3.00377,1.43354 3.00377,3.20189c0,1.76836 -1.34484,3.20189 -3.00377,3.20189c-1.65894,0 -3.00377,-1.43354 -3.00377,-3.20189z" stroke-width="0.16429"/><path d="M263.58573,164.86425c0,-1.50733 1.34674,-2.72926 3.00803,-2.72926c1.66129,0 3.00803,1.22193 3.00803,2.72926c0,1.50733 -1.34674,2.72926 -3.00803,2.72926c-1.66129,0 -3.00803,-1.22193 -3.00803,-2.72926z" stroke-width="0.15179"/><path d="M254.9251,161.85504c0,-1.50733 1.34674,-2.72926 3.00803,-2.72926c1.66129,0 3.00803,1.22193 3.00803,2.72926c0,1.50733 -1.34674,2.72926 -3.00803,2.72926c-1.66129,0 -3.00803,-1.22193 -3.00803,-2.72926z" stroke-width="0.15179"/><path d="M252.11567,165.52481c0,-1.62489 1.61156,-2.94213 3.59951,-2.94213c1.98795,0 3.59951,1.31723 3.59951,2.94213c0,1.62489 -1.61156,2.94213 -3.59951,2.94213c-1.98795,0 -3.59951,-1.31723 -3.59951,-2.94213z" stroke-width="0.1724"/><path d="M258.02764,164.49727c0,-1.62639 1.47086,-2.94483 3.28525,-2.94483c1.8144,0 3.28525,1.31845 3.28525,2.94483c0,1.62639 -1.47086,2.94483 -3.28525,2.94483c-1.8144,0 -3.28525,-1.31845 -3.28525,-2.94483z" stroke-width="0.16478"/><path d="M258.31075,165.81839c0,-1.62555 1.54902,-2.94331 3.45983,-2.94331c1.91081,0 3.45983,1.31777 3.45983,2.94331c0,1.62555 -1.54902,2.94331 -3.45983,2.94331c-1.91081,0 -3.45983,-1.31777 -3.45983,-2.94331z" stroke-width="0.16906"/></g><g fill="#ffffff" stroke="#ffffff"><g><path d="M269.69159,179.41213c0,-2.90411 2.03292,-5.25835 4.54066,-5.25835c2.50774,0 4.54066,2.35424 4.54066,5.25835c0,2.90411 -2.03292,5.25835 -4.54066,5.25835c-2.50774,0 -4.54066,-2.35424 -4.54066,-5.25835z" stroke-width="0.29346"/><path d="M266.48848,181.50085c0,-2.64487 2.34298,-4.78896 5.2332,-4.78896c2.89022,0 5.2332,2.14409 5.2332,4.78896c0,2.64487 -2.34298,4.78896 -5.2332,4.78896c-2.89022,0 -5.2332,-2.14409 -5.2332,-4.78896z" stroke-width="0.30066"/><path d="M263.23138,181.67301c0,-1.68667 1.23084,-3.05399 2.74915,-3.05399c1.51831,0 2.74915,1.36732 2.74915,3.05399c0,1.68667 -1.23084,3.05399 -2.74915,3.05399c-1.51831,0 -2.74915,-1.36732 -2.74915,-3.05399z" stroke-width="0.17402"/></g><g><path d="M274.12534,184.67047c-2.50774,0 -4.54066,-2.35424 -4.54066,-5.25835c0,-2.90411 2.03292,-5.25835 4.54066,-5.25835c2.50774,0 4.54066,2.35424 4.54066,5.25835c0,2.90411 -2.03292,5.25835 -4.54066,5.25835z" stroke-width="0.29346"/><path d="M276.63591,186.28981c-2.89022,0 -5.2332,-2.14409 -5.2332,-4.78896c0,-2.64487 2.34298,-4.78896 5.2332,-4.78896c2.89022,0 5.2332,2.14409 5.2332,4.78896c0,2.64487 -2.34298,4.78896 -5.2332,4.78896z" stroke-width="0.30066"/><path d="M282.37706,184.727c-1.51831,0 -2.74915,-1.36732 -2.74915,-3.05399c0,-1.68667 1.23084,-3.05399 2.74915,-3.05399c1.51831,0 2.74915,1.36732 2.74915,3.05399c0,1.68667 -1.23084,3.05399 -2.74915,3.05399z" stroke-width="0.17402"/></g></g><g fill="#ffffff" stroke="#ffffff"><path d="M287.85203,203.05067c-2.39478,0 -4.33614,-2.95899 -4.33614,-6.60908c0,-3.6501 1.94135,-6.60908 4.33614,-6.60908c2.39478,0 4.33614,2.95899 4.33614,6.60908c0,3.6501 -1.94135,6.60908 -4.33614,6.60908z" stroke-width="0.2836"/><path d="M290.31643,203.21264c-2.40282,0 -4.35069,-2.12784 -4.35069,-4.75267c0,-2.62483 1.94787,-4.75267 4.35069,-4.75267c2.40282,0 4.35069,2.12784 4.35069,4.75267c0,2.62483 -1.94787,4.75267 -4.35069,4.75267z" stroke-width="0.2409"/><path d="M294.43551,203.16646c-1.65894,0 -3.00377,-1.43354 -3.00377,-3.20189c0,-1.76836 1.34484,-3.20189 3.00377,-3.20189c1.65894,0 3.00377,1.43354 3.00377,3.20189c0,1.76836 -1.34484,3.20189 -3.00377,3.20189z" stroke-width="0.16429"/><path d="M275.70603,203.68467c-1.66129,0 -3.00803,-1.22193 -3.00803,-2.72926c0,-1.50733 1.34674,-2.72926 3.00803,-2.72926c1.66129,0 3.00803,1.22193 3.00803,2.72926c0,1.50733 -1.34674,2.72926 -3.00803,2.72926z" stroke-width="0.15179"/><path d="M284.36665,200.67546c-1.66129,0 -3.00803,-1.22193 -3.00803,-2.72926c0,-1.50733 1.34674,-2.72926 3.00803,-2.72926c1.66129,0 3.00803,1.22193 3.00803,2.72926c0,1.50733 -1.34674,2.72926 -3.00803,2.72926z" stroke-width="0.15179"/><path d="M286.58461,204.55809c-1.98795,0 -3.59951,-1.31723 -3.59951,-2.94213c0,-1.62489 1.61156,-2.94213 3.59951,-2.94213c1.98795,0 3.59951,1.31723 3.59951,2.94213c0,1.62489 -1.61156,2.94213 -3.59951,2.94213z" stroke-width="0.1724"/><path d="M280.98689,203.53326c-1.8144,0 -3.28525,-1.31845 -3.28525,-2.94483c0,-1.62639 1.47086,-2.94483 3.28525,-2.94483c1.8144,0 3.28525,1.31845 3.28525,2.94483c0,1.62639 -1.47086,2.94483 -3.28525,2.94483z" stroke-width="0.16478"/><path d="M280.52922,204.85286c-1.91081,0 -3.45983,-1.31777 -3.45983,-2.94331c0,-1.62555 1.54902,-2.94331 3.45983,-2.94331c1.91081,0 3.45983,1.31777 3.45983,2.94331c0,1.62555 -1.54902,2.94331 -3.45983,2.94331z" stroke-width="0.16906"/></g></g></g></svg>