<svg version="1.1" xmlns="http://www.w3.org/2000/svg" xmlns:xlink="http://www.w3.org/1999/xlink" width="688.18769" height="425.42493" viewBox="0,0,688.18769,425.42493"><g transform="translate(23.34309,31.9617)"><g data-paper-data="{&quot;isPaintingLayer&quot;:true}" fill-rule="nonzero" stroke="#ffffff" stroke-linecap="butt" stroke-linejoin="miter" stroke-miterlimit="10" stroke-dasharray="" stroke-dashoffset="0" style="mix-blend-mode: normal"><path d="M-23.09309,393.21322v-424.92492h687.68769v424.92493z" fill-opacity="0.22745" fill="#000000" stroke-width="0.5"/><path d="M282.04252,110.00349c17.2553,-6.91839 56.99705,-6.82371 86.94668,-3.77816c9.08225,0.92356 6.7224,24.35242 3.49811,35.19533c-4.56052,15.33639 -38.87255,-0.10255 -54.83696,-0.38441c-5.96437,-0.1053 -5.92481,21.00756 0,20.37383c17.63281,-1.88602 40.94917,-3.03924 50.61874,9.99473c9.08984,12.25257 10.24384,30.54168 7.17096,48.05148c-2.92317,16.65677 -22.59868,31.78979 -40.91682,34.21267c-22.45676,2.97028 -59.4746,5.68876 -70.02257,-13.83883c-5.2222,-9.66789 4.31744,-24.97017 15.18562,-29.21532c12.7918,-4.99655 28.53647,19.54962 39.65134,11.91679c11.08482,-7.61221 5.91895,-39.08837 -1.63611,-37.91688c-14.0029,2.17128 -38.9978,11.18826 -43.49892,-3.21521c-4.87931,-15.61366 -11.0811,-63.80977 7.83993,-71.39604z" fill="#4fe3e4" stroke-width="7.5"/></g></g></svg>