<svg version="1.1" xmlns="http://www.w3.org/2000/svg" xmlns:xlink="http://www.w3.org/1999/xlink" width="295.55004" height="277.58909" viewBox="0,0,295.55004,277.58909"><g transform="translate(-172.02408,-41.04706)"><g data-paper-data="{&quot;isPaintingLayer&quot;:true}" fill-rule="nonzero" stroke-linecap="butt" stroke-linejoin="miter" stroke-miterlimit="10" stroke-dasharray="" stroke-dashoffset="0" style="mix-blend-mode: normal"><g><path d="M225.6773,272.5311l40.29937,-22.56185c0,0 0,0 0.41546,43.69122z" data-paper-data="{&quot;index&quot;:null}" fill="#c4c418" stroke="#e3e31c" stroke-width="0.35835"/><path d="M238.53561,225.62815c-0.67273,85.7437 -0.67273,85.7437 -0.67273,85.7437l-65.255,-44.27749z" data-paper-data="{&quot;index&quot;:null}" fill="#f6f626" stroke="#f6f626" stroke-width="0.6388"/><path d="M209.18884,269.73474l20.43876,-10.50707c0,0 0,0 0.21072,20.34701z" data-paper-data="{&quot;index&quot;:null}" fill="#c4c418" stroke="#e3e31c" stroke-width="0.22208"/><g data-paper-data="{&quot;index&quot;:null}"><path d="M196.85013,275.03376c-4.00944,0 -7.25973,-3.31631 -7.25973,-7.4072c0,-4.09088 3.25029,-7.4072 7.25973,-7.4072c4.00943,0 7.25972,3.31631 7.25972,7.4072c0,4.09088 -3.25028,7.4072 -7.25972,7.4072z" fill="#000000" stroke="#000000" stroke-width="0.33116"/><path d="M193.73824,268.33859c-1.85702,0 -3.36242,-1.52158 -3.36242,-3.39853c0,-1.87697 1.50541,-3.39854 3.36242,-3.39854c1.85702,0 3.36242,1.52159 3.36242,3.39854c0,1.87697 -1.50541,3.39853 -3.36242,3.39853z" fill="#ffffff" stroke="#ffffff" stroke-width="0.15266"/></g></g><g><path d="M425.67729,279.5311l40.29937,-22.56185c0,0 0,0 0.41546,43.69122z" data-paper-data="{&quot;index&quot;:null}" fill="#c4c418" stroke="#e3e31c" stroke-width="0.35835"/><path d="M438.5356,232.62815c-0.67273,85.7437 -0.67273,85.7437 -0.67273,85.7437l-65.255,-44.27749z" data-paper-data="{&quot;index&quot;:null}" fill="#f6f626" stroke="#f6f626" stroke-width="0.6388"/><path d="M409.18883,276.73474l20.43876,-10.50707c0,0 0,0 0.21072,20.34701z" data-paper-data="{&quot;index&quot;:null}" fill="#c4c418" stroke="#e3e31c" stroke-width="0.22208"/><g data-paper-data="{&quot;index&quot;:null}"><path d="M396.85012,282.03376c-4.00944,0 -7.25973,-3.31631 -7.25973,-7.4072c0,-4.09088 3.25029,-7.4072 7.25973,-7.4072c4.00943,0 7.25972,3.31631 7.25972,7.4072c0,4.09088 -3.25028,7.4072 -7.25972,7.4072z" fill="#000000" stroke="#000000" stroke-width="0.33116"/><path d="M393.73823,275.33859c-1.85702,0 -3.36242,-1.52158 -3.36242,-3.39853c0,-1.87697 1.50541,-3.39854 3.36242,-3.39854c1.85702,0 3.36242,1.52159 3.36242,3.39854c0,1.87697 -1.50541,3.39853 -3.36242,3.39853z" fill="#ffffff" stroke="#ffffff" stroke-width="0.15266"/></g></g><g><path d="M226.6773,170.5311l40.29937,-22.56185c0,0 0,0 0.41546,43.69122z" data-paper-data="{&quot;index&quot;:null}" fill="#c4c418" stroke="#e3e31c" stroke-width="0.35835"/><path d="M239.53561,123.62815c-0.67273,85.7437 -0.67273,85.7437 -0.67273,85.7437l-65.255,-44.27749z" data-paper-data="{&quot;index&quot;:null}" fill="#f6f626" stroke="#f6f626" stroke-width="0.6388"/><path d="M210.18884,167.73474l20.43876,-10.50707c0,0 0,0 0.21072,20.34701z" data-paper-data="{&quot;index&quot;:null}" fill="#c4c418" stroke="#e3e31c" stroke-width="0.22208"/><g data-paper-data="{&quot;index&quot;:null}"><path d="M197.85013,173.03376c-4.00944,0 -7.25973,-3.31631 -7.25973,-7.4072c0,-4.09088 3.25029,-7.4072 7.25973,-7.4072c4.00943,0 7.25972,3.31631 7.25972,7.4072c0,4.09088 -3.25028,7.4072 -7.25972,7.4072z" fill="#000000" stroke="#000000" stroke-width="0.33116"/><path d="M194.73824,166.33859c-1.85702,0 -3.36242,-1.52158 -3.36242,-3.39853c0,-1.87697 1.50541,-3.39854 3.36242,-3.39854c1.85702,0 3.36242,1.52159 3.36242,3.39854c0,1.87697 -1.50541,3.39853 -3.36242,3.39853z" fill="#ffffff" stroke="#ffffff" stroke-width="0.15266"/></g></g><g><path d="M426.67729,177.5311l40.29937,-22.56185c0,0 0,0 0.41546,43.69122z" data-paper-data="{&quot;index&quot;:null}" fill="#c4c418" stroke="#e3e31c" stroke-width="0.35835"/><path d="M439.5356,130.62815c-0.67273,85.7437 -0.67273,85.7437 -0.67273,85.7437l-65.255,-44.27749z" data-paper-data="{&quot;index&quot;:null}" fill="#f6f626" stroke="#f6f626" stroke-width="0.6388"/><path d="M410.18883,174.73474l20.43876,-10.50707c0,0 0,0 0.21072,20.34701z" data-paper-data="{&quot;index&quot;:null}" fill="#c4c418" stroke="#e3e31c" stroke-width="0.22208"/><g data-paper-data="{&quot;index&quot;:null}"><path d="M397.85012,180.03376c-4.00944,0 -7.25973,-3.31631 -7.25973,-7.4072c0,-4.09088 3.25029,-7.4072 7.25973,-7.4072c4.00943,0 7.25972,3.31631 7.25972,7.4072c0,4.09088 -3.25028,7.4072 -7.25972,7.4072z" fill="#000000" stroke="#000000" stroke-width="0.33116"/><path d="M394.73823,173.33859c-1.85702,0 -3.36242,-1.52158 -3.36242,-3.39853c0,-1.87697 1.50541,-3.39854 3.36242,-3.39854c1.85702,0 3.36242,1.52159 3.36242,3.39854c0,1.87697 -1.50541,3.39853 -3.36242,3.39853z" fill="#ffffff" stroke="#ffffff" stroke-width="0.15266"/></g></g><g><path d="M326.17729,274.0311l40.29937,-22.56185c0,0 0,0 0.41546,43.69122z" data-paper-data="{&quot;index&quot;:null}" fill="#c4c418" stroke="#e3e31c" stroke-width="0.35835"/><path d="M339.03561,227.12815c-0.67273,85.7437 -0.67273,85.7437 -0.67273,85.7437l-65.255,-44.27749z" data-paper-data="{&quot;index&quot;:null}" fill="#f6f626" stroke="#f6f626" stroke-width="0.6388"/><path d="M309.68884,271.23474l20.43876,-10.50707c0,0 0,0 0.21072,20.34701z" data-paper-data="{&quot;index&quot;:null}" fill="#c4c418" stroke="#e3e31c" stroke-width="0.22208"/><g data-paper-data="{&quot;index&quot;:null}"><path d="M297.35013,276.53376c-4.00944,0 -7.25973,-3.31631 -7.25973,-7.4072c0,-4.09088 3.25029,-7.4072 7.25973,-7.4072c4.00943,0 7.25972,3.31631 7.25972,7.4072c0,4.09088 -3.25028,7.4072 -7.25972,7.4072z" fill="#000000" stroke="#000000" stroke-width="0.33116"/><path d="M294.23824,269.83859c-1.85702,0 -3.36242,-1.52158 -3.36242,-3.39853c0,-1.87697 1.50541,-3.39854 3.36242,-3.39854c1.85702,0 3.36242,1.52159 3.36242,3.39854c0,1.87697 -1.50541,3.39853 -3.36242,3.39853z" fill="#ffffff" stroke="#ffffff" stroke-width="0.15266"/></g></g><g><path d="M327.17729,172.0311l40.29937,-22.56185c0,0 0,0 0.41546,43.69122z" data-paper-data="{&quot;index&quot;:null}" fill="#c4c418" stroke="#e3e31c" stroke-width="0.35835"/><path d="M340.03561,125.12815c-0.67273,85.7437 -0.67273,85.7437 -0.67273,85.7437l-65.255,-44.27749z" data-paper-data="{&quot;index&quot;:null}" fill="#f6f626" stroke="#f6f626" stroke-width="0.6388"/><path d="M310.68884,169.23474l20.43876,-10.50707c0,0 0,0 0.21072,20.34701z" data-paper-data="{&quot;index&quot;:null}" fill="#c4c418" stroke="#e3e31c" stroke-width="0.22208"/><g data-paper-data="{&quot;index&quot;:null}"><path d="M298.35013,174.53376c-4.00944,0 -7.25973,-3.31631 -7.25973,-7.4072c0,-4.09088 3.25029,-7.4072 7.25973,-7.4072c4.00943,0 7.25972,3.31631 7.25972,7.4072c0,4.09088 -3.25028,7.4072 -7.25972,7.4072z" fill="#000000" stroke="#000000" stroke-width="0.33116"/><path d="M295.23824,167.83859c-1.85702,0 -3.36242,-1.52158 -3.36242,-3.39853c0,-1.87697 1.50541,-3.39854 3.36242,-3.39854c1.85702,0 3.36242,1.52159 3.36242,3.39854c0,1.87697 -1.50541,3.39853 -3.36242,3.39853z" fill="#ffffff" stroke="#ffffff" stroke-width="0.15266"/></g></g><g><path d="M386.6773,90.5311l40.29937,-22.56185c0,0 0,0 0.41546,43.69122z" data-paper-data="{&quot;index&quot;:null}" fill="#c4c418" stroke="#e3e31c" stroke-width="0.35835"/><path d="M399.53561,43.62815c-0.67273,85.7437 -0.67273,85.7437 -0.67273,85.7437l-65.255,-44.27749z" data-paper-data="{&quot;index&quot;:null}" fill="#f6f626" stroke="#f6f626" stroke-width="0.6388"/><path d="M370.18884,87.73474l20.43876,-10.50707c0,0 0,0 0.21072,20.34701z" data-paper-data="{&quot;index&quot;:null}" fill="#c4c418" stroke="#e3e31c" stroke-width="0.22208"/><g data-paper-data="{&quot;index&quot;:null}"><path d="M357.85013,93.03376c-4.00944,0 -7.25973,-3.31631 -7.25973,-7.4072c0,-4.09088 3.25029,-7.4072 7.25973,-7.4072c4.00943,0 7.25972,3.31631 7.25972,7.4072c0,4.09088 -3.25028,7.4072 -7.25972,7.4072z" fill="#000000" stroke="#000000" stroke-width="0.33116"/><path d="M354.73824,86.33859c-1.85702,0 -3.36242,-1.52158 -3.36242,-3.39853c0,-1.87697 1.50541,-3.39854 3.36242,-3.39854c1.85702,0 3.36242,1.52159 3.36242,3.39854c0,1.87697 -1.50541,3.39853 -3.36242,3.39853z" fill="#ffffff" stroke="#ffffff" stroke-width="0.15266"/></g></g><g><path d="M274.6773,88.5311l40.29937,-22.56185c0,0 0,0 0.41546,43.69122z" data-paper-data="{&quot;index&quot;:null}" fill="#c4c418" stroke="#e3e31c" stroke-width="0.35835"/><path d="M287.53561,41.62815c-0.67273,85.7437 -0.67273,85.7437 -0.67273,85.7437l-65.255,-44.27749z" data-paper-data="{&quot;index&quot;:null}" fill="#f6f626" stroke="#f6f626" stroke-width="0.6388"/><path d="M258.18884,85.73474l20.43876,-10.50707c0,0 0,0 0.21072,20.34701z" data-paper-data="{&quot;index&quot;:null}" fill="#c4c418" stroke="#e3e31c" stroke-width="0.22208"/><g data-paper-data="{&quot;index&quot;:null}"><path d="M245.85013,91.03376c-4.00944,0 -7.25973,-3.31631 -7.25973,-7.4072c0,-4.09088 3.25029,-7.4072 7.25973,-7.4072c4.00943,0 7.25972,3.31631 7.25972,7.4072c0,4.09088 -3.25028,7.4072 -7.25972,7.4072z" fill="#000000" stroke="#000000" stroke-width="0.33116"/><path d="M242.73824,84.33859c-1.85702,0 -3.36242,-1.52158 -3.36242,-3.39853c0,-1.87697 1.50541,-3.39854 3.36242,-3.39854c1.85702,0 3.36242,1.52159 3.36242,3.39854c0,1.87697 -1.50541,3.39853 -3.36242,3.39853z" fill="#ffffff" stroke="#ffffff" stroke-width="0.15266"/></g></g></g></g></svg>