<svg version="1.1" xmlns="http://www.w3.org/2000/svg" xmlns:xlink="http://www.w3.org/1999/xlink" width="69.68765" height="303.69758" viewBox="0,0,69.68765,303.69758"><g transform="translate(-288.15918,-28.15121)"><g data-paper-data="{&quot;isPaintingLayer&quot;:true}" fill-rule="nonzero" stroke="#7802ff" stroke-width="0" stroke-linecap="round" stroke-linejoin="round" stroke-miterlimit="10" stroke-dasharray="" stroke-dashoffset="0" style="mix-blend-mode: normal"><path d="M324.57289,96.08381c2.64563,54.55136 -0.13156,234.07506 -0.13156,234.07506l-4.25793,1.68944c0,0 -0.59195,-186.21545 2.77538,-237.12272c0.44447,-6.71936 1.25745,-5.99634 1.61411,1.35822z" fill="#6b9b1f"/><path d="M356.8066,244.89262c-3.89192,36.88869 -20.02094,69.32765 -34.06792,67.87846c-14.90082,-1.53727 -30.98583,-39.38939 -34.04657,-79.24521c-5.7184,-74.46289 36.46776,-205.37466 36.46776,-205.37466c0,0 39.53201,142.00278 31.64673,216.74141z" fill="#85c227"/><g fill="#6b9b1f"><path d="M324.57305,96.0843c2.64563,54.55135 -0.13156,234.07506 -0.13156,234.07506l-4.25793,1.68943c0,0 -0.59195,-186.21544 2.77539,-237.12272c0.44447,-6.71935 1.25745,-5.99633 1.61411,1.35823z"/><path d="M322.26816,253.90833l-0.89633,12.35147c0,0 -14.75961,-8.73752 -17.94173,-21.28505c-0.42002,-1.65619 -0.16681,-3.95581 0.49667,-4.57015c4.92121,-4.55683 18.3414,13.50373 18.3414,13.50373z"/><path d="M325.77524,151.80072l-0.89633,12.35147c0,0 -14.7596,-8.73751 -17.94173,-21.28507c-0.42001,-1.65617 -0.16681,-3.95579 0.49667,-4.57013c4.92121,-4.55682 18.3414,13.50373 18.3414,13.50373z"/><path d="M340.75047,185.25063c0.66347,0.61434 0.91668,2.91396 0.49667,4.57014c-3.18212,12.54754 -17.94173,21.28507 -17.94173,21.28507l-0.89633,-12.35148c0,0 13.4202,-18.06056 18.3414,-13.50373z"/></g></g></g></svg>