<svg version="1.1" xmlns="http://www.w3.org/2000/svg" xmlns:xlink="http://www.w3.org/1999/xlink" width="77.8967" height="60" viewBox="0,0,77.8967,60"><g transform="translate(-260.00001,-149.73568)"><g data-paper-data="{&quot;isPaintingLayer&quot;:true}" fill-rule="nonzero" stroke-linecap="butt" stroke-linejoin="miter" stroke-miterlimit="10" stroke-dasharray="" stroke-dashoffset="0" style="mix-blend-mode: normal"><path d="M319.99976,149.73568v20.63975c1.74074,-0.89966 3.67642,-1.37451 5.64344,-1.38441c3.24988,-0.00002 6.36665,1.26794 8.66464,3.52493c2.29799,2.25699 3.58895,5.31812 3.58887,8.50996c-0.00005,6.64651 -5.48613,12.03454 -12.2535,12.03449c-1.96699,-0.00978 -3.90267,-0.48449 -5.64344,-1.38402v18.0593h-59.99976v-60z" fill="#cca676" stroke="none" stroke-width="0.11881"/><path d="M299.28612,164.49829c0.72999,3.10976 -13.013,13.053 -9.83672,10.37493c2.74501,-2.31445 11.37711,0.64599 13.4329,3.02602c2.39643,2.7744 3.2284,6.34373 3.06736,10.15889c-0.21788,5.16183 -2.9329,10.44706 -7.40395,12.86042c-4.86563,2.62636 -11.99729,2.69203 -16.5,-0.5402c-4.2214,-3.03028 -6.18716,-9.44904 -5.71183,-14.69793c1.31092,-12.19237 9.65656,-19.61703 15.40982,-24.90942c2.07552,-1.90927 6.98286,1.34359 7.54242,3.7273zM286.06468,188.16625c-0.00001,2.92477 2.36791,5.29572 5.2888,5.29556c2.92074,-0.00004 5.28843,-2.37093 5.28842,-5.29556c0.00002,-2.92462 -2.36768,-5.29552 -5.28842,-5.29556c-2.92089,-0.00017 -5.28882,2.37079 -5.2888,5.29556z" fill="#1999e1" stroke="#ffffff" stroke-width="2.5"/></g></g></svg>