<svg version="1.1" xmlns="http://www.w3.org/2000/svg" xmlns:xlink="http://www.w3.org/1999/xlink" width="60.00016" height="60" viewBox="0,0,60.00016,60"><g transform="translate(-239.99984,-150)"><g data-paper-data="{&quot;isPaintingLayer&quot;:true}" fill-rule="nonzero" stroke-linecap="butt" stroke-linejoin="miter" stroke-miterlimit="10" stroke-dasharray="" stroke-dashoffset="0" style="mix-blend-mode: normal"><path d="M300,150v60h-60.00015v-18.0593c1.74077,0.89953 3.67646,1.37424 5.64344,1.38402c6.76737,0.00004 12.25345,-5.38798 12.2535,-12.03449c0.00008,-3.19183 -1.29088,-6.25297 -3.58887,-8.50996c-2.29799,-2.25699 -5.41476,-3.52495 -8.66464,-3.52493c-1.96702,0.0099 -3.9027,0.48475 -5.64344,1.38441v-20.63975z" fill="#3b742b" stroke="none" stroke-width="0.11881"/><g><path d="M276.51873,163.44695c-0.35303,-0.50209 -0.36121,-1.16078 -0.01827,-1.47123c0.34293,-0.31044 0.90712,-0.15508 1.26015,0.34701c0.35303,0.50209 0.36121,1.16078 0.01827,1.47123c-0.34293,0.31044 -0.90712,0.15508 -1.26015,-0.34701z" fill="#82d22d" stroke="#82d22d" stroke-width="0.29894"/><path d="M275.12982,163.89788c-0.34293,-0.31044 -0.33475,-0.96913 0.01827,-1.47123c0.35303,-0.50209 0.91721,-0.65745 1.26015,-0.34701c0.34293,0.31044 0.33475,0.96913 -0.01827,1.47123c-0.35303,0.50209 -0.91721,0.65745 -1.26015,0.34701z" fill="#82d22d" stroke="#82d22d" stroke-width="0.29894"/><path d="M276.9618,171.56443c0.01695,0.40574 -1.38751,-0.06112 -1.29135,-0.26037c0.72789,-1.50831 1.24672,-8.09482 -0.16788,-10.33207c-0.28983,-0.45837 0.74316,-0.59225 0.77595,-0.52289c1.33295,2.81948 0.66506,10.67922 0.68328,11.11533z" fill="#82d22d" stroke="#82d22d" stroke-width="0.29531"/><path d="M274.41942,156.70255c0,-1.62391 0.9713,-2.94035 2.16947,-2.94035c1.19816,0 2.16947,1.31644 2.16947,2.94035c0,1.62391 -0.9713,2.94035 -2.16947,2.94035c-1.19816,0 -2.16947,-1.31644 -2.16947,-2.94035z" fill-opacity="0.95294" fill="#e62eff" stroke-opacity="0.95294" stroke="#b783d3" stroke-width="0.31445"/><path d="M276.87328,158c0.85295,1.11041 0.20223,3.83043 -0.52825,4.42528c-3.66613,2.98544 -7.23706,-12.81046 0.52825,-4.42528z" fill-opacity="0.95294" fill="#e65dff" stroke-opacity="0.95294" stroke="#e55eff" stroke-width="0.36502"/><path d="M276.63887,162.42528c-0.73048,-0.59485 -1.3812,-3.31487 -0.52825,-4.42528c7.76531,-8.38518 4.19439,7.41071 0.52825,4.42528z" fill-opacity="0.95294" fill="#e55eff" stroke-opacity="0.95294" stroke="#e65dff" stroke-width="0.36502"/></g><g><path d="M260.67778,159.85802c0.01033,-0.07349 0.59282,-0.32813 0.72093,0.18221c0.37808,1.5062 0.33189,8.45915 1.21194,9.70431c0.11626,0.16449 -1.03454,0.75259 -1.07559,0.37444c-0.04412,-0.40646 -1.26193,-7.38171 -0.85729,-10.26096z" fill="#82d22d" stroke="#7ea723" stroke-width="0.25419"/><path d="M261.31527,170.18852c0.4637,-1.73949 3.15774,-2.95468 3.15774,-2.95468c0,0 -1.29711,4.02473 -2.27905,4.50117c-0.57055,0.27684 -1.13126,-0.59903 -0.8787,-1.54649z" fill="#82d22d" stroke="#82d22d" stroke-width="0.23474"/><path d="M261.27847,171.71239c-0.96522,-0.49904 -2.12386,-4.55227 -2.12386,-4.55227c0,0 2.65132,1.27722 3.05521,3.02678c0.21999,0.95295 -0.37052,1.81545 -0.93135,1.52549z" fill="#82d22d" stroke="#82d22d" stroke-width="0.23474"/><path d="M259.95368,159.45176c0.19265,-1.76621 3.43822,-5.67849 3.41346,-4.33115c-0.02476,1.34734 -0.85998,5.33339 -2.00675,6.12091c-0.66632,0.45758 -1.59936,-0.02355 -1.40671,-1.78976z" fill="#ff2400" stroke="#ff2400" stroke-width="0.29982"/><path d="M260.72988,159.80091c0.95413,-2.11993 4.89575,-4.56166 4.59952,-3.17043c-0.29623,1.39123 -2.48942,4.86424 -3.82527,5.28961c-0.77618,0.24716 -1.29394,-0.9645 -0.77425,-2.11918z" fill="#ff2400" stroke="#ff2400" stroke-width="0.29982"/><path d="M259.78711,160.79196c-0.72447,-1.13793 -0.15895,-7.97723 0.73061,-6.35988c0.65598,1.19267 2.05301,3.02126 1.31922,5.21738c-0.39968,1.19619 -1.62888,1.80368 -2.04983,1.1425z" fill="#ff2400" stroke="#ff2400" stroke-width="0.29982"/><path d="M260.92687,161.98257c-1.39302,-0.13011 -4.2449,-3.05724 -4.81781,-4.35443c-0.57291,-1.29719 3.77895,0.24718 5.14361,2.11622c0.7433,1.01802 0.4836,2.31381 -0.3258,2.23821z" fill="#ff2400" stroke="#ff2400" stroke-width="0.29982"/><path d="M260.53503,161.33082c-1.28183,-0.52474 -2.91008,-4.24424 -3.20857,-5.55661c-0.29849,-1.31237 3.67201,1.81913 4.21996,3.50521c0.54795,1.68608 -0.26659,2.3563 -1.01139,2.0514z" fill="#ff2400" stroke="#ff2400" stroke-width="0.29982"/></g><g><path d="M292.3832,173.96631c0.04081,0.42711 -1.44495,-0.07202 -1.35644,-0.28119c0.66993,-1.58336 0.83222,-8.5124 -0.76534,-10.87481c-0.32731,-0.48401 0.73818,-0.61918 0.77621,-0.546c1.54603,2.97472 1.3017,11.24293 1.34557,11.70201z" fill="#82d22d" stroke="#82d22d" stroke-width="0.29531"/><path d="M287.63155,156.0168c0.47089,-1.27502 2.79003,-1.92284 3.69745,-0.89914c1.20834,1.36319 -1.24332,5.34927 -1.24332,5.34927c0,0 -3.02748,-2.89768 -2.45413,-4.45013z" fill="#ff8fc1" stroke="#ff9ac8" stroke-width="0.40929"/><path d="M290.40426,160.09022c0,0 4.47858,-0.08601 4.87878,1.83534c0.30054,1.44286 -1.48905,3.28741 -2.7484,3.01631c-1.53338,-0.3301 -2.13037,-4.85165 -2.13037,-4.85165z" fill="#ff8fc1" stroke="#ff8fc1" stroke-width="0.42118"/><path d="M287.63155,156.0168c0.47089,-1.27502 2.79003,-1.92284 3.69745,-0.89914c1.20834,1.36319 -1.24332,5.34927 -1.24332,5.34927c0,0 -3.02748,-2.89768 -2.45413,-4.45013z" fill="#ff8fc1" stroke="#ff8fc1" stroke-width="0.40929"/><path d="M290.46441,165.38659c-1.12571,0.71472 -3.56557,-0.41027 -3.81621,-1.90387c-0.33376,-1.98892 4.06523,-3.5225 4.06523,-3.5225c0,0 1.12163,4.55613 -0.24903,5.42637z" fill="#ff8fc1" stroke="#ff8fc1" stroke-width="0.43607"/><path d="M290.42171,160.26821c0,0 0.68398,-4.89271 2.33691,-4.78838c1.24128,0.07835 2.46171,2.5416 2.0257,3.83451c-0.53087,1.57424 -4.36261,0.95387 -4.36261,0.95387z" fill="#ff8fc1" stroke="#ff8fc1" stroke-width="0.40929"/><path d="M285.71315,161.06248c-0.87793,-1.05618 -0.63394,-3.78327 0.49744,-4.28911c1.50658,-0.67358 3.92626,3.65994 3.92626,3.65994c0,0 -3.35474,1.91517 -4.4237,0.62917z" fill="#ff8fc1" stroke="#ff8fc1" stroke-width="0.40929"/><path d="M288.77553,160.75241c-0.19647,-1.04437 0.36358,-2.0206 1.25092,-2.18047c0.88734,-0.15987 1.76594,0.55715 1.96241,1.60152c0.19647,1.04437 -0.36358,2.0206 -1.25092,2.18047c-0.88734,0.15987 -1.76594,-0.55715 -1.96241,-1.60152z" fill="#ffed4c" stroke="#fff04c" stroke-width="0.38459"/><path d="M294.83077,167.22919c0,0 -0.65464,2.89441 -1.73766,2.74948c-0.81331,-0.10884 -1.51312,-1.64413 -1.17221,-2.39625c0.4151,-0.91577 2.90987,-0.35323 2.90987,-0.35323z" fill="#82d22d" stroke="#82d22d" stroke-width="0.25751"/></g><g><path d="M262.99558,206.29644c0.03607,0.37649 -1.27693,-0.06348 -1.19872,-0.24786c0.59203,-1.39569 0.73545,-7.50346 -0.67634,-9.58586c-0.28925,-0.42664 0.65234,-0.54579 0.68595,-0.48129c1.36626,2.62214 1.15034,9.91035 1.18911,10.31501z" fill="#82d22d" stroke="#82d22d" stroke-width="0.29531"/><path d="M258.79645,190.47443c0.41614,-1.1239 2.46561,-1.69494 3.26752,-0.79257c1.06784,1.20162 -1.09875,4.71524 -1.09875,4.71524c0,0 -2.67545,-2.55423 -2.16877,-3.92267z" fill="#ff8fc1" stroke="#ff9ac8" stroke-width="0.40929"/><path d="M261.24675,194.06503c0,0 3.95782,-0.07581 4.31148,1.6178c0.26559,1.27184 -1.3159,2.89777 -2.42883,2.6588c-1.35509,-0.29097 -1.88266,-4.2766 -1.88266,-4.2766z" fill="#ff8fc1" stroke="#ff8fc1" stroke-width="0.42118"/><path d="M258.79645,190.47443c0.41614,-1.1239 2.46561,-1.69494 3.26752,-0.79257c1.06784,1.20162 -1.09875,4.71524 -1.09875,4.71524c0,0 -2.67545,-2.55423 -2.16877,-3.92267z" fill="#ff8fc1" stroke="#ff8fc1" stroke-width="0.40929"/><path d="M261.2999,198.73364c-0.99482,0.63 -3.15097,-0.36165 -3.37247,-1.67821c-0.29495,-1.75318 3.59254,-3.10499 3.59254,-3.10499c0,0 0.99121,4.01611 -0.22007,4.7832z" fill="#ff8fc1" stroke="#ff8fc1" stroke-width="0.43607"/><path d="M261.26217,194.22192c0,0 0.60445,-4.31279 2.06518,-4.22083c1.09695,0.06906 2.17547,2.24035 1.79016,3.38002c-0.46914,1.38765 -3.85534,0.84081 -3.85534,0.84081z" fill="#ff8fc1" stroke="#ff8fc1" stroke-width="0.40929"/><path d="M257.10111,194.92206c-0.77585,-0.931 -0.56023,-3.33486 0.4396,-3.78074c1.3314,-0.59375 3.46972,3.22614 3.46972,3.22614c0,0 -2.96466,1.68817 -3.90932,0.5546z" fill="#ff8fc1" stroke="#ff8fc1" stroke-width="0.40929"/><path d="M259.80741,194.64874c-0.17363,-0.92058 0.32131,-1.78111 1.10547,-1.92203c0.78416,-0.14092 1.5606,0.49112 1.73423,1.4117c0.17363,0.92058 -0.32131,1.78111 -1.10547,1.92203c-0.78416,0.14092 -1.5606,-0.49112 -1.73423,-1.4117z" fill="#ffed4c" stroke="#fff04c" stroke-width="0.38459"/><path d="M265.15855,200.35785c0,0 -0.57852,2.55135 -1.53561,2.4236c-0.71874,-0.09594 -1.33718,-1.44926 -1.03591,-2.11223c0.36683,-0.80723 2.57152,-0.31137 2.57152,-0.31137z" fill="#82d22d" stroke="#82d22d" stroke-width="0.25751"/></g><g><path d="M274.20032,193.98666c0.01033,-0.07349 0.59282,-0.32813 0.72093,0.18221c0.37808,1.5062 0.33189,8.45915 1.21194,9.70431c0.11626,0.16449 -1.03454,0.75259 -1.07559,0.37444c-0.04412,-0.40646 -1.26193,-7.38171 -0.85729,-10.26096z" fill="#82d22d" stroke="#7ea723" stroke-width="0.25419"/><path d="M274.83781,204.31716c0.4637,-1.73949 3.15774,-2.95468 3.15774,-2.95468c0,0 -1.29711,4.02473 -2.27905,4.50117c-0.57055,0.27684 -1.13126,-0.59903 -0.8787,-1.54649z" fill="#82d22d" stroke="#82d22d" stroke-width="0.23474"/><path d="M274.80101,205.84102c-0.96522,-0.49904 -2.12386,-4.55227 -2.12386,-4.55227c0,0 2.65132,1.27722 3.05521,3.02678c0.21999,0.95295 -0.37052,1.81545 -0.93135,1.52549z" fill="#82d22d" stroke="#82d22d" stroke-width="0.23474"/><path d="M273.47622,193.5804c0.19265,-1.76621 3.43822,-5.67849 3.41346,-4.33115c-0.02476,1.34734 -0.85998,5.33339 -2.00675,6.12091c-0.66632,0.45758 -1.59936,-0.02355 -1.40671,-1.78976z" fill="#ff2400" stroke="#ff2400" stroke-width="0.29982"/><path d="M274.25242,193.92956c0.95413,-2.11993 4.89575,-4.56166 4.59952,-3.17043c-0.29623,1.39123 -2.48942,4.86424 -3.82527,5.28961c-0.77618,0.24716 -1.29394,-0.9645 -0.77425,-2.11918z" fill="#ff2400" stroke="#ff2400" stroke-width="0.29982"/><path d="M273.30965,194.9206c-0.72447,-1.13793 -0.15895,-7.97723 0.73061,-6.35988c0.65598,1.19267 2.05301,3.02126 1.31922,5.21738c-0.39968,1.19619 -1.62888,1.80368 -2.04983,1.1425z" fill="#ff2400" stroke="#ff2400" stroke-width="0.29982"/><path d="M274.44941,196.11121c-1.39302,-0.13011 -4.2449,-3.05724 -4.81781,-4.35443c-0.57291,-1.29719 3.77895,0.24718 5.14361,2.11622c0.7433,1.01802 0.4836,2.31381 -0.3258,2.23821z" fill="#ff2400" stroke="#ff2400" stroke-width="0.29982"/><path d="M274.05757,195.45947c-1.28183,-0.52474 -2.91008,-4.24424 -3.20857,-5.55661c-0.29849,-1.31237 3.67201,1.81913 4.21996,3.50521c0.54795,1.68608 -0.26659,2.3563 -1.01139,2.0514z" fill="#ff2400" stroke="#ff2400" stroke-width="0.29982"/></g><g><path d="M289.80403,197.34343c-0.35303,-0.50209 -0.36121,-1.16078 -0.01827,-1.47123c0.34293,-0.31044 0.90712,-0.15508 1.26015,0.34701c0.35303,0.50209 0.36121,1.16078 0.01827,1.47123c-0.34293,0.31044 -0.90712,0.15508 -1.26015,-0.34701z" fill="#82d22d" stroke="#82d22d" stroke-width="0.29894"/><path d="M288.41512,197.79435c-0.34293,-0.31044 -0.33475,-0.96913 0.01827,-1.47123c0.35303,-0.50209 0.91721,-0.65745 1.26015,-0.34701c0.34293,0.31044 0.33475,0.96913 -0.01827,1.47123c-0.35303,0.50209 -0.91721,0.65745 -1.26015,0.34701z" fill="#82d22d" stroke="#82d22d" stroke-width="0.29894"/><path d="M290.24711,205.4609c0.01695,0.40574 -1.38751,-0.06112 -1.29135,-0.26037c0.72789,-1.50831 1.24672,-8.09482 -0.16788,-10.33207c-0.28983,-0.45837 0.74316,-0.59225 0.77595,-0.52289c1.33295,2.81948 0.66506,10.67922 0.68328,11.11533z" fill="#82d22d" stroke="#82d22d" stroke-width="0.29531"/><path d="M287.70472,190.59903c0,-1.62391 0.9713,-2.94035 2.16947,-2.94035c1.19816,0 2.16947,1.31644 2.16947,2.94035c0,1.62391 -0.9713,2.94035 -2.16947,2.94035c-1.19816,0 -2.16947,-1.31644 -2.16947,-2.94035z" fill-opacity="0.95294" fill="#e62eff" stroke-opacity="0.95294" stroke="#b783d3" stroke-width="0.31445"/><path d="M290.15858,191.89647c0.85295,1.11041 0.20223,3.83043 -0.52825,4.42528c-3.66613,2.98544 -7.23706,-12.81046 0.52825,-4.42528z" fill-opacity="0.95294" fill="#e65dff" stroke-opacity="0.95294" stroke="#e55eff" stroke-width="0.36502"/><path d="M289.92417,196.32176c-0.73048,-0.59485 -1.3812,-3.31487 -0.52825,-4.42528c7.76531,-8.38518 4.19439,7.41071 0.52825,4.42528z" fill-opacity="0.95294" fill="#e55eff" stroke-opacity="0.95294" stroke="#e65dff" stroke-width="0.36502"/></g><g><path d="M282.74087,175.87759c0.01033,-0.07349 0.59282,-0.32813 0.72093,0.18221c0.37808,1.5062 0.33189,8.45915 1.21194,9.70431c0.11626,0.16449 -1.03454,0.75259 -1.07559,0.37444c-0.04412,-0.40646 -1.26193,-7.38171 -0.85729,-10.26096z" fill="#82d22d" stroke="#7ea723" stroke-width="0.25419"/><path d="M283.37836,186.20807c0.4637,-1.73949 3.15774,-2.95468 3.15774,-2.95468c0,0 -1.29711,4.02473 -2.27905,4.50117c-0.57055,0.27684 -1.13126,-0.59903 -0.8787,-1.54649z" fill="#82d22d" stroke="#82d22d" stroke-width="0.23474"/><path d="M283.34156,187.73195c-0.96522,-0.49904 -2.12386,-4.55227 -2.12386,-4.55227c0,0 2.65132,1.27722 3.05521,3.02678c0.21999,0.95295 -0.37052,1.81545 -0.93135,1.52549z" fill="#82d22d" stroke="#82d22d" stroke-width="0.23474"/><path d="M282.01677,175.47132c0.19265,-1.76621 3.43822,-5.67849 3.41346,-4.33115c-0.02476,1.34734 -0.85998,5.33339 -2.00675,6.12091c-0.66632,0.45758 -1.59936,-0.02355 -1.40671,-1.78976z" fill="#ff2400" stroke="#ff2400" stroke-width="0.29982"/><path d="M282.79296,175.82049c0.95413,-2.11993 4.89575,-4.56166 4.59952,-3.17043c-0.29623,1.39123 -2.48942,4.86424 -3.82527,5.28961c-0.77618,0.24716 -1.29394,-0.9645 -0.77425,-2.11918z" fill="#ff2400" stroke="#ff2400" stroke-width="0.29982"/><path d="M281.8502,176.81153c-0.72447,-1.13793 -0.15895,-7.97723 0.73061,-6.35988c0.65598,1.19267 2.05301,3.02126 1.31922,5.21738c-0.39968,1.19619 -1.62888,1.80368 -2.04983,1.1425z" fill="#ff2400" stroke="#ff2400" stroke-width="0.29982"/><path d="M282.98996,178.00212c-1.39302,-0.13011 -4.2449,-3.05724 -4.81781,-4.35443c-0.57291,-1.29719 3.77895,0.24718 5.14361,2.11622c0.7433,1.01802 0.4836,2.31381 -0.3258,2.23821z" fill="#ff2400" stroke="#ff2400" stroke-width="0.29982"/><path d="M282.59812,177.3504c-1.28183,-0.52474 -2.91008,-4.24424 -3.20857,-5.55661c-0.29849,-1.31237 3.67201,1.81913 4.21996,3.50521c0.54795,1.68608 -0.26659,2.3563 -1.01139,2.0514z" fill="#ff2400" stroke="#ff2400" stroke-width="0.29982"/></g><g><path d="M271.16112,185.63065c0.03797,0.38152 -1.34431,-0.06433 -1.26197,-0.25118c0.62327,-1.41437 0.77426,-7.60385 -0.71203,-9.71412c-0.30451,-0.43235 0.68677,-0.55309 0.72215,-0.48773c1.43835,2.65723 1.21104,10.04295 1.25185,10.45303z" fill="#82d22d" stroke="#82d22d" stroke-width="0.29531"/><path d="M266.74041,169.59693c0.4381,-1.13893 2.59571,-1.71762 3.43993,-0.80317c1.12419,1.2177 -1.15673,4.77833 -1.15673,4.77833c0,0 -2.81663,-2.5884 -2.2832,-3.97516z" fill="#ff8fc1" stroke="#ff9ac8" stroke-width="0.40929"/><path d="M269.32001,173.23558c0,0 4.16665,-0.07683 4.53899,1.63945c0.27961,1.28886 -1.38534,2.93654 -2.55699,2.69437c-1.42659,-0.29486 -1.982,-4.33382 -1.982,-4.33382z" fill="#ff8fc1" stroke="#ff8fc1" stroke-width="0.42118"/><path d="M266.74041,169.59693c0.4381,-1.13893 2.59571,-1.71762 3.43993,-0.80317c1.12419,1.2177 -1.15673,4.77833 -1.15673,4.77833c0,0 -2.81663,-2.5884 -2.2832,-3.97516z" fill="#ff8fc1" stroke="#ff8fc1" stroke-width="0.40929"/><path d="M269.37597,177.96665c-1.04731,0.63843 -3.31724,-0.36648 -3.55042,-1.70067c-0.31051,-1.77664 3.7821,-3.14653 3.7821,-3.14653c0,0 1.04351,4.06985 -0.23168,4.8472z" fill="#ff8fc1" stroke="#ff8fc1" stroke-width="0.43607"/><path d="M269.33624,173.39457c0,0 0.63635,-4.3705 2.17415,-4.2773c1.15483,0.06999 2.29026,2.27033 1.88462,3.42524c-0.4939,1.40622 -4.05877,0.85206 -4.05877,0.85206z" fill="#ff8fc1" stroke="#ff8fc1" stroke-width="0.40929"/><path d="M264.95562,174.10408c-0.81678,-0.94345 -0.58979,-3.37948 0.4628,-3.83132c1.40165,-0.60169 3.6528,3.2693 3.6528,3.2693c0,0 -3.12109,1.71076 -4.1156,0.56202z" fill="#ff8fc1" stroke="#ff8fc1" stroke-width="0.40929"/><path d="M267.80472,173.82711c-0.18279,-0.9329 0.33826,-1.80494 1.1638,-1.94775c0.82554,-0.14281 1.64295,0.49769 1.82574,1.43059c0.18279,0.9329 -0.33826,1.80494 -1.1638,1.94775c-0.82554,0.14281 -1.64295,-0.49769 -1.82574,-1.43059z" fill="#ffed4c" stroke="#fff04c" stroke-width="0.38459"/><path d="M273.43822,179.6126c0,0 -0.60905,2.58549 -1.61664,2.45602c-0.75666,-0.09722 -1.40774,-1.46865 -1.09057,-2.14049c0.38618,-0.81803 2.70721,-0.31553 2.70721,-0.31553z" fill="#82d22d" stroke="#82d22d" stroke-width="0.25751"/></g></g></g></svg>