<svg version="1.1" xmlns="http://www.w3.org/2000/svg" xmlns:xlink="http://www.w3.org/1999/xlink" width="192.72443" height="289.37229" viewBox="0,0,192.72443,289.37229"><g transform="translate(-223.64864,-35.31385)"><g data-paper-data="{&quot;isPaintingLayer&quot;:true}" fill-rule="nonzero" stroke-miterlimit="10" stroke-dasharray="" stroke-dashoffset="0" style="mix-blend-mode: normal"><g fill="#c87137" stroke="#c87137" stroke-width="0.26459" stroke-linecap="butt" stroke-linejoin="miter"><path d="M318.64679,204.8005l0.75082,-2.41349l-0.25028,118.74431c0,0 10.7617,2.8962 -10.76169,3.3789c-21.52339,0.4827 -0.50054,-0.96539 0,-118.74431z"/><path d="M328.2881,205.67772c0.50054,117.77892 21.52339,119.22701 0,118.74431c-21.52339,-0.4827 -10.7617,-3.3789 -10.7617,-3.3789l-0.25027,-118.74431l0.75081,2.41349z"/></g><g fill="#4eb632" stroke="#4eb632" stroke-linecap="butt" stroke-linejoin="miter"><path d="M354.46146,152.59693c-15.23764,-17.94434 -16.52464,-42.25661 -2.87456,-54.30299c13.65008,-12.04638 37.06821,-7.26513 52.30586,10.6792c15.23764,17.94434 16.52463,42.25661 2.87455,54.30299c-13.65008,12.04638 -37.0682,7.26513 -52.30585,-10.6792z" stroke-width="0.30795"/><path d="M326.40191,217.59768c-12.90559,-11.96028 -13.63727,-33.20853 -1.63424,-47.45931c12.00303,-14.25078 32.19546,-16.10761 45.10105,-4.14733c12.90559,11.96028 13.63727,33.20854 1.63424,47.45932c-12.00303,14.25078 -32.19546,16.1076 -45.10105,4.14732z" stroke-width="0.30123"/><path d="M252.86707,190.76599c-2.06872,-20.83118 11.32872,-39.36536 29.92401,-41.39725c18.59529,-2.03189 35.34677,13.20795 37.41548,34.03913c2.06872,20.83118 -11.32872,39.36536 -29.92401,41.39725c-18.59529,2.03189 -35.34677,-13.20795 -37.41548,-34.03913z" stroke-width="0.26459"/><path d="M340.82017,176.64946c-1.81645,-18.29096 12.45671,-34.83922 31.87998,-36.96159c19.42327,-2.12236 36.64147,10.98487 38.45791,29.27583c1.81645,18.29096 -12.45671,34.83922 -31.87998,36.96159c-19.42327,2.12236 -36.64147,-10.98487 -38.45791,-29.27583z" stroke-width="0.3853"/><path d="M284.2485,154.06211c-1.54213,-15.5287 7.89156,-29.28462 21.07075,-30.72469c13.17919,-1.44007 25.11318,9.981 26.65531,25.5097c1.54213,15.5287 -7.89156,29.28462 -21.07075,30.72469c-13.17919,1.44007 -25.11318,-9.981 -26.65531,-25.5097z" stroke-width="0.26459"/><path d="M284.39149,148.84725c-2.35082,-23.6718 12.13513,-44.65268 32.35525,-46.86212c20.22012,-2.20943 38.51747,15.18924 40.86829,38.86105c2.35082,23.6718 -12.13513,44.65269 -32.35526,46.86213c-20.22012,2.20943 -38.51746,-15.18925 -40.86828,-38.86105z" stroke-width="0.26459"/><path d="M234.62229,133.48868c-2.35082,-23.6718 12.13513,-44.65268 32.35526,-46.86212c20.22012,-2.20943 38.51746,15.18924 40.86828,38.86105c2.35082,23.6718 -12.13513,44.65268 -32.35525,46.86212c-20.22012,2.20943 -38.51747,-15.18924 -40.86829,-38.86105z" stroke-width="0.26459"/><path d="M257.09593,93.59874c-2.35082,-23.6718 12.13513,-44.65268 32.35525,-46.86212c20.22012,-2.20943 38.51747,15.18924 40.86829,38.86105c2.35082,23.6718 -12.13513,44.65268 -32.35526,46.86212c-20.22012,2.20943 -38.51746,-15.18924 -40.86828,-38.86105z" stroke-width="0.26459"/><path d="M301.59391,82.49745c-2.35082,-23.6718 12.13513,-44.65269 32.35525,-46.86213c20.22012,-2.20943 38.51747,15.18925 40.86829,38.86105c2.35082,23.6718 -12.13513,44.65268 -32.35525,46.86212c-20.22012,2.20943 -38.51747,-15.18924 -40.86829,-38.86105z" stroke-width="0.26459"/><path d="M223.99164,166.1921c-2.06872,-20.83118 11.32871,-39.36537 29.924,-41.39726c18.59529,-2.03189 35.34678,13.20795 37.41549,34.03913c2.06872,20.83118 -11.32872,39.36537 -29.92401,41.39726c-18.59529,2.03189 -35.34677,-13.20795 -37.41548,-34.03913z" stroke-width="0.26459"/><path d="M225.10837,117.54418c-2.06872,-20.83118 11.32871,-39.36536 29.924,-41.39725c18.59529,-2.03189 35.34678,13.20795 37.41549,34.03913c2.06872,20.83118 -11.32872,39.36536 -29.92401,41.39725c-18.59529,2.03189 -35.34677,-13.20795 -37.41548,-34.03913z" stroke-width="0.26459"/><path d="M352.13918,92.572c-2.06991,-20.84318 9.28688,-39.16421 25.36609,-40.92117c16.07921,-1.75696 30.79197,13.71547 32.86188,34.55866c2.06991,20.84318 -9.28688,39.1642 -25.36609,40.92116c-16.07921,1.75696 -30.79197,-13.71547 -32.86188,-34.55865z" stroke-width="0.24611"/></g><g stroke="#000000" stroke-width="0" stroke-linecap="round" stroke-linejoin="bevel"><path d="M289.5992,92.73344c0,0 -0.50178,0.30092 -1.00914,1.03668c-4.44587,6.44718 -7.02192,9.50797 -19.32093,8.4125c0,0 -10.44483,-11.67189 1.11703,-23.22161c8.52374,5.7428 12.75072,8.85602 19.21305,13.77243z" fill="#aa4400"/><path d="M283.93975,79.58659c1.56129,1.52742 7.10123,4.35067 7.64228,8.034c0.39961,2.72049 -0.68044,7.09488 -3.67964,7.44304c-2.43771,0.94109 -5.26965,-2.46723 -9.52776,-6.59038c-0.79222,-0.76711 -9.07582,-3.17504 -9.88879,-6.30291c-0.72609,-2.79363 0.40182,-6.22448 5.04781,-6.78228c3.31631,-0.39816 8.10958,1.95181 10.4061,4.19852z" fill="#803300"/><path d="M286.11197,76.6875c0.91798,-0.04299 3.9807,2.1303 4.17188,2.92553c0.1377,0.57276 -0.60451,1.30457 -1.18511,1.2189c-0.55883,-0.08246 -1.3338,-1.88675 -2.5992,-1.76377c-0.95177,0.09251 -3.01946,3.97507 -3.77384,3.94168c-0.64465,-0.02854 -1.37346,-0.48769 -1.1073,-0.96364c0.49047,-0.87705 3.21722,-5.29893 4.49357,-5.35871z" fill="#aa4400"/></g><g stroke="#000000" stroke-width="0" stroke-linecap="round" stroke-linejoin="bevel"><path d="M374.49738,71.17575c0,0 -0.47335,0.3439 -0.91401,1.12145c-3.86137,6.81334 -6.15814,10.08891 -18.50584,10.07981c0,0 -11.43126,-10.70765 -0.93043,-23.22984c8.99596,4.97057 13.48046,7.69981 20.35029,12.02858z" fill="#aa4400"/><path d="M367.70317,58.57782c1.68962,1.38413 7.45649,3.709 8.3195,7.33044c0.63742,2.67478 -0.05357,7.12723 -3.0105,7.73793c-2.34545,1.15192 -5.4663,-1.99401 -10.07066,-5.72653c-0.85664,-0.69443 -9.31998,-2.3642 -10.40499,-5.40841c-0.96907,-2.7189 -0.14739,-6.23569 4.4315,-7.2001c3.26841,-0.68839 8.24986,1.23072 10.73515,3.26667z" fill="#803300"/><path d="M369.61189,55.49885c0.91063,-0.12359 4.15269,1.7718 4.41309,2.54713c0.18756,0.55843 -0.48738,1.3527 -1.07326,1.31845c-0.56391,-0.03297 -1.49464,-1.76207 -2.7443,-1.52824c-0.93995,0.17589 -2.65801,4.22533 -3.4124,4.25843c-0.64465,0.02829 -1.41104,-0.36496 -1.18779,-0.86248c0.4114,-0.91679 2.73852,-5.56144 4.00466,-5.73328z" fill="#aa4400"/></g><g stroke="#000000" stroke-width="0" stroke-linecap="round" stroke-linejoin="bevel"><path d="M270.90454,142.57441c0,0 0.05534,0.58246 0.50067,1.35735c3.90223,6.79002 5.55426,10.43355 -0.73391,21.06015c0,0 -15.03338,4.39602 -20.47387,-11.01416c8.85516,-5.21727 13.48593,-7.69022 20.70712,-11.40335z" fill="#aa4400"/><path d="M256.60217,142.01655c2.0511,-0.75074 6.98596,-4.53347 10.54292,-3.43456c2.62716,0.81165 6.10922,3.6712 5.13106,6.5277c-0.20116,2.6053 -4.49711,3.69222 -10.05266,5.75808c-1.0336,0.38435 -6.77591,6.82191 -9.94881,6.20773c-2.83383,-0.54854 -5.44383,-3.04472 -3.94524,-7.47761c1.06969,-3.1642 5.25571,-6.47706 8.27272,-7.58134z" fill="#803300"/><path d="M254.92203,138.80712c0.35676,-0.8469 3.63766,-2.67424 4.43765,-2.50409c0.5762,0.12254 0.91677,1.10764 0.58929,1.59466c-0.3152,0.46875 -2.27733,0.39064 -2.71161,1.58551c-0.32664,0.89875 2.28603,4.43762 1.93083,5.10398c-0.30353,0.56943 -1.03192,1.02926 -1.34672,0.584c-0.5801,-0.82051 -3.39546,-5.18652 -2.89942,-6.36405z" fill="#aa4400"/></g><g stroke="#000000" stroke-width="0" stroke-linecap="round" stroke-linejoin="bevel"><path d="M319.45785,163.28003c0,0 -0.06921,0.58098 0.202,1.43257c2.37647,7.46218 3.21979,11.37285 -5.17534,20.42754c0,0 -15.62326,1.1141 -17.6784,-15.09852c9.75889,-3.22456 14.8082,-4.66121 22.65175,-6.7616z" fill="#aa4400"/><path d="M305.59767,159.70725c2.16354,-0.29955 7.7873,-2.95193 11.03104,-1.12498c2.39581,1.34938 5.19365,4.88122 3.63298,7.46593c-0.7481,2.50368 -5.17678,2.65659 -11.04374,3.49962c-1.09154,0.15685 -8.06644,5.23297 -11.03742,3.96107c-2.65349,-1.13598 -4.67595,-4.12809 -2.27296,-8.14329c1.71525,-2.86606 6.50769,-5.21774 9.69008,-5.65835z" fill="#803300"/><path d="M304.635,156.2149c0.52795,-0.75219 4.12131,-1.84361 4.86716,-1.50797c0.5372,0.24173 0.66153,1.2766 0.23837,1.68326c-0.40728,0.39141 -2.30841,-0.10028 -2.98579,0.97558c-0.50949,0.80924 1.29486,4.82097 0.80665,5.39704c-0.41719,0.49227 -1.22641,0.7875 -1.43982,0.28569c-0.39327,-0.92471 -2.22062,-5.78774 -1.48656,-6.83359z" fill="#aa4400"/></g><g stroke="#000000" stroke-width="0" stroke-linecap="round" stroke-linejoin="bevel"><path d="M367.49738,140.17575c0,0 -0.47335,0.3439 -0.91401,1.12145c-3.86137,6.81334 -6.15814,10.08891 -18.50584,10.07981c0,0 -11.43126,-10.70765 -0.93043,-23.22984c8.99596,4.97057 13.48046,7.69981 20.35029,12.02858z" fill="#aa4400"/><path d="M360.70317,127.57782c1.68962,1.38413 7.45649,3.709 8.3195,7.33044c0.63742,2.67478 -0.05357,7.12723 -3.0105,7.73793c-2.34545,1.15192 -5.4663,-1.99401 -10.07066,-5.72653c-0.85664,-0.69443 -9.31998,-2.3642 -10.40499,-5.40841c-0.96907,-2.7189 -0.14739,-6.23569 4.4315,-7.2001c3.26841,-0.68839 8.24986,1.23072 10.73515,3.26667z" fill="#803300"/><path d="M362.61189,124.49885c0.91063,-0.12359 4.15269,1.7718 4.41309,2.54713c0.18756,0.55843 -0.48738,1.3527 -1.07326,1.31845c-0.56391,-0.03297 -1.49464,-1.76207 -2.7443,-1.52824c-0.93995,0.17589 -2.65801,4.22533 -3.4124,4.25843c-0.64465,0.02829 -1.41104,-0.36496 -1.18779,-0.86248c0.4114,-0.91679 2.73852,-5.56144 4.00466,-5.73328z" fill="#aa4400"/></g><g stroke="#000000" stroke-width="0" stroke-linecap="round" stroke-linejoin="bevel"><path d="M375.5992,188.23344c0,0 -0.50178,0.30092 -1.00914,1.03668c-4.44587,6.44718 -7.02192,9.50797 -19.32093,8.4125c0,0 -10.44483,-11.67189 1.11703,-23.22161c8.52374,5.7428 12.75072,8.85602 19.21305,13.77243z" fill="#aa4400"/><path d="M369.93975,175.08659c1.56129,1.52742 7.10123,4.35067 7.64228,8.034c0.39961,2.72049 -0.68044,7.09488 -3.67964,7.44304c-2.43771,0.94109 -5.26965,-2.46723 -9.52776,-6.59038c-0.79222,-0.76711 -9.07582,-3.17504 -9.88879,-6.30291c-0.72609,-2.79363 0.40182,-6.22448 5.04781,-6.78228c3.31631,-0.39816 8.10958,1.95181 10.4061,4.19852z" fill="#803300"/><path d="M372.11197,172.1875c0.91798,-0.04299 3.9807,2.1303 4.17188,2.92553c0.1377,0.57276 -0.60451,1.30457 -1.18511,1.2189c-0.55883,-0.08246 -1.3338,-1.88675 -2.5992,-1.76377c-0.95177,0.09251 -3.01946,3.97507 -3.77384,3.94168c-0.64465,-0.02854 -1.37346,-0.48769 -1.1073,-0.96364c0.49047,-0.87705 3.21722,-5.29893 4.49357,-5.35871z" fill="#aa4400"/></g><g stroke="#000000" stroke-width="0" stroke-linecap="round" stroke-linejoin="bevel"><path d="M325.40454,99.57441c0,0 0.05534,0.58246 0.50067,1.35735c3.90223,6.79002 5.55426,10.43355 -0.73391,21.06015c0,0 -15.03338,4.39602 -20.47387,-11.01416c8.85516,-5.21727 13.48593,-7.69022 20.70712,-11.40335z" fill="#aa4400"/><path d="M311.10217,99.01655c2.0511,-0.75074 6.98596,-4.53347 10.54292,-3.43456c2.62716,0.81165 6.10922,3.6712 5.13106,6.5277c-0.20116,2.6053 -4.49711,3.69222 -10.05266,5.75808c-1.0336,0.38435 -6.77591,6.82191 -9.94881,6.20773c-2.83383,-0.54854 -5.44383,-3.04472 -3.94524,-7.47761c1.06969,-3.1642 5.25571,-6.47706 8.27272,-7.58134z" fill="#803300"/><path d="M309.42202,95.80712c0.35676,-0.8469 3.63766,-2.67424 4.43765,-2.50409c0.5762,0.12254 0.91677,1.10764 0.58929,1.59466c-0.3152,0.46875 -2.27733,0.39064 -2.71161,1.58551c-0.32664,0.89875 2.28603,4.43762 1.93083,5.10398c-0.30353,0.56943 -1.03192,1.02926 -1.34672,0.584c-0.5801,-0.82051 -3.39546,-5.18652 -2.89942,-6.36405z" fill="#aa4400"/></g></g></g></svg>