<svg version="1.1" xmlns="http://www.w3.org/2000/svg" xmlns:xlink="http://www.w3.org/1999/xlink" width="226.99874" height="173.89525" viewBox="0,0,226.99874,173.89525"><g transform="translate(-205.7527,-92.49142)"><g data-paper-data="{&quot;isPaintingLayer&quot;:true}" fill-rule="nonzero" stroke="#ffffff" stroke-linejoin="miter" stroke-miterlimit="10" stroke-dasharray="" stroke-dashoffset="0" style="mix-blend-mode: normal"><path d="M247.486,155.95911c-6.01012,-11.9846 -2.45166,-14.92054 19.45924,-27.62773c6.0855,-3.52927 28.14639,-13.70086 28.3946,-3.65353c0.58141,23.53377 0,91.35063 0,91.35063c0,0 11.28595,-1.01763 16.28222,1.2558c6.96195,3.16786 5.34053,20.69178 -1.38995,21.34871c-19.53293,1.90649 -33.77329,0.53607 -58.17914,0.41858c-7.29142,-0.0351 -7.54172,-19.53216 -0.99282,-22.39519c5.09412,-2.22702 18.26785,-0.83721 18.26785,-0.83721l-0.19856,-58.18569c0,0 -17.48164,6.62449 -21.64344,-1.6744z" fill="#fc7b7b" stroke-width="7.5" stroke-linecap="round"/><path d="M205.7527,266.38667v-173.89525h226.99874v173.89525z" fill="none" stroke-width="0" stroke-linecap="butt"/><path d="M386.36763,125.9278c11.41113,5.27467 19.83562,19.08126 20.34221,32.61646c0.9149,24.44418 -22.35019,52.00749 -35.94707,72.44888c-5.21839,7.84524 -23.09191,8.88959 -27.5869,0.57774c-6.9006,-12.76016 22.84957,-36.94687 22.84957,-36.94687c0,0 -26.26489,-0.61297 -32.2231,-9.57449c-9.22154,-13.86973 -7.68942,-38.84331 3.52171,-51.03968c7.13423,-7.76118 18.6037,-11.70824 29.89288,-11.87049c6.77351,-0.09737 13.482,1.16818 19.15071,3.78845zM352.9289,162.15173c-0.00035,6.93451 5.48884,12.5563 12.26041,12.55658c6.77195,0.00029 12.26174,-5.62168 12.26139,-12.55658c-0.00019,-6.9345 -5.48984,-12.55586 -12.26139,-12.55557c-6.77117,0.00029 -12.26022,5.62146 -12.26041,12.55557z" fill="#fc7b7b" stroke-width="7.5" stroke-linecap="butt"/></g></g></svg>