<svg version="1.1" xmlns="http://www.w3.org/2000/svg" xmlns:xlink="http://www.w3.org/1999/xlink" width="186.85647" height="148.66016" viewBox="0,0,186.85647,148.66016"><g transform="translate(-225.30206,-53.79503)"><g data-paper-data="{&quot;isPaintingLayer&quot;:true}" fill-rule="nonzero" stroke-linecap="butt" stroke-linejoin="miter" stroke-miterlimit="10" stroke-dasharray="" stroke-dashoffset="0" style="mix-blend-mode: normal"><g><path d="M244.02864,122.94291c-0.16281,1.51111 -5.89419,-1.15598 -5.36772,-1.82804c3.98519,-5.08731 10.02115,-29.08558 5.27283,-38.30344c-0.97284,-1.88856 3.51931,-1.69099 3.61923,-1.41264c4.06182,11.31526 -3.34934,39.91991 -3.52434,41.54413z" fill="#82d22d" stroke="#82d22d" stroke-width="0.29531"/><path d="M238.36719,57.53482c2.92674,-4.13957 12.97832,-4.93948 15.92184,-0.81029c3.91968,5.49856 -9.26361,17.82624 -9.26361,17.82624c0,0 -10.2218,-11.97565 -6.65822,-17.01596z" fill="#ff8fc1" stroke="#ff9ac8" stroke-width="0.40929"/><path d="M246.62907,73.44012c0,0 18.50845,2.50738 18.668,9.44083c0.11982,5.20674 -8.67821,10.50088 -13.65396,8.76876c-6.05844,-2.10902 -5.01404,-18.20959 -5.01404,-18.20959z" fill="#ff8fc1" stroke="#ff8fc1" stroke-width="0.42118"/><path d="M238.36719,57.53482c2.92674,-4.13957 12.97832,-4.93948 15.92184,-0.81029c3.91968,5.49856 -9.26361,17.82624 -9.26361,17.82624c0,0 -10.2218,-11.97565 -6.65822,-17.01596z" fill="#ff8fc1" stroke="#ff8fc1" stroke-width="0.40929"/><path d="M242.77385,91.89921c-5.18911,1.78043 -14.36443,-3.66136 -14.23946,-9.01332c0.1664,-7.12683 19.46851,-9.70414 19.46851,-9.70414c0,0 1.08918,16.54962 -5.22905,18.71746z" fill="#ff8fc1" stroke="#ff8fc1" stroke-width="0.43607"/><path d="M246.56305,74.07012c0,0 6.6067,-16.58878 13.33227,-15.19009c5.05064,1.05036 8.16791,10.38261 5.37097,14.60628c-3.40553,5.14271 -18.70324,0.5838 -18.70324,0.5838z" fill="#ff8fc1" stroke="#ff8fc1" stroke-width="0.40929"/><path d="M226.55889,73.88208c-2.79694,-4.22368 0.32033,-13.55592 5.37097,-14.60628c6.72557,-1.39869 13.33227,15.19009 13.33227,15.19009c0,0 -15.29771,4.55891 -18.70324,-0.5838z" fill="#ff8fc1" stroke="#ff8fc1" stroke-width="0.40929"/><path d="M239.40934,74.7227c0,-3.75556 3.06245,-6.80004 6.84016,-6.80004c3.77772,0 6.84016,3.04448 6.84016,6.80004c0,3.75556 -3.06245,6.80004 -6.84016,6.80004c-3.77772,0 -6.84016,-3.04448 -6.84016,-6.80004z" fill="#ffed4c" stroke="#fff04c" stroke-width="0.38459"/><path d="M259.3262,101.04422c0,0 -4.93787,9.65686 -9.28525,8.4741c-3.2647,-0.88822 -4.95707,-6.66667 -2.97061,-9.069c2.41869,-2.92505 12.25586,0.5949 12.25586,0.5949z" fill="#82d22d" stroke="#82d22d" stroke-width="0.25751"/></g><g><path d="M393.73959,171.33454c-1.52713,-1.8786 -1.56252,-4.34312 -0.07905,-5.50466c1.48347,-1.16154 3.92405,-0.58024 5.45118,1.29836c1.52713,1.8786 1.56252,4.34312 0.07905,5.50466c-1.48347,1.16154 -3.92405,0.58024 -5.45118,-1.29836z" fill="#82d22d" stroke="#82d22d" stroke-width="0.29894"/><path d="M387.73141,173.02169c-1.48347,-1.16154 -1.44809,-3.62605 0.07905,-5.50466c1.52713,-1.8786 3.96771,-2.45989 5.45118,-1.29836c1.48347,1.16154 1.44809,3.62605 -0.07905,5.50466c-1.52713,1.8786 -3.96771,2.45989 -5.45118,1.29836z" fill="#82d22d" stroke="#82d22d" stroke-width="0.29894"/><path d="M395.65625,201.70638c0.07332,1.51809 -6.00212,-0.22867 -5.58615,-0.9742c3.14874,-5.64339 5.39311,-30.28711 -0.72622,-38.65784c-1.25373,-1.715 3.21477,-2.21591 3.35662,-1.9564c5.76613,10.54918 2.87696,39.95673 2.95576,41.58844z" fill="#82d22d" stroke="#82d22d" stroke-width="0.29531"/><path d="M384.65832,146.10011c0,-6.07593 4.2017,-11.00145 9.38476,-11.00145c5.18306,0 9.38476,4.92552 9.38476,11.00145c0,6.07593 -4.2017,11.00145 -9.38476,11.00145c-5.18306,0 -9.38476,-4.92552 -9.38476,-11.00145z" fill-opacity="0.95294" fill="#e62eff" stroke-opacity="0.95294" stroke="#b783d3" stroke-width="0.31445"/><path d="M395.27332,150.95457c3.6897,4.15464 0.8748,14.33171 -2.28513,16.55735c-15.85908,11.17013 -31.3063,-47.93085 2.28513,-16.55735z" fill-opacity="0.95294" fill="#e65dff" stroke-opacity="0.95294" stroke="#e55eff" stroke-width="0.36502"/><path d="M394.25928,167.51192c-3.15993,-2.22565 -5.97483,-12.40271 -2.28513,-16.55735c33.59144,-31.3735 18.14422,27.72748 2.28513,16.55735z" fill-opacity="0.95294" fill="#e55eff" stroke-opacity="0.95294" stroke="#e65dff" stroke-width="0.36502"/></g></g></g></svg>