<svg version="1.1" xmlns="http://www.w3.org/2000/svg" xmlns:xlink="http://www.w3.org/1999/xlink" width="224.0545" height="342.00234" viewBox="0,0,224.0545,342.00234"><g transform="translate(-276.68925,-156.74947)"><g data-paper-data="{&quot;isPaintingLayer&quot;:true}" fill-rule="nonzero" stroke-width="0" stroke-linecap="round" stroke-linejoin="bevel" stroke-miterlimit="10" stroke-dasharray="" stroke-dashoffset="0" style="mix-blend-mode: normal"><path d="M323.84103,478.25434h1.654" fill="#000000" stroke="none"/><path d="M500.74375,498.75181l-4.67824,-22.61149" fill="#000000" stroke="none"/><path d="M359.22701,496.02284l-13.64486,-5.06809" fill="#000000" stroke="none"/><path d="M345.30381,160.25721l12.32345,-0.53161l-7.38592,10.02095" data-paper-data="{&quot;index&quot;:null}" fill="#f79e00" stroke="#dacc2e"/><path d="M347.7215,163.06033c7.64044,9.98795 10.70586,33.2889 -2.43014,42.20635c-13.136,8.91747 -42.47241,3.45075 -52.51945,0.31875c-10.04704,-3.132 -0.80416,-3.92919 0.6429,-4.64907c1.44706,-0.71986 -4.9017,-1.36246 -1.59102,-3.28169c3.31069,-1.91924 16.28077,-5.11512 21.86191,-11.64981c5.58114,-6.5347 3.77326,-16.40822 8.97689,-23.00768c5.20361,-6.59946 17.41847,-9.9248 25.05891,0.06315z" data-paper-data="{&quot;index&quot;:null}" fill="#008000" stroke="#dacc2e"/><path d="M277.29359,192.30123c1.03615,-2.54179 5.99717,-2.92239 11.08079,-0.8501c5.08359,2.07229 8.36469,5.81277 7.32855,8.35456c-1.03615,2.54179 -5.99717,2.92241 -11.08079,0.85012c-5.08359,-2.07229 -8.36469,-5.8128 -7.32855,-8.35458z" data-paper-data="{&quot;index&quot;:null}" fill="#800080" stroke="#dacc2e"/><path d="M277.03052,210.78247c-1.3507,-2.38957 1.42857,-6.51659 6.20769,-9.21798c4.77911,-2.70139 9.74832,-2.95422 11.09901,-0.56465c1.3507,2.38954 -1.42857,6.51659 -6.20769,9.21798c-4.77911,2.70141 -9.74832,2.95422 -11.09901,0.56465z" data-paper-data="{&quot;index&quot;:null}" fill="#800080" stroke="#dacc2e"/><path d="M331.43927,209.63268c0,0.90692 0,3.6277 0,5.44156c0,1.81386 0,4.53466 0,5.44158h-1.36041c0,-0.90692 0,-3.62772 0,-5.44158c0,-1.81386 0,-4.53462 0,-5.44156z" data-paper-data="{&quot;index&quot;:null}" fill="#f79e00" stroke="#dacc2e"/><path d="M331.43237,220.07536c0.04915,0.06418 0.15451,0.19761 0.31198,0.34559c0.08309,0.07803 0.20133,0.18003 0.36607,0.29398c0.23399,0.162 0.48653,0.29872 0.84458,0.47556c0.32383,0.16002 0.65979,0.31804 0.9988,0.51647c0.49816,0.29154 0.81919,0.56687 1.04678,0.79446l-0.96194,0.96194c-0.1547,-0.15475 -0.38487,-0.35572 -0.77202,-0.58232c-0.28551,-0.16706 -0.56069,-0.29626 -0.91408,-0.47081c-0.37583,-0.18552 -0.69935,-0.3573 -1.01634,-0.5767c-0.22843,-0.15804 -0.3988,-0.30415 -0.52313,-0.42089c-0.23355,-0.21937 -0.3899,-0.4174 -0.46169,-0.51135z" data-paper-data="{&quot;index&quot;:null}" fill="#f79e00" stroke="#dacc2e"/><path d="M331.59868,220.3321c0.00615,0.12002 0.00725,0.29521 -0.01539,0.54568c-0.01583,0.17519 -0.04137,0.36702 -0.07621,0.57593c-0.03172,0.19014 -0.06904,0.38199 -0.10795,0.56648c-0.03902,0.18508 -0.08432,0.38515 -0.13795,0.60864c-0.08992,0.37478 -0.1797,0.71771 -0.24834,0.99071c-0.03682,0.14639 -0.06117,0.24782 -0.0774,0.32266c-0.00945,0.04352 -0.01429,0.06968 -0.01671,0.08419c-0.00132,0.00879 -0.00156,0.01099 -0.00121,0.00659c0.00035,-0.0044 0.00178,-0.01758 0.00178,-0.03935h-1.36039c0,-0.03737 0.00242,-0.07276 0.00593,-0.10573c0.00286,-0.0266 0.00659,-0.05341 0.01099,-0.08089c0.00747,-0.0455 0.01737,-0.09628 0.02983,-0.15387c0.0211,-0.09782 0.05005,-0.21695 0.08757,-0.36618c0.07293,-0.29011 0.15708,-0.61068 0.24487,-0.97649c0.05122,-0.21344 0.09366,-0.40111 0.12967,-0.57184c0.03603,-0.17079 0.06944,-0.34306 0.0972,-0.50959c0.03051,-0.1831 0.05106,-0.34027 0.0632,-0.47462c0.01693,-0.18728 0.01451,-0.29833 0.01165,-0.35365z" data-paper-data="{&quot;index&quot;:null}" fill="#f79e00" stroke="#dacc2e"/><path d="M331.35335,220.74251c-0.1848,0.24043 -0.43639,0.5896 -0.76573,1.13763c-0.25722,0.42799 -0.36183,0.6287 -0.71964,1.25857c-0.23731,0.41775 -0.48046,0.82979 -0.75844,1.2329c-0.39091,0.56689 -0.73514,0.9451 -0.98878,1.19872l-0.96194,-0.96194c0.20555,-0.20552 0.49422,-0.52097 0.83078,-1.00904c0.24403,-0.35385 0.46411,-0.72516 0.69553,-1.13255c0.34629,-0.6096 0.4678,-0.84036 0.73648,-1.28743c0.35812,-0.59584 0.63936,-0.98774 0.85315,-1.26589z" data-paper-data="{&quot;index&quot;:null}" fill="#f79e00" stroke="#dacc2e"/><path d="M318.96061,209.07021c-0.22219,1.40374 -0.41815,3.2467 -0.46237,6.12121c-0.0222,1.45005 -0.0022,3.16209 0.0044,3.89978c0.01099,1.23846 0.01319,1.76807 0.01319,2.34294h-1.36041c0,-0.56903 -0.0022,-1.09404 -0.01319,-2.33081c-0.00659,-0.73032 -0.02594,-2.46224 -0.0022,-3.93284c0.04506,-2.93287 0.24584,-4.84026 0.47895,-6.31295z" data-paper-data="{&quot;index&quot;:null}" fill="#f79e00" stroke="#dacc2e"/><path d="M318.22974,220.90062c0.22139,0.17519 0.50381,0.44617 0.78734,0.88856c0.06748,0.10551 0.12903,0.21102 0.1853,0.31415c0.10045,0.1842 0.19409,0.37882 0.29668,0.60984c0.12551,0.28252 0.24188,0.56599 0.3415,0.77033c0.05605,0.11496 0.10309,0.19959 0.1453,0.26549c0.05693,0.08902 0.0976,0.13277 0.11672,0.15167l-0.96194,0.96194c-0.08617,-0.08617 -0.18948,-0.2064 -0.30121,-0.38137c-0.07759,-0.12156 -0.14991,-0.25423 -0.22166,-0.40164c-0.12331,-0.25298 -0.25256,-0.56793 -0.36198,-0.81438c-0.09298,-0.20926 -0.17013,-0.36851 -0.24764,-0.51051c-0.04352,-0.07957 -0.0888,-0.15695 -0.1365,-0.23151c-0.19277,-0.30083 -0.36825,-0.46259 -0.48583,-0.55557z" data-paper-data="{&quot;index&quot;:null}" fill="#f79e00" stroke="#dacc2e"/><path d="M318.05693,221.97317c-0.25955,0.22748 -0.60973,0.57151 -1.0112,1.12253c-0.23082,0.31681 -0.43824,0.64532 -0.63075,0.96306c-0.06067,0.10023 -0.12221,0.20311 -0.19036,0.31772c-0.24643,0.41481 -0.53845,0.91661 -0.85654,1.38732c-0.44569,0.65954 -0.82798,1.08864 -1.13304,1.39367l-0.96194,-0.96194c0.24929,-0.24929 0.57492,-0.61202 0.96783,-1.19344c0.29121,-0.4309 0.55735,-0.88823 0.81414,-1.32045c0.06902,-0.11628 0.13277,-0.22276 0.19629,-0.32778c0.20003,-0.33024 0.43054,-0.6966 0.69474,-1.05923c0.46938,-0.64424 0.89087,-1.06125 1.21402,-1.3445z" data-paper-data="{&quot;index&quot;:null}" fill="#f79e00" stroke="#dacc2e"/><path d="M318.28878,221.32886c0,0.52904 0,2.11617 0,3.17425c0,1.05808 0,2.64521 0,3.17425h-1.36041c0,-0.52904 0,-2.11617 0,-3.17425c0,-1.05808 0,-2.64521 0,-3.17425z" data-paper-data="{&quot;index&quot;:null}" fill="#f79e00" stroke="#dacc2e"/><path d="M337.5083,172.35955c-3.94444,0 -7.14206,-2.99458 -7.14206,-6.68859c0,-3.69401 3.19761,-6.68861 7.14206,-6.68861c3.94444,0 7.14206,2.9946 7.14206,6.68861c0,3.69401 -3.19761,6.68859 -7.14206,6.68859z" data-paper-data="{&quot;index&quot;:null}" fill="#ffffff" stroke="#dacc2e"/><path d="M342.02799,168.69207c-1.7648,1.69514 -5.22225,1.69516 -6.91497,-0.03855c-1.69272,-1.73372 -1.62069,-5.201 0.14411,-6.89616c1.7648,-1.69516 5.22223,-1.6181 6.91497,0.11558c1.69272,1.73367 1.62069,5.12397 -0.14411,6.81914z" data-paper-data="{&quot;index&quot;:null}" fill="#000000" stroke="#dacc2e"/><path d="M333.48413,161.19598l2.30283,3.92326l-3.71529,-1.2464" data-paper-data="{&quot;index&quot;:null}" fill="#f9f9f9" stroke="#dacc2e"/><path d="M338.43307,187.47763c6.62671,1.54982 6.73361,9.03158 -0.37423,13.09314c-7.10784,4.06154 -21.42983,4.70282 -28.05654,3.15299c-6.62669,-1.54982 -5.5579,-5.29066 1.54993,-9.35224c7.10781,-4.06158 20.25412,-8.44369 26.88084,-6.89389z" data-paper-data="{&quot;index&quot;:null}" fill="#800080" stroke="#dacc2e"/></g></g></svg>