<svg version="1.1" xmlns="http://www.w3.org/2000/svg" xmlns:xlink="http://www.w3.org/1999/xlink" width="192.72443" height="289.37229" viewBox="0,0,192.72443,289.37229"><g transform="translate(-223.64863,-35.31385)"><g data-paper-data="{&quot;isPaintingLayer&quot;:true}" fill-rule="nonzero" stroke-miterlimit="10" stroke-dasharray="" stroke-dashoffset="0" style="mix-blend-mode: normal"><g fill="#c87137" stroke="#c87137" stroke-width="0.26459" stroke-linecap="butt" stroke-linejoin="miter"><path d="M318.64678,204.8005l0.75082,-2.41349l-0.25028,118.74431c0,0 10.7617,2.8962 -10.76169,3.3789c-21.52339,0.4827 -0.50054,-0.96539 0,-118.74431z"/><path d="M328.28809,205.67772c0.50054,117.77892 21.52339,119.22701 0,118.74431c-21.52339,-0.4827 -10.7617,-3.3789 -10.7617,-3.3789l-0.25027,-118.74431l0.75081,2.41349z"/></g><g fill="#4eb632" stroke="#4eb632" stroke-linecap="butt" stroke-linejoin="miter"><path d="M354.46145,152.59693c-15.23764,-17.94434 -16.52464,-42.25661 -2.87456,-54.30299c13.65008,-12.04638 37.06821,-7.26513 52.30586,10.6792c15.23764,17.94434 16.52463,42.25661 2.87455,54.30299c-13.65008,12.04638 -37.0682,7.26513 -52.30585,-10.6792z" stroke-width="0.30795"/><path d="M326.40191,217.59768c-12.90559,-11.96028 -13.63727,-33.20853 -1.63424,-47.45931c12.00303,-14.25078 32.19546,-16.10761 45.10105,-4.14733c12.90559,11.96028 13.63727,33.20854 1.63424,47.45932c-12.00303,14.25078 -32.19546,16.1076 -45.10105,4.14732z" stroke-width="0.30123"/><path d="M252.86706,190.76599c-2.06872,-20.83118 11.32872,-39.36536 29.92401,-41.39725c18.59529,-2.03189 35.34677,13.20795 37.41548,34.03913c2.06872,20.83118 -11.32872,39.36536 -29.92401,41.39725c-18.59529,2.03189 -35.34677,-13.20795 -37.41548,-34.03913z" stroke-width="0.26459"/><path d="M340.82016,176.64946c-1.81645,-18.29096 12.45671,-34.83922 31.87998,-36.96159c19.42327,-2.12236 36.64147,10.98487 38.45791,29.27583c1.81645,18.29096 -12.45671,34.83922 -31.87998,36.96159c-19.42327,2.12236 -36.64147,-10.98487 -38.45791,-29.27583z" stroke-width="0.3853"/><path d="M284.24849,154.06211c-1.54213,-15.5287 7.89156,-29.28462 21.07075,-30.72469c13.17919,-1.44007 25.11318,9.981 26.65531,25.5097c1.54213,15.5287 -7.89156,29.28462 -21.07075,30.72469c-13.17919,1.44007 -25.11318,-9.981 -26.65531,-25.5097z" stroke-width="0.26459"/><path d="M284.39148,148.84725c-2.35082,-23.6718 12.13513,-44.65268 32.35525,-46.86212c20.22012,-2.20943 38.51747,15.18924 40.86829,38.86105c2.35082,23.6718 -12.13513,44.65269 -32.35526,46.86213c-20.22012,2.20943 -38.51746,-15.18925 -40.86828,-38.86105z" stroke-width="0.26459"/><path d="M234.62228,133.48868c-2.35082,-23.6718 12.13513,-44.65268 32.35526,-46.86212c20.22012,-2.20943 38.51746,15.18924 40.86828,38.86105c2.35082,23.6718 -12.13513,44.65268 -32.35525,46.86212c-20.22012,2.20943 -38.51747,-15.18924 -40.86829,-38.86105z" stroke-width="0.26459"/><path d="M257.09592,93.59874c-2.35082,-23.6718 12.13513,-44.65268 32.35525,-46.86212c20.22012,-2.20943 38.51747,15.18924 40.86829,38.86105c2.35082,23.6718 -12.13513,44.65268 -32.35526,46.86212c-20.22012,2.20943 -38.51746,-15.18924 -40.86828,-38.86105z" stroke-width="0.26459"/><path d="M301.59391,82.49745c-2.35082,-23.6718 12.13513,-44.65269 32.35525,-46.86213c20.22012,-2.20943 38.51747,15.18925 40.86829,38.86105c2.35082,23.6718 -12.13513,44.65268 -32.35525,46.86212c-20.22012,2.20943 -38.51747,-15.18924 -40.86829,-38.86105z" stroke-width="0.26459"/><path d="M223.99163,166.1921c-2.06872,-20.83118 11.32871,-39.36537 29.924,-41.39726c18.59529,-2.03189 35.34678,13.20795 37.41549,34.03913c2.06872,20.83118 -11.32872,39.36537 -29.92401,41.39726c-18.59529,2.03189 -35.34677,-13.20795 -37.41548,-34.03913z" stroke-width="0.26459"/><path d="M225.10836,117.54418c-2.06872,-20.83118 11.32871,-39.36536 29.924,-41.39725c18.59529,-2.03189 35.34678,13.20795 37.41549,34.03913c2.06872,20.83118 -11.32872,39.36536 -29.92401,41.39725c-18.59529,2.03189 -35.34677,-13.20795 -37.41548,-34.03913z" stroke-width="0.26459"/><path d="M352.13917,92.572c-2.06991,-20.84318 9.28688,-39.16421 25.36609,-40.92117c16.07921,-1.75696 30.79197,13.71547 32.86188,34.55866c2.06991,20.84318 -9.28688,39.1642 -25.36609,40.92116c-16.07921,1.75696 -30.79197,-13.71547 -32.86188,-34.55865z" stroke-width="0.24611"/></g><g stroke="#000000" stroke-width="0" stroke-linecap="round" stroke-linejoin="bevel"><path d="M287.5086,96.41203c0,0 0.01431,0.58492 0.40414,1.38915c3.41589,7.04724 4.80806,10.79775 -2.21065,20.95666c0,0 -15.30491,3.32974 -19.65009,-12.42437c9.1996,-4.58271 13.99256,-6.72445 21.45661,-9.92145z" fill="#aa4400"/><path d="M273.28068,94.85143c2.09875,-0.60489 7.28699,-4.03182 10.75804,-2.68591c2.5637,0.99409 5.83641,4.09105 4.66011,6.87183c-0.38358,2.58475 -4.74523,3.36738 -10.4321,5.03811c-1.05804,0.31084 -7.23813,6.32936 -10.36008,5.49395c-2.78834,-0.74614 -5.21664,-3.4194 -3.41053,-7.73615c1.2892,-3.0813 5.69748,-6.09209 8.78456,-6.98183z" fill="#803300"/><path d="M271.83001,91.53197c0.41534,-0.81977 3.81643,-2.41226 4.60251,-2.18637c0.56617,0.16269 0.83674,1.16928 0.47587,1.6321c-0.34734,0.44547 -2.29914,0.22978 -2.81624,1.39123c-0.38893,0.87359 1.96884,4.58716 1.56774,5.22694c-0.34276,0.54672 -1.10163,0.95428 -1.3844,0.48801c-0.52107,-0.85922 -3.02296,-5.4121 -2.44548,-6.55191z" fill="#aa4400"/></g><g stroke="#000000" stroke-width="0" stroke-linecap="round" stroke-linejoin="bevel"><path d="M373.99737,169.67575c0,0 -0.47335,0.3439 -0.91401,1.12145c-3.86137,6.81334 -6.15814,10.08891 -18.50584,10.07981c0,0 -11.43126,-10.70765 -0.93043,-23.22984c8.99596,4.97057 13.48046,7.69981 20.35029,12.02858z" fill="#aa4400"/><path d="M367.20316,157.07782c1.68962,1.38413 7.45649,3.709 8.3195,7.33044c0.63742,2.67478 -0.05357,7.12723 -3.0105,7.73793c-2.34545,1.15192 -5.4663,-1.99401 -10.07066,-5.72653c-0.85664,-0.69443 -9.31998,-2.3642 -10.40499,-5.40841c-0.96907,-2.7189 -0.14739,-6.23569 4.4315,-7.2001c3.26841,-0.68839 8.24986,1.23072 10.73515,3.26667z" fill="#803300"/><path d="M369.11188,153.99885c0.91063,-0.12359 4.15269,1.7718 4.41309,2.54713c0.18756,0.55843 -0.48738,1.3527 -1.07326,1.31845c-0.56391,-0.03297 -1.49464,-1.76207 -2.7443,-1.52824c-0.93995,0.17589 -2.65801,4.22533 -3.4124,4.25843c-0.64465,0.02829 -1.41104,-0.36496 -1.18779,-0.86248c0.4114,-0.91679 2.73852,-5.56144 4.00466,-5.73328z" fill="#aa4400"/></g></g></g></svg>