<svg version="1.1" xmlns="http://www.w3.org/2000/svg" xmlns:xlink="http://www.w3.org/1999/xlink" width="164.99527" height="201.95988" viewBox="0,0,164.99527,201.95988"><g transform="translate(-229.21406,-92.07016)"><g data-paper-data="{&quot;isPaintingLayer&quot;:true}" fill-rule="nonzero" stroke-miterlimit="10" stroke-dasharray="" stroke-dashoffset="0" style="mix-blend-mode: normal"><g fill="#a05a2c" stroke="#a05a2c" stroke-linecap="butt" stroke-linejoin="miter"><path d="M251.18311,234.55698c0,-18.68741 13.18983,-33.83653 29.46031,-33.83653c16.27048,0 29.46031,15.14913 29.46031,33.83654c0,18.68741 -13.18983,33.83653 -29.46031,33.83653c-16.27048,0 -29.46031,-15.14913 -29.46031,-33.83653z" stroke-width="0.27717"/><path d="M273.9395,211.21709c0,-18.6874 13.18983,-33.83654 29.46031,-33.83654c16.27048,0 29.46031,15.14913 29.46031,33.83654c0,18.6874 -13.18983,33.83654 -29.46031,33.83654c-16.27048,0 -29.46031,-15.14913 -29.46031,-33.83653z" stroke-width="0.27717"/><path d="M259.47197,206.14723c9.39968,-16.15132 28.41946,-22.61012 42.48186,-14.42613c14.06239,8.18399 17.84226,27.91164 8.44258,44.06295c-9.39968,16.15132 -28.41946,22.61011 -42.48185,14.42613c-14.0624,-8.18399 -17.84227,-27.91163 -8.44258,-44.06295z" stroke-width="0.27717"/><path d="M245.30883,128.65225c0,-12.58624 15.29735,-22.7894 34.1676,-22.7894c18.87024,0 34.1676,10.20316 34.1676,22.7894c0,12.58624 -15.29735,22.7894 -34.1676,22.7894c-18.87024,0 -34.1676,-10.20316 -34.1676,-22.7894z" stroke-width="0.19855"/><path d="M231.33792,157.24362c-8.41196,-26.30406 12.54519,-39.09431 12.54519,-39.09431c67.34758,-48.39144 68.26916,70.3114 68.26916,70.3114l-46.09627,5.83497c0,0 12.87824,-19.52296 13.12869,-29.17486c0.17507,-6.74729 -12.20464,-16.27311 -17.79666,-15.17092c-3.99969,0.78834 -2.81138,7.74455 -0.58349,10.21119c0,0 2.43964,2.62376 7.29371,4.37623c10.15186,4.37106 -33.1025,4.14422 -36.76031,-7.2937z" stroke-width="0.26459"/></g><path d="M319.00761,111.01293c14.31999,-4.77993 30.89189,-4.43079 45.32546,0c7.65635,2.35034 16.42584,6.27858 19.84294,13.47205c9.26965,19.51389 10.93766,44.38973 -3.13309,57.61893c-19.10441,17.96178 -60.14397,18.26508 -78.95403,0c-13.78733,-13.38787 -14.83353,-39.57196 -1.25324,-57.41167c4.82229,-6.33479 10.96566,-11.27389 18.17196,-13.67932z" fill="#c87137" stroke="#a05a2c" stroke-width="0.26685" stroke-linecap="butt" stroke-linejoin="miter"/><path d="M295.07871,246.46185c0,-22.08386 20.95047,-39.98637 46.79418,-39.98637c25.84371,0 46.79418,17.90251 46.79418,39.98637c0,22.08386 -20.95047,39.98637 -46.79418,39.98637c-25.84371,0 -46.79418,-17.90251 -46.79418,-39.98637z" fill="#c87137" stroke="#c87137" stroke-width="0.33523" stroke-linecap="butt" stroke-linejoin="miter"/><path d="M318.48397,110.8096c0,0 -13.11105,17.45179 -20.64852,13.95793c-9.69102,-4.4921 -12.73118,-26.54722 -3.46284,-31.85691c8.68532,-4.97569 24.11136,17.89898 24.11136,17.89898z" fill="#c87137" stroke="#c87137" stroke-width="0.26459" stroke-linecap="butt" stroke-linejoin="miter"/><path d="M388.07465,93.21127c9.43193,5.01332 7.09219,27.15371 -2.45161,31.95065c-7.42298,3.73096 -21.08046,-13.2966 -21.08046,-13.2966c0,0 14.69342,-23.35201 23.53207,-18.65404z" fill="#c87137" stroke="#c87137" stroke-width="0.26459" stroke-linecap="butt" stroke-linejoin="miter"/><path d="M316.33785,193.60544c-3.26468,-19.56093 50.63309,-15.24357 50.08667,-0.30648c-0.36713,10.03586 6.70083,27.38009 6.70083,27.38009l-61.84908,-0.10257c0,0 6.90997,-15.89612 5.06158,-26.97104z" fill="#c87137" stroke="#c87137" stroke-width="0.29353" stroke-linecap="butt" stroke-linejoin="miter"/><path d="M322.0381,112.49687c1.43808,0.1003 2.50528,1.17758 2.38367,2.40617c-0.12161,1.22859 -1.38598,2.14325 -2.82405,2.04296c-1.43808,-0.1003 -2.50528,-1.17758 -2.38367,-2.40617c0.12161,-1.22859 1.38598,-2.14325 2.82405,-2.04296z" fill="#a05a2c" stroke="#a05a2c" stroke-width="0.02121" stroke-linecap="butt" stroke-linejoin="miter"/><path d="M301.72529,290.29993c-2.40967,-4.2541 0.77323,-10.61212 7.10918,-14.20101c6.33596,-3.58889 13.42568,-3.04964 15.83535,1.20447c2.40967,4.2541 -0.77323,10.61212 -7.10918,14.20101c-6.33596,3.58889 -13.42568,3.04964 -15.83535,-1.20447z" fill="#c87137" stroke="#c87137" stroke-width="0.30094" stroke-linecap="butt" stroke-linejoin="miter"/><path d="M373.26092,274.86115c6.33596,3.58889 9.51884,9.94691 7.10917,14.20101c-2.40967,4.2541 -9.49939,4.79336 -15.83535,1.20446c-6.33596,-3.58889 -9.51884,-9.94691 -7.10918,-14.20101c2.40967,-4.2541 9.4994,-4.79336 15.83535,-1.20446z" fill="#c87137" stroke="#c87137" stroke-width="0.30094" stroke-linecap="butt" stroke-linejoin="miter"/><path d="M330.17629,218.01702c7.44072,4.25474 11.1786,11.79236 8.34877,16.83573c-2.82983,5.04337 -11.15575,5.68267 -18.59647,1.42793c-7.44072,-4.25474 -11.17859,-11.79236 -8.34877,-16.83573c2.82983,-5.04337 11.15575,-5.68267 18.59647,-1.42793z" fill="#a05a2c" stroke="#a05a2c" stroke-width="0.35509" stroke-linecap="butt" stroke-linejoin="miter"/><path d="M331.11746,169.23015c0,-2.83586 4.59427,-5.13477 10.26158,-5.13477c5.66731,0 10.26158,2.29891 10.26158,5.13477c0,2.83586 -4.59427,5.13477 -10.26158,5.13477c-5.66731,0 -10.26158,-2.29891 -10.26158,-5.13477z" fill="#763911" stroke="#763911" stroke-width="0.27589" stroke-linecap="butt" stroke-linejoin="miter"/><g stroke="#000000" stroke-width="0.26459" stroke-linecap="butt" stroke-linejoin="miter"><path d="M311.39871,158.2458c0,-4.06187 2.34271,-7.35468 5.2326,-7.35468c2.88988,0 5.23259,3.2928 5.23259,7.35468c0,4.06187 -2.34271,7.35467 -5.23259,7.35467c-2.88988,0 -5.2326,-3.2928 -5.2326,-7.35467z" fill="#000000"/><path d="M314.58314,155.62056c0,-1.16054 0.76138,-2.10134 1.70059,-2.10134c0.93921,0 1.7006,0.9408 1.7006,2.10134c0,1.16054 -0.76139,2.10134 -1.7006,2.10134c-0.93921,0 -1.70059,-0.9408 -1.70059,-2.10134z" fill="#ffffff"/></g><g stroke="#000000" stroke-width="0.26459" stroke-linecap="butt" stroke-linejoin="miter"><path d="M359.21663,157.56838c0,-4.0663 2.10366,-7.36268 4.69867,-7.36268c2.595,0 4.69867,3.29638 4.69867,7.36268c0,4.0663 -2.10366,7.36268 -4.69867,7.36268c-2.595,0 -4.69867,-3.29638 -4.69867,-7.36268z" fill="#000000"/><path d="M362.07613,154.94028c0,-1.1618 0.6837,-2.10362 1.52707,-2.10362c0.84337,0 1.52706,0.94182 1.52706,2.10362c0,1.1618 -0.68369,2.10362 -1.52706,2.10362c-0.84337,0 -1.52707,-0.94182 -1.52707,-2.10362z" fill="#ffffff"/></g><path d="M311.40494,116.43946l-1.97102,0.25823c0,0 -11.94957,-0.62495 -13.69041,-17.02434" fill="#763911" stroke="#763911" stroke-width="0.26459" stroke-linecap="butt" stroke-linejoin="miter"/><path d="M389.27325,100.82297c-1.74084,16.39939 -13.69041,17.02434 -13.69041,17.02434l-1.97101,-0.25823" fill="#763911" stroke="#763911" stroke-width="0.26459" stroke-linecap="butt" stroke-linejoin="miter"/><path d="M373.47999,219.44495c2.82983,5.04337 -0.90805,12.58099 -8.34877,16.83574c-7.44072,4.25474 -15.76664,3.61544 -18.59647,-1.42793c-2.82983,-5.04337 0.90804,-12.58099 8.34877,-16.83573c7.44072,-4.25474 15.76665,-3.61544 18.59647,1.42793z" fill="#a05a2c" stroke="#a05a2c" stroke-width="0.35509" stroke-linecap="butt" stroke-linejoin="miter"/><path d="M329.51063,111.73046c1.43808,0.1003 2.50528,1.17757 2.38367,2.40617c-0.12161,1.22859 -1.38598,2.14326 -2.82405,2.04297c-1.43808,-0.1003 -2.50529,-1.17758 -2.38368,-2.40617c0.12161,-1.22859 1.38598,-2.14326 2.82406,-2.04296z" fill="#a05a2c" stroke="#a05a2c" stroke-width="0.02121" stroke-linecap="butt" stroke-linejoin="miter"/><path d="M337.36639,110.77244c1.43808,0.1003 2.50529,1.17758 2.38368,2.40617c-0.12161,1.22859 -1.38598,2.14325 -2.82406,2.04296c-1.43808,-0.1003 -2.50528,-1.17758 -2.38367,-2.40617c0.12161,-1.22859 1.38598,-2.14325 2.82405,-2.04296z" fill="#a05a2c" stroke="#a05a2c" stroke-width="0.02121" stroke-linecap="butt" stroke-linejoin="miter"/><path d="M344.64732,110.38922c1.43808,0.1003 2.50529,1.17758 2.38368,2.40617c-0.12161,1.22859 -1.38598,2.14326 -2.82406,2.04297c-1.43808,-0.1003 -2.50528,-1.17758 -2.38367,-2.40617c0.12161,-1.22859 1.38598,-2.14326 2.82405,-2.04297z" fill="#a05a2c" stroke="#a05a2c" stroke-width="0.02121" stroke-linecap="butt" stroke-linejoin="miter"/><path d="M352.11985,110.77243c1.43808,0.1003 2.50529,1.17758 2.38368,2.40617c-0.12161,1.22859 -1.38598,2.14326 -2.82406,2.04296c-1.43808,-0.1003 -2.50528,-1.17758 -2.38367,-2.40617c0.12161,-1.22859 1.38598,-2.14326 2.82405,-2.04296z" fill="#a05a2c" stroke="#a05a2c" stroke-width="0.02121" stroke-linecap="butt" stroke-linejoin="miter"/><path d="M359.97561,111.53885c1.43808,0.1003 2.50529,1.17758 2.38368,2.40618c-0.12161,1.22859 -1.38598,2.14325 -2.82405,2.04296c-1.43808,-0.1003 -2.50529,-1.17757 -2.38368,-2.40617c0.12161,-1.22859 1.38598,-2.14326 2.82405,-2.04297z" fill="#a05a2c" stroke="#a05a2c" stroke-width="0.02121" stroke-linecap="butt" stroke-linejoin="miter"/><path d="M326.82817,116.71215c1.43808,0.1003 2.50528,1.17757 2.38367,2.40617c-0.12161,1.22859 -1.38598,2.14326 -2.82405,2.04297c-1.43808,-0.1003 -2.50528,-1.17758 -2.38367,-2.40618c0.12161,-1.22859 1.38598,-2.14325 2.82405,-2.04296z" fill="#a05a2c" stroke="#a05a2c" stroke-width="0.02121" stroke-linecap="butt" stroke-linejoin="miter"/><path d="M334.68392,115.94573c1.43808,0.1003 2.50528,1.17758 2.38367,2.40617c-0.12161,1.22859 -1.38598,2.14325 -2.82405,2.04296c-1.43808,-0.1003 -2.50528,-1.17757 -2.38367,-2.40617c0.12161,-1.22859 1.38598,-2.14326 2.82405,-2.04296z" fill="#a05a2c" stroke="#a05a2c" stroke-width="0.02121" stroke-linecap="butt" stroke-linejoin="miter"/><path d="M342.92288,115.75413c1.43808,0.1003 2.50528,1.17758 2.38367,2.40617c-0.12161,1.22859 -1.38598,2.14325 -2.82405,2.04296c-1.43808,-0.1003 -2.50529,-1.17758 -2.38368,-2.40617c0.12161,-1.22859 1.38598,-2.14325 2.82406,-2.04296z" fill="#a05a2c" stroke="#a05a2c" stroke-width="0.02121" stroke-linecap="butt" stroke-linejoin="miter"/><path d="M349.4374,115.56253c1.43808,0.1003 2.50528,1.17758 2.38367,2.40617c-0.12161,1.22859 -1.38598,2.14326 -2.82405,2.04296c-1.43808,-0.1003 -2.50529,-1.17758 -2.38368,-2.40617c0.12161,-1.22859 1.38598,-2.14326 2.82406,-2.04296z" fill="#a05a2c" stroke="#a05a2c" stroke-width="0.02121" stroke-linecap="butt" stroke-linejoin="miter"/><path d="M356.52673,115.94573c1.43808,0.1003 2.50529,1.17758 2.38368,2.40617c-0.12161,1.22859 -1.38598,2.14326 -2.82406,2.04296c-1.43808,-0.1003 -2.50528,-1.17757 -2.38367,-2.40617c0.12161,-1.22859 1.38598,-2.14326 2.82405,-2.04297z" fill="#a05a2c" stroke="#a05a2c" stroke-width="0.02121" stroke-linecap="butt" stroke-linejoin="miter"/><path d="M331.23505,121.31064c1.43808,0.1003 2.50528,1.17757 2.38367,2.40617c-0.12161,1.22859 -1.38598,2.14326 -2.82405,2.04296c-1.43808,-0.1003 -2.50528,-1.17758 -2.38367,-2.40617c0.12161,-1.22859 1.38598,-2.14325 2.82405,-2.04296z" fill="#a05a2c" stroke="#a05a2c" stroke-width="0.02121" stroke-linecap="butt" stroke-linejoin="miter"/><path d="M339.85722,121.31064c1.43808,0.1003 2.50528,1.17757 2.38367,2.40617c-0.12161,1.22859 -1.38598,2.14326 -2.82405,2.04296c-1.43808,-0.1003 -2.50529,-1.17758 -2.38368,-2.40617c0.12161,-1.22859 1.38598,-2.14325 2.82406,-2.04296z" fill="#a05a2c" stroke="#a05a2c" stroke-width="0.02121" stroke-linecap="butt" stroke-linejoin="miter"/><path d="M347.71296,121.31065c1.43808,0.1003 2.50528,1.17758 2.38367,2.40617c-0.12161,1.22859 -1.38598,2.14326 -2.82405,2.04296c-1.43808,-0.1003 -2.50528,-1.17758 -2.38367,-2.40617c0.12161,-1.22859 1.38598,-2.14326 2.82405,-2.04296z" fill="#a05a2c" stroke="#a05a2c" stroke-width="0.02121" stroke-linecap="butt" stroke-linejoin="miter"/><path d="M354.6107,121.11905c1.43808,0.1003 2.50528,1.17758 2.38367,2.40617c-0.12161,1.22859 -1.38598,2.14326 -2.82405,2.04296c-1.43808,-0.1003 -2.50528,-1.17758 -2.38367,-2.40617c0.12161,-1.22859 1.38598,-2.14326 2.82405,-2.04296z" fill="#a05a2c" stroke="#a05a2c" stroke-width="0.02121" stroke-linecap="butt" stroke-linejoin="miter"/><path d="M335.06714,125.90913c1.43808,0.1003 2.50528,1.17758 2.38367,2.40617c-0.12161,1.2286 -1.38598,2.14325 -2.82405,2.04296c-1.43808,-0.10029 -2.50528,-1.17757 -2.38367,-2.40617c0.12161,-1.22859 1.38598,-2.14325 2.82405,-2.04296z" fill="#a05a2c" stroke="#a05a2c" stroke-width="0.02121" stroke-linecap="butt" stroke-linejoin="miter"/><path d="M343.49769,126.10074c1.43808,0.1003 2.50528,1.17757 2.38367,2.40617c-0.12161,1.2286 -1.38598,2.14326 -2.82405,2.04296c-1.43808,-0.10029 -2.50528,-1.17757 -2.38367,-2.40617c0.12161,-1.22859 1.38598,-2.14326 2.82405,-2.04296z" fill="#a05a2c" stroke="#a05a2c" stroke-width="0.02121" stroke-linecap="butt" stroke-linejoin="miter"/><path d="M350.97024,126.29234c1.43808,0.1003 2.50528,1.17758 2.38367,2.40617c-0.12161,1.2286 -1.38598,2.14326 -2.82405,2.04296c-1.43808,-0.10029 -2.50528,-1.17757 -2.38367,-2.40617c0.12161,-1.22859 1.38598,-2.14326 2.82405,-2.04296z" fill="#a05a2c" stroke="#a05a2c" stroke-width="0.02121" stroke-linecap="butt" stroke-linejoin="miter"/><path d="M338.89922,130.89083c1.43808,0.10029 2.50528,1.17757 2.38367,2.40617c-0.12161,1.2286 -1.38598,2.14325 -2.82405,2.04296c-1.43808,-0.10029 -2.50528,-1.17757 -2.38367,-2.40617c0.12161,-1.2286 1.38598,-2.14325 2.82405,-2.04296z" fill="#a05a2c" stroke="#a05a2c" stroke-width="0.02121" stroke-linecap="butt" stroke-linejoin="miter"/><path d="M347.13816,130.89083c1.43808,0.10029 2.50528,1.17757 2.38367,2.40617c-0.12161,1.2286 -1.38598,2.14326 -2.82405,2.04296c-1.43808,-0.10029 -2.50529,-1.17757 -2.38368,-2.40617c0.12161,-1.2286 1.38598,-2.14326 2.82406,-2.04296z" fill="#a05a2c" stroke="#a05a2c" stroke-width="0.02121" stroke-linecap="butt" stroke-linejoin="miter"/><path d="M343.11449,135.68091c1.43808,0.10029 2.50528,1.17757 2.38367,2.40617c-0.12161,1.2286 -1.38598,2.14326 -2.82405,2.04296c-1.43808,-0.10029 -2.50528,-1.17757 -2.38367,-2.40617c0.12161,-1.2286 1.38598,-2.14325 2.82405,-2.04296z" fill="#a05a2c" stroke="#a05a2c" stroke-width="0.02121" stroke-linecap="butt" stroke-linejoin="miter"/><path d="M333.58928,181.47171c4.40532,1.31317 11.01964,1.06377 15.96018,-0.15569c3.4537,-0.85247 -4.31385,7.38643 -7.59086,7.50143c-3.37666,0.1185 -11.92657,-8.40611 -8.36932,-7.34574z" fill="#000000" stroke="#000000" stroke-width="0.24609" stroke-linecap="round" stroke-linejoin="bevel"/><path d="M341.72098,182.33961l0.14256,4.08496l-3.08505,-0.7697l-0.20558,-3.37548z" fill="#e6e6e6" stroke="#e6e6e6" stroke-width="0.22303" stroke-linecap="round" stroke-linejoin="bevel"/><path d="M344.85091,182.04214l-0.0892,3.70519l-2.88494,0.68217l-0.0114,-4.1009z" fill="#e6e6e6" stroke="#020202" stroke-width="0" stroke-linecap="round" stroke-linejoin="bevel"/></g></g></svg>