<svg version="1.1" xmlns="http://www.w3.org/2000/svg" xmlns:xlink="http://www.w3.org/1999/xlink" width="320.42712" height="323.5" viewBox="0,0,320.42712,323.5"><g transform="translate(-159.78644,-18.25)"><g data-paper-data="{&quot;isPaintingLayer&quot;:true}" fill-rule="nonzero" stroke-miterlimit="10" stroke-dasharray="" stroke-dashoffset="0" style="mix-blend-mode: normal"><path d="M466.96356,180c0,82.01429 -65.79783,148.5 -146.96356,148.5c-81.16573,0 -146.96356,-66.48571 -146.96356,-148.5c0,-82.01429 65.79783,-148.5 146.96356,-148.5c81.16573,0 146.96356,66.48571 146.96356,148.5z" fill="#60a040" stroke="#29441b" stroke-width="26.5" stroke-linecap="butt" stroke-linejoin="miter"/><g><path d="M246.36605,208.55132c0,-40.41145 33.70952,-73.17139 75.29231,-73.17139c41.58279,0 75.29231,32.75994 75.29231,73.17139c0,40.41145 -33.70951,73.17141 -75.2923,73.17141c-41.58279,0 -75.29231,-32.75996 -75.29231,-73.17141z" fill="#ec3f31" stroke="none" stroke-width="3.05522" stroke-linecap="round" stroke-linejoin="miter"/><g stroke-linecap="round"><path d="M267.1866,201.89779c0,-13.16849 9.99223,-23.84366 22.31826,-23.84366c12.32604,0 22.31826,10.67517 22.31826,23.84366c0,13.16849 -9.99222,23.84366 -22.31826,23.84366c-12.32604,0 -22.31826,-10.67517 -22.31826,-23.84366z" fill="#f9f9f9" stroke="none" stroke-width="11.3386" stroke-linejoin="miter"/><path d="M274.39641,202.10493c0,-8.3583 6.64907,-15.13404 14.85112,-15.13404c8.20205,0 14.85114,6.77574 14.85114,15.13404c0,8.35831 -6.64908,15.13405 -14.85113,15.13405c-8.20205,0 -14.85112,-6.77574 -14.85112,-15.13405z" fill="#000000" stroke="#1ce652" stroke-width="0.41803" stroke-linejoin="bevel"/><path d="M286.08251,198.46502c0,-4.6183 3.36644,-8.36216 7.51915,-8.36216c4.15272,0 7.51917,3.74386 7.51917,8.36216c0,4.6183 -3.36645,8.36217 -7.51917,8.36217c-4.15272,0 -7.51915,-3.74386 -7.51915,-8.36217z" fill="#ffffff" stroke="#1ce652" stroke-width="0" stroke-linejoin="bevel"/></g><g stroke-linecap="round"><path d="M352.20531,225.74146c-12.32604,0 -22.31826,-10.67517 -22.31826,-23.84366c0,-13.16849 9.99223,-23.84366 22.31826,-23.84366c12.32604,0 22.31826,10.67517 22.31826,23.84366c0,13.16849 -9.99222,23.84366 -22.31826,23.84366z" fill="#f9f9f9" stroke="none" stroke-width="11.3386" stroke-linejoin="miter"/><path d="M352.46264,217.23898c-8.20205,0 -14.85113,-6.77574 -14.85113,-15.13405c0,-8.3583 6.64908,-15.13404 14.85114,-15.13404c8.20205,0 14.85114,6.77574 14.85114,15.13404c0,8.35831 -6.64908,15.13405 -14.85113,15.13405z" fill="#000000" stroke="#1ce652" stroke-width="0.41803" stroke-linejoin="bevel"/><path d="M348.10851,206.82718c-4.15272,0 -7.51917,-3.74386 -7.51917,-8.36217c0,-4.6183 3.36645,-8.36216 7.51917,-8.36216c4.15272,0 7.51915,3.74386 7.51915,8.36216c0,4.6183 -3.36644,8.36217 -7.51915,8.36217z" fill="#ffffff" stroke="#1ce652" stroke-width="0" stroke-linejoin="bevel"/></g><path d="M271.89621,245.25468c-6.48918,-0.0969 -11.71045,-4.43959 -11.66204,-9.69965c0.04841,-5.26005 5.34818,-9.4456 11.83736,-9.34869c6.48918,0.0969 11.71045,4.43957 11.66204,9.69963c-0.04841,5.26005 -5.34818,9.44562 -11.83736,9.34871z" fill="#f98787" stroke="none" stroke-width="3.38589" stroke-linecap="round" stroke-linejoin="miter"/><path d="M368.40123,245.2548c-6.48918,-0.0969 -11.71045,-4.43958 -11.66204,-9.69963c0.04841,-5.26005 5.34818,-9.44561 11.83736,-9.34871c6.48918,0.0969 11.71045,4.43958 11.66204,9.69964c-0.04841,5.26005 -5.34818,9.44561 -11.83736,9.3487z" fill="#f98787" stroke="none" stroke-width="3.38589" stroke-linecap="round" stroke-linejoin="miter"/><path d="M239.02389,98.39743c-2.38036,-16.43958 21.74394,-24.98869 33.07439,-17.22136c17.01432,11.66383 22.17667,71.33462 22.17667,71.33462c0,0 -9.30399,7.47764 -9.88039,2.87484c-1.88608,-15.06073 -3.29817,-46.87918 -15.74558,-59.52072c-9.00788,-9.14839 -27.61791,16.39489 -29.62509,2.53262z" fill="#b22921" stroke="none" stroke-width="5.34855" stroke-linecap="round" stroke-linejoin="miter"/><path d="M368.50559,96.81156c-13.01331,13.2356 -13.0222,44.57224 -14.35916,59.48538c-0.40859,4.55769 -10.95302,-2.16994 -10.95302,-2.16994c0,0 2.76845,-58.93337 20.82748,-71.51073c12.02615,-8.37569 38.84327,-1.5753 37.03191,14.72442c-1.52739,13.74434 -23.12985,-10.10742 -32.54721,-0.52912z" fill="#b22921" stroke="none" stroke-width="5.55301" stroke-linecap="round" stroke-linejoin="miter"/><path d="M302.07304,242.72855c10.35575,5.32826 21.0109,12.01274 41.37466,-0.13449c-14.21744,9.25054 -27.97485,8.55716 -41.37466,0.13449z" fill="#000000" stroke="#000000" stroke-width="0.18816" stroke-linecap="butt" stroke-linejoin="miter"/></g></g></g></svg>