<svg version="1.1" xmlns="http://www.w3.org/2000/svg" xmlns:xlink="http://www.w3.org/1999/xlink" width="61.6588" height="104.50622" viewBox="0,0,61.6588,104.50622"><g transform="translate(-289.1706,-127.7184)"><g data-paper-data="{&quot;isPaintingLayer&quot;:true}" fill-rule="nonzero" stroke-linecap="butt" stroke-linejoin="miter" stroke-miterlimit="10" stroke-dasharray="" stroke-dashoffset="0" style="mix-blend-mode: normal"><g><path d="M317.1726,231.39169c-0.24434,2.26785 -8.84588,-1.73487 -8.05577,-2.74349c5.98089,-7.63493 15.03954,-43.65107 7.91336,-57.48505c-1.46002,-2.83431 5.28171,-2.53781 5.43167,-2.12006c6.0959,16.98172 -5.02663,59.91102 -5.28926,62.34861z" fill="#82d22d" stroke="#82d22d" stroke-width="0.29531"/><path d="M308.676,133.22852c4.3924,-6.21259 19.4776,-7.41308 23.89518,-1.21606c5.88258,8.25213 -13.90265,26.75327 -13.90265,26.75327c0,0 -15.34068,-17.97282 -9.99253,-25.53721z" fill="#ff8fc1" stroke="#ff9ac8" stroke-width="0.40929"/><path d="M321.07528,157.09888c0,0 27.77711,3.76302 28.01657,14.16861c0.17983,7.81418 -13.02409,15.75952 -20.4916,13.15998c-9.09238,-3.16517 -7.52497,-27.3286 -7.52497,-27.3286z" fill="#ff8fc1" stroke="#ff8fc1" stroke-width="0.42118"/><path d="M308.676,133.22852c4.3924,-6.21259 19.4776,-7.41308 23.89518,-1.21606c5.88258,8.25213 -13.90265,26.75327 -13.90265,26.75327c0,0 -15.34068,-17.97282 -9.99253,-25.53721z" fill="#ff8fc1" stroke="#ff8fc1" stroke-width="0.40929"/><path d="M315.28944,184.80192c-7.78772,2.67204 -21.55785,-5.49489 -21.3703,-13.52702c0.24973,-10.69581 29.21795,-14.56378 29.21795,-14.56378c0,0 1.63462,24.83735 -7.84765,28.0908z" fill="#ff8fc1" stroke="#ff8fc1" stroke-width="0.43607"/><path d="M320.97619,158.04437c0,0 9.9152,-24.89611 20.00881,-22.79698c7.5799,1.57636 12.25824,15.58201 8.06065,21.92081c-5.11095,7.71808 -28.06946,0.87616 -28.06946,0.87616z" fill="#ff8fc1" stroke="#ff8fc1" stroke-width="0.40929"/><path d="M290.95435,157.76216c-4.19759,-6.33881 0.48075,-20.34446 8.06065,-21.92082c10.09361,-2.09913 20.00881,22.79698 20.00881,22.79698c0,0 -22.9585,6.84192 -28.06946,-0.87616z" fill="#ff8fc1" stroke="#ff8fc1" stroke-width="0.40929"/><path d="M310.24005,159.02375c0,-5.63627 4.59606,-10.20537 10.26558,-10.20537c5.66953,0 10.26558,4.5691 10.26558,10.20537c0,5.63627 -4.59606,10.20537 -10.26558,10.20537c-5.66953,0 -10.26558,-4.5691 -10.26558,-10.20537z" fill="#ffed4c" stroke="#fff04c" stroke-width="0.38459"/><path d="M340.13088,198.52656c0,0 -7.41066,14.49282 -13.93512,12.71776c-4.8996,-1.33302 -7.43947,-10.00521 -4.45824,-13.61057c3.62992,-4.38985 18.39336,0.89281 18.39336,0.89281z" fill="#82d22d" stroke="#82d22d" stroke-width="0.25751"/></g></g></g></svg>