<svg version="1.1" xmlns="http://www.w3.org/2000/svg" xmlns:xlink="http://www.w3.org/1999/xlink" width="137.88154" height="143.38385" viewBox="0,0,137.88154,143.38385"><g transform="translate(-245.70899,-116.14419)"><g data-paper-data="{&quot;isPaintingLayer&quot;:true}" fill-rule="nonzero" stroke="#ffffff" stroke-linecap="butt" stroke-linejoin="miter" stroke-miterlimit="10" stroke-dasharray="" stroke-dashoffset="0" style="mix-blend-mode: normal"><path d="M245.709,259.52805v-143.38385h137.88154v143.38385z" fill="none" stroke-width="0"/><path d="M289.26401,135.24137c12.97361,-10.87777 35.03621,-9.93472 49.30257,-1.13527c11.24275,6.93451 19.69365,22.61784 18.96253,36.55532c-1.14183,21.76692 -35.39671,53.13007 -35.39671,53.13007c0,0 23.88446,-2.25145 34.13254,3.17872c4.46193,2.36423 6.72389,21.72772 0.84278,22.25105c-18.83002,1.6756 -73.0502,2.42547 -75.85013,-3.17872c-13.83509,-27.69141 42.54866,-51.55848 44.87798,-80.14921c0.49705,-6.10084 -3.44898,-17.54811 -10.74542,-11.12553c-7.0341,6.19166 -5.90941,21.30053 -14.32724,24.97568c-6.91484,3.01894 -17.94987,1.04617 -21.70158,-5.90334c-6.22903,-11.53841 0.12603,-30.40153 9.90266,-38.59877z" fill="#53e300" stroke-width="6"/></g></g></svg>