<svg version="1.1" xmlns="http://www.w3.org/2000/svg" xmlns:xlink="http://www.w3.org/1999/xlink" width="697.81467" height="507.39532" viewBox="0,0,697.81467,507.39532"><g transform="translate(36.3249,21.13229)"><g data-paper-data="{&quot;isPaintingLayer&quot;:true}" fill-rule="nonzero" stroke-linecap="butt" stroke-linejoin="miter" stroke-miterlimit="10" stroke-dasharray="" stroke-dashoffset="0" style="mix-blend-mode: normal"><path d="M-18.16429,373.28491v-394.2822h668.67432v394.2822z" fill="#057094" stroke="#e3e31c" stroke-width="0.26999"/><path d="M587.28464,254.68935c-1.02517,-6.87346 -14.173,-13.35785 -9.77552,-18.41461c9.01782,-10.36981 -12.04456,-41.31065 2.19335,-42.93471c9.5955,-1.09452 -1.30314,25.11519 7.95655,27.85926c9.23407,2.73647 1.14132,25.51068 10.71145,34.71344c5.06168,4.86738 -8.23397,15.05431 -1.12302,21.34148c7.92275,7.00493 -10.88723,18.70347 -17.54498,16.45777c-12.55577,-4.23514 9.5369,-25.9168 7.58217,-39.02263z" fill="#79885a" stroke="#92c31c" stroke-width="0.26459" opacity="0.66667"/><path d="M606.83767,248.01994c6.42386,-4.49607 -10.30626,-17.40378 -4.35588,-23.11605c12.20232,-11.71404 -14.89107,-33.17847 -3.20373,-35.77135c15.98085,-3.54541 5.56548,25.67077 18.09509,28.77056c12.49493,3.0912 -8.48453,21.1031 4.46514,31.49882c6.84913,5.49833 -11.14167,17.00579 -1.5196,24.10797c10.72054,7.91298 -7.40308,13.02773 -16.41191,10.49092c-16.98964,-4.78413 0.09066,-33.99298 2.93089,-35.98087z" fill="#43574c" stroke="#92c31c" stroke-width="0.32712" opacity="0.45614"/><path d="M634.17877,293.71198c-6.65775,2.2457 -25.46773,-9.45284 -17.54498,-16.45777c7.11095,-6.28717 -6.1847,-16.4741 -1.12302,-21.34148c9.57013,-9.20276 1.47738,-31.97697 10.71145,-34.71344c9.25969,-2.74407 -1.63895,-28.95378 7.95655,-27.85926c14.23791,1.62406 -6.82447,32.5649 2.19335,42.93471c4.39748,5.05676 -8.75035,11.54115 -9.77552,18.41461c-1.95473,13.10583 20.13794,34.78749 7.58217,39.02263z" fill="#7a8a58" stroke="#92c31c" stroke-width="0.26459" opacity="0.64561"/><g><path d="M6.94134,251.46739c-1.39439,-8.07943 -15.18007,-17.05046 -10.78259,-22.10722c9.01782,-10.36981 -5.50552,-18.62115 0.85058,-22.79319c4.88997,-3.20969 7.08916,3.6309 16.34885,6.37497c9.23407,2.73647 -4.90113,30.54606 4.669,39.74882c5.06168,4.86738 -8.23397,15.05431 -1.12302,21.34148c7.92275,7.00493 -6.52323,8.29701 -13.18098,6.05131c-12.55577,-4.23514 4.85066,-19.15715 3.21817,-28.61617z" fill="#79885a" stroke="#79885a" stroke-width="0.26459" opacity="0.66667"/><path d="M23.13744,243.45521c6.42386,-4.49607 -6.94934,-16.06101 -0.99896,-21.77328c12.20232,-11.71404 -9.85569,-18.74371 1.83165,-21.33659c15.98084,-3.54541 0.5301,11.23601 13.05971,14.3358c12.49493,3.0912 -15.53406,20.43172 -2.5844,30.82744c6.84913,5.49833 -4.09213,17.67717 5.52994,24.77935c10.72055,7.91298 -7.40308,13.02773 -16.41191,10.49092c-16.98964,-4.78413 -3.26626,-35.33575 -0.42603,-37.32364z" fill="#43574c" stroke="#43574c" stroke-width="0.32712" opacity="0.45614"/><path d="M48.80008,280.41926c2.446,6.58679 -20.43235,0.61792 -12.5096,-6.38701c7.11095,-6.28717 -6.1847,-16.4741 -1.12302,-21.34148c9.57013,-9.20276 -2.55092,-23.58467 6.68315,-26.32114c9.25969,-2.74407 -0.53072,-38.56233 11.98486,-36.25156c15.52051,2.86557 -11.18846,36.9289 -2.17065,47.29871c4.39748,5.05676 3.90522,8.76324 3.65216,13.37923c-0.50028,9.12541 -11.08143,17.3315 -6.5169,29.62325z" fill="#7a8a58" stroke="#7a8a58" stroke-width="0.26459" opacity="0.64561"/></g><path d="M-17.35607,241.59888c43.95177,-27.97173 99.62096,89.44786 144.47046,62.77397c93.28329,-55.47953 110.89245,36.68933 147.87965,9.64374c75.57051,-43.22469 105.2823,6.20423 141.06123,4.13592c70.40303,-4.06987 104.33614,-58.96038 134.13782,-46.83034c36.45763,14.83918 40.60502,10.66096 70.39335,-8.28828c63.88921,-40.64182 36.01474,114.00761 -1.62327,148.51405c-150.18061,137.6852 -628.20292,-10.71752 -628.20292,-10.71752c0,0 -54.81773,-129.50989 -8.11631,-159.23154z" fill="#c1ad7c" stroke="#c1ad7c" stroke-width="0.25274"/><path d="M-14.61469,257.65434c43.95177,-27.97173 99.62096,89.44786 144.47045,62.77397c93.28329,-55.47953 110.89245,36.68933 147.87965,9.64374c75.57051,-43.22469 105.2823,6.20423 141.06123,4.13592c70.40303,-4.06987 104.33614,-58.96038 134.13782,-46.83034c36.45763,14.83918 40.60502,10.66096 70.39335,-8.28828c63.88921,-40.64182 36.01474,114.00761 -1.62327,148.51405c-150.18061,137.6852 -628.20291,-10.71752 -628.20291,-10.71752c0,0 -54.81773,-129.50989 -8.11631,-159.23154z" fill="#dbc68e" stroke="#c1ad7c" stroke-width="0.25274"/><g><path d="M68.12918,309.67653c-1.32544,-7.42858 -18.32422,-14.43666 -12.63873,-19.90181c11.65911,-11.20729 -15.57236,-44.64698 2.83577,-46.4022c12.40598,-1.18292 -1.68483,27.14354 10.28699,30.10923c11.93869,2.95747 1.47561,27.57097 13.84879,37.51696c6.54422,5.26048 -10.64567,16.27012 -1.45195,23.06506c10.24329,7.57066 -14.07605,20.214 -22.68383,17.78693c-16.23331,-4.57718 12.33022,-28.00989 9.80296,-42.17417z" fill="#8fc41e" stroke="#92c31c" stroke-width="0.26459"/><path d="M91.73075,302.13279c8.30538,-4.85918 -13.32492,-18.80934 -5.6317,-24.98294c15.77633,-12.66009 -19.25261,-35.85803 -4.14209,-38.66032c20.66156,-3.83175 7.19558,27.74399 23.39506,31.09413c16.15466,3.34085 -10.96962,22.80742 5.77296,34.04272c8.85522,5.94239 -14.40502,18.37921 -1.96468,26.05498c13.86055,8.55205 -9.57141,14.07988 -21.21889,11.33819c-21.96584,-5.1705 0.1172,-36.73831 3.78933,-38.88675z" fill="#009a44" stroke="#009a44" stroke-width="0.32712"/><path d="M124.89795,351.01147c-8.60778,2.42707 -32.92713,-10.21627 -22.68383,-17.78693c9.19372,-6.79494 -7.99617,-17.80458 -1.45195,-23.06506c12.37318,-9.94599 1.9101,-34.55949 13.84879,-37.51696c11.97182,-2.96569 -2.11899,-31.29214 10.28699,-30.10923c18.40814,1.75522 -8.82333,35.1949 2.83577,46.4022c5.68549,5.46515 -11.31329,12.47323 -12.63873,19.90181c-2.52726,14.16428 26.03626,37.59699 9.80296,42.17417z" fill="#8cbc26" stroke="#92c31c" stroke-width="0.26459"/></g><path d="M567.56349,347.85764c-1.21482,-0.66134 0.13529,-7.24515 0.83181,-8.0994c2.74594,-3.36772 6.26857,0.41159 8.87362,-1.03091c2.19069,-1.21306 2.26592,-5.25524 4.69474,-5.86475c3.76843,-0.94567 9.0251,1.0847 10.71743,4.58204c1.63892,3.38698 -2.96115,10.89271 -2.96115,10.89271" fill="#85764b" stroke="#85764b" stroke-width="0.26459"/><path d="M560.91621,310.59363c6.42386,-4.49607 -6.94934,-16.06101 -0.99896,-21.77328c12.20232,-11.71404 -9.85569,-18.74371 1.83166,-21.33659c15.98084,-3.54541 0.5301,11.23601 13.0597,14.3358c12.49494,3.0912 -15.53406,20.43172 -2.58439,30.82744c6.84913,5.49833 -4.09214,17.67717 5.52993,24.77935c10.72055,7.91298 -7.40308,13.02773 -16.41191,10.49092c-16.98964,-4.78413 -3.26626,-35.33575 -0.42603,-37.32364z" fill="#759f1d" stroke="#92c31c" stroke-width="0.32712"/><path d="M552.08902,322.8321c11.60004,-0.54105 11.91063,6.19952 14.66975,11.64349c2.65297,5.23455 5.86121,14.77335 0.39243,17.40992c-5.65774,2.72765 -12.22757,-8.84301 -15.17712,-10.8901c-8.31156,-5.76853 -8.9618,-3.13099 -17.488,-12.63672c-2.38868,-2.66313 -2.02498,-19.60601 5.06261,-21.19293c6.52746,-1.46151 0.44097,16.23069 12.54033,15.66634z" fill="#8cbc26" stroke="#92c31c" stroke-width="0.30987"/><path d="M604.29193,295.8379c7.49815,2.43877 1.26941,18.54237 -0.58416,22.21739c-6.61611,13.11757 -12.47686,2.90869 -20.05359,11.93707c-2.68876,3.20393 -2.5839,20.2508 -9.92244,19.71775c-4.93873,-0.35874 -5.46392,-9.20461 -4.6899,-14.09549c1.13309,-7.1598 -0.44147,-14.13889 12.90163,-17.50621c13.91744,-3.51225 12.46374,-25.48547 22.34846,-22.27051z" fill="#8cbc26" stroke="#92c31c" stroke-width="0.35732"/><path d="M542.85951,353.08473c0,0 -4.60007,-7.50573 -2.96115,-10.89271c1.69233,-3.49734 6.949,-5.52771 10.71743,-4.58204c2.42882,0.60951 2.50405,4.65169 4.69474,5.86475c2.60505,1.4425 6.12768,-2.33681 8.87362,1.03091c0.69652,0.85425 2.04663,7.43806 0.83181,8.0994" fill="#85764b" stroke="#85764b" stroke-width="0.26459"/><path d="M45.69517,352.76725c0,0 -6.85987,-9.98498 -3.50868,-14.23676c1.37312,-1.74213 7.67416,-6.24253 12.157,-5.86255c3.57523,0.30305 5.21914,6.75388 8.77032,6.24085c4.27264,-0.61725 4.96215,6.67625 11.93388,5.67473c2.1098,-0.30308 6.25787,7.79339 4.23413,8.84511" fill="#85764b" stroke="#85764b" stroke-width="0.43065"/><path d="M98.14071,352.97076c-2.02374,-1.05172 -4.7594,-9.38556 -3.59908,-10.74407c4.57438,-5.35565 12.60243,-6.09213 14.78232,-1.63944c0.97121,1.98382 1.58461,3.0585 3.07343,3.49133c5.79341,1.68424 12.60459,-8.74484 17.37914,-5.05648c4.00754,3.09584 -0.42287,15.18624 -0.42287,15.18624" fill="#85764b" stroke="#85764b" stroke-width="0.43065"/></g></g></svg>