<svg version="1.1" xmlns="http://www.w3.org/2000/svg" xmlns:xlink="http://www.w3.org/1999/xlink" width="320.42712" height="323.5" viewBox="0,0,320.42712,323.5"><g transform="translate(-159.78644,-18.25)"><g data-paper-data="{&quot;isPaintingLayer&quot;:true}" fill-rule="nonzero" stroke-linejoin="miter" stroke-miterlimit="10" stroke-dasharray="" stroke-dashoffset="0" style="mix-blend-mode: normal"><path d="M466.96356,180c0,82.01429 -65.79783,148.5 -146.96356,148.5c-81.16573,0 -146.96356,-66.48571 -146.96356,-148.5c0,-82.01429 65.79783,-148.5 146.96356,-148.5c81.16573,0 146.96356,66.48571 146.96356,148.5z" fill="#60a040" stroke="#29441b" stroke-width="26.5" stroke-linecap="butt"/><path d="M319.43541,187.39019c-1.57552,4.27108 -3.06725,-3.58997 -4.27823,-8.05758c-5.93591,-21.89922 9.99768,-56.59097 16.47953,-77.20789c4.72964,-15.04363 20.18663,-4.80686 13.28424,-1.04014c-19.3065,5.88088 -16.58529,62.17803 -25.48554,86.30561z" fill="#f6d972" stroke="none" stroke-width="1.72767" stroke-linecap="round"/><path d="M326.4835,231.84557c0,-27.43273 21.68379,-49.67135 48.4321,-49.67135c26.74831,0 48.4321,22.23862 48.4321,49.67135c0,27.43273 -21.68379,49.67135 -48.4321,49.67135c-26.74831,0 -48.4321,-22.23862 -48.4321,-49.67135z" fill="#d793d3" stroke="none" stroke-width="1.20167" stroke-linecap="round"/><path d="M296.88192,101.08458c-6.9024,-3.76672 8.5546,-14.00349 13.28423,1.04014c6.48186,20.61692 22.41544,55.30867 16.47953,77.20789c-1.21098,4.46762 -2.70271,12.32866 -4.27823,8.05758c-8.90025,-24.12758 -6.17904,-80.42473 -25.48554,-86.30561z" fill="#f6d972" stroke="none" stroke-width="1.72767" stroke-linecap="round"/><g fill="#d793d3" stroke="none" stroke-linecap="round"><path d="M206.66475,162.24475c0,-30.70784 24.80595,-55.60146 55.40564,-55.60146c30.59969,0 55.40564,24.89362 55.40564,55.60146c0,30.70784 -24.80595,55.60146 -55.40564,55.60146c-30.59969,0 -55.40564,-24.89362 -55.40564,-55.60146z" stroke-width="1.35983"/><path d="M226.92288,233.71824c0,-26.39848 20.33437,-47.79868 45.41809,-47.79868c25.08372,0 45.41808,21.4002 45.41808,47.79868c0,26.39848 -20.33436,47.79868 -45.41808,47.79868c-25.08372,0 -45.41809,-21.4002 -45.41809,-47.79868z" stroke-width="1.14153"/></g><g fill="#e3b4e0" stroke="none" stroke-linecap="round"><path d="M213.72702,165.11714c0,-28.15006 23.22903,-50.97019 51.8835,-50.97019c28.65447,0 51.88351,22.82013 51.88351,50.97019c0,28.15006 -23.22904,50.97019 -51.88351,50.97019c-28.65447,0 -51.8835,-22.82013 -51.8835,-50.97019z" stroke-width="1.35983"/><path d="M232.69734,230.63731c0,-24.19965 19.04171,-43.81733 42.53085,-43.81733c23.48914,0 42.53086,19.61769 42.53086,43.81733c0,24.19965 -19.04171,43.81733 -42.53086,43.81733c-23.48914,0 -42.53085,-19.61769 -42.53085,-43.81733z" stroke-width="1.14153"/></g><path d="M320.6513,162.24476c0,-30.70784 25.22516,-55.60146 56.34197,-55.60146c31.11682,0 56.34197,24.89362 56.34197,55.60146c0,30.70784 -25.22516,55.60146 -56.34197,55.60146c-31.11682,0 -56.34197,-24.89362 -56.34197,-55.60146z" fill="#d793d3" stroke="none" stroke-width="1.37127" stroke-linecap="round"/><g fill="#e3b4e0" stroke="none" stroke-linecap="round"><path d="M377.66893,216.08733c-28.65447,0 -51.8835,-22.82013 -51.8835,-50.97019c0,-28.15006 23.22903,-50.97018 51.8835,-50.97018c28.65447,0 51.88351,22.82013 51.88351,50.97018c0,28.15006 -23.22904,50.97019 -51.88351,50.97019z" stroke-width="1.35983"/><path d="M371.14101,274.89603c-25.19556,0 -45.6206,-19.7165 -45.6206,-44.03803c0,-24.32153 20.42504,-44.03803 45.6206,-44.03803c25.19556,0 45.6206,19.7165 45.6206,44.03803c0,24.32153 -20.42504,44.03803 -45.6206,44.03803z" stroke-width="1.18524"/></g><path d="M309.6644,134.99522c3.80215,-12.33171 23.49171,-14.01031 26.98485,-1.47215c8.90602,31.96708 4.23635,101.46342 -5.65199,135.52056c-2.0173,6.94794 -12.44735,5.0487 -15.07194,-0.7108c-16.7302,-36.71338 -15.39525,-103.71179 -6.26092,-133.33761z" fill="#f6d972" stroke="none" stroke-width="2.78079" stroke-linecap="round"/><path d="M285.69621,92.26217c0,-7.60969 5.80172,-13.77856 12.95852,-13.77856c7.15679,0 12.95852,6.16887 12.95852,13.77856c0,7.60969 -5.80173,13.77856 -12.95852,13.77856c-7.15679,0 -12.95852,-6.16887 -12.95852,-13.77856z" fill="#e3b4e0" stroke="none" stroke-width="0.32738" stroke-linecap="round"/><path d="M324.4228,92.26164c0,-7.60969 5.80173,-13.77856 12.95852,-13.77856c7.15679,0 12.95852,6.16887 12.95852,13.77856c0,7.60969 -5.80173,13.77856 -12.95852,13.77856c-7.15679,0 -12.95852,-6.16887 -12.95852,-13.77856z" fill="#e3b4e0" stroke="none" stroke-width="0.32738" stroke-linecap="round"/><g stroke="#000000" stroke-width="0.26459" stroke-linecap="butt"><path d="M313.53246,138.1528c0,-2.27748 1.46097,-4.12375 3.26317,-4.12375c1.8022,0 3.26316,1.84627 3.26316,4.12375c0,2.27748 -1.46097,4.12375 -3.26316,4.12375c-1.8022,0 -3.26317,-1.84627 -3.26317,-4.12375z" fill="#000000"/><path d="M315.51835,136.68083c0,-0.65071 0.47482,-1.17821 1.06053,-1.17821c0.58571,0 1.06053,0.52751 1.06053,1.17821c0,0.65071 -0.47481,1.17821 -1.06053,1.17821c-0.58571,0 -1.06053,-0.52751 -1.06053,-1.17821z" fill="#ffffff"/></g><path d="M328.36027,142.27655c-1.8022,0 -3.26316,-1.84627 -3.26316,-4.12375c0,-2.27748 1.46097,-4.12375 3.26316,-4.12375c1.8022,0 3.26317,1.84627 3.26317,4.12375c0,2.27748 -1.46097,4.12375 -3.26317,4.12375z" fill="#000000" stroke="#000000" stroke-width="0.26459" stroke-linecap="butt"/><path d="M328.57702,137.85905c-0.58571,0 -1.06053,-0.52751 -1.06053,-1.17821c0,-0.65071 0.47481,-1.17821 1.06053,-1.17821c0.58571,0 1.06053,0.52751 1.06053,1.17821c0,0.65071 -0.47482,1.17821 -1.06053,1.17821z" fill="#ffffff" stroke="#000000" stroke-width="0.26459" stroke-linecap="butt"/><path d="M320.70017,146.93098c11.48341,-0.91306 0.66206,3.5552 0,0z" fill="#000000" stroke="#000000" stroke-width="0.86154" stroke-linecap="butt"/><path d="M309.71644,146.57605c0,-1.44364 1.20524,-2.61393 2.69196,-2.61393c1.48673,0 2.69196,1.1703 2.69196,2.61393c0,1.44364 -1.20523,2.61393 -2.69196,2.61393c-1.48673,0 -2.69196,-1.1703 -2.69196,-2.61393z" fill="#dc9494" stroke="none" stroke-width="5.42747" stroke-linecap="round"/><path d="M329.82849,146.57605c0,-1.44364 1.20523,-2.61393 2.69196,-2.61393c1.48673,0 2.69196,1.1703 2.69196,2.61393c0,1.44364 -1.20524,2.61393 -2.69196,2.61393c-1.48673,0 -2.69196,-1.1703 -2.69196,-2.61393z" fill="#dc9494" stroke="none" stroke-width="5.42747" stroke-linecap="round"/></g></g></svg>