<svg version="1.1" xmlns="http://www.w3.org/2000/svg" xmlns:xlink="http://www.w3.org/1999/xlink" width="154.9096" height="173.92545" viewBox="0,0,154.9096,173.92545"><g transform="translate(-246.73606,-65.92497)"><g data-paper-data="{&quot;isPaintingLayer&quot;:true}" fill-rule="nonzero" stroke-linecap="butt" stroke-linejoin="miter" stroke-miterlimit="10" stroke-dasharray="" stroke-dashoffset="0" style="mix-blend-mode: normal"><path d="M279.50234,113.75276c1.71979,-19.14188 27.10959,-27.53814 44.11175,-29.36335c11.189,-1.20114 25.33654,2.39924 31.74711,12.7994c9.59567,15.56755 10.99382,45.3451 -0.66834,56.85226c-4.1545,4.0993 8.82916,11.57828 12.30194,19.27139c4.6898,10.38909 1.72119,24.91798 -1.94238,33.80068c-6.74264,16.34823 -26.15026,27.33965 -42.10666,25.97526c-18.58282,-1.58896 -43.36086,-17.28263 -44.42219,-38.2423c-0.40512,-8.00018 8.2999,-15.81504 15.37227,-16.67419c11.17431,-1.35744 17.67295,22.92219 28.71573,19.90633c8.8619,-2.42025 13.6423,-24.92256 7.68616,-25.22234c-8.02238,-0.40378 -21.37371,-0.8769 -26.26179,-9.66969c-2.30978,-4.15486 -0.7385,-10.56449 1.76877,-14.57141c5.16517,-8.25452 20.14288,-4.77163 23.87216,-13.95553c2.02624,-4.9899 1.08035,-13.83148 -3.38928,-16.01264c-9.0649,-4.42361 -15.91067,17.76512 -25.73187,16.56394c-9.40857,-1.1507 -22.0063,-10.85101 -21.05334,-21.45782z" fill="#ff950b" stroke="#ffffff" stroke-width="7.5"/><path d="M246.73606,239.85042v-173.92545h154.9096v173.92545z" fill="none" stroke="none" stroke-width="0"/></g></g></svg>