<svg version="1.1" xmlns="http://www.w3.org/2000/svg" xmlns:xlink="http://www.w3.org/1999/xlink" width="178.38287" height="170.15557" viewBox="0,0,178.38287,170.15557"><g transform="translate(-231.55651,-96.60508)"><g data-paper-data="{&quot;isPaintingLayer&quot;:true}" fill-rule="nonzero" stroke-linecap="butt" stroke-linejoin="miter" stroke-miterlimit="10" stroke-dasharray="" stroke-dashoffset="0" style="mix-blend-mode: normal"><path d="M338.68495,127.37312c11.15871,5.15799 19.39685,18.65918 19.89224,31.89498c0.89466,23.90347 -21.8558,50.85708 -35.15192,70.8463c-5.10296,7.6717 -22.58111,8.69295 -26.97667,0.56496c-6.74796,-12.4779 22.34413,-36.1296 22.34413,-36.1296c0,0 -25.68391,-0.59941 -31.51032,-9.3627c-9.01756,-13.56293 -7.51933,-37.98409 3.44381,-49.91068c6.97642,-7.5895 18.19218,-11.44925 29.23165,-11.60791c6.62368,-0.09522 13.18378,1.14234 18.72709,3.70465zM305.98589,162.79578c-0.00034,6.78112 5.36743,12.27855 11.98921,12.27883c6.62215,0.00028 11.99051,-5.49733 11.99017,-12.27883c-0.00019,-6.78111 -5.3684,-12.27812 -11.99017,-12.27784c-6.62139,0.00028 -11.98902,5.49711 -11.98921,12.27784z" fill="#fd9b9b" stroke="#ffffff" stroke-width="7.5"/><path d="M231.55651,266.76065v-170.15557h178.38287v170.15557z" fill="none" stroke="#000000" stroke-width="0"/></g></g></svg>