<svg version="1.1" xmlns="http://www.w3.org/2000/svg" xmlns:xlink="http://www.w3.org/1999/xlink" width="204.59417" height="297.22955" viewBox="0,0,204.59417,297.22955"><defs><linearGradient x1="222.86283" y1="236.90176" x2="415.73705" y2="146.37198" gradientUnits="userSpaceOnUse" id="color-1"><stop offset="0" stop-color="#ff9900"/><stop offset="1" stop-color="#ab2100"/></linearGradient><linearGradient x1="222.86284" y1="236.90176" x2="415.73705" y2="146.37198" gradientUnits="userSpaceOnUse" id="color-2"><stop offset="0" stop-color="#000000"/><stop offset="1" stop-color="#000000" stop-opacity="0"/></linearGradient></defs><g transform="translate(-214.89515,-20.15421)"><g data-paper-data="{&quot;isPaintingLayer&quot;:true}" fill-rule="nonzero" stroke-miterlimit="10" stroke-dasharray="" stroke-dashoffset="0" style="mix-blend-mode: normal"><path d="M296.17939,65.41287c31.39132,-18.52224 58.7302,-13.67788 83.87338,17.93057c25.14318,31.60846 48.08766,89.97723 36.21547,135.3735c-11.87221,45.39627 -58.5596,77.81454 -94.43392,91.41884c-35.87431,13.6043 -60.93111,8.39298 -80.45024,-18.48105c-19.51913,-26.87401 -33.49846,-75.40841 -22.76757,-120.62027c10.73088,-45.21186 46.17158,-87.09935 77.56288,-105.62159z" fill="url(#color-1)" stroke="url(#color-2)" stroke-width="0" stroke-linecap="round" stroke-linejoin="bevel" style="mix-blend-mode: lighten"/><path d="M333.13324,73.71694l-0.08656,-51.34344c0,0 7.35149,-3.96195 10.06493,-1.29854c12.87863,12.64118 -1.15023,51.92396 -1.15023,51.92396z" fill="#502d16" stroke="#000000" stroke-width="0" stroke-linecap="round" stroke-linejoin="bevel"/><path d="M401.78013,63.99781c3.78989,7.88471 -0.68375,11.39955 -18.84855,9.82159c-18.16481,-1.57797 -25.27702,-3.51998 -35.99378,-13.29595c-10.71676,-9.77597 7.15708,-18.59493 22.59945,-17.25347c15.44236,1.34146 28.45297,12.84312 32.24288,20.72783z" fill="#008000" stroke="#000000" stroke-width="0" stroke-linecap="round" stroke-linejoin="bevel"/><path d="M356.8889,160.87002c-0.02789,9.93945 -5.19315,19.38931 -14.18044,25.94305c13.30289,7.1412 21.27851,19.0816 21.27982,31.85826c0.00004,21.22056 -21.59983,38.42334 -48.24486,38.42355c-12.7956,0.00013 -25.06719,-4.04797 -34.11509,-11.25381c-9.0479,-7.20585 -14.13098,-16.9791 -14.13094,-27.16973c0.02736,-12.57042 7.77368,-24.33531 20.74137,-31.50154c-9.25975,-6.56918 -14.59778,-16.17891 -14.60918,-26.29979c0.0005,-19.1164 18.6382,-34.61314 41.62908,-34.61346c22.99129,-0.0002 41.6297,15.4967 41.63022,34.61346zM302.35066,166.17031c-0.00004,7.04302 6.21257,12.75258 13.87635,12.75272c3.68046,0.00021 7.21029,-1.34327 9.81286,-3.73488c2.60256,-2.39163 4.06466,-5.63545 4.06466,-9.01781c0.00002,-3.38238 -1.46209,-6.62618 -4.06466,-9.0178c-2.60256,-2.39163 -6.13239,-3.7351 -9.81286,-3.73487c-7.66378,0.00013 -13.8764,5.70966 -13.87635,12.75266zM299.76925,213.20499c-0.0002,4.17291 1.83566,8.17494 5.10369,11.1257c3.26804,2.95078 7.7005,4.60856 12.32234,4.60864c4.62184,-0.00012 9.05431,-1.65788 12.32234,-4.60864c3.26804,-2.95078 5.10389,-6.95281 5.1037,-11.1257c-0.00036,-8.68913 -7.8021,-15.73299 -17.42605,-15.73318c-9.62397,0.0002 -17.42567,7.04403 -17.42603,15.73318z" fill="#a6a5e7" stroke="#ffffff" stroke-width="6.5" stroke-linecap="butt" stroke-linejoin="miter"/></g></g></svg>