<svg version="1.1" xmlns="http://www.w3.org/2000/svg" xmlns:xlink="http://www.w3.org/1999/xlink" width="137.88154" height="143.38385" viewBox="0,0,137.88154,143.38385"><g transform="translate(-245.709,-116.1442)"><g data-paper-data="{&quot;isPaintingLayer&quot;:true}" fill-rule="nonzero" stroke="#ffffff" stroke-linejoin="miter" stroke-miterlimit="10" stroke-dasharray="" stroke-dashoffset="0" style="mix-blend-mode: normal"><path d="M245.70901,259.52806v-143.38385h137.88154v143.38385z" fill="none" stroke-width="0" stroke-linecap="butt"/><path d="M282.05609,162.33694c-6.55671,-13.07453 -2.67462,-16.27748 21.22895,-30.14033c6.63895,-3.85024 30.70615,-14.94688 30.97694,-3.9858c0.63428,25.67404 0,99.6585 0,99.6585c0,0 12.31235,-1.11017 17.763,1.37001c7.59511,3.45596 5.82622,22.57359 -1.51635,23.29026c-21.30935,2.07988 -36.84479,0.58483 -63.47023,0.45665c-7.95454,-0.03829 -8.2276,-21.30851 -1.08311,-24.43192c5.5574,-2.42955 19.92922,-0.91335 19.92922,-0.91335l-0.21662,-63.47737c0,0 -19.07151,7.22696 -23.61179,-1.82668z" fill="#ff3535" stroke-width="5.5" stroke-linecap="round"/></g></g></svg>