<svg version="1.1" xmlns="http://www.w3.org/2000/svg" xmlns:xlink="http://www.w3.org/1999/xlink" width="11.74627" height="303.69758" viewBox="0,0,11.74627,303.69758"><g transform="translate(-314.12687,-28.15121)"><g data-paper-data="{&quot;isPaintingLayer&quot;:true}" fill-rule="nonzero" stroke="#7802ff" stroke-width="0" stroke-linecap="round" stroke-linejoin="round" stroke-miterlimit="10" stroke-dasharray="" stroke-dashoffset="0" style="mix-blend-mode: normal"><path d="M320.26461,96.08381c0.44594,54.55136 -0.02218,234.07506 -0.02218,234.07506l-0.7177,1.68944c0,0 -0.09978,-186.21545 0.46781,-237.12272c0.07492,-6.71936 0.21195,-5.99634 0.27207,1.35822z" fill="#6b9b1f"/><path d="M325.6978,244.89262c-0.65601,36.88869 -3.37465,69.32765 -5.74235,67.87846c-2.51162,-1.53727 -5.22285,-39.38939 -5.73875,-79.24521c-0.96387,-74.46289 6.14686,-205.37466 6.14686,-205.37466c0,0 6.66336,142.00278 5.33424,216.74141z" fill="#85c227"/><g fill="#6b9b1f"><path d="M320.26464,96.0843c0.44594,54.55135 -0.02218,234.07506 -0.02218,234.07506l-0.7177,1.68943c0,0 -0.09978,-186.21544 0.46781,-237.12272c0.07492,-6.71935 0.21195,-5.99633 0.27207,1.35823z"/><path d="M319.87614,253.90833l-0.15108,12.35147c0,0 -2.48782,-8.73752 -3.02419,-21.28505c-0.0708,-1.65619 -0.02812,-3.95581 0.08372,-4.57015c0.8295,-4.55683 3.09155,13.50373 3.09155,13.50373z"/><path d="M320.46727,151.80072l-0.15108,12.35147c0,0 -2.48782,-8.73751 -3.02419,-21.28507c-0.0708,-1.65617 -0.02812,-3.95579 0.08372,-4.57013c0.8295,-4.55682 3.09155,13.50373 3.09155,13.50373z"/><path d="M322.99144,185.25063c0.11183,0.61434 0.15451,2.91396 0.08372,4.57014c-0.53637,12.54754 -3.02419,21.28507 -3.02419,21.28507l-0.15108,-12.35148c0,0 2.26205,-18.06056 3.09155,-13.50373z"/></g></g></g></svg>