<svg version="1.1" xmlns="http://www.w3.org/2000/svg" xmlns:xlink="http://www.w3.org/1999/xlink" width="320.42712" height="323.5" viewBox="0,0,320.42712,323.5"><g transform="translate(-159.78644,-18.25)"><g data-paper-data="{&quot;isPaintingLayer&quot;:true}" fill-rule="nonzero" stroke-linecap="butt" stroke-linejoin="miter" stroke-miterlimit="10" stroke-dasharray="" stroke-dashoffset="0" style="mix-blend-mode: normal"><path d="M466.96356,180c0,82.01429 -65.79783,148.5 -146.96356,148.5c-81.16573,0 -146.96356,-66.48571 -146.96356,-148.5c0,-82.01429 65.79783,-148.5 146.96356,-148.5c81.16573,0 146.96356,66.48571 146.96356,148.5z" fill="#60a040" stroke="#29441b" stroke-width="26.5"/><g><path d="M309.87162,116.37919c-4.27756,-26.01855 7.7722,-5.73564 33.44354,-26.92726c6.05995,-5.33817 12.87638,19.8293 5.62926,22.35874c42.46911,9.62978 -52.85775,44.88297 -39.07279,4.56852z" fill="#d3613a" stroke="#d3613a" stroke-width="0.32171"/><path d="M234.15945,175.58201c-3.53693,-12.61695 17.57787,-49.08485 36.25749,-60.16771c18.15656,-10.77252 43.7761,-22.65333 55.36347,-34.93732c5.60171,-5.9385 14.93524,17.90689 8.01754,21.41543c43.19685,3.70833 -88.0902,114.88474 -99.6385,73.6896z" fill="#d3613a" stroke="#d3613a" stroke-width="0.32171"/><g><path d="M390.89447,184.9593c2.71203,-17.16105 14.49317,-29.54075 26.31391,-27.65085c11.82074,1.88991 19.20481,17.33376 16.49278,34.49481c-2.71203,17.16105 -14.49317,29.54076 -26.31391,27.65085c-11.82074,-1.88991 -19.20481,-17.33376 -16.49278,-34.49482z" fill="#d3613a" stroke="#d3613a" stroke-width="0.3288"/><path d="M393.62457,184.60239c1.7931,-12.62246 9.91235,-21.66246 18.13486,-20.19141c8.22251,1.47105 13.43458,12.89609 11.64148,25.51855c-1.7931,12.62246 -9.91235,21.66246 -18.13486,20.19141c-8.22251,-1.47105 -13.43458,-12.89609 -11.64148,-25.51855z" fill="#f9d6b6" stroke="#f9d6b6" stroke-width="0.23513"/></g><g><path d="M232.61274,219.45412c-11.82074,1.88991 -23.60187,-10.4898 -26.3139,-27.65085c-2.71203,-17.16105 4.67204,-32.6049 16.49278,-34.49481c11.82074,-1.88991 23.60187,10.4898 26.3139,27.65085c2.71203,17.16105 -4.67204,32.6049 -16.49278,34.49481z" fill="#d3613a" stroke="#d3613a" stroke-width="0.3288"/><path d="M234.73395,210.12096c-8.22251,1.47105 -16.34176,-7.56895 -18.13486,-20.19141c-1.7931,-12.62246 3.41897,-24.0475 11.64148,-25.51855c8.22251,-1.47105 16.34176,7.56895 18.13486,20.1914c1.7931,12.62246 -3.41897,24.0475 -11.64148,25.51855z" fill="#f9d6b6" stroke="#f9d6b6" stroke-width="0.23513"/></g><path d="M229.00706,198.26229c-3.01098,-49.13565 35.17603,-92.12215 85.29307,-96.01301c50.11704,-3.89086 93.18582,32.7873 96.19679,81.92295c3.01098,49.13565 -35.17603,92.12215 -85.29307,96.01301c-50.11704,3.89086 -93.18582,-32.7873 -96.19679,-81.92295z" fill="#d3613a" stroke="#d3613a" stroke-width="0.38246"/><g fill="#f9d6b6" stroke="#f9d6b6" stroke-width="0.23715"><path d="M269.61961,251.43202c-28.67682,-25.57724 -39.46599,-67.89676 -24.09826,-94.52327c15.36772,-26.62652 51.07289,-27.47712 79.74971,-1.89988c28.67682,25.57724 39.46598,67.89676 24.09826,94.52327c-15.36772,26.62652 -51.07288,27.47712 -79.7497,1.89988z"/><path d="M287.92203,247.74459c-14.19005,-27.62971 -1.39119,-69.55523 28.58705,-93.64328c29.97824,-24.08804 65.78373,-21.21697 79.97378,6.41274c14.19005,27.62971 1.39119,69.55523 -28.58705,93.64328c-29.97824,24.08804 -65.78373,21.21697 -79.97378,-6.41274z"/></g><path d="M286.93547,240.62144c17.84041,6.84515 36.3376,15.52435 68.76615,-1.80702c-22.55049,13.14792 -45.50234,12.74425 -68.76615,1.80702z" fill="#ffffff" stroke="#92391b" stroke-width="0.32171"/><path d="M319.20521,230.7187c0.04056,5.42027 0.23633,11.20509 0.55071,17.67238c-0.08599,-0.02199 -0.17266,-0.02705 -0.25877,-0.02065c-0.05138,0.00352 -0.10195,0.01024 -0.15253,0.02465c-0.26723,-5.84964 -0.39447,-11.71334 -0.33365,-17.67667z" fill="#ffffff" stroke="#92391b" stroke-width="0.32171"/><g fill="#92391b" stroke="#92391b" stroke-width="0.23715"><path d="M313.73353,231.01573c-3.34619,-2.46733 -4.76895,-6.52864 -3.17783,-9.0712c1.59113,-2.54255 5.59361,-2.60353 8.9398,-0.1362c3.34619,2.46733 4.76895,6.52864 3.17783,9.0712c-1.59113,2.54255 -5.59361,2.60353 -8.9398,0.1362z"/><path d="M314.77393,230.87957c-1.59113,-2.54255 -0.16836,-6.60387 3.17783,-9.0712c3.34619,-2.46733 7.34867,-2.40635 8.9398,0.1362c1.59113,2.54255 0.16836,6.60387 -3.17783,9.0712c-3.34619,2.46733 -7.34867,2.40635 -8.9398,-0.1362z"/></g><g><path d="M297.09205,208.29463c-8.98393,9.73354 -23.0563,8.71943 -31.43152,-2.26506c-8.37522,-10.98449 -7.88177,-27.77978 1.10216,-37.51332c8.98393,-9.73354 23.0563,-8.71944 31.43152,2.26505c8.37522,10.98449 7.88177,27.77979 -1.10216,37.51332z" fill="#ffffff" stroke="#ffffff" stroke-width="0.90331"/><path d="M267.32495,190.16652c0,-8.61984 6.65075,-15.6076 14.85489,-15.6076c8.20413,0 14.85489,6.98776 14.85489,15.6076c0,8.61984 -6.65076,15.6076 -14.85489,15.6076c-8.20413,0 -14.85489,-6.98775 -14.85489,-15.6076z" fill="#690400" stroke="#690400" stroke-width="0.16561"/><path d="M284.69883,182.02672c0,-4.27643 2.87314,-7.74317 6.41734,-7.74317c3.5442,0 6.41735,3.46674 6.41735,7.74317c0,4.27643 -2.87315,7.74316 -6.41735,7.74316c-3.5442,0 -6.41734,-3.46673 -6.41734,-7.74316z" fill="#ffffff" stroke="#ffffff" stroke-width="0.3191"/></g><path d="M335.33667,170.78132c8.37522,-10.98449 22.44759,-11.99859 31.43152,-2.26505c8.98393,9.73354 9.47739,26.52882 1.10217,37.51332c-8.37522,10.98449 -22.4476,11.9986 -31.43153,2.26506c-8.98393,-9.73354 -9.47739,-26.52883 -1.10216,-37.51332z" fill="#ffffff" stroke="#ffffff" stroke-width="1.10582"/><path d="M351.35104,205.77412c-8.20412,0 -14.85489,-6.98775 -14.85489,-15.6076c0,-8.61984 6.65076,-15.6076 14.85489,-15.6076c8.20412,0 14.85489,6.98776 14.85489,15.6076c0,8.61984 -6.65076,15.6076 -14.85489,15.6076z" fill="#690400" stroke="#690400" stroke-width="0.20136"/><path d="M342.41471,189.76988c-3.5442,0 -6.41734,-3.46673 -6.41734,-7.74316c0,-4.27643 2.87314,-7.74316 6.41734,-7.74316c3.5442,0 6.41734,3.46673 6.41734,7.74316c0,4.27643 -2.87314,7.74316 -6.41734,7.74316z" fill="#ffffff" stroke="#ffffff" stroke-width="0.388"/></g></g></g></svg>