<svg version="1.1" xmlns="http://www.w3.org/2000/svg" xmlns:xlink="http://www.w3.org/1999/xlink" width="54.25002" height="93.77385" viewBox="0,0,54.25002,93.77385"><g transform="translate(-292.87499,-133.0968)"><g data-paper-data="{&quot;isPaintingLayer&quot;:true}" fill-rule="nonzero" stroke-linecap="butt" stroke-linejoin="miter" stroke-miterlimit="10" stroke-dasharray="" stroke-dashoffset="0" style="mix-blend-mode: normal"><g><path d="M319.61649,163.36831c0.06616,-0.38883 3.4664,-1.6861 4.166,1.03224c2.06465,8.02283 1.20477,44.8941 6.20318,51.57832c0.66032,0.88303 -6.06456,3.89688 -6.27044,1.88757c-0.22129,-2.1597 -6.69086,-39.26475 -4.09875,-54.49813z" fill="#7ea723" stroke="#7ea723" stroke-width="0.25419"/><path d="M322.43446,218.21513c2.83763,-9.18314 18.5669,-15.38183 18.5669,-15.38183c0,0 -7.86608,21.22693 -13.60202,23.66407c-3.33282,1.41609 -6.51048,-3.28037 -4.96488,-8.28224z" fill="#7ea723" stroke="#7ea723" stroke-width="0.23474"/><path d="M322.09129,226.29373c-5.5559,-2.73491 -11.93107,-24.33736 -11.93107,-24.33736c0,0 15.26926,7.01609 17.46293,16.3319c1.19485,5.07413 -2.30365,9.59454 -5.53186,8.00546z" fill="#7ea723" stroke="#7ea723" stroke-width="0.23474"/><path d="M315.45122,161.14751c1.26776,-9.34962 20.4256,-29.80215 20.16726,-22.65868c-0.25834,7.14347 -5.44207,28.20749 -12.16055,32.27936c-3.90372,2.36594 -9.27447,-0.27106 -8.00671,-9.62068z" fill="#ff2400" stroke="#ff2400" stroke-width="0.29982"/><path d="M319.92352,163.07024c5.71457,-11.15602 28.78439,-23.74578 26.94778,-16.39436c-1.83661,7.35143 -14.85313,25.57039 -22.63745,27.70435c-4.52301,1.23993 -7.42293,-5.23355 -4.31033,-11.30999z" fill="#ff2400" stroke="#ff2400" stroke-width="0.29982"/><path d="M314.37097,168.24015c-4.10515,-6.10127 -0.24271,-42.32239 4.77913,-33.66335c3.7032,6.38533 11.6505,16.21104 7.20742,27.79133c-2.42005,6.30754 -9.60129,9.41712 -11.98655,5.87202z" fill="#ff2400" stroke="#ff2400" stroke-width="0.29982"/><path d="M320.88037,174.65875c-8.06862,-0.81734 -24.36069,-16.60216 -27.57322,-23.53424c-3.21252,-6.93208 21.89736,1.65625 29.65346,11.69349c4.22457,5.46708 2.60796,12.31566 -2.08024,11.84075z" fill="#ff2400" stroke="#ff2400" stroke-width="0.29982"/><path d="M318.66314,171.16641c-7.39009,-2.90013 -16.51748,-22.77557 -18.13704,-29.76308c-1.61956,-6.98751 21.14325,9.98342 24.17786,18.97572c3.03461,8.9923 -1.74687,12.47246 -6.04082,10.78736z" fill="#ff2400" stroke="#ff2400" stroke-width="0.29982"/></g></g></g></svg>