<svg version="1.1" xmlns="http://www.w3.org/2000/svg" xmlns:xlink="http://www.w3.org/1999/xlink" width="320.42712" height="323.5" viewBox="0,0,320.42712,323.5"><g transform="translate(-159.78644,-18.25)"><g data-paper-data="{&quot;isPaintingLayer&quot;:true}" fill-rule="nonzero" stroke-miterlimit="10" stroke-dasharray="" stroke-dashoffset="0" style="mix-blend-mode: normal"><path d="M466.96356,180c0,82.01429 -65.79783,148.5 -146.96356,148.5c-81.16573,0 -146.96356,-66.48571 -146.96356,-148.5c0,-82.01429 65.79783,-148.5 146.96356,-148.5c81.16573,0 146.96356,66.48571 146.96356,148.5z" fill="#60a040" stroke="#29441b" stroke-width="26.5" stroke-linecap="butt" stroke-linejoin="miter"/><path d="M261.45249,127.00529c6.50567,-8.31254 13.14874,-15.05625 19.3658,-19.52332c6.21706,-4.46707 12.00812,-6.65751 16.46946,-8.39748c4.46134,-1.73996 7.59283,-3.0294 13.85604,-3.67413c6.26321,-0.64474 15.65769,-0.64474 24.13138,1.19739c8.47369,1.84213 16.02611,5.52625 23.71693,10.546c7.69082,5.01977 15.52227,11.37708 21.9085,19.46528c6.38621,8.0882 11.33304,17.9127 14.42001,25.88263c3.08694,7.96993 4.30993,14.07715 3.65499,20.17026c-0.65496,6.09311 -3.18776,12.17185 -5.2141,17.42192c-2.02633,5.25006 -3.54602,9.671 -1.49664,13.72364c2.04938,4.05264 7.66753,7.73667 11.35179,14.6907c3.68426,6.95403 5.43415,17.17723 2.89313,19.67823c-2.54104,2.50101 -9.37269,-2.72048 -17.39406,-6.16034c-8.02137,-3.43986 -17.23142,-5.09767 -24.59184,-4.55916c-7.36042,0.53851 -12.87039,3.27333 -16.1241,7.8431c-3.25372,4.56977 -4.25103,10.97407 -3.23785,15.39517c1.01317,4.42112 4.03675,6.85856 7.85124,5.59044c3.81449,-1.26812 8.41962,-6.24168 12.28804,-9.09693c3.86842,-2.85525 6.99992,-3.59207 8.38149,-2.48679c1.38157,1.1053 1.01316,4.05258 -1.01318,8.28945c-2.02634,4.23685 -5.71045,9.76302 -6.9999,16.71699c-1.28945,6.95399 -0.18425,15.33516 -1.19742,19.89443c-1.01317,4.55928 -4.14461,5.29608 -7.59859,1.28945c-3.45398,-4.00661 -7.23013,-12.75623 -13.40126,-17.77602c-6.17113,-5.01979 -14.73668,-6.30923 -21.13799,-8.95729c-6.40132,-2.64804 -10.63803,-6.65451 -14.78274,-10.4308c-4.14471,-3.77628 -8.19732,-7.32232 -12.24991,-10.86834c-6.81574,-6.44732 -13.63147,-12.89464 -20.7236,-15.10513c-7.09212,-2.21049 -14.46035,-0.18423 -20.63141,2.21052c-6.17106,2.39475 -11.1446,5.15783 -14.55248,7.09204c-3.40789,1.93421 -5.24995,3.03944 -5.89467,0.55255c-0.64473,-2.48688 -0.09212,-8.56567 1.56579,-13.90778c1.65791,-5.34211 4.42099,-9.94726 7.46048,-13.26304c3.03949,-3.31578 6.35517,-5.34204 6.35515,-9.11838c-0.00004,-3.77634 -3.31574,-9.3025 -5.80257,-14.55252c-2.48683,-5.25002 -4.14465,-10.22346 -4.1512,-15.46044c-0.00663,-5.23697 1.63222,-10.7169 5.65338,-18.43568c4.02116,-7.71877 10.36623,-17.56411 16.87192,-25.87665z" fill="#4790cd" stroke="#62565b" stroke-width="0" stroke-linecap="round" stroke-linejoin="bevel"/><path d="M321.13704,61.60402c4.99668,11.99662 9.99334,23.99325 14.99002,35.98987c-2.76314,-0.27632 -5.52622,-0.55263 -8.79596,-0.875c-3.26974,-0.32237 -7.04595,-0.69077 -11.05254,-0.59868c-4.00658,0.09211 -8.2434,0.64473 -12.48021,1.19736z" fill="#4790cd" stroke="#62565b" stroke-width="0" stroke-linecap="round" stroke-linejoin="bevel"/><path d="M248.86314,200.5593c5.95919,7.45713 11.91838,14.91426 16.62389,19.57091c4.70552,4.65665 8.15721,6.51275 11.60899,8.3689c-8.96202,1.12529 -17.92384,2.25056 -24.59958,3.92763c-6.67573,1.67707 -11.06481,3.90582 -13.12915,5.99714c-2.06434,2.09132 -1.80383,4.04514 -1.54332,5.99898c-1.95383,-1.30256 -3.90767,-2.60511 -4.85202,-5.30796c-0.94435,-2.70286 -0.87923,-6.80574 0.03091,-10.96737c0.91014,-4.16162 2.66524,-8.38162 4.81444,-11.63797c2.1492,-3.25636 4.69249,-5.54908 6.59918,-8.0469c1.90669,-2.49782 3.17667,-5.20057 4.44666,-7.90337z" fill="#4790cd" stroke="#62565b" stroke-width="0" stroke-linecap="round" stroke-linejoin="bevel"/><path d="M347.49902,255.71341c2.30386,0.92105 4.60771,1.8421 7.38555,0.07634c2.77784,-1.76573 6.02952,-6.21802 10.30841,-8.74307c4.27887,-2.52507 9.58488,-3.12278 14.89088,-3.72051c-5.95074,8.93543 -11.096,16.6614 -13.69561,27.08204c-2.5996,10.42063 -1.41388,18.5666 -0.04252,27.98777c-4.46684,-3.2117 -8.93368,-6.42338 -11.99748,-9.59228c-3.0638,-3.1689 -4.72453,-6.29498 -6.0011,-8.70989c-1.27657,-2.41491 -2.16888,-4.11844 -3.45255,-5.47427c-1.28367,-1.35583 -2.95872,-2.36394 -4.63374,-3.37202c2.4397,-1.89891 4.87935,-3.7978 6.08573,-6.38687c1.20638,-2.58908 1.17941,-5.86814 1.15243,-9.14729z" fill="#4790cd" stroke="#62565b" stroke-width="0" stroke-linecap="round" stroke-linejoin="bevel"/><path d="M238.78286,173.88306c10.16667,2.68875 11.20787,2.96412 28.84166,0.55713c17.63379,-2.40699 32.95621,-11.91774 50.04361,-12.95322c17.0874,-1.03548 34.29946,6.45917 48.31792,9.88814c14.01846,3.42897 23.59032,2.42809 33.33016,1.40962c-0.9273,5.17693 -1.85462,10.35387 -3.65066,15.15482c-1.79604,4.80095 -4.46074,9.22583 -6.84087,13.01568c-2.38011,3.78985 -4.47542,6.94433 -7.18101,9.76505c-2.70559,2.82073 -6.02129,5.3075 -9.61341,7.7483c-3.59212,2.4408 -7.46042,4.83546 -10.85668,7.02437c-3.39626,2.18891 -6.32024,4.17191 -9.03132,6.93183c-2.71108,2.75992 -5.20895,6.29643 -6.37098,10.09771c-1.16203,3.80128 -0.98805,7.86688 0.54893,10.80913c1.53697,2.94225 3.55619,4.20866 3.82573,8.26426c0.26954,4.05561 -0.66372,5.70824 -6.16947,8.33512c-5.50575,2.62688 -9.4778,2.33784 -14.29079,0.78951c-4.813,-1.54835 -8.58926,-4.21937 -11.945,-6.98439c-3.35574,-2.76503 -6.2909,-5.62403 -10.06719,-8.98583c-3.77629,-3.36183 -8.39362,-7.2264 -13.01523,-11.1111c-4.62161,-3.88468 -9.24711,-7.78916 -14.63533,-11.93395c-5.38823,-4.14479 -11.53855,-8.5294 -17.42684,-14.29397c-5.88829,-5.76457 -11.51418,-12.90881 -15.17234,-19.04175c-3.65816,-6.13294 -5.34862,-11.25457 -6.46081,-15.16709c-1.11219,-3.91253 -1.64615,-6.61596 -2.18009,-9.31939z" fill="#a2d6df" stroke="#62565b" stroke-width="0" stroke-linecap="round" stroke-linejoin="bevel"/><path d="M263.16659,150.62497c0,-6.47443 4.63623,-11.72301 10.35531,-11.72301c5.71908,0 10.35532,5.24858 10.35532,11.72301c0,6.47443 -4.63624,11.723 -10.35532,11.723c-5.71908,0 -10.35531,-5.24857 -10.35531,-11.723z" fill="#000000" stroke="#62565b" stroke-width="0" stroke-linecap="round" stroke-linejoin="bevel"/><path d="M271.57153,146.04196c0,-2.69768 2.01195,-4.88459 4.49382,-4.88459c2.48186,0 4.49382,2.18691 4.49382,4.88459c0,2.69768 -2.01196,4.88458 -4.49382,4.88458c-2.48186,0 -4.49382,-2.1869 -4.49382,-4.88458z" fill="#e6e6e6" stroke="#62565b" stroke-width="0" stroke-linecap="round" stroke-linejoin="bevel"/><path d="M355.41151,149.549c0,-6.47443 4.63624,-11.723 10.35532,-11.723c5.71908,0 10.35531,5.24857 10.35531,11.723c0,6.47443 -4.63623,11.723 -10.35531,11.723c-5.71908,0 -10.35532,-5.24857 -10.35532,-11.723z" fill="#000000" stroke="#62565b" stroke-width="0" stroke-linecap="round" stroke-linejoin="bevel"/><path d="M363.86734,145.12724c0,-2.69768 2.01195,-4.88459 4.49382,-4.88459c2.48186,0 4.49382,2.18691 4.49382,4.88459c0,2.69768 -2.01195,4.88458 -4.49382,4.88458c-2.48186,0 -4.49382,-2.1869 -4.49382,-4.88458z" fill="#e6e6e6" stroke="#62565b" stroke-width="0" stroke-linecap="round" stroke-linejoin="bevel"/><path d="M252.15945,161.57851c0,-2.34115 0.37956,-4.23903 0.8478,-4.23903c0.46824,0 0.84781,1.89788 0.84781,4.23903c0,2.34115 -0.37957,4.23903 -0.84781,4.23903c-0.46824,0 -0.8478,-1.89787 -0.8478,-4.23903z" fill="#000000" stroke="#62565b" stroke-width="0" stroke-linecap="round" stroke-linejoin="bevel"/><path d="M256.37774,156.99285c0,-3.4348 0.61275,-6.21926 1.36861,-6.21926c0.75586,0 1.3686,2.78446 1.3686,6.21926c0,3.4348 -0.61274,6.21926 -1.3686,6.21926c-0.75586,0 -1.36861,-2.78446 -1.36861,-6.21926z" fill="#000000" stroke="#62565b" stroke-width="0" stroke-linecap="round" stroke-linejoin="bevel"/><path d="M248.42831,163.83778c0,-2.34115 0.37956,-4.23903 0.8478,-4.23903c0.46824,0 0.84781,1.89787 0.84781,4.23903c0,2.34115 -0.37957,4.23903 -0.84781,4.23903c-0.46824,0 -0.8478,-1.89787 -0.8478,-4.23903z" fill="#000000" stroke="#62565b" stroke-width="0" stroke-linecap="round" stroke-linejoin="bevel"/><path d="M294.53391,175.84346c10.10293,-3.59292 35.89203,-4.02407 47.52367,-1.79642c11.63164,2.22765 9.10595,7.11393 4.45322,10.99432c-4.65274,3.88038 -11.4322,6.75466 -20.27238,7.90438c-8.84018,1.14972 -19.7405,0.57487 -27.98242,-3.08997c-8.24193,-3.66484 -13.82502,-10.41939 -3.72209,-14.01231z" fill="#e6e6e6" stroke="#62565b" stroke-width="0" stroke-linecap="round" stroke-linejoin="bevel"/><path d="M293.90227,176.05715c0.14802,0.43248 0.37454,1.10283 0.65902,1.94354c0.20069,0.59308 0.44446,1.3106 0.75745,2.21137c0.37367,1.07535 0.83002,2.36615 1.44159,4.06496c0.37325,1.03682 0.85724,2.37262 1.49731,4.12349c0.07077,0.19358 0.11683,0.31643 0.15194,0.40792c0.0337,0.08782 0.05579,0.14277 0.08092,0.20753c0.02827,0.0728 0.05778,0.15129 0.1028,0.27539c0.0626,0.17258 0.14409,0.40316 0.21451,0.60344l-0.28048,0.10861c-0.07044,-0.20028 -0.15145,-0.42951 -0.21345,-0.60045c-0.04439,-0.1224 -0.07307,-0.19859 -0.10025,-0.26862c-0.02439,-0.06283 -0.04692,-0.11896 -0.08136,-0.20872c-0.03591,-0.0936 -0.08262,-0.21817 -0.15374,-0.41275c-0.64024,-1.75132 -1.12441,-3.08763 -1.49786,-4.12499c-0.61189,-1.6997 -1.06865,-2.99165 -1.44278,-4.06836c-0.31341,-0.90196 -0.5575,-1.62042 -0.75831,-2.21388c-0.28464,-0.84119 -0.51084,-1.5106 -0.65865,-1.94247z" fill="#000000" stroke="none" stroke-width="1.6" stroke-linecap="round" stroke-linejoin="bevel"/><path d="M305.45626,173.69891c-0.27097,0.74743 -0.97921,2.46911 -2.25902,5.48463c-0.6355,1.49737 -1.3329,3.1565 -2.12744,5.1159c-0.4793,1.18198 -1.06854,2.65724 -1.74628,4.4075c-0.07438,0.19212 -0.12231,0.31577 -0.15296,0.39548c-0.03048,0.07927 -0.04592,0.1203 -0.06474,0.17141c-0.02775,0.07531 -0.05942,0.16223 -0.08717,0.23753c-0.06325,0.17177 -0.13892,0.37559 -0.21832,0.58874l-0.29827,-0.10904c0.07935,-0.213 0.15487,-0.41639 0.21791,-0.58763c0.03296,-0.0895 0.05427,-0.14812 0.08721,-0.23762c0.01944,-0.05274 0.0354,-0.09519 0.06629,-0.1755c0.03082,-0.08014 0.07894,-0.20432 0.15322,-0.39615c0.67842,-1.75202 1.26829,-3.22883 1.74811,-4.4121c0.79541,-1.96156 1.49351,-3.62238 2.12936,-5.12057c1.28043,-3.01695 1.98494,-4.72994 2.25288,-5.46901z" fill="#000000" stroke="none" stroke-width="1.6" stroke-linecap="round" stroke-linejoin="bevel"/><path d="M305.48564,173.60505c0.15741,0.43831 0.39828,1.11769 0.7008,1.96974c0.21341,0.60108 0.47262,1.32827 0.80547,2.24118c0.39735,1.08984 0.88265,2.39803 1.533,4.11973c0.39692,1.05078 0.9116,2.40459 1.59226,4.17907c0.03788,0.09872 0.10101,0.2622 0.18782,0.48649c-0.04835,-0.12473 0.35407,0.91373 0.30571,0.789c0.11858,0.30639 0.69639,1.79698 0.81497,2.10336c0.3203,0.82763 0.60361,1.56147 0.83674,2.16837c0.13694,0.35649 0.24619,0.64218 0.33302,0.87049c0.11739,0.30866 0.18511,0.48961 0.22648,0.60169l-0.29827,0.11007c-0.04085,-0.1107 -0.10818,-0.29059 -0.22537,-0.59875c-0.08667,-0.22788 -0.19579,-0.51322 -0.33265,-0.86949c-0.233,-0.60655 -0.5162,-1.34011 -0.83646,-2.16764c0.55675,1.43622 -1.37165,-3.53942 -0.8149,-2.10319c-0.01872,-0.04837 -0.28701,-0.7408 -0.30576,-0.78915c-0.08681,-0.22428 -0.15009,-0.38813 -0.18817,-0.48738c-0.68083,-1.77493 -1.19571,-3.12925 -1.59284,-4.18058c-0.65069,-1.7226 -1.13641,-3.03197 -1.53427,-4.12318c-0.33328,-0.91411 -0.59284,-1.64224 -0.8064,-2.24371c-0.30269,-0.85253 -0.54323,-1.53097 -0.70041,-1.96865z" fill="#000000" stroke="none" stroke-width="1.6" stroke-linecap="round" stroke-linejoin="bevel"/><path d="M319.76315,172.81976c-0.09365,0.26076 -0.22543,0.64306 -0.43101,1.27533c-0.15125,0.46516 -0.32391,1.00812 -0.54654,1.71563c-0.33237,1.05627 -0.88444,2.82834 -1.41989,4.50426c-0.67833,2.12311 -1.42343,4.39097 -2.2435,6.73578c-0.49722,1.42167 -1.09861,3.09079 -1.7784,4.86299c-0.07438,0.19395 -0.12231,0.31876 -0.15296,0.39923c-0.03048,0.08001 -0.04592,0.12144 -0.06474,0.17303c-0.02775,0.07601 -0.05942,0.16377 -0.08717,0.23978c-0.06325,0.1734 -0.13892,0.37915 -0.21832,0.59433l-0.29827,-0.11007c0.07935,-0.21503 0.15487,-0.42035 0.21791,-0.59321c0.03296,-0.09035 0.05427,-0.14952 0.08721,-0.23988c0.01944,-0.05324 0.03541,-0.09609 0.0663,-0.17716c0.03082,-0.0809 0.07893,-0.20625 0.15322,-0.3999c0.67837,-1.76852 1.27868,-3.43455 1.77515,-4.85409c0.81882,-2.34123 1.56297,-4.60618 2.24075,-6.72758c0.53518,-1.67505 1.08666,-3.44529 1.41946,-4.50292c0.22275,-0.70787 0.39574,-1.25195 0.54746,-1.71852c0.20627,-0.63437 0.33912,-1.01985 0.43415,-1.28448z" fill="#000000" stroke="none" stroke-width="1.6" stroke-linecap="round" stroke-linejoin="bevel"/><path d="M319.73139,172.72535c0.15741,0.43831 0.39828,1.11768 0.7008,1.96973c0.21341,0.60108 0.47263,1.32827 0.80548,2.24118c0.39735,1.08984 0.88264,2.39804 1.533,4.11974c0.39692,1.05078 0.9116,2.40459 1.59226,4.17907c0.01949,0.05082 0.04548,0.12022 0.07775,0.2075c0.03144,0.08508 0.0688,0.18699 0.1117,0.30471c0.08389,0.23022 0.18787,0.51777 0.30737,0.8497c0.23814,0.66142 0.53146,1.4809 0.81934,2.28581c0.10663,0.29744 0.73425,2.05269 0.84087,2.35013c0.13795,0.38484 0.2467,0.68736 0.33414,0.92972c0.1179,0.32676 0.18493,0.51043 0.22607,0.62192l-0.29827,0.11007c-0.04154,-0.11255 -0.10886,-0.29701 -0.22687,-0.62409c-0.08755,-0.24264 -0.19637,-0.54541 -0.33436,-0.93034c2.0342,5.68754 -2.87515,-8.03787 -0.84095,-2.35034c-0.28789,-0.80492 -0.58111,-1.62412 -0.81912,-2.28519c-0.11944,-0.33176 -0.22326,-0.61888 -0.30694,-0.84854c-0.04281,-0.11744 -0.07998,-0.21886 -0.11121,-0.30332c-0.03209,-0.08683 -0.05764,-0.15485 -0.07639,-0.20389c-0.68083,-1.77493 -1.19571,-3.12925 -1.59284,-4.18058c-0.65069,-1.7226 -1.13642,-3.03197 -1.53427,-4.12318c-0.33328,-0.91411 -0.59283,-1.64224 -0.80639,-2.24371c-0.30269,-0.85253 -0.54325,-1.53096 -0.70042,-1.96864z" fill="#000000" stroke="none" stroke-width="1.6" stroke-linecap="round" stroke-linejoin="bevel"/><path d="M333.67065,173.11734c-0.09359,0.2606 -0.22299,0.63654 -0.41881,1.24274c-0.14401,0.44579 -0.30663,0.96205 -0.51454,1.63028c-0.30817,0.99041 -0.82484,2.67066 -1.32299,4.24588c-0.63435,2.00586 -1.33803,4.16328 -2.13173,6.43781c-0.48121,1.379 -1.06957,3.01334 -1.74935,4.78553c-0.07438,0.19395 -0.12231,0.31876 -0.15296,0.39923c-0.03048,0.08001 -0.04591,0.12144 -0.06474,0.17303c-0.02775,0.07601 -0.05942,0.16377 -0.08717,0.23978c-0.06325,0.1734 -0.13892,0.37914 -0.21833,0.59432l-0.29827,-0.11007c0.07935,-0.21503 0.15487,-0.42035 0.21791,-0.59321c0.03296,-0.09035 0.05427,-0.14952 0.08721,-0.23987c0.01944,-0.05324 0.03541,-0.09609 0.0663,-0.17716c0.03082,-0.0809 0.07893,-0.20626 0.15322,-0.39991c0.67837,-1.76849 1.2656,-3.3997 1.74601,-4.77642c0.79238,-2.2707 1.49506,-4.425 2.12879,-6.42892c0.49787,-1.57432 1.01388,-3.25242 1.32254,-4.24447c0.20805,-0.66866 0.37107,-1.18617 0.51559,-1.63356c0.1966,-0.6086 0.3271,-0.98788 0.42212,-1.25247z" fill="#000000" stroke="none" stroke-width="1.6" stroke-linecap="round" stroke-linejoin="bevel"/><path d="M333.69845,172.97855c0.15741,0.43831 0.39828,1.11769 0.7008,1.96974c0.21341,0.60108 0.47263,1.32826 0.80548,2.24117c0.39735,1.08984 0.88264,2.39803 1.533,4.11973c0.39692,1.05078 0.9116,2.40459 1.59226,4.17907c0.07565,0.19719 0.17363,0.44963 0.29476,0.76104c0.06228,0.16062 0.31556,0.81144 0.37783,0.97204c0.38952,1.00459 0.6084,1.58303 0.76042,1.99499l-0.29828,0.11007c-0.15118,-0.40966 -0.36937,-0.98635 -0.75858,-1.99012c1.10997,2.85371 -1.48768,-3.82544 -0.37771,-0.97173c-0.1211,-0.31135 -0.21936,-0.56444 -0.2953,-0.76243c-0.68083,-1.77493 -1.19571,-3.12926 -1.59284,-4.18059c-0.65069,-1.7226 -1.13642,-3.03196 -1.53427,-4.12318c-0.33328,-0.91411 -0.59283,-1.64225 -0.80639,-2.24371c-0.30269,-0.85253 -0.54325,-1.53097 -0.70043,-1.96865z" fill="#000000" stroke="none" stroke-width="1.6" stroke-linecap="round" stroke-linejoin="bevel"/><path d="M345.1506,174.82445c-0.27461,0.76465 -0.7898,2.20342 -1.64042,4.47213c-0.43721,1.16609 -0.96621,2.5622 -1.63962,4.32739c0.06672,-0.17489 -1.68684,4.40831 -1.62012,4.23343c-0.07438,0.19395 -0.12231,0.31875 -0.15296,0.39922c-0.03048,0.08001 -0.04592,0.12144 -0.06474,0.17303c-0.02775,0.07601 -0.05942,0.16377 -0.08717,0.23978c-0.06325,0.1734 -0.13892,0.37915 -0.21833,0.59433l-0.29827,-0.11007c0.07935,-0.21503 0.15487,-0.42035 0.21791,-0.59321c0.03296,-0.09035 0.05427,-0.14953 0.08721,-0.23988c0.01944,-0.05324 0.03541,-0.09609 0.0663,-0.17716c0.03082,-0.0809 0.07893,-0.20626 0.15322,-0.39991c0.08331,-0.21716 1.53661,-4.01572 1.61991,-4.23288c0.67329,-1.76489 1.20205,-3.16037 1.63897,-4.32569c0.84982,-2.26657 1.36439,-3.70361 1.6389,-4.46797z" fill="#000000" stroke="none" stroke-width="1.6" stroke-linecap="round" stroke-linejoin="bevel"/><path d="M345.13131,174.73014c0.09514,0.26491 0.19282,0.5396 0.26663,0.75422c0.05338,0.15516 0.08725,0.25843 0.10941,0.33128c0.00981,0.03226 0.01682,0.05669 0.02269,0.07821c0.00549,0.02017 0.00985,0.03618 0.0142,0.05209c0.00436,0.01508 0.00909,0.03144 0.01629,0.05379c0.00718,0.02222 0.01689,0.05084 0.0311,0.09103c0.02834,0.08 0.07362,0.20292 0.15074,0.40777c0.07827,0.20791 0.18784,0.49622 0.33928,0.89294c-0.00277,-0.00724 0.21451,0.56103 0.21168,0.55383c-0.04751,-0.12384 1.42404,3.71506 1.37654,3.59122c0.07492,0.1953 0.13055,0.33339 0.17893,0.4486c0.04639,0.1105 0.08478,0.19684 0.12575,0.29153c0.04635,0.10713 0.09134,0.21432 0.15,0.36241c0.0823,0.20771 0.17144,0.44574 0.24715,0.65092l-0.29827,0.11007c-0.07548,-0.20455 -0.16358,-0.43976 -0.24446,-0.6439c-0.05736,-0.14476 -0.10105,-0.24888 -0.14621,-0.35327c-0.03949,-0.0913 -0.07986,-0.18215 -0.1271,-0.29469c-0.04989,-0.11883 -0.10678,-0.26006 -0.18264,-0.45782c-0.01705,-0.04457 -1.35958,-3.54691 -1.37662,-3.59148c-0.00212,-0.00556 -0.20968,-0.54855 -0.21176,-0.55404c-0.15148,-0.39682 -0.26127,-0.6857 -0.3398,-0.89432c-0.07721,-0.20512 -0.12343,-0.3305 -0.15288,-0.41364c-0.01489,-0.04201 -0.02565,-0.07362 -0.03398,-0.09956c-0.00868,-0.02667 -0.01454,-0.04707 -0.01985,-0.06583c-0.00531,-0.01907 -0.00966,-0.03519 -0.01459,-0.05338c-0.00515,-0.01896 -0.0114,-0.04063 -0.0203,-0.06993c-0.02051,-0.06741 -0.05295,-0.16647 -0.10589,-0.32041c-0.0731,-0.21251 -0.17018,-0.48555 -0.26521,-0.75018z" fill="#000000" stroke="none" stroke-width="1.6" stroke-linecap="round" stroke-linejoin="bevel"/><path d="M379.21923,156.70562c0,-3.4348 0.61274,-6.21928 1.3686,-6.21928c0.75586,0 1.3686,2.78447 1.3686,6.21928c0,3.4348 -0.61274,6.21926 -1.3686,6.21926c-0.75586,0 -1.3686,-2.78446 -1.3686,-6.21926z" fill="#000000" stroke="#62565b" stroke-width="0" stroke-linecap="round" stroke-linejoin="bevel"/><path d="M385.88651,161.77218c0,-2.34115 0.37956,-4.23903 0.8478,-4.23903c0.46824,0 0.8478,1.89787 0.8478,4.23903c0,2.34115 -0.37956,4.23902 -0.8478,4.23902c-0.46824,0 -0.8478,-1.89787 -0.8478,-4.23902z" fill="#000000" stroke="#62565b" stroke-width="0" stroke-linecap="round" stroke-linejoin="bevel"/><path d="M389.82985,163.98967c0,-2.34115 0.37957,-4.23903 0.84781,-4.23903c0.46824,0 0.8478,1.89787 0.8478,4.23903c0,2.34115 -0.37956,4.23903 -0.8478,4.23903c-0.46824,0 -0.84781,-1.89787 -0.84781,-4.23903z" fill="#000000" stroke="#62565b" stroke-width="0" stroke-linecap="round" stroke-linejoin="bevel"/></g></g></svg>