<svg version="1.1" xmlns="http://www.w3.org/2000/svg" xmlns:xlink="http://www.w3.org/1999/xlink" width="223.15751" height="319.73175" viewBox="0,0,223.15751,319.73175"><g transform="translate(-208.42125,-20.13413)"><g data-paper-data="{&quot;isPaintingLayer&quot;:true}" fill-rule="nonzero" stroke-miterlimit="10" stroke-dashoffset="0" style="mix-blend-mode: normal"><path d="M245.64314,274.60654c0,-28.61739 33.29065,-51.81638 74.35673,-51.81638c41.06609,0 74.35674,23.19899 74.35674,51.81638c0,28.61741 -33.29066,51.81639 -74.35674,51.81639c-41.06609,0 -74.35673,-23.19898 -74.35673,-51.81639z" fill="#ffd840" stroke="#7802ff" stroke-width="0" stroke-linecap="round" stroke-linejoin="round" stroke-dasharray=""/><path d="M289.96056,314.23524v-114.3527h58.4016v114.3527z" fill="#ffeca8" stroke="#7802ff" stroke-width="0" stroke-linecap="round" stroke-linejoin="round" stroke-dasharray=""/><path d="M250.09407,316.82291c-1.05323,-8.39889 9.12684,-16.91452 22.73783,-19.02024c13.61099,-2.10572 25.49869,2.9959 26.55191,11.39476c1.05323,8.39886 -9.12684,16.91452 -22.73783,19.02024c-13.61099,2.10569 -25.49868,-2.9959 -26.55191,-11.39479z" fill="#fff0bb" stroke="#7802ff" stroke-width="0" stroke-linecap="round" stroke-linejoin="round" stroke-dasharray=""/><path d="M367.70445,322.78637c-13.61099,-2.10572 -23.79106,-10.62138 -22.73783,-19.02024c1.05323,-8.39886 12.94092,-13.50045 26.55191,-11.39476c13.61099,2.10572 23.79107,10.62135 22.73783,19.02024c-1.05324,8.39886 -12.94092,13.50048 -26.55191,11.39476z" fill="#fff0bb" stroke="#7802ff" stroke-width="0" stroke-linecap="round" stroke-linejoin="round" stroke-dasharray=""/><g stroke="#7802ff" stroke-width="0" stroke-linecap="round" stroke-linejoin="round" stroke-dasharray=""><g><path d="M321.88118,331.72646l14.47047,-109.88676l36.35265,5.54842l-14.47046,109.88675z" fill="#ffe16a"/><path d="M339.0857,339.36778c-12.48891,-2.17727 -21.81445,-10.87054 -20.82916,-19.41696c0.98529,-8.54642 11.90831,-13.70963 24.39723,-11.53236c12.48891,2.17727 21.81444,10.87054 20.82915,19.41696c-0.98529,8.54642 -11.90831,13.70963 -24.39722,11.53236z" fill="#fff0bb"/></g><g><path d="M281.76594,337.27487l-14.47047,-109.88676l36.35265,-5.54841l14.47047,109.88675z" fill="#ffe16a"/><path d="M276.51683,327.8354c-0.98529,-8.54642 8.34023,-17.23968 20.82916,-19.41696c12.48891,-2.17727 23.41193,2.98595 24.39722,11.53236c0.98529,8.54642 -8.34023,17.23968 -20.82915,19.41696c-12.48891,2.17727 -23.41193,-2.98595 -24.39723,-11.53236z" fill="#fff0bb"/></g></g><g fill="#f9a439" stroke="#7802ff" stroke-width="0" stroke-linecap="round" stroke-linejoin="round" stroke-dasharray=""><path d="M208.42125,89.29316c0,-32.95127 27.53246,-59.66355 61.49545,-59.66355c33.96299,0 61.49545,26.71228 61.49545,59.66355c0,32.95127 -27.53245,59.66354 -61.49545,59.66354c-33.96299,0 -61.49545,-26.71228 -61.49545,-59.66354z"/><path d="M213.22005,170.79681c0,-32.95127 27.53246,-59.66355 61.49545,-59.66355c33.96299,0 61.49545,26.71228 61.49545,59.66355c0,32.95127 -27.53245,59.66354 -61.49545,59.66354c-33.96299,0 -61.49545,-26.71228 -61.49545,-59.66354z"/><path d="M308.58786,87.90549c0,-32.95127 27.53246,-59.66355 61.49545,-59.66355c33.96299,0 61.49545,26.71228 61.49545,59.66355c0,32.95127 -27.53245,59.66354 -61.49545,59.66354c-33.96299,0 -61.49545,-26.71228 -61.49545,-59.66354z"/><path d="M304.99001,170.77437c0,-32.95127 27.53245,-59.66355 61.49545,-59.66355c33.96299,0 61.49545,26.71228 61.49545,59.66355c0,32.95127 -27.53245,59.66354 -61.49545,59.66354c-33.96299,0 -61.49545,-26.71228 -61.49545,-59.66354z"/><path d="M269.98094,67.95605c0,-26.41132 22.67379,-47.82192 50.64331,-47.82192c27.96953,0 50.64331,21.41061 50.64331,47.82192c0,26.41132 -22.67379,47.82192 -50.64331,47.82192c-27.96953,0 -50.64331,-21.41061 -50.64331,-47.82192z"/></g><g stroke-linecap="round" stroke-linejoin="round"><path d="M390.73774,59.78121l-37.88309,45.75057z" fill="#785b00" stroke="none" stroke-width="4.9" stroke-dasharray="4.9,9.80001"/><path d="M239.8687,87.96171c0,-17.27281 13.4051,-31.27518 29.94112,-31.27518c16.53602,0 29.94111,14.00237 29.94111,31.27518c0,17.27281 -13.40509,31.27519 -29.94111,31.27519c-16.53602,0 -29.94112,-14.00238 -29.94112,-31.27519z" fill="#ffe16a" stroke="#7802ff" stroke-width="0" stroke-dasharray=""/><path d="M368.0768,118.48639c-16.53602,0 -29.94112,-14.00237 -29.94112,-31.27518c0,-17.27281 13.4051,-31.27518 29.94112,-31.27518c16.53602,0 29.94112,14.00237 29.94112,31.27518c0,17.27281 -13.4051,31.27518 -29.94112,31.27518z" fill="#ffe16a" stroke="#7802ff" stroke-width="0" stroke-dasharray=""/><path d="M369.45906,99.91637c-9.60003,0 -17.3824,-7.1556 -17.3824,-15.9825c0,-8.82689 7.78237,-15.9825 17.3824,-15.9825c9.60003,0 17.38239,7.15561 17.38239,15.9825c0,8.82689 -7.78236,15.9825 -17.38239,15.9825z" fill="#ffeca8" stroke="#7802ff" stroke-width="0" stroke-dasharray=""/><path d="M267.71727,101.56321c-9.60003,0 -17.3824,-7.15561 -17.3824,-15.9825c0,-8.82689 7.78237,-15.9825 17.3824,-15.9825c9.60003,0 17.3824,7.15561 17.3824,15.9825c0,8.82689 -7.78237,15.9825 -17.3824,15.9825z" fill="#ffeca8" stroke="#7802ff" stroke-width="0" stroke-dasharray=""/><path d="M251.99065,128.14736c0,-37.89647 30.27975,-68.61764 67.6317,-68.61764c37.35195,0 67.6317,30.72117 67.6317,68.61764c0,37.89647 -30.27975,68.61764 -67.6317,68.61764c-37.35195,0 -67.6317,-30.72117 -67.6317,-68.61764z" fill="#ffe16a" stroke="#7802ff" stroke-width="0" stroke-dasharray=""/></g><path d="M311.81753,167.20985c0,-5.33228 3.98866,-9.65495 8.90892,-9.65495c4.92026,0 8.90892,4.32267 8.90892,9.65495c0,5.33228 -3.98866,9.65495 -8.90892,9.65495c-4.92026,0 -8.90892,-4.32267 -8.90892,-9.65495z" fill="#341a00" stroke="none" stroke-width="1.04042" stroke-linecap="round" stroke-linejoin="round" stroke-dasharray="2.81568,5.63136"/><g stroke="none" stroke-linecap="round" stroke-linejoin="round"><g fill="#ffeca8" stroke-width="5.67567" stroke-dasharray="5.67567,11.3514"><path d="M318.98204,161.02273c-9.28765,-8.55704 -11.93078,-19.54849 -5.90361,-24.55008c6.02717,-5.00159 18.44229,-2.11933 27.72993,6.43772c9.28765,8.55704 11.93078,19.54849 5.90361,24.55008c-6.02717,5.00159 -18.44229,2.11933 -27.72993,-6.43772z"/><path d="M294.69719,167.46053c-6.02717,-5.00159 -3.38403,-15.99304 5.90361,-24.55009c9.28765,-8.55704 21.70276,-11.43931 27.72993,-6.43772c6.02717,5.00159 3.38403,15.99304 -5.90361,24.55009c-9.28765,8.55704 -21.70276,11.43931 -27.72993,6.43772z"/></g><path d="M320.71146,151.86145c-8.33073,-3.41286 -11.84871,-8.31983 -13.20169,-13.8989c0,0 12.01501,-8.80465 25.11724,-0.40753c-0.80487,10.43301 -11.91554,14.30645 -11.91554,14.30643z" fill="#341a00" stroke-width="4.9" stroke-dasharray="4.9,9.80001"/></g><g stroke-linecap="butt" stroke-linejoin="miter" stroke-dasharray=""><path d="M337.99838,96.69782c6.62762,-8.74151 17.76361,-9.54854 24.87292,-1.80254c7.10932,7.74599 7.4998,21.11176 0.87218,29.85327c-6.62762,8.74151 -17.76361,9.54854 -24.87292,1.80254c-7.10932,-7.74599 -7.4998,-21.11176 -0.87218,-29.85327z" fill="#ffffff" stroke="#ffffff" stroke-width="0.90331"/><path d="M350.67115,124.54524c-6.49223,0 -11.75522,-5.56089 -11.75522,-12.4206c0,-6.85971 5.26299,-12.4206 11.75522,-12.4206c6.49223,0 11.75522,5.56089 11.75522,12.4206c0,6.85971 -5.26299,12.4206 -11.75522,12.4206z" fill="#aa3f00" stroke="none" stroke-width="0.1656"/><path d="M343.5995,111.80901c-2.80466,0 -5.07828,-2.75884 -5.07828,-6.16204c0,-3.4032 2.27362,-6.16204 5.07828,-6.16204c2.80466,0 5.07828,2.75884 5.07828,6.16204c0,3.4032 -2.27362,6.16204 -5.07828,6.16204z" fill="#ffffff" stroke="#ffffff" stroke-width="0.3191"/></g><g stroke-linecap="butt" stroke-linejoin="miter" stroke-dasharray=""><path d="M301.20842,126.55109c-7.10932,7.74599 -18.2453,6.93897 -24.87292,-1.80254c-6.62762,-8.74151 -6.23713,-22.10727 0.87218,-29.85327c7.10932,-7.74599 18.2453,-6.93897 24.87292,1.80254c6.62762,8.74151 6.23713,22.10727 -0.87218,29.85327z" fill="#ffffff" stroke="#ffffff" stroke-width="0.90331"/><path d="M277.65261,112.12466c0,-6.85971 5.26299,-12.4206 11.75522,-12.4206c6.49223,0 11.75522,5.56089 11.75522,12.4206c0,6.85971 -5.26299,12.4206 -11.75522,12.4206c-6.49223,0 -11.75522,-5.56089 -11.75522,-12.4206z" fill="#aa3f00" stroke="none" stroke-width="0.1656"/><path d="M291.40121,105.64697c0,-3.4032 2.27362,-6.16204 5.07828,-6.16204c2.80466,0 5.07828,2.75884 5.07828,6.16204c0,3.4032 -2.27362,6.16204 -5.07828,6.16204c-2.80466,0 -5.07828,-2.75884 -5.07828,-6.16204z" fill="#ffffff" stroke="#ffffff" stroke-width="0.3191"/></g></g></g></svg>