<svg version="1.1" xmlns="http://www.w3.org/2000/svg" xmlns:xlink="http://www.w3.org/1999/xlink" width="169.44044" height="270.31944" viewBox="0,0,169.44044,270.31944"><g transform="translate(-250.32979,-43.09815)"><g data-paper-data="{&quot;isPaintingLayer&quot;:true}" fill-rule="nonzero" stroke-linejoin="miter" stroke-miterlimit="10" stroke-dasharray="" stroke-dashoffset="0" style="mix-blend-mode: normal"><g><path d="M379.24291,151.82262c13.33512,-5.71193 34.04333,3.27175 39.62367,17.55237c2.2671,5.80165 -1.06741,15.14001 -6.39973,17.68684c-8.16272,3.89877 -16.44476,-12.09207 -24.77382,-10.56341c-7.39772,1.35772 -12.14197,15.29302 -13.82144,22.71003c-3.43752,15.18086 -11.629,38.55927 -25.18537,35.91453c-6.38382,-1.24545 -5.4942,-20.29813 -5.4942,-20.29813c0,0 16.86888,-14.04543 19.39501,-24.43066c2.71556,-11.16402 4.51335,-33.37043 16.65588,-38.57157z" fill="#d35227" stroke="#d35227" stroke-width="0.36453" stroke-linecap="butt"/><path d="M315.55786,66.28164c-2.67266,-16.25662 4.85614,-3.58368 20.89582,-16.82439c3.78631,-3.33534 8.04528,12.38953 3.51721,13.96994c26.53508,6.01678 -33.02599,28.04328 -24.41303,2.85445z" fill="#d3613a" stroke="#d3613a" stroke-width="0.32171" stroke-linecap="butt"/><path d="M268.25221,103.27209c-2.2099,-7.88318 10.98281,-30.66865 22.65401,-37.59333c11.34438,-6.73076 27.3517,-14.154 34.59159,-21.82915c3.5,-3.71043 9.33167,11.18839 5.00943,13.38056c26.98978,2.317 -55.03955,71.78101 -62.25503,46.04192z" fill="#d3613a" stroke="#d3613a" stroke-width="0.32171" stroke-linecap="butt"/><g stroke-linecap="butt"><path d="M366.18166,109.13111c1.6945,-10.72238 9.05546,-18.45733 16.44116,-17.2765c7.3857,1.18083 11.99934,10.83029 10.30484,21.55267c-1.6945,10.72238 -9.05546,18.45733 -16.44117,17.2765c-7.3857,-1.18083 -11.99933,-10.83029 -10.30483,-21.55267z" fill="#d3613a" stroke="#d3613a" stroke-width="0.3288"/><path d="M367.88745,108.90811c1.12034,-7.88662 6.19333,-13.5349 11.33083,-12.61577c5.1375,0.91912 8.39405,8.0576 7.2737,15.94422c-1.12034,7.88662 -6.19333,13.5349 -11.33083,12.61578c-5.1375,-0.91912 -8.39405,-8.0576 -7.2737,-15.94422z" fill="#f9d6b6" stroke="#f9d6b6" stroke-width="0.23513"/></g><g stroke-linecap="butt"><path d="M267.28582,130.68378c-7.3857,1.18083 -14.74666,-6.55412 -16.44116,-17.2765c-1.6945,-10.72238 2.91913,-20.37184 10.30483,-21.55267c7.3857,-1.18083 14.74666,6.55412 16.44116,17.2765c1.6945,10.72238 -2.91913,20.37184 -10.30484,21.55267z" fill="#d3613a" stroke="#d3613a" stroke-width="0.3288"/><path d="M268.61117,124.85234c-5.1375,0.91912 -10.21048,-4.72915 -11.33083,-12.61577c-1.12034,-7.88662 2.1362,-15.02509 7.2737,-15.94421c5.1375,-0.91912 10.21048,4.72915 11.33083,12.61577c1.12034,7.88662 -2.1362,15.0251 -7.2737,15.94422z" fill="#f9d6b6" stroke="#f9d6b6" stroke-width="0.23513"/></g><path d="M265.03296,117.44294c-1.88128,-30.70039 21.9783,-57.55874 53.29188,-59.98979c31.31358,-2.43104 58.22333,20.4858 60.10461,51.18619c1.88128,30.7004 -21.9783,57.55874 -53.29187,59.98978c-31.31358,2.43105 -58.22333,-20.48579 -60.10462,-51.18619z" fill="#d3613a" stroke="#d3613a" stroke-width="0.38246" stroke-linecap="butt"/><path d="M302.25815,165.40432c0,0 39.04275,-2.398 43.59006,2.39906c16.24577,17.13806 4.33281,99.06073 9.72528,127.07714c2.24916,11.68537 -23.90626,2.64402 -23.90626,2.64402c0,0 -3.38968,-20.4605 -5.45378,-24.2702c-2.29605,-4.23783 -8.23189,-3.59959 -10.70584,0.0619c-2.81532,4.16673 -4.30848,22.47709 -4.30848,22.47709c0,0 -27.20026,5.37018 -24.67117,-6.28707c1.56434,-7.21041 -3.85273,-125.17969 15.73019,-124.10192z" fill="#d3613a" stroke="#d3613a" stroke-width="0.39025" stroke-linecap="butt"/><path d="M314.07688,305.34586c-1.49408,2.77742 -8.6445,0.45429 -8.6445,0.45429c-32.62102,24.71224 -32.20623,-20.63 -16.04944,-12.23141c6.07301,3.15686 11.66448,4.62805 20.06182,0.56452c3.41523,-1.65264 6.52882,7.68672 4.63212,11.2126z" fill="#f9d6b6" stroke="#f9d6b6" stroke-width="0.32171" stroke-linecap="butt"/><path d="M333.04769,294.13326c8.39733,4.06353 13.98881,2.59234 20.06181,-0.56452c16.15679,-8.39859 16.57159,36.94365 -16.04944,12.23141c0,0 -7.15042,2.32313 -8.64449,-0.45429c-1.89671,-3.52588 1.2169,-12.86524 4.63212,-11.2126z" fill="#f9d6b6" stroke="#f9d6b6" stroke-width="0.32171" stroke-linecap="butt"/><path d="M296.73079,215.6893c0,-18.98208 10.91999,-34.3701 24.39048,-34.3701c13.47049,0 24.39049,15.38802 24.39049,34.3701c0,18.98208 -10.92,34.3701 -24.39049,34.3701c-13.47049,0 -24.39048,-15.38802 -24.39048,-34.3701z" fill="#f9d6b6" stroke="#d3613a" stroke-width="0.71727" stroke-linecap="butt"/><g fill="#f9d6b6" stroke="#f9d6b6" stroke-width="0.23715" stroke-linecap="butt"><path d="M290.40805,150.66386c-17.91753,-15.98089 -24.6587,-42.4225 -15.05681,-59.05899c9.60189,-16.63648 31.9108,-17.16795 49.82833,-1.18706c17.91753,15.98089 24.6587,42.4225 15.0568,59.05899c-9.60189,16.63648 -31.91079,17.16795 -49.82833,1.18706z"/><path d="M301.84355,148.35992c-8.86607,-17.26329 -0.86923,-43.45873 17.86145,-58.50915c18.73068,-15.05043 41.10226,-13.25655 49.96833,4.00674c8.86607,17.26329 0.86923,43.45873 -17.86145,58.50915c-18.73068,15.05042 -41.10226,13.25655 -49.96833,-4.00674z"/></g><path d="M328.93671,150.33719c-2.07752,-0.42771 -4.59932,-0.65895 -7.19077,-0.65939c-2.54672,0.00015 -5.0277,0.22322 -7.08639,0.63717c-5.42996,-1.34202 -10.00979,-3.97714 -13.43225,-6.40581c14.91829,4.59272 29.17536,5.05539 42.14264,-1.01131c-5.03655,3.99815 -9.88083,6.30991 -14.43323,7.43934z" fill="#661b00" stroke="#92391b" stroke-width="0.32171" stroke-linecap="butt"/><path d="M321.38485,137.71453c0.02641,2.89952 0.15395,5.99407 0.35877,9.45369c-0.05602,-0.01182 -0.11249,-0.0141 -0.16859,-0.0111c-0.0335,0.0017 -0.0665,0.0051 -0.0994,0.0131c-0.17418,-3.12922 -0.25698,-6.26596 -0.21738,-9.456z" fill="#ffffff" stroke="#92391b" stroke-width="0.30396" stroke-linecap="butt"/><g fill="#92391b" stroke="#92391b" stroke-width="0.23715" stroke-linecap="butt"><path d="M317.97082,137.90758c-2.09073,-1.54161 -2.97969,-4.07916 -1.98554,-5.66777c0.99415,-1.58861 3.49493,-1.62671 5.58567,-0.0851c2.09073,1.54161 2.97969,4.07916 1.98554,5.66777c-0.99415,1.58861 -3.49493,1.62671 -5.58567,0.0851z"/><path d="M318.62086,137.8225c-0.99415,-1.58861 -0.10519,-4.12616 1.98554,-5.66777c2.09073,-1.54161 4.59152,-1.50351 5.58567,0.0851c0.99415,1.58861 0.10519,4.12616 -1.98554,5.66777c-2.09073,1.54161 -4.59152,1.50351 -5.58567,-0.0851z"/></g><g stroke-linecap="butt"><path d="M307.57307,123.71123c-5.61324,6.0816 -14.40578,5.44798 -19.63869,-1.41523c-5.23291,-6.86321 -4.9246,-17.35706 0.68864,-23.43866c5.61324,-6.0816 14.40578,-5.44798 19.63869,1.41523c5.23291,6.86321 4.9246,17.35706 -0.68864,23.43866z" fill="#ffffff" stroke="#ffffff" stroke-width="0.90331"/><path d="M288.97432,112.38463c0,-5.38576 4.15545,-9.75177 9.28147,-9.75177c5.12601,0 9.28147,4.36601 9.28147,9.75177c0,5.38576 -4.15546,9.75177 -9.28147,9.75177c-5.12601,0 -9.28147,-4.36601 -9.28147,-9.75177z" fill="#690400" stroke="#690400" stroke-width="0.16561"/><path d="M299.82968,107.29881c0,-2.67195 1.79516,-4.838 4.00961,-4.838c2.21445,0 4.00961,2.16605 4.00961,4.838c0,2.67195 -1.79517,4.83799 -4.00961,4.83799c-2.21445,0 -4.00961,-2.16604 -4.00961,-4.83799z" fill="#ffffff" stroke="#ffffff" stroke-width="0.3191"/></g><path d="M331.46865,100.27258c5.23291,-6.86321 14.02545,-7.49683 19.63869,-1.41523c5.61324,6.0816 5.92156,16.57545 0.68865,23.43865c-5.23291,6.86321 -14.02546,7.49683 -19.6387,1.41523c-5.61324,-6.0816 -5.92155,-16.57545 -0.68864,-23.43866z" fill="#ffffff" stroke="#ffffff" stroke-width="1.10582" stroke-linecap="butt"/><path d="M341.47457,122.1364c-5.12601,0 -9.28147,-4.36601 -9.28147,-9.75176c0,-5.38576 4.15546,-9.75177 9.28147,-9.75177c5.12601,0 9.28146,4.36602 9.28146,9.75177c0,5.38576 -4.15545,9.75176 -9.28146,9.75176z" fill="#690400" stroke="#690400" stroke-width="0.20136" stroke-linecap="butt"/><path d="M335.89107,112.1368c-2.21445,0 -4.00961,-2.16604 -4.00961,-4.83799c0,-2.67195 1.79516,-4.838 4.00961,-4.838c2.21445,0 4.00961,2.16605 4.00961,4.838c0,2.67195 -1.79516,4.83799 -4.00961,4.83799z" fill="#ffffff" stroke="#ffffff" stroke-width="0.388" stroke-linecap="butt"/><g stroke-width="0.26459" stroke-linecap="butt"><path d="M285.72821,231.7065c0,0 5.6667,-1.19774 8.17995,0.04398c3.35876,1.65946 7.75691,5.24173 7.16616,8.88291c-0.35656,2.19772 -5.69464,3.07845 -5.69464,3.07845c0,0 12.78808,14.39933 8.51552,19.6073c-4.69662,5.72488 -16.1026,-1.66923 -22.12005,-6.00056c-6.67636,-4.80561 -10.41955,-12.84634 -8.76546,-19.19897c1.22668,-4.71114 12.71853,-6.41312 12.71853,-6.41312z" fill="#f9d6b6" stroke="#f9d6b6"/><path d="M277.44163,205.80288c-4.16454,6.41391 10.49321,16.17774 8.74387,25.6354c-0.79024,4.27237 -11.87279,9.85645 -14.79475,6.45316c-7.95083,-9.26057 -14.78044,-23.71839 -9.85017,-39.27478c3.33322,-10.51726 14.08741,-26.62694 24.97301,-29.00681c59.91609,-13.09918 9.2061,5.30027 8.53454,9.85222c-1.19855,8.12383 -13.22215,19.5884 -17.60649,26.34081z" fill="#d76036" stroke="#d76036"/></g><g stroke-width="0.26459" stroke-linecap="butt"><path d="M368.09014,236.65055c1.65411,6.31022 -2.08914,14.29726 -8.76562,19.07079c-6.01756,4.30241 -17.42376,11.64714 -22.12046,5.96048c-4.27263,-5.1732 8.51569,-19.47638 8.51569,-19.47638c0,0 -5.33818,-0.87484 -5.69476,-3.0579c-0.59077,-3.61687 3.80748,-7.17522 7.1663,-8.8236c2.5133,-1.23343 8.18009,-0.04368 8.18009,-0.04368c0,0 11.49206,1.69061 12.71876,6.37028z" fill="#f9d6b6" stroke="#f9d6b6"/><path d="M346.0513,178.38468c-0.67158,-4.52155 -51.38251,-22.79814 8.53469,-9.78643c10.88581,2.36398 21.64021,18.36609 24.97349,28.81312c4.93036,15.45252 -1.89938,29.8138 -9.85036,39.01254c-2.92201,3.38056 -14.00477,-2.16623 -14.79503,-6.41007c-1.74938,-9.39451 12.90865,-19.09315 8.74403,-25.46422c-4.38442,-6.70732 -16.40826,-18.09535 -17.60682,-26.16494z" fill="#d76036" stroke="#d76036"/></g><path d="M328.93671,150.33717c-5.189,1.28739 -9.99712,1.03562 -14.27716,-0.0222c2.05869,-0.41395 4.53967,-0.63702 7.08639,-0.63717c2.59145,0.00044 5.11325,0.23168 7.19077,0.65939z" fill="#fc455e" stroke="none" stroke-width="4.11495" stroke-linecap="round"/></g></g></g></svg>