<svg version="1.1" xmlns="http://www.w3.org/2000/svg" xmlns:xlink="http://www.w3.org/1999/xlink" width="592.09622" height="244.22521" viewBox="0,0,592.09622,244.22521"><g transform="translate(-23.95189,-47.98033)"><g data-paper-data="{&quot;isPaintingLayer&quot;:true}" fill-rule="nonzero" stroke-miterlimit="10" stroke-dasharray="" stroke-dashoffset="0" style="mix-blend-mode: normal"><path d="M85.02143,284.95554c-65.33639,-12.26175 -76.79288,-185.57289 -3.03976,-216.92664c34.04098,-19.19216 434.54472,-13.18672 476.53417,-5.23557c69.06143,13.07751 68.83705,210.64557 -12.21071,221.94051c-49.64607,4.41588 -413.83465,0.9697 -461.2837,0.22171z" fill="#98ff66" stroke="#007710" stroke-width="14.5" stroke-linecap="butt" stroke-linejoin="miter"/><g fill="#365a24" stroke="#f9a439" stroke-width="0" stroke-linecap="round" stroke-linejoin="bevel"><path d="M426.16744,97.99597c7.04378,2.02122 11.88082,7.03824 15.4092,13.78597c3.5284,6.74773 5.74745,15.22565 7.05874,26.64489c1.31133,11.41924 1.71618,25.77871 1.71618,40.83131c0,15.0526 -0.40342,30.79718 -1.51302,40.39965c-1.10959,9.60245 -2.92517,13.06202 -7.16185,14.96523c-4.23665,1.90323 -10.89462,2.24964 -14.6269,-0.6917c-3.73231,-2.94134 -4.53885,-9.16997 -4.94232,-13.4089c-0.40348,-4.23894 -0.40446,-6.48734 -3.83412,-7.69846c-3.42967,-1.21112 -10.28827,-1.38475 -14.02048,3.45981c-3.73217,4.84457 -4.33661,14.70558 -7.26191,19.9827c-2.92533,5.27712 -8.17093,5.97019 -12.20576,5.36462c-4.03488,-0.60559 -6.8596,-2.50886 -9.06145,-4.78343c-2.20187,-2.27459 -3.78083,-4.92019 -3.98269,-15.56073c-0.20185,-10.64053 0.97386,-29.27606 2.97907,-46.67309c2.00519,-17.39702 4.83922,-33.55545 9.29494,-46.1309c4.45571,-12.57546 10.53231,-21.56641 18.19567,-26.54997c4.7896,-3.11473 10.19861,-4.66372 15.30153,-4.89393c3.06177,-0.13813 6.01376,0.19899 8.65517,0.95694zM414.35738,129.84683c-1.31127,0.39607 -1.24097,1.13014 -2.63186,3.45462c-1.39089,2.32448 -4.24322,6.23947 -5.95507,14.0083c-1.71186,7.76882 -2.28213,19.39187 -2.60307,26.36534c-0.32096,6.97349 -0.39213,9.2977 3.34291,10.70191c3.73498,1.40419 13.81502,2.05117 16.12322,-1.36911c2.30824,-3.42027 1.53356,-17.8572 0.82171,-27.4263c-0.71187,-9.5691 -1.55587,-17.90682 -3.3247,-22.0474c-1.3266,-3.10543 -3.17263,-3.84971 -4.56638,-3.86028c-0.46455,-0.00355 -0.87895,0.0739 -1.20676,0.17293z"/><path d="M212.85222,101.00137c4.57542,-0.4552 9.62731,0.27308 11.81971,6.73679c2.19241,6.46371 1.52519,18.66213 0.61964,32.59085c-0.90555,13.92871 -2.04938,29.58668 -1.76342,39.965c0.28594,10.37832 2.00167,15.47626 4.19408,19.57295c2.19238,4.0967 4.86129,7.19188 7.43497,7.46502c2.57368,0.27314 5.05194,-2.27582 7.14903,-7.82908c2.09707,-5.55326 3.81277,-14.11052 3.90814,-30.22407c0.09542,-16.11355 -1.42977,-39.78257 0.00006,-52.8921c1.42985,-13.10952 5.81439,-15.65843 10.10386,-16.56883c4.28947,-0.91039 8.48349,-0.18212 11.34314,3.91453c2.85965,4.09665 4.38476,11.5615 5.33796,23.48736c0.95321,11.92586 1.33448,28.3121 0.66247,42.44217c-0.67204,14.13007 -2.39736,26.00308 -5.51985,36.23708c-3.12252,10.234 -7.64187,18.82803 -14.28648,23.76255c-6.64464,4.93453 -15.41376,6.20899 -23.14066,5.23613c-7.72687,-0.97286 -14.4106,-4.19293 -20.02504,-11.17164c-5.61444,-6.97872 -10.15891,-17.71524 -12.16167,-30.93883c-2.00276,-13.22359 -1.46357,-28.93268 -0.78136,-44.02296c0.68221,-15.09028 1.50736,-29.56022 3.96934,-37.61466c2.46197,-8.05445 6.56067,-9.69307 11.13609,-10.14827z"/><path d="M167.11243,100.70746c3.46148,-1.40109 7.747,-1.73074 10.46676,0.32964c2.71976,2.06038 3.87355,6.51073 5.27463,18.70828c1.40108,12.19754 3.04935,32.1417 3.70869,48.62501c0.65934,16.48331 0.32968,29.5047 -2.2252,39.9716c-2.55489,10.46691 -7.33489,18.37864 -14.5875,24.14781c-7.25261,5.76916 -16.97745,9.39537 -26.2905,8.98333c-9.31305,-0.41204 -18.21375,-4.86239 -24.55984,-10.96119c-6.34609,-6.09879 -10.13712,-13.84569 -10.96132,-20.02694c-0.82419,-6.18124 1.31857,-10.79642 4.78004,-13.1041c3.46147,-2.30768 8.24148,-2.30768 12.69197,0.41203c4.45049,2.71972 8.57118,8.15903 13.10407,11.12605c4.5329,2.96701 9.47773,3.4615 13.02165,2.22527c3.54392,-1.23623 5.68668,-4.20313 6.59327,-21.84009c0.90659,-17.63695 0.57693,-49.94384 1.73075,-67.33352c1.15382,-17.38968 3.79106,-19.86209 7.25254,-21.26318z"/><path d="M296.00693,125.46545c5.468,-6.13904 10.98003,-10.47141 18.00043,-14.01636c7.0204,-3.54494 15.5486,-6.30217 23.65912,-5.23314c8.11052,1.06902 15.80288,5.96416 19.76569,10.74289c3.96281,4.77873 4.19591,9.44076 2.85552,12.93738c-1.34039,3.49662 -4.25416,5.82763 -8.10046,6.00244c-3.84631,0.17481 -8.62489,-1.80655 -13.28706,-3.03037c-4.66218,-1.22381 -9.20766,-1.69002 -13.52017,0.52454c-4.3125,2.21456 -8.39178,7.1097 -11.42218,11.59703c-3.03041,4.48734 -5.01177,8.56662 -6.4687,13.81157c-1.45692,5.24496 -2.38933,11.65525 -2.15621,17.8909c0.23312,6.23566 1.63173,12.2963 4.13766,18.06574c2.50593,5.76943 6.11901,11.24732 11.18913,14.45254c5.07013,3.20522 11.59698,4.13763 15.79291,2.73896c4.19594,-1.39868 6.06075,-5.1283 6.65351,-8.88218c0.59275,-3.75388 -0.0865,-7.5317 -2.92388,-9.14934c-2.83733,-1.61764 -7.83233,-1.07489 -12.11075,-1.80715c-4.27842,-0.73226 -7.83971,-2.73943 -9.25666,-6.48335c-1.41694,-3.74392 -0.68938,-9.22412 2.93799,-12.02267c3.62736,-2.79855 10.15407,-2.9151 17.32224,-3.14821c7.16816,-0.23311 14.97707,-0.58276 19.96059,3.08874c4.98353,3.6715 7.14139,11.36371 7.28794,18.59015c0.14655,7.22644 -1.71822,13.98625 -3.67139,20.3968c-1.95316,6.41056 -3.99451,12.4712 -8.68671,17.07508c-4.69219,4.60388 -12.0349,7.75075 -19.26127,8.62489c-7.22636,0.87414 -14.33596,-0.52447 -21.62061,-3.72974c-7.28465,-3.20526 -14.7439,-8.21694 -19.75571,-14.39434c-5.01181,-6.17739 -7.57593,-13.52009 -9.79046,-20.68818c-2.21453,-7.16809 -4.07934,-14.16114 -4.6621,-22.78618c-0.58276,-8.62503 0.11654,-18.88151 3.17819,-27.98273c3.06164,-9.10123 8.4854,-17.04668 13.9534,-23.18572z"/><path d="M507.2027,99.24305c8.62502,4.31248 16.43334,11.77159 19.98828,21.1543c3.55494,9.38271 2.85699,20.68708 -0.46484,29.25391c-3.32183,8.56682 -9.26683,14.39448 -9.84961,18.70703c-0.58277,4.31255 4.19645,7.10922 7.28515,12.4707c3.08871,5.36147 4.48616,13.28725 5.53516,20.86328c1.04896,7.57602 1.74846,14.80245 1.10742,20.86328c-0.64103,6.06084 -2.62122,10.95696 -6.23437,13.46289c-3.61317,2.50594 -8.85851,2.62224 -12.29688,1.39844c-3.43836,-1.22381 -5.06956,-3.7888 -5.65234,-7.69336c-0.58279,-3.90456 -0.11646,-9.14871 -0.69922,-16.02539c-0.58277,-6.87667 -2.21475,-15.3854 -5.07031,-19.46484c-2.85557,-4.07945 -6.93611,-3.72963 -9.5586,-2.85547c-2.62247,0.87415 -3.788,2.27372 -4.3125,6.99414c-0.5245,4.72041 -0.40621,12.76127 -0.75586,19.87109c-0.34966,7.10981 -1.16629,13.28655 -3.73046,16.78321c-2.56418,3.49665 -6.87738,4.31395 -10.54883,3.14843c-3.67147,-1.16552 -6.70153,-4.3128 -8.56641,-11.18945c-1.86488,-6.87666 -2.56366,-17.4835 -3.49609,-32.05274c-0.93243,-14.56923 -2.09829,-33.10045 -2.21485,-48.71875c-0.11657,-15.61829 0.8169,-28.3218 1.98243,-36.13086c1.16552,-7.80906 2.5633,-10.72428 5.94335,-12.82227c3.38005,-2.09798 8.74141,-3.37921 16.14258,-3.4375c7.40118,-0.05829 16.84178,1.10745 25.4668,5.41992zM486.86481,160.4325c2.50589,-2.27278 5.01063,-4.54457 7.69141,-7.7207c2.68076,-3.17613 5.53687,-7.25644 6.93554,-11.68555c1.39866,-4.42911 1.34059,-9.20716 0.0293,-12.4707c-1.31125,-3.26354 -3.87524,-5.01155 -6.43945,-6.06055c-2.56422,-1.049 -5.12921,-1.39839 -7.69336,-1.74805z"/></g></g></g></svg>