<svg version="1.1" xmlns="http://www.w3.org/2000/svg" xmlns:xlink="http://www.w3.org/1999/xlink" width="320.42712" height="323.5" viewBox="0,0,320.42712,323.5"><g transform="translate(-159.78644,-18.25)"><g data-paper-data="{&quot;isPaintingLayer&quot;:true}" fill-rule="nonzero" stroke-miterlimit="10" stroke-dasharray="" stroke-dashoffset="0" style="mix-blend-mode: normal"><path d="M466.96356,180c0,82.01429 -65.79783,148.5 -146.96356,148.5c-81.16573,0 -146.96356,-66.48571 -146.96356,-148.5c0,-82.01429 65.79783,-148.5 146.96356,-148.5c81.16573,0 146.96356,66.48571 146.96356,148.5z" fill="#60a040" stroke="#29441b" stroke-width="26.5" stroke-linecap="butt" stroke-linejoin="miter"/><path d="M238.58393,181.84493c0,-43.77339 36.10244,-79.25874 80.63705,-79.25874c44.53461,0 80.63705,35.48534 80.63705,79.25874c0,43.77339 -36.10244,79.25875 -80.63705,79.25875c-44.53461,0 -80.63705,-35.48535 -80.63705,-79.25875z" fill="#0000ff" stroke="none" stroke-width="6.11847" stroke-linecap="butt" stroke-linejoin="miter"/><path d="M262.71927,79.88963c11.30792,4.97504 22.61562,9.94998 32.03899,7.31083c9.42337,-2.63915 16.96198,-12.89259 24.50059,-23.14603c7.04077,10.25344 14.08142,20.50667 23.37447,22.47628c9.29305,1.96961 20.83824,-4.34484 26.735,-7.04922c5.89678,-2.70439 6.14514,-1.79875 5.49309,3.93711c-0.65203,5.73587 -2.2044,16.30127 -3.23465,23.71651c-1.03026,7.41525 -1.53832,11.67969 -2.04638,15.94413c-1.105,1.28145 -2.20995,2.56288 -6.20092,3.77519c-3.99097,1.21231 -10.86746,2.35536 -18.32866,3.19237c-7.4612,0.83701 -15.50621,1.36787 -23.245,1.42095c-7.73879,0.05309 -15.17042,-0.37159 -21.6601,-0.83422c-6.48968,-0.46262 -12.03685,-0.96315 -16.93526,-1.82394c-4.89842,-0.86079 -9.14761,-2.08174 -11.49013,-3.07526c-2.34253,-0.99351 -2.77812,-1.75947 -3.21373,-2.52545z" fill="#fcc800" stroke="none" stroke-width="0" stroke-linecap="round" stroke-linejoin="bevel"/><g><g stroke="#ff8e00" stroke-width="0" stroke-linecap="round" stroke-linejoin="bevel"><path d="M259.24957,167.47071c0,-13.59311 11.2117,-24.61251 25.04204,-24.61251c13.83033,0 25.04203,11.0194 25.04203,24.61251c0,13.59311 -11.21169,24.61252 -25.04203,24.61252c-13.83034,0 -25.04204,-11.01941 -25.04204,-24.61251z" fill="#000000"/><path d="M282.07361,160.04801c0,-6.53103 5.48258,-11.82547 12.24569,-11.82547c6.76311,0 12.2457,5.29445 12.2457,11.82547c0,6.53103 -5.48258,11.82547 -12.2457,11.82547c-6.76311,0 -12.24569,-5.29444 -12.24569,-11.82547z" fill="#f9f9f9"/></g><g stroke="#ff8e00" stroke-width="0" stroke-linecap="round" stroke-linejoin="bevel"><path d="M355.2992,192.08322c-13.58536,0 -24.59845,-11.01941 -24.59845,-24.61251c0,-13.59311 11.0131,-24.61251 24.59846,-24.61251c13.58536,0 24.59846,11.0194 24.59846,24.61251c0,13.59311 -11.0131,24.61252 -24.59846,24.61252z" fill="#000000"/><path d="M345.44912,171.87349c-6.64331,0 -12.02878,-5.29444 -12.02878,-11.82547c0,-6.53103 5.38547,-11.82547 12.02878,-11.82547c6.64331,0 12.02878,5.29445 12.02878,11.82547c0,6.53103 -5.38547,11.82547 -12.02878,11.82547z" fill="#f9f9f9"/></g><path d="M243.98773,256.42847c-27.89353,-20.88732 -27.89353,-20.88732 -27.89353,-20.88732l33.5674,-15.20393z" fill="#000080" stroke="none" stroke-width="0.12463" stroke-linecap="butt" stroke-linejoin="miter"/><path d="M243.98773,256.42847c-27.89353,-20.88732 -27.89353,-20.88732 -27.89353,-20.88732l33.5674,-15.20393z" fill="#000080" stroke="none" stroke-width="0.12463" stroke-linecap="butt" stroke-linejoin="miter"/><path d="M389.14828,220.33722l33.5674,15.20393c0,0 -0.00001,0 -27.89353,20.88732z" fill="#000080" stroke="none" stroke-width="0.12463" stroke-linecap="butt" stroke-linejoin="miter"/><path d="M296.55309,217.06533c8.58368,2.4739 17.1672,4.94772 25.86899,4.98938c8.70179,0.04163 17.52115,-2.34889 26.34069,-4.73947c-2.38329,1.79656 -4.76652,3.59304 -9.67195,5.01155c-4.90543,1.41854 -12.33239,2.45894 -19.06261,2.27626c-6.73023,-0.18261 -12.76284,-1.58845 -16.55923,-3.04865c-3.7964,-1.46017 -5.35613,-2.9746 -6.91588,-4.48906z" fill="#000000" stroke="none" stroke-width="0" stroke-linecap="round" stroke-linejoin="bevel"/></g></g></g></svg>