<svg version="1.1" xmlns="http://www.w3.org/2000/svg" xmlns:xlink="http://www.w3.org/1999/xlink" width="154.9096" height="173.92545" viewBox="0,0,154.9096,173.92545"><g transform="translate(-246.73606,-65.92497)"><g data-paper-data="{&quot;isPaintingLayer&quot;:true}" fill-rule="nonzero" stroke-linecap="butt" stroke-linejoin="miter" stroke-miterlimit="10" stroke-dasharray="" stroke-dashoffset="0" style="mix-blend-mode: normal"><path d="M346.50304,95.22988c13.21879,6.11025 22.97784,22.10398 23.56469,37.78334c1.05983,28.31647 -25.89075,60.24617 -41.64157,83.92575c-6.04505,9.08804 -26.74997,10.29782 -31.95703,0.66926c-7.99375,-14.78153 26.46924,-42.79975 26.46924,-42.79975c0,0 -30.42559,-0.71007 -37.32767,-11.09122c-10.68236,-16.06688 -8.90753,-44.99661 4.07959,-59.12506c8.26438,-8.99065 21.55077,-13.56298 34.62831,-13.75093c7.84652,-0.1128 15.61774,1.35323 22.18444,4.3886zM307.76717,137.19218c-0.00041,8.03303 6.35835,14.54539 14.20263,14.54572c7.84472,0.00032 14.20416,-6.51224 14.20376,-14.54572c-0.00023,-8.03301 -6.3595,-14.54486 -14.20376,-14.54454c-7.84381,0.00032 -14.20239,6.51196 -14.20263,14.54454z" fill="#fd9b9b" stroke="#ffffff" stroke-width="7.5"/><path d="M246.73606,239.85042v-173.92545h154.9096v173.92545z" fill="none" stroke="none" stroke-width="0"/></g></g></svg>