<svg version="1.1" xmlns="http://www.w3.org/2000/svg" xmlns:xlink="http://www.w3.org/1999/xlink" width="251.25669" height="297.73512" viewBox="0,0,251.25669,297.73512"><g transform="translate(-194.37166,-31.00745)"><g data-paper-data="{&quot;isPaintingLayer&quot;:true}" fill-rule="nonzero" stroke-miterlimit="10" stroke-dasharray="" stroke-dashoffset="0" style="mix-blend-mode: normal"><path d="M291.31277,326.47621c-26.05933,-6.05225 -55.55289,-69.8232 -28.83072,-71.10526c59.376,-2.84872 66.16545,-10.19321 68.73248,13.54022c1.89263,17.49832 -19.44615,62.31585 -39.90177,57.56504z" fill="#5a6d28" stroke="#1ce652" stroke-width="0" stroke-linecap="round" stroke-linejoin="bevel"/><path d="M396.95873,47.56681c42.88523,27.90476 53.45902,91.3476 46.40965,138.93227c-7.04937,47.58467 -31.72208,79.30671 -80.18755,92.81854c-48.46546,13.51183 -120.72124,8.81227 -151.26962,-34.95417c-30.54838,-43.76642 -19.38691,-126.59622 23.79118,-171.83042c43.17809,-45.23419 118.37111,-52.871 161.25634,-24.96622z" fill="#dcff82" stroke="#1ce652" stroke-width="0.5" stroke-linecap="round" stroke-linejoin="bevel"/><path d="M355.95454,328.39209c-26.05933,-6.05225 -55.55288,-69.82321 -28.83071,-71.10526c59.376,-2.84872 66.16545,-10.19321 68.73248,13.54021c1.89263,17.49832 -19.44615,62.31586 -39.90177,57.56505z" fill="#8caa3f" stroke="#1ce652" stroke-width="0" stroke-linecap="round" stroke-linejoin="bevel"/><path d="M352.49929,94.68014c9.25173,17.58696 -1.05394,50.14368 3.93739,70.81408c1.30189,2.63461 12.10809,-1.29862 15.20979,-0.25588c8.0937,2.72103 9.36875,21.96305 2.62816,29.30846c-4.56297,4.97238 -20.64878,0.72291 -20.64878,0.72291c0,0 3.51675,22.5802 -4.13107,28.947c-7.47543,6.22332 -22.16807,5.97202 -29.6332,-0.26277c-7.33039,-6.12222 0.71665,-28.12612 -4.40374,-27.72287c-22.31556,1.7574 -35.31422,-0.93575 -43.66517,-1.60739c-50.6015,-4.06966 39.15775,-110.70196 58.81234,-110.26447c9.61404,0.214 17.95713,2.83659 21.8943,10.32092zM288.67225,167.40927l33.41579,1.08439c2.22678,-47.81738 1.38061,-30.807 2.25175,-48.84699l-0.01747,0.0248c0,-0.017 0.01747,-0.37354 0.01747,-0.38582z" fill="#c962c4" stroke="#ffffff" stroke-width="7.5" stroke-linecap="butt" stroke-linejoin="miter"/></g></g></svg>