<svg version="1.1" xmlns="http://www.w3.org/2000/svg" xmlns:xlink="http://www.w3.org/1999/xlink" width="654" height="379" viewBox="0,0,654,379"><g transform="translate(7.49989,8.99986)"><g data-paper-data="{&quot;isPaintingLayer&quot;:true}" fill-rule="nonzero" stroke-miterlimit="10" stroke-dashoffset="0" style="mix-blend-mode: normal"><g visibility="hidden"><g fill="none" stroke="none" stroke-width="1" stroke-linecap="butt" stroke-linejoin="miter" stroke-dasharray="" font-family="sans-serif" font-weight="normal" font-size="12" text-anchor="start"/><path d="M322.00285,178.49639l2.88591,-3.48036z" fill="#785b00" stroke="none" stroke-width="0.67952" stroke-linecap="round" stroke-linejoin="round" stroke-dasharray="0.67951,1.35902"/><path d="M313.39565,177.15981c0,-1.31398 1.02119,-2.37918 2.28089,-2.37918c1.2597,0 2.28089,1.0652 2.28089,2.37918c0,1.31398 -1.02119,2.37918 -2.28089,2.37918c-1.2597,0 -2.28089,-1.0652 -2.28089,-2.37918z" fill="#ffe16a" stroke="#7802ff" stroke-width="0" stroke-linecap="round" stroke-linejoin="round" stroke-dasharray=""/><path d="M323.16248,179.48189c-1.2597,0 -2.2809,-1.0652 -2.2809,-2.37918c0,-1.31398 1.02119,-2.37918 2.2809,-2.37918c1.2597,0 2.28089,1.0652 2.28089,2.37918c0,1.31398 -1.02119,2.37918 -2.28089,2.37918z" fill="#ffe16a" stroke="#7802ff" stroke-width="0" stroke-linecap="round" stroke-linejoin="round" stroke-dasharray=""/><path d="M314.31911,180.21681c0,-2.88287 2.30669,-5.2199 5.15214,-5.2199c2.84545,0 5.15214,2.33703 5.15214,5.2199c0,2.88287 -2.30669,5.2199 -5.15214,5.2199c-2.84545,0 -5.15214,-2.33703 -5.15214,-5.2199z" fill="#ffe16a" stroke="#7802ff" stroke-width="0" stroke-linecap="round" stroke-linejoin="round" stroke-dasharray=""/></g><path d="M-7.49989,370.00014v-379h654v379z" fill="#000000" stroke="none" stroke-width="0" stroke-linecap="butt" stroke-linejoin="miter" stroke-dasharray=""/></g></g></svg>