<svg version="1.1" xmlns="http://www.w3.org/2000/svg" xmlns:xlink="http://www.w3.org/1999/xlink" width="121.63613" height="143.38385" viewBox="0,0,121.63613,143.38385"><g transform="translate(-261.9544,-116.14419)"><g data-paper-data="{&quot;isPaintingLayer&quot;:true}" fill-rule="nonzero" stroke="#ffffff" stroke-linecap="butt" stroke-linejoin="miter" stroke-miterlimit="10" stroke-dasharray="" stroke-dashoffset="0" style="mix-blend-mode: normal"><path d="M355.8156,164.39204c-0.02363,8.4225 -4.40057,16.43012 -12.01623,21.98363c11.27261,6.05131 18.031,16.16938 18.03211,26.99608c0.00003,17.98189 -18.30328,32.55919 -40.88176,32.55937c-10.84275,0.00011 -21.24145,-3.43017 -28.90846,-9.53626c-7.66701,-6.10609 -11.97432,-14.38776 -11.97429,-23.02311c0.02318,-10.65193 6.58726,-20.62127 17.57584,-26.69379c-7.84653,-5.56659 -12.36988,-13.7097 -12.37953,-22.28593c0.00042,-16.19886 15.79365,-29.33051 35.27567,-29.33078c19.48238,-0.00016 35.2762,13.13161 35.27664,29.33078zM309.60094,168.8834c-0.00003,5.96812 5.2644,10.8063 11.75855,10.80641c3.11875,0.00018 6.10986,-1.13827 8.31522,-3.16487c2.20536,-2.02662 3.44431,-4.77536 3.44431,-7.64152c0.00002,-2.86616 -1.23895,-5.6149 -3.44431,-7.64151c-2.20536,-2.02662 -5.19647,-3.16505 -8.31522,-3.16485c-6.49414,0.00011 -11.75859,4.83826 -11.75855,10.80636zM307.41351,208.73968c-0.00016,3.53604 1.55551,6.92729 4.32476,9.4277c2.76927,2.50043 6.52526,3.90521 10.44172,3.90527c3.91646,-0.0001 7.67245,-1.40486 10.44172,-3.90527c2.76927,-2.50043 4.32494,-5.89168 4.32478,-9.4277c-0.00031,-7.363 -6.61135,-13.33183 -14.7665,-13.33199c-8.15517,0.00016 -14.76617,5.96897 -14.76648,13.33199z" fill="#a6a5e7" stroke-width="6"/><path d="M261.9544,259.52805v-143.38385h121.63613v143.38385z" fill="none" stroke-width="0"/></g></g></svg>