<svg version="1.1" xmlns="http://www.w3.org/2000/svg" xmlns:xlink="http://www.w3.org/1999/xlink" width="402.88392" height="106.89906" viewBox="0,0,402.88392,106.89906"><g transform="translate(-118.49322,-126.61346)"><g data-paper-data="{&quot;isPaintingLayer&quot;:true}" fill="#ffe16a" fill-rule="nonzero" stroke="#f9a439" stroke-width="6" stroke-linecap="round" stroke-linejoin="bevel" stroke-miterlimit="10" stroke-dasharray="" stroke-dashoffset="0" style="mix-blend-mode: normal"><path d="M123.83788,220.42259c-1.79084,-8.09492 -1.35844,-22.35595 -1.67176,-37.58493c-0.31332,-15.22898 -1.37235,-31.42585 0.05307,-40.72924c1.42535,-9.30339 5.33505,-11.71324 9.81548,-12.49495c4.48041,-0.78171 9.53122,0.06477 16.17921,11.11376c6.64798,11.04899 14.89255,32.29963 17.93296,32.28783c3.04039,-0.01178 0.87652,-21.28589 2.78677,-32.01026c1.91025,-10.72438 7.89435,-10.89788 12.12187,-9.94357c4.22749,0.95431 6.698,3.03636 7.63635,11.71144c0.93835,8.67508 0.34446,23.94263 0.28957,39.34145c-0.05487,15.39882 0.42919,30.92885 -2.23861,39.01942c-2.66781,8.09058 -8.48719,8.74121 -12.85198,7.61337c-4.36479,-1.12784 -7.2745,-4.03401 -12.66717,-15.19926c-5.39268,-11.16525 -13.26788,-30.58867 -16.02515,-29.78156c-2.75728,0.80711 -0.39654,21.84455 -1.46717,33.31816c-1.07061,11.47361 -5.57241,13.38214 -9.83048,13.37206c-4.25807,-0.00999 -8.27203,-1.93879 -10.06287,-10.03371z"/><path d="M196.61278,147.67513c0.46904,-9.17657 1.98057,-11.51754 3.95128,-12.9842c1.97073,-1.46666 4.40071,-2.05904 7.39673,-1.94862c2.99604,0.11042 6.55815,0.92362 8.02927,4.77512c1.47114,3.8515 0.85123,10.74087 0.82414,23.52784c-0.02698,12.78697 0.53898,31.47107 0.63312,43.75063c0.09408,12.27956 -0.28381,18.15386 -2.38919,21.46661c-2.10538,3.31275 -5.938,4.06359 -9.68986,3.51149c-3.75186,-0.55211 -7.42266,-2.40718 -8.75543,-9.44078c-1.33268,-7.0336 -0.32729,-19.24526 -0.11146,-33.35732c0.21582,-14.11205 -0.35755,-30.12421 0.11146,-39.30078z"/><path d="M227.48808,133.47318c4.30063,-1.59064 10.89846,-2.06192 15.90603,6.95172c5.00758,9.01364 8.42431,27.51113 10.78082,36.46586c2.35651,8.95473 3.65251,8.36564 6.48028,0.29475c2.82776,-8.07089 7.18713,-23.62322 12.01797,-32.46013c4.83084,-8.83691 10.13268,-10.95764 14.4333,-9.8383c4.30063,1.11934 7.59953,5.47861 7.18715,12.54815c-0.41238,7.06954 -4.53603,16.84845 -9.66138,30.33929c-5.12533,13.49084 -11.25201,30.69266 -15.90612,39.76522c-4.6541,9.07256 -7.8352,10.0151 -12.01795,10.19185c-4.18275,0.17674 -9.36686,-0.41236 -13.01945,-6.48037c-3.65259,-6.06801 -5.77332,-17.61421 -9.60259,-31.98874c-3.82927,-14.37453 -9.36695,-31.57669 -11.1343,-41.53274c-1.76735,-9.95605 0.23561,-12.66593 4.53623,-14.25657z"/><path d="M299.6679,151.42463c0.03066,-4.48586 0.09197,-13.45741 7.89504,-17.75293c7.80306,-4.29552 23.34694,-3.91467 31.71382,-1.59037c8.36688,2.3243 9.55577,6.59178 9.48529,10.52435c-0.07047,3.93256 -1.40032,7.52975 -5.48931,9.01465c-4.08899,1.4849 -10.93679,0.85734 -17.78473,0.22976c0.05838,5.53258 0.11677,11.06516 0.17515,16.59774c6.30537,0.70055 12.61075,1.40111 16.20486,4.03915c3.59411,2.63804 4.47694,7.21349 3.49026,10.61958c-0.98669,3.4061 -3.84276,5.64253 -7.43089,7.00998c-3.58814,1.36745 -7.908,1.86576 -12.22794,2.36407c0.12887,5.75324 0.25772,11.50648 0.38658,17.25972c5.88044,-0.08479 11.76077,-0.16956 15.28197,2.3523c3.5212,2.52186 4.68298,7.65006 3.68877,11.29906c-0.9942,3.649 -4.14426,5.81836 -11.53508,7.12082c-7.39082,1.30246 -19.02175,1.73787 -25.48664,-0.39387c-6.4649,-2.13174 -7.76352,-6.83063 -9.06215,-11.52952c0.22145,-20.89288 0.4429,-41.78575 0.55362,-52.23219c0.11073,-10.44645 0.11073,-10.44645 0.14137,-14.93231z"/><path d="M355.59519,137.96239c2.32088,-2.28429 4.64174,-4.56854 8.2432,-5.15426c3.60145,-0.58572 9.45422,0.74845 11.18917,6.94024c1.73495,6.19178 1.09168,22.95456 0.84428,35.99014c-0.24743,13.03558 -0.17923,23.66057 -0.10893,34.61828c9.04349,-0.35143 18.08679,-0.70285 23.44896,0.9079c5.36217,1.61075 7.04275,5.18347 6.52254,8.46354c-0.52023,3.28008 -3.24116,6.2671 -7.80768,7.65005c-4.56652,1.38294 -10.97826,1.16164 -17.62082,1.23486c-6.64256,0.07322 -13.51578,0.44094 -17.93912,-0.70644c-4.42334,-1.14738 -6.39669,-3.80986 -7.06272,-11.96177c-0.66605,-8.15191 -0.02479,-21.79326 0.24161,-35.70526c0.26628,-13.912 0.15781,-28.09464 0.04935,-42.27728z"/><path d="M411.56841,149.44807c0.03066,-4.48586 0.09197,-13.45741 7.89504,-17.75293c7.80306,-4.29552 23.34694,-3.91467 31.71382,-1.59037c8.36688,2.3243 9.55577,6.59178 9.48529,10.52435c-0.07047,3.93256 -1.40032,7.52975 -5.48931,9.01465c-4.08899,1.4849 -10.93679,0.85734 -17.78473,0.22976c0.05838,5.53258 0.11677,11.06516 0.17515,16.59774c6.30537,0.70055 12.61075,1.40111 16.20486,4.03915c3.59411,2.63804 4.47694,7.21349 3.49026,10.61958c-0.98669,3.4061 -3.84276,5.64253 -7.43089,7.00998c-3.58814,1.36745 -7.908,1.86576 -12.22794,2.36407c0.12887,5.75324 0.25772,11.50648 0.38658,17.25972c5.88044,-0.08479 11.76077,-0.16956 15.28197,2.3523c3.5212,2.52186 4.68298,7.65006 3.68877,11.29906c-0.9942,3.649 -4.14426,5.81836 -11.53508,7.12082c-7.39082,1.30246 -19.02175,1.73787 -25.48664,-0.39387c-6.4649,-2.13174 -7.76352,-6.83063 -9.06215,-11.52952c0.22145,-20.89288 0.4429,-41.78575 0.55362,-52.23219c0.11073,-10.44645 0.11073,-10.44645 0.14137,-14.93231z"/><path d="M467.15447,144.96859c3.7491,-5.99857 10.58081,-9.99762 16.996,-11.58057c6.4152,-1.58295 12.41364,-0.74983 17.62078,1.16641c5.20715,1.91624 9.62259,4.91541 11.45551,7.99807c1.83294,3.08266 1.08312,6.24851 -0.5415,8.33135c-1.62464,2.08285 -4.12399,3.08259 -8.20642,2.66601c-4.08241,-0.41658 -9.74762,-2.24944 -13.33012,-2.24943c-3.58249,0.00002 -5.08211,1.83288 -4.66551,4.66557c0.4166,2.8327 2.74932,6.66504 7.7482,11.3723c4.99889,4.70727 12.66342,10.28905 17.62067,16.78763c4.95727,6.49858 7.20663,13.91319 6.54012,20.53674c-0.66653,6.62356 -4.24895,12.45539 -9.12284,16.91269c-4.87389,4.4573 -11.03885,7.53978 -17.45411,8.41458c-6.41526,0.87481 -13.08009,-0.45816 -18.49557,-2.95761c-5.41548,-2.49945 -9.58099,-6.1651 -11.33061,-10.12257c-1.74962,-3.95747 -1.08312,-8.20637 0.24992,-10.99738c1.33302,-2.79101 3.3325,-4.124 6.08189,-4.45725c2.74938,-0.33325 6.24848,0.33325 8.7479,2.49943c2.49942,2.16619 3.99903,5.83191 7.2483,7.0816c3.24929,1.24969 8.24798,0.08332 10.91403,-2.24949c2.66603,-2.33281 2.99928,-5.83191 -2.9161,-12.99698c-5.91538,-7.16507 -18.07866,-17.99538 -23.82742,-27.41c-5.74874,-9.41461 -5.08224,-17.41254 -1.33313,-23.41111z"/></g></g></svg>