<svg version="1.1" xmlns="http://www.w3.org/2000/svg" xmlns:xlink="http://www.w3.org/1999/xlink" width="625.85682" height="138.08212" viewBox="0,0,625.85682,138.08212"><g transform="translate(-6.82408,-110.95894)"><g data-paper-data="{&quot;isPaintingLayer&quot;:true}" fill-rule="nonzero" stroke-miterlimit="10" stroke-dashoffset="0" style="mix-blend-mode: normal"><g><g fill="#f9a439" stroke="#7802ff" stroke-width="0" stroke-linecap="round" stroke-linejoin="round" stroke-dasharray=""><path d="M409.56753,156.36283c0,-21.63297 18.46009,-39.16996 41.23176,-39.16996c22.77166,0 41.23176,17.53699 41.23176,39.16996c0,21.63297 -18.46009,39.16994 -41.23176,39.16994c-22.77166,0 -41.23176,-17.53699 -41.23176,-39.16994z"/><path d="M412.78502,209.87112c0,-21.63297 18.46009,-39.16996 41.23176,-39.16996c22.77166,0 41.23176,17.53699 41.23176,39.16996c0,21.63297 -18.46007,39.16994 -41.23176,39.16994c-22.77166,0 -41.23176,-17.53699 -41.23176,-39.16994z"/><path d="M476.72769,155.45179c0,-21.63297 18.46007,-39.16994 41.23173,-39.16994c22.77166,0 41.23176,17.53697 41.23176,39.16994c0,21.63297 -18.46009,39.16994 -41.23176,39.16994c-22.77166,0 -41.23173,-17.53699 -41.23173,-39.16994z"/><path d="M474.31538,209.85637c0,-21.63297 18.46009,-39.16994 41.23176,-39.16994c22.77166,0 41.23176,17.53697 41.23176,39.16994c0,21.63297 -18.46009,39.16996 -41.23176,39.16996c-22.77166,0 -41.23176,-17.53699 -41.23176,-39.16996z"/><path d="M450.84233,142.3547c0,-17.33941 15.20243,-31.39576 33.95555,-31.39576c18.75315,0 33.95557,14.05637 33.95557,31.39576c0,17.33941 -15.20243,31.39576 -33.95557,31.39576c-18.75315,0 -33.95555,-14.05635 -33.95555,-31.39576z"/></g><g stroke-linecap="round" stroke-linejoin="round"><path d="M506.40788,167.02369l25.40003,-30.0359z" fill="#785b00" stroke="none" stroke-width="4.9" stroke-dasharray="4.9,9.80001"/><path d="M430.65256,155.48869c0,-11.33985 8.98791,-20.5326 20.07507,-20.5326c11.08713,0 20.07505,9.19275 20.07505,20.5326c0,11.33985 -8.98791,20.5326 -20.07505,20.5326c-11.08713,0 -20.07507,-9.19277 -20.07507,-20.5326z" fill="#ffe16a" stroke="#7802ff" stroke-width="0" stroke-dasharray=""/><path d="M516.61408,175.52859c-11.08713,0 -20.07505,-9.19275 -20.07505,-20.53258c0,-11.33985 8.98791,-20.5326 20.07505,-20.5326c11.08713,0 20.07507,9.19277 20.07507,20.5326c0,11.33985 -8.98791,20.53258 -20.07507,20.53258z" fill="#ffe16a" stroke="#7802ff" stroke-width="0" stroke-dasharray=""/><path d="M517.54087,163.3371c-6.43668,0 -11.65462,-4.69776 -11.65462,-10.49274c0,-5.79498 5.21796,-10.49274 11.65462,-10.49274c6.43668,0 11.65464,4.69776 11.65464,10.49274c0,5.79498 -5.21796,10.49274 -11.65464,10.49274z" fill="#ffeca8" stroke="#7802ff" stroke-width="0" stroke-dasharray=""/><path d="M449.3246,164.41827c-6.43668,0 -11.65462,-4.69776 -11.65462,-10.49274c0,-5.79498 5.21796,-10.49274 11.65462,-10.49274c6.43668,0 11.65462,4.69776 11.65462,10.49274c0,5.79498 -5.21796,10.49274 -11.65462,10.49274z" fill="#ffeca8" stroke="#7802ff" stroke-width="0" stroke-dasharray=""/><path d="M438.78014,181.87113c0,-24.87957 20.30209,-45.04844 45.346,-45.04844c25.04389,0 45.34602,20.16887 45.34602,45.04844c0,24.87957 -20.30211,45.04844 -45.34602,45.04844c-25.04389,0 -45.346,-20.16887 -45.346,-45.04844z" fill="#ffe16a" stroke="#7802ff" stroke-width="0" stroke-dasharray=""/></g><path d="M478.89313,205.13932c0,-2.18799 2.67433,-3.96172 5.97329,-3.96172c3.29895,0 5.97327,1.77372 5.97327,3.96172c0,2.18799 -2.67433,3.96172 -5.97327,3.96172c-3.29895,0 -5.97329,-1.77372 -5.97329,-3.96172z" fill="#341a00" stroke="none" stroke-width="0.93619" stroke-linecap="round" stroke-linejoin="round" stroke-dasharray="2.81568,5.63136"/><g stroke="none" stroke-linecap="round" stroke-linejoin="round"><g fill="#ffeca8" stroke-width="5.67567" stroke-dasharray="5.67567,11.3514"><path d="M483.69683,203.45428c-6.22722,-5.61782 -7.99941,-12.83384 -3.95829,-16.11746c4.04112,-3.28362 12.36526,-1.39138 18.59249,4.22644c6.22722,5.61782 7.99941,12.83384 3.95829,16.11746c-4.04112,3.28362 -12.36526,1.39138 -18.59249,-4.22644z"/><path d="M467.41419,207.68078c-4.04112,-3.28362 -2.26893,-10.49964 3.95829,-16.11746c6.22722,-5.61782 14.55136,-7.51008 18.59249,-4.22646c4.04112,3.28362 2.26895,10.49966 -3.95827,16.11748c-6.22722,5.61782 -14.55136,7.51008 -18.59249,4.22646z"/></g><path d="M484.85636,197.43978c-5.58561,-2.24058 -7.94436,-5.46208 -8.85152,-9.12482c0,0 8.05589,-5.78038 16.84071,-0.26755c-0.53964,6.84942 -7.98917,9.39237 -7.98917,9.39237z" fill="#341a00" stroke-width="4.9" stroke-dasharray="4.9,9.80001"/></g><g stroke-linecap="butt" stroke-linejoin="miter" stroke-dasharray=""><g><path d="M496.44701,161.22408c4.44373,-5.73893 11.91023,-6.26875 16.6769,-1.1834c4.76667,5.08536 5.02852,13.86017 0.58479,19.5991c-4.44373,5.73893 -11.91025,6.26873 -16.67692,1.18338c-4.76667,-5.08536 -5.0285,-13.86015 -0.58477,-19.59908z" fill="#ffffff" stroke="#ffffff" stroke-width="0.90331"/><path d="M504.94388,179.50631c-4.35295,0 -7.88169,-3.6508 -7.88169,-8.15428c0,-4.5035 3.52875,-8.1543 7.88169,-8.1543c4.35295,0 7.88169,3.6508 7.88169,8.1543c0,4.5035 -3.52875,8.15428 -7.88169,8.15428z" fill="#aa3f00" stroke="none" stroke-width="0.16561"/><path d="M500.20246,171.14479c-1.88046,0 -3.4049,-1.81121 -3.4049,-4.04546c0,-2.23425 1.52444,-4.04546 3.4049,-4.04546c1.88046,0 3.4049,1.81121 3.4049,4.04546c0,2.23425 -1.52444,4.04546 -3.4049,4.04546z" fill="#ffffff" stroke="#ffffff" stroke-width="0.3191"/></g></g><g stroke-linecap="butt" stroke-linejoin="miter" stroke-dasharray=""><g><path d="M471.77989,180.82317c-4.76667,5.08536 -12.23319,4.55553 -16.67692,-1.18338c-4.44373,-5.73893 -4.1819,-14.51375 0.58479,-19.5991c4.76667,-5.08536 12.23319,-4.55553 16.67692,1.1834c4.44373,5.73893 4.1819,14.51373 -0.58479,19.59908z" fill="#ffffff" stroke="#ffffff" stroke-width="0.90331"/><path d="M455.98608,171.35201c0,-4.5035 3.52875,-8.1543 7.88169,-8.1543c4.35295,0 7.88171,3.6508 7.88171,8.1543c0,4.5035 -3.52875,8.15428 -7.88171,8.15428c-4.35295,0 -7.88169,-3.6508 -7.88169,-8.15428z" fill="#aa3f00" stroke="none" stroke-width="0.16561"/><path d="M465.20431,167.09932c0,-2.23425 1.52444,-4.04546 3.4049,-4.04546c1.88046,0 3.4049,1.81121 3.4049,4.04546c0,2.23425 -1.52444,4.04546 -3.4049,4.04546c-1.88046,0 -3.4049,-1.81121 -3.4049,-4.04546z" fill="#ffffff" stroke="#ffffff" stroke-width="0.3191"/></g></g></g><path d="M10.54578,144.20859c0.03185,-5.59102 0.09552,-16.77282 8.19965,-22.1266c8.10413,-5.35378 24.24773,-4.87909 32.93744,-1.98218c8.68971,2.89692 9.92445,8.21574 9.85126,13.11715c-0.07319,4.9014 -1.45436,9.38479 -5.7011,11.23554c-4.24677,1.85072 -11.35875,1.06857 -18.47091,0.28637c0.06063,6.89561 0.12128,13.79122 0.18191,20.68681c6.54865,0.87314 13.09731,1.7463 16.83009,5.03427c3.73278,3.28796 4.64969,8.99062 3.62493,13.23585c-1.02476,4.24523 -3.99103,7.03264 -7.7176,8.73699c-3.72659,1.70432 -8.2131,2.32541 -12.69973,2.9465c0.13384,7.17063 0.26766,14.34125 0.40148,21.51188c6.10732,-0.10568 12.21452,-0.21133 15.87158,2.93183c3.65706,3.14316 4.86366,9.53475 3.83109,14.08274c-1.03257,4.54798 -4.30416,7.25179 -11.98014,8.87515c-7.67598,1.62334 -19.75566,2.166 -26.46998,-0.49091c-6.71434,-2.65691 -8.06306,-8.51344 -9.41181,-14.36997c0.23,-26.04012 0.45998,-52.08023 0.57498,-65.1003c0.115,-13.02007 0.115,-13.02007 0.14683,-18.61109z" fill="#ffe16a" stroke="#f9a439" stroke-width="6" stroke-linecap="round" stroke-linejoin="bevel" stroke-dasharray=""/><path d="M114.01711,125.80896c8.12601,4.24415 15.78604,12.31698 19.46086,20.70178c3.67481,8.38479 4.29543,17.39014 3.51909,26.70647c-0.77636,9.31633 -2.95007,18.94338 -6.41786,27.63873c-3.46778,8.69533 -9.16065,16.14805 -14.43996,21.8932c-5.27932,5.74513 -10.14438,9.78237 -16.35527,13.87122c-6.21089,4.08883 -13.76759,8.22856 -19.95262,8.97908c-6.18503,0.75052 -10.99766,-1.88853 -13.22327,-20.46965c-2.22559,-18.58114 -1.86401,-53.10209 -0.9065,-72.22631c0.95751,-19.12423 2.51087,-22.85073 6.44443,-25.64565c3.93355,-2.7949 10.24763,-4.65821 17.7007,-5.38282c1.86326,-0.18114 3.79724,-0.29142 5.77774,-0.28822c5.94153,0.00971 12.29816,1.03908 18.39265,4.2222zM94.56394,143.45135c-0.66111,-0.00711 -1.28475,0.0083 -1.85917,0.04181c-4.5956,0.26804 -6.04951,1.70986 -6.43451,5.71507c-0.385,4.00519 0.29859,10.57328 -0.1078,24.75456c-0.40639,14.18129 -1.90222,35.97573 1.13533,42.25724c3.03753,6.28151 10.60774,-2.94933 15.7909,-9.93284c5.18313,-6.98351 7.97889,-11.71912 10.30798,-17.90421c2.32911,-6.18507 4.19212,-13.81985 4.01098,-21.28593c-0.18116,-7.4661 -2.40658,-14.76278 -7.38829,-18.86459c-4.359,-3.58911 -10.82763,-4.7312 -15.45539,-4.78106z" fill="#ffe16a" stroke="#f9a439" stroke-width="6" stroke-linecap="round" stroke-linejoin="bevel" stroke-dasharray=""/><path d="M152.86196,128.78136c3.51343,-0.36599 7.39271,0.21957 9.07622,5.41654c1.68352,5.19697 1.17118,15.00478 0.47582,26.20379c-0.69536,11.199 -1.5737,23.78835 -1.35411,32.13278c0.21957,8.34441 1.53706,12.44327 3.22058,15.7371c1.6835,3.29384 3.73293,5.78244 5.70923,6.00205c1.9763,0.21961 3.87933,-1.82982 5.48967,-6.29477c1.61031,-4.46493 2.92778,-11.34519 3.00102,-24.30085c0.07327,-12.95565 -1.0979,-31.98611 0.00004,-42.52647c1.09797,-10.54034 4.4648,-12.58975 7.75864,-13.32173c3.29384,-0.73198 6.51438,-0.14642 8.71027,3.14737c2.19589,3.29382 3.36701,9.29572 4.09896,18.88437c0.73196,9.58867 1.02474,22.76357 0.50871,34.12448c-0.51605,11.3609 -1.84091,20.90706 -4.23864,29.13545c-2.39775,8.22839 -5.86811,15.13816 -10.97043,19.10562c-5.10235,3.96749 -11.83606,4.99218 -17.76946,4.20998c-5.93338,-0.7822 -11.06574,-3.37122 -15.37701,-8.98227c-4.31127,-5.61105 -7.8009,-14.24345 -9.33881,-24.87552c-1.53789,-10.63208 -1.12388,-23.26255 -0.60001,-35.39547c0.52386,-12.13292 1.15749,-23.76711 3.04802,-30.24306c1.89053,-6.47595 5.03786,-7.79345 8.55129,-8.15944z" fill="#ffe16a" stroke="#f9a439" stroke-width="6" stroke-linecap="round" stroke-linejoin="bevel" stroke-dasharray=""/><path d="M241.96058,122.85823c5.43449,-0.87987 11.64521,-0.87987 15.26827,1.13869c3.62306,2.01856 4.65816,6.05553 4.70992,9.52327c0.05173,3.46774 -0.87987,6.36608 -3.7783,8.22935c-2.89843,1.86326 -7.76349,2.69136 -11.28299,3.72652c-3.51952,1.03515 -5.69325,2.2773 -8.4364,4.45114c-2.74317,2.17382 -6.05555,5.27919 -8.79868,11.69715c-2.74315,6.41796 -4.9169,16.14807 -4.08874,25.36092c0.82814,9.21282 4.65808,17.90783 8.63759,23.0281c3.97949,5.12027 8.10822,6.66557 12.19343,7.25941c4.08521,0.59382 8.1264,0.23611 10.77036,3.96376c2.64395,3.72765 3.89038,11.54021 0.92242,15.80646c-2.96796,4.26622 -10.14996,4.98562 -17.72763,3.11863c-7.57769,-1.86697 -15.55008,-6.32004 -21.60317,-12.75429c-6.0531,-6.43423 -10.18613,-14.84885 -12.49274,-23.22736c-2.30659,-8.37851 -2.78647,-16.72011 -2.43932,-25.72593c0.34715,-9.00582 1.52126,-18.67511 5.55841,-27.3187c4.03712,-8.6436 10.9369,-16.26058 16.71596,-20.94906c5.77908,-4.68846 10.43712,-6.44817 15.8716,-7.32804z" fill="#ffe16a" stroke="#f9a439" stroke-width="6" stroke-linecap="round" stroke-linejoin="bevel" stroke-dasharray=""/><path d="M306.81053,122.0213c5.11122,1.71018 8.62116,5.95511 11.18148,11.66441c2.56033,5.7093 4.17055,12.88255 5.12208,22.54445c0.95155,9.6619 1.24532,21.81158 1.24532,34.54771c0,12.73613 -0.29274,26.05775 -1.0979,34.18249c-0.80517,8.12474 -2.12262,11.05186 -5.19691,12.66219c-3.07427,1.61033 -7.90553,1.90343 -10.61381,-0.58526c-2.7083,-2.48869 -3.29356,-7.75879 -3.58634,-11.34538c-0.29278,-3.58659 -0.29348,-5.48898 -2.78217,-6.51372c-2.48869,-1.02474 -7.46554,-1.17165 -10.17378,2.92738c-2.7082,4.09903 -3.1468,12.4425 -5.2695,16.90751c-2.12272,4.46502 -5.92912,5.05142 -8.85695,4.53903c-2.92785,-0.51239 -4.97757,-2.12274 -6.57533,-4.04727c-1.59775,-1.92453 -2.74351,-4.16302 -2.88998,-13.16605c-0.14646,-9.00305 0.70667,-24.77072 2.16172,-39.49048c1.45504,-14.71978 3.51151,-28.39155 6.74474,-39.03173c3.23323,-10.64019 7.64264,-18.24751 13.20345,-22.46413c3.47551,-2.63539 7.40048,-3.94601 11.10336,-4.14079c2.22174,-0.11687 4.36381,0.16835 6.28051,0.80968zM298.24072,148.97058c-0.9515,0.33512 -0.9005,0.95621 -1.90978,2.92297c-1.00928,1.96677 -3.07904,5.27927 -4.32121,11.85254c-1.2422,6.57326 -1.656,16.4076 -1.88889,22.30794c-0.23289,5.90032 -0.28454,7.86687 2.42574,9.05497c2.71024,1.1881 10.0247,1.73551 11.6996,-1.15843c1.67494,-2.89394 1.11281,-15.10912 0.59626,-23.2056c-0.51656,-8.09649 -1.12901,-15.15112 -2.41252,-18.6545c-0.96264,-2.62753 -2.30218,-3.25729 -3.31353,-3.26623c-0.3371,-0.003 -0.6378,0.06252 -0.87567,0.14631z" fill="#ffe16a" stroke="#f9a439" stroke-width="6" stroke-linecap="round" stroke-linejoin="bevel" stroke-dasharray=""/><path d="M332.77655,128.26898c2.12266,-2.85462 4.2453,-5.70919 7.53916,-6.44115c3.29386,-0.73198 8.64675,0.93532 10.23352,8.67304c1.58677,7.73773 0.99844,28.68575 0.77217,44.97603c-0.22629,16.29026 -0.16392,29.56807 -0.09963,43.26166c8.27109,-0.43918 16.54201,-0.87834 21.44621,1.13458c4.90419,2.01292 6.44123,6.47766 5.96546,10.5767c-0.47579,4.09905 -2.96434,7.83185 -7.14083,9.56008c-4.17649,1.72823 -10.04062,1.45167 -16.11584,1.54317c-6.07522,0.0915 -12.36141,0.55105 -16.40696,-0.88281c-4.04555,-1.43385 -5.85035,-4.76107 -6.4595,-14.94833c-0.60917,-10.18726 -0.02267,-27.23455 0.22097,-44.62003c0.24354,-17.38548 0.14433,-35.10919 0.04513,-52.83292z" fill="#ffe16a" stroke="#f9a439" stroke-width="6" stroke-linecap="round" stroke-linejoin="bevel" stroke-dasharray=""/><path d="M384.72242,140.70196c0.44969,-10.75304 1.8989,-13.49617 3.78834,-15.21479c1.88947,-1.71863 4.21924,-2.41276 7.09172,-2.28337c2.8725,0.12939 6.28772,1.08228 7.69818,5.59545c1.41048,4.51315 0.81613,12.58607 0.79016,27.56973c-0.02587,14.98367 0.51675,36.87755 0.60702,51.26663c0.0902,14.38908 -0.27211,21.27254 -2.29067,25.1544c-2.01856,3.88184 -5.69314,4.76169 -9.29029,4.11474c-3.59715,-0.64695 -7.11658,-2.82073 -8.39439,-11.06263c-1.27773,-8.24193 -0.31379,-22.55143 -0.10687,-39.08783c0.20692,-16.53639 -0.34281,-35.29929 0.10687,-46.05235z" fill="#ffe16a" stroke="#f9a439" stroke-width="6" stroke-linecap="round" stroke-linejoin="bevel" stroke-dasharray=""/><path d="M568.54208,229.32725c-1.68825,-9.65871 -1.28062,-26.67469 -1.576,-44.84562c-0.29538,-18.17093 -1.29373,-37.49674 0.05003,-48.59737c1.3437,-11.10063 5.02943,-13.97603 9.25321,-14.90873c4.22375,-0.93271 8.98523,0.07728 15.25239,13.26072c6.26716,13.18344 14.03944,38.53931 16.90568,38.52522c2.86622,-0.01405 0.82631,-25.39792 2.62713,-38.19404c1.80082,-12.79612 7.44212,-13.00315 11.42747,-11.86448c3.98533,1.13865 6.31431,3.62293 7.19891,13.97388c0.88459,10.35094 0.32473,28.5679 0.27298,46.94148c-0.05173,18.37358 0.40461,36.90371 -2.11038,46.55722c-2.51498,9.65351 -8.00101,10.42984 -12.11577,9.08414c-4.11476,-1.34572 -6.85778,-4.81329 -11.94154,-18.13547c-5.08376,-13.32218 -12.50783,-36.49781 -15.10716,-35.53479c-2.59933,0.96302 -0.37382,26.0645 -1.38312,39.75458c-1.00928,13.69008 -5.25319,15.96731 -9.26734,15.95529c-4.01415,-0.01192 -7.79817,-2.31332 -9.48642,-11.97203z" fill="#ffe16a" stroke="#f9a439" stroke-width="6" stroke-linecap="round" stroke-linejoin="bevel" stroke-dasharray=""/></g></g></svg>