<svg version="1.1" xmlns="http://www.w3.org/2000/svg" xmlns:xlink="http://www.w3.org/1999/xlink" width="200.97198" height="107.55761" viewBox="0,0,200.97198,107.55761"><g transform="translate(-219.51401,-126.223)"><g data-paper-data="{&quot;isPaintingLayer&quot;:true}" fill="#ffffff" fill-rule="nonzero" stroke="#ffffff" stroke-linecap="butt" stroke-linejoin="miter" stroke-miterlimit="10" stroke-dasharray="" stroke-dashoffset="0" style="mix-blend-mode: normal"><g><path d="M278.84784,172.844c0,-25.66705 18.64397,-46.47427 41.64248,-46.47427c22.99851,0 41.64248,20.80722 41.64248,46.47427c0,25.66705 -18.64397,46.47427 -41.64248,46.47427c-22.99851,0 -41.64248,-20.80722 -41.64248,-46.47427z" stroke-width="0.29346"/><path d="M249.47199,191.30455c0,-23.37586 21.48754,-42.32573 47.9938,-42.32573c26.50626,0 47.9938,18.94986 47.9938,42.32573c0,23.37586 -21.48754,42.32573 -47.9938,42.32573c-26.50626,0 -47.9938,-18.94986 -47.9938,-42.32573z" stroke-width="0.30066"/><path d="M219.60102,192.82614c0,-14.90708 11.288,-26.99166 25.21249,-26.99166c13.92448,0 25.21249,12.08459 25.21249,26.99166c0,14.90708 -11.288,26.99166 -25.21249,26.99166c-13.92448,0 -25.21249,-12.08459 -25.21249,-26.99166z" stroke-width="0.17402"/></g><g><path d="M319.50974,219.31827c-22.99851,0 -41.64248,-20.80722 -41.64248,-46.47427c0,-25.66705 18.64397,-46.47427 41.64248,-46.47427c22.99851,0 41.64248,20.80722 41.64248,46.47427c0,25.66705 -18.64397,46.47427 -41.64248,46.47427z" stroke-width="0.29346"/><path d="M342.53427,233.63022c-26.50626,0 -47.9938,-18.94986 -47.9938,-42.32573c0,-23.37586 21.48754,-42.32573 47.9938,-42.32573c26.50626,0 47.9938,18.94986 47.9938,42.32573c0,23.37586 -21.48754,42.32573 -47.9938,42.32573z" stroke-width="0.30066"/><path d="M395.18649,219.81786c-13.92448,0 -25.21249,-12.08459 -25.21249,-26.99166c0,-14.90708 11.288,-26.99166 25.21249,-26.99166c13.92448,0 25.21249,12.08459 25.21249,26.99166c0,14.90708 -11.288,26.99166 -25.21249,26.99166z" stroke-width="0.17402"/></g></g></g></svg>