<svg version="1.1" xmlns="http://www.w3.org/2000/svg" xmlns:xlink="http://www.w3.org/1999/xlink" width="198.81677" height="303.69757" viewBox="0,0,198.81677,303.69757"><g transform="translate(-220.59161,-28.15125)"><g data-paper-data="{&quot;isPaintingLayer&quot;:true}" fill-rule="nonzero" stroke-miterlimit="10" stroke-dasharray="" stroke-dashoffset="0" style="mix-blend-mode: normal"><path d="M324.47884,96.08384c7.5479,54.55136 -0.37535,234.07506 -0.37535,234.07506l-12.14775,1.68944c0,0 -1.68882,-186.21545 7.91808,-237.12272c1.26805,-6.71936 3.58748,-5.99634 4.605,1.35822z" fill="#6b9b1f" stroke="#7802ff" stroke-width="0" stroke-linecap="round" stroke-linejoin="round"/><path d="M416.44065,244.89266c-11.10354,36.88869 -57.11915,69.32765 -97.19474,67.87846c-42.51159,-1.53727 -88.40165,-39.38939 -97.13385,-79.24521c-16.31444,-74.46289 104.04142,-205.37466 104.04142,-205.37466c0,0 112.78364,142.00278 90.28717,216.74141z" fill="#85c227" stroke="#7802ff" stroke-width="0" stroke-linecap="round" stroke-linejoin="round"/><g fill="#6b9b1f" stroke="#7802ff" stroke-width="0" stroke-linecap="round" stroke-linejoin="round"><path d="M324.47929,96.08433c7.5479,54.55135 -0.37535,234.07506 -0.37535,234.07506l-12.14776,1.68943c0,0 -1.68882,-186.21544 7.91809,-237.12272c1.26805,-6.71935 3.58748,-5.99633 4.605,1.35823z"/><path d="M317.90352,253.90836l-2.55721,12.35147c0,0 -42.10871,-8.73752 -51.18721,-21.28505c-1.1983,-1.65619 -0.4759,-3.95581 1.41697,-4.57015c14.04007,-4.55683 52.32745,13.50373 52.32745,13.50373z"/><path d="M327.90912,151.80075l-2.55721,12.35147c0,0 -42.1087,-8.73751 -51.18721,-21.28507c-1.19829,-1.65617 -0.4759,-3.95579 1.41697,-4.57013c14.04006,-4.55682 52.32745,13.50373 52.32745,13.50373z"/><path d="M370.63299,185.25067c1.89287,0.61434 2.61526,2.91396 1.41697,4.57014c-9.0785,12.54754 -51.18722,21.28507 -51.18722,21.28507l-2.55721,-12.35148c0,0 38.28741,-18.06056 52.32746,-13.50373z"/></g><path d="M365.88576,170.60936c-0.02848,10.14893 -5.30259,19.79794 -14.4793,26.48981c13.58325,7.29171 21.72696,19.48376 21.72831,32.52969c0.00004,21.66779 -22.05506,39.23312 -49.26164,39.23334c-13.06528,0.00014 -25.59549,-4.13328 -34.83408,-11.49099c-9.23859,-7.35771 -14.4288,-17.33694 -14.42875,-27.74235c0.02793,-12.83535 7.93751,-24.84819 21.17851,-32.16545c-9.4549,-6.70762 -14.90544,-16.51989 -14.91707,-26.85407c0.0005,-19.51928 19.031,-35.34263 42.50642,-35.34295c23.47585,-0.0002 42.50707,15.8233 42.5076,35.34295zM310.1981,176.02136c-0.00004,7.19146 6.3435,13.02135 14.1688,13.02149c3.75803,0.00021 7.36225,-1.37159 10.01966,-3.8136c2.65741,-2.44203 4.15032,-5.75421 4.15032,-9.20787c0.00002,-3.45366 -1.49291,-6.76583 -4.15032,-9.20785c-2.65741,-2.44203 -6.26163,-3.81381 -10.01966,-3.81358c-7.8253,0.00014 -14.16885,5.83 -14.1688,13.02143zM307.56228,224.04731c-0.0002,4.26086 1.87435,8.34723 5.21124,11.36018c3.33691,3.01297 7.8628,4.70569 12.58205,4.70578c4.71925,-0.00012 9.24513,-1.69282 12.58205,-4.70578c3.33691,-3.01297 5.21146,-7.09935 5.21126,-11.36018c-0.00037,-8.87225 -7.96653,-16.06457 -17.79331,-16.06476c-9.8268,0.0002 -17.79292,7.19249 -17.79329,16.06476z" fill="#a6a5e7" stroke="#ffffff" stroke-width="9" stroke-linecap="butt" stroke-linejoin="miter"/></g></g></svg>