<svg version="1.1" xmlns="http://www.w3.org/2000/svg" xmlns:xlink="http://www.w3.org/1999/xlink" width="217.93324" height="169.9341" viewBox="0,0,217.93324,169.9341"><g transform="translate(-210.03338,-92.02995)"><g data-paper-data="{&quot;isPaintingLayer&quot;:true}" fill-rule="nonzero" stroke-linecap="butt" stroke-linejoin="miter" stroke-miterlimit="10" stroke-dasharray="" stroke-dashoffset="0" style="mix-blend-mode: normal"><g><path d="M269.37028,228.16618l43.53789,-24.37495c0,0 0,0 0.44884,47.20231z" data-paper-data="{&quot;index&quot;:null}" fill="#33a719" stroke="none" stroke-width="0"/><path d="M251.44237,182.03595c21.76498,0 39.40899,17.89252 39.40899,39.96406c0,22.07154 -17.64402,39.96404 -39.40899,39.96404c-21.76498,0 -39.40899,-17.89251 -39.40899,-39.96404c0,-22.07154 17.64402,-39.96406 39.40899,-39.96406z" data-paper-data="{&quot;index&quot;:null}" fill="#44e022" stroke="none" stroke-width="0"/><path d="M245.88316,227.80346l28.15754,-14.47509c0,0 0,0 0.29028,28.03113z" data-paper-data="{&quot;index&quot;:null}" fill="#33a719" stroke="none" stroke-width="0"/><g data-paper-data="{&quot;index&quot;:null}"><path d="M229.85096,230.86996c-4.33164,0 -7.84312,-3.58282 -7.84312,-8.00246c0,-4.41964 3.51147,-8.00246 7.84312,-8.00246c4.33163,0 7.84314,3.58282 7.84314,8.00246c0,4.41964 -3.51148,8.00246 -7.84314,8.00246z" fill="#000000" stroke="#000000" stroke-width="0.33116"/><path d="M226.48902,223.63676c-2.00625,0 -3.63263,-1.64385 -3.63263,-3.67164c0,-2.0278 1.62639,-3.67166 3.63263,-3.67166c2.00625,0 3.63263,1.64387 3.63263,3.67166c0,2.0278 -1.62639,3.67164 -3.63263,3.67164z" fill="#ffffff" stroke="#ffffff" stroke-width="0.15266"/></g></g><g><path d="M383.97989,227.16018l43.53789,-24.37495c0,0 0,0 0.44884,47.20231z" data-paper-data="{&quot;index&quot;:null}" fill="#33a719" stroke="none" stroke-width="0"/><path d="M366.05198,181.02995c21.76498,0 39.40899,17.89252 39.40899,39.96406c0,22.07154 -17.64402,39.96404 -39.40899,39.96404c-21.76498,0 -39.40899,-17.89251 -39.40899,-39.96404c0,-22.07154 17.64402,-39.96406 39.40899,-39.96406z" data-paper-data="{&quot;index&quot;:null}" fill="#44e022" stroke="none" stroke-width="0"/><path d="M360.49277,226.79746l28.15754,-14.47509c0,0 0,0 0.29028,28.03113z" data-paper-data="{&quot;index&quot;:null}" fill="#33a719" stroke="none" stroke-width="0"/><g data-paper-data="{&quot;index&quot;:null}"><path d="M344.46057,229.86396c-4.33164,0 -7.84312,-3.58282 -7.84312,-8.00246c0,-4.41964 3.51147,-8.00246 7.84312,-8.00246c4.33163,0 7.84314,3.58282 7.84314,8.00246c0,4.41964 -3.51148,8.00246 -7.84314,8.00246z" fill="#000000" stroke="#000000" stroke-width="0.33116"/><path d="M341.09863,222.63076c-2.00625,0 -3.63263,-1.64385 -3.63263,-3.67164c0,-2.0278 1.62639,-3.67166 3.63263,-3.67166c2.00625,0 3.63263,1.64387 3.63263,3.67166c0,2.0278 -1.62639,3.67164 -3.63263,3.67164z" fill="#ffffff" stroke="#ffffff" stroke-width="0.15266"/></g></g><g><path d="M267.37028,139.16618l43.53789,-24.37495c0,0 0,0 0.44884,47.20231z" data-paper-data="{&quot;index&quot;:null}" fill="#33a719" stroke="none" stroke-width="0"/><path d="M249.44237,93.03595c21.76498,0 39.40899,17.89252 39.40899,39.96406c0,22.07154 -17.64402,39.96404 -39.40899,39.96404c-21.76498,0 -39.40899,-17.89251 -39.40899,-39.96404c0,-22.07154 17.64402,-39.96406 39.40899,-39.96406z" data-paper-data="{&quot;index&quot;:null}" fill="#44e022" stroke="none" stroke-width="0"/><path d="M243.88316,138.80346l28.15754,-14.47509c0,0 0,0 0.29028,28.03113z" data-paper-data="{&quot;index&quot;:null}" fill="#33a719" stroke="none" stroke-width="0"/><g data-paper-data="{&quot;index&quot;:null}"><path d="M227.85096,141.86996c-4.33164,0 -7.84312,-3.58282 -7.84312,-8.00246c0,-4.41964 3.51147,-8.00246 7.84312,-8.00246c4.33163,0 7.84314,3.58282 7.84314,8.00246c0,4.41964 -3.51148,8.00246 -7.84314,8.00246z" fill="#000000" stroke="#000000" stroke-width="0.33116"/><path d="M224.48902,134.63676c-2.00625,0 -3.63263,-1.64385 -3.63263,-3.67164c0,-2.0278 1.62639,-3.67166 3.63263,-3.67166c2.00625,0 3.63263,1.64387 3.63263,3.67166c0,2.0278 -1.62639,3.67164 -3.63263,3.67164z" fill="#ffffff" stroke="#ffffff" stroke-width="0.15266"/></g></g><g><path d="M381.97989,138.16018l43.53789,-24.37495c0,0 0,0 0.44884,47.20231z" data-paper-data="{&quot;index&quot;:null}" fill="#33a719" stroke="none" stroke-width="0"/><path d="M364.05198,92.02995c21.76498,0 39.40899,17.89252 39.40899,39.96406c0,22.07154 -17.64402,39.96404 -39.40899,39.96404c-21.76498,0 -39.40899,-17.89251 -39.40899,-39.96404c0,-22.07154 17.64402,-39.96406 39.40899,-39.96406z" data-paper-data="{&quot;index&quot;:null}" fill="#44e022" stroke="none" stroke-width="0"/><path d="M358.49277,137.79746l28.15754,-14.47509c0,0 0,0 0.29028,28.03113z" data-paper-data="{&quot;index&quot;:null}" fill="#33a719" stroke="none" stroke-width="0"/><g data-paper-data="{&quot;index&quot;:null}"><path d="M342.46057,140.86396c-4.33164,0 -7.84312,-3.58282 -7.84312,-8.00246c0,-4.41964 3.51147,-8.00246 7.84312,-8.00246c4.33163,0 7.84314,3.58282 7.84314,8.00246c0,4.41964 -3.51148,8.00246 -7.84314,8.00246z" fill="#000000" stroke="#000000" stroke-width="0.33116"/><path d="M339.09863,133.63076c-2.00625,0 -3.63263,-1.64385 -3.63263,-3.67164c0,-2.0278 1.62639,-3.67166 3.63263,-3.67166c2.00625,0 3.63263,1.64387 3.63263,3.67166c0,2.0278 -1.62639,3.67164 -3.63263,3.67164z" fill="#ffffff" stroke="#ffffff" stroke-width="0.15266"/></g></g></g></g></svg>