<svg version="1.1" xmlns="http://www.w3.org/2000/svg" xmlns:xlink="http://www.w3.org/1999/xlink" width="667.60451" height="440.6917" viewBox="0,0,667.60451,440.6917"><g transform="translate(11.47322,73.90081)"><g data-paper-data="{&quot;isPaintingLayer&quot;:true}" fill-rule="nonzero" stroke-linecap="butt" stroke-linejoin="miter" stroke-miterlimit="10" stroke-dasharray="" stroke-dashoffset="0" style="mix-blend-mode: normal"><path d="M-11.33909,353.61012v-360.09253h659.84307v360.09253z" fill="#8bc6e8" stroke="#7ea723" stroke-width="0.26828"/><path d="M-9.82218,366.6689v-189.06969h665.83147v189.06969z" fill="#6eb15b" stroke="#7ea723" stroke-width="0.24399"/><g><path d="M19.14068,202.66695c0.03143,-0.09349 1.44429,-0.15985 1.13832,0.47447c-1.49344,3.09606 0.40499,11.15654 1.6584,12.86524c0.16558,0.22573 -1.63705,1.12155 -1.68825,0.614c-0.05504,-0.54554 -2.38599,-10.15318 -1.10847,-13.95372z" fill="#82d22d" stroke="#82d22d" stroke-width="0.29531"/><path d="M19.93565,200.36687c0,0 -4.1464,-4.14058 -2.91358,-5.98742c0.92579,-1.3869 4.08721,-1.11823 5.00772,0.27216c1.12081,1.69292 -2.09414,5.71527 -2.09414,5.71527z" fill="#ff8fc1" stroke="#ff9ac8" stroke-width="0.40929"/><path d="M17.85425,206.11c-1.56497,0.58178 -4.33212,-1.1964 -4.29443,-2.94522c0.05018,-2.32879 5.87145,-3.17096 5.87145,-3.17096c0,0 0.32848,5.40781 -1.57701,6.11618z" fill="#ff8fc1" stroke="#ff8fc1" stroke-width="0.42118"/><path d="M19.93565,200.36687c0,0 -4.1464,-4.14058 -2.91358,-5.98742c0.92579,-1.3869 4.08721,-1.11823 5.00772,0.27216c1.12081,1.69292 -2.09414,5.71527 -2.09414,5.71527z" fill="#ff8fc1" stroke="#ff8fc1" stroke-width="0.40929"/><path d="M18.99917,199.90704c0,0 6.07088,0.86566 6.12322,3.2594c0.0393,1.7976 -2.84651,3.62538 -4.47859,3.02737c-1.9872,-0.72813 -1.64464,-6.28677 -1.64464,-6.28677z" fill="#ff8fc1" stroke="#ff8fc1" stroke-width="0.43607"/><path d="M13.5695,200.00934c-0.87969,-1.41863 0.10075,-4.55312 1.68927,-4.90591c2.11532,-0.46979 4.19326,5.102 4.19326,5.102c0,0 -4.81142,1.53123 -5.88253,-0.19609z" fill="#ff8fc1" stroke="#ff8fc1" stroke-width="0.40929"/><path d="M19.86119,200.33835c0,0 2.07794,-5.57179 4.19326,-5.102c1.58852,0.35279 2.56897,3.48728 1.68927,4.90591c-1.0711,1.72732 -5.88253,0.19609 -5.88253,0.19609z" fill="#ff8fc1" stroke="#ff8fc1" stroke-width="0.40929"/><path d="M19.55064,202.70859c-1.18817,0 -2.15136,-1.02257 -2.15136,-2.28398c0,-1.26141 0.9632,-2.28398 2.15136,-2.28398c1.18817,0 2.15136,1.02257 2.15136,2.28398c0,1.26141 -0.9632,2.28398 -2.15136,2.28398z" fill="#ffed4c" stroke="#fff04c" stroke-width="0.38459"/><path d="M19.29248,209.06559c0.62478,0.80689 0.0925,2.74773 -0.93432,3.04607c-1.36733,0.39726 -2.92039,-2.84625 -2.92039,-2.84625c0,0 3.09398,-1.18227 3.8547,-0.19981z" fill="#82d22d" stroke="#82d22d" stroke-width="0.25751"/></g><g><path d="M51.29604,230.119c-0.45823,-0.62933 -0.46885,-1.45493 -0.02372,-1.84405c0.44513,-0.38911 1.17745,-0.19438 1.63568,0.43495c0.45823,0.62933 0.46885,1.45493 0.02372,1.84405c-0.44513,0.38911 -1.17745,0.19438 -1.63568,-0.43495z" fill="#82d22d" stroke="#82d22d" stroke-width="0.29894"/><path d="M49.49323,230.6842c-0.44513,-0.38911 -0.43451,-1.21472 0.02372,-1.84405c0.45823,-0.62933 1.19055,-0.82406 1.63568,-0.43495c0.44513,0.38911 0.43451,1.21472 -0.02372,1.84405c-0.45823,0.62933 -1.19055,0.82406 -1.63568,0.43495z" fill="#82d22d" stroke="#82d22d" stroke-width="0.29894"/><path d="M51.87115,240.29349c0.022,0.50856 -1.80099,-0.07661 -1.67617,-0.32635c0.94481,-1.89052 1.61825,-10.1461 -0.21791,-12.95028c-0.37619,-0.57452 0.96462,-0.74232 1.00718,-0.65539c1.73018,3.53395 0.86326,13.3854 0.8869,13.93202z" fill="#82d22d" stroke="#82d22d" stroke-width="0.29531"/><path d="M48.57112,221.66553c0,-2.03542 1.26076,-3.68546 2.81598,-3.68546c1.55522,0 2.81598,1.65004 2.81598,3.68546c0,2.03542 -1.26076,3.68546 -2.81598,3.68546c-1.55522,0 -2.81598,-1.65004 -2.81598,-3.68546z" fill-opacity="0.95294" fill="#e62eff" stroke-opacity="0.95294" stroke="#b783d3" stroke-width="0.31445"/><path d="M51.75625,223.29176c1.10713,1.39179 0.26249,4.80108 -0.68567,5.54667c-4.75866,3.74196 -9.39373,-16.05671 0.68567,-5.54667z" fill-opacity="0.95294" fill="#e65dff" stroke-opacity="0.95294" stroke="#e55eff" stroke-width="0.36502"/><path d="M51.45198,228.83843c-0.94816,-0.74559 -1.7928,-4.15488 -0.68567,-5.54667c10.07941,-10.51004 5.44433,9.28863 0.68567,5.54667z" fill-opacity="0.95294" fill="#e55eff" stroke-opacity="0.95294" stroke="#e65dff" stroke-width="0.36502"/></g><g><path d="M24.39784,240.96386c0.01635,-0.12454 0.93867,-0.55605 1.14152,0.30878c0.59864,2.55243 0.52551,14.33498 1.91897,16.44505c0.18408,0.27875 -1.63808,1.27535 -1.70307,0.63452c-0.06986,-0.68879 -1.99812,-12.50913 -1.35742,-17.38835z" fill="#82d22d" stroke="#7ea723" stroke-width="0.25419"/><path d="M25.40723,258.47004c0.73422,-2.94776 4.99993,-5.00703 4.99993,-5.00703c0,0 -2.05382,6.82035 -3.60861,7.62774c-0.9034,0.46913 -1.79123,-1.01512 -1.39132,-2.62071z" fill="#82d22d" stroke="#82d22d" stroke-width="0.23474"/><path d="M25.34897,261.05241c-1.52831,-0.84569 -3.36288,-7.71432 -3.36288,-7.71432c0,0 4.19806,2.16439 4.83758,5.12921c0.34833,1.61487 -0.58668,3.07649 -1.47469,2.58511z" fill="#82d22d" stroke="#82d22d" stroke-width="0.23474"/><path d="M23.25132,240.2754c0.30504,-2.99304 5.44403,-9.62284 5.40482,-7.33961c-0.03921,2.28322 -1.36167,9.03803 -3.17746,10.37257c-1.05505,0.77542 -2.5324,-0.03992 -2.22736,-3.03295z" fill="#ff2400" stroke="#ff2400" stroke-width="0.29982"/><path d="M24.48033,240.8671c1.51075,-3.59246 7.75186,-7.73024 7.28281,-5.37265c-0.46904,2.35759 -3.94171,8.24299 -6.05688,8.96384c-1.229,0.41885 -2.04881,-1.63446 -1.22594,-3.59119z" fill="#ff2400" stroke="#ff2400" stroke-width="0.29982"/><path d="M22.98757,242.54653c-1.14712,-1.92834 -0.25167,-13.51832 1.15684,-10.77753c1.03866,2.02111 3.25071,5.11986 2.08883,8.84144c-0.63285,2.02707 -2.57915,3.05654 -3.24567,1.93609z" fill="#ff2400" stroke="#ff2400" stroke-width="0.29982"/><path d="M24.79225,244.56414c-2.20569,-0.22049 -6.72131,-5.18083 -7.62845,-7.37906c-0.90714,-2.19823 5.98353,0.41888 8.14432,3.58617c1.17693,1.72515 0.76573,3.92101 -0.51586,3.7929z" fill="#ff2400" stroke="#ff2400" stroke-width="0.29982"/><path d="M24.17182,243.4597c-2.02963,-0.88923 -4.60777,-7.19235 -5.0804,-9.4163c-0.47263,-2.22395 5.8142,3.08272 6.68182,5.93997c0.86761,2.85724 -0.42212,3.99301 -1.60141,3.47633z" fill="#ff2400" stroke="#ff2400" stroke-width="0.29982"/></g><g><path d="M50.01246,302.5778c0.04435,0.47425 -1.57015,-0.07997 -1.47398,-0.31223c0.72798,-1.75813 0.90433,-9.45199 -0.83165,-12.07516c-0.35567,-0.53744 0.80214,-0.68753 0.84347,-0.60627c1.67999,3.30307 1.41449,12.48391 1.46216,12.99366z" fill="#82d22d" stroke="#82d22d" stroke-width="0.29531"/><path d="M44.84909,282.64705c0.5117,-1.41575 3.03179,-2.13509 4.01783,-0.99839c1.31305,1.51366 -1.35105,5.93972 -1.35105,5.93972c0,0 -3.28981,-3.21752 -2.66678,-4.94133z" fill="#ff8fc1" stroke="#ff9ac8" stroke-width="0.40929"/><path d="M47.86205,287.17007c0,0 4.86664,-0.0955 5.30152,2.03792c0.32658,1.60212 -1.61807,3.65028 -2.98655,3.34924c-1.66625,-0.36653 -2.31497,-5.38716 -2.31497,-5.38716z" fill="#ff8fc1" stroke="#ff8fc1" stroke-width="0.42118"/><path d="M44.84909,282.64705c0.5117,-1.41575 3.03179,-2.13509 4.01783,-0.99839c1.31305,1.51366 -1.35105,5.93972 -1.35105,5.93972c0,0 -3.28981,-3.21752 -2.66678,-4.94133z" fill="#ff8fc1" stroke="#ff8fc1" stroke-width="0.40929"/><path d="M47.92741,293.05106c-1.22326,0.79361 -3.87452,-0.45556 -4.14688,-2.11402c-0.36268,-2.20845 4.41748,-3.9113 4.41748,-3.9113c0,0 1.21882,5.05903 -0.27061,6.02532z" fill="#ff8fc1" stroke="#ff8fc1" stroke-width="0.43607"/><path d="M47.88101,287.36771c0,0 0.74325,-5.43276 2.5394,-5.31691c1.34884,0.087 2.67501,2.82214 2.20123,4.25776c-0.57687,1.748 -4.74063,1.05916 -4.74063,1.05916z" fill="#ff8fc1" stroke="#ff8fc1" stroke-width="0.40929"/><path d="M42.76445,288.24966c-0.954,-1.17276 -0.68887,-4.20087 0.54055,-4.76254c1.63712,-0.74793 4.26646,4.06392 4.26646,4.06392c0,0 -3.64543,2.12656 -4.80701,0.69862z" fill="#ff8fc1" stroke="#ff8fc1" stroke-width="0.40929"/><path d="M46.09219,287.90537c-0.2135,-1.15965 0.39509,-2.24363 1.35931,-2.42115c0.96423,-0.17752 1.91896,0.61865 2.13246,1.7783c0.2135,1.15965 -0.39509,2.24363 -1.35931,2.42115c-0.96423,0.17752 -1.91896,-0.61865 -2.13246,-1.7783z" fill="#ffed4c" stroke="#fff04c" stroke-width="0.38459"/><path d="M52.67211,295.09705c0,0 -0.71136,3.21389 -1.88823,3.05297c-0.88378,-0.12085 -1.64423,-1.82561 -1.27378,-2.66074c0.45106,-1.01686 3.16201,-0.39222 3.16201,-0.39222z" fill="#82d22d" stroke="#82d22d" stroke-width="0.25751"/></g><g><path d="M59.3512,335.03938c-0.0377,0.36336 -1.09468,-0.20173 -0.9879,-0.35979c0.80831,-1.19646 0.76588,-7.87748 1.11314,-9.32478c0.11767,-0.49038 0.65267,-0.2457 0.66216,-0.17509c0.37165,2.76665 -0.74687,9.4691 -0.7874,9.85966z" fill="#82d22d" stroke="#7ea723" stroke-width="0.25419"/><path d="M58.74602,336.5922c-0.90188,-0.45781 -2.09325,-4.32513 -2.09325,-4.32513c0,0 2.47441,1.16766 2.90031,2.83912c0.23198,0.91041 -0.28303,1.75202 -0.80706,1.48601z" fill="#82d22d" stroke="#82d22d" stroke-width="0.23474"/><path d="M58.73145,335.10463c0.37096,-1.68113 2.80613,-2.9084 2.80613,-2.9084c0,0 -1.06418,3.8947 -1.95071,4.37423c-0.51511,0.27862 -1.05748,-0.55015 -0.85543,-1.46583z" fill="#82d22d" stroke="#82d22d" stroke-width="0.23474"/><path d="M59.51163,326.50911c-1.05328,-0.75672 -1.8204,-4.58688 -1.84315,-5.88152c-0.02274,-1.29465 2.95823,2.46463 3.13517,4.16176c0.17694,1.69713 -0.68002,2.15945 -1.29203,1.71977z" fill="#ff2400" stroke="#ff2400" stroke-width="0.29982"/><path d="M59.37961,327.16115c-1.22694,-0.40874 -3.24134,-3.74592 -3.51341,-5.08274c-0.27208,-1.33682 3.3482,1.00942 4.22454,3.04644c0.47732,1.10952 0.00178,2.2738 -0.71113,2.0363z" fill="#ff2400" stroke="#ff2400" stroke-width="0.29982"/><path d="M59.07394,324.97932c-0.67397,-2.11024 0.60917,-3.86731 1.21167,-5.01333c0.81703,-1.5541 1.33646,5.01773 0.67105,6.11115c-0.38663,0.63532 -1.51562,0.05159 -1.88271,-1.09782z" fill="#ff2400" stroke="#ff2400" stroke-width="0.29982"/><path d="M59.61057,325.0705c1.25341,-1.79594 5.25048,-3.27991 4.72428,-2.03345c-0.52621,1.24645 -3.14559,4.0591 -4.42504,4.18413c-0.74341,0.07264 -0.98194,-1.17247 -0.29924,-2.15067z" fill="#ff2400" stroke="#ff2400" stroke-width="0.29982"/><path d="M59.34077,324.62375c0.50328,-1.62013 4.15008,-4.62916 3.87592,-3.36812c-0.27416,1.26104 -1.76966,4.83507 -2.94699,5.33929c-0.68408,0.29297 -1.43221,-0.35104 -0.92893,-1.97117z" fill="#ff2400" stroke="#ff2400" stroke-width="0.29982"/></g><g><path d="M22.51444,322.13356c-0.50975,-0.54857 -0.52157,-1.26823 -0.02638,-1.6074c0.49518,-0.33918 1.30984,-0.16944 1.8196,0.37913c0.50975,0.54857 0.52157,1.26823 0.02638,1.6074c-0.49518,0.33918 -1.30984,0.16944 -1.8196,-0.37913z" fill="#82d22d" stroke="#82d22d" stroke-width="0.29894"/><path d="M20.50892,322.62622c-0.49518,-0.33918 -0.48337,-1.05884 0.02638,-1.6074c0.50975,-0.54857 1.32442,-0.71831 1.8196,-0.37913c0.49518,0.33918 0.48337,1.05884 -0.02638,1.6074c-0.50975,0.54857 -1.32442,0.71831 -1.8196,0.37913z" fill="#82d22d" stroke="#82d22d" stroke-width="0.29894"/><path d="M23.15422,331.00238c0.02447,0.44329 -2.0035,-0.06677 -1.86465,-0.28447c1.05105,-1.64792 1.80021,-8.84409 -0.24241,-11.28841c-0.41849,-0.50079 1.07309,-0.64706 1.12044,-0.57129c1.92473,3.08045 0.96032,11.6677 0.98663,12.14417z" fill="#82d22d" stroke="#82d22d" stroke-width="0.29531"/><path d="M19.48312,314.7649c0,-1.77422 1.40252,-3.21252 3.13262,-3.21252c1.7301,0 3.13262,1.43829 3.13262,3.21252c0,1.77422 -1.40252,3.21252 -3.13262,3.21252c-1.7301,0 -3.13262,-1.43829 -3.13262,-3.21252z" fill-opacity="0.95294" fill="#e62eff" stroke-opacity="0.95294" stroke="#b783d3" stroke-width="0.31445"/><path d="M23.0264,316.18244c1.23162,1.21319 0.29201,4.18498 -0.76277,4.83488c-5.29374,3.26177 -10.45,-13.9962 0.76277,-4.83488z" fill-opacity="0.95294" fill="#e65dff" stroke-opacity="0.95294" stroke="#e55eff" stroke-width="0.36502"/><path d="M22.68791,321.01732c-1.05478,-0.64991 -1.99439,-3.62169 -0.76277,-4.83488c11.21278,-9.16132 6.05651,8.09665 0.76277,4.83488z" fill-opacity="0.95294" fill="#e55eff" stroke-opacity="0.95294" stroke="#e65dff" stroke-width="0.36502"/></g><g><path d="M608.42765,218.73453c-0.05805,0.59636 -2.1017,-0.45621 -1.91397,-0.72144c1.421,-2.00771 3.57325,-11.47866 1.88014,-15.1165c-0.34688,-0.74532 1.25489,-0.66736 1.29052,-0.5575c1.44833,4.46558 -1.19428,15.75444 -1.25668,16.39544z" fill="#82d22d" stroke="#82d22d" stroke-width="0.29531"/><path d="M606.40893,192.92115c1.04359,-1.63369 4.62769,-1.94937 5.67727,-0.31978c1.39765,2.17001 -3.30314,7.03515 -3.30314,7.03515c0,0 -3.6448,-4.7262 -2.37413,-6.71537z" fill="#ff8fc1" stroke="#ff9ac8" stroke-width="0.40929"/><path d="M609.35488,199.19819c0,0 6.59958,0.98954 6.65647,3.72583c0.04273,2.05485 -3.0944,4.14419 -4.86861,3.4606c-2.16026,-0.83233 -1.78786,-7.18644 -1.78786,-7.18644z" fill="#ff8fc1" stroke="#ff8fc1" stroke-width="0.42118"/><path d="M606.40893,192.92115c1.04359,-1.63369 4.62769,-1.94937 5.67727,-0.31978c1.39765,2.17001 -3.30314,7.03515 -3.30314,7.03515c0,0 -3.6448,-4.7262 -2.37413,-6.71537z" fill="#ff8fc1" stroke="#ff8fc1" stroke-width="0.40929"/><path d="M607.98022,206.4831c-1.85029,0.70265 -5.12194,-1.44496 -5.07738,-3.55712c0.05934,-2.81261 6.94191,-3.82975 6.94191,-3.82975c0,0 0.38837,6.53133 -1.86453,7.38687z" fill="#ff8fc1" stroke="#ff8fc1" stroke-width="0.43607"/><path d="M609.33134,199.44682c0,0 2.35576,-6.54678 4.7539,-5.99479c1.80091,0.41453 2.91244,4.09751 1.91513,5.76438c-1.21431,2.02958 -6.66903,0.2304 -6.66903,0.2304z" fill="#ff8fc1" stroke="#ff8fc1" stroke-width="0.40929"/><path d="M602.19844,199.37261c-0.99731,-1.66688 0.11422,-5.34986 1.91513,-5.76439c2.39814,-0.552 4.7539,5.99479 4.7539,5.99479c0,0 -5.45472,1.79918 -6.66904,-0.2304z" fill="#ff8fc1" stroke="#ff8fc1" stroke-width="0.40929"/><path d="M606.78054,199.70437c0,-1.48214 1.09198,-2.68364 2.439,-2.68364c1.34703,0 2.439,1.20151 2.439,2.68364c0,1.48214 -1.09198,2.68364 -2.439,2.68364c-1.34703,0 -2.439,-1.20151 -2.439,-2.68364z" fill="#ffed4c" stroke="#fff04c" stroke-width="0.38459"/><path d="M613.88231,210.09218c0,0 -1.7607,3.81109 -3.31085,3.34431c-1.1641,-0.35054 -1.76755,-2.63101 -1.05924,-3.57909c0.86243,-1.15437 4.37009,0.23478 4.37009,0.23478z" fill="#82d22d" stroke="#82d22d" stroke-width="0.25751"/></g><g><path d="M569.88721,239.66398c-0.57392,-0.68264 -0.58722,-1.57819 -0.02971,-2.00027c0.55751,-0.42208 1.47472,-0.21085 2.04863,0.47179c0.57392,0.68264 0.58722,1.57819 0.02971,2.00027c-0.55751,0.42208 -1.47472,0.21085 -2.04863,-0.47179z" fill="#82d22d" stroke="#82d22d" stroke-width="0.29894"/><path d="M567.62925,240.27706c-0.55751,-0.42208 -0.54421,-1.31763 0.02971,-2.00027c0.57392,-0.68264 1.49112,-0.89387 2.04863,-0.47179c0.55751,0.42208 0.54421,1.31763 -0.02971,2.00027c-0.57392,0.68264 -1.49112,0.89387 -2.04863,0.47179z" fill="#82d22d" stroke="#82d22d" stroke-width="0.29894"/><path d="M570.60752,250.70043c0.02755,0.55164 -2.25568,-0.0831 -2.09936,-0.354c1.18334,-2.05068 2.02681,-11.00566 -0.27292,-14.04739c-0.47117,-0.62319 1.20816,-0.80521 1.26147,-0.71091c2.16699,3.83334 1.0812,14.51938 1.11082,15.11231z" fill="#82d22d" stroke="#82d22d" stroke-width="0.29531"/><path d="M566.47434,230.49436c0,-2.20786 1.57906,-3.99768 3.52693,-3.99768c1.94787,0 3.52693,1.78982 3.52693,3.99768c0,2.20786 -1.57906,3.99768 -3.52693,3.99768c-1.94787,0 -3.52693,-1.78982 -3.52693,-3.99768z" fill-opacity="0.95294" fill="#e62eff" stroke-opacity="0.95294" stroke="#b783d3" stroke-width="0.31445"/><path d="M570.46361,232.25836c1.38664,1.5097 0.32876,5.20782 -0.85878,6.01657c-5.96007,4.05897 -11.76535,-17.417 0.85878,-6.01657z" fill-opacity="0.95294" fill="#e65dff" stroke-opacity="0.95294" stroke="#e55eff" stroke-width="0.36502"/><path d="M570.08252,238.27493c-1.18755,-0.80875 -2.24543,-4.50687 -0.85878,-6.01657c12.62414,-11.40043 6.81885,10.07555 0.85878,6.01657z" fill-opacity="0.95294" fill="#e55eff" stroke-opacity="0.95294" stroke="#e65dff" stroke-width="0.36502"/></g><g><path d="M619.09432,253.45941c-0.06132,0.50407 -1.78058,-0.27985 -1.60689,-0.49912c1.31477,-1.65977 1.24576,-10.92793 1.81059,-12.93567c0.19139,-0.68028 1.06162,-0.34085 1.07705,-0.24289c0.60452,3.83799 -1.21484,13.13587 -1.28075,13.67767z" fill="#82d22d" stroke="#7ea723" stroke-width="0.25419"/><path d="M618.10995,255.61354c-1.46697,-0.63509 -3.40481,-5.99998 -3.40481,-5.99998c0,0 4.02479,1.61983 4.71754,3.93853c0.37733,1.26295 -0.46036,2.43047 -1.31274,2.06145z" fill="#82d22d" stroke="#82d22d" stroke-width="0.23474"/><path d="M618.08625,253.54994c0.6034,-2.33213 4.56436,-4.03464 4.56436,-4.03464c0,0 -1.73096,5.40287 -3.17296,6.06809c-0.83786,0.38651 -1.72007,-0.76319 -1.39141,-2.03345z" fill="#82d22d" stroke="#82d22d" stroke-width="0.23474"/><path d="M619.35528,241.62592c-1.71323,-1.04974 -2.96101,-6.36308 -2.998,-8.15906c-0.03699,-1.79598 4.81176,3.41902 5.09957,5.77334c0.28781,2.35432 -1.10611,2.99567 -2.10157,2.38572z" fill="#ff2400" stroke="#ff2400" stroke-width="0.29982"/><path d="M619.14054,242.53046c-1.99571,-0.56702 -5.27225,-5.19648 -5.7148,-7.05096c-0.44255,-1.85448 5.44607,1.4003 6.8715,4.22613c0.7764,1.53916 0.00289,3.15429 -1.1567,2.82483z" fill="#ff2400" stroke="#ff2400" stroke-width="0.29982"/><path d="M618.64333,239.50374c-1.09626,-2.9274 0.99085,-5.36487 1.97086,-6.95467c1.32896,-2.1559 2.17384,6.96077 1.0915,8.4776c-0.62888,0.88134 -2.46525,0.07156 -3.06236,-1.52293z" fill="#ff2400" stroke="#ff2400" stroke-width="0.29982"/><path d="M619.51621,239.63022c2.03875,-2.49139 8.54026,-4.55 7.68435,-2.82088c-0.85591,1.72913 -5.11651,5.63093 -7.19762,5.80437c-1.20921,0.10077 -1.59719,-1.62649 -0.48673,-2.98349z" fill="#ff2400" stroke="#ff2400" stroke-width="0.29982"/><path d="M619.07736,239.01048c0.81861,-2.24751 6.75038,-6.42174 6.30445,-4.67238c-0.44594,1.74936 -2.87848,6.70739 -4.79348,7.40686c-1.11269,0.40642 -2.32958,-0.48697 -1.51097,-2.73448z" fill="#ff2400" stroke="#ff2400" stroke-width="0.29982"/></g><g><path d="M585.84084,284.78601c0.02685,-0.086 1.23376,-0.14704 0.97239,0.43645c-1.27574,2.84796 0.34595,10.26249 1.41666,11.83427c0.14145,0.20764 -1.39841,1.03167 -1.44216,0.56479c-0.04702,-0.50182 -2.03819,-9.33954 -0.94689,-12.83551z" fill="#82d22d" stroke="#82d22d" stroke-width="0.29531"/><path d="M586.51993,282.67025c0,0 -3.54199,-3.80877 -2.48888,-5.50761c0.79084,-1.27576 3.49142,-1.02862 4.27775,0.25035c0.95743,1.55726 -1.78888,5.25726 -1.78888,5.25726z" fill="#ff8fc1" stroke="#ff9ac8" stroke-width="0.40929"/><path d="M584.74194,287.95315c-1.33685,0.53516 -3.70063,-1.10052 -3.66844,-2.7092c0.04287,-2.14217 5.01557,-2.91685 5.01557,-2.91685c0,0 0.2806,4.97445 -1.34713,5.62605z" fill="#ff8fc1" stroke="#ff8fc1" stroke-width="0.42118"/><path d="M586.51993,282.67025c0,0 -3.54199,-3.80877 -2.48888,-5.50761c0.79084,-1.27576 3.49142,-1.02862 4.27775,0.25035c0.95743,1.55726 -1.78888,5.25726 -1.78888,5.25726z" fill="#ff8fc1" stroke="#ff8fc1" stroke-width="0.40929"/><path d="M585.71996,282.24728c0,0 5.18594,0.79629 5.23065,2.9982c0.03357,1.65355 -2.43158,3.33485 -3.82575,2.78476c-1.69753,-0.66978 -1.4049,-5.78296 -1.4049,-5.78296z" fill="#ff8fc1" stroke="#ff8fc1" stroke-width="0.43607"/><path d="M581.08177,282.34137c-0.75146,-1.30495 0.08606,-4.18825 1.44303,-4.51277c1.80697,-0.43214 3.58201,4.69314 3.58201,4.69314c0,0 -4.11007,1.40852 -5.02504,-0.18037z" fill="#ff8fc1" stroke="#ff8fc1" stroke-width="0.40929"/><path d="M586.45632,282.64402c0,0 1.77504,-5.12528 3.58201,-4.69314c1.35697,0.32452 2.19449,3.20782 1.44303,4.51277c-0.91497,1.5889 -5.02504,0.18037 -5.02504,0.18037z" fill="#ff8fc1" stroke="#ff8fc1" stroke-width="0.40929"/><path d="M586.19105,284.82432c-1.01497,0 -1.83776,-0.94063 -1.83776,-2.10095c0,-1.16032 0.82279,-2.10095 1.83776,-2.10095c1.01497,0 1.83776,0.94063 1.83776,2.10095c0,1.16032 -0.82279,2.10095 -1.83776,2.10095z" fill="#ffed4c" stroke="#fff04c" stroke-width="0.38459"/><path d="M585.97051,290.67189c0.5337,0.74222 0.07901,2.52754 -0.79812,2.80197c-1.16802,0.36543 -2.49469,-2.61817 -2.49469,-2.61817c0,0 2.64297,-1.08752 3.29281,-0.1838z" fill="#82d22d" stroke="#82d22d" stroke-width="0.25751"/></g><g><path d="M566.81763,332.41971c0.10088,0.41999 -1.42179,0.26495 -1.35502,0.0419c0.50541,-1.6884 -2.25004,-9.08214 -2.41058,-10.84299c-0.05439,-0.59663 0.69961,-0.56403 0.7398,-0.48991c1.57453,2.90369 2.91737,10.83958 3.02581,11.291z" fill="#82d22d" stroke="#7ea723" stroke-width="0.25419"/><path d="M566.7051,334.41281c-1.28938,-0.10526 -4.31284,-3.86416 -4.31284,-3.86416c0,0 3.50179,0.19071 4.69955,1.85506c0.6524,0.90653 0.36247,2.07026 -0.38672,2.0091z" fill="#82d22d" stroke="#82d22d" stroke-width="0.23474"/><path d="M566.08531,332.76883c-0.22613,-2.03088 2.25849,-4.47985 2.25849,-4.47985c0,0 0.2732,4.79638 -0.61809,5.72426c-0.51787,0.53913 -1.51724,-0.13824 -1.64041,-1.24441z" fill="#82d22d" stroke="#82d22d" stroke-width="0.23474"/><path d="M563.56222,322.88363c-1.59568,-0.3693 -4.08473,-4.27639 -4.63646,-5.70267c-0.55173,-1.42627 4.61892,1.41368 5.5223,3.21767c0.90338,1.80399 0.04132,2.69957 -0.88584,2.48499z" fill="#ff2400" stroke="#ff2400" stroke-width="0.29982"/><path d="M563.66444,323.66603c-1.66748,0.09433 -5.484,-2.70889 -6.35804,-4.07063c-0.87404,-1.36174 4.50748,-0.37501 6.40463,1.4938c1.03334,1.0179 0.92228,2.52202 -0.04659,2.57682z" fill="#ff2400" stroke="#ff2400" stroke-width="0.29982"/><path d="M562.40733,321.38174c-1.67903,-2.04041 -0.81916,-4.56283 -0.5453,-6.10337c0.37137,-2.0891 3.66661,4.97051 3.29444,6.48078c-0.21624,0.87753 -1.83461,0.73396 -2.74914,-0.37741z" fill="#ff2400" stroke="#ff2400" stroke-width="0.29982"/><path d="M563.1012,321.24329c0.80774,-2.55226 5.10064,-5.98344 4.96082,-4.36553c-0.13982,1.61791 -2.20842,5.90814 -3.7242,6.61813c-0.88073,0.41253 -1.67658,-0.86243 -1.23662,-2.25259z" fill="#ff2400" stroke="#ff2400" stroke-width="0.29982"/><path d="M562.59012,320.86809c-0.03946,-2.02227 3.20749,-6.98913 3.38215,-5.46757c0.17465,1.52155 -0.20996,6.15474 -1.44726,7.23985c-0.71892,0.6305 -1.89542,0.25 -1.93489,-1.77228z" fill="#ff2400" stroke="#ff2400" stroke-width="0.29982"/></g><g><path d="M619.60311,320.7723c-0.48155,-0.32648 -0.47006,-1.01921 0.02566,-1.54725c0.49572,-0.52804 1.28796,-0.69143 1.76951,-0.36494c0.48155,0.32648 0.47006,1.01921 -0.02566,1.54725c-0.49572,0.52804 -1.28796,0.69143 -1.76951,0.36494z" fill="#82d22d" stroke="#82d22d" stroke-width="0.29894"/><path d="M621.55342,320.51665c-0.49572,-0.52804 -0.50721,-1.22076 -0.02566,-1.54725c0.48155,-0.32648 1.27379,-0.16309 1.76951,0.36494c0.49572,0.52804 0.50721,1.22076 0.02566,1.54725c-0.48155,0.32648 -1.27379,0.16309 -1.76951,-0.36494z" fill="#82d22d" stroke="#82d22d" stroke-width="0.29894"/><path d="M621.70992,317.2546c0.04605,-0.07294 1.49657,0.06785 1.08959,0.54991c-1.9864,2.35285 -1.25785,9.2797 -0.23574,10.86595c0.13503,0.20955 -1.83712,0.70053 -1.81332,0.27383c0.02558,-0.45864 -0.91228,-8.72451 0.95947,-11.68968z" fill="#82d22d" stroke="#82d22d" stroke-width="0.29531"/><path d="M621.2741,316.40676c-1.68247,0 -3.04639,-1.38446 -3.04639,-3.09229c0,-1.70782 1.36391,-3.09229 3.04639,-3.09229c1.68247,0 3.04639,1.38446 3.04639,3.09229c0,1.70782 -1.36391,3.09229 -3.04639,3.09229z" fill-opacity="0.95294" fill="#e62eff" stroke-opacity="0.95294" stroke="#b783d3" stroke-width="0.31445"/><path d="M621.61653,319.3329c-1.02575,-0.62558 -1.93949,-3.48615 -0.74178,-4.65394c10.90412,-8.81846 5.8898,7.79364 0.74178,4.65394z" fill-opacity="0.95294" fill="#e65dff" stroke-opacity="0.95294" stroke="#e55eff" stroke-width="0.36502"/><path d="M621.94569,314.67896c1.19771,1.16779 0.28397,4.02836 -0.74178,4.65394c-5.14802,3.1397 -10.16234,-13.4724 0.74178,-4.65394z" fill-opacity="0.95294" fill="#e55eff" stroke-opacity="0.95294" stroke="#e65dff" stroke-width="0.36502"/></g><path d="M27.35105,-73.11414c-0.10701,-0.6003 0.73116,-1.0411 0.85237,-0.45409c0.44197,2.14052 0.80443,7.94136 0.58784,10.8334c-0.03297,0.44018 -1.34929,0.37571 -1.32264,-0.0649c0.14202,-2.34767 0.40354,-7.39109 -0.11757,-10.31444z" fill="#549f4d" stroke="#4e8846" stroke-width="0.11201"/><path d="M30.44377,-71.65601c-0.41623,2.60239 -0.22164,6.58334 -0.09391,9.18199c0.01731,0.35225 -1.05644,0.05777 -1.05644,0.05777c0,0 0.11651,-7.73847 0.46953,-9.64397c0.09681,-0.52256 0.76629,-0.13016 0.68082,0.40423z" fill="#549f4d" stroke="#4e8846" stroke-width="0.09445"/><path d="M26.79294,-69.82982c-0.33033,2.10536 0.19192,5.22525 -0.07453,7.42831c-0.03361,0.27788 -0.83842,0.04674 -0.83842,0.04674c0,0 0.09247,-6.26049 0.37263,-7.80206c0.07683,-0.42276 0.60815,-0.1053 0.54032,0.32703z" fill="#549f4d" stroke="#4e8846" stroke-width="0.07568"/><g fill="#549f4d" stroke="#4e8846"><path d="M63.21236,189.63566c-0.4066,1.88833 -0.20255,5.14612 -0.09174,6.6626c0.02079,0.28461 -1.00628,0.32625 -1.032,0.04192c-0.169,-1.86811 0.11382,-5.61515 0.45867,-6.99782c0.09458,-0.37918 0.74857,-0.09444 0.66507,0.29332z" stroke-width="0.11201"/><path d="M60.79924,190.57757c-0.06669,-0.34519 0.45568,-0.59866 0.53121,-0.26111c0.27544,1.23086 0.36635,6.22951 0.36635,6.22951c0,0 -0.8378,0.19022 -0.82429,-0.03732c0.09967,-1.67859 0.25149,-4.25008 -0.07327,-5.93109z" stroke-width="0.09445"/><path d="M63.64783,191.75719c-0.05293,-0.27926 0.36164,-0.48432 0.42159,-0.21124c0.2186,0.99578 0.29075,5.03973 0.29075,5.03973c0,0 -0.62796,0.14931 -0.65419,-0.03019c-0.2079,-1.42307 0.19959,-3.43836 -0.05815,-4.79831z" stroke-width="0.07568"/></g><g fill="#549f4d" stroke="#4e8846"><path d="M94.38246,222.61103c-0.38047,1.8209 -0.18953,4.96236 -0.08584,6.42468c0.01946,0.27445 -0.94161,0.3146 -0.96568,0.04043c-0.15814,-1.8014 0.1065,-5.41464 0.42919,-6.74793c0.0885,-0.36564 0.70045,-0.09107 0.62233,0.28284z" stroke-width="0.11201"/><path d="M92.12443,223.51931c-0.0624,-0.33286 0.42639,-0.57728 0.49707,-0.25179c0.25774,1.18691 0.34281,6.00706 0.34281,6.00706c0,0 -0.78396,0.18342 -0.77132,-0.03598c0.09326,-1.61865 0.23533,-4.09832 -0.06856,-5.7193z" stroke-width="0.09445"/><path d="M94.78994,224.65681c-0.04953,-0.26929 0.3384,-0.46703 0.39449,-0.2037c0.20455,0.96022 0.27206,4.85977 0.27206,4.85977c0,0 -0.5876,0.14398 -0.61214,-0.02911c-0.19454,-1.37225 0.18676,-3.31558 -0.05442,-4.62696z" stroke-width="0.07568"/></g><g fill="#549f4d" stroke="#4e8846"><path d="M50.95756,247.18367c-0.40573,2.2517 -0.20211,6.13637 -0.09154,7.94465c0.02075,0.33937 -1.00412,0.38903 -1.02979,0.04999c-0.16864,-2.22758 0.11357,-6.69565 0.45768,-8.34438c0.09437,-0.45214 0.74696,-0.11262 0.66364,0.34976z" stroke-width="0.11201"/><path d="M48.54962,248.30683c-0.06655,-0.41161 0.4547,-0.71386 0.53007,-0.31136c0.27485,1.46771 0.36557,7.42823 0.36557,7.42823c0,0 -0.836,0.22682 -0.82252,-0.0445c0.09945,-2.0016 0.25095,-5.06791 -0.07312,-7.07239z" stroke-width="0.09445"/><path d="M51.39209,249.71345c-0.05281,-0.333 0.36086,-0.57752 0.42068,-0.25189c0.21813,1.18739 0.29013,6.00951 0.29013,6.00951c0,0 -0.62662,0.17804 -0.65278,-0.036c-0.20746,-1.6969 0.19916,-4.09999 -0.05803,-5.72163z" stroke-width="0.07568"/></g><g fill="#549f4d" stroke="#4e8846"><path d="M64.08462,299.61222c-0.43131,1.69925 -0.21486,4.63083 -0.09731,5.99545c0.02206,0.25611 -1.06744,0.29359 -1.09473,0.03772c-0.17927,-1.68105 0.12073,-5.05289 0.48654,-6.29711c0.10032,-0.34121 0.79406,-0.08499 0.70549,0.26395z" stroke-width="0.11201"/><path d="M61.52483,300.45981c-0.07074,-0.31062 0.48337,-0.53872 0.5635,-0.23497c0.29219,1.10761 0.38862,5.60573 0.38862,5.60573c0,0 -0.88872,0.17117 -0.87439,-0.03358c0.10572,-1.51051 0.26678,-3.82451 -0.07773,-5.3372z" stroke-width="0.09445"/><path d="M64.54656,301.52132c-0.05614,-0.2513 0.38362,-0.43583 0.44721,-0.19009c0.23189,0.89607 0.30842,4.53509 0.30842,4.53509c0,0 -0.66613,0.13436 -0.69395,-0.02717c-0.22054,-1.28057 0.21172,-3.09406 -0.06169,-4.31784z" stroke-width="0.07568"/></g><g fill="#549f4d" stroke="#4e8846"><path d="M16.68851,274.59774c-0.10249,-0.45134 0.70031,-0.78276 0.8164,-0.34141c0.42332,1.60938 0.77049,5.97081 0.56304,8.14523c-0.03158,0.33095 -1.29236,0.28248 -1.26683,-0.0488c0.13603,-1.76513 0.38651,-5.55709 -0.11261,-7.75504z" stroke-width="0.11201"/><path d="M19.65074,275.69406c-0.39867,1.95664 -0.21229,4.94977 -0.08995,6.9036c0.01658,0.26484 -1.01186,0.04344 -1.01186,0.04344c0,0 0.11159,-5.81826 0.44972,-7.25094c0.09273,-0.39289 0.73396,-0.09786 0.65209,0.30393z" stroke-width="0.09445"/><path d="M16.15396,277.06711c-0.31639,1.58294 0.18382,3.92867 -0.07139,5.58507c-0.03219,0.20893 -0.80305,0.03514 -0.80305,0.03514c0,0 0.08857,-4.70703 0.35691,-5.86608c0.07359,-0.31785 0.58249,-0.07917 0.51752,0.24588z" stroke-width="0.07568"/></g><g fill="#549f4d" stroke="#4e8846"><path d="M104.32092,326.66617c-0.42904,2.2512 -0.21373,6.13502 -0.0968,7.94291c0.02194,0.3393 -1.06182,0.38895 -1.08896,0.04998c-0.17833,-2.22709 0.1201,-6.69418 0.48398,-8.34255c0.0998,-0.45204 0.78988,-0.11259 0.70178,0.34968z" stroke-width="0.11201"/><path d="M101.77461,327.78909c-0.07037,-0.41152 0.48083,-0.7137 0.56053,-0.31129c0.29065,1.46739 0.38657,7.4266 0.38657,7.4266c0,0 -0.88404,0.22677 -0.86979,-0.04449c0.10517,-2.00116 0.26537,-5.0668 -0.07732,-7.07083z" stroke-width="0.09445"/><path d="M104.78043,329.19539c-0.05585,-0.33292 0.3816,-0.57739 0.44486,-0.25184c0.23067,1.18713 0.3068,6.00818 0.3068,6.00818c0,0 -0.66262,0.178 -0.6903,-0.03599c-0.21938,-1.69653 0.21061,-4.09909 -0.06136,-5.72037z" stroke-width="0.07568"/></g><g fill="#549f4d" stroke="#4e8846"><path d="M137.87108,274.61158c-0.52186,2.50853 -0.25996,6.8363 -0.11774,8.85085c0.02669,0.37808 -1.29152,0.43341 -1.32454,0.05569c-0.2169,-2.48167 0.14608,-7.45938 0.58868,-9.29617c0.12138,-0.50371 0.96076,-0.12546 0.85359,0.38966z" stroke-width="0.11201"/><path d="M134.77391,275.86285c-0.0856,-0.45856 0.58484,-0.79529 0.68179,-0.34687c0.35352,1.63512 0.4702,8.27552 0.4702,8.27552c0,0 -1.07529,0.25269 -1.05795,-0.04957c0.12792,-2.22991 0.32278,-5.64597 -0.09404,-7.87909z" stroke-width="0.09445"/><path d="M138.42998,277.42991c-0.06793,-0.37098 0.46415,-0.64339 0.54109,-0.28062c0.28057,1.32283 0.37317,6.69497 0.37317,6.69497c0,0 -0.80597,0.19835 -0.83963,-0.04011c-0.26684,-1.89046 0.25617,-4.56764 -0.07464,-6.37426z" stroke-width="0.07568"/></g><g fill="#549f4d" stroke="#4e8846"><path d="M226.13373,203.8245c-0.52111,2.92335 -0.25959,7.96677 -0.11757,10.31444c0.02665,0.44061 -1.28967,0.50508 -1.32264,0.0649c-0.21659,-2.89204 0.14587,-8.69288 0.58784,-10.8334c0.12121,-0.58701 0.95938,-0.14621 0.85237,0.45409z" stroke-width="0.11201"/><path d="M222.13389,205.42887c-0.16046,-0.51685 0.44654,-1.00031 0.61654,-0.49678c0.61992,1.8361 1.83371,9.47967 1.83371,9.47967c0,0 -1.02107,0.44391 -1.05394,0.09277c-0.24243,-2.59047 -0.6149,-6.55873 -1.39631,-9.07568z" stroke-width="0.09445"/><path d="M226.69183,207.10887c-0.06783,-0.43233 0.46349,-0.74979 0.54032,-0.32703c0.28016,1.54157 0.37263,7.80206 0.37263,7.80206c0,0 -0.80481,0.23114 -0.83842,-0.04674c-0.26645,-2.20306 0.2558,-5.32296 -0.07453,-7.42831z" stroke-width="0.07568"/></g><g fill="#549f4d" stroke="#4e8846"><path d="M146.75729,191.02168c-0.46685,2.4845 -0.23256,6.77082 -0.10533,8.76606c0.02387,0.37446 -1.15538,0.42926 -1.18491,0.05516c-0.19404,-2.4579 0.13068,-7.38793 0.52663,-9.20712c0.10859,-0.49889 0.85948,-0.12426 0.76361,0.38592z" stroke-width="0.11201"/><path d="M143.17396,192.3852c-0.14375,-0.43926 0.40004,-0.85014 0.55234,-0.4222c0.55537,1.56047 1.64276,8.05661 1.64276,8.05661c0,0 -0.91474,0.37727 -0.94419,0.07884c-0.21718,-2.20159 -0.55087,-5.57415 -1.25091,-7.71326z" stroke-width="0.09445"/><path d="M147.25728,193.81301c-0.06077,-0.36743 0.41523,-0.63723 0.48405,-0.27794c0.25099,1.31016 0.33383,6.63084 0.33383,6.63084c0,0 -0.72101,0.19645 -0.75112,-0.03972c-0.23871,-1.87235 0.22917,-4.52389 -0.06677,-6.31319z" stroke-width="0.07568"/></g><g fill="#549f4d" stroke="#4e8846"><path d="M206.2368,263.29613c-0.10701,-0.6003 0.73116,-1.0411 0.85237,-0.45409c0.44197,2.14052 0.80443,7.94136 0.58784,10.8334c-0.03297,0.44018 -1.34929,0.3757 -1.32264,-0.0649c0.14202,-2.34767 0.40354,-7.39109 -0.11757,-10.31444z" stroke-width="0.11201"/><path d="M210.23664,264.90044c-0.78141,2.51695 -1.15388,6.48522 -1.39631,9.07568c-0.03287,0.35114 -1.05394,-0.09277 -1.05394,-0.09277c0,0 1.21378,-7.64357 1.83371,-9.47967c0.17001,-0.50353 0.777,-0.02007 0.61654,0.49678z" stroke-width="0.09445"/><path d="M205.67869,266.58045c-0.33033,2.10535 0.19192,5.22525 -0.07453,7.42831c-0.03361,0.27788 -0.83842,0.04674 -0.83842,0.04674c0,0 0.09247,-6.26049 0.37263,-7.80206c0.07683,-0.42276 0.60815,-0.1053 0.54032,0.32703z" stroke-width="0.07568"/></g><g fill="#549f4d" stroke="#4e8846"><path d="M203.44764,329.52603c-0.26997,2.15114 -0.13449,5.86232 -0.06091,7.58985c0.01381,0.32422 -0.66814,0.37166 -0.68522,0.04776c-0.11221,-2.1281 0.07557,-6.39663 0.30454,-7.97173c0.0628,-0.43195 0.49703,-0.10759 0.44159,0.33414z" stroke-width="0.11201"/><path d="M201.37545,330.7066c-0.08313,-0.38032 0.23134,-0.73607 0.31941,-0.36555c0.32116,1.35109 0.94999,6.97559 0.94999,6.97559c0,0 -0.52899,0.32665 -0.54602,0.06826c-0.1256,-1.90619 -0.31856,-4.82622 -0.72339,-6.67832z" stroke-width="0.09445"/><path d="M203.73678,331.94283c-0.03514,-0.31813 0.24012,-0.55173 0.27992,-0.24064c0.14514,1.13436 0.19305,5.74113 0.19305,5.74113c0,0 -0.41695,0.17009 -0.43436,-0.03439c-0.13804,-1.62112 0.13252,-3.91689 -0.03861,-5.4661z" stroke-width="0.07568"/></g><g fill="#549f4d" stroke="#4e8846"><path d="M316.34808,254.527c-0.52111,2.92335 -0.25959,7.96677 -0.11757,10.31444c0.02665,0.44061 -1.28967,0.50508 -1.32264,0.0649c-0.21659,-2.89204 0.14587,-8.69288 0.58784,-10.8334c0.12121,-0.58701 0.95938,-0.14621 0.85237,0.45409z" stroke-width="0.11201"/><path d="M312.34824,256.13136c-0.16046,-0.51685 0.44654,-1.00031 0.61654,-0.49678c0.61992,1.8361 1.83371,9.47967 1.83371,9.47967c0,0 -1.02107,0.44391 -1.05394,0.09277c-0.24243,-2.59047 -0.6149,-6.55873 -1.39631,-9.07568z" stroke-width="0.09445"/><path d="M316.90618,257.81137c-0.06783,-0.43233 0.46349,-0.74979 0.54032,-0.32703c0.28016,1.54157 0.37263,7.80206 0.37263,7.80206c0,0 -0.80481,0.23114 -0.83842,-0.04674c-0.26645,-2.20306 0.2558,-5.32296 -0.07453,-7.42831z" stroke-width="0.07568"/></g><g fill="#549f4d" stroke="#4e8846"><path d="M285.49929,305.54483c-0.38636,2.1484 -0.19246,5.85486 -0.08717,7.58019c0.01976,0.32381 -0.95618,0.37119 -0.98062,0.0477c-0.16059,-2.12539 0.10815,-6.38849 0.43583,-7.96158c0.08987,-0.4314 0.7113,-0.10745 0.63196,0.33372z" stroke-width="0.11201"/><path d="M282.53376,306.72389c-0.11897,-0.37984 0.33107,-0.73514 0.45711,-0.36509c0.45962,1.34937 1.35953,6.96671 1.35953,6.96671c0,0 -0.75703,0.32623 -0.7814,0.06818c-0.17974,-1.90376 -0.45589,-4.82008 -1.03525,-6.66982z" stroke-width="0.09445"/><path d="M285.91308,307.95855c-0.05029,-0.31772 0.34364,-0.55103 0.4006,-0.24034c0.20772,1.13292 0.27628,5.73382 0.27628,5.73382c0,0 -0.5967,0.16987 -0.62162,-0.03435c-0.19755,-1.61906 0.18966,-3.9119 -0.05526,-5.45915z" stroke-width="0.07568"/></g><g fill="#549f4d" stroke="#4e8846"><path d="M300.69566,200.45802c-0.52111,2.92335 -0.25959,7.96677 -0.11757,10.31444c0.02665,0.44061 -1.28967,0.50508 -1.32264,0.0649c-0.21659,-2.89204 0.14587,-8.69288 0.58784,-10.8334c0.12121,-0.58701 0.95938,-0.14621 0.85237,0.45409z" stroke-width="0.11201"/><path d="M296.69582,202.06238c-0.16046,-0.51685 0.44654,-1.00031 0.61654,-0.49678c0.61992,1.8361 1.83371,9.47967 1.83371,9.47967c0,0 -1.02107,0.44391 -1.05394,0.09277c-0.24243,-2.59047 -0.6149,-6.55873 -1.39631,-9.07568z" stroke-width="0.09445"/><path d="M301.25376,203.74239c-0.06783,-0.43233 0.46349,-0.74979 0.54032,-0.32703c0.28016,1.54157 0.37263,7.80206 0.37263,7.80206c0,0 -0.80481,0.23114 -0.83842,-0.04674c-0.26645,-2.20306 0.2558,-5.32296 -0.07453,-7.42831z" stroke-width="0.07568"/></g><g fill="#549f4d" stroke="#4e8846"><path d="M399.01364,259.20366c-0.52111,2.92335 -0.25959,7.96677 -0.11757,10.31444c0.02665,0.44061 -1.28967,0.50508 -1.32264,0.0649c-0.21659,-2.89204 0.14587,-8.69288 0.58784,-10.8334c0.12121,-0.58701 0.95938,-0.14621 0.85237,0.45409z" stroke-width="0.11201"/><path d="M395.01381,260.80803c-0.16046,-0.51685 0.44654,-1.00031 0.61654,-0.49678c0.61992,1.8361 1.83371,9.47967 1.83371,9.47967c0,0 -1.02107,0.44391 -1.05394,0.09277c-0.24243,-2.59047 -0.6149,-6.55873 -1.39631,-9.07569z" stroke-width="0.09445"/><path d="M399.57175,262.48803c-0.06783,-0.43233 0.46349,-0.74979 0.54032,-0.32703c0.28016,1.54157 0.37263,7.80206 0.37263,7.80206c0,0 -0.80481,0.23114 -0.83842,-0.04674c-0.26645,-2.20306 0.2558,-5.32296 -0.07453,-7.42831z" stroke-width="0.07568"/></g><g fill="#549f4d" stroke="#4e8846"><path d="M354.01183,320.81969c-0.08725,-0.48359 0.59614,-0.83869 0.69497,-0.36581c0.36035,1.72436 0.65588,6.39741 0.47929,8.72719c-0.02688,0.3546 -1.10013,0.30266 -1.0784,-0.05228c0.1158,-1.89124 0.32902,-5.95413 -0.09586,-8.30913z" stroke-width="0.11201"/><path d="M357.27304,322.1121c-0.63712,2.02761 -0.9408,5.22438 -1.13847,7.31121c-0.0268,0.28287 -0.85932,-0.07473 -0.85932,-0.07473c0,0 0.98964,-6.15752 1.49509,-7.63665c0.13861,-0.40563 0.63352,-0.01617 0.50269,0.4002z" stroke-width="0.09445"/><path d="M353.55678,323.46548c-0.26933,1.69604 0.15648,4.20937 -0.06077,5.98412c-0.0274,0.22386 -0.6836,0.03765 -0.6836,0.03765c0,0 0.07539,-5.04334 0.30382,-6.2852c0.06264,-0.34056 0.49585,-0.08483 0.44054,0.26345z" stroke-width="0.07568"/></g><g fill="#549f4d" stroke="#4e8846"><path d="M426.23636,203.0226c-0.52111,2.92335 -0.25959,7.96677 -0.11757,10.31444c0.02665,0.44061 -1.28967,0.50508 -1.32264,0.0649c-0.21659,-2.89204 0.14587,-8.69288 0.58784,-10.8334c0.12121,-0.58701 0.95938,-0.14621 0.85237,0.45409z" stroke-width="0.11201"/><path d="M422.23653,204.62697c-0.16046,-0.51685 0.44654,-1.00031 0.61654,-0.49678c0.61992,1.8361 1.83371,9.47967 1.83371,9.47967c0,0 -1.02107,0.44391 -1.05394,0.09277c-0.24243,-2.59047 -0.6149,-6.55873 -1.39631,-9.07568z" stroke-width="0.09445"/><path d="M426.79447,206.30697c-0.06783,-0.43233 0.46349,-0.74979 0.54032,-0.32703c0.28016,1.54157 0.37263,7.80206 0.37263,7.80206c0,0 -0.80481,0.23114 -0.83842,-0.04674c-0.26645,-2.20306 0.2558,-5.32296 -0.07453,-7.42831z" stroke-width="0.07568"/></g><g fill="#549f4d" stroke="#4e8846"><path d="M456.37055,315.11575c-0.09111,-0.5687 0.62255,-0.9863 0.72575,-0.43019c0.37632,2.02786 0.68494,7.52337 0.50052,10.2632c-0.02807,0.41701 -1.14886,0.35593 -1.12617,-0.06148c0.12093,-2.2241 0.3436,-7.00207 -0.10011,-9.77155z" stroke-width="0.11201"/><path d="M459.77623,316.63563c-0.66534,2.38448 -0.98248,6.14387 -1.1889,8.598c-0.02799,0.33266 -0.89738,-0.08789 -0.89738,-0.08789c0,0 1.03348,-7.24126 1.56132,-8.98072c0.14475,-0.47703 0.66158,-0.01901 0.52496,0.47063z" stroke-width="0.09445"/><path d="M455.89535,318.22721c-0.28126,1.99454 0.16341,4.95022 -0.06346,7.03733c-0.02862,0.26326 -0.71388,0.04428 -0.71388,0.04428c0,0 0.07873,-5.93098 0.31728,-7.39141c0.06542,-0.4005 0.51781,-0.09976 0.46006,0.30982z" stroke-width="0.07568"/></g><g fill="#549f4d" stroke="#4e8846"><path d="M470.71245,260.56917c-0.38643,2.09654 -0.1925,5.71354 -0.08719,7.39723c0.01976,0.31599 -0.95637,0.36223 -0.98082,0.04654c-0.16062,-2.07409 0.10817,-6.23429 0.43592,-7.76941c0.08988,-0.42099 0.71144,-0.10486 0.63208,0.32566z" stroke-width="0.11201"/><path d="M467.74634,261.71977c-0.11899,-0.37067 0.33113,-0.71739 0.4572,-0.35628c0.45971,1.3168 1.3598,6.79855 1.3598,6.79855c0,0 -0.75718,0.31836 -0.78156,0.06653c-0.17978,-1.85781 -0.45598,-4.70374 -1.03545,-6.50883z" stroke-width="0.09445"/><path d="M471.12632,262.92463c-0.0503,-0.31005 0.3437,-0.53772 0.40068,-0.23454c0.20776,1.10557 0.27633,5.59542 0.27633,5.59542c0,0 -0.59682,0.16577 -0.62174,-0.03352c-0.19759,-1.57998 0.18969,-3.81748 -0.05527,-5.32738z" stroke-width="0.07568"/></g><g fill="#549f4d" stroke="#4e8846"><path d="M509.18129,215.93852c-0.40554,2.30356 -0.20202,6.2777 -0.0915,8.12764c0.02074,0.34719 -1.00366,0.39799 -1.02932,0.05114c-0.16856,-2.27889 0.11352,-6.84987 0.45748,-8.53657c0.09433,-0.46256 0.74662,-0.11521 0.66334,0.35782z" stroke-width="0.11201"/><path d="M506.06849,217.20274c-0.12488,-0.40727 0.34751,-0.78823 0.47981,-0.39146c0.48244,1.44682 1.42705,7.46985 1.42705,7.46985c0,0 -0.79463,0.34979 -0.82021,0.0731c-0.18867,-2.04125 -0.47853,-5.16819 -1.08665,-7.15152z" stroke-width="0.09445"/><path d="M509.61562,218.52656c-0.05279,-0.34067 0.3607,-0.59082 0.42049,-0.25769c0.21803,1.21474 0.29,6.14792 0.29,6.14792c0,0 -0.62633,0.18214 -0.65249,-0.03683c-0.20736,-1.73599 0.19907,-4.19442 -0.058,-5.85341z" stroke-width="0.07568"/></g><g fill="#549f4d" stroke="#4e8846"><path d="M527.56699,312.59228c-0.39833,2.41266 -0.19843,6.57502 -0.08987,8.51256c0.02037,0.36363 -0.9858,0.41684 -1.011,0.05356c-0.16556,-2.38682 0.1115,-7.17428 0.44933,-8.94087c0.09265,-0.48446 0.73333,-0.12067 0.65153,0.37476z" stroke-width="0.11201"/><path d="M524.50959,313.91637c-0.12265,-0.42656 0.34132,-0.82556 0.47127,-0.41c0.47386,1.51535 1.40165,7.82363 1.40165,7.82363c0,0 -0.78049,0.36636 -0.80561,0.07656c-0.18531,-2.13793 -0.47002,-5.41296 -1.06732,-7.49021z" stroke-width="0.09445"/><path d="M527.9936,315.30289c-0.05185,-0.3568 0.35428,-0.6188 0.41301,-0.2699c0.21415,1.27227 0.28483,6.43908 0.28483,6.43908c0,0 -0.61518,0.19076 -0.64088,-0.03857c-0.20367,-1.8182 0.19553,-4.39307 -0.05697,-6.13063z" stroke-width="0.07568"/></g><g fill="#549f4d" stroke="#4e8846"><path d="M547.13823,257.16571c-0.35742,2.23021 -0.17805,6.0778 -0.08064,7.86883c0.01828,0.33614 -0.88456,0.38532 -0.90717,0.04951c-0.14856,-2.20632 0.10005,-6.63175 0.40319,-8.26474c0.08314,-0.44783 0.65802,-0.11154 0.58462,0.34642z" stroke-width="0.11201"/><path d="M544.39483,258.38968c-0.11006,-0.3943 0.30627,-0.76313 0.42287,-0.37899c0.42519,1.40075 1.2577,7.23199 1.2577,7.23199c0,0 -0.70033,0.33866 -0.72287,0.07077c-0.16628,-1.97625 -0.42175,-5.00362 -0.9577,-6.92379z" stroke-width="0.09445"/><path d="M547.52103,259.67135c-0.04653,-0.32982 0.3179,-0.57201 0.37059,-0.24949c0.19216,1.17606 0.25558,5.95215 0.25558,5.95215c0,0 -0.55201,0.17634 -0.57506,-0.03566c-0.18275,-1.68071 0.17545,-4.06086 -0.05112,-5.66702z" stroke-width="0.07568"/></g><g fill="#549f4d" stroke="#4e8846"><path d="M590.16398,304.10779c-0.46771,1.93464 -0.23299,5.27233 -0.10552,6.82599c0.02392,0.29159 -1.15753,0.33426 -1.18712,0.04295c-0.1944,-1.91393 0.13092,-5.75286 0.52761,-7.16944c0.10879,-0.38848 0.86108,-0.09676 0.76503,0.30051z" stroke-width="0.11201"/><path d="M586.57399,305.16954c-0.14402,-0.34205 0.40078,-0.66199 0.55337,-0.32876c0.5564,1.21511 1.64582,6.27355 1.64582,6.27355c0,0 -0.91645,0.29377 -0.94595,0.06139c-0.21759,-1.71435 -0.55189,-4.3405 -1.25324,-6.0062z" stroke-width="0.09445"/><path d="M590.6649,306.28135c-0.06088,-0.28611 0.416,-0.4962 0.48496,-0.21642c0.25146,1.0202 0.33445,5.16333 0.33445,5.16333c0,0 -0.72235,0.15297 -0.75252,-0.03093c-0.23915,-1.45797 0.22959,-3.52268 -0.06689,-4.91598z" stroke-width="0.07568"/></g><g fill="#549f4d" stroke="#4e8846"><path d="M570.9945,192.99758c-0.45296,2.59481 -0.22564,7.07141 -0.10219,9.15524c0.02316,0.39109 -1.12101,0.44831 -1.14967,0.05761c-0.18827,-2.56702 0.12679,-7.71592 0.51096,-9.61588c0.10536,-0.52104 0.83391,-0.12978 0.7409,0.40306z" stroke-width="0.11201"/><path d="M567.51776,194.42164c-0.13948,-0.45876 0.38814,-0.88789 0.53591,-0.44095c0.53885,1.62975 1.59389,8.41429 1.59389,8.41429c0,0 -0.88753,0.39402 -0.91611,0.08234c-0.21072,-2.29934 -0.53448,-5.82162 -1.2137,-8.0557z" stroke-width="0.09445"/><path d="M571.47962,195.91284c-0.05896,-0.38374 0.40287,-0.66552 0.46966,-0.29028c0.24352,1.36832 0.3239,6.92522 0.3239,6.92522c0,0 -0.69956,0.20517 -0.72878,-0.04149c-0.23161,-1.95547 0.22235,-4.72473 -0.06478,-6.59348z" stroke-width="0.07568"/></g><g fill="#549f4d" stroke="#4e8846"><path d="M609.31901,258.06159c-0.06774,-0.47316 0.46286,-0.82061 0.53959,-0.35792c0.27979,1.68718 0.50925,6.25946 0.37213,8.539c-0.02087,0.34695 -0.85417,0.29613 -0.8373,-0.05115c0.08991,-1.85046 0.25546,-5.82574 -0.07443,-8.12995z" stroke-width="0.11201"/><path d="M611.8511,259.32613c-0.49467,1.98389 -0.73047,5.11172 -0.88393,7.15355c-0.02081,0.27677 -0.6672,-0.07312 -0.6672,-0.07312c0,0 0.76838,-6.02474 1.16082,-7.47198c0.10762,-0.39689 0.49188,-0.01582 0.3903,0.39157z" stroke-width="0.09445"/><path d="M608.9657,260.65033c-0.20912,1.65946 0.1215,4.1186 -0.04718,5.85508c-0.02128,0.21903 -0.53076,0.03684 -0.53076,0.03684c0,0 0.05854,-4.93458 0.2359,-6.14967c0.04864,-0.33322 0.38499,-0.083 0.34205,0.25777z" stroke-width="0.07568"/></g><g><path d="M494.75379,310.64159c-0.45823,-0.62933 -0.46885,-1.45493 -0.02372,-1.84405c0.44513,-0.38911 1.17745,-0.19438 1.63568,0.43495c0.45823,0.62933 0.46885,1.45493 0.02372,1.84405c-0.44513,0.38911 -1.17745,0.19438 -1.63568,-0.43495z" fill="#82d22d" stroke="#82d22d" stroke-width="0.29894"/><path d="M492.95098,311.20679c-0.44513,-0.38911 -0.43451,-1.21472 0.02372,-1.84405c0.45823,-0.62933 1.19055,-0.82406 1.63568,-0.43495c0.44513,0.38911 0.43451,1.21472 -0.02372,1.84405c-0.45823,0.62933 -1.19055,0.82406 -1.63568,0.43495z" fill="#82d22d" stroke="#82d22d" stroke-width="0.29894"/><path d="M495.3289,320.81608c0.022,0.50856 -1.80099,-0.07661 -1.67617,-0.32635c0.94481,-1.89052 1.61825,-10.1461 -0.21791,-12.95028c-0.37619,-0.57452 0.96462,-0.74232 1.00718,-0.65539c1.73018,3.53395 0.86326,13.3854 0.8869,13.93202z" fill="#82d22d" stroke="#82d22d" stroke-width="0.29531"/><path d="M492.02887,302.18812c0,-2.03542 1.26076,-3.68546 2.81598,-3.68546c1.55522,0 2.81598,1.65004 2.81598,3.68546c0,2.03542 -1.26076,3.68546 -2.81598,3.68546c-1.55522,0 -2.81598,-1.65004 -2.81598,-3.68546z" fill-opacity="0.95294" fill="#e62eff" stroke-opacity="0.95294" stroke="#b783d3" stroke-width="0.31445"/><path d="M495.214,303.81435c1.10713,1.39179 0.26249,4.80108 -0.68567,5.54667c-4.75866,3.74196 -9.39373,-16.05671 0.68567,-5.54667z" fill-opacity="0.95294" fill="#e65dff" stroke-opacity="0.95294" stroke="#e55eff" stroke-width="0.36502"/><path d="M494.90973,309.36102c-0.94816,-0.74559 -1.7928,-4.15488 -0.68567,-5.54667c10.07941,-10.51004 5.44433,9.28863 0.68567,5.54667z" fill-opacity="0.95294" fill="#e55eff" stroke-opacity="0.95294" stroke="#e65dff" stroke-width="0.36502"/></g><g><path d="M142.797,250.24337c-0.05805,0.59636 -2.1017,-0.45621 -1.91397,-0.72144c1.421,-2.00771 3.57325,-11.47866 1.88014,-15.1165c-0.34688,-0.74532 1.25489,-0.66736 1.29052,-0.5575c1.44833,4.46558 -1.19428,15.75444 -1.25668,16.39544z" fill="#82d22d" stroke="#82d22d" stroke-width="0.29531"/><path d="M140.77829,224.42999c1.04359,-1.63369 4.62769,-1.94937 5.67727,-0.31978c1.39765,2.17001 -3.30314,7.03515 -3.30314,7.03515c0,0 -3.6448,-4.7262 -2.37413,-6.71537z" fill="#ff8fc1" stroke="#ff9ac8" stroke-width="0.40929"/><path d="M143.72424,230.70703c0,0 6.59958,0.98954 6.65647,3.72583c0.04273,2.05485 -3.0944,4.14419 -4.86861,3.4606c-2.16026,-0.83233 -1.78786,-7.18644 -1.78786,-7.18644z" fill="#ff8fc1" stroke="#ff8fc1" stroke-width="0.42118"/><path d="M140.77829,224.42999c1.04359,-1.63369 4.62769,-1.94937 5.67727,-0.31978c1.39765,2.17001 -3.30314,7.03515 -3.30314,7.03515c0,0 -3.6448,-4.7262 -2.37413,-6.71537z" fill="#ff8fc1" stroke="#ff8fc1" stroke-width="0.40929"/><path d="M142.34958,237.99194c-1.85029,0.70265 -5.12194,-1.44496 -5.07738,-3.55712c0.05934,-2.81261 6.94191,-3.82975 6.94191,-3.82975c0,0 0.38837,6.53133 -1.86453,7.38687z" fill="#ff8fc1" stroke="#ff8fc1" stroke-width="0.43607"/><path d="M143.7007,230.95566c0,0 2.35576,-6.54678 4.7539,-5.99479c1.80091,0.41453 2.91244,4.09751 1.91513,5.76438c-1.21431,2.02958 -6.66903,0.2304 -6.66903,0.2304z" fill="#ff8fc1" stroke="#ff8fc1" stroke-width="0.40929"/><path d="M136.5678,230.88145c-0.99731,-1.66688 0.11422,-5.34986 1.91513,-5.76439c2.39814,-0.552 4.7539,5.99479 4.7539,5.99479c0,0 -5.45472,1.79918 -6.66904,-0.2304z" fill="#ff8fc1" stroke="#ff8fc1" stroke-width="0.40929"/><path d="M141.1499,231.21321c0,-1.48214 1.09198,-2.68364 2.439,-2.68364c1.34703,0 2.439,1.20151 2.439,2.68364c0,1.48214 -1.09198,2.68364 -2.439,2.68364c-1.34703,0 -2.439,-1.20151 -2.439,-2.68364z" fill="#ffed4c" stroke="#fff04c" stroke-width="0.38459"/><path d="M148.25167,241.60102c0,0 -1.7607,3.81109 -3.31085,3.34431c-1.1641,-0.35054 -1.76755,-2.63101 -1.05924,-3.57909c0.86243,-1.15437 4.37009,0.23478 4.37009,0.23478z" fill="#82d22d" stroke="#82d22d" stroke-width="0.25751"/></g><g><path d="M500.29897,228.55724c0.10088,0.41999 -1.42179,0.26495 -1.35502,0.0419c0.50541,-1.6884 -2.25004,-9.08214 -2.41058,-10.84299c-0.05439,-0.59663 0.69961,-0.56403 0.7398,-0.48991c1.57453,2.90369 2.91737,10.83958 3.02581,11.291z" fill="#82d22d" stroke="#7ea723" stroke-width="0.25419"/><path d="M500.18644,230.55034c-1.28938,-0.10526 -4.31284,-3.86416 -4.31284,-3.86416c0,0 3.50179,0.19071 4.69955,1.85506c0.6524,0.90653 0.36247,2.07026 -0.38672,2.0091z" fill="#82d22d" stroke="#82d22d" stroke-width="0.23474"/><path d="M499.56665,228.90636c-0.22613,-2.03088 2.25849,-4.47985 2.25849,-4.47985c0,0 0.2732,4.79638 -0.61809,5.72426c-0.51787,0.53913 -1.51724,-0.13824 -1.64041,-1.24441z" fill="#82d22d" stroke="#82d22d" stroke-width="0.23474"/><path d="M497.04356,219.02116c-1.59568,-0.3693 -4.08473,-4.27639 -4.63646,-5.70267c-0.55173,-1.42627 4.61892,1.41368 5.5223,3.21767c0.90338,1.80399 0.04132,2.69957 -0.88584,2.48499z" fill="#ff2400" stroke="#ff2400" stroke-width="0.29982"/><path d="M497.14579,219.80356c-1.66748,0.09433 -5.484,-2.70889 -6.35804,-4.07063c-0.87404,-1.36174 4.50748,-0.37501 6.40463,1.4938c1.03334,1.0179 0.92228,2.52202 -0.04659,2.57682z" fill="#ff2400" stroke="#ff2400" stroke-width="0.29982"/><path d="M495.88867,217.51927c-1.67903,-2.04041 -0.81916,-4.56283 -0.5453,-6.10337c0.37137,-2.0891 3.66661,4.97051 3.29444,6.48078c-0.21624,0.87753 -1.83461,0.73396 -2.74914,-0.37741z" fill="#ff2400" stroke="#ff2400" stroke-width="0.29982"/><path d="M496.58254,217.38082c0.80774,-2.55226 5.10064,-5.98344 4.96082,-4.36553c-0.13982,1.61791 -2.20842,5.90814 -3.7242,6.61813c-0.88073,0.41253 -1.67658,-0.86243 -1.23662,-2.25259z" fill="#ff2400" stroke="#ff2400" stroke-width="0.29982"/><path d="M496.07146,217.00562c-0.03946,-2.02227 3.20749,-6.98913 3.38215,-5.46757c0.17465,1.52155 -0.20996,6.15474 -1.44726,7.23985c-0.71892,0.6305 -1.89542,0.25 -1.93489,-1.77228z" fill="#ff2400" stroke="#ff2400" stroke-width="0.29982"/></g><g><path d="M248.96384,201.15317c-0.57392,-0.68264 -0.58722,-1.57819 -0.02971,-2.00027c0.55751,-0.42208 1.47472,-0.21085 2.04863,0.47179c0.57392,0.68264 0.58722,1.57819 0.02971,2.00027c-0.55751,0.42208 -1.47472,0.21085 -2.04863,-0.47179z" fill="#82d22d" stroke="#82d22d" stroke-width="0.29894"/><path d="M246.70588,201.76625c-0.55751,-0.42208 -0.54421,-1.31763 0.02971,-2.00027c0.57392,-0.68264 1.49112,-0.89387 2.04863,-0.47179c0.55751,0.42208 0.54421,1.31763 -0.02971,2.00027c-0.57392,0.68264 -1.49112,0.89387 -2.04863,0.47179z" fill="#82d22d" stroke="#82d22d" stroke-width="0.29894"/><path d="M249.68415,212.18962c0.02755,0.55164 -2.25568,-0.0831 -2.09936,-0.354c1.18334,-2.05068 2.02681,-11.00566 -0.27292,-14.04739c-0.47117,-0.62319 1.20816,-0.80521 1.26147,-0.71091c2.16699,3.83334 1.0812,14.51938 1.11082,15.11231z" fill="#82d22d" stroke="#82d22d" stroke-width="0.29531"/><path d="M245.55097,191.98355c0,-2.20786 1.57906,-3.99768 3.52693,-3.99768c1.94787,0 3.52693,1.78982 3.52693,3.99768c0,2.20786 -1.57906,3.99768 -3.52693,3.99768c-1.94787,0 -3.52693,-1.78982 -3.52693,-3.99768z" fill-opacity="0.95294" fill="#e62eff" stroke-opacity="0.95294" stroke="#b783d3" stroke-width="0.31445"/><path d="M249.54024,193.74755c1.38664,1.5097 0.32876,5.20782 -0.85878,6.01657c-5.96007,4.05897 -11.76535,-17.417 0.85878,-6.01657z" fill-opacity="0.95294" fill="#e65dff" stroke-opacity="0.95294" stroke="#e55eff" stroke-width="0.36502"/><path d="M249.15915,199.76412c-1.18755,-0.80875 -2.24543,-4.50687 -0.85878,-6.01657c12.62414,-11.40043 6.81885,10.07555 0.85878,6.01657z" fill-opacity="0.95294" fill="#e55eff" stroke-opacity="0.95294" stroke="#e65dff" stroke-width="0.36502"/></g><g><path d="M199.10483,319.32808c0.10088,0.41999 -1.42179,0.26495 -1.35502,0.0419c0.50541,-1.6884 -2.25004,-9.08214 -2.41058,-10.84299c-0.05439,-0.59663 0.69961,-0.56403 0.7398,-0.48991c1.57453,2.90369 2.91737,10.83958 3.02581,11.291z" fill="#82d22d" stroke="#7ea723" stroke-width="0.25419"/><path d="M198.99229,321.32118c-1.28938,-0.10526 -4.31284,-3.86416 -4.31284,-3.86416c0,0 3.50179,0.19071 4.69955,1.85506c0.6524,0.90653 0.36247,2.07026 -0.38672,2.0091z" fill="#82d22d" stroke="#82d22d" stroke-width="0.23474"/><path d="M198.37251,319.6772c-0.22613,-2.03088 2.25849,-4.47985 2.25849,-4.47985c0,0 0.2732,4.79638 -0.61809,5.72426c-0.51787,0.53913 -1.51724,-0.13824 -1.64041,-1.24441z" fill="#82d22d" stroke="#82d22d" stroke-width="0.23474"/><path d="M195.84941,309.792c-1.59568,-0.3693 -4.08473,-4.27639 -4.63646,-5.70267c-0.55173,-1.42627 4.61892,1.41368 5.5223,3.21767c0.90338,1.80399 0.04132,2.69957 -0.88584,2.48499z" fill="#ff2400" stroke="#ff2400" stroke-width="0.29982"/><path d="M195.95164,310.5744c-1.66748,0.09433 -5.484,-2.70889 -6.35804,-4.07063c-0.87404,-1.36174 4.50748,-0.37501 6.40463,1.4938c1.03334,1.0179 0.92228,2.52202 -0.04659,2.57682z" fill="#ff2400" stroke="#ff2400" stroke-width="0.29982"/><path d="M194.69452,308.29011c-1.67903,-2.04041 -0.81916,-4.56283 -0.5453,-6.10337c0.37137,-2.0891 3.66661,4.97051 3.29444,6.48078c-0.21624,0.87753 -1.83461,0.73396 -2.74914,-0.37741z" fill="#ff2400" stroke="#ff2400" stroke-width="0.29982"/><path d="M195.38839,308.15166c0.80774,-2.55226 5.10064,-5.98344 4.96082,-4.36553c-0.13982,1.61791 -2.20842,5.90814 -3.7242,6.61813c-0.88073,0.41253 -1.67658,-0.86243 -1.23662,-2.25259z" fill="#ff2400" stroke="#ff2400" stroke-width="0.29982"/><path d="M194.87731,307.77646c-0.03946,-2.02227 3.20749,-6.98913 3.38215,-5.46757c0.17465,1.52155 -0.20996,6.15474 -1.44726,7.23985c-0.71892,0.6305 -1.89542,0.25 -1.93489,-1.77228z" fill="#ff2400" stroke="#ff2400" stroke-width="0.29982"/></g><g><path d="M456.71841,256.07834c-0.05805,0.59636 -2.1017,-0.45621 -1.91397,-0.72144c1.421,-2.00771 3.57325,-11.47866 1.88014,-15.1165c-0.34688,-0.74532 1.25489,-0.66736 1.29052,-0.5575c1.44833,4.46558 -1.19428,15.75444 -1.25668,16.39544z" fill="#82d22d" stroke="#82d22d" stroke-width="0.29531"/><path d="M454.6997,230.26496c1.04359,-1.63369 4.62769,-1.94937 5.67727,-0.31978c1.39765,2.17001 -3.30314,7.03515 -3.30314,7.03515c0,0 -3.6448,-4.7262 -2.37413,-6.71537z" fill="#ff8fc1" stroke="#ff9ac8" stroke-width="0.40929"/><path d="M457.64564,236.542c0,0 6.59958,0.98954 6.65647,3.72583c0.04273,2.05485 -3.0944,4.14419 -4.86861,3.4606c-2.16026,-0.83233 -1.78786,-7.18644 -1.78786,-7.18644z" fill="#ff8fc1" stroke="#ff8fc1" stroke-width="0.42118"/><path d="M454.6997,230.26496c1.04359,-1.63369 4.62769,-1.94937 5.67727,-0.31978c1.39765,2.17001 -3.30314,7.03515 -3.30314,7.03515c0,0 -3.6448,-4.7262 -2.37413,-6.71537z" fill="#ff8fc1" stroke="#ff8fc1" stroke-width="0.40929"/><path d="M456.27099,243.82691c-1.85029,0.70265 -5.12194,-1.44496 -5.07738,-3.55712c0.05934,-2.81261 6.94191,-3.82975 6.94191,-3.82975c0,0 0.38837,6.53133 -1.86453,7.38687z" fill="#ff8fc1" stroke="#ff8fc1" stroke-width="0.43607"/><path d="M457.6221,236.79063c0,0 2.35576,-6.54678 4.7539,-5.99479c1.80091,0.41453 2.91244,4.09751 1.91513,5.76438c-1.21431,2.02958 -6.66903,0.2304 -6.66903,0.2304z" fill="#ff8fc1" stroke="#ff8fc1" stroke-width="0.40929"/><path d="M450.4892,236.71642c-0.99731,-1.66688 0.11422,-5.34986 1.91513,-5.76439c2.39814,-0.552 4.7539,5.99479 4.7539,5.99479c0,0 -5.45472,1.79918 -6.66904,-0.2304z" fill="#ff8fc1" stroke="#ff8fc1" stroke-width="0.40929"/><path d="M455.0713,237.04818c0,-1.48214 1.09198,-2.68364 2.439,-2.68364c1.34703,0 2.439,1.20151 2.439,2.68364c0,1.48214 -1.09198,2.68364 -2.439,2.68364c-1.34703,0 -2.439,-1.20151 -2.439,-2.68364z" fill="#ffed4c" stroke="#fff04c" stroke-width="0.38459"/><path d="M462.17307,247.43599c0,0 -1.7607,3.81109 -3.31085,3.34431c-1.1641,-0.35054 -1.76755,-2.63101 -1.05924,-3.57909c0.86243,-1.15437 4.37009,0.23478 4.37009,0.23478z" fill="#82d22d" stroke="#82d22d" stroke-width="0.25751"/></g><g><path d="M264.13476,281.67577c-0.57392,-0.68264 -0.58722,-1.57819 -0.02971,-2.00027c0.55751,-0.42208 1.47472,-0.21085 2.04863,0.47179c0.57392,0.68264 0.58722,1.57819 0.02971,2.00027c-0.55751,0.42208 -1.47472,0.21085 -2.04863,-0.47179z" fill="#82d22d" stroke="#82d22d" stroke-width="0.29894"/><path d="M261.8768,282.28885c-0.55751,-0.42208 -0.54421,-1.31763 0.02971,-2.00027c0.57392,-0.68264 1.49112,-0.89387 2.04863,-0.47179c0.55751,0.42208 0.54421,1.31763 -0.02971,2.00027c-0.57392,0.68264 -1.49112,0.89387 -2.04863,0.47179z" fill="#82d22d" stroke="#82d22d" stroke-width="0.29894"/><path d="M264.85507,292.71222c0.02755,0.55164 -2.25568,-0.0831 -2.09936,-0.354c1.18334,-2.05068 2.02681,-11.00566 -0.27292,-14.04739c-0.47117,-0.62319 1.20816,-0.80521 1.26147,-0.71091c2.16699,3.83334 1.0812,14.51938 1.11082,15.11231z" fill="#82d22d" stroke="#82d22d" stroke-width="0.29531"/><path d="M260.72189,272.50615c0,-2.20786 1.57906,-3.99768 3.52693,-3.99768c1.94787,0 3.52693,1.78982 3.52693,3.99768c0,2.20786 -1.57906,3.99768 -3.52693,3.99768c-1.94787,0 -3.52693,-1.78982 -3.52693,-3.99768z" fill-opacity="0.95294" fill="#e62eff" stroke-opacity="0.95294" stroke="#b783d3" stroke-width="0.31445"/><path d="M264.71116,274.27015c1.38664,1.5097 0.32876,5.20782 -0.85878,6.01657c-5.96007,4.05897 -11.76535,-17.417 0.85878,-6.01657z" fill-opacity="0.95294" fill="#e65dff" stroke-opacity="0.95294" stroke="#e55eff" stroke-width="0.36502"/><path d="M264.33007,280.28672c-1.18755,-0.80875 -2.24543,-4.50687 -0.85878,-6.01657c12.62414,-11.40043 6.81885,10.07555 0.85878,6.01657z" fill-opacity="0.95294" fill="#e55eff" stroke-opacity="0.95294" stroke="#e65dff" stroke-width="0.36502"/></g><g><path d="M368.31897,232.97052c0.10088,0.41999 -1.42179,0.26495 -1.35502,0.0419c0.50541,-1.6884 -2.25004,-9.08214 -2.41058,-10.84299c-0.05439,-0.59663 0.69961,-0.56403 0.7398,-0.48991c1.57453,2.90369 2.91737,10.83958 3.02581,11.291z" fill="#82d22d" stroke="#7ea723" stroke-width="0.25419"/><path d="M368.20644,234.96362c-1.28938,-0.10526 -4.31284,-3.86416 -4.31284,-3.86416c0,0 3.50179,0.19071 4.69955,1.85506c0.6524,0.90653 0.36247,2.07026 -0.38672,2.0091z" fill="#82d22d" stroke="#82d22d" stroke-width="0.23474"/><path d="M367.58665,233.31964c-0.22613,-2.03088 2.25849,-4.47985 2.25849,-4.47985c0,0 0.2732,4.79638 -0.61809,5.72426c-0.51787,0.53913 -1.51724,-0.13824 -1.64041,-1.24441z" fill="#82d22d" stroke="#82d22d" stroke-width="0.23474"/><path d="M365.06356,223.43444c-1.59568,-0.3693 -4.08473,-4.27639 -4.63646,-5.70267c-0.55173,-1.42627 4.61892,1.41368 5.5223,3.21767c0.90338,1.80399 0.04132,2.69957 -0.88584,2.48499z" fill="#ff2400" stroke="#ff2400" stroke-width="0.29982"/><path d="M365.16579,224.21684c-1.66748,0.09433 -5.484,-2.70889 -6.35804,-4.07063c-0.87404,-1.36174 4.50748,-0.37501 6.40463,1.4938c1.03334,1.0179 0.92228,2.52202 -0.04659,2.57682z" fill="#ff2400" stroke="#ff2400" stroke-width="0.29982"/><path d="M363.90867,221.93255c-1.67903,-2.04041 -0.81916,-4.56283 -0.5453,-6.10337c0.37137,-2.0891 3.66661,4.97051 3.29444,6.48078c-0.21624,0.87753 -1.83461,0.73396 -2.74914,-0.37741z" fill="#ff2400" stroke="#ff2400" stroke-width="0.29982"/><path d="M364.60254,221.7941c0.80774,-2.55226 5.10064,-5.98344 4.96082,-4.36553c-0.13982,1.61791 -2.20842,5.90814 -3.7242,6.61813c-0.88073,0.41253 -1.67658,-0.86243 -1.23662,-2.25259z" fill="#ff2400" stroke="#ff2400" stroke-width="0.29982"/><path d="M364.09146,221.4189c-0.03946,-2.02227 3.20749,-6.98913 3.38215,-5.46757c0.17465,1.52155 -0.20996,6.15474 -1.44726,7.23985c-0.71892,0.6305 -1.89542,0.25 -1.93489,-1.77228z" fill="#ff2400" stroke="#ff2400" stroke-width="0.29982"/></g><g><path d="M387.86576,333.09995c-0.05805,0.59636 -2.1017,-0.45621 -1.91397,-0.72144c1.421,-2.00771 3.57325,-11.47866 1.88014,-15.1165c-0.34688,-0.74532 1.25489,-0.66736 1.29052,-0.5575c1.44833,4.46558 -1.19428,15.75444 -1.25668,16.39544z" fill="#82d22d" stroke="#82d22d" stroke-width="0.29531"/><path d="M385.84705,307.28657c1.04359,-1.63369 4.62769,-1.94937 5.67727,-0.31978c1.39765,2.17001 -3.30314,7.03515 -3.30314,7.03515c0,0 -3.6448,-4.7262 -2.37413,-6.71537z" fill="#ff8fc1" stroke="#ff9ac8" stroke-width="0.40929"/><path d="M388.793,313.56361c0,0 6.59958,0.98954 6.65647,3.72583c0.04273,2.05485 -3.0944,4.14419 -4.86861,3.4606c-2.16026,-0.83233 -1.78786,-7.18644 -1.78786,-7.18644z" fill="#ff8fc1" stroke="#ff8fc1" stroke-width="0.42118"/><path d="M385.84705,307.28657c1.04359,-1.63369 4.62769,-1.94937 5.67727,-0.31978c1.39765,2.17001 -3.30314,7.03515 -3.30314,7.03515c0,0 -3.6448,-4.7262 -2.37413,-6.71537z" fill="#ff8fc1" stroke="#ff8fc1" stroke-width="0.40929"/><path d="M387.41834,320.84852c-1.85029,0.70265 -5.12194,-1.44496 -5.07738,-3.55712c0.05934,-2.81261 6.94191,-3.82975 6.94191,-3.82975c0,0 0.38837,6.53133 -1.86453,7.38687z" fill="#ff8fc1" stroke="#ff8fc1" stroke-width="0.43607"/><path d="M388.76946,313.81224c0,0 2.35576,-6.54678 4.7539,-5.99479c1.80091,0.41453 2.91244,4.09751 1.91513,5.76438c-1.21431,2.02958 -6.66903,0.2304 -6.66903,0.2304z" fill="#ff8fc1" stroke="#ff8fc1" stroke-width="0.40929"/><path d="M381.63655,313.73803c-0.99731,-1.66688 0.11422,-5.34986 1.91513,-5.76439c2.39814,-0.552 4.7539,5.99479 4.7539,5.99479c0,0 -5.45472,1.79918 -6.66904,-0.2304z" fill="#ff8fc1" stroke="#ff8fc1" stroke-width="0.40929"/><path d="M386.21865,314.06979c0,-1.48214 1.09198,-2.68364 2.439,-2.68364c1.34703,0 2.439,1.20151 2.439,2.68364c0,1.48214 -1.09198,2.68364 -2.439,2.68364c-1.34703,0 -2.439,-1.20151 -2.439,-2.68364z" fill="#ffed4c" stroke="#fff04c" stroke-width="0.38459"/><path d="M393.32042,324.4576c0,0 -1.7607,3.81109 -3.31085,3.34431c-1.1641,-0.35054 -1.76755,-2.63101 -1.05924,-3.57909c0.86243,-1.15437 4.37009,0.23478 4.37009,0.23478z" fill="#82d22d" stroke="#82d22d" stroke-width="0.25751"/></g></g></g></svg>