<svg version="1.1" xmlns="http://www.w3.org/2000/svg" xmlns:xlink="http://www.w3.org/1999/xlink" width="94.55004" height="86.58909" viewBox="0,0,94.55004,86.58909"><g transform="translate(-272.52408,-136.54706)"><g data-paper-data="{&quot;isPaintingLayer&quot;:true}" fill-rule="nonzero" stroke-linecap="butt" stroke-linejoin="miter" stroke-miterlimit="10" stroke-dasharray="" stroke-dashoffset="0" style="mix-blend-mode: normal"><path d="M326.1773,184.0311l40.29937,-22.56185c0,0 0,0 0.41546,43.69122z" data-paper-data="{&quot;index&quot;:null}" fill="#c4c418" stroke="#e3e31c" stroke-width="0.35835"/><path d="M339.03561,137.12815c-0.67273,85.7437 -0.67273,85.7437 -0.67273,85.7437l-65.255,-44.27749z" data-paper-data="{&quot;index&quot;:null}" fill="#f6f626" stroke="#f6f626" stroke-width="0.6388"/><path d="M309.68884,181.23474l20.43876,-10.50707c0,0 0,0 0.21072,20.34701z" data-paper-data="{&quot;index&quot;:null}" fill="#c4c418" stroke="#e3e31c" stroke-width="0.22208"/><g data-paper-data="{&quot;index&quot;:null}"><path d="M297.35013,186.53376c-4.00944,0 -7.25973,-3.31631 -7.25973,-7.4072c0,-4.09088 3.25029,-7.4072 7.25973,-7.4072c4.00943,0 7.25972,3.31631 7.25972,7.4072c0,4.09088 -3.25028,7.4072 -7.25972,7.4072z" fill="#000000" stroke="#000000" stroke-width="0.33116"/><path d="M294.23824,179.83859c-1.85702,0 -3.36242,-1.52158 -3.36242,-3.39853c0,-1.87697 1.50541,-3.39854 3.36242,-3.39854c1.85702,0 3.36242,1.52159 3.36242,3.39854c0,1.87697 -1.50541,3.39853 -3.36242,3.39853z" fill="#ffffff" stroke="#ffffff" stroke-width="0.15266"/></g></g></g></svg>