<svg version="1.1" xmlns="http://www.w3.org/2000/svg" xmlns:xlink="http://www.w3.org/1999/xlink" width="320.42712" height="323.5" viewBox="0,0,320.42712,323.5"><g transform="translate(-159.78644,-18.25)"><g data-paper-data="{&quot;isPaintingLayer&quot;:true}" fill-rule="nonzero" stroke-miterlimit="10" stroke-dashoffset="0" style="mix-blend-mode: normal"><path d="M466.96356,180c0,82.01429 -65.79783,148.5 -146.96356,148.5c-81.16573,0 -146.96356,-66.48571 -146.96356,-148.5c0,-82.01429 65.79783,-148.5 146.96356,-148.5c81.16573,0 146.96356,66.48571 146.96356,148.5z" fill="#4ea140" stroke="#29441b" stroke-width="26.5" stroke-linecap="butt" stroke-linejoin="miter" stroke-dasharray=""/><g fill="#f9a439" stroke="#7802ff" stroke-width="0" stroke-linecap="round" stroke-linejoin="round" stroke-dasharray=""><path d="M216.73972,140.2947c0,-30.97071 25.87761,-56.07744 57.79923,-56.07744c31.92163,0 57.79923,25.10672 57.79923,56.07744c0,30.97071 -25.8776,56.07743 -57.79923,56.07743c-31.92163,0 -57.79923,-25.10673 -57.79923,-56.07743z"/><path d="M221.25008,216.89953c0,-30.97071 25.8776,-56.07744 57.79923,-56.07744c31.92163,0 57.79923,25.10673 57.79923,56.07744c0,30.97071 -25.8776,56.07743 -57.79923,56.07743c-31.92163,0 -57.79923,-25.10672 -57.79923,-56.07743z"/><path d="M310.88576,138.99044c0,-30.97071 25.8776,-56.07744 57.79923,-56.07744c31.92163,0 57.79923,25.10673 57.79923,56.07744c0,30.97071 -25.8776,56.07743 -57.79923,56.07743c-31.92163,0 -57.79923,-25.10672 -57.79923,-56.07743z"/><path d="M307.50416,216.87843c0,-30.97071 25.8776,-56.07744 57.79923,-56.07744c31.92163,0 57.79923,25.10672 57.79923,56.07744c0,30.97071 -25.8776,56.07743 -57.79923,56.07743c-31.92163,0 -57.79923,-25.10673 -57.79923,-56.07743z"/><path d="M274.59932,120.24007c0,-24.82385 21.31097,-44.94755 47.59937,-44.94755c26.28841,0 47.59936,20.12371 47.59936,44.94755c0,24.82385 -21.31097,44.94755 -47.59936,44.94755c-26.28841,0 -47.59937,-20.12371 -47.59937,-44.94755z"/></g><g stroke-linecap="round" stroke-linejoin="round"><path d="M388.09797,112.55658l-35.6061,43.0007z" fill="#785b00" stroke="none" stroke-width="4.9" stroke-dasharray="4.9,9.80001"/><path d="M246.297,139.04327c0,-16.23462 12.59938,-29.39536 28.14149,-29.39536c15.54211,0 28.14148,13.16074 28.14148,29.39536c0,16.23462 -12.59937,29.39538 -28.14148,29.39538c-15.54211,0 -28.14149,-13.16076 -28.14149,-29.39538z" fill="#ffe16a" stroke="#7802ff" stroke-width="0" stroke-dasharray=""/><path d="M366.79907,167.73326c-15.54211,0 -28.14149,-13.16075 -28.14149,-29.39537c0,-16.23462 12.59938,-29.39536 28.14149,-29.39536c15.54211,0 28.14149,13.16074 28.14149,29.39536c0,16.23462 -12.59938,29.39537 -28.14149,29.39537z" fill="#ffe16a" stroke="#7802ff" stroke-width="0" stroke-dasharray=""/><path d="M368.09825,150.2794c-9.02302,0 -16.33762,-6.72551 -16.33762,-15.02186c0,-8.29635 7.31461,-15.02186 16.33762,-15.02186c9.02302,0 16.33761,6.72552 16.33761,15.02186c0,8.29635 -7.3146,15.02186 -16.33761,15.02186z" fill="#ffeca8" stroke="#7802ff" stroke-width="0" stroke-dasharray=""/><path d="M272.47172,151.82725c-9.02302,0 -16.33762,-6.72552 -16.33762,-15.02186c0,-8.29635 7.31461,-15.02186 16.33762,-15.02186c9.02302,0 16.33762,6.72552 16.33762,15.02186c0,8.29635 -7.31461,15.02186 -16.33762,15.02186z" fill="#ffeca8" stroke="#7802ff" stroke-width="0" stroke-dasharray=""/><path d="M257.69036,176.81354c0,-35.61868 28.45977,-64.49333 63.56666,-64.49333c35.10689,0 63.56666,28.87465 63.56666,64.49333c0,35.61868 -28.45977,64.49333 -63.56666,64.49333c-35.10689,0 -63.56666,-28.87465 -63.56666,-64.49333z" fill="#ffe16a" stroke="#7802ff" stroke-width="0" stroke-dasharray=""/></g><path d="M313.9213,210.1253c0,-3.13244 3.74892,-5.67178 8.37345,-5.67178c4.62453,0 8.37345,2.53934 8.37345,5.67178c0,3.13244 -3.74892,5.67177 -8.37345,5.67177c-4.62453,0 -8.37345,-2.53934 -8.37345,-5.67177z" fill="#341a00" stroke="none" stroke-width="1.04042" stroke-linecap="round" stroke-linejoin="round" stroke-dasharray="2.81568,5.63136"/><g stroke="none" stroke-linecap="round" stroke-linejoin="round"><g fill="#ffeca8" stroke-width="5.67567" stroke-dasharray="5.67567,11.3514"><path d="M320.65519,207.71292c-8.72941,-8.04271 -11.21368,-18.37352 -5.54877,-23.07448c5.66491,-4.70096 17.33381,-1.99195 26.06321,6.05078c8.72941,8.04271 11.21368,18.37352 5.54877,23.07448c-5.66491,4.70096 -17.33381,1.99195 -26.06321,-6.05078z"/><path d="M297.82998,213.76377c-5.66491,-4.70096 -3.18063,-15.03176 5.54877,-23.07449c8.72941,-8.04271 20.3983,-10.75174 26.0632,-6.05078c5.66491,4.70096 3.18063,15.03177 -5.54877,23.07449c-8.72941,8.04271 -20.3983,10.75174 -26.06321,6.05077z"/></g><path d="M322.28066,199.10229c-7.83001,-3.20773 -11.13654,-7.81977 -12.4082,-13.0635c0,0 11.29284,-8.27544 23.60755,-0.38303c-0.75649,9.80593 -11.19935,13.44656 -11.19935,13.44653z" fill="#341a00" stroke-width="4.9" stroke-dasharray="4.9,9.80001"/></g><g stroke-linecap="butt" stroke-linejoin="miter" stroke-dasharray=""><path d="M338.52853,147.2543c6.22926,-8.21609 16.69592,-8.97462 23.37792,-1.6942c6.68201,7.28041 7.04902,19.84283 0.81976,28.05892c-6.22926,8.21609 -16.69592,8.97462 -23.37792,1.6942c-6.68201,-7.28041 -7.04902,-19.84283 -0.81976,-28.05892z" fill="#ffffff" stroke="#ffffff" stroke-width="0.90331"/><path d="M350.4396,173.42793c-6.10201,0 -11.04867,-5.22665 -11.04867,-11.67406c0,-6.4474 4.94666,-11.67405 11.04867,-11.67405c6.10201,0 11.04866,5.22665 11.04866,11.67405c0,6.4474 -4.94665,11.67406 -11.04866,11.67406z" fill="#aa3f00" stroke="none" stroke-width="0.1656"/><path d="M343.79299,161.45722c-2.63609,0 -4.77305,-2.59302 -4.77305,-5.79167c0,-3.19865 2.13697,-5.79167 4.77305,-5.79167c2.63609,0 4.77305,2.59302 4.77305,5.79167c0,3.19865 -2.13696,5.79167 -4.77305,5.79167z" fill="#ffffff" stroke="#ffffff" stroke-width="0.3191"/></g><g stroke-linecap="butt" stroke-linejoin="miter" stroke-dasharray=""><path d="M303.94986,175.31322c-6.68201,7.28041 -17.14865,6.5219 -23.37792,-1.6942c-6.22926,-8.21609 -5.86224,-20.7785 0.81976,-28.05892c6.68201,-7.28041 17.14865,-6.5219 23.37792,1.6942c6.22926,8.21609 5.86224,20.7785 -0.81976,28.05892z" fill="#ffffff" stroke="#ffffff" stroke-width="0.90331"/><path d="M281.80989,161.7539c0,-6.4474 4.94665,-11.67405 11.04866,-11.67405c6.10201,0 11.04867,5.22665 11.04867,11.67405c0,6.4474 -4.94666,11.67405 -11.04867,11.67405c-6.10201,0 -11.04866,-5.22665 -11.04866,-11.67405z" fill="#aa3f00" stroke="none" stroke-width="0.1656"/><path d="M294.73212,155.66555c0,-3.19865 2.13696,-5.79167 4.77305,-5.79167c2.63609,0 4.77305,2.59302 4.77305,5.79167c0,3.19865 -2.13696,5.79167 -4.77305,5.79167c-2.63609,0 -4.77305,-2.59302 -4.77305,-5.79167z" fill="#ffffff" stroke="#ffffff" stroke-width="0.3191"/></g></g></g></svg>