<svg version="1.1" xmlns="http://www.w3.org/2000/svg" xmlns:xlink="http://www.w3.org/1999/xlink" width="178.38287" height="170.15557" viewBox="0,0,178.38287,170.15557"><g transform="translate(-231.55651,-96.60508)"><g data-paper-data="{&quot;isPaintingLayer&quot;:true}" fill-rule="nonzero" stroke-linecap="butt" stroke-linejoin="miter" stroke-miterlimit="10" stroke-dasharray="" stroke-dashoffset="0" style="mix-blend-mode: normal"><path d="M341.26455,135.68833c1.90012,8.09445 -33.87179,33.97591 -25.6042,27.0051c7.14503,-6.02432 29.6137,1.68147 34.96476,7.87649c6.23772,7.22155 8.40326,16.51221 7.9841,26.44277c-0.56714,13.43584 -7.6341,27.19285 -19.27188,33.47464c-12.66486,6.8362 -31.22798,7.00713 -42.94819,-1.40609c-10.98797,-7.88757 -16.10468,-24.59508 -14.86744,-38.25753c3.41221,-31.73577 25.13526,-51.06155 40.11053,-64.83723c5.40242,-4.96968 18.17583,3.49725 19.63231,9.70185zM306.85019,197.29414c-0.00003,7.61295 6.16348,13.78434 13.76633,13.78391c7.60245,-0.00011 13.76537,-6.17135 13.76534,-13.78391c0.00005,-7.61255 -6.16288,-13.78381 -13.76534,-13.78392c-7.60285,-0.00045 -13.76638,6.17098 -13.76633,13.78392z" fill="#1999e1" stroke="#ffffff" stroke-width="7.5"/><path d="M231.55651,266.76065v-170.15557h178.38287v170.15557z" fill="none" stroke="#000000" stroke-width="0"/></g></g></svg>