<svg version="1.1" xmlns="http://www.w3.org/2000/svg" xmlns:xlink="http://www.w3.org/1999/xlink" width="640" height="360" viewBox="0,0,640,360"><g transform=""><g data-paper-data="{&quot;isPaintingLayer&quot;:true}" fill-rule="nonzero" stroke-linecap="round" stroke-miterlimit="10" stroke-dasharray="" stroke-dashoffset="0" style="mix-blend-mode: normal"><path d="M640,0v360h-640v-360zM479.1797,17.34766c-11.56811,6.70287 -22.4005,20.52604 -27.31642,33.23047c-2.17346,-0.80621 -4.59931,-1.107 -7.22653,-1.14062c-2.33904,-0.02994 -4.83111,0.13902 -7.42972,0.31445c-4.86849,0.32867 -10.08438,0.71492 -14.45896,2.26758c-6.71407,-11.19361 -17.26715,-20.53625 -24.79495,-24.8457c-10.87601,-6.22627 -20.77051,-7.80627 -30.92772,-7.73242c-3.38574,0.02462 -6.80072,0.23248 -10.29102,0.51367c-13.31741,1.0729 -25.72925,10.10992 -38.9043,13.1875c-12.59437,2.94194 -25.95029,-0.23696 -38.11914,4.98633c-7.00022,3.00474 -15.1113,6.22523 -21.60937,11.28906c-1.71874,-0.42618 -3.82467,-0.54976 -6.22852,-0.50196c-1.54378,0.0307 -3.20072,0.12621 -4.9375,0.24023c-6.9471,0.45613 -15.15654,1.22649 -23.65039,2.65039c-8.49385,1.42389 -17.27077,3.501 -24.70899,4.97461c-0.32476,0.06434 -0.59681,0.125 -0.91601,0.1875c-6.22559,-9.46762 -14.08962,-18.73356 -22.22265,-24.49609c-15.12454,-10.71622 -27.15418,-14.35222 -37.62891,-13.96289c-13.4675,0.50057 -24.36451,7.65589 -35.95703,14.97461c-15.18895,9.58924 -11.78941,34.16725 -23.01563,48.02539c-12.82882,15.83648 -43.86627,17.93543 -48.61523,37.59766c-5.27692,21.84815 11.03804,47.26077 29.19531,60.99804c13.3763,10.12013 33.39842,12.77146 49.88281,9.07422c1.09199,-0.24492 2.14462,-0.49699 3.22071,-0.74219l2.79687,31.55664c-45.98165,2.15451 -56.17413,18.5382 -65.78711,44.91406c-5.56429,15.26719 8.99822,34.22104 18.9375,44.95898c11.27638,12.18249 18.50707,24.67555 32.14649,30.76172c15.8365,7.06655 34.77806,6.2925 52.04883,4.16406c23.39136,-2.88273 53.45079,-6.63768 66.85938,-22.56641c10.99779,-13.06483 17.16606,-23.44735 20.46289,-32.16797c5.73986,-0.63992 11.74215,-1.31757 16.69531,-1.84375c3.74987,-0.39835 6.60999,-0.66813 9.85938,-0.99414c5.42945,13.7094 13.49169,21.01869 17.09375,33.10352c4.28204,14.36615 24.21848,20.38865 38.71094,20.65429c34.51892,0.63277 78.16436,-14.22365 92.40233,-45.8125c2.08494,-4.62563 1.78038,-9.44433 0.48831,-14.36133c0.9453,-0.06644 1.7379,-0.10795 2.85154,-0.1875c6.26147,-0.44724 15.6463,-0.89459 25.58986,-1.3418c-0.05904,0.49638 -0.16324,0.97683 -0.18557,1.48633c-1.05014,23.96601 -2.7586,45.81314 36.33789,62.58008c16.7331,7.17611 43.33323,7.92001 57.76759,4.66016c28.83504,-6.51203 30.89537,-30.43913 32.50783,-42.71289c2.37959,-18.11277 1.11791,-27.43787 8.0332,-36.72461c18.07499,-24.27332 26.02103,-32.44727 29.12111,-52.66211c2.35563,-15.36076 -4.59413,-27.45854 -28.50002,-36.27539c-5.80989,-2.14277 -12.06845,-4.21414 -18.46681,-6.16016c-1.66337,-6.48088 -3.23002,-12.76456 -4.05271,-17.51953c-0.02717,-0.15704 -0.04649,-0.27574 -0.07226,-0.42969c20.10777,5.03826 33.54195,1.58921 52.14259,-13.71484c16.67554,-13.72021 14.16401,-44.01928 9.15817,-57.65039c-5.67919,-15.46488 -15.4385,-23.49819 -26.88669,-31.39258c-10.92038,-7.53038 -26.36992,-8.38393 -38.49611,-14.28711c-11.59174,-5.643 -19.75381,-16.45806 -32.51562,-20.08399c-7.67301,-2.18008 -16.42998,-4.99829 -25.10744,-4.95703c-5.20645,0.02476 -10.3844,1.07866 -15.28123,3.91602zM477.61721,113.53906c-0.66387,0.87775 -1.39408,1.8101 -2.41406,2.9668c-4.81308,5.45811 -14.04321,14.28965 -23.29296,22.82422c-9.24983,8.53456 -18.51942,16.77102 -27.62891,23.79101c-9.05329,6.97661 -17.94176,12.74336 -25.7754,16.71094c-8.60406,-9.13681 -21.11121,-14.613 -34.23633,-17.62695c0.26773,-2.62095 0.62211,-5.31335 1.16992,-8.16015c1.07014,-5.56123 2.85858,-11.70151 4.41992,-16.77148c0.89412,-2.90337 1.66092,-5.43145 0.93945,-7.27344c34.7362,-10.43483 49.12316,-18.73088 55.86134,-43.67578c2.55594,-0.03099 5.15059,-0.30028 7.52927,-0.60938c6.21029,-0.80698 10.84203,-1.15834 15.85939,-1.22852c1.98134,-0.02771 3.96945,-0.11325 5.82032,-0.45312c5.45632,10.10307 13.49378,20.55243 21.74804,29.50586zM256.74024,118.57617c14.38918,13.11536 50.09433,20.1735 72.4375,20.39844c-0.0188,0.09005 -0.0153,0.15531 -0.03516,0.2461c-0.7368,3.36828 -2.21164,7.22868 -3.54492,11.22852c-1.25581,3.76743 -2.38379,7.58799 -3.50781,10.51953c-2.72871,0.63028 -5.42784,1.39829 -8.08984,2.32422c-0.13386,-0.03826 -0.22572,-0.08946 -0.36328,-0.12695c-3.79261,-1.03362 -8.87945,-1.84061 -15.03711,-3.20898c-6.15766,-1.36837 -13.38518,-3.29755 -21.4375,-5.5957c-8.05232,-2.29816 -16.92885,-4.96471 -28.2793,-8.82422c-11.35045,-3.85951 -25.1742,-8.91159 -35.13867,-12.56055c-9.96447,-3.64896 -16.06896,-5.89454 -20.2793,-7.85937c-0.56245,-0.26248 -1.03931,-0.47504 -1.54883,-0.71484c8.8684,-6.88603 20.35664,-17.44434 18.91016,-35.41992c0.41647,-0.10149 0.7938,-0.17995 1.23437,-0.28516c4.70162,-1.12277 10.94604,-2.17522 17.22657,-2.87695c5.6989,-0.63675 11.28022,-0.97452 15.80469,-1.26953c0.44789,13.78295 4.6198,27.61896 11.64844,34.02539zM514.39454,139.77539l6.22265,26.3125c-1.58937,-0.04306 -3.19026,-0.12566 -4.75389,-0.08398c-12.41144,0.33077 -23.92105,3.43735 -33.08398,11.01758c-15.77322,13.04861 -1.09164,41.1962 -8.57034,60.0293c-0.31487,0.79294 -0.69936,1.55771 -1.08786,2.32031c-0.90622,0.05442 -1.74119,0.0814 -2.82814,0.19726c-6.91208,0.73682 -17.24451,2.26289 -27.70896,3.3418c-10.46453,1.0789 -21.05998,1.70954 -29.58595,1.99023c-4.0783,0.13426 -7.60679,0.18124 -10.61133,0.19726c-0.74978,-9.1594 1.54647,-18.94729 3.3086,-28.50391c1.06602,-0.43726 2.13732,-0.89651 3.34178,-1.46093c6.16392,-2.88845 14.44006,-6.92473 26.4336,-15.29297c11.99354,-8.36824 27.70326,-21.06631 41.26564,-33.38867c11.17119,-10.14985 20.80176,-20.02941 30.2578,-29.87891c2.60323,1.13566 4.96547,2.1487 7.40039,3.20313zM166.62305,152.93945c8.03481,3.05253 20.80706,8.31614 35.1836,13.68555c14.37653,5.36941 30.35688,10.84581 42.26758,14.82422c11.91071,3.97841 19.75054,6.45843 25.7793,8.26953c2.48841,0.74755 4.69119,1.27948 6.98828,1.48828c-10.09288,17.04089 -15.00084,41.75532 -15.54492,60.52734l-24.125,2.57227c-4.09586,-8.08772 -8.37837,-15.52857 -5.89844,-25.81836c3.36757,-13.97276 -10.69696,-33.2974 -24.89258,-38.08594c-1.87971,-0.63408 -3.8876,-0.88545 -6,-0.82227c-14.44246,0.43194 -33.61154,15.47947 -48.98828,24.17578l-2.82813,-43.42774c3.87146,-4.39838 7.44929,-9.91379 10.65235,-17.10156c0.43011,-0.96519 0.93406,-1.81897 1.43555,-2.67969c1.51008,0.71537 3.48097,1.4467 5.9707,2.39258z" fill="#000000" stroke="none" stroke-width="0.91804" stroke-linejoin="miter"/><path d="M394.74896,263.01184c0,0 183.38212,79.73944 185.78397,39.51084c8.30409,-139.08524 160.71229,-104.30346 169.49289,-85.19079c14.20623,30.92252 40.96305,129.46823 31.66768,152.21514c-61.92727,27.2447 -158.09393,30.04802 -191.50287,22.33928c-22.00388,-5.07716 -199.76813,37.44106 -213.0086,0.61624c-8.94112,-24.86735 -23.66437,-141.08341 7.56244,-165.77276c35.28191,-27.89549 146.75465,-38.6374 196.2294,-17.33219c45.09333,19.41844 -36.05781,105.70338 0.70898,126.02428c59.10962,32.66972 172.16231,-106.82444 172.16231,-106.82444" fill="none" stroke="#c9893b" stroke-width="26.6" stroke-linejoin="round" visibility="hidden"/></g></g></svg>