<svg version="1.1" xmlns="http://www.w3.org/2000/svg" xmlns:xlink="http://www.w3.org/1999/xlink" width="244.14766" height="200.67251" viewBox="0,0,244.14766,200.67251"><g transform="translate(-197.99552,-79.66375)"><g data-paper-data="{&quot;isPaintingLayer&quot;:true}" fill-rule="nonzero" stroke-linecap="butt" stroke-linejoin="miter" stroke-miterlimit="10" stroke-dasharray="" stroke-dashoffset="0" style="mix-blend-mode: normal"><g><path d="M309.00448,235.06808c-0.36862,39.55889 -0.36862,39.55889 -0.36862,39.55889l-35.75635,-20.42794z" data-paper-data="{&quot;index&quot;:null}" fill="#9c0000" stroke="#d30000" stroke-width="0.27313"/><path d="M197.99552,278.33626v-49.67251h83.36239v49.67251z" data-paper-data="{&quot;index&quot;:null}" fill="#ff1515" stroke="none" stroke-width="0"/><g data-paper-data="{&quot;index&quot;:null}"><path d="M214.18464,260.61969c-4.45215,0 -8.06133,-3.60814 -8.06133,-8.05902c0,-4.45087 3.60918,-8.05902 8.06133,-8.05902c4.45215,0 8.06133,3.60814 8.06133,8.05902c0,4.45087 -3.60918,8.05902 -8.06133,8.05902z" fill="#000000" stroke="#000000" stroke-width="0.33116"/><path d="M210.72917,253.33536c-2.06206,0 -3.73368,-1.65547 -3.73368,-3.6976c0,-2.04213 1.67163,-3.6976 3.73368,-3.6976c2.06206,0 3.73368,1.65547 3.73368,3.6976c0,2.04213 -1.67163,3.6976 -3.73368,3.6976z" fill="#ffffff" stroke="#ffffff" stroke-width="0.15266"/></g><path d="M259.1929,237.71899c-0.25268,30.44914 -0.25268,30.44914 -0.25268,30.44914l-24.50983,-15.72374z" data-paper-data="{&quot;index&quot;:null}" fill="#9c0000" stroke="#d30000" stroke-width="0.1984"/></g><g><path d="M309.00448,153.06809c-0.36862,39.55889 -0.36862,39.55889 -0.36862,39.55889l-35.75635,-20.42794z" data-paper-data="{&quot;index&quot;:null}" fill="#9c0000" stroke="#d30000" stroke-width="0.27313"/><path d="M197.99552,196.33626v-49.67251h83.36239v49.67251z" data-paper-data="{&quot;index&quot;:null}" fill="#ff1515" stroke="none" stroke-width="0"/><g data-paper-data="{&quot;index&quot;:null}"><path d="M214.18464,178.61969c-4.45215,0 -8.06133,-3.60814 -8.06133,-8.05902c0,-4.45087 3.60918,-8.05902 8.06133,-8.05902c4.45215,0 8.06133,3.60814 8.06133,8.05902c0,4.45087 -3.60918,8.05902 -8.06133,8.05902z" fill="#000000" stroke="#000000" stroke-width="0.33116"/><path d="M210.72917,171.33536c-2.06206,0 -3.73368,-1.65547 -3.73368,-3.6976c0,-2.04213 1.67163,-3.6976 3.73368,-3.6976c2.06206,0 3.73368,1.65547 3.73368,3.6976c0,2.04213 -1.67163,3.6976 -3.73368,3.6976z" fill="#ffffff" stroke="#ffffff" stroke-width="0.15266"/></g><path d="M259.1929,155.71899c-0.25268,30.44914 -0.25268,30.44914 -0.25268,30.44914l-24.50983,-15.72374z" data-paper-data="{&quot;index&quot;:null}" fill="#9c0000" stroke="#d30000" stroke-width="0.1984"/></g><g><path d="M442.00448,237.06808c-0.36862,39.55889 -0.36862,39.55889 -0.36862,39.55889l-35.75635,-20.42794z" data-paper-data="{&quot;index&quot;:null}" fill="#9c0000" stroke="#d30000" stroke-width="0.27313"/><path d="M330.99552,280.33626v-49.67251h83.36239v49.67251z" data-paper-data="{&quot;index&quot;:null}" fill="#ff1515" stroke="none" stroke-width="0"/><g data-paper-data="{&quot;index&quot;:null}"><path d="M347.18464,262.61969c-4.45215,0 -8.06133,-3.60814 -8.06133,-8.05902c0,-4.45087 3.60918,-8.05902 8.06133,-8.05902c4.45215,0 8.06133,3.60814 8.06133,8.05902c0,4.45087 -3.60918,8.05902 -8.06133,8.05902z" fill="#000000" stroke="#000000" stroke-width="0.33116"/><path d="M343.72917,255.33536c-2.06206,0 -3.73368,-1.65547 -3.73368,-3.6976c0,-2.04213 1.67163,-3.6976 3.73368,-3.6976c2.06206,0 3.73368,1.65547 3.73368,3.6976c0,2.04213 -1.67163,3.6976 -3.73368,3.6976z" fill="#ffffff" stroke="#ffffff" stroke-width="0.15266"/></g><path d="M392.1929,239.71899c-0.25268,30.44914 -0.25268,30.44914 -0.25268,30.44914l-24.50983,-15.72374z" data-paper-data="{&quot;index&quot;:null}" fill="#9c0000" stroke="#d30000" stroke-width="0.1984"/></g><g><path d="M442.00448,155.06809c-0.36862,39.55889 -0.36862,39.55889 -0.36862,39.55889l-35.75635,-20.42794z" data-paper-data="{&quot;index&quot;:null}" fill="#9c0000" stroke="#d30000" stroke-width="0.27313"/><path d="M330.99552,198.33626v-49.67251h83.36239v49.67251z" data-paper-data="{&quot;index&quot;:null}" fill="#ff1515" stroke="none" stroke-width="0"/><g data-paper-data="{&quot;index&quot;:null}"><path d="M347.18464,180.61969c-4.45215,0 -8.06133,-3.60814 -8.06133,-8.05902c0,-4.45087 3.60918,-8.05902 8.06133,-8.05902c4.45215,0 8.06133,3.60814 8.06133,8.05902c0,4.45087 -3.60918,8.05902 -8.06133,8.05902z" fill="#000000" stroke="#000000" stroke-width="0.33116"/><path d="M343.72917,173.33536c-2.06206,0 -3.73368,-1.65547 -3.73368,-3.6976c0,-2.04213 1.67163,-3.6976 3.73368,-3.6976c2.06206,0 3.73368,1.65547 3.73368,3.6976c0,2.04213 -1.67163,3.6976 -3.73368,3.6976z" fill="#ffffff" stroke="#ffffff" stroke-width="0.15266"/></g><path d="M392.1929,157.71898c-0.25268,30.44914 -0.25268,30.44914 -0.25268,30.44914l-24.50983,-15.72374z" data-paper-data="{&quot;index&quot;:null}" fill="#9c0000" stroke="#d30000" stroke-width="0.1984"/></g><g><path d="M373.00448,86.06809c-0.36862,39.55889 -0.36862,39.55889 -0.36862,39.55889l-35.75635,-20.42794z" data-paper-data="{&quot;index&quot;:null}" fill="#9c0000" stroke="#d30000" stroke-width="0.27313"/><path d="M261.99552,129.33626v-49.67251h83.36239v49.67251z" data-paper-data="{&quot;index&quot;:null}" fill="#ff1515" stroke="none" stroke-width="0"/><g data-paper-data="{&quot;index&quot;:null}"><path d="M278.18464,111.61969c-4.45215,0 -8.06133,-3.60814 -8.06133,-8.05902c0,-4.45087 3.60918,-8.05902 8.06133,-8.05902c4.45215,0 8.06133,3.60814 8.06133,8.05902c0,4.45087 -3.60918,8.05902 -8.06133,8.05902z" fill="#000000" stroke="#000000" stroke-width="0.33116"/><path d="M274.72917,104.33536c-2.06206,0 -3.73368,-1.65547 -3.73368,-3.6976c0,-2.04213 1.67163,-3.6976 3.73368,-3.6976c2.06206,0 3.73368,1.65547 3.73368,3.6976c0,2.04213 -1.67163,3.6976 -3.73368,3.6976z" fill="#ffffff" stroke="#ffffff" stroke-width="0.15266"/></g><path d="M323.1929,88.71899c-0.25268,30.44914 -0.25268,30.44914 -0.25268,30.44914l-24.50983,-15.72374z" data-paper-data="{&quot;index&quot;:null}" fill="#9c0000" stroke="#d30000" stroke-width="0.1984"/></g></g></g></svg>