<svg version="1.1" xmlns="http://www.w3.org/2000/svg" xmlns:xlink="http://www.w3.org/1999/xlink" width="604.59797" height="329.28388" viewBox="0,0,604.59797,329.28388"><g transform="translate(-17.70102,-18.35806)"><g data-paper-data="{&quot;isPaintingLayer&quot;:true}" fill-rule="nonzero" stroke-linecap="butt" stroke-linejoin="miter" stroke-miterlimit="10" stroke-dasharray="" stroke-dashoffset="0" style="mix-blend-mode: normal"><path d="M25.20102,340.14194v-314.28388h589.59797v314.28388z" fill="none" stroke="#4a2e1d" stroke-width="15"/><path d="M66.0075,78v-57h15.98198v57z" fill="#4a2e1d" stroke="#4a2e1d" stroke-width="0"/><path d="M66.0075,160.5v-47h15.98198v47z" fill="#4a2e1d" stroke="#4a2e1d" stroke-width="0"/><path d="M110.00751,213v-54h15.98198v54z" fill="#4a2e1d" stroke="#4a2e1d" stroke-width="0"/><path d="M19.99999,123.62087v-16h62.5v16z" fill="#4a2e1d" stroke="none" stroke-width="0"/><path d="M66,168.12087v-16h59.5v16z" fill="#4a2e1d" stroke="none" stroke-width="0"/><path d="M110,212.62087v-16h106v16z" fill="#4a2e1d" stroke="none" stroke-width="0"/><path d="M154.50751,168v-97h15.98198v97z" fill="#4a2e1d" stroke="#4a2e1d" stroke-width="0"/><path d="M66.5,81.12087v-16h104v16z" fill="#4a2e1d" stroke="none" stroke-width="0"/><path d="M242,300.12087v-16h106.5v16z" fill="#4a2e1d" stroke="none" stroke-width="0"/><path d="M199.50751,212v-57h15.98198v57z" fill="#4a2e1d" stroke="#4a2e1d" stroke-width="0"/><path d="M111.00751,124.5v-59h15.98198v59z" fill="#4a2e1d" stroke="#4a2e1d" stroke-width="0"/><path d="M155,123.62087v-16h52v16z" fill="#4a2e1d" stroke="none" stroke-width="0"/><path d="M252,123.62087v-16h55.5v16z" fill="#4a2e1d" stroke="none" stroke-width="0"/><path d="M198.5,80.62087v-16h53v16z" fill="#4a2e1d" stroke="none" stroke-width="0"/><path d="M198.00751,80.5v-55.5h15.98198v55.5z" fill="#4a2e1d" stroke="#4a2e1d" stroke-width="0"/><path d="M199.5,170.62087v-16h59v16z" fill="#4a2e1d" stroke="none" stroke-width="0"/><path d="M242.50751,213.5v-57h15.98198v57z" fill="#4a2e1d" stroke="#4a2e1d" stroke-width="0"/><path d="M242.5,213.12087v-16h59v16z" fill="#4a2e1d" stroke="none" stroke-width="0"/><path d="M66.0075,249.5v-47h15.98198v47z" fill="#4a2e1d" stroke="#4a2e1d" stroke-width="0"/><path d="M29,257.12087v-16h96.5v16z" fill="#4a2e1d" stroke="none" stroke-width="0"/><path d="M242.50751,300v-57h15.98198v57z" fill="#4a2e1d" stroke="#4a2e1d" stroke-width="0"/><path d="M154.50751,300.5v-97h15.98198v97z" fill="#4a2e1d" stroke="#4a2e1d" stroke-width="0"/><g fill="#4a2e1d" stroke-width="0"><path d="M199.50751,298.5v-57h15.98198v57z" stroke="#4a2e1d"/><path d="M199.5,257.12087v-16h59v16z" stroke="none"/></g><path d="M67.0075,342.5v-57h15.98198v57z" fill="#4a2e1d" stroke="#4a2e1d" stroke-width="0"/><path d="M67,301.12087v-16h59v16z" fill="#4a2e1d" stroke="none" stroke-width="0"/><path d="M287.5075,252v-54.5h15.98198v54.5z" fill="#4a2e1d" stroke="#4a2e1d" stroke-width="0"/><path d="M332.01802,252v-136.5h15.98198v136.5z" data-paper-data="{&quot;index&quot;:null}" fill="#4a2e1d" stroke="#4a2e1d" stroke-width="0"/><path d="M331.5075,80v-59.5h15.98198v59.5z" fill="#4a2e1d" stroke="#4a2e1d" stroke-width="0"/><path d="M557.51051,78v-57h15.98198v57z" data-paper-data="{&quot;index&quot;:null}" fill="#4a2e1d" stroke="#4a2e1d" stroke-width="0"/><path d="M557.51051,160.5v-47h15.98198v47z" data-paper-data="{&quot;index&quot;:null}" fill="#4a2e1d" stroke="#4a2e1d" stroke-width="0"/><path d="M513.51051,213v-54h15.98198v54z" data-paper-data="{&quot;index&quot;:null}" fill="#4a2e1d" stroke="#4a2e1d" stroke-width="0"/><path d="M557,123.62087v-16h62.5v16z" data-paper-data="{&quot;index&quot;:null}" fill="#4a2e1d" stroke="none" stroke-width="0"/><path d="M514,168.12087v-16h59.5v16z" data-paper-data="{&quot;index&quot;:null}" fill="#4a2e1d" stroke="none" stroke-width="0"/><path d="M423.5,212.62087v-16h106v16z" data-paper-data="{&quot;index&quot;:null}" fill="#4a2e1d" stroke="none" stroke-width="0"/><path d="M469.01051,168v-97h15.98198v97z" data-paper-data="{&quot;index&quot;:null}" fill="#4a2e1d" stroke="#4a2e1d" stroke-width="0"/><path d="M469,81.12087v-16h104v16z" data-paper-data="{&quot;index&quot;:null}" fill="#4a2e1d" stroke="none" stroke-width="0"/><path d="M291,300.12087v-16h106.5v16z" data-paper-data="{&quot;index&quot;:null}" fill="#4a2e1d" stroke="none" stroke-width="0"/><path d="M424.01051,212v-57h15.98198v57z" data-paper-data="{&quot;index&quot;:null}" fill="#4a2e1d" stroke="#4a2e1d" stroke-width="0"/><path d="M512.51051,124.5v-59h15.98198v59z" data-paper-data="{&quot;index&quot;:null}" fill="#4a2e1d" stroke="#4a2e1d" stroke-width="0"/><path d="M430.5,123.62087v-16h54v16z" data-paper-data="{&quot;index&quot;:null}" fill="#4a2e1d" stroke="none" stroke-width="0"/><path d="M332.5,123.62087v-16h56.5v16z" data-paper-data="{&quot;index&quot;:null}" fill="#4a2e1d" stroke="none" stroke-width="0"/><path d="M387.49999,80.62087v-16h53.5v16z" data-paper-data="{&quot;index&quot;:null}" fill="#4a2e1d" stroke="none" stroke-width="0"/><path d="M425.51051,80.5v-55.5h15.98198v55.5z" data-paper-data="{&quot;index&quot;:null}" fill="#4a2e1d" stroke="#4a2e1d" stroke-width="0"/><path d="M381,170.62087v-16h59v16z" data-paper-data="{&quot;index&quot;:null}" fill="#4a2e1d" stroke="none" stroke-width="0"/><path d="M381.01051,213.5v-57h15.98198v57z" data-paper-data="{&quot;index&quot;:null}" fill="#4a2e1d" stroke="#4a2e1d" stroke-width="0"/><path d="M338,213.12087v-16h59v16z" data-paper-data="{&quot;index&quot;:null}" fill="#4a2e1d" stroke="none" stroke-width="0"/><path d="M557.51051,249.5v-47h15.98198v47z" data-paper-data="{&quot;index&quot;:null}" fill="#4a2e1d" stroke="#4a2e1d" stroke-width="0"/><path d="M514,257.12087v-16h96.5v16z" data-paper-data="{&quot;index&quot;:null}" fill="#4a2e1d" stroke="none" stroke-width="0"/><path d="M381.01051,300v-57h15.98198v57z" data-paper-data="{&quot;index&quot;:null}" fill="#4a2e1d" stroke="#4a2e1d" stroke-width="0"/><path d="M469.01051,300.5v-97h15.98198v97z" data-paper-data="{&quot;index&quot;:null}" fill="#4a2e1d" stroke="#4a2e1d" stroke-width="0"/><g data-paper-data="{&quot;index&quot;:null}" fill="#4a2e1d" stroke-width="0"><path d="M424.01051,298.5v-57h15.98198v57z" stroke="#4a2e1d"/><path d="M381,257.12087v-16h59v16z" stroke="none"/></g><path d="M556.51051,342.5v-57h15.98198v57z" data-paper-data="{&quot;index&quot;:null}" fill="#4a2e1d" stroke="#4a2e1d" stroke-width="0"/><path d="M513.5,301.12087v-16h59v16z" data-paper-data="{&quot;index&quot;:null}" fill="#4a2e1d" stroke="none" stroke-width="0"/><path d="M336.01051,252v-54.5h15.98198v54.5z" data-paper-data="{&quot;index&quot;:null}" fill="#4a2e1d" stroke="#4a2e1d" stroke-width="0"/><path d="M291.5,252v-136.5h15.98198v136.5z" data-paper-data="{&quot;index&quot;:null}" fill="#4a2e1d" stroke="#4a2e1d" stroke-width="0"/><path d="M292.01051,80v-59.5h15.98198v59.5z" data-paper-data="{&quot;index&quot;:null}" fill="#4a2e1d" stroke="#4a2e1d" stroke-width="0"/></g></g></svg>