<svg version="1.1" xmlns="http://www.w3.org/2000/svg" xmlns:xlink="http://www.w3.org/1999/xlink" width="60.00016" height="60" viewBox="0,0,60.00016,60"><g transform="translate(-239.99984,-150)"><g data-paper-data="{&quot;isPaintingLayer&quot;:true}" fill-rule="nonzero" stroke-linecap="butt" stroke-linejoin="miter" stroke-miterlimit="10" stroke-dasharray="" stroke-dashoffset="0" style="mix-blend-mode: normal"><path d="M300,150v60h-60.00015v-18.0593c1.74077,0.89953 3.67646,1.37424 5.64344,1.38402c6.76737,0.00004 12.25345,-5.38798 12.2535,-12.03449c0.00008,-3.19183 -1.29088,-6.25297 -3.58887,-8.50996c-2.29799,-2.25699 -5.41476,-3.52495 -8.66464,-3.52493c-1.96702,0.0099 -3.9027,0.48475 -5.64344,1.38441v-20.63975z" fill="#348bbd" stroke="none" stroke-width="0.11881"/><g fill="#f5de24" stroke="#f5de24"><path d="M265.53313,168.03957c0,-3.31037 2.52841,-5.99395 5.64736,-5.99395c3.11895,0 5.64736,2.68358 5.64736,5.99395c0,3.31037 -2.52841,5.99395 -5.64736,5.99395c-3.11895,0 -5.64736,-2.68358 -5.64736,-5.99395z" stroke-width="0.25691"/><path d="M270.66163,160.59484c-0.24521,-1.1087 -0.19459,-2.38676 -0.18623,-3.16213c0.00353,-0.32723 1.0066,-0.3397 1.1174,-0.02726c0.2962,0.83523 0.42789,2.22255 0.27935,3.24391c-0.05119,0.35198 -1.18561,0.05807 -1.21051,-0.05452z" stroke-width="0.24673"/><path d="M275.14716,157.39741c0.16291,-0.33938 1.07115,0.08514 1.01828,0.45898c-0.14133,0.99937 -0.70014,2.50219 -1.33232,3.5015c-0.21787,0.34438 -1.09467,-0.45663 -1.0621,-0.5848c0.32069,-1.26205 0.99013,-2.57151 1.37615,-3.37569z" stroke-width="0.26458"/><path d="M278.64171,161.70293c0.23096,-0.1105 0.50501,0.59526 0.31469,0.78158c-0.50879,0.49808 -1.44918,1.07034 -2.20643,1.31786c-0.26096,0.0853 -0.35439,-0.81923 -0.28183,-0.87574c0.71451,-0.55642 1.62631,-0.96189 2.17357,-1.22371z" stroke-width="0.18935"/><path d="M281.64791,166.77881c0.35551,-0.00522 0.2977,0.99089 -0.04987,1.10929c-0.92914,0.31651 -2.4468,0.48433 -3.54666,0.36401c-0.37903,-0.04147 0.02122,-1.17623 0.14541,-1.20397c1.22283,-0.27316 2.60873,-0.25695 3.45112,-0.26932z" stroke-width="0.25619"/><path d="M280.77665,172.76282c0.27754,0.1817 -0.26024,0.93748 -0.58766,0.84923c-0.87528,-0.2359 -2.13213,-0.89676 -2.92321,-1.56658c-0.27262,-0.23084 0.59864,-0.91702 0.70841,-0.874c1.08096,0.42362 2.14481,1.16082 2.80245,1.59136z" stroke-width="0.23882"/><path d="M268.81317,160.81568c0.05112,0.12173 -0.69744,1.04767 -0.96369,0.74049c-0.77258,-0.89135 -1.54696,-2.2917 -1.83426,-3.25813c-0.10748,-0.36152 0.72776,-0.92004 0.93894,-0.6094c0.50039,0.73604 1.3556,1.92833 1.85901,3.12704z" stroke-width="0.26458"/><path d="M265.89577,163.03377c0.08291,0.07474 -0.09906,1.14504 -0.40634,1.01701c-0.89163,-0.37151 -1.97852,-1.14904 -2.55206,-1.79467c-0.21455,-0.24151 0.16936,-1.05641 0.43861,-0.90132c0.63799,0.36748 1.70334,0.94306 2.51979,1.67898z" stroke-width="0.22747"/><path d="M264.41632,167.22376c0.35551,-0.00522 0.2977,0.99089 -0.04987,1.10929c-0.92914,0.31651 -2.4468,0.48433 -3.54666,0.36401c-0.37903,-0.04147 0.02122,-1.17623 0.14541,-1.20397c1.22283,-0.27316 2.60873,-0.25695 3.45112,-0.26932z" stroke-width="0.25619"/><path d="M265.08609,171.44467c0.28159,-0.16754 0.7015,0.61513 0.47921,0.86491c-0.59423,0.66773 -1.72824,1.49339 -2.66326,1.90811c-0.32223,0.14292 -0.53342,-0.90254 -0.44719,-0.98073c0.84916,-0.76996 1.96401,-1.39531 2.63124,-1.79229z" stroke-width="0.23223"/><path d="M267.33173,174.0068c0.22793,-0.29057 0.9593,0.41297 0.82394,0.77176c-0.36185,0.95913 -1.22252,2.29553 -2.03304,3.10448c-0.27932,0.27878 -0.89432,-0.79277 -0.83471,-0.91135c0.58695,-1.16774 1.50373,-2.27637 2.04381,-2.96489z" stroke-width="0.26299"/><path d="M270.92493,175.62807c0.02486,-0.1203 1.1574,-0.43435 1.2085,-0.05825c0.14829,1.09133 0.01682,2.57369 -0.27889,3.46614c-0.11062,0.33384 -1.11202,0.32052 -1.11554,-0.02913c-0.00834,-0.82849 -0.05888,-2.1941 0.18592,-3.37876z" stroke-width="0.25483"/><path d="M277.69022,176.83713c0.06947,0.11193 -0.52507,1.14705 -0.83588,0.88678c-0.9019,-0.75522 -1.88503,-2.0127 -2.31954,-2.92046c-0.16254,-0.33957 0.57492,-1.02594 0.83191,-0.75336c0.60893,0.64587 1.63938,1.68486 2.32351,2.78703z" stroke-width="0.26458"/></g><g fill="#f5de24" stroke="#f5de24"><path d="M277.69173,191.53201c0,-3.31037 2.52841,-5.99395 5.64736,-5.99395c3.11895,0 5.64736,2.68358 5.64736,5.99395c0,3.31037 -2.52841,5.99395 -5.64736,5.99395c-3.11895,0 -5.64736,-2.68358 -5.64736,-5.99395z" stroke-width="0.25691"/><path d="M282.82023,184.08727c-0.24521,-1.1087 -0.19459,-2.38676 -0.18623,-3.16213c0.00353,-0.32723 1.0066,-0.3397 1.1174,-0.02726c0.2962,0.83523 0.42789,2.22255 0.27935,3.24391c-0.05119,0.35198 -1.18561,0.05807 -1.21051,-0.05452z" stroke-width="0.24673"/><path d="M287.30576,180.88985c0.16291,-0.33938 1.07115,0.08514 1.01828,0.45898c-0.14133,0.99937 -0.70014,2.50219 -1.33232,3.5015c-0.21787,0.34438 -1.09467,-0.45663 -1.0621,-0.5848c0.32069,-1.26205 0.99013,-2.57151 1.37615,-3.37569z" stroke-width="0.26458"/><path d="M290.80031,185.19537c0.23096,-0.1105 0.50501,0.59526 0.31469,0.78158c-0.50879,0.49808 -1.44918,1.07034 -2.20643,1.31786c-0.26096,0.0853 -0.35439,-0.81923 -0.28183,-0.87574c0.71451,-0.55642 1.62631,-0.96189 2.17357,-1.22371z" stroke-width="0.18935"/><path d="M293.80651,190.27125c0.35551,-0.00522 0.2977,0.99089 -0.04987,1.10929c-0.92914,0.31651 -2.4468,0.48433 -3.54666,0.36401c-0.37903,-0.04147 0.02122,-1.17623 0.14541,-1.20397c1.22283,-0.27316 2.60873,-0.25695 3.45112,-0.26932z" stroke-width="0.25619"/><path d="M292.93525,196.25526c0.27754,0.1817 -0.26024,0.93748 -0.58766,0.84923c-0.87528,-0.2359 -2.13213,-0.89676 -2.92321,-1.56658c-0.27262,-0.23084 0.59864,-0.91702 0.70841,-0.874c1.08096,0.42362 2.14481,1.16082 2.80245,1.59136z" stroke-width="0.23882"/><path d="M280.97177,184.30811c0.05112,0.12173 -0.69744,1.04767 -0.96369,0.74049c-0.77258,-0.89135 -1.54696,-2.2917 -1.83426,-3.25813c-0.10748,-0.36152 0.72776,-0.92004 0.93894,-0.6094c0.50039,0.73604 1.3556,1.92833 1.85901,3.12704z" stroke-width="0.26458"/><path d="M278.05437,186.52621c0.08291,0.07474 -0.09906,1.14504 -0.40634,1.01701c-0.89163,-0.37151 -1.97852,-1.14904 -2.55206,-1.79467c-0.21455,-0.24151 0.16936,-1.05641 0.43861,-0.90132c0.63799,0.36748 1.70334,0.94306 2.51979,1.67898z" stroke-width="0.22747"/><path d="M276.57492,190.7162c0.35551,-0.00522 0.2977,0.99089 -0.04987,1.10929c-0.92914,0.31651 -2.4468,0.48433 -3.54666,0.36401c-0.37903,-0.04147 0.02122,-1.17623 0.14541,-1.20397c1.22283,-0.27316 2.60873,-0.25695 3.45112,-0.26932z" stroke-width="0.25619"/><path d="M277.24469,194.93711c0.28159,-0.16754 0.7015,0.61513 0.47921,0.86491c-0.59423,0.66773 -1.72824,1.49339 -2.66326,1.90811c-0.32223,0.14292 -0.53342,-0.90254 -0.44719,-0.98073c0.84916,-0.76996 1.96401,-1.39531 2.63124,-1.79229z" stroke-width="0.23223"/><path d="M279.49033,197.49923c0.22793,-0.29057 0.9593,0.41297 0.82394,0.77176c-0.36185,0.95913 -1.22252,2.29553 -2.03304,3.10448c-0.27932,0.27878 -0.89432,-0.79277 -0.83471,-0.91135c0.58695,-1.16774 1.50373,-2.27637 2.04381,-2.96489z" stroke-width="0.26299"/><path d="M283.08353,199.12051c0.02486,-0.1203 1.1574,-0.43435 1.2085,-0.05825c0.14829,1.09133 0.01682,2.57369 -0.27889,3.46614c-0.11062,0.33384 -1.11202,0.32052 -1.11554,-0.02913c-0.00834,-0.82849 -0.05888,-2.1941 0.18592,-3.37876z" stroke-width="0.25483"/><path d="M289.84882,200.32957c0.06947,0.11193 -0.52507,1.14705 -0.83588,0.88678c-0.9019,-0.75522 -1.88503,-2.0127 -2.31954,-2.92046c-0.16254,-0.33957 0.57492,-1.02594 0.83191,-0.75336c0.60893,0.64587 1.63938,1.68486 2.32351,2.78703z" stroke-width="0.26458"/></g></g></g></svg>