<svg version="1.1" xmlns="http://www.w3.org/2000/svg" xmlns:xlink="http://www.w3.org/1999/xlink" width="251.25669" height="297.73512" viewBox="0,0,251.25669,297.73512"><g transform="translate(-194.37166,-31.00745)"><g data-paper-data="{&quot;isPaintingLayer&quot;:true}" fill-rule="nonzero" stroke-miterlimit="10" stroke-dasharray="" stroke-dashoffset="0" style="mix-blend-mode: normal"><path d="M290.4804,326.47621c-26.05933,-6.05225 -55.55289,-69.8232 -28.83072,-71.10526c59.376,-2.84872 66.16545,-10.19321 68.73248,13.54022c1.89263,17.49832 -19.44615,62.31585 -39.90177,57.56504z" fill="#5a6d28" stroke="#1ce652" stroke-width="0" stroke-linecap="round" stroke-linejoin="bevel"/><path d="M396.95873,47.56681c42.88523,27.90476 53.45902,91.3476 46.40965,138.93227c-7.04937,47.58467 -31.72208,79.30671 -80.18755,92.81854c-48.46546,13.51183 -120.72124,8.81227 -151.26962,-34.95417c-30.54838,-43.76642 -19.38691,-126.59622 23.79118,-171.83042c43.17809,-45.23419 118.37111,-52.871 161.25634,-24.96622z" fill="#dcff82" stroke="#1ce652" stroke-width="0.5" stroke-linecap="round" stroke-linejoin="bevel"/><path d="M355.95454,328.39209c-26.05933,-6.05225 -55.55288,-69.82321 -28.83071,-71.10526c59.376,-2.84872 66.16545,-10.19321 68.73248,13.54021c1.89263,17.49832 -19.44615,62.31586 -39.90177,57.56505z" fill="#8caa3f" stroke="#1ce652" stroke-width="0" stroke-linecap="round" stroke-linejoin="bevel"/><path d="M279.50234,111.43376c1.71979,-19.14188 27.10959,-27.53814 44.11175,-29.36335c11.189,-1.20114 25.33654,2.39924 31.74711,12.7994c9.59567,15.56755 10.99382,45.3451 -0.66834,56.85226c-4.1545,4.0993 8.82916,11.57828 12.30194,19.27139c4.6898,10.38909 1.72119,24.91798 -1.94238,33.80068c-6.74264,16.34823 -26.15026,27.33965 -42.10666,25.97526c-18.58282,-1.58896 -43.36086,-17.28263 -44.42219,-38.2423c-0.40512,-8.00018 8.2999,-15.81504 15.37227,-16.67419c11.17431,-1.35744 17.67295,22.92219 28.71573,19.90633c8.8619,-2.42025 13.6423,-24.92256 7.68616,-25.22234c-8.02238,-0.40378 -21.37371,-0.8769 -26.26179,-9.66969c-2.30978,-4.15486 -0.7385,-10.56449 1.76877,-14.57141c5.16517,-8.25452 20.14288,-4.77163 23.87216,-13.95553c2.02624,-4.9899 1.08035,-13.83148 -3.38928,-16.01264c-9.0649,-4.42361 -15.91067,17.76512 -25.73187,16.56394c-9.40857,-1.1507 -22.0063,-10.85101 -21.05334,-21.45782z" fill="#ff950b" stroke="#ffffff" stroke-width="7.5" stroke-linecap="butt" stroke-linejoin="miter"/></g></g></svg>