<svg version="1.1" xmlns="http://www.w3.org/2000/svg" xmlns:xlink="http://www.w3.org/1999/xlink" width="111.14766" height="131.67251" viewBox="0,0,111.14766,131.67251"><g transform="translate(-264.49552,-114.16374)"><g data-paper-data="{&quot;isPaintingLayer&quot;:true}" fill-rule="nonzero" stroke-linecap="butt" stroke-linejoin="miter" stroke-miterlimit="10" stroke-dasharray="" stroke-dashoffset="0" style="mix-blend-mode: normal"><g><path d="M375.50448,202.56808c-0.36862,39.55889 -0.36862,39.55889 -0.36862,39.55889l-35.75635,-20.42794z" data-paper-data="{&quot;index&quot;:null}" fill="#9c0000" stroke="#d30000" stroke-width="0.27313"/><path d="M264.49552,245.83626v-49.67251h83.36239v49.67251z" data-paper-data="{&quot;index&quot;:null}" fill="#ff1515" stroke="none" stroke-width="0"/><g data-paper-data="{&quot;index&quot;:null}"><path d="M280.68465,228.11969c-4.45215,0 -8.06133,-3.60814 -8.06133,-8.05902c0,-4.45087 3.60918,-8.05902 8.06133,-8.05902c4.45215,0 8.06133,3.60814 8.06133,8.05902c0,4.45087 -3.60918,8.05902 -8.06133,8.05902z" fill="#000000" stroke="#000000" stroke-width="0.33116"/><path d="M277.22918,220.83536c-2.06206,0 -3.73368,-1.65547 -3.73368,-3.6976c0,-2.04213 1.67163,-3.6976 3.73368,-3.6976c2.06206,0 3.73368,1.65547 3.73368,3.6976c0,2.04213 -1.67163,3.6976 -3.73368,3.6976z" fill="#ffffff" stroke="#ffffff" stroke-width="0.15266"/></g><path d="M325.6929,205.21898c-0.25268,30.44914 -0.25268,30.44914 -0.25268,30.44914l-24.50983,-15.72374z" data-paper-data="{&quot;index&quot;:null}" fill="#9c0000" stroke="#d30000" stroke-width="0.1984"/></g><g><path d="M375.50448,120.56809c-0.36862,39.55889 -0.36862,39.55889 -0.36862,39.55889l-35.75635,-20.42794z" data-paper-data="{&quot;index&quot;:null}" fill="#9c0000" stroke="#d30000" stroke-width="0.27313"/><path d="M264.49552,163.83626v-49.67251h83.36239v49.67251z" data-paper-data="{&quot;index&quot;:null}" fill="#ff1515" stroke="none" stroke-width="0"/><g data-paper-data="{&quot;index&quot;:null}"><path d="M280.68465,146.11969c-4.45215,0 -8.06133,-3.60814 -8.06133,-8.05902c0,-4.45087 3.60918,-8.05902 8.06133,-8.05902c4.45215,0 8.06133,3.60814 8.06133,8.05902c0,4.45087 -3.60918,8.05902 -8.06133,8.05902z" fill="#000000" stroke="#000000" stroke-width="0.33116"/><path d="M277.22918,138.83536c-2.06206,0 -3.73368,-1.65547 -3.73368,-3.6976c0,-2.04213 1.67163,-3.6976 3.73368,-3.6976c2.06206,0 3.73368,1.65547 3.73368,3.6976c0,2.04213 -1.67163,3.6976 -3.73368,3.6976z" fill="#ffffff" stroke="#ffffff" stroke-width="0.15266"/></g><path d="M325.6929,123.21898c-0.25268,30.44914 -0.25268,30.44914 -0.25268,30.44914l-24.50983,-15.72374z" data-paper-data="{&quot;index&quot;:null}" fill="#9c0000" stroke="#d30000" stroke-width="0.1984"/></g></g></g></svg>