<svg version="1.1" xmlns="http://www.w3.org/2000/svg" xmlns:xlink="http://www.w3.org/1999/xlink" width="328.93324" height="259.9341" viewBox="0,0,328.93324,259.9341"><g transform="translate(-155.53338,-50.03295)"><g data-paper-data="{&quot;isPaintingLayer&quot;:true}" fill-rule="nonzero" stroke-linecap="butt" stroke-linejoin="miter" stroke-miterlimit="10" stroke-dasharray="" stroke-dashoffset="0" style="mix-blend-mode: normal"><g><path d="M325.87028,275.16918l43.53789,-24.37495c0,0 0,0 0.44884,47.20231z" data-paper-data="{&quot;index&quot;:null}" fill="#33a719" stroke="none" stroke-width="0"/><path d="M307.94237,229.03895c21.76498,0 39.40899,17.89252 39.40899,39.96406c0,22.07154 -17.64402,39.96404 -39.40899,39.96404c-21.76498,0 -39.40899,-17.89251 -39.40899,-39.96404c0,-22.07154 17.64402,-39.96406 39.40899,-39.96406z" data-paper-data="{&quot;index&quot;:null}" fill="#44e022" stroke="none" stroke-width="0"/><path d="M302.38316,274.80646l28.15754,-14.47509c0,0 0,0 0.29028,28.03113z" data-paper-data="{&quot;index&quot;:null}" fill="#33a719" stroke="none" stroke-width="0"/><g data-paper-data="{&quot;index&quot;:null}"><path d="M286.35096,277.87296c-4.33164,0 -7.84312,-3.58282 -7.84312,-8.00246c0,-4.41964 3.51147,-8.00246 7.84312,-8.00246c4.33163,0 7.84314,3.58282 7.84314,8.00246c0,4.41964 -3.51148,8.00246 -7.84314,8.00246z" fill="#000000" stroke="#000000" stroke-width="0.33116"/><path d="M282.98902,270.63976c-2.00625,0 -3.63263,-1.64385 -3.63263,-3.67164c0,-2.0278 1.62639,-3.67166 3.63263,-3.67166c2.00625,0 3.63263,1.64387 3.63263,3.67166c0,2.0278 -1.62639,3.67164 -3.63263,3.67164z" fill="#ffffff" stroke="#ffffff" stroke-width="0.15266"/></g></g><g><path d="M440.47989,274.16318l43.53789,-24.37495c0,0 0,0 0.44884,47.20231z" data-paper-data="{&quot;index&quot;:null}" fill="#33a719" stroke="none" stroke-width="0"/><path d="M422.55198,228.03295c21.76498,0 39.40899,17.89252 39.40899,39.96406c0,22.07154 -17.64402,39.96404 -39.40899,39.96404c-21.76498,0 -39.40899,-17.89251 -39.40899,-39.96404c0,-22.07154 17.64402,-39.96406 39.40899,-39.96406z" data-paper-data="{&quot;index&quot;:null}" fill="#44e022" stroke="none" stroke-width="0"/><path d="M416.99277,273.80046l28.15754,-14.47509c0,0 0,0 0.29028,28.03113z" data-paper-data="{&quot;index&quot;:null}" fill="#33a719" stroke="none" stroke-width="0"/><g data-paper-data="{&quot;index&quot;:null}"><path d="M400.96057,276.86696c-4.33164,0 -7.84312,-3.58282 -7.84312,-8.00246c0,-4.41964 3.51147,-8.00246 7.84312,-8.00246c4.33163,0 7.84314,3.58282 7.84314,8.00246c0,4.41964 -3.51148,8.00246 -7.84314,8.00246z" fill="#000000" stroke="#000000" stroke-width="0.33116"/><path d="M397.59863,269.63376c-2.00625,0 -3.63263,-1.64385 -3.63263,-3.67164c0,-2.0278 1.62639,-3.67166 3.63263,-3.67166c2.00625,0 3.63263,1.64387 3.63263,3.67166c0,2.0278 -1.62639,3.67164 -3.63263,3.67164z" fill="#ffffff" stroke="#ffffff" stroke-width="0.15266"/></g></g><g><path d="M215.87028,276.16918l43.53789,-24.37495c0,0 0,0 0.44884,47.20231z" data-paper-data="{&quot;index&quot;:null}" fill="#33a719" stroke="none" stroke-width="0"/><path d="M197.94237,230.03895c21.76498,0 39.40899,17.89252 39.40899,39.96406c0,22.07154 -17.64402,39.96404 -39.40899,39.96404c-21.76498,0 -39.40899,-17.89251 -39.40899,-39.96404c0,-22.07154 17.64402,-39.96406 39.40899,-39.96406z" data-paper-data="{&quot;index&quot;:null}" fill="#44e022" stroke="none" stroke-width="0"/><path d="M192.38316,275.80646l28.15754,-14.47509c0,0 0,0 0.29028,28.03113z" data-paper-data="{&quot;index&quot;:null}" fill="#33a719" stroke="none" stroke-width="0"/><g data-paper-data="{&quot;index&quot;:null}"><path d="M176.35096,278.87296c-4.33164,0 -7.84312,-3.58282 -7.84312,-8.00246c0,-4.41964 3.51147,-8.00246 7.84312,-8.00246c4.33163,0 7.84314,3.58282 7.84314,8.00246c0,4.41964 -3.51148,8.00246 -7.84314,8.00246z" fill="#000000" stroke="#000000" stroke-width="0.33116"/><path d="M172.98902,271.63976c-2.00625,0 -3.63263,-1.64385 -3.63263,-3.67164c0,-2.0278 1.62639,-3.67166 3.63263,-3.67166c2.00625,0 3.63263,1.64387 3.63263,3.67166c0,2.0278 -1.62639,3.67164 -3.63263,3.67164z" fill="#ffffff" stroke="#ffffff" stroke-width="0.15266"/></g></g><g><path d="M322.87028,97.16918l43.53789,-24.37495c0,0 0,0 0.44884,47.20231z" data-paper-data="{&quot;index&quot;:null}" fill="#33a719" stroke="none" stroke-width="0"/><path d="M304.94237,51.03895c21.76498,0 39.40899,17.89252 39.40899,39.96406c0,22.07154 -17.64402,39.96404 -39.40899,39.96404c-21.76498,0 -39.40899,-17.89251 -39.40899,-39.96404c0,-22.07154 17.64402,-39.96406 39.40899,-39.96406z" data-paper-data="{&quot;index&quot;:null}" fill="#44e022" stroke="none" stroke-width="0"/><path d="M299.38316,96.80646l28.15754,-14.47509c0,0 0,0 0.29028,28.03113z" data-paper-data="{&quot;index&quot;:null}" fill="#33a719" stroke="none" stroke-width="0"/><g data-paper-data="{&quot;index&quot;:null}"><path d="M283.35096,99.87296c-4.33164,0 -7.84312,-3.58282 -7.84312,-8.00246c0,-4.41964 3.51147,-8.00246 7.84312,-8.00246c4.33163,0 7.84314,3.58282 7.84314,8.00246c0,4.41964 -3.51148,8.00246 -7.84314,8.00246z" fill="#000000" stroke="#000000" stroke-width="0.33116"/><path d="M279.98902,92.63976c-2.00625,0 -3.63263,-1.64385 -3.63263,-3.67164c0,-2.0278 1.62639,-3.67166 3.63263,-3.67166c2.00625,0 3.63263,1.64387 3.63263,3.67166c0,2.0278 -1.62639,3.67164 -3.63263,3.67164z" fill="#ffffff" stroke="#ffffff" stroke-width="0.15266"/></g></g><g><path d="M437.47989,96.16318l43.53789,-24.37495c0,0 0,0 0.44884,47.20231z" data-paper-data="{&quot;index&quot;:null}" fill="#33a719" stroke="none" stroke-width="0"/><path d="M419.55198,50.03295c21.76498,0 39.40899,17.89252 39.40899,39.96406c0,22.07154 -17.64402,39.96404 -39.40899,39.96404c-21.76498,0 -39.40899,-17.89251 -39.40899,-39.96404c0,-22.07154 17.64402,-39.96406 39.40899,-39.96406z" data-paper-data="{&quot;index&quot;:null}" fill="#44e022" stroke="none" stroke-width="0"/><path d="M413.99277,95.80046l28.15754,-14.47509c0,0 0,0 0.29028,28.03113z" data-paper-data="{&quot;index&quot;:null}" fill="#33a719" stroke="none" stroke-width="0"/><g data-paper-data="{&quot;index&quot;:null}"><path d="M397.96057,98.86696c-4.33164,0 -7.84312,-3.58282 -7.84312,-8.00246c0,-4.41964 3.51147,-8.00246 7.84312,-8.00246c4.33163,0 7.84314,3.58282 7.84314,8.00246c0,4.41964 -3.51148,8.00246 -7.84314,8.00246z" fill="#000000" stroke="#000000" stroke-width="0.33116"/><path d="M394.59863,91.63376c-2.00625,0 -3.63263,-1.64385 -3.63263,-3.67164c0,-2.0278 1.62639,-3.67166 3.63263,-3.67166c2.00625,0 3.63263,1.64387 3.63263,3.67166c0,2.0278 -1.62639,3.67164 -3.63263,3.67164z" fill="#ffffff" stroke="#ffffff" stroke-width="0.15266"/></g></g><g><path d="M212.87028,98.16918l43.53789,-24.37495c0,0 0,0 0.44884,47.20231z" data-paper-data="{&quot;index&quot;:null}" fill="#33a719" stroke="none" stroke-width="0"/><path d="M194.94237,52.03895c21.76498,0 39.40899,17.89252 39.40899,39.96406c0,22.07154 -17.64402,39.96404 -39.40899,39.96404c-21.76498,0 -39.40899,-17.89251 -39.40899,-39.96404c0,-22.07154 17.64402,-39.96406 39.40899,-39.96406z" data-paper-data="{&quot;index&quot;:null}" fill="#44e022" stroke="none" stroke-width="0"/><path d="M189.38316,97.80646l28.15754,-14.47509c0,0 0,0 0.29028,28.03113z" data-paper-data="{&quot;index&quot;:null}" fill="#33a719" stroke="none" stroke-width="0"/><g data-paper-data="{&quot;index&quot;:null}"><path d="M173.35096,100.87296c-4.33164,0 -7.84312,-3.58282 -7.84312,-8.00246c0,-4.41964 3.51147,-8.00246 7.84312,-8.00246c4.33163,0 7.84314,3.58282 7.84314,8.00246c0,4.41964 -3.51148,8.00246 -7.84314,8.00246z" fill="#000000" stroke="#000000" stroke-width="0.33116"/><path d="M169.98902,93.63976c-2.00625,0 -3.63263,-1.64385 -3.63263,-3.67164c0,-2.0278 1.62639,-3.67166 3.63263,-3.67166c2.00625,0 3.63263,1.64387 3.63263,3.67166c0,2.0278 -1.62639,3.67164 -3.63263,3.67164z" fill="#ffffff" stroke="#ffffff" stroke-width="0.15266"/></g></g><g><path d="M324.37028,186.16918l43.53789,-24.37495c0,0 0,0 0.44884,47.20231z" data-paper-data="{&quot;index&quot;:null}" fill="#33a719" stroke="none" stroke-width="0"/><path d="M306.44237,140.03895c21.76498,0 39.40899,17.89252 39.40899,39.96406c0,22.07154 -17.64402,39.96404 -39.40899,39.96404c-21.76498,0 -39.40899,-17.89251 -39.40899,-39.96404c0,-22.07154 17.64402,-39.96406 39.40899,-39.96406z" data-paper-data="{&quot;index&quot;:null}" fill="#44e022" stroke="none" stroke-width="0"/><path d="M300.88316,185.80646l28.15754,-14.47509c0,0 0,0 0.29028,28.03113z" data-paper-data="{&quot;index&quot;:null}" fill="#33a719" stroke="none" stroke-width="0"/><g data-paper-data="{&quot;index&quot;:null}"><path d="M284.85096,188.87296c-4.33164,0 -7.84312,-3.58282 -7.84312,-8.00246c0,-4.41964 3.51147,-8.00246 7.84312,-8.00246c4.33163,0 7.84314,3.58282 7.84314,8.00246c0,4.41964 -3.51148,8.00246 -7.84314,8.00246z" fill="#000000" stroke="#000000" stroke-width="0.33116"/><path d="M281.48902,181.63976c-2.00625,0 -3.63263,-1.64385 -3.63263,-3.67164c0,-2.0278 1.62639,-3.67166 3.63263,-3.67166c2.00625,0 3.63263,1.64387 3.63263,3.67166c0,2.0278 -1.62639,3.67164 -3.63263,3.67164z" fill="#ffffff" stroke="#ffffff" stroke-width="0.15266"/></g></g><g><path d="M438.97989,185.16318l43.53789,-24.37495c0,0 0,0 0.44884,47.20231z" data-paper-data="{&quot;index&quot;:null}" fill="#33a719" stroke="none" stroke-width="0"/><path d="M421.05198,139.03295c21.76498,0 39.40899,17.89252 39.40899,39.96406c0,22.07154 -17.64402,39.96404 -39.40899,39.96404c-21.76498,0 -39.40899,-17.89251 -39.40899,-39.96404c0,-22.07154 17.64402,-39.96406 39.40899,-39.96406z" data-paper-data="{&quot;index&quot;:null}" fill="#44e022" stroke="none" stroke-width="0"/><path d="M415.49277,184.80046l28.15754,-14.47509c0,0 0,0 0.29028,28.03113z" data-paper-data="{&quot;index&quot;:null}" fill="#33a719" stroke="none" stroke-width="0"/><g data-paper-data="{&quot;index&quot;:null}"><path d="M399.46057,187.86696c-4.33164,0 -7.84312,-3.58282 -7.84312,-8.00246c0,-4.41964 3.51147,-8.00246 7.84312,-8.00246c4.33163,0 7.84314,3.58282 7.84314,8.00246c0,4.41964 -3.51148,8.00246 -7.84314,8.00246z" fill="#000000" stroke="#000000" stroke-width="0.33116"/><path d="M396.09863,180.63376c-2.00625,0 -3.63263,-1.64385 -3.63263,-3.67164c0,-2.0278 1.62639,-3.67166 3.63263,-3.67166c2.00625,0 3.63263,1.64387 3.63263,3.67166c0,2.0278 -1.62639,3.67164 -3.63263,3.67164z" fill="#ffffff" stroke="#ffffff" stroke-width="0.15266"/></g></g><g><path d="M214.37028,187.16918l43.53789,-24.37495c0,0 0,0 0.44884,47.20231z" data-paper-data="{&quot;index&quot;:null}" fill="#33a719" stroke="none" stroke-width="0"/><path d="M196.44237,141.03895c21.76498,0 39.40899,17.89252 39.40899,39.96406c0,22.07154 -17.64402,39.96404 -39.40899,39.96404c-21.76498,0 -39.40899,-17.89251 -39.40899,-39.96404c0,-22.07154 17.64402,-39.96406 39.40899,-39.96406z" data-paper-data="{&quot;index&quot;:null}" fill="#44e022" stroke="none" stroke-width="0"/><path d="M190.88316,186.80646l28.15754,-14.47509c0,0 0,0 0.29028,28.03113z" data-paper-data="{&quot;index&quot;:null}" fill="#33a719" stroke="none" stroke-width="0"/><g data-paper-data="{&quot;index&quot;:null}"><path d="M174.85096,189.87296c-4.33164,0 -7.84312,-3.58282 -7.84312,-8.00246c0,-4.41964 3.51147,-8.00246 7.84312,-8.00246c4.33163,0 7.84314,3.58282 7.84314,8.00246c0,4.41964 -3.51148,8.00246 -7.84314,8.00246z" fill="#000000" stroke="#000000" stroke-width="0.33116"/><path d="M171.48902,182.63976c-2.00625,0 -3.63263,-1.64385 -3.63263,-3.67164c0,-2.0278 1.62639,-3.67166 3.63263,-3.67166c2.00625,0 3.63263,1.64387 3.63263,3.67166c0,2.0278 -1.62639,3.67164 -3.63263,3.67164z" fill="#ffffff" stroke="#ffffff" stroke-width="0.15266"/></g></g></g></g></svg>