<svg version="1.1" xmlns="http://www.w3.org/2000/svg" xmlns:xlink="http://www.w3.org/1999/xlink" width="122.57429" height="163.96104" viewBox="0,0,122.57429,163.96104"><defs><linearGradient x1="305.70423" y1="187.09503" x2="305.70423" y2="235.45646" gradientUnits="userSpaceOnUse" id="color-1"><stop offset="0" stop-color="#9f7a29"/><stop offset="1" stop-color="#d29839"/></linearGradient><linearGradient x1="314.00943" y1="196.73391" x2="314.00943" y2="228.5683" gradientUnits="userSpaceOnUse" id="color-2"><stop offset="0" stop-color="#f3b271"/><stop offset="1" stop-color="#ffcb99"/></linearGradient><linearGradient x1="272.29733" y1="144.62753" x2="298.79733" y2="144.62753" gradientUnits="userSpaceOnUse" id="color-3"><stop offset="0" stop-color="#cbbd7c"/><stop offset="1" stop-color="#b4812d"/></linearGradient><linearGradient x1="270.62461" y1="194.51789" x2="279.32801" y2="132.6526" gradientUnits="userSpaceOnUse" id="color-4"><stop offset="0" stop-color="#ac7f2e"/><stop offset="1" stop-color="#d29839"/></linearGradient><linearGradient x1="354.04733" y1="144.83778" x2="380.54733" y2="144.83778" gradientUnits="userSpaceOnUse" id="color-5"><stop offset="0" stop-color="#b4812d"/><stop offset="1" stop-color="#cbbd7c"/></linearGradient><linearGradient x1="305.04673" y1="170.44528" x2="305.04673" y2="189.08843" gradientUnits="userSpaceOnUse" id="color-6"><stop offset="0" stop-color="#ffcb6b"/><stop offset="1" stop-color="#ffcb99"/></linearGradient><linearGradient x1="291.54733" y1="177.00579" x2="304.04733" y2="177.00579" gradientUnits="userSpaceOnUse" id="color-7"><stop offset="0" stop-color="#fe9e6c"/><stop offset="1" stop-color="#ffcb99"/></linearGradient><linearGradient x1="349.29733" y1="175.95455" x2="361.79733" y2="175.95455" gradientUnits="userSpaceOnUse" id="color-8"><stop offset="0" stop-color="#fe9e6c"/><stop offset="1" stop-color="#ffcb99"/></linearGradient><linearGradient x1="382.59019" y1="195.63921" x2="373.88679" y2="133.77393" gradientUnits="userSpaceOnUse" id="color-9"><stop offset="0" stop-color="#ac7f2e"/><stop offset="1" stop-color="#d29839"/></linearGradient></defs><g transform="translate(-258.71285,-98.01948)"><g data-paper-data="{&quot;isPaintingLayer&quot;:true}" fill-rule="nonzero" stroke-linejoin="miter" stroke-miterlimit="10" stroke-dasharray="" stroke-dashoffset="0" style="mix-blend-mode: normal"><g stroke="none" stroke-width="1" stroke-linecap="round"><path d="M346.39733,232.42729c0.95,1.69628 1.481,3.56497 1.95,5.40339c0.388,1.52809 0.759,2.97544 0.7,4.47829c-0.184,4.71882 0.68,9.73787 -1.25,14.17075c-0.665,1.36073 -3.556,0.4247 -5.25,0.3364c-0.774,-0.04037 -2.003,0.20941 -2.15,-0.75689c-0.818,-3.81895 -0.056,-7.77583 -0.35,-11.64777c-0.127,-1.66769 -0.222,-3.32193 -0.85,-4.83571c-0.709,-1.71647 -1.685,-3.37239 -3.1,-4.70957c-1.453,-1.37418 -6.349,-2.12603 -5.15,-3.19578c2.151,-2.08398 7.683,-3.32865 11.85,-3.11168c1.941,0.10092 2.673,2.42879 3.6,3.86857z" fill="#b4852d"/><path d="M350.34733,255.42847c1.021,0.59206 2.371,1.24803 2.5,2.27068c0.15,1.22365 -0.536,2.74921 -1.8,3.36398c-1.777,0.86454 -4.058,0.55085 -6.1,0.54665c-2.144,0.0042 -4.573,0.37256 -6.4,-0.54665c-1.036,-0.52142 -0.839,-2.01166 -0.6,-3.00655c0.297,-1.2329 0.798,-2.48766 2.088,-3.34379c1.29,-0.85697 3.283,-1.54238 5.037,-1.3868c1.962,0.17493 3.672,1.1816 5.275,2.10248z" fill="#fdcb96"/><path d="M348.39733,253.49418c0.719,0.16399 1.276,0.80063 1.6,1.38764c0.252,0.46002 0.588,1.12609 0.15,1.42969c-0.846,0.58365 -2.027,0.71316 -3.1,0.75689c-2.389,0.09503 -4.695,-0.04878 -7,-0.3364c-0.597,-0.07737 -1.387,-0.1825 -1.4,-0.5887c-0.069,-0.87632 0.396,-1.88803 1.212,-2.32703c1.1,-0.59374 2.569,-0.55674 3.888,-0.61645c1.518,-0.06812 3.155,-0.13792 4.65,0.29435z" fill="#cc9832"/></g><path d="M276.29733,203.37095c3.586,1.2556 6.556,3.66421 9.25,6.01311c1.474,1.38512 2.46,3.17475 3,4.96186c0.907,3.00151 0.744,6.1729 1.15,9.25093c0.371,2.80808 -0.039,5.67923 1.1,8.28379c0.657,1.49865 2.077,2.84256 3.75,3.27988c2.814,0.80063 5.938,0.41209 8.75,0.1682c3.375,-0.29014 6.762,-0.65177 10,-1.63994c2.33,-0.71064 4.045,-2.96282 6.4,-3.19578c3.629,-0.35826 12.4,0.07317 10.85,1.38764c-2.728,2.31442 -13.156,5.06194 -20.121,6.53789c-4.587,0.97051 -9.397,1.24131 -14.029,0.90491c-2.881,-0.27248 -6.068,-0.98733 -8,-2.69118c-2.079,-1.83337 -2.583,-4.65238 -3.1,-7.14845c-0.774,-3.73654 -0.021,-7.50587 -0.75,-11.18522c-0.44,-2.21854 -1.067,-4.71798 -2.85,-6.5177c-2.281,-2.26396 -5.451,-3.93585 -8.8,-5.13006c-4.287,-1.52724 -9.493,-0.78128 -13.6,-2.73323c-1.16,-0.55169 -0.454,-3.22773 0.9,-3.27988c5.385,-0.20688 11.051,0.96546 16.1,2.73323z" fill="#a97a2a" stroke="none" stroke-width="1" stroke-linecap="round"/><g stroke="none" stroke-width="1" stroke-linecap="round"><path d="M310.79733,228.64282c4.167,-0.21698 9.699,1.02769 11.85,3.11168c1.199,1.06974 -3.697,1.82159 -5.15,3.19578c-1.415,1.33718 -2.391,2.9931 -3.1,4.70957c-0.628,1.51379 -0.723,3.16802 -0.85,4.83571c-0.294,3.87194 0.468,7.82881 -0.35,11.64777c-0.147,0.9663 -1.376,0.71653 -2.15,0.75689c-1.694,0.0883 -4.585,1.02433 -5.25,-0.3364c-1.93,-4.43288 -1.066,-9.45193 -1.25,-14.17075c-0.059,-1.50286 0.312,-2.95021 0.7,-4.47829c0.469,-1.83841 1,-3.7071 1.95,-5.40339c0.927,-1.43978 1.659,-3.76765 3.6,-3.86857z" fill="#b4852d"/><path d="M309.12233,253.62033c1.754,-0.15558 3.747,0.52983 5.037,1.3868c1.29,0.85613 1.791,2.11089 2.088,3.34379c0.239,0.9949 0.436,2.48514 -0.6,3.00655c-1.827,0.91921 -4.256,0.55085 -6.4,0.54665c-2.042,0.0042 -4.323,0.3179 -6.1,-0.54665c-1.264,-0.61477 -1.95,-2.14033 -1.8,-3.36398c0.129,-1.02265 1.479,-1.67862 2.5,-2.27068c1.603,-0.92089 3.313,-1.92756 5.275,-2.10248z" fill="#fdcb96"/><path d="M310.49733,253.32599c1.319,0.05971 2.788,0.02271 3.888,0.61645c0.816,0.439 1.281,1.45071 1.212,2.32703c-0.013,0.4062 -0.803,0.51132 -1.4,0.5887c-2.305,0.28762 -4.611,0.43143 -7,0.3364c-1.073,-0.04373 -2.254,-0.17324 -3.1,-0.75689c-0.438,-0.3036 -0.102,-0.96967 0.15,-1.42969c0.324,-0.58701 0.881,-1.22365 1.6,-1.38764c1.495,-0.43227 3.132,-0.36247 4.65,-0.29435z" fill="#cc9832"/></g><g stroke="none" stroke-linecap="round"><path d="M343.97853,187.78733c2.9685,0.34111 1.8648,0.42159 2.0112,3.51342c0.584,12.36589 1.7296,24.92975 0,37.36982c-0.428,2.97552 -3.1633,4.64658 -6.0337,5.7492c-3.6346,1.39639 -7.9612,0.95814 -12.0673,0.95814c-4.6371,0 -9.7536,0.48551 -14.0785,-0.95814c-3.1408,-1.06302 -6.3024,-2.96021 -6.8382,-6.06861c-2.1415,-12.43494 -1.0667,-25.06397 -0.4022,-37.68922c0.1657,-3.15692 -0.0708,-2.67529 2.8157,-2.8746c11.5492,-0.79979 23.2239,-1.03871 34.593,0z" fill="url(#color-1)" stroke-width="1.56471"/><path d="M337.79733,197.18964c1.845,0.22455 1.159,0.27753 1.25,2.31273c0.363,8.13998 1.075,16.41031 0,24.59907c-0.266,1.95867 -1.966,3.05869 -3.75,3.78447c-2.259,0.91921 -4.948,0.63075 -7.5,0.63075c-2.882,0 -6.062,0.31958 -8.75,-0.63075c-1.952,-0.69971 -3.917,-1.94858 -4.25,-3.99472c-1.331,-8.18539 -0.663,-16.49862 -0.25,-24.80932c0.103,-2.0781 -0.044,-1.76104 1.75,-1.89224c7.178,-0.52646 14.434,-0.68373 21.5,0z" fill="url(#color-2)" stroke-width="1"/><path d="M326.79733,222.83996c0.552,0 1.052,0.14129 1.414,0.37004c0.362,0.22791 0.586,0.54328 0.586,0.89145c0,0.34817 -0.224,0.66354 -0.586,0.89145c-0.362,0.22875 -0.862,0.37004 -1.414,0.37004c-0.552,0 -1.052,-0.14129 -1.414,-0.37004c-0.362,-0.22791 -0.586,-0.54328 -0.586,-0.89145c0,-0.34817 0.224,-0.66354 0.586,-0.89145c0.362,-0.22875 0.862,-0.37004 1.414,-0.37004z" fill="#fccded" stroke-width="1"/></g><g stroke="none" stroke-linecap="butt"><path d="M285.54733,144.62753c3.656,0 6.968,1.17823 9.367,3.0814c2.398,1.90233 3.883,4.53043 3.883,7.43102c0,2.90059 -1.485,5.52869 -3.883,7.43102c-2.399,1.90317 -5.711,3.0814 -9.367,3.0814c-3.656,0 -6.968,-1.17823 -9.367,-3.0814c-2.398,-1.90233 -3.883,-4.53043 -3.883,-7.43102c0,-2.90059 1.485,-5.52869 3.883,-7.43102c2.399,-1.90317 5.711,-3.0814 9.367,-3.0814z" fill="url(#color-3)" stroke-width="1"/><path d="M284.67233,148.61174c2.242,0 4.273,0.74176 5.744,1.94093c1.471,1.19917 2.381,2.85484 2.381,4.6819c0,1.82698 -0.91,3.48272 -2.381,4.6819c-1.471,1.19917 -3.502,1.94093 -5.744,1.94093c-2.242,0 -4.273,-0.74176 -5.744,-1.94093c-1.471,-1.19917 -2.381,-2.85492 -2.381,-4.6819c0,-1.82706 0.91,-3.48272 2.381,-4.6819c1.471,-1.19917 3.502,-1.94093 5.744,-1.94093z" fill="#fecc99" stroke-width="1.0253"/></g><g stroke="none" stroke-width="1"><path d="M279.48818,142.42697c-1.38764,-3.25361 -0.50717,-7.81288 0.03905,-11.1005c0.38523,-2.32732 1.40073,-4.65345 2.79924,-6.02115c1.39857,-1.36976 3.15187,-1.99143 4.92645,-1.54093c1.77447,0.45036 3.23807,1.88835 4.16822,3.84921c0.93041,1.95881 1.25657,4.61918 0.97042,6.97816c-0.40205,3.34517 -0.81335,8.00032 -2.97935,10.35395c-1.38514,1.12141 -3.0808,-2.52986 -4.74634,-2.79186c-1.70492,-0.26332 -4.20202,1.99786 -5.17768,0.27311z" fill="#fccd97" stroke-linecap="round"/><path d="M272.49874,174.4264c-2.43606,-10.60913 3.52605,-26.25024 6.51404,-36.93647c1.2978,-4.63529 8.61281,-4.25593 10.72277,-0.45272c3.02872,5.16191 -3.90554,14.65656 -4.38524,20.95959c-1.51737,5.83416 -2.74894,12.08396 -0.91532,16.99558c2.03238,5.41481 4.63998,11.09745 8.10436,13.39231c5.13917,3.71475 16.6762,3.65861 17.06498,7.65956c0.31119,3.29782 -3.94636,6.16618 -6.59121,6.26302c-3.73129,0.13426 -16.02934,-4.47561 -18.6331,-7.88543c-6.71054,-5.67091 -9.63322,-10.11767 -11.88129,-19.99545z" fill="url(#color-4)" stroke-linecap="butt"/><path d="M279.86082,140.90044c-1.1343,-1.24449 -1.73691,-2.72004 -1.53845,-4.12995c0.19824,-1.40992 1.16016,-2.48842 2.55432,-3.09106c1.39465,-0.60467 3.22175,-0.73349 5.14768,-0.24472c1.92603,0.48892 3.5922,1.50439 4.72634,2.75078c1.13441,1.24464 1.7369,2.72005 1.53865,4.12997c-0.19846,1.40991 -1.16015,2.48841 -2.55453,3.09104c-1.39465,0.60467 -3.22175,0.7335 -5.14768,0.24473c-1.92603,-0.48892 -3.59209,-1.50424 -4.72634,-2.75079z" fill="#cd9934" stroke-linecap="round"/></g><g stroke="none" stroke-linecap="butt"><path d="M367.29733,144.83778c3.656,0 6.968,1.17823 9.367,3.0814c2.398,1.90233 3.883,4.53043 3.883,7.43102c0,2.90059 -1.485,5.52869 -3.883,7.43102c-2.399,1.90317 -5.711,3.0814 -9.367,3.0814c-3.656,0 -6.968,-1.17823 -9.367,-3.0814c-2.398,-1.90233 -3.883,-4.53043 -3.883,-7.43102c0,-2.90059 1.485,-5.52869 3.883,-7.43102c2.399,-1.90317 5.711,-3.0814 9.367,-3.0814z" fill="url(#color-5)" stroke-width="1"/><path d="M368.67233,148.82198c2.242,0 4.273,0.74176 5.744,1.94093c1.471,1.19917 2.381,2.85484 2.381,4.6819c0,1.82698 -0.91,3.48272 -2.381,4.6819c-1.471,1.19917 -3.502,1.94093 -5.744,1.94093c-2.242,0 -4.273,-0.74176 -5.744,-1.94093c-1.471,-1.19917 -2.381,-2.85492 -2.381,-4.6819c0,-1.82706 0.91,-3.48272 2.381,-4.6819c1.471,-1.19917 3.502,-1.94093 5.744,-1.94093z" fill="#fecc99" stroke-width="1.0253"/></g><g stroke="none"><g><g><path d="M326.86913,123.48427c11.191,0 21.3319,3.7695 28.675,9.8588c7.3431,6.09023 11.8884,14.50016 11.8884,23.78095c0,9.28079 -4.5453,17.69073 -11.8884,23.78087c-7.3431,6.0893 -17.484,9.85889 -28.675,9.85889c-11.1909,0 -21.3318,-3.76959 -28.6749,-9.85889c-7.3431,-6.09014 -11.8884,-14.50008 -11.8884,-23.78087c0,-9.28079 4.5453,-17.69073 11.8884,-23.78095c7.3431,-6.0893 17.484,-9.8588 28.6749,-9.8588z" fill="#cd9933" stroke-width="1.12676" stroke-linecap="butt"/><path d="M332.79733,136.21759c5.596,-0.28594 11.535,0.82165 16,3.36398c5.06,2.946 9.031,7.44195 11,12.19441c1.763,4.22515 0.269,8.90192 0,13.4559c-0.067,1.13871 -0.928,-0.47768 -0.5,0c1.71,1.9099 4.302,3.46321 5.75,5.67671c0.96,1.76693 1.644,3.92324 1.25,5.88696c-0.655,3.25969 -1.26,7.10808 -4.25,9.25093c-5.781,4.12423 -13.327,7.09547 -21,8.40994c-9.209,1.62564 -18.933,1.39184 -28.5,0.21025c-7.101,-0.878 -14.25,-2.87872 -20.25,-6.30745c-3.323,-1.97129 -5.187,-5.57999 -6.25,-9.04068c-0.837,-2.73239 0.031,-5.62961 1.25,-8.40994c0.925,-2.10164 3.267,-3.50947 5,-5.25621c0.433,-0.43648 0.865,-0.28762 1,-1.26149c0.54,-3.89464 -0.796,-8.00542 0.5,-11.77391c1.439,-4.17049 3.764,-8.84557 8,-11.77391c4.149,-2.7736 9.873,-4.12003 15.5,-4.20497c3.283,-0.04625 5.818,2.80808 8.5,4.20497c0.671,0.34901 -1.04,0.39106 -0.5,0c2.153,-1.56173 4.404,-4.46652 7.5,-4.62547z" fill="#ffcb99" stroke-width="1" stroke-linecap="round"/></g><path d="M327.05123,170.54435c4.7798,0.00572 9.8606,-0.6199 13.9925,1.20321c3.5287,1.56416 7.03,4.57417 7.2108,7.79694c0.0927,3.28913 -3.1453,6.4955 -6.5378,8.04621c-4.3586,1.99257 -9.8811,1.44197 -14.923,1.38705c-4.7935,0.05492 -10.0403,0.47264 -14.408,-1.38705c-3.46,-1.47182 -7.1021,-4.33448 -7.339,-7.6131c-0.0069,-3.20822 3.3513,-6.4791 6.753,-7.98944c4.5234,-2.00888 10.1433,-1.4487 15.2515,-1.44382z" fill="url(#color-6)" stroke-width="1.14458" stroke-linecap="round"/><path d="M297.79733,177.00579c1.724,0 3.287,0.5416 4.418,1.41707c1.132,0.87547 1.832,2.08482 1.832,3.41864c0,1.33382 -0.7,2.54317 -1.832,3.41864c-1.131,0.87547 -2.694,1.41707 -4.418,1.41707c-1.724,0 -3.287,-0.5416 -4.418,-1.41707c-1.132,-0.87547 -1.832,-2.08482 -1.832,-3.41864c0,-1.33382 0.7,-2.54317 1.832,-3.41864c1.131,-0.87547 2.694,-1.41707 4.418,-1.41707z" fill="url(#color-7)" stroke-width="1" stroke-linecap="round"/><path d="M355.54733,175.95455c1.724,0 3.287,0.5416 4.418,1.41707c1.132,0.87547 1.832,2.08482 1.832,3.41864c0,1.33382 -0.7,2.54317 -1.832,3.41864c-1.131,0.87547 -2.694,1.41707 -4.418,1.41707c-1.724,0 -3.287,-0.5416 -4.418,-1.41707c-1.132,-0.87547 -1.832,-2.08482 -1.832,-3.41864c0,-1.33382 0.7,-2.54317 1.832,-3.41864c1.131,-0.87547 2.694,-1.41707 4.418,-1.41707z" fill="url(#color-8)" stroke-width="1" stroke-linecap="butt"/></g><path d="M321.04733,117.08498c0.685,-0.00925 0.597,2.63736 1.5,3.78447c0.891,1.05713 2.578,1.47679 3.75,2.31273c0.944,0.67195 2.395,1.07143 2.75,2.10248c0.32,0.62486 -0.488,1.3069 -1.136,1.83421c-0.74,0.59711 -1.67,1.10927 -2.739,1.10927c-1.069,0 -2.24,-0.36836 -2.739,-1.10927c-1.336,-2.11846 -2.379,-4.1974 -2.636,-6.45967c-0.145,-1.34643 0.69,-3.67094 1.25,-3.57422z" fill="#cd9933" stroke-width="1" stroke-linecap="round"/></g><path d="M305.94733,153.45796c2.069,0 3.944,1.17823 5.302,3.0814c1.358,1.90233 2.198,4.53043 2.198,7.43102c0,2.90059 -0.84,5.52869 -2.198,7.43102c-1.358,1.90317 -3.233,3.0814 -5.302,3.0814c-2.069,0 -3.944,-1.17823 -5.302,-3.0814c-1.358,-1.90233 -2.198,-4.53043 -2.198,-7.43102c0,-2.90059 0.84,-5.52869 2.198,-7.43102c1.358,-1.90317 3.233,-3.0814 5.302,-3.0814z" fill="#ffffff" stroke="none" stroke-width="1" stroke-linecap="butt"/><path d="M306.22233,162.18529c1.4829,0 2.8269,0.65934 3.8,1.72564c0.973,1.06546 1.575,2.53694 1.575,4.16132c0,1.6243 -0.602,3.09587 -1.575,4.16124c-0.9731,1.06638 -2.3171,1.72572 -3.8,1.72572c-1.4829,0 -2.8269,-0.65934 -3.8,-1.72572c-0.973,-1.06537 -1.575,-2.53694 -1.575,-4.16124c0,-1.62438 0.602,-3.09587 1.575,-4.16132c0.9731,-1.0663 2.3171,-1.72564 3.8,-1.72564z" fill="#9a6732" stroke="none" stroke-width="1.14582" stroke-linecap="butt"/><path d="M346.69733,153.87846c2.069,0 3.944,1.17823 5.302,3.0814c1.358,1.90233 2.198,4.53043 2.198,7.43102c0,2.90059 -0.84,5.52869 -2.198,7.43102c-1.358,1.90317 -3.233,3.0814 -5.302,3.0814c-2.069,0 -3.944,-1.17823 -5.302,-3.0814c-1.358,-1.90233 -2.198,-4.53043 -2.198,-7.43102c0,-2.90059 0.84,-5.52869 2.198,-7.43102c1.358,-1.90317 3.233,-3.0814 5.302,-3.0814z" fill="#ffffff" stroke="none" stroke-width="1" stroke-linecap="butt"/><g data-paper-data="{&quot;index&quot;:null}" stroke="none" stroke-width="1"><path d="M368.54894,143.27518c-1.66553,0.262 -3.3612,3.91326 -4.74634,2.79186c-2.166,-2.35363 -2.5773,-7.00878 -2.97935,-10.35395c-0.28615,-2.35899 0.04001,-5.01936 0.97042,-6.97817c0.93014,-1.96086 2.39374,-3.39885 4.16822,-3.8492c1.77458,-0.45051 3.52788,0.17117 4.92645,1.54092c1.39851,1.3677 2.41401,3.69384 2.79924,6.02116c0.54622,3.28761 1.42669,7.84688 0.03905,11.10049c-0.97566,1.72474 -3.47276,-0.53643 -5.17768,-0.27311z" fill="#fccd97" stroke-linecap="round"/><path d="M368.83477,195.54318c-2.60376,3.40982 -14.9018,8.01968 -18.6331,7.88543c-2.64485,-0.09685 -6.9024,-2.9652 -6.59121,-6.26302c0.38878,-4.00096 11.92582,-3.94482 17.06499,-7.65956c3.46438,-2.29485 6.07198,-7.97749 8.10436,-13.39231c1.83362,-4.91162 0.60205,-11.16142 -0.91532,-16.99558c-0.4797,-6.30303 -7.41396,-15.79767 -4.38524,-20.95959c2.10996,-3.80322 9.42498,-4.18257 10.72277,0.45272c2.98798,10.68622 8.9501,26.32733 6.51404,36.93646c-2.24806,9.87778 -5.17075,14.32455 -11.88129,19.99545z" fill="url(#color-9)" stroke-linecap="butt"/><path d="M368.62765,144.77256c-1.92593,0.48877 -3.75304,0.35995 -5.14768,-0.24473c-1.39438,-0.60263 -2.35607,-1.68113 -2.55453,-3.09104c-0.19824,-1.40992 0.40425,-2.88533 1.53866,-4.12997c1.13414,-1.24639 2.80031,-2.26186 4.72634,-2.75078c1.92593,-0.48877 3.75304,-0.35995 5.14768,0.24473c1.39416,0.60264 2.35608,1.68113 2.55432,3.09105c0.19846,1.40991 -0.40415,2.88547 -1.53845,4.12995c-1.13425,1.24654 -2.80031,2.26187 -4.72634,2.75079z" fill="#cd9934" stroke-linecap="round"/></g><path d="M346.52233,162.60579c1.4829,0 2.8269,0.65934 3.8,1.72564c0.973,1.06546 1.575,2.53694 1.575,4.16132c0,1.6243 -0.602,3.09587 -1.575,4.16124c-0.9731,1.06638 -2.3171,1.72572 -3.8,1.72572c-1.4829,0 -2.8269,-0.65934 -3.8,-1.72572c-0.973,-1.06537 -1.575,-2.53694 -1.575,-4.16124c0,-1.62438 0.602,-3.09587 1.575,-4.16132c0.9731,-1.0663 2.3171,-1.72564 3.8,-1.72564z" fill="#9a6732" stroke="none" stroke-width="1.14582" stroke-linecap="butt"/><path d="M326.69733,169.64709c1.931,0 3.681,0.37677 4.948,0.98564c1.268,0.60888 2.052,1.44987 2.052,2.37833c0,0.92846 -0.784,1.76945 -2.052,2.37833c-1.267,0.60888 -3.017,0.98564 -4.948,0.98564c-1.931,0 -3.681,-0.37677 -4.948,-0.98564c-1.268,-0.60888 -2.052,-1.44987 -2.052,-2.37833c0,-0.92846 0.784,-1.76945 2.052,-2.37833c1.267,-0.60888 3.017,-0.98564 4.948,-0.98564z" fill="#343432" stroke="none" stroke-width="1" stroke-linecap="butt"/><path d="M326.44733,179.05378v-6.05053" fill="none" stroke="#343432" stroke-width="2.57151" stroke-linecap="round"/><g fill="#cd9934" stroke="none" stroke-width="1" stroke-linecap="butt"><path d="M306.92233,191.93343c1.966,0 3.747,0.75353 5.037,1.97213c1.29,1.21776 2.088,2.89975 2.088,4.75582c0,1.85607 -0.798,3.53806 -2.088,4.75582c-1.29,1.2186 -3.071,1.97213 -5.037,1.97213c-1.966,0 -3.747,-0.75353 -5.037,-1.97213c-1.29,-1.21776 -2.088,-2.89975 -2.088,-4.75582c0,-1.85607 0.798,-3.53806 2.088,-4.75582c1.29,-1.2186 3.071,-1.97213 5.037,-1.97213z"/><path d="M319.52233,191.72318c1.966,0 3.747,0.75353 5.037,1.97213c1.29,1.21776 2.088,2.89975 2.088,4.75582c0,1.85607 -0.798,3.53806 -2.088,4.75582c-1.29,1.2186 -3.071,1.97213 -5.037,1.97213c-1.966,0 -3.747,-0.75353 -5.037,-1.97213c-1.29,-1.21776 -2.088,-2.89975 -2.088,-4.75582c0,-1.85607 0.798,-3.53806 2.088,-4.75582c1.29,-1.2186 3.071,-1.97213 5.037,-1.97213z"/><path d="M333.42233,191.72318c1.966,0 3.747,0.75353 5.037,1.97213c1.29,1.21776 2.088,2.89975 2.088,4.75582c0,1.85607 -0.798,3.53806 -2.088,4.75582c-1.29,1.2186 -3.071,1.97213 -5.037,1.97213c-1.966,0 -3.747,-0.75353 -5.037,-1.97213c-1.29,-1.21776 -2.088,-2.89975 -2.088,-4.75582c0,-1.85607 0.798,-3.53806 2.088,-4.75582c1.29,-1.2186 3.071,-1.97213 5.037,-1.97213z"/><path d="M347.17233,191.51294c1.966,0 3.747,0.75353 5.037,1.97213c1.29,1.21776 2.088,2.89975 2.088,4.75582c0,1.85607 -0.798,3.53806 -2.088,4.75582c-1.29,1.2186 -3.071,1.97213 -5.037,1.97213c-1.966,0 -3.747,-0.75353 -5.037,-1.97213c-1.29,-1.21776 -2.088,-2.89975 -2.088,-4.75582c0,-1.85607 0.798,-3.53806 2.088,-4.75582c1.29,-1.2186 3.071,-1.97213 5.037,-1.97213z"/><path d="M326.04733,190.0412c6.139,0 11.701,0.57692 15.729,1.50958c4.028,0.93266 6.521,2.22022 6.521,3.6415c0,1.42128 -2.493,2.70884 -6.521,3.6415c-4.028,0.93266 -9.59,1.50958 -15.729,1.50958c-6.139,0 -11.701,-0.57692 -15.729,-1.50958c-4.028,-0.93266 -6.521,-2.22022 -6.521,-3.6415c0,-1.42128 2.493,-2.70884 6.521,-3.6415c4.028,-0.93266 9.59,-1.50958 15.729,-1.50958z"/></g><path d="M326.45553,181.28763c2.4445,-0.00656 4.9166,0.20579 7.3201,0.60383c0.6011,0.09932 0.5149,0.29628 0.3686,0.62326c-0.7143,1.31641 -1.2835,2.83751 -2.6409,3.71475c-1.3389,0.86421 -3.1799,1.22079 -4.8661,1.19547c-1.6854,-0.02859 -3.522,-0.50333 -4.8434,-1.41279c-1.2682,-0.87194 -1.8304,-2.29364 -2.505,-3.52292c-0.1362,-0.34456 -0.1751,-0.50863 0.3825,-0.59685c2.2322,-0.35465 4.5245,-0.60291 6.7842,-0.60476z" fill="#343432" stroke="none" stroke-width="1" stroke-linecap="round"/><g stroke="none" stroke-width="0.63025" stroke-linecap="butt"><g><path d="M326.32784,135.79368c-0.66803,0 -1.04293,-0.01063 -1.06121,-0.01126c-45.61019,-2.85231 -44.76225,-21.81139 -44.70356,-22.61729c0.19499,-2.68518 2.20003,-5.4273 3.67751,-7.10747c2.19618,1.98792 6.37303,3.53148 12.43979,4.59416c5.48147,0.96049 13.76654,2.41248 27.96987,2.49468l0.92571,0.00273c0.40521,0 37.77074,-0.09031 44.30749,-7.39869c2.1213,2.26251 3.05503,6.81689 3.14899,9.69909c-6.66695,19.36102 -40.06185,20.34405 -46.70459,20.34405c0.00096,0 0,0 0,0z" fill="#65cbeb"/><path d="M369.57813,107.61637c-9.47761,6.31885 -40.03956,6.52851 -44.00122,6.52851c-0.32039,0 -0.63259,-0.00137 -0.93886,-0.00273c-14.39528,-0.08357 -22.79147,-1.55483 -28.34782,-2.52857c-5.23597,-0.91797 -9.17037,-2.20083 -11.74835,-3.82795c-1.16432,1.52956 -2.32445,3.50495 -2.46396,5.42656c-0.07072,0.97175 -0.09605,6.08068 6.34464,11.21613c7.25625,5.78683 19.69699,9.27188 36.97845,10.36109c0.13149,0.00337 0.44979,0.00863 0.92683,0.00863c6.42242,0 38.67225,-0.93997 45.18462,-19.4486c-0.09701,-2.33492 -0.7397,-5.57191 -1.93433,-7.73306M369.57813,107.61637l-84.84735,-3.78554v0c-0.15266,0.35952 -0.10711,0.74032 0.23845,1.13563c1.99606,2.29177 6.72275,3.78165 12.10224,4.72414c5.37949,0.94259 13.58069,2.37933 27.59192,2.461c0.2981,0.002 0.60132,0.00263 0.91256,0.00263c14.3345,0 42.5409,-1.86457 43.72429,-8.28561c5.02175,2.24872 5.2512,11.68111 5.2512,11.68111c-6.83789,20.24858 -41.50903,21.23833 -48.22361,21.23833c-0.72768,0 -1.12791,-0.01199 -1.12791,-0.01199c-42.44597,-2.65329 -46.48844,-19.01539 -46.15186,-23.65871c0.33658,-4.64321 5.55844,-9.28652 5.55844,-9.28652h0.12427c0,0.00063 0,0 0,0z" fill="#000000"/></g><g><path d="M324.5157,113.1465c-14.17592,-0.08683 -22.44575,-1.62576 -27.91824,-2.64392c-5.92533,-1.10247 -9.90109,-2.71433 -11.49884,-4.66183c-0.14961,-0.18239 -0.18392,-0.33563 -0.11208,-0.51276c0.34556,-0.86692 2.8974,-1.89583 5.12276,-2.48615l0.25271,-0.06504c10.71953,-2.49069 22.78842,-3.76166 35.80611,-3.76166c19.4887,0 35.2311,2.85695 38.46315,3.84132c3.19245,0.97312 3.97159,2.00591 4.13836,2.31103c-1.42697,5.50424 -26.08092,7.98239 -43.32918,7.98239l-0.92475,-0.00336z" fill="#660000"/><path d="M326.16813,100.0094c-12.79144,0 -24.64289,1.24181 -35.23013,3.69008l-0.17286,0.04178l-0.0263,0.00737l-0.04939,0.01388l-0.05773,0.01389c-2.20613,0.5897 -3.6998,1.32276 -4.09795,1.70943c1.47235,1.65565 5.08732,3.0566 10.47804,4.0595c5.3936,1.00364 13.54525,2.52068 27.51816,2.60625c0.29601,0.002 0.59923,0.00263 0.90951,0.00263c7.02887,0 17.76555,-0.48361 26.82271,-1.84078c8.47508,-1.26961 13.94148,-3.12554 14.90263,-5.02788c-0.31525,-0.30785 -1.14203,-0.90818 -3.1724,-1.52703c-2.71347,-0.82651 -18.41643,-3.74913 -37.82431,-3.74913M326.16813,100.0094v-1.98992v0c20.0355,0 36.05177,3.00555 39.1007,3.93352c4.77833,1.45663 5.04098,3.16269 5.04098,3.16269c-1.21466,6.99676 -30.1598,9.02846 -44.87129,9.02846c-0.31942,0 -0.63275,-0.00063 -0.9379,-0.00263c-14.38004,-0.0882 -22.79659,-1.65429 -28.31751,-2.68182c-5.52108,-1.02743 -10.37204,-2.64992 -12.42054,-5.14734c-0.35374,-0.4312 -0.40024,-0.84577 -0.24358,-1.23782c0.65392,-1.64039 4.94799,-2.87084 6.02138,-3.15543c0.00497,-0.00126 0.01106,-0.00263 0.01507,-0.00389c0.07184,-0.01863 0.1254,-0.03326 0.16469,-0.04252c0.00609,-0.002 0.01122,-0.00263 0.0162,-0.00399c0.02934,-0.0079 0.05051,-0.01326 0.05051,-0.01326c12.33363,-2.86747 25.0048,-3.83596 36.38129,-3.83596z" fill="#000000"/></g></g><g stroke="none" stroke-width="0.63025" stroke-linecap="butt"><path d="M327.42529,136.1452c-1.36235,0 -2.14952,-0.02979 -2.16667,-0.03042c-46.1246,-2.88421 -45.25951,-22.1464 -45.19985,-22.96554c0.21824,-3.01082 2.64469,-6.07679 4.15761,-7.71444c1.97169,2.13052 6.20722,3.77754 12.59436,4.89664c5.45726,0.95649 13.70496,2.40185 27.84352,2.48342l0.92171,0.00263c0.41226,0 39.44338,-0.09346 44.28424,-7.76348c3.61802,2.51468 4.0848,7.95261 3.68665,10.42615c-3.09046,19.17326 -36.07999,20.66504 -46.12155,20.66504c0.00112,0 0.00112,0 0,0z" fill="#cc7700"/><path d="M370.00066,106.25457c-7.4251,7.13736 -42.78447,7.22693 -44.42583,7.22693c-0.31734,0 -0.6265,-0.00126 -0.92972,-0.00263c-14.26684,-0.08293 -22.5883,-1.54093 -28.09511,-2.50605c-5.77171,-1.01154 -9.87784,-2.46153 -12.24159,-4.31957c-1.3957,1.66301 -3.06625,4.12328 -3.24104,6.52777c-0.07393,1.0149 -0.10215,6.34601 6.57395,11.66922c7.44017,5.9327 20.12754,9.50007 37.70917,10.60317c0.15763,0.00526 0.89941,0.02789 2.07479,0.02789c9.82524,0 42.11452,-1.44737 45.11599,-20.07018c0.42044,-2.60888 -0.19594,-6.77784 -2.54061,-9.15654M370.00066,106.25457l-85.26988,-2.42374v0c-0.15266,0.35952 -0.10711,0.74032 0.23845,1.13563c1.99606,2.29177 6.72275,3.78165 12.10224,4.72414c5.37949,0.94259 13.58069,2.37933 27.59192,2.461c0.2981,0.002 0.60132,0.00263 0.91256,0.00263c14.3345,0 42.5409,-1.86457 43.72429,-8.28561c5.02175,2.24872 5.73835,8.65304 5.2512,11.68111c-3.21169,19.92957 -37.92741,21.25748 -47.12616,21.25748c-1.41383,0 -2.22536,-0.03115 -2.22536,-0.03115c-42.44597,-2.65329 -46.48844,-19.01539 -46.15186,-23.65871c0.33658,-4.64321 5.55844,-9.28652 5.55844,-9.28652h0.12427c0,0.00063 0,0 0,0z" fill="#000000"/></g></g></g></svg>