<svg version="1.1" xmlns="http://www.w3.org/2000/svg" xmlns:xlink="http://www.w3.org/1999/xlink" width="337.04636" height="150.75404" viewBox="0,0,337.04636,150.75404"><g transform="translate(-151.54617,-104.62298)"><g data-paper-data="{&quot;isPaintingLayer&quot;:true}" fill-rule="nonzero" stroke-linecap="butt" stroke-linejoin="miter" stroke-miterlimit="10" stroke-dasharray="" stroke-dashoffset="0" style="mix-blend-mode: normal"><path d="M488.45383,124.0599c-1.11876,120.0596 -1.11876,120.0596 -1.11876,120.0596l-108.51905,-61.99797z" data-paper-data="{&quot;index&quot;:null}" fill="#9c0000" stroke="#d30000" stroke-width="0.27313"/><path d="M151.54617,255.37702v-150.75404h253.00143v150.75404z" data-paper-data="{&quot;index&quot;:null}" fill="#ff1515" stroke="none" stroke-width="0"/><g data-paper-data="{&quot;index&quot;:null}"><path d="M200.67953,201.60798c-13.5121,0 -24.46581,-10.95057 -24.46581,-24.4588c0,-13.50822 10.95371,-24.4588 24.46581,-24.4588c13.5121,0 24.46581,10.95057 24.46581,24.4588c0,13.50822 -10.95371,24.4588 -24.46581,24.4588z" fill="#000000" stroke="#000000" stroke-width="0.33116"/><path d="M190.19231,179.50034c-6.25827,0 -11.33156,-5.02428 -11.33156,-11.22205c0,-6.19778 5.07333,-11.22205 11.33156,-11.22205c6.25827,0 11.33156,5.02428 11.33156,11.22205c0,6.19778 -5.07333,11.22205 -11.33156,11.22205z" fill="#ffffff" stroke="#ffffff" stroke-width="0.15266"/></g><path d="M337.27772,132.10527c-0.76687,92.4119 -0.76687,92.4119 -0.76687,92.4119l-74.38634,-47.7209z" data-paper-data="{&quot;index&quot;:null}" fill="#9c0000" stroke="#d30000" stroke-width="0.1984"/></g></g></svg>