<svg version="1.1" xmlns="http://www.w3.org/2000/svg" xmlns:xlink="http://www.w3.org/1999/xlink" width="198.81677" height="303.69758" viewBox="0,0,198.81677,303.69758"><g transform="translate(-220.59162,-28.15124)"><g data-paper-data="{&quot;isPaintingLayer&quot;:true}" fill-rule="nonzero" stroke-miterlimit="10" stroke-dasharray="" stroke-dashoffset="0" style="mix-blend-mode: normal"><path d="M324.47884,96.08384c7.5479,54.55136 -0.37535,234.07506 -0.37535,234.07506l-12.14775,1.68944c0,0 -1.68882,-186.21545 7.91808,-237.12272c1.26805,-6.71936 3.58748,-5.99634 4.605,1.35822z" fill="#6b9b1f" stroke="#7802ff" stroke-width="0" stroke-linecap="round" stroke-linejoin="round"/><path d="M416.44065,244.89265c-11.10354,36.88869 -57.11915,69.32765 -97.19474,67.87846c-42.51159,-1.53727 -88.40165,-39.38939 -97.13385,-79.24521c-16.31444,-74.46289 104.04142,-205.37466 104.04142,-205.37466c0,0 112.78364,142.00278 90.28717,216.74141z" fill="#85c227" stroke="#7802ff" stroke-width="0" stroke-linecap="round" stroke-linejoin="round"/><g fill="#6b9b1f" stroke="#7802ff" stroke-width="0" stroke-linecap="round" stroke-linejoin="round"><path d="M324.47929,96.08433c7.5479,54.55135 -0.37535,234.07506 -0.37535,234.07506l-12.14776,1.68943c0,0 -1.68882,-186.21544 7.91809,-237.12272c1.26805,-6.71935 3.58748,-5.99633 4.605,1.35823z"/><path d="M317.90352,253.90836l-2.55721,12.35147c0,0 -42.10871,-8.73752 -51.18721,-21.28505c-1.1983,-1.65619 -0.4759,-3.95581 1.41697,-4.57015c14.04007,-4.55683 52.32745,13.50373 52.32745,13.50373z"/><path d="M327.90912,151.80075l-2.55721,12.35147c0,0 -42.1087,-8.73751 -51.18721,-21.28507c-1.19829,-1.65617 -0.4759,-3.95579 1.41697,-4.57013c14.04006,-4.55682 52.32745,13.50373 52.32745,13.50373z"/><path d="M370.63299,185.25066c1.89287,0.61434 2.61526,2.91396 1.41697,4.57014c-9.0785,12.54754 -51.18722,21.28507 -51.18722,21.28507l-2.55721,-12.35148c0,0 38.28741,-18.06056 52.32746,-13.50373z"/></g><path d="M346.61879,149.35317c2.28251,9.72343 -40.68835,40.81342 -30.75694,32.43977c8.58294,-7.23669 35.57334,2.01986 42.00127,9.4616c7.49304,8.67486 10.09438,19.83523 9.59086,31.76427c-0.68127,16.13975 -9.17043,32.66531 -23.15027,40.21127c-15.21361,8.21196 -37.51248,8.41728 -51.59134,-1.68906c-13.19925,-9.47492 -19.34567,-29.54474 -17.85945,-45.95671c4.0989,-38.12247 30.19363,-61.33749 48.18261,-77.88547c6.48963,-5.96981 21.83364,4.20105 23.58323,11.65432zM305.27867,223.3569c-0.00004,9.14502 7.40386,16.55838 16.53674,16.55787c9.13241,-0.00013 16.5356,-7.41331 16.53556,-16.55787c0.00006,-9.14454 -7.40313,-16.55775 -16.53556,-16.55789c-9.13289,-0.00053 -16.5368,7.41286 -16.53674,16.55789z" fill="#1999e1" stroke="#ffffff" stroke-width="9" stroke-linecap="butt" stroke-linejoin="miter"/></g></g></svg>