<svg version="1.1" xmlns="http://www.w3.org/2000/svg" xmlns:xlink="http://www.w3.org/1999/xlink" width="204.59417" height="297.22955" viewBox="0,0,204.59417,297.22955"><defs><linearGradient x1="222.86283" y1="236.90176" x2="415.73705" y2="146.37198" gradientUnits="userSpaceOnUse" id="color-1"><stop offset="0" stop-color="#ff9900"/><stop offset="1" stop-color="#ab2100"/></linearGradient><linearGradient x1="222.86284" y1="236.90176" x2="415.73705" y2="146.37198" gradientUnits="userSpaceOnUse" id="color-2"><stop offset="0" stop-color="#000000"/><stop offset="1" stop-color="#000000" stop-opacity="0"/></linearGradient></defs><g transform="translate(-214.89515,-20.15421)"><g data-paper-data="{&quot;isPaintingLayer&quot;:true}" fill-rule="nonzero" stroke-miterlimit="10" stroke-dasharray="" stroke-dashoffset="0" style="mix-blend-mode: normal"><path d="M296.17939,65.41287c31.39132,-18.52224 58.7302,-13.67788 83.87338,17.93057c25.14318,31.60846 48.08766,89.97723 36.21547,135.3735c-11.87221,45.39627 -58.5596,77.81454 -94.43392,91.41884c-35.87431,13.6043 -60.93111,8.39298 -80.45024,-18.48105c-19.51913,-26.87401 -33.49846,-75.40841 -22.76757,-120.62027c10.73088,-45.21186 46.17158,-87.09935 77.56288,-105.62159z" fill="url(#color-1)" stroke="url(#color-2)" stroke-width="0" stroke-linecap="round" stroke-linejoin="bevel" style="mix-blend-mode: lighten"/><path d="M333.13324,73.71694l-0.08656,-51.34344c0,0 7.35149,-3.96195 10.06493,-1.29854c12.87863,12.64118 -1.15023,51.92396 -1.15023,51.92396z" fill="#502d16" stroke="#000000" stroke-width="0" stroke-linecap="round" stroke-linejoin="bevel"/><path d="M401.78013,63.99781c3.78989,7.88471 -0.68375,11.39955 -18.84855,9.82159c-18.16481,-1.57797 -25.27702,-3.51998 -35.99378,-13.29595c-10.71676,-9.77597 7.15708,-18.59493 22.59945,-17.25347c15.44236,1.34146 28.45297,12.84312 32.24288,20.72783z" fill="#008000" stroke="#000000" stroke-width="0" stroke-linecap="round" stroke-linejoin="bevel"/><path d="M349.48888,131.89092c8.51752,16.19128 -0.97029,46.16434 3.62493,65.19437c1.19857,2.42553 11.14721,-1.19557 14.00276,-0.23558c7.4514,2.50509 8.62526,20.22009 2.41959,26.98258c-4.20086,4.57778 -19.01013,0.66555 -19.01013,0.66555c0,0 3.23766,20.78827 -3.80324,26.6498c-6.88219,5.72945 -20.40884,5.49808 -27.28154,-0.24192c-6.74866,-5.63636 0.65978,-25.89407 -4.05427,-25.52282c-20.54462,1.61794 -32.51172,-0.86149 -40.19996,-1.47983c-46.58583,-3.7467 36.05024,-101.9168 54.14507,-101.51402c8.85108,0.19702 16.53208,2.61148 20.15679,9.50187zM290.72708,198.84836l30.76396,0.99834c2.05007,-44.02265 1.27104,-28.3622 2.07305,-44.97056l-0.01608,0.02283c0,-0.01565 0.01608,-0.3439 0.01608,-0.3552z" fill="#c962c4" stroke="#ffffff" stroke-width="6.5" stroke-linecap="butt" stroke-linejoin="miter"/></g></g></svg>