<svg version="1.1" xmlns="http://www.w3.org/2000/svg" xmlns:xlink="http://www.w3.org/1999/xlink" width="251.25669" height="297.73512" viewBox="0,0,251.25669,297.73512"><g transform="translate(-194.37166,-31.00744)"><g data-paper-data="{&quot;isPaintingLayer&quot;:true}" fill-rule="nonzero" stroke-miterlimit="10" stroke-dasharray="" stroke-dashoffset="0" style="mix-blend-mode: normal"><path d="M291.31277,326.47621c-26.05933,-6.05225 -55.55289,-69.8232 -28.83072,-71.10526c59.376,-2.84872 66.16545,-10.19321 68.73248,13.54022c1.89263,17.49832 -19.44615,62.31585 -39.90177,57.56504z" fill="#5a6d28" stroke="#1ce652" stroke-width="0" stroke-linecap="round" stroke-linejoin="bevel"/><path d="M396.95873,47.56681c42.88523,27.90476 53.45902,91.3476 46.40965,138.93227c-7.04937,47.58467 -31.72208,79.30671 -80.18755,92.81854c-48.46546,13.51183 -120.72124,8.81227 -151.26962,-34.95417c-30.54838,-43.76642 -19.38691,-126.59622 23.79118,-171.83042c43.17809,-45.23419 118.37111,-52.871 161.25634,-24.96622z" fill="#dcff82" stroke="#1ce652" stroke-width="0.5" stroke-linecap="round" stroke-linejoin="bevel"/><path d="M355.95454,328.39209c-26.05933,-6.05225 -55.55288,-69.82321 -28.83071,-71.10526c59.376,-2.84872 66.16545,-10.19321 68.73248,13.54021c1.89263,17.49832 -19.44615,62.31586 -39.90177,57.56505z" fill="#8caa3f" stroke="#1ce652" stroke-width="0" stroke-linecap="round" stroke-linejoin="bevel"/><path d="M346.02358,95.1688c13.03506,6.02532 22.65846,21.79675 23.23716,37.25818c1.0451,27.92289 -25.53089,59.40879 -41.06278,82.75924c-5.96103,8.96172 -26.37816,10.15469 -31.51285,0.65996c-7.88264,-14.57608 26.10134,-42.20486 26.10134,-42.20486c0,0 -30.0027,-0.7002 -36.80884,-10.93706c-10.53388,-15.84356 -8.78372,-44.37119 4.02289,-58.30326c8.14951,-8.86569 21.25123,-13.37446 34.147,-13.5598c7.73746,-0.11123 15.40066,1.33442 21.87609,4.3276zM307.82611,136.54785c-0.0004,7.92138 6.26997,14.34322 14.00522,14.34354c7.73568,0.00032 14.00673,-6.42172 14.00634,-14.34354c-0.00023,-7.92136 -6.27111,-14.3427 -14.00634,-14.34238c-7.73479,0.00032 -14.00499,6.42145 -14.00522,14.34238z" fill="#fd9b9b" stroke="#ffffff" stroke-width="7.5" stroke-linecap="butt" stroke-linejoin="miter"/></g></g></svg>