<svg version="1.1" xmlns="http://www.w3.org/2000/svg" xmlns:xlink="http://www.w3.org/1999/xlink" width="688.18769" height="425.42493" viewBox="0,0,688.18769,425.42493"><g transform="translate(23.34309,31.9617)"><g data-paper-data="{&quot;isPaintingLayer&quot;:true}" fill-rule="nonzero" stroke="#ffffff" stroke-linecap="butt" stroke-linejoin="miter" stroke-miterlimit="10" stroke-dasharray="" stroke-dashoffset="0" style="mix-blend-mode: normal"><path d="M-23.09309,393.21322v-424.92492h687.68769v424.92493z" fill-opacity="0.22745" fill="#000000" stroke-width="0.5"/><path d="M349.42716,117.96293c2.66433,11.34999 -47.4948,47.64079 -35.90204,37.86638c10.01871,-8.44726 41.52414,2.35774 49.02736,11.04436c8.74649,10.12601 11.783,23.15332 11.19525,37.07788c-0.79523,18.83965 -10.70448,38.12964 -27.0229,46.93792c-17.75858,9.58568 -43.78767,9.82535 -60.22167,-1.97161c-15.40726,-11.0599 -22.58187,-34.48707 -20.84702,-53.64447c4.78457,-44.4997 35.2445,-71.59818 56.24272,-90.91434c7.57524,-6.96845 25.48603,4.90382 27.5283,13.60387zM301.17157,204.34619c-0.00004,10.67482 8.64239,19.32831 19.30306,19.32771c10.6601,-0.00016 19.30172,-8.65342 19.30167,-19.32771c0.00007,-10.67426 -8.64154,-19.32757 -19.30167,-19.32773c-10.66066,-0.00063 -19.30313,8.65291 -19.30306,19.32773z" fill="#1999e1" stroke-width="7.5"/></g></g></svg>