<svg version="1.1" xmlns="http://www.w3.org/2000/svg" xmlns:xlink="http://www.w3.org/1999/xlink" width="198.81677" height="303.69758" viewBox="0,0,198.81677,303.69758"><g transform="translate(-220.59161,-28.15124)"><g data-paper-data="{&quot;isPaintingLayer&quot;:true}" fill-rule="nonzero" stroke-miterlimit="10" stroke-dasharray="" stroke-dashoffset="0" style="mix-blend-mode: normal"><path d="M324.47884,96.08384c7.5479,54.55136 -0.37535,234.07506 -0.37535,234.07506l-12.14775,1.68944c0,0 -1.68882,-186.21545 7.91808,-237.12272c1.26805,-6.71936 3.58748,-5.99634 4.605,1.35822z" fill="#6b9b1f" stroke="#7802ff" stroke-width="0" stroke-linecap="round" stroke-linejoin="round"/><path d="M416.44065,244.89265c-11.10354,36.88869 -57.11915,69.32765 -97.19474,67.87846c-42.51159,-1.53727 -88.40165,-39.38939 -97.13385,-79.24521c-16.31444,-74.46289 104.04142,-205.37466 104.04142,-205.37466c0,0 112.78364,142.00278 90.28717,216.74141z" fill="#85c227" stroke="#7802ff" stroke-width="0" stroke-linecap="round" stroke-linejoin="round"/><g fill="#6b9b1f" stroke="#7802ff" stroke-width="0" stroke-linecap="round" stroke-linejoin="round"><path d="M324.47929,96.08433c7.5479,54.55135 -0.37535,234.07506 -0.37535,234.07506l-12.14776,1.68943c0,0 -1.68882,-186.21544 7.91809,-237.12272c1.26805,-6.71935 3.58748,-5.99633 4.605,1.35823z"/><path d="M317.90352,253.90836l-2.55721,12.35147c0,0 -42.10871,-8.73752 -51.18721,-21.28505c-1.1983,-1.65619 -0.4759,-3.95581 1.41697,-4.57015c14.04007,-4.55683 52.32745,13.50373 52.32745,13.50373z"/><path d="M327.90912,151.80075l-2.55721,12.35147c0,0 -42.1087,-8.73751 -51.18721,-21.28507c-1.19829,-1.65617 -0.4759,-3.95579 1.41697,-4.57013c14.04006,-4.55682 52.32745,13.50373 52.32745,13.50373z"/><path d="M370.63299,185.25066c1.89287,0.61434 2.61526,2.91396 1.41697,4.57014c-9.0785,12.54754 -51.18722,21.28507 -51.18722,21.28507l-2.55721,-12.35148c0,0 38.28741,-18.06056 52.32746,-13.50373z"/></g><path d="M290.06533,152.99054c13.47042,-5.40087 44.49498,-5.32696 67.87528,-2.94944c7.0901,0.72098 5.24787,19.01081 2.73082,27.47539c-3.56019,11.97241 -30.34602,-0.08006 -42.8087,-0.30009c-4.65611,-0.0822 -4.62522,16.39964 0,15.90492c13.76513,-1.47233 31.96714,-2.37259 39.51573,7.80243c7.09602,9.56501 7.99689,23.84249 5.59804,37.51158c-2.28199,13.00317 -17.64175,24.81683 -31.94188,26.70827c-17.53096,2.31876 -46.42909,4.44095 -54.66341,-10.80333c-4.07673,-7.54728 3.37043,-19.49306 11.85471,-22.80706c9.98598,-3.90057 22.27712,15.26149 30.95398,9.30289c8.65341,-5.9425 4.62066,-30.51449 -1.27724,-29.59996c-10.93142,1.69501 -30.4438,8.73416 -33.95761,-2.50997c-3.80905,-12.18886 -8.6505,-49.81336 6.12027,-55.73561z" fill="#4fe3e4" stroke="#ffffff" stroke-width="9" stroke-linecap="butt" stroke-linejoin="miter"/></g></g></svg>