<svg version="1.1" xmlns="http://www.w3.org/2000/svg" xmlns:xlink="http://www.w3.org/1999/xlink" width="192.72443" height="289.37229" viewBox="0,0,192.72443,289.37229"><g transform="translate(-223.64862,-35.31385)"><g data-paper-data="{&quot;isPaintingLayer&quot;:true}" fill-rule="nonzero" stroke-miterlimit="10" stroke-dasharray="" stroke-dashoffset="0" style="mix-blend-mode: normal"><g fill="#c87137" stroke="#c87137" stroke-width="0.26459" stroke-linecap="butt" stroke-linejoin="miter"><path d="M318.64678,204.8005l0.75082,-2.41349l-0.25028,118.74431c0,0 10.7617,2.8962 -10.76169,3.3789c-21.52339,0.4827 -0.50054,-0.96539 0,-118.74431z"/><path d="M328.28809,205.67772c0.50054,117.77892 21.52339,119.22701 0,118.74431c-21.52339,-0.4827 -10.7617,-3.3789 -10.7617,-3.3789l-0.25027,-118.74431l0.75081,2.41349z"/></g><g fill="#4eb632" stroke="#4eb632" stroke-linecap="butt" stroke-linejoin="miter"><path d="M354.46145,152.59693c-15.23764,-17.94434 -16.52464,-42.25661 -2.87456,-54.30299c13.65008,-12.04638 37.06821,-7.26513 52.30586,10.6792c15.23764,17.94434 16.52463,42.25661 2.87455,54.30299c-13.65008,12.04638 -37.0682,7.26513 -52.30585,-10.6792z" stroke-width="0.30795"/><path d="M326.40191,217.59768c-12.90559,-11.96028 -13.63727,-33.20853 -1.63424,-47.45931c12.00303,-14.25078 32.19546,-16.10761 45.10105,-4.14733c12.90559,11.96028 13.63727,33.20854 1.63424,47.45932c-12.00303,14.25078 -32.19546,16.1076 -45.10105,4.14732z" stroke-width="0.30123"/><path d="M252.86706,190.76599c-2.06872,-20.83118 11.32872,-39.36536 29.92401,-41.39725c18.59529,-2.03189 35.34677,13.20795 37.41548,34.03913c2.06872,20.83118 -11.32872,39.36536 -29.92401,41.39725c-18.59529,2.03189 -35.34677,-13.20795 -37.41548,-34.03913z" stroke-width="0.26459"/><path d="M340.82016,176.64946c-1.81645,-18.29096 12.45671,-34.83922 31.87998,-36.96159c19.42327,-2.12236 36.64147,10.98487 38.45791,29.27583c1.81645,18.29096 -12.45671,34.83922 -31.87998,36.96159c-19.42327,2.12236 -36.64147,-10.98487 -38.45791,-29.27583z" stroke-width="0.3853"/><path d="M284.24849,154.06211c-1.54213,-15.5287 7.89156,-29.28462 21.07075,-30.72469c13.17919,-1.44007 25.11318,9.981 26.65531,25.5097c1.54213,15.5287 -7.89156,29.28462 -21.07075,30.72469c-13.17919,1.44007 -25.11318,-9.981 -26.65531,-25.5097z" stroke-width="0.26459"/><path d="M284.39148,148.84725c-2.35082,-23.6718 12.13513,-44.65268 32.35525,-46.86212c20.22012,-2.20943 38.51747,15.18924 40.86829,38.86105c2.35082,23.6718 -12.13513,44.65269 -32.35526,46.86213c-20.22012,2.20943 -38.51746,-15.18925 -40.86828,-38.86105z" stroke-width="0.26459"/><path d="M234.62228,133.48868c-2.35082,-23.6718 12.13513,-44.65268 32.35526,-46.86212c20.22012,-2.20943 38.51746,15.18924 40.86828,38.86105c2.35082,23.6718 -12.13513,44.65268 -32.35525,46.86212c-20.22012,2.20943 -38.51747,-15.18924 -40.86829,-38.86105z" stroke-width="0.26459"/><path d="M257.09592,93.59874c-2.35082,-23.6718 12.13513,-44.65268 32.35525,-46.86212c20.22012,-2.20943 38.51747,15.18924 40.86829,38.86105c2.35082,23.6718 -12.13513,44.65268 -32.35526,46.86212c-20.22012,2.20943 -38.51746,-15.18924 -40.86828,-38.86105z" stroke-width="0.26459"/><path d="M301.59391,82.49745c-2.35082,-23.6718 12.13513,-44.65269 32.35525,-46.86213c20.22012,-2.20943 38.51747,15.18925 40.86829,38.86105c2.35082,23.6718 -12.13513,44.65268 -32.35525,46.86212c-20.22012,2.20943 -38.51747,-15.18924 -40.86829,-38.86105z" stroke-width="0.26459"/><path d="M223.99163,166.1921c-2.06872,-20.83118 11.32871,-39.36537 29.924,-41.39726c18.59529,-2.03189 35.34678,13.20795 37.41549,34.03913c2.06872,20.83118 -11.32872,39.36537 -29.92401,41.39726c-18.59529,2.03189 -35.34677,-13.20795 -37.41548,-34.03913z" stroke-width="0.26459"/><path d="M225.10836,117.54418c-2.06872,-20.83118 11.32871,-39.36536 29.924,-41.39725c18.59529,-2.03189 35.34678,13.20795 37.41549,34.03913c2.06872,20.83118 -11.32872,39.36536 -29.92401,41.39725c-18.59529,2.03189 -35.34677,-13.20795 -37.41548,-34.03913z" stroke-width="0.26459"/><path d="M352.13917,92.572c-2.06991,-20.84318 9.28688,-39.16421 25.36609,-40.92117c16.07921,-1.75696 30.79197,13.71547 32.86188,34.55866c2.06991,20.84318 -9.28688,39.1642 -25.36609,40.92116c-16.07921,1.75696 -30.79197,-13.71547 -32.86188,-34.55865z" stroke-width="0.24611"/></g><g stroke="#000000" stroke-width="0" stroke-linecap="round" stroke-linejoin="bevel"><path d="M290.90864,124.15047c0,0 -0.41838,0.40901 -0.74142,1.24232c-2.83077,7.30196 -4.62739,10.8764 -16.84546,12.66093c0,0 -12.86534,-8.93367 -4.29476,-22.84833c9.62254,3.61117 14.45591,5.66008 21.88165,8.94508z" fill="#aa4400"/><path d="M282.3566,112.67302c1.87275,1.12403 7.91615,2.58659 9.29604,6.04427c1.01918,2.55383 0.98225,7.05943 -1.85462,8.09315c-2.15326,1.48038 -5.69796,-1.17887 -10.79565,-4.20301c-0.94842,-0.56264 -9.56454,-0.98538 -11.08023,-3.8397c-1.35372,-2.54931 -1.05158,-6.14815 3.33867,-7.76743c3.13376,-1.15584 8.34113,0.01936 11.09579,1.67272z" fill="#803300"/><path d="M283.79785,109.34946c0.88302,-0.25455 4.36601,1.14982 4.73627,1.8791c0.26668,0.52526 -0.28573,1.40915 -0.87037,1.46036c-0.56272,0.04929 -1.73473,-1.52629 -2.93718,-1.11342c-0.90443,0.31055 -2.01608,4.5666 -2.75766,4.70893c-0.63371,0.12163 -1.44909,-0.15613 -1.30047,-0.6808c0.27387,-0.96683 1.90166,-5.90024 3.12941,-6.25417z" fill="#aa4400"/></g></g></g></svg>