<svg version="1.1" xmlns="http://www.w3.org/2000/svg" xmlns:xlink="http://www.w3.org/1999/xlink" width="77.8967" height="60" viewBox="0,0,77.8967,60"><g transform="translate(-260.00001,-149.73568)"><g data-paper-data="{&quot;isPaintingLayer&quot;:true}" fill-rule="nonzero" stroke-linecap="butt" stroke-linejoin="miter" stroke-miterlimit="10" stroke-dasharray="" stroke-dashoffset="0" style="mix-blend-mode: normal"><path d="M319.99976,149.73568v20.63975c1.74074,-0.89966 3.67642,-1.37451 5.64344,-1.38441c3.24988,-0.00002 6.36665,1.26794 8.66464,3.52493c2.29799,2.25699 3.58895,5.31812 3.58887,8.50996c-0.00005,6.64651 -5.48613,12.03454 -12.2535,12.03449c-1.96699,-0.00978 -3.90267,-0.48449 -5.64344,-1.38402v18.0593h-59.99976v-60z" fill="#cca676" stroke="none" stroke-width="0.11881"/><path d="M278.80162,162.41534c6.93431,-2.55276 27.24849,-3.67559 24.82052,3.98439c-3.0966,9.76943 -9.47996,23.77141 -13.44905,34.02159c-1.05984,2.73706 -8.60709,1.5564 -8.46683,-1.38731c0.31877,-6.69001 7.56134,-19.07857 9.70121,-25.60166c1.48253,-4.5193 -5.41086,-2.29011 -10.50624,-2.30433c-2.53873,-0.0071 -4.85255,-7.69924 -2.09961,-8.71269z" fill="#faec1f" stroke="#ffffff" stroke-width="3.5"/></g></g></svg>