<svg version="1.1" xmlns="http://www.w3.org/2000/svg" xmlns:xlink="http://www.w3.org/1999/xlink" width="178.80602" height="299.28923" viewBox="0,0,178.80602,299.28923"><g transform="translate(-230.59699,-30.56253)"><g data-paper-data="{&quot;isPaintingLayer&quot;:true}" fill-rule="nonzero" stroke-miterlimit="10" stroke-dasharray="" stroke-dashoffset="0" style="mix-blend-mode: normal"><g fill="#9e5423" stroke="#9e5423" stroke-width="0.26458" stroke-linecap="butt" stroke-linejoin="miter"><path d="M321.78085,198.64122l0.77314,-2.63947l-0.25772,129.86272c0,0 11.08169,3.16737 -11.08169,3.69528c-22.16337,0.52791 -0.51543,-1.05578 0,-129.86272z"/><path d="M330.66647,199.80904c0.51543,128.80693 22.16337,130.39061 0,129.86272c-22.16337,-0.52791 -11.08169,-3.69528 -11.08169,-3.69528l-0.25772,-129.86272l0.77314,2.63947z"/></g><g fill="#49aa2e" stroke="#49aa2e" stroke-linecap="butt" stroke-linejoin="miter"><path d="M303.023,149.04641c0,-19.90178 15.23825,-36.03538 34.03559,-36.03538c18.79733,0 34.03559,16.13358 34.03559,36.03538c0,19.90178 -15.23825,36.03538 -34.03559,36.03538c-18.79733,0 -34.03559,-16.13358 -34.03559,-36.03538z" stroke-width="0.31572"/><path d="M241.12592,162.93287c0,-20.09884 18.02867,-36.39216 40.26816,-36.39216c22.23949,0 40.26816,16.29333 40.26816,36.39216c0,20.09884 -18.02867,36.39216 -40.26816,36.39216c-22.23949,0 -40.26816,-16.29333 -40.26816,-36.39216z" stroke-width="0.34511"/><path d="M335.68293,168.82523c0,-19.90178 15.23825,-36.03538 34.03559,-36.03538c18.79733,0 34.03559,16.13358 34.03559,36.03538c0,19.90178 -15.23825,36.03538 -34.03559,36.03538c-18.79733,0 -34.03559,-16.13358 -34.03559,-36.03538z" stroke-width="0.31572"/><path d="M260.05622,112.21842c0,-19.90178 15.23825,-36.03538 34.03559,-36.03538c18.79733,0 34.03559,16.13358 34.03559,36.03538c0,19.90178 -15.23825,36.03538 -34.03559,36.03538c-18.79733,0 -34.03559,-16.13358 -34.03559,-36.03538z" stroke-width="0.31572"/><path d="M300.38362,103.44416c0,-19.90178 15.23825,-36.03538 34.03559,-36.03538c18.79733,0 34.03559,16.13358 34.03559,36.03538c0,19.90178 -15.23825,36.03538 -34.03559,36.03538c-18.79733,0 -34.03559,-16.13358 -34.03559,-36.03538z" stroke-width="0.31572"/><path d="M341.17397,115.65561c0,-19.90178 15.23825,-36.03538 34.03559,-36.03538c18.79733,0 34.03559,16.13358 34.03559,36.03538c0,19.90178 -15.23825,36.03538 -34.03559,36.03538c-18.79733,0 -34.03559,-16.13358 -34.03559,-36.03538z" stroke-width="0.31572"/><path d="M291.04853,173.46684c0,-19.90178 15.23825,-36.03538 34.03559,-36.03538c18.79733,0 34.03559,16.13358 34.03559,36.03538c0,19.90178 -15.23825,36.03538 -34.03559,36.03538c-18.79733,0 -34.03559,-16.13358 -34.03559,-36.03538z" stroke-width="0.31572"/><path d="M230.75485,124.16262c0,-19.90178 15.23825,-36.03538 34.03559,-36.03538c18.79733,0 34.03559,16.13358 34.03559,36.03538c0,19.90178 -15.23825,36.03538 -34.03559,36.03538c-18.79733,0 -34.03559,-16.13358 -34.03559,-36.03538z" stroke-width="0.31572"/><path d="M240.77092,83.90484c0,-19.86548 20.29884,-35.96963 45.33874,-35.96963c25.0399,0 45.33874,16.10415 45.33874,35.96963c0,19.86548 -20.29884,35.96963 -45.33874,35.96963c-25.0399,0 -45.33874,-16.10415 -45.33874,-35.96963z" stroke-width="0.36407"/><path d="M305.22572,54.61676c5.75027,-18.99999 28.98596,-28.64394 51.89837,-21.54039c22.9124,7.10356 36.82507,28.26465 31.0748,47.26464c-5.75027,18.99999 -28.98596,28.64394 -51.89837,21.54039c-22.9124,-7.10356 -36.82507,-28.26465 -31.0748,-47.26464z" stroke-width="0.35621"/></g><g stroke="#000000" stroke-width="0" stroke-linecap="round" stroke-linejoin="bevel"><path d="M379.65966,114.129c0,0 0.02749,0.61276 0.45327,1.44737c3.73083,7.31342 5.27012,11.21469 -1.86936,22.01246c0,0 -15.97035,3.81694 -20.86119,-12.60254c9.54444,-4.99979 14.52232,-7.34698 22.27729,-10.85729z" fill="#aa4400"/><path d="M364.71365,112.79723c2.18684,-0.67884 7.55157,-4.38153 11.21841,-3.04499c2.70832,0.98716 6.20469,4.16325 5.03119,7.10299c-0.34683,2.71734 -4.90167,3.63081 -10.82653,5.50343c-1.10232,0.3484 -7.45127,6.7886 -10.74131,5.97967c-2.93847,-0.72249 -5.54074,-3.47251 -3.73993,-8.0356c1.28542,-3.25713 5.84153,-6.50699 9.05818,-7.5055z" fill="#803300"/><path d="M363.12226,109.34901c0.41781,-0.86809 3.94857,-2.60988 4.7773,-2.38991c0.59689,0.15843 0.90199,1.20768 0.53364,1.70048c-0.35453,0.47433 -2.40489,0.28996 -2.92206,1.51835c-0.38899,0.92394 2.16159,4.76587 1.75485,5.445c-0.34757,0.58035 -1.13426,1.02374 -1.4406,0.54107c-0.5645,-0.88944 -3.28406,-5.60799 -2.70314,-6.81498z" fill="#aa4400"/></g></g></g></svg>