<svg version="1.1" xmlns="http://www.w3.org/2000/svg" xmlns:xlink="http://www.w3.org/1999/xlink" width="142.64382" height="207.22957" viewBox="0,0,142.64382,207.22957"><defs><linearGradient x1="-12.76682" y1="226.50243" x2="121.70581" y2="163.38473" gradientUnits="userSpaceOnUse" id="color-1"><stop offset="0" stop-color="#ff9900"/><stop offset="1" stop-color="#ab2100"/></linearGradient><linearGradient x1="-12.7668" y1="226.50243" x2="121.70581" y2="163.38473" gradientUnits="userSpaceOnUse" id="color-2"><stop offset="0" stop-color="#000000"/><stop offset="1" stop-color="#000000" stop-opacity="0"/></linearGradient></defs><g transform="translate(18.3219,-75.38522)"><g data-paper-data="{&quot;isPaintingLayer&quot;:true}" fill-rule="nonzero" stroke-width="0" stroke-linecap="round" stroke-linejoin="bevel" stroke-miterlimit="10" stroke-dasharray="" stroke-dashoffset="0" style="mix-blend-mode: normal"><g><path d="M38.34977,106.93974c21.88615,-12.91377 40.94691,-9.53627 58.47683,12.50126c17.52992,22.03754 33.5269,62.73246 25.24956,94.38291c-8.27735,31.65045 -40.82797,54.25259 -65.83968,63.73756c-25.0117,9.48497 -42.4814,5.85162 -56.09021,-12.88506c-13.60881,-18.73666 -23.35525,-52.57502 -15.87363,-84.0969c7.48161,-31.52188 32.191,-60.72599 54.07713,-73.63977z" fill="url(#color-1)" stroke="url(#color-2)" style="mix-blend-mode: lighten"/><path d="M64.11413,112.72936l-0.06035,-35.79684c0,0 5.12549,-2.76229 7.01731,-0.90535c8.97903,8.81348 -0.80194,36.20158 -0.80194,36.20158z" fill="#502d16" stroke="#000000"/><path d="M111.97499,105.95315c2.64233,5.49725 -0.47671,7.94781 -13.14128,6.84765c-12.66457,-1.10017 -17.62323,-2.45414 -25.095,-9.26999c-7.47177,-6.81584 4.98994,-12.96445 15.75642,-12.02918c10.76647,0.93527 19.83752,8.95427 22.47986,14.45152z" fill="#008000" stroke="#000000"/></g></g></g></svg>