<svg version="1.1" xmlns="http://www.w3.org/2000/svg" xmlns:xlink="http://www.w3.org/1999/xlink" width="646.07743" height="454.69173" viewBox="0,0,646.07743,454.69173"><g transform="translate(4.94614,73.90081)"><g data-paper-data="{&quot;isPaintingLayer&quot;:true}" fill-rule="nonzero" stroke-linecap="butt" stroke-linejoin="miter" stroke-miterlimit="10" stroke-dasharray="" stroke-dashoffset="0" style="mix-blend-mode: normal"><path d="M-4.77418,380.61896v-392.13361h645.73351v392.13361z" fill="#6eb15b" stroke="#7ea723" stroke-width="0.34392"/><path d="M27.35105,-73.11414c-0.10701,-0.6003 0.73116,-1.0411 0.85237,-0.45409c0.44197,2.14052 0.80443,7.94136 0.58784,10.8334c-0.03297,0.44018 -1.34929,0.37571 -1.32264,-0.0649c0.14202,-2.34767 0.40354,-7.39109 -0.11757,-10.31444z" fill="#549f4d" stroke="#4e8846" stroke-width="0.11201"/><path d="M30.44377,-71.65601c-0.41623,2.60239 -0.22164,6.58334 -0.09391,9.18199c0.01731,0.35225 -1.05644,0.05777 -1.05644,0.05777c0,0 0.11651,-7.73847 0.46953,-9.64397c0.09681,-0.52256 0.76629,-0.13016 0.68082,0.40423z" fill="#549f4d" stroke="#4e8846" stroke-width="0.09445"/><path d="M26.79294,-69.82982c-0.33033,2.10536 0.19192,5.22525 -0.07453,7.42831c-0.03361,0.27788 -0.83842,0.04674 -0.83842,0.04674c0,0 0.09247,-6.26049 0.37263,-7.80206c0.07683,-0.42276 0.60815,-0.1053 0.54032,0.32703z" fill="#549f4d" stroke="#4e8846" stroke-width="0.07568"/><g fill="#549f4d" stroke="#4e8846"><path d="M554.02162,38.64777c0.4066,-1.88833 0.20255,-5.14612 0.09174,-6.6626c-0.02079,-0.28461 1.00628,-0.32625 1.032,-0.04192c0.169,1.86811 -0.11382,5.61515 -0.45867,6.99782c-0.09458,0.37918 -0.74857,0.09444 -0.66507,-0.29332z" stroke-width="0.11201"/><path d="M556.43474,37.70585c0.06669,0.34519 -0.45568,0.59866 -0.53121,0.26111c-0.27544,-1.23086 -0.36635,-6.22951 -0.36635,-6.22951c0,0 0.8378,-0.19022 0.82429,0.03732c-0.09967,1.67859 -0.25149,4.25008 0.07327,5.93109z" stroke-width="0.09445"/><path d="M553.58615,36.52623c0.05293,0.27926 -0.36164,0.48432 -0.42159,0.21124c-0.2186,-0.99578 -0.29075,-5.03973 -0.29075,-5.03973c0,0 0.62796,-0.14931 0.65419,0.03019c0.2079,1.42307 -0.19959,3.43836 0.05815,4.79831z" stroke-width="0.07568"/><g><path d="M558.97511,48.76652c-0.0835,-0.38776 0.57049,-0.6725 0.66507,-0.29332c0.34485,1.38267 0.62767,5.12971 0.45867,6.99782c-0.02572,0.28433 -1.0528,0.24269 -1.032,-0.04192c0.11081,-1.51647 0.31487,-4.77426 -0.09174,-6.6626z" stroke-width="0.11201"/><path d="M561.38824,49.7084c-0.32477,1.68101 -0.17294,4.2525 -0.07327,5.93109c0.01351,0.22753 -0.82429,0.03732 -0.82429,0.03732c0,0 0.09091,-4.99865 0.36635,-6.22951c0.07554,-0.33755 0.5979,-0.08407 0.53121,0.26111z" stroke-width="0.09445"/><path d="M558.53964,50.88803c-0.25775,1.35995 0.14975,3.37524 -0.05815,4.79831c-0.02622,0.1795 -0.65419,0.03019 -0.65419,0.03019c0,0 0.07215,-4.04395 0.29075,-5.03973c0.05995,-0.27308 0.47452,-0.06802 0.42159,0.21124z" stroke-width="0.07568"/></g><g><path d="M527.80501,81.7419c-0.07813,-0.37392 0.53383,-0.64848 0.62233,-0.28284c0.32269,1.33329 0.58733,4.94653 0.42919,6.74793c-0.02407,0.27418 -0.98513,0.23402 -0.96568,-0.04043c0.10369,-1.46232 0.29463,-4.60378 -0.08584,-6.42468z" stroke-width="0.11201"/><path d="M530.06305,82.65015c-0.30389,1.62098 -0.16183,4.10065 -0.06856,5.7193c0.01264,0.21941 -0.77132,0.03598 -0.77132,0.03598c0,0 0.08507,-4.82015 0.34281,-6.00706c0.07068,-0.32549 0.55948,-0.08107 0.49707,0.25179z" stroke-width="0.09445"/><path d="M527.39753,83.78765c-0.24118,1.31139 0.14013,3.25471 -0.05442,4.62696c-0.02454,0.17309 -0.61214,0.02911 -0.61214,0.02911c0,0 0.06751,-3.89955 0.27206,-4.85977c0.05609,-0.26333 0.44402,-0.06559 0.39449,0.2037z" stroke-width="0.07568"/></g><g><path d="M571.22991,106.31454c-0.08332,-0.46238 0.56927,-0.8019 0.66364,-0.34976c0.34411,1.64873 0.62632,6.1168 0.45768,8.34438c-0.02567,0.33905 -1.05053,0.28939 -1.02979,-0.04999c0.11058,-1.80828 0.31419,-5.69296 -0.09154,-7.94465z" stroke-width="0.11201"/><path d="M573.63786,107.43766c-0.32407,2.00448 -0.17257,5.07079 -0.07312,7.07239c0.01348,0.27132 -0.82252,0.0445 -0.82252,0.0445c0,0 0.09071,-5.96052 0.36557,-7.42823c0.07537,-0.4025 0.59662,-0.10025 0.53007,0.31136z" stroke-width="0.09445"/><path d="M570.79538,108.84428c-0.25719,1.62164 0.14943,4.02473 -0.05803,5.72163c-0.02617,0.21404 -0.65278,0.036 -0.65278,0.036c0,0 0.072,-4.82211 0.29013,-6.0095c0.05982,-0.32563 0.4735,-0.08111 0.42068,0.25189z" stroke-width="0.07568"/></g><g><path d="M558.10285,158.74308c-0.08857,-0.34894 0.60517,-0.60516 0.70549,-0.26395c0.36581,1.24422 0.66582,4.61605 0.48654,6.29711c-0.02729,0.25586 -1.11678,0.21839 -1.09473,-0.03772c0.11755,-1.36463 0.334,-4.2962 -0.09731,-5.99545z" stroke-width="0.11201"/><path d="M560.66265,159.59065c-0.3445,1.51268 -0.18345,3.82668 -0.07773,5.3372c0.01433,0.20475 -0.87439,0.03358 -0.87439,0.03358c0,0 0.09643,-4.49812 0.38862,-5.60573c0.08013,-0.30375 0.63424,-0.07566 0.5635,0.23497z" stroke-width="0.09445"/><path d="M557.64092,160.65215c-0.27341,1.22378 0.15885,3.03727 -0.06169,4.31784c-0.02782,0.16153 -0.69395,0.02717 -0.69395,0.02717c0,0 0.07654,-3.63902 0.30842,-4.53509c0.06359,-0.24573 0.50336,-0.06121 0.44721,0.19009z" stroke-width="0.07568"/></g><g><path d="M605.49896,133.72857c-0.49912,2.19796 -0.24864,5.98992 -0.11261,7.75504c0.02553,0.33127 -1.23526,0.37975 -1.26683,0.0488c-0.20745,-2.17442 0.13972,-6.53585 0.56304,-8.14523c0.1161,-0.44135 0.9189,-0.10993 0.8164,0.34141z" stroke-width="0.11201"/><path d="M602.53673,134.82493c-0.08187,-0.40179 0.55936,-0.69682 0.65209,-0.30393c0.33812,1.43268 0.44972,7.25094 0.44972,7.25094c0,0 -1.02844,0.22141 -1.01186,-0.04344c0.12235,-1.95383 0.30872,-4.94696 -0.08995,-6.9036z" stroke-width="0.09445"/><path d="M606.03352,136.19797c-0.06497,-0.32505 0.44393,-0.56374 0.51752,-0.24588c0.26834,1.15905 0.35691,5.86608 0.35691,5.86608c0,0 -0.77086,0.17379 -0.80305,-0.03514c-0.25521,-1.6564 0.24501,-4.00213 -0.07139,-5.58507z" stroke-width="0.07568"/></g><g><path d="M517.86655,185.79705c-0.0881,-0.46228 0.60198,-0.80173 0.70178,-0.34968c0.36388,1.64836 0.66231,6.11545 0.48398,8.34255c-0.02714,0.33897 -1.1109,0.28932 -1.08896,-0.04998c0.11693,-1.80789 0.33224,-5.6917 -0.0968,-7.94291z" stroke-width="0.11201"/><path d="M520.41287,186.91992c-0.34269,2.00404 -0.18249,5.06967 -0.07732,7.07083c0.01425,0.27126 -0.86979,0.04449 -0.86979,0.04449c0,0 0.09593,-5.95921 0.38657,-7.42659c0.07971,-0.40241 0.6309,-0.10023 0.56053,0.31129z" stroke-width="0.09445"/><path d="M517.40705,188.32623c-0.27197,1.62128 0.15801,4.02384 -0.06136,5.72037c-0.02767,0.21399 -0.6903,0.03599 -0.6903,0.03599c0,0 0.07613,-4.82105 0.3068,-6.00818c0.06326,-0.32555 0.50071,-0.08109 0.44486,0.25184z" stroke-width="0.07568"/></g><g><path d="M484.3164,133.74245c-0.10716,-0.51512 0.73221,-0.89337 0.85359,-0.38966c0.4426,1.83679 0.80559,6.8145 0.58868,9.29617c-0.03301,0.37772 -1.35123,0.32239 -1.32454,-0.05569c0.14223,-2.01454 0.40412,-6.34231 -0.11774,-8.85085z" stroke-width="0.11201"/><path d="M487.41356,134.99368c-0.41683,2.23312 -0.22196,5.64918 -0.09404,7.87909c0.01733,0.30226 -1.05795,0.04957 -1.05795,0.04957c0,0 0.11668,-6.6404 0.4702,-8.27552c0.09695,-0.44841 0.76739,-0.11169 0.68179,0.34687z" stroke-width="0.09445"/><path d="M483.75749,136.56074c-0.33081,1.80661 0.1922,4.4838 -0.07464,6.37426c-0.03366,0.23845 -0.83963,0.04011 -0.83963,0.04011c0,0 0.0926,-5.37214 0.37317,-6.69497c0.07694,-0.36277 0.60903,-0.09036 0.54109,0.28062z" stroke-width="0.07568"/></g><g><path d="M396.05375,62.95537c-0.10701,-0.6003 0.73116,-1.0411 0.85237,-0.45409c0.44197,2.14052 0.80443,7.94136 0.58784,10.8334c-0.03297,0.44018 -1.34929,0.37571 -1.32264,-0.0649c0.14202,-2.34767 0.40354,-7.39109 -0.11757,-10.31444z" stroke-width="0.11201"/><path d="M400.05359,64.55969c-0.78141,2.51695 -1.15388,6.48522 -1.39631,9.07569c-0.03287,0.35114 -1.05394,-0.09277 -1.05394,-0.09277c0,0 1.21378,-7.64357 1.83371,-9.47967c0.17001,-0.50353 0.777,-0.02007 0.61654,0.49678z" stroke-width="0.09445"/><path d="M395.49564,66.2397c-0.33033,2.10536 0.19192,5.22525 -0.07453,7.42831c-0.03361,0.27788 -0.83842,0.04674 -0.83842,0.04674c0,0 0.09247,-6.26049 0.37263,-7.80206c0.07683,-0.42276 0.60815,-0.1053 0.54032,0.32703z" stroke-width="0.07568"/></g><g><path d="M475.43018,50.15255c-0.09587,-0.51018 0.65502,-0.88481 0.76361,-0.38592c0.39595,1.81919 0.72067,6.74922 0.52663,9.20712c-0.02953,0.3741 -1.20879,0.31931 -1.18491,-0.05516c0.12723,-1.99525 0.36152,-6.28156 -0.10533,-8.76606z" stroke-width="0.11201"/><path d="M479.01351,51.51603c-0.70004,2.13911 -1.03373,5.51167 -1.25091,7.71326c-0.02945,0.29843 -0.94419,-0.07884 -0.94419,-0.07884c0,0 1.08739,-6.49613 1.64276,-8.05661c0.1523,-0.42794 0.69609,-0.01706 0.55234,0.4222z" stroke-width="0.09445"/><path d="M474.93019,52.94384c-0.29594,1.7893 0.17194,4.44085 -0.06677,6.31319c-0.03011,0.23617 -0.75112,0.03972 -0.75112,0.03972c0,0 0.08284,-5.32068 0.33383,-6.63084c0.06883,-0.35929 0.54483,-0.08949 0.48405,0.27794z" stroke-width="0.07568"/></g><g><path d="M415.95067,122.42695c-0.52111,2.92335 -0.25959,7.96677 -0.11757,10.31444c0.02665,0.44061 -1.28967,0.50508 -1.32264,0.0649c-0.21659,-2.89204 0.14587,-8.69288 0.58784,-10.8334c0.12121,-0.58701 0.95938,-0.14621 0.85237,0.45409z" stroke-width="0.11201"/><path d="M411.95084,124.03132c-0.16046,-0.51685 0.44654,-1.00031 0.61654,-0.49678c0.61992,1.8361 1.83371,9.47967 1.83371,9.47967c0,0 -1.02107,0.44391 -1.05394,0.09277c-0.24243,-2.59047 -0.6149,-6.55873 -1.39631,-9.07569z" stroke-width="0.09445"/><path d="M416.50878,125.71132c-0.06783,-0.43233 0.46349,-0.74979 0.54032,-0.32703c0.28016,1.54157 0.37263,7.80206 0.37263,7.80206c0,0 -0.80481,0.23114 -0.83842,-0.04674c-0.26645,-2.20307 0.2558,-5.32296 -0.07453,-7.42831z" stroke-width="0.07568"/></g><g><path d="M418.73983,188.6569c-0.05544,-0.44173 0.37879,-0.76609 0.44159,-0.33414c0.22897,1.5751 0.41675,5.84363 0.30454,7.97173c-0.01708,0.3239 -0.69903,0.27646 -0.68522,-0.04776c0.07358,-1.72753 0.20906,-5.43871 -0.06091,-7.58985z" stroke-width="0.11201"/><path d="M420.81203,189.83743c-0.40483,1.85209 -0.59779,4.77213 -0.72339,6.67832c-0.01703,0.25838 -0.54602,-0.06826 -0.54602,-0.06826c0,0 0.62883,-5.6245 0.94999,-6.97559c0.08808,-0.37052 0.40254,-0.01477 0.31941,0.36555z" stroke-width="0.09445"/><path d="M418.45069,191.07366c-0.17114,1.54922 0.09943,3.84499 -0.03861,5.4661c-0.01741,0.20448 -0.43436,0.03439 -0.43436,0.03439c0,0 0.04791,-4.60676 0.19305,-5.74113c0.0398,-0.31108 0.31507,-0.07748 0.27992,0.24064z" stroke-width="0.07568"/></g><g><path d="M305.8394,113.65787c-0.10701,-0.6003 0.73116,-1.0411 0.85237,-0.45409c0.44197,2.14052 0.80443,7.94136 0.58784,10.8334c-0.03297,0.44018 -1.34929,0.37571 -1.32264,-0.0649c0.14202,-2.34767 0.40354,-7.39109 -0.11757,-10.31444z" stroke-width="0.11201"/><path d="M309.83924,115.26219c-0.78141,2.51695 -1.15388,6.48522 -1.39631,9.07569c-0.03287,0.35114 -1.05394,-0.09277 -1.05394,-0.09277c0,0 1.21378,-7.64357 1.83371,-9.47967c0.17001,-0.50353 0.777,-0.02007 0.61654,0.49678z" stroke-width="0.09445"/><path d="M305.28129,116.9422c-0.33033,2.10536 0.19192,5.22525 -0.07453,7.42831c-0.03361,0.27788 -0.83842,0.04674 -0.83842,0.04674c0,0 0.09247,-6.26049 0.37263,-7.80206c0.07683,-0.42276 0.60815,-0.1053 0.54032,0.32703z" stroke-width="0.07568"/></g><g><path d="M336.68818,164.6757c-0.07934,-0.44117 0.54209,-0.76512 0.63196,-0.33372c0.32768,1.57309 0.59642,5.83619 0.43583,7.96158c-0.02444,0.32349 -1.00038,0.27611 -0.98062,-0.0477c0.1053,-1.72533 0.29919,-5.43179 -0.08717,-7.58019z" stroke-width="0.11201"/><path d="M339.65371,165.85472c-0.57935,1.84974 -0.85551,4.76606 -1.03525,6.66982c-0.02437,0.25806 -0.7814,-0.06818 -0.7814,-0.06818c0,0 0.89991,-5.61734 1.35953,-6.96671c0.12604,-0.37005 0.57608,-0.01475 0.45711,0.36509z" stroke-width="0.09445"/><path d="M336.27439,167.08938c-0.24491,1.54725 0.14229,3.84009 -0.05526,5.45915c-0.02492,0.20422 -0.62162,0.03435 -0.62162,0.03435c0,0 0.06856,-4.6009 0.27628,-5.73382c0.05696,-0.31069 0.45089,-0.07738 0.4006,0.24034z" stroke-width="0.07568"/></g><g><path d="M321.49182,59.5889c-0.10701,-0.6003 0.73116,-1.0411 0.85237,-0.45409c0.44197,2.14052 0.80443,7.94136 0.58784,10.8334c-0.03297,0.44018 -1.34929,0.37571 -1.32264,-0.0649c0.14202,-2.34767 0.40354,-7.39109 -0.11757,-10.31444z" stroke-width="0.11201"/><path d="M325.49166,61.19321c-0.78141,2.51695 -1.15388,6.48522 -1.39631,9.07569c-0.03287,0.35114 -1.05394,-0.09277 -1.05394,-0.09277c0,0 1.21378,-7.64357 1.83371,-9.47967c0.17001,-0.50353 0.777,-0.02007 0.61654,0.49678z" stroke-width="0.09445"/><path d="M320.93371,62.87322c-0.33033,2.10536 0.19192,5.22525 -0.07453,7.42831c-0.03361,0.27788 -0.83842,0.04674 -0.83842,0.04674c0,0 0.09247,-6.26049 0.37263,-7.80206c0.07683,-0.42276 0.60815,-0.1053 0.54032,0.32703z" stroke-width="0.07568"/></g><g><path d="M223.17382,118.33453c-0.10701,-0.6003 0.73116,-1.0411 0.85237,-0.45409c0.44197,2.14052 0.80443,7.94136 0.58784,10.8334c-0.03297,0.44018 -1.34929,0.37571 -1.32264,-0.0649c0.14202,-2.34767 0.40354,-7.39109 -0.11757,-10.31444z" stroke-width="0.11201"/><path d="M227.17366,119.93885c-0.78141,2.51695 -1.15388,6.48522 -1.39631,9.07569c-0.03287,0.35114 -1.05394,-0.09277 -1.05394,-0.09277c0,0 1.21378,-7.64357 1.83371,-9.47967c0.17001,-0.50353 0.777,-0.02007 0.61654,0.49678z" stroke-width="0.09445"/><path d="M222.61572,121.61886c-0.33033,2.10536 0.19192,5.22525 -0.07453,7.42831c-0.03361,0.27788 -0.83842,0.04674 -0.83842,0.04674c0,0 0.09247,-6.26049 0.37263,-7.80206c0.07683,-0.42276 0.60815,-0.1053 0.54032,0.32703z" stroke-width="0.07568"/></g><g><path d="M268.17565,179.95052c-0.42488,2.355 -0.21165,6.41789 -0.09586,8.30913c0.02173,0.35494 -1.05152,0.40688 -1.0784,0.05228c-0.1766,-2.32978 0.11893,-7.00283 0.47929,-8.72719c0.09883,-0.47288 0.78222,-0.11778 0.69497,0.36581z" stroke-width="0.11201"/><path d="M264.91444,181.24297c-0.13083,-0.41637 0.36408,-0.80583 0.50269,-0.4002c0.50545,1.47913 1.49509,7.63665 1.49509,7.63665c0,0 -0.83252,0.3576 -0.85932,0.07473c-0.19766,-2.08683 -0.50135,-5.2836 -1.13847,-7.31121z" stroke-width="0.09445"/><path d="M268.63069,182.59635c-0.05531,-0.34827 0.3779,-0.60401 0.44054,-0.26345c0.22843,1.24186 0.30382,6.2852 0.30382,6.2852c0,0 -0.65619,0.18621 -0.6836,-0.03765c-0.21725,-1.77475 0.20857,-4.28808 -0.06077,-5.98412z" stroke-width="0.07568"/></g><g><path d="M195.9511,62.15347c-0.10701,-0.6003 0.73116,-1.0411 0.85237,-0.45409c0.44197,2.14052 0.80443,7.94136 0.58784,10.8334c-0.03297,0.44018 -1.34929,0.37571 -1.32264,-0.0649c0.14202,-2.34767 0.40354,-7.39109 -0.11757,-10.31444z" stroke-width="0.11201"/><path d="M199.95094,63.75779c-0.78141,2.51695 -1.15388,6.48522 -1.39631,9.07569c-0.03287,0.35114 -1.05394,-0.09277 -1.05394,-0.09277c0,0 1.21378,-7.64357 1.83371,-9.47967c0.17001,-0.50353 0.777,-0.02007 0.61654,0.49678z" stroke-width="0.09445"/><path d="M195.393,65.4378c-0.33033,2.10536 0.19192,5.22525 -0.07453,7.42831c-0.03361,0.27788 -0.83842,0.04674 -0.83842,0.04674c0,0 0.09247,-6.26049 0.37263,-7.80206c0.07683,-0.42276 0.60815,-0.1053 0.54032,0.32703z" stroke-width="0.07568"/></g><g><path d="M165.81692,174.24657c-0.4437,2.76948 -0.22103,7.54745 -0.10011,9.77155c0.02269,0.41741 -1.0981,0.47849 -1.12617,0.06148c-0.18442,-2.73982 0.1242,-8.23534 0.50052,-10.2632c0.1032,-0.55611 0.81687,-0.13851 0.72575,0.43019z" stroke-width="0.11201"/><path d="M162.41124,175.76649c-0.13663,-0.48965 0.38021,-0.94766 0.52496,-0.47063c0.52784,1.73946 1.56132,8.98072 1.56132,8.98072c0,0 -0.8694,0.42054 -0.89738,0.08789c-0.20642,-2.45412 -0.52356,-6.21352 -1.1889,-8.598z" stroke-width="0.09445"/><path d="M166.29212,177.35808c-0.05776,-0.40957 0.39464,-0.71032 0.46006,-0.30982c0.23855,1.46043 0.31728,7.39141 0.31728,7.39141c0,0 -0.68526,0.21898 -0.71388,-0.04428c-0.22687,-2.08711 0.2178,-5.04279 -0.06346,-7.03733z" stroke-width="0.07568"/></g><g><path d="M151.47502,119.70004c-0.07935,-0.43052 0.5422,-0.74665 0.63208,-0.32566c0.32775,1.53512 0.59653,5.69532 0.43592,7.76941c-0.02445,0.31568 -1.00058,0.26945 -0.98082,-0.04654c0.10532,-1.68368 0.29925,-5.30068 -0.08719,-7.39723z" stroke-width="0.11201"/><path d="M154.44113,120.85061c-0.57946,1.80509 -0.85567,4.65101 -1.03545,6.50883c-0.02438,0.25183 -0.78156,-0.06653 -0.78156,-0.06653c0,0 0.90009,-5.48175 1.3598,-6.79855c0.12607,-0.36112 0.57619,-0.01439 0.4572,0.35628z" stroke-width="0.09445"/><path d="M151.06115,122.05546c-0.24496,1.5099 0.14232,3.7474 -0.05527,5.32738c-0.02492,0.19929 -0.62174,0.03352 -0.62174,0.03352c0,0 0.06857,-4.48985 0.27633,-5.59542c0.05697,-0.30319 0.45098,-0.07552 0.40068,0.23454z" stroke-width="0.07568"/></g><g><path d="M119.1951,62.69154c-0.08328,-0.47303 0.56901,-0.82037 0.66334,-0.35782c0.34395,1.6867 0.62604,6.25768 0.45748,8.53657c-0.02566,0.34685 -1.05006,0.29605 -1.02932,-0.05114c0.11053,-1.84993 0.31405,-5.82408 -0.0915,-8.12764z" stroke-width="0.11201"/><path d="M122.3079,63.95572c-0.60812,1.98333 -0.89799,5.11026 -1.08665,7.15152c-0.02558,0.27669 -0.82021,-0.0731 -0.82021,-0.0731c0,0 0.9446,-6.02303 1.42705,-7.46985c0.1323,-0.39677 0.60469,-0.01581 0.47981,0.39146z" stroke-width="0.09445"/><path d="M118.76077,65.27955c-0.25708,1.65899 0.14936,4.11742 -0.058,5.85341c-0.02616,0.21897 -0.65249,0.03683 -0.65249,0.03683c0,0 0.07196,-4.93318 0.29,-6.14792c0.05979,-0.33313 0.47328,-0.08297 0.42049,0.25769z" stroke-width="0.07568"/></g><g><path d="M94.62048,171.72315c-0.0818,-0.49543 0.55888,-0.85923 0.65154,-0.37476c0.33783,1.76658 0.61489,6.55405 0.44933,8.94086c-0.0252,0.36328 -1.03137,0.31007 -1.011,-0.05356c0.10856,-1.93755 0.30846,-6.09991 -0.08987,-8.51256z" stroke-width="0.11201"/><path d="M97.67788,173.0472c-0.5973,2.07726 -0.88201,5.35229 -1.06732,7.49021c-0.02513,0.2898 -0.80561,-0.07656 -0.80561,-0.07656c0,0 0.92779,-6.30828 1.40165,-7.82363c0.12995,-0.41556 0.59393,-0.01656 0.47127,0.41z" stroke-width="0.09445"/><path d="M94.19387,174.43372c-0.2525,1.73756 0.1467,4.31243 -0.05697,6.13063c-0.02569,0.22934 -0.64088,0.03857 -0.64088,0.03857c0,0 0.07068,-5.16682 0.28483,-6.43908c0.05873,-0.3489 0.46486,-0.0869 0.41301,0.2699z" stroke-width="0.07568"/></g><g><path d="M75.04924,116.29659c-0.0734,-0.45797 0.50149,-0.79425 0.58462,-0.34642c0.30314,1.63299 0.55174,6.05842 0.40319,8.26474c-0.02261,0.33581 -0.92545,0.28662 -0.90717,-0.04951c0.09741,-1.79103 0.27678,-5.63862 -0.08064,-7.86883z" stroke-width="0.11201"/><path d="M77.79264,117.52051c-0.53596,1.92017 -0.79142,4.94754 -0.9577,6.92379c-0.02254,0.26788 -0.72287,-0.07077 -0.72287,-0.07077c0,0 0.83251,-5.83124 1.2577,-7.23199c0.1166,-0.38414 0.53293,-0.01531 0.42287,0.37899z" stroke-width="0.09445"/><path d="M74.66644,118.80218c-0.22657,1.60616 0.13164,3.98631 -0.05112,5.66702c-0.02305,0.212 -0.57506,0.03566 -0.57506,0.03566c0,0 0.06342,-4.77609 0.25558,-5.95215c0.0527,-0.32252 0.41712,-0.08033 0.37059,0.24949z" stroke-width="0.07568"/></g><g><path d="M32.02349,163.23865c-0.09605,-0.39727 0.65624,-0.68899 0.76503,-0.30051c0.39668,1.41657 0.72201,5.25551 0.52761,7.16944c-0.02959,0.29131 -1.21104,0.24864 -1.18712,-0.04295c0.12747,-1.55367 0.36219,-4.89135 -0.10552,-6.82599z" stroke-width="0.11201"/><path d="M35.61348,164.30037c-0.70135,1.6657 -1.03565,4.29185 -1.25324,6.0062c-0.0295,0.23238 -0.94595,-0.06139 -0.94595,-0.06139c0,0 1.08941,-5.05844 1.64582,-6.27355c0.15259,-0.33323 0.69739,-0.01328 0.55337,0.32876z" stroke-width="0.09445"/><path d="M31.52257,165.41219c-0.29649,1.3933 0.17226,3.45802 -0.06689,4.91598c-0.03017,0.1839 -0.75252,0.03093 -0.75252,0.03093c0,0 0.083,-4.14313 0.33445,-5.16333c0.06896,-0.27978 0.54584,-0.06969 0.48496,0.21642z" stroke-width="0.07568"/></g><g><path d="M51.19297,52.12846c-0.09302,-0.53283 0.63554,-0.92409 0.7409,-0.40306c0.38417,1.89996 0.69923,7.04886 0.51096,9.61588c-0.02865,0.39071 -1.17283,0.33348 -1.14967,-0.05761c0.12345,-2.08383 0.35077,-6.56043 -0.10219,-9.15524z" stroke-width="0.11201"/><path d="M54.66971,53.55247c-0.67922,2.23408 -1.00298,5.75637 -1.2137,8.0557c-0.02857,0.31167 -0.91611,-0.08234 -0.91611,-0.08234c0,0 1.05504,-6.78454 1.59389,-8.41429c0.14777,-0.44694 0.67539,-0.01781 0.53591,0.44095z" stroke-width="0.09445"/><path d="M50.70785,55.04367c-0.28713,1.86874 0.16682,4.638 -0.06478,6.59348c-0.02921,0.24665 -0.72878,0.04149 -0.72878,0.04149c0,0 0.08038,-5.5569 0.3239,-6.92522c0.06678,-0.37524 0.52862,-0.09346 0.46966,0.29028z" stroke-width="0.07568"/></g><g><path d="M12.86846,117.19241c-0.32989,2.30422 -0.16433,6.27949 -0.07443,8.12995c0.01687,0.34729 -0.81643,0.39811 -0.8373,0.05115c-0.13711,-2.27954 0.09234,-6.85182 0.37213,-8.539c0.07673,-0.46269 0.60733,-0.11524 0.53959,0.35792z" stroke-width="0.11201"/><path d="M10.33637,118.457c-0.10158,-0.40739 0.28268,-0.78845 0.3903,-0.39157c0.39244,1.44724 1.16082,7.47198 1.16082,7.47198c0,0 -0.64639,0.34989 -0.6672,0.07312c-0.15347,-2.04183 -0.38926,-5.16966 -0.88393,-7.15355z" stroke-width="0.09445"/><path d="M13.22177,119.78119c-0.04294,-0.34076 0.29341,-0.59099 0.34205,-0.25777c0.17736,1.21508 0.2359,6.14967 0.2359,6.14967c0,0 -0.50949,0.18219 -0.53076,-0.03684c-0.16868,-1.73648 0.16194,-4.19561 -0.04718,-5.85508z" stroke-width="0.07568"/></g></g><g fill="#549f4d" stroke="#4e8846"><path d="M94.38246,222.61103c-0.38047,1.8209 -0.18953,4.96236 -0.08584,6.42468c0.01946,0.27445 -0.94161,0.3146 -0.96568,0.04043c-0.15814,-1.8014 0.1065,-5.41464 0.42919,-6.74793c0.0885,-0.36564 0.70045,-0.09107 0.62233,0.28284z" stroke-width="0.11201"/><path d="M92.12443,223.51931c-0.0624,-0.33286 0.42639,-0.57728 0.49707,-0.25179c0.25774,1.18691 0.34281,6.00706 0.34281,6.00706c0,0 -0.78396,0.18342 -0.77132,-0.03598c0.09326,-1.61865 0.23533,-4.09832 -0.06856,-5.7193z" stroke-width="0.09445"/><path d="M94.78994,224.65681c-0.04953,-0.26929 0.3384,-0.46703 0.39449,-0.2037c0.20455,0.96022 0.27206,4.85977 0.27206,4.85977c0,0 -0.5876,0.14398 -0.61214,-0.02911c-0.19454,-1.37225 0.18676,-3.31558 -0.05442,-4.62696z" stroke-width="0.07568"/></g><g fill="#549f4d" stroke="#4e8846"><path d="M50.95756,247.18367c-0.40573,2.2517 -0.20211,6.13637 -0.09154,7.94465c0.02075,0.33937 -1.00412,0.38903 -1.02979,0.04999c-0.16864,-2.22758 0.11357,-6.69565 0.45768,-8.34438c0.09437,-0.45214 0.74696,-0.11262 0.66364,0.34976z" stroke-width="0.11201"/><path d="M48.54962,248.30683c-0.06655,-0.41161 0.4547,-0.71386 0.53007,-0.31136c0.27485,1.46771 0.36557,7.42823 0.36557,7.42823c0,0 -0.836,0.22682 -0.82252,-0.0445c0.09945,-2.0016 0.25095,-5.06791 -0.07312,-7.07239z" stroke-width="0.09445"/><path d="M51.39209,249.71345c-0.05281,-0.333 0.36086,-0.57752 0.42068,-0.25189c0.21813,1.18739 0.29013,6.00951 0.29013,6.00951c0,0 -0.62662,0.17804 -0.65278,-0.036c-0.20746,-1.6969 0.19916,-4.09999 -0.05803,-5.72163z" stroke-width="0.07568"/></g><g fill="#549f4d" stroke="#4e8846"><path d="M64.08462,299.61222c-0.43131,1.69925 -0.21486,4.63083 -0.09731,5.99545c0.02206,0.25611 -1.06744,0.29359 -1.09473,0.03772c-0.17927,-1.68105 0.12073,-5.05289 0.48654,-6.29711c0.10032,-0.34121 0.79406,-0.08499 0.70549,0.26395z" stroke-width="0.11201"/><path d="M61.52483,300.45981c-0.07074,-0.31062 0.48337,-0.53872 0.5635,-0.23497c0.29219,1.10761 0.38862,5.60573 0.38862,5.60573c0,0 -0.88872,0.17117 -0.87439,-0.03358c0.10572,-1.51051 0.26678,-3.82451 -0.07773,-5.3372z" stroke-width="0.09445"/><path d="M64.54656,301.52132c-0.05614,-0.2513 0.38362,-0.43583 0.44721,-0.19009c0.23189,0.89607 0.30842,4.53509 0.30842,4.53509c0,0 -0.66613,0.13436 -0.69395,-0.02717c-0.22054,-1.28057 0.21172,-3.09406 -0.06169,-4.31784z" stroke-width="0.07568"/></g><g fill="#549f4d" stroke="#4e8846"><path d="M16.68851,274.59774c-0.10249,-0.45134 0.70031,-0.78276 0.8164,-0.34141c0.42332,1.60938 0.77049,5.97081 0.56304,8.14523c-0.03158,0.33095 -1.29236,0.28248 -1.26683,-0.0488c0.13603,-1.76513 0.38651,-5.55709 -0.11261,-7.75504z" stroke-width="0.11201"/><path d="M19.65074,275.69406c-0.39867,1.95664 -0.21229,4.94977 -0.08995,6.9036c0.01658,0.26484 -1.01186,0.04344 -1.01186,0.04344c0,0 0.11159,-5.81826 0.44972,-7.25094c0.09273,-0.39289 0.73396,-0.09786 0.65209,0.30393z" stroke-width="0.09445"/><path d="M16.15396,277.06711c-0.31639,1.58294 0.18382,3.92867 -0.07139,5.58507c-0.03219,0.20893 -0.80305,0.03514 -0.80305,0.03514c0,0 0.08857,-4.70703 0.35691,-5.86608c0.07359,-0.31785 0.58249,-0.07917 0.51752,0.24588z" stroke-width="0.07568"/></g><g fill="#549f4d" stroke="#4e8846"><path d="M104.32092,326.66617c-0.42904,2.2512 -0.21373,6.13502 -0.0968,7.94291c0.02194,0.3393 -1.06182,0.38895 -1.08896,0.04998c-0.17833,-2.22709 0.1201,-6.69418 0.48398,-8.34255c0.0998,-0.45204 0.78988,-0.11259 0.70178,0.34968z" stroke-width="0.11201"/><path d="M101.77461,327.78909c-0.07037,-0.41152 0.48083,-0.7137 0.56053,-0.31129c0.29065,1.46739 0.38657,7.4266 0.38657,7.4266c0,0 -0.88404,0.22677 -0.86979,-0.04449c0.10517,-2.00116 0.26537,-5.0668 -0.07732,-7.07083z" stroke-width="0.09445"/><path d="M104.78043,329.19539c-0.05585,-0.33292 0.3816,-0.57739 0.44486,-0.25184c0.23067,1.18713 0.3068,6.00818 0.3068,6.00818c0,0 -0.66262,0.178 -0.6903,-0.03599c-0.21938,-1.69653 0.21061,-4.09909 -0.06136,-5.72037z" stroke-width="0.07568"/></g><g fill="#549f4d" stroke="#4e8846"><path d="M137.87108,274.61158c-0.52186,2.50853 -0.25996,6.8363 -0.11774,8.85085c0.02669,0.37808 -1.29152,0.43341 -1.32454,0.05569c-0.2169,-2.48167 0.14608,-7.45938 0.58868,-9.29617c0.12138,-0.50371 0.96076,-0.12546 0.85359,0.38966z" stroke-width="0.11201"/><path d="M134.77391,275.86285c-0.0856,-0.45856 0.58484,-0.79529 0.68179,-0.34687c0.35352,1.63512 0.4702,8.27552 0.4702,8.27552c0,0 -1.07529,0.25269 -1.05795,-0.04957c0.12792,-2.22991 0.32278,-5.64597 -0.09404,-7.87909z" stroke-width="0.09445"/><path d="M138.42998,277.42991c-0.06793,-0.37098 0.46415,-0.64339 0.54109,-0.28062c0.28057,1.32283 0.37317,6.69497 0.37317,6.69497c0,0 -0.80597,0.19835 -0.83963,-0.04011c-0.26684,-1.89046 0.25617,-4.56764 -0.07464,-6.37426z" stroke-width="0.07568"/></g><g fill="#549f4d" stroke="#4e8846"><path d="M226.13373,203.8245c-0.52111,2.92335 -0.25959,7.96677 -0.11757,10.31444c0.02665,0.44061 -1.28967,0.50508 -1.32264,0.0649c-0.21659,-2.89204 0.14587,-8.69288 0.58784,-10.8334c0.12121,-0.58701 0.95938,-0.14621 0.85237,0.45409z" stroke-width="0.11201"/><path d="M222.13389,205.42887c-0.16046,-0.51685 0.44654,-1.00031 0.61654,-0.49678c0.61992,1.8361 1.83371,9.47967 1.83371,9.47967c0,0 -1.02107,0.44391 -1.05394,0.09277c-0.24243,-2.59047 -0.6149,-6.55873 -1.39631,-9.07568z" stroke-width="0.09445"/><path d="M226.69183,207.10887c-0.06783,-0.43233 0.46349,-0.74979 0.54032,-0.32703c0.28016,1.54157 0.37263,7.80206 0.37263,7.80206c0,0 -0.80481,0.23114 -0.83842,-0.04674c-0.26645,-2.20306 0.2558,-5.32296 -0.07453,-7.42831z" stroke-width="0.07568"/></g><g fill="#549f4d" stroke="#4e8846"><path d="M151.70843,233.93153c-0.46685,2.4845 -0.23256,6.77082 -0.10533,8.76606c0.02387,0.37446 -1.15538,0.42926 -1.18491,0.05516c-0.19404,-2.4579 0.13068,-7.38793 0.52663,-9.20712c0.10859,-0.49889 0.85948,-0.12426 0.76361,0.38592z" stroke-width="0.11201"/><path d="M148.1251,235.29505c-0.14375,-0.43926 0.40004,-0.85014 0.55234,-0.4222c0.55537,1.56047 1.64276,8.05661 1.64276,8.05661c0,0 -0.91474,0.37727 -0.94419,0.07884c-0.21718,-2.20159 -0.55087,-5.57415 -1.25091,-7.71326z" stroke-width="0.09445"/><path d="M152.20842,236.72286c-0.06077,-0.36743 0.41523,-0.63723 0.48405,-0.27794c0.25099,1.31016 0.33383,6.63084 0.33383,6.63084c0,0 -0.72101,0.19645 -0.75112,-0.03972c-0.23871,-1.87235 0.22917,-4.52389 -0.06677,-6.31319z" stroke-width="0.07568"/></g><g fill="#549f4d" stroke="#4e8846"><path d="M206.2368,263.29613c-0.10701,-0.6003 0.73116,-1.0411 0.85237,-0.45409c0.44197,2.14052 0.80443,7.94136 0.58784,10.8334c-0.03297,0.44018 -1.34929,0.3757 -1.32264,-0.0649c0.14202,-2.34767 0.40354,-7.39109 -0.11757,-10.31444z" stroke-width="0.11201"/><path d="M210.23664,264.90044c-0.78141,2.51695 -1.15388,6.48522 -1.39631,9.07568c-0.03287,0.35114 -1.05394,-0.09277 -1.05394,-0.09277c0,0 1.21378,-7.64357 1.83371,-9.47967c0.17001,-0.50353 0.777,-0.02007 0.61654,0.49678z" stroke-width="0.09445"/><path d="M205.67869,266.58045c-0.33033,2.10535 0.19192,5.22525 -0.07453,7.42831c-0.03361,0.27788 -0.83842,0.04674 -0.83842,0.04674c0,0 0.09247,-6.26049 0.37263,-7.80206c0.07683,-0.42276 0.60815,-0.1053 0.54032,0.32703z" stroke-width="0.07568"/></g><g fill="#549f4d" stroke="#4e8846"><path d="M203.44764,329.52603c-0.26997,2.15114 -0.13449,5.86232 -0.06091,7.58985c0.01381,0.32422 -0.66814,0.37166 -0.68522,0.04776c-0.11221,-2.1281 0.07557,-6.39663 0.30454,-7.97173c0.0628,-0.43195 0.49703,-0.10759 0.44159,0.33414z" stroke-width="0.11201"/><path d="M201.37545,330.7066c-0.08313,-0.38032 0.23134,-0.73607 0.31941,-0.36555c0.32116,1.35109 0.94999,6.97559 0.94999,6.97559c0,0 -0.52899,0.32665 -0.54602,0.06826c-0.1256,-1.90619 -0.31856,-4.82622 -0.72339,-6.67832z" stroke-width="0.09445"/><path d="M203.73678,331.94283c-0.03514,-0.31813 0.24012,-0.55173 0.27992,-0.24064c0.14514,1.13436 0.19305,5.74113 0.19305,5.74113c0,0 -0.41695,0.17009 -0.43436,-0.03439c-0.13804,-1.62112 0.13252,-3.91689 -0.03861,-5.4661z" stroke-width="0.07568"/></g><g fill="#549f4d" stroke="#4e8846"><path d="M316.34808,254.527c-0.52111,2.92335 -0.25959,7.96677 -0.11757,10.31444c0.02665,0.44061 -1.28967,0.50508 -1.32264,0.0649c-0.21659,-2.89204 0.14587,-8.69288 0.58784,-10.8334c0.12121,-0.58701 0.95938,-0.14621 0.85237,0.45409z" stroke-width="0.11201"/><path d="M312.34824,256.13136c-0.16046,-0.51685 0.44654,-1.00031 0.61654,-0.49678c0.61992,1.8361 1.83371,9.47967 1.83371,9.47967c0,0 -1.02107,0.44391 -1.05394,0.09277c-0.24243,-2.59047 -0.6149,-6.55873 -1.39631,-9.07568z" stroke-width="0.09445"/><path d="M316.90618,257.81137c-0.06783,-0.43233 0.46349,-0.74979 0.54032,-0.32703c0.28016,1.54157 0.37263,7.80206 0.37263,7.80206c0,0 -0.80481,0.23114 -0.83842,-0.04674c-0.26645,-2.20306 0.2558,-5.32296 -0.07453,-7.42831z" stroke-width="0.07568"/></g><g fill="#549f4d" stroke="#4e8846"><path d="M285.49929,305.54483c-0.38636,2.1484 -0.19246,5.85486 -0.08717,7.58019c0.01976,0.32381 -0.95618,0.37119 -0.98062,0.0477c-0.16059,-2.12539 0.10815,-6.38849 0.43583,-7.96158c0.08987,-0.4314 0.7113,-0.10745 0.63196,0.33372z" stroke-width="0.11201"/><path d="M282.53376,306.72389c-0.11897,-0.37984 0.33107,-0.73514 0.45711,-0.36509c0.45962,1.34937 1.35953,6.96671 1.35953,6.96671c0,0 -0.75703,0.32623 -0.7814,0.06818c-0.17974,-1.90376 -0.45589,-4.82008 -1.03525,-6.66982z" stroke-width="0.09445"/><path d="M285.91308,307.95855c-0.05029,-0.31772 0.34364,-0.55103 0.4006,-0.24034c0.20772,1.13292 0.27628,5.73382 0.27628,5.73382c0,0 -0.5967,0.16987 -0.62162,-0.03435c-0.19755,-1.61906 0.18966,-3.9119 -0.05526,-5.45915z" stroke-width="0.07568"/></g><g fill="#549f4d" stroke="#4e8846"><path d="M300.69566,200.45802c-0.52111,2.92335 -0.25959,7.96677 -0.11757,10.31444c0.02665,0.44061 -1.28967,0.50508 -1.32264,0.0649c-0.21659,-2.89204 0.14587,-8.69288 0.58784,-10.8334c0.12121,-0.58701 0.95938,-0.14621 0.85237,0.45409z" stroke-width="0.11201"/><path d="M296.69582,202.06238c-0.16046,-0.51685 0.44654,-1.00031 0.61654,-0.49678c0.61992,1.8361 1.83371,9.47967 1.83371,9.47967c0,0 -1.02107,0.44391 -1.05394,0.09277c-0.24243,-2.59047 -0.6149,-6.55873 -1.39631,-9.07568z" stroke-width="0.09445"/><path d="M301.25376,203.74239c-0.06783,-0.43233 0.46349,-0.74979 0.54032,-0.32703c0.28016,1.54157 0.37263,7.80206 0.37263,7.80206c0,0 -0.80481,0.23114 -0.83842,-0.04674c-0.26645,-2.20306 0.2558,-5.32296 -0.07453,-7.42831z" stroke-width="0.07568"/></g><g fill="#549f4d" stroke="#4e8846"><path d="M399.01364,259.20366c-0.52111,2.92335 -0.25959,7.96677 -0.11757,10.31444c0.02665,0.44061 -1.28967,0.50508 -1.32264,0.0649c-0.21659,-2.89204 0.14587,-8.69288 0.58784,-10.8334c0.12121,-0.58701 0.95938,-0.14621 0.85237,0.45409z" stroke-width="0.11201"/><path d="M395.01381,260.80803c-0.16046,-0.51685 0.44654,-1.00031 0.61654,-0.49678c0.61992,1.8361 1.83371,9.47967 1.83371,9.47967c0,0 -1.02107,0.44391 -1.05394,0.09277c-0.24243,-2.59047 -0.6149,-6.55873 -1.39631,-9.07569z" stroke-width="0.09445"/><path d="M399.57175,262.48803c-0.06783,-0.43233 0.46349,-0.74979 0.54032,-0.32703c0.28016,1.54157 0.37263,7.80206 0.37263,7.80206c0,0 -0.80481,0.23114 -0.83842,-0.04674c-0.26645,-2.20306 0.2558,-5.32296 -0.07453,-7.42831z" stroke-width="0.07568"/></g><g fill="#549f4d" stroke="#4e8846"><path d="M354.01183,320.81969c-0.08725,-0.48359 0.59614,-0.83869 0.69497,-0.36581c0.36035,1.72436 0.65588,6.39741 0.47929,8.72719c-0.02688,0.3546 -1.10013,0.30266 -1.0784,-0.05228c0.1158,-1.89124 0.32902,-5.95413 -0.09586,-8.30913z" stroke-width="0.11201"/><path d="M357.27304,322.1121c-0.63712,2.02761 -0.9408,5.22438 -1.13847,7.31121c-0.0268,0.28287 -0.85932,-0.07473 -0.85932,-0.07473c0,0 0.98964,-6.15752 1.49509,-7.63665c0.13861,-0.40563 0.63352,-0.01617 0.50269,0.4002z" stroke-width="0.09445"/><path d="M353.55678,323.46548c-0.26933,1.69604 0.15648,4.20937 -0.06077,5.98412c-0.0274,0.22386 -0.6836,0.03765 -0.6836,0.03765c0,0 0.07539,-5.04334 0.30382,-6.2852c0.06264,-0.34056 0.49585,-0.08483 0.44054,0.26345z" stroke-width="0.07568"/></g><g fill="#549f4d" stroke="#4e8846"><path d="M426.23636,203.0226c-0.52111,2.92335 -0.25959,7.96677 -0.11757,10.31444c0.02665,0.44061 -1.28967,0.50508 -1.32264,0.0649c-0.21659,-2.89204 0.14587,-8.69288 0.58784,-10.8334c0.12121,-0.58701 0.95938,-0.14621 0.85237,0.45409z" stroke-width="0.11201"/><path d="M422.23653,204.62697c-0.16046,-0.51685 0.44654,-1.00031 0.61654,-0.49678c0.61992,1.8361 1.83371,9.47967 1.83371,9.47967c0,0 -1.02107,0.44391 -1.05394,0.09277c-0.24243,-2.59047 -0.6149,-6.55873 -1.39631,-9.07568z" stroke-width="0.09445"/><path d="M426.79447,206.30697c-0.06783,-0.43233 0.46349,-0.74979 0.54032,-0.32703c0.28016,1.54157 0.37263,7.80206 0.37263,7.80206c0,0 -0.80481,0.23114 -0.83842,-0.04674c-0.26645,-2.20306 0.2558,-5.32296 -0.07453,-7.42831z" stroke-width="0.07568"/></g><g fill="#549f4d" stroke="#4e8846"><path d="M456.37055,315.11575c-0.09111,-0.5687 0.62255,-0.9863 0.72575,-0.43019c0.37632,2.02786 0.68494,7.52337 0.50052,10.2632c-0.02807,0.41701 -1.14886,0.35593 -1.12617,-0.06148c0.12093,-2.2241 0.3436,-7.00207 -0.10011,-9.77155z" stroke-width="0.11201"/><path d="M459.77623,316.63563c-0.66534,2.38448 -0.98248,6.14387 -1.1889,8.598c-0.02799,0.33266 -0.89738,-0.08789 -0.89738,-0.08789c0,0 1.03348,-7.24126 1.56132,-8.98072c0.14475,-0.47703 0.66158,-0.01901 0.52496,0.47063z" stroke-width="0.09445"/><path d="M455.89535,318.22721c-0.28126,1.99454 0.16341,4.95022 -0.06346,7.03733c-0.02862,0.26326 -0.71388,0.04428 -0.71388,0.04428c0,0 0.07873,-5.93098 0.31728,-7.39141c0.06542,-0.4005 0.51781,-0.09976 0.46006,0.30982z" stroke-width="0.07568"/></g><g fill="#549f4d" stroke="#4e8846"><path d="M470.71245,260.56917c-0.38643,2.09654 -0.1925,5.71354 -0.08719,7.39723c0.01976,0.31599 -0.95637,0.36223 -0.98082,0.04654c-0.16062,-2.07409 0.10817,-6.23429 0.43592,-7.76941c0.08988,-0.42099 0.71144,-0.10486 0.63208,0.32566z" stroke-width="0.11201"/><path d="M467.74634,261.71977c-0.11899,-0.37067 0.33113,-0.71739 0.4572,-0.35628c0.45971,1.3168 1.3598,6.79855 1.3598,6.79855c0,0 -0.75718,0.31836 -0.78156,0.06653c-0.17978,-1.85781 -0.45598,-4.70374 -1.03545,-6.50883z" stroke-width="0.09445"/><path d="M471.12632,262.92463c-0.0503,-0.31005 0.3437,-0.53772 0.40068,-0.23454c0.20776,1.10557 0.27633,5.59542 0.27633,5.59542c0,0 -0.59682,0.16577 -0.62174,-0.03352c-0.19759,-1.57998 0.18969,-3.81748 -0.05527,-5.32738z" stroke-width="0.07568"/></g><g fill="#549f4d" stroke="#4e8846"><path d="M509.18129,215.93852c-0.40554,2.30356 -0.20202,6.2777 -0.0915,8.12764c0.02074,0.34719 -1.00366,0.39799 -1.02932,0.05114c-0.16856,-2.27889 0.11352,-6.84987 0.45748,-8.53657c0.09433,-0.46256 0.74662,-0.11521 0.66334,0.35782z" stroke-width="0.11201"/><path d="M506.06849,217.20274c-0.12488,-0.40727 0.34751,-0.78823 0.47981,-0.39146c0.48244,1.44682 1.42705,7.46985 1.42705,7.46985c0,0 -0.79463,0.34979 -0.82021,0.0731c-0.18867,-2.04125 -0.47853,-5.16819 -1.08665,-7.15152z" stroke-width="0.09445"/><path d="M509.61562,218.52656c-0.05279,-0.34067 0.3607,-0.59082 0.42049,-0.25769c0.21803,1.21474 0.29,6.14792 0.29,6.14792c0,0 -0.62633,0.18214 -0.65249,-0.03683c-0.20736,-1.73599 0.19907,-4.19442 -0.058,-5.85341z" stroke-width="0.07568"/></g><g fill="#549f4d" stroke="#4e8846"><path d="M527.56699,312.59228c-0.39833,2.41266 -0.19843,6.57502 -0.08987,8.51256c0.02037,0.36363 -0.9858,0.41684 -1.011,0.05356c-0.16556,-2.38682 0.1115,-7.17428 0.44933,-8.94087c0.09265,-0.48446 0.73333,-0.12067 0.65153,0.37476z" stroke-width="0.11201"/><path d="M524.50959,313.91637c-0.12265,-0.42656 0.34132,-0.82556 0.47127,-0.41c0.47386,1.51535 1.40165,7.82363 1.40165,7.82363c0,0 -0.78049,0.36636 -0.80561,0.07656c-0.18531,-2.13793 -0.47002,-5.41296 -1.06732,-7.49021z" stroke-width="0.09445"/><path d="M527.9936,315.30289c-0.05185,-0.3568 0.35428,-0.6188 0.41301,-0.2699c0.21415,1.27227 0.28483,6.43908 0.28483,6.43908c0,0 -0.61518,0.19076 -0.64088,-0.03857c-0.20367,-1.8182 0.19553,-4.39307 -0.05697,-6.13063z" stroke-width="0.07568"/></g><g fill="#549f4d" stroke="#4e8846"><path d="M547.13823,257.16571c-0.35742,2.23021 -0.17805,6.0778 -0.08064,7.86883c0.01828,0.33614 -0.88456,0.38532 -0.90717,0.04951c-0.14856,-2.20632 0.10005,-6.63175 0.40319,-8.26474c0.08314,-0.44783 0.65802,-0.11154 0.58462,0.34642z" stroke-width="0.11201"/><path d="M544.39483,258.38968c-0.11006,-0.3943 0.30627,-0.76313 0.42287,-0.37899c0.42519,1.40075 1.2577,7.23199 1.2577,7.23199c0,0 -0.70033,0.33866 -0.72287,0.07077c-0.16628,-1.97625 -0.42175,-5.00362 -0.9577,-6.92379z" stroke-width="0.09445"/><path d="M547.52103,259.67135c-0.04653,-0.32982 0.3179,-0.57201 0.37059,-0.24949c0.19216,1.17606 0.25558,5.95215 0.25558,5.95215c0,0 -0.55201,0.17634 -0.57506,-0.03566c-0.18275,-1.68071 0.17545,-4.06086 -0.05112,-5.66702z" stroke-width="0.07568"/></g><g fill="#549f4d" stroke="#4e8846"><path d="M590.16398,304.10779c-0.46771,1.93464 -0.23299,5.27233 -0.10552,6.82599c0.02392,0.29159 -1.15753,0.33426 -1.18712,0.04295c-0.1944,-1.91393 0.13092,-5.75286 0.52761,-7.16944c0.10879,-0.38848 0.86108,-0.09676 0.76503,0.30051z" stroke-width="0.11201"/><path d="M586.57399,305.16954c-0.14402,-0.34205 0.40078,-0.66199 0.55337,-0.32876c0.5564,1.21511 1.64582,6.27355 1.64582,6.27355c0,0 -0.91645,0.29377 -0.94595,0.06139c-0.21759,-1.71435 -0.55189,-4.3405 -1.25324,-6.0062z" stroke-width="0.09445"/><path d="M590.6649,306.28135c-0.06088,-0.28611 0.416,-0.4962 0.48496,-0.21642c0.25146,1.0202 0.33445,5.16333 0.33445,5.16333c0,0 -0.72235,0.15297 -0.75252,-0.03093c-0.23915,-1.45797 0.22959,-3.52268 -0.06689,-4.91598z" stroke-width="0.07568"/></g><g fill="#549f4d" stroke="#4e8846"><path d="M570.9945,192.99758c-0.45296,2.59481 -0.22564,7.07141 -0.10219,9.15524c0.02316,0.39109 -1.12101,0.44831 -1.14967,0.05761c-0.18827,-2.56702 0.12679,-7.71592 0.51096,-9.61588c0.10536,-0.52104 0.83391,-0.12978 0.7409,0.40306z" stroke-width="0.11201"/><path d="M567.51776,194.42164c-0.13948,-0.45876 0.38814,-0.88789 0.53591,-0.44095c0.53885,1.62975 1.59389,8.41429 1.59389,8.41429c0,0 -0.88753,0.39402 -0.91611,0.08234c-0.21072,-2.29934 -0.53448,-5.82162 -1.2137,-8.0557z" stroke-width="0.09445"/><path d="M571.47962,195.91284c-0.05896,-0.38374 0.40287,-0.66552 0.46966,-0.29028c0.24352,1.36832 0.3239,6.92522 0.3239,6.92522c0,0 -0.69956,0.20517 -0.72878,-0.04149c-0.23161,-1.95547 0.22235,-4.72473 -0.06478,-6.59348z" stroke-width="0.07568"/></g><g fill="#549f4d" stroke="#4e8846"><path d="M609.31901,258.06159c-0.06774,-0.47316 0.46286,-0.82061 0.53959,-0.35792c0.27979,1.68718 0.50925,6.25946 0.37213,8.539c-0.02087,0.34695 -0.85417,0.29613 -0.8373,-0.05115c0.08991,-1.85046 0.25546,-5.82574 -0.07443,-8.12995z" stroke-width="0.11201"/><path d="M611.8511,259.32613c-0.49467,1.98389 -0.73047,5.11172 -0.88393,7.15355c-0.02081,0.27677 -0.6672,-0.07312 -0.6672,-0.07312c0,0 0.76838,-6.02474 1.16082,-7.47198c0.10762,-0.39689 0.49188,-0.01582 0.3903,0.39157z" stroke-width="0.09445"/><path d="M608.9657,260.65033c-0.20912,1.65946 0.1215,4.1186 -0.04718,5.85508c-0.02128,0.21903 -0.53076,0.03684 -0.53076,0.03684c0,0 0.05854,-4.93458 0.2359,-6.14967c0.04864,-0.33322 0.38499,-0.083 0.34205,0.25777z" stroke-width="0.07568"/></g></g></g></svg>