<svg version="1.1" xmlns="http://www.w3.org/2000/svg" xmlns:xlink="http://www.w3.org/1999/xlink" width="178.38287" height="170.15557" viewBox="0,0,178.38287,170.15557"><g transform="translate(-231.55651,-96.60508)"><g data-paper-data="{&quot;isPaintingLayer&quot;:true}" fill-rule="nonzero" stroke-linecap="butt" stroke-linejoin="miter" stroke-miterlimit="10" stroke-dasharray="" stroke-dashoffset="0" style="mix-blend-mode: normal"><path d="M292.46545,129.22418c12.51708,-5.01863 41.34594,-4.94995 63.07156,-2.7407c6.58831,0.66995 4.87646,17.66537 2.53755,25.53087c-3.30823,11.12509 -28.19834,-0.07439 -39.779,-0.27885c-4.32658,-0.07638 -4.29788,15.23899 0,14.77928c12.79093,-1.36813 29.70473,-2.20468 36.71909,7.25023c6.59382,8.88807 7.43093,22.15509 5.20185,34.85678c-2.12048,12.0829 -16.39319,23.06047 -29.68126,24.81804c-16.29024,2.15466 -43.14317,4.12665 -50.79472,-10.03875c-3.78821,-7.01314 3.13189,-18.11348 11.01572,-21.19294c9.27924,-3.62452 20.7005,14.18139 28.76328,8.6445c8.04098,-5.52193 4.29364,-28.3549 -1.18684,-27.50509c-10.15777,1.57505 -28.2892,8.11602 -31.55433,-2.33233c-3.53947,-11.32622 -8.03828,-46.28793 5.68712,-51.79104z" fill="#4fe3e4" stroke="#ffffff" stroke-width="7.5"/><path d="M231.55651,266.76065v-170.15557h178.38287v170.15557z" fill="none" stroke="#000000" stroke-width="0"/></g></g></svg>