<svg version="1.1" xmlns="http://www.w3.org/2000/svg" xmlns:xlink="http://www.w3.org/1999/xlink" width="60.00016" height="60" viewBox="0,0,60.00016,60"><g transform="translate(-239.99984,-150)"><g data-paper-data="{&quot;isPaintingLayer&quot;:true}" fill-rule="nonzero" stroke-linecap="butt" stroke-linejoin="miter" stroke-miterlimit="10" stroke-dasharray="" stroke-dashoffset="0" style="mix-blend-mode: normal"><path d="M300,150v60h-60.00015v-18.0593c1.74077,0.89953 3.67646,1.37424 5.64344,1.38402c6.76737,0.00004 12.25345,-5.38798 12.2535,-12.03449c0.00008,-3.19183 -1.29088,-6.25297 -3.58887,-8.50996c-2.29799,-2.25699 -5.41476,-3.52495 -8.66464,-3.52493c-1.96702,0.0099 -3.9027,0.48475 -5.64344,1.38441v-20.63975z" fill="#003059" stroke="none" stroke-width="0.11881"/><g><g><path d="M253.51389,158.82555l-4.92059,3.19338c0,0 0,0 -0.05073,-6.18401z" fill="#499800" stroke="#499800" stroke-width="0.09153"/><path d="M263.34052,158.76955c0.00001,3.20892 -2.51122,5.81028 -5.60901,5.81031c-1.48762,0 -2.91431,-0.61215 -3.96621,-1.7018c-1.0519,-1.08965 -1.64286,-2.56752 -1.64285,-4.10851c0.00003,-3.20892 2.51128,-5.81024 5.60907,-5.81024c3.09776,0.00003 5.60898,2.60135 5.60901,5.81024z" fill="#56b300" stroke="#8d9669" stroke-width="0.06407"/><path d="M258.58629,160.16958l-3.34108,2.21652c0,0 0,0 -0.03439,-4.29231z" fill="#499800" stroke="#499800" stroke-width="0.06284"/></g><g><path d="M259.59787,156.94419c0,-0.62743 0.49199,-1.13605 1.09889,-1.13605c0.6069,0 1.09889,0.50863 1.09889,1.13605c0,0.62743 -0.49199,1.13605 -1.09889,1.13605c-0.6069,0 -1.09889,-0.50863 -1.09889,-1.13605z" fill="#000000" stroke="#000000" stroke-width="0.33116"/><path d="M260.65884,156.53216c0,-0.28787 0.22787,-0.52124 0.50896,-0.52124c0.28109,0 0.50896,0.23337 0.50896,0.52124c0,0.28787 -0.22787,0.52124 -0.50896,0.52124c-0.28109,0 -0.50896,-0.23337 -0.50896,-0.52124z" fill="#ffffff" stroke="#ffffff" stroke-width="0.15266"/></g></g><g><g><path d="M269.0895,168.06361l-4.83575,2.91054c0,0 0,0 -0.04985,-5.63629z" fill="#499800" stroke="#499800" stroke-width="0.09153"/><path d="M278.74671,168.01256c0.00001,2.92471 -2.46792,5.29566 -5.5123,5.29569c-1.46197,0 -2.86406,-0.55794 -3.89783,-1.55107c-1.03377,-0.99314 -1.61453,-2.34012 -1.61453,-3.74462c0.00003,-2.9247 2.46799,-5.29563 5.51235,-5.29563c3.04435,0.00003 5.51227,2.37094 5.5123,5.29563z" fill="#56b300" stroke="#8d9669" stroke-width="0.06407"/><path d="M274.07445,169.2886l-3.28347,2.02021c0,0 0,0 -0.03379,-3.91214z" fill="#499800" stroke="#499800" stroke-width="0.06284"/></g><g><path d="M275.0686,166.34888c0,-0.57185 0.48351,-1.03543 1.07994,-1.03543c0.59643,0 1.07994,0.46358 1.07994,1.03543c0,0.57185 -0.48351,1.03543 -1.07994,1.03543c-0.59643,0 -1.07994,-0.46358 -1.07994,-1.03543z" fill="#000000" stroke="#000000" stroke-width="0.33116"/><path d="M276.11127,165.97334c0,-0.26237 0.22394,-0.47507 0.50018,-0.47507c0.27624,0 0.50018,0.2127 0.50018,0.47507c0,0.26237 -0.22394,0.47507 -0.50018,0.47507c-0.27624,0 -0.50018,-0.2127 -0.50018,-0.47507z" fill="#ffffff" stroke="#ffffff" stroke-width="0.15266"/></g></g><g><g><path d="M289.92363,178.35431c-0.05249,6.04659 -0.05249,6.04659 -0.05249,6.04659l-5.09185,-3.12242z" fill="#499800" stroke="#499800" stroke-width="0.09153"/><path d="M280.41485,175.54259c3.2056,0 5.80427,2.54352 5.80429,5.68113c0,1.50675 -0.61152,2.95178 -1.70003,4.01722c-1.08852,1.06543 -2.56487,1.66399 -4.10426,1.66398c-3.20561,-0.00003 -5.80424,-2.54358 -5.80423,-5.6812c0.00003,-3.13759 2.59865,-5.6811 5.80423,-5.68113z" fill="#56b300" stroke="#8d9669" stroke-width="0.06407"/><path d="M283.02328,180.56298c-0.03558,4.19694 -0.03558,4.19694 -0.03558,4.19694l-3.45737,-2.16727z" fill="#499800" stroke="#499800" stroke-width="0.06284"/></g><g><path d="M277.3464,180.54973c-0.62802,0 -1.13713,-0.49733 -1.13713,-1.11081c0,-0.61348 0.50911,-1.11081 1.13713,-1.11081c0.62802,0 1.13713,0.49733 1.13713,1.11081c0,0.61348 -0.50911,1.11081 -1.13713,1.11081z" fill="#000000" stroke="#000000" stroke-width="0.33116"/><path d="M276.85896,179.5457c-0.29087,0 -0.52667,-0.22818 -0.52667,-0.50966c0,-0.28148 0.2358,-0.50966 0.52667,-0.50966c0.29087,0 0.52667,0.22818 0.52667,0.50966c0,0.28148 -0.2358,0.50966 -0.52667,0.50966z" fill="#ffffff" stroke="#ffffff" stroke-width="0.15266"/></g></g><g><g><path d="M296.69534,155.32061c-0.05205,5.90972 -0.05205,5.90972 -0.05205,5.90972l-5.04926,-3.05174z" fill="#499800" stroke="#499800" stroke-width="0.09153"/><path d="M287.26611,152.57253c3.17879,0 5.75571,2.48594 5.75574,5.55253c0,1.47264 -0.6064,2.88497 -1.68581,3.92628c-1.07941,1.04131 -2.54341,1.62632 -4.06993,1.62632c-3.17879,-0.00003 -5.75569,-2.48601 -5.75568,-5.5526c0.00003,-3.06657 2.57692,-5.5525 5.75568,-5.55253z" fill="#56b300" stroke="#8d9669" stroke-width="0.06407"/><path d="M289.85271,157.47928c-0.03529,4.10193 -0.03529,4.10193 -0.03529,4.10193l-3.42845,-2.11821z" fill="#499800" stroke="#499800" stroke-width="0.06284"/></g><g><path d="M284.22332,157.46634c-0.62277,0 -1.12762,-0.48607 -1.12762,-1.08567c0,-0.5996 0.50485,-1.08567 1.12762,-1.08567c0.62277,0 1.12762,0.48607 1.12762,1.08567c0,0.5996 -0.50485,1.08567 -1.12762,1.08567z" fill="#000000" stroke="#000000" stroke-width="0.33116"/><path d="M283.73996,156.48503c-0.28844,0 -0.52227,-0.22302 -0.52227,-0.49812c0,-0.2751 0.23383,-0.49812 0.52227,-0.49812c0.28844,0 0.52227,0.22302 0.52227,0.49812c0,0.2751 -0.23383,0.49812 -0.52227,0.49812z" fill="#ffffff" stroke="#ffffff" stroke-width="0.15266"/></g></g><g><g><path d="M255.62964,201.05305l-5.04908,3.12248c0,0 0,0 -0.05205,-6.0467z" fill="#499800" stroke="#499800" stroke-width="0.09153"/><path d="M265.71288,200.99829c0.00001,3.13767 -2.5768,5.68127 -5.75548,5.6813c-1.52647,0 -2.99041,-0.59856 -4.06978,-1.66401c-1.07937,-1.06545 -1.68576,-2.51051 -1.68575,-4.01729c0.00003,-3.13767 2.57686,-5.68124 5.75554,-5.68123c3.17865,0.00003 5.75545,2.54359 5.75548,5.68123z" fill="#56b300" stroke="#8d9669" stroke-width="0.06407"/><path d="M260.8345,202.36724l-3.42833,2.16731c0,0 0,0 -0.03528,-4.19701z" fill="#499800" stroke="#499800" stroke-width="0.06284"/></g><g><path d="M261.87251,199.21346c0,-0.61349 0.50484,-1.11083 1.12758,-1.11083c0.62275,0 1.12758,0.49734 1.12758,1.11083c0,0.61349 -0.50484,1.11083 -1.12758,1.11083c-0.62275,0 -1.12758,-0.49734 -1.12758,-1.11083z" fill="#000000" stroke="#000000" stroke-width="0.33116"/><path d="M262.96118,198.81058c0,-0.28148 0.23382,-0.50966 0.52225,-0.50966c0.28843,0 0.52225,0.22818 0.52225,0.50966c0,0.28148 -0.23382,0.50966 -0.52225,0.50966c-0.28843,0 -0.52225,-0.22818 -0.52225,-0.50966z" fill="#ffffff" stroke="#ffffff" stroke-width="0.15266"/></g></g><g><g><path d="M277.82384,187.12929c-0.05294,5.90951 -0.05294,5.90951 -0.05294,5.90951l-5.13481,-3.05163z" fill="#499800" stroke="#499800" stroke-width="0.09153"/><path d="M268.23485,184.38132c3.23264,0 5.85323,2.48585 5.85326,5.55233c0.00001,1.47259 -0.61667,2.88486 -1.71437,3.92614c-1.0977,1.04128 -2.5865,1.62626 -4.13888,1.62626c-3.23265,-0.00003 -5.85321,-2.48592 -5.8532,-5.5524c0.00003,-3.06646 2.62058,-5.55231 5.8532,-5.55233z" fill="#56b300" stroke="#8d9669" stroke-width="0.06407"/><path d="M270.86528,189.28789c-0.03588,4.10179 -0.03588,4.10179 -0.03588,4.10179l-3.48654,-2.11814z" fill="#499800" stroke="#499800" stroke-width="0.06284"/></g><g><path d="M265.14051,189.27495c-0.63332,0 -1.14673,-0.48605 -1.14673,-1.08563c0,-0.59958 0.51341,-1.08563 1.14673,-1.08563c0.63332,0 1.14673,0.48605 1.14673,1.08563c0,0.59958 -0.51341,1.08563 -1.14673,1.08563z" fill="#000000" stroke="#000000" stroke-width="0.33116"/><path d="M264.64897,188.29368c-0.29333,0 -0.53112,-0.22301 -0.53112,-0.4981c0,-0.27509 0.23779,-0.4981 0.53112,-0.4981c0.29333,0 0.53112,0.22301 0.53112,0.4981c0,0.27509 -0.23779,0.4981 -0.53112,0.4981z" fill="#ffffff" stroke="#ffffff" stroke-width="0.15266"/></g></g><g><g><path d="M296.43911,197.08278c-0.04808,5.91068 -0.04808,5.91068 -0.04808,5.91068l-4.66431,-3.05224z" fill="#499800" stroke="#499800" stroke-width="0.09153"/><path d="M287.72876,194.33425c2.93644,0 5.3169,2.48635 5.31692,5.55344c0,1.47288 -0.56017,2.88544 -1.55729,3.92692c-0.99712,1.04148 -2.3495,1.62658 -3.75964,1.62658c-2.93644,-0.00003 -5.31688,-2.48641 -5.31687,-5.5535c0.00003,-3.06707 2.38045,-5.55341 5.31687,-5.55344z" fill="#56b300" stroke="#8d9669" stroke-width="0.06407"/><path d="M290.11817,199.2418c-0.0326,4.1026 -0.0326,4.1026 -0.0326,4.1026l-3.16706,-2.11856z" fill="#499800" stroke="#499800" stroke-width="0.06284"/></g><g><path d="M284.91795,199.22886c-0.57529,0 -1.04165,-0.48615 -1.04165,-1.08584c0,-0.59969 0.46636,-1.08584 1.04165,-1.08584c0.57529,0 1.04165,0.48615 1.04165,1.08584c0,0.59969 -0.46636,1.08584 -1.04165,1.08584z" fill="#000000" stroke="#000000" stroke-width="0.33116"/><path d="M284.47145,198.24739c-0.26645,0 -0.48245,-0.22305 -0.48245,-0.4982c0,-0.27515 0.216,-0.4982 0.48245,-0.4982c0.26645,0 0.48245,0.22305 0.48245,0.4982c0,0.27515 -0.216,0.4982 -0.48245,0.4982z" fill="#ffffff" stroke="#ffffff" stroke-width="0.15266"/></g></g></g></g></svg>