<svg version="1.1" xmlns="http://www.w3.org/2000/svg" xmlns:xlink="http://www.w3.org/1999/xlink" width="149.05116" height="174.04731" viewBox="0,0,149.05116,174.04731"><g transform="translate(-244.54864,-93.90212)"><g data-paper-data="{&quot;isPaintingLayer&quot;:true}" fill-rule="nonzero" stroke="#ffffff" stroke-linejoin="miter" stroke-miterlimit="10" stroke-dasharray="" stroke-dashoffset="0" style="mix-blend-mode: normal"><path d="M282.14124,152.43282c-6.89167,-13.74249 -2.81126,-17.10906 22.31349,-31.68014c6.97811,-4.04694 32.27486,-15.71048 32.55949,-4.18942c0.66669,26.98567 0,104.74983 0,104.74983c0,0 12.94136,-1.16689 18.67047,1.44c7.98312,3.63252 6.12386,23.72683 -1.59382,24.48011c-22.398,2.18613 -38.72712,0.61471 -66.71279,0.47997c-8.36091,-0.04024 -8.64793,-22.39711 -1.13845,-25.68009c5.84131,-2.55368 20.94736,-0.96001 20.94736,-0.96001l-0.22769,-66.72029c0,0 -20.04583,7.59617 -24.81807,-1.92z" fill="#ff3535" stroke-width="7.5" stroke-linecap="round"/><path d="M244.54865,267.94944v-174.04731h149.05116v174.04731z" fill="none" stroke-width="0" stroke-linecap="butt"/></g></g></svg>