<svg version="1.1" xmlns="http://www.w3.org/2000/svg" xmlns:xlink="http://www.w3.org/1999/xlink" width="265.01866" height="209.05723" viewBox="0,0,265.01866,209.05723"><g transform="translate(-187.49067,-75.47139)"><g data-paper-data="{&quot;isPaintingLayer&quot;:true}" fill-rule="nonzero" stroke-linecap="butt" stroke-linejoin="miter" stroke-miterlimit="10" stroke-dasharray="" stroke-dashoffset="0" style="mix-blend-mode: normal"><path d="M337.45913,196.12805l113.87622,-63.7543c0,0 0,0 1.17398,123.46077z" data-paper-data="{&quot;index&quot;:null}" fill="#33a719" stroke="none" stroke-width="0"/><path d="M290.5675,75.47139c56.92774,0 103.07683,46.79907 103.07683,104.52863c0,57.72957 -46.14909,104.5286 -103.07683,104.5286c-56.92774,0 -103.07683,-46.79904 -103.07683,-104.5286c0,-57.72956 46.14909,-104.52863 103.07683,-104.52863z" data-paper-data="{&quot;index&quot;:null}" fill="#44e022" stroke="none" stroke-width="0"/><path d="M276.02703,195.17934l73.64791,-37.86055c0,0 0,0 0.75925,73.31727z" data-paper-data="{&quot;index&quot;:null}" fill="#33a719" stroke="none" stroke-width="0"/><g data-paper-data="{&quot;index&quot;:null}"><path d="M234.09375,203.19997c-11.32968,0 -20.51421,-9.3711 -20.51421,-20.93095c0,-11.55985 9.18449,-20.93095 20.51421,-20.93095c11.32967,0 20.51424,9.3711 20.51424,20.93095c0,11.55985 -9.18452,20.93095 -20.51424,20.93095z" fill="#000000" stroke="#000000" stroke-width="0.33116"/><path d="M225.30036,184.28104c-5.24748,0 -9.50138,-4.29961 -9.50138,-9.60342c0,-5.30385 4.25394,-9.60346 9.50138,-9.60346c5.24748,0 9.50138,4.29965 9.50138,9.60346c0,5.30385 -4.25394,9.60342 -9.50138,9.60342z" fill="#ffffff" stroke="#ffffff" stroke-width="0.15266"/></g></g></g></svg>