<svg version="1.1" xmlns="http://www.w3.org/2000/svg" xmlns:xlink="http://www.w3.org/1999/xlink" width="77.8967" height="60" viewBox="0,0,77.8967,60"><g transform="translate(-260.00001,-149.73568)"><g data-paper-data="{&quot;isPaintingLayer&quot;:true}" fill-rule="nonzero" stroke-linecap="butt" stroke-linejoin="miter" stroke-miterlimit="10" stroke-dasharray="" stroke-dashoffset="0" style="mix-blend-mode: normal"><path d="M319.99976,149.73568v20.63975c1.74074,-0.89966 3.67642,-1.37451 5.64344,-1.38441c3.24988,-0.00002 6.36665,1.26794 8.66464,3.52493c2.29799,2.25699 3.58895,5.31812 3.58887,8.50996c-0.00005,6.64651 -5.48613,12.03454 -12.2535,12.03449c-1.96699,-0.00978 -3.90267,-0.48449 -5.64344,-1.38402v18.0593h-59.99976v-60z" fill="#cca676" stroke="none" stroke-width="0.11881"/><path d="M280.21875,161.16813c4.85076,-1.94488 16.02283,-1.91826 24.44218,-1.06211c2.55317,0.25963 1.88978,6.84588 0.98338,9.894c-1.28204,4.31132 -10.92773,-0.02883 -15.4156,-0.10806c-1.67668,-0.0296 -1.66556,5.90558 0,5.72743c4.95688,-0.53019 11.5115,-0.85438 14.22978,2.80969c2.55531,3.4444 2.87972,8.58578 2.01588,13.50808c-0.82175,4.6825 -6.35287,8.93665 -11.50241,9.61776c-6.31297,0.835 -16.71931,1.59921 -19.68453,-3.89033c-1.46805,-2.71781 1.21371,-7.01954 4.26893,-8.21292c3.59599,-1.40461 8.02209,5.49573 11.14666,3.35001c3.11613,-2.13992 1.66392,-10.9884 -0.45994,-10.65907c-3.93645,0.61038 -10.96294,3.14521 -12.22828,-0.90385c-1.37166,-4.38926 -3.11508,-17.93801 2.20394,-20.07063z" fill="#4fe3e4" stroke="#ffffff" stroke-width="2.5"/></g></g></svg>