<svg version="1.1" xmlns="http://www.w3.org/2000/svg" xmlns:xlink="http://www.w3.org/1999/xlink" width="194.11011" height="113.18717" viewBox="0,0,194.11011,113.18717"><g transform="translate(-222.94182,-123.37778)"><g data-paper-data="{&quot;isPaintingLayer&quot;:true}" fill="#ffffff" fill-rule="nonzero" stroke="#ffffff" stroke-linecap="butt" stroke-linejoin="miter" stroke-miterlimit="10" stroke-dasharray="" stroke-dashoffset="0" style="mix-blend-mode: normal"><path d="M264.18858,173.2233c0,-27.45063 15.21865,-49.70372 33.99183,-49.70372c18.77318,0 33.99183,22.25309 33.99183,49.70372c0,27.45063 -15.21865,49.70372 -33.99183,49.70372c-18.77318,0 -33.99183,-22.25309 -33.99183,-49.70372z" stroke-width="0.2836"/><path d="M244.75555,188.40252c0,-19.74009 15.26974,-35.74258 34.10597,-35.74258c18.83618,0 34.10597,16.00249 34.10597,35.74258c0,19.74009 -15.26974,35.74258 -34.10597,35.74258c-18.83618,0 -34.10597,-16.00249 -34.10597,-35.74258z" stroke-width="0.2409"/><path d="M223.02397,199.71792c0,-13.29893 10.54246,-24.07989 23.54721,-24.07989c13.00475,0 23.54721,10.78091 23.54721,24.07989c0,13.29893 -10.54246,24.07989 -23.54721,24.07989c-13.00475,0 -23.54721,-10.78091 -23.54721,-24.07989z" stroke-width="0.16429"/><path d="M369.81482,207.16955c0,-11.33592 10.55737,-20.52548 23.58061,-20.52548c13.02318,0 23.58061,9.18956 23.58061,20.52548c0,11.33592 -10.55737,20.52548 -23.58061,20.52548c-13.02318,0 -23.58061,-9.18956 -23.58061,-20.52548z" stroke-width="0.15179"/><path d="M301.92244,184.53876c0,-11.33592 10.55737,-20.52548 23.58061,-20.52548c13.02318,0 23.58061,9.18956 23.58061,20.52548c0,11.33592 -10.55737,20.52548 -23.58061,20.52548c-13.02318,0 -23.58061,-9.18956 -23.58061,-20.52548z" stroke-width="0.15179"/><path d="M279.89866,212.13731c0,-12.22 12.6333,-22.12634 28.21732,-22.12634c15.58396,0 28.21732,9.90627 28.21732,22.12634c0,12.22 -12.6333,22.12634 -28.21732,22.12634c-15.58396,0 -28.21732,-9.90627 -28.21732,-22.12634z" stroke-width="0.1724"/><path d="M326.24381,204.40972c0,-12.23127 11.53038,-22.1467 25.7538,-22.1467c14.22341,0 25.7538,9.91541 25.7538,22.1467c0,12.23127 -11.53038,22.1467 -25.7538,22.1467c-14.22341,0 -25.7538,-9.91541 -25.7538,-22.1467z" stroke-width="0.16478"/><path d="M328.46317,214.34517c0,-12.22498 12.14305,-22.13525 27.12231,-22.13525c14.97925,0 27.12231,9.91028 27.12231,22.13525c0,12.22498 -12.14305,22.13525 -27.12231,22.13525c-14.97925,0 -27.12231,-9.91028 -27.12231,-22.13525z" stroke-width="0.16906"/></g></g></svg>