<svg version="1.1" xmlns="http://www.w3.org/2000/svg" xmlns:xlink="http://www.w3.org/1999/xlink" width="102.23189" height="246.09881" viewBox="0,0,102.23189,246.09881"><g transform="translate(-267.50284,-55.51247)"><g data-paper-data="{&quot;isPaintingLayer&quot;:true}" fill-rule="nonzero" stroke-miterlimit="10" stroke-dasharray="" stroke-dashoffset="0" style="mix-blend-mode: normal"><g><g stroke="none" stroke-linecap="round" stroke-linejoin="miter"><path d="M307.2726,219.62031c6.71745,-12.5207 25.61345,-15.46219 42.2054,-6.57c16.59195,8.89219 24.59681,26.25077 17.87936,38.77147c-6.71745,12.5207 -25.61345,15.46219 -42.2054,6.57c-16.59195,-8.89219 -24.59681,-26.25077 -17.87936,-38.77147z" fill="#eb3728" stroke-width="3.0092"/><path d="M307.85837,238.00437c5.87216,-8.3711 15.04462,-20.34497 26.34642,-29.73876c2.59859,-2.15989 9.93198,2.02884 9.93198,2.02884l-29.83789,39.89422c0,0 -8.87948,-8.7074 -6.44051,-12.18429z" fill="#b22921" stroke-width="3"/><path d="M321.32722,254.04043c5.23215,-9.85457 20.24299,-28.96197 31.13512,-38.19049c2.33171,-1.97558 8.86143,6.33313 8.86143,6.33313l-29.11575,39.29906c0,0 -12.8724,-3.69057 -10.88079,-7.44169z" fill="#b22921" stroke-width="3"/><path d="M340.77979,261.75675c4.35723,-9.04018 15.31096,-24.10285 24.2221,-32.65346c1.90763,-1.83046 4.16247,7.67121 4.16247,7.67121l-17.14062,26.07125c0,0 -12.90252,2.35212 -11.24396,-1.089z" fill="#b22921" stroke-width="2.56894"/></g><path d="M316.0011,188.28929c-0.40143,2.13749 -8.04007,2.55699 -8.57365,0.44994c-1.98473,-7.83749 0.50315,-28.42075 0.50315,-28.42075l8.81726,0.20323c0,0 0.82282,19.41006 -0.74677,27.76758z" fill="#ec3f31" stroke="none" stroke-width="3.83733" stroke-linecap="round" stroke-linejoin="miter"/><path d="M326.86335,252.68421c0,1.90069 -1.35594,24.02025 -0.35569,35.85352c0.48185,5.70041 11.51526,4.80057 12.00991,10.08235c0.08997,0.96068 -0.87966,1.98608 -1.80414,2.22678c-6.65042,1.73148 -19.4459,1.05003 -19.14216,-7.65587c0.47213,-13.53225 1.50099,-39.58716 1.50099,-39.58716c0,0 -2.9596,-17.81437 -4.60984,-22.08651c-1.08074,-2.79782 10.12659,-3.70145 10.18769,-0.6927c0.09756,4.80159 2.21324,19.95891 2.21324,21.85959z" fill="#b22921" stroke="none" stroke-width="3.5921" stroke-linecap="round" stroke-linejoin="miter"/><path d="M303.03888,228.74673c0.06113,-3.00875 11.26843,-2.10512 10.18769,0.6927c-1.65024,4.27214 -4.60984,22.08651 -4.60984,22.08651c0,0 1.02886,26.05491 1.50099,39.58716c0.30374,8.7059 -12.49174,9.38735 -19.14216,7.65587c-0.92449,-0.2407 -1.89411,-1.2661 -1.80414,-2.22678c0.49464,-5.28178 11.52806,-4.38194 12.00991,-10.08235c1.00025,-11.83327 -0.35569,-33.95283 -0.35569,-35.85352c0,-1.90068 2.11568,-17.058 2.21325,-21.85959z" fill="#b22921" stroke="none" stroke-width="3.5921" stroke-linecap="round" stroke-linejoin="miter"/><path d="M321.87653,182.77612c-3.8405,-0.77153 -5.36564,4.25565 1.32115,-5.38789c4.28855,-6.18486 25.49566,12.43032 29.9446,22.14734c6.58057,14.37271 -17.55535,22.18082 -19.64111,32.27512c-0.76653,3.70969 -2.12042,0.18423 -3.61676,-3.84257c-3.31247,-8.91441 18.07754,-19.31257 16.1986,-26.72542c-2.61217,-10.30566 -17.21338,-17.06172 -24.20648,-18.46658z" fill="#b22921" stroke="none" stroke-width="0.23672" stroke-linecap="butt" stroke-linejoin="miter"/><path d="M271.63302,127.19351c0,-22.2357 18.54808,-40.2613 41.42829,-40.2613c22.88021,0 41.42829,18.0256 41.42829,40.2613c0,22.2357 -18.54808,40.2613 -41.42829,40.2613c-22.88021,0 -41.42829,-18.0256 -41.42829,-40.2613z" fill="#ec3f31" stroke="none" stroke-width="3.05522" stroke-linecap="round" stroke-linejoin="miter"/><path d="M280.18454,201.37909c-1.7637,7.44111 19.78506,17.50615 16.61131,26.47088c-1.43369,4.04953 -2.73272,7.59557 -3.55671,3.89823c-2.24213,-10.06074 -26.49629,-17.49343 -20.13951,-31.96651c4.29765,-9.78487 25.21339,-28.72685 29.59739,-22.60926c6.8356,9.53862 5.23265,4.53571 1.40457,5.36674c-6.97046,1.51319 -21.46509,8.49497 -23.91706,18.83992z" fill="#b22921" stroke="none" stroke-width="0.23672" stroke-linecap="butt" stroke-linejoin="miter"/><path d="M294.96501,178.69539c7.67977,-9.42021 28.06835,-9.34664 35.91207,-0.0697c10.60417,12.54177 5.30965,38.4582 -6.95173,49.29408c-5.16493,4.56443 -15.23666,4.40172 -20.45101,-0.10317c-12.39949,-10.71252 -18.90926,-36.3644 -8.50933,-49.12123z" fill="#ec3f31" stroke="none" stroke-width="3.18976" stroke-linecap="round" stroke-linejoin="miter"/><g stroke-linecap="round"><path d="M283.08917,123.53252c0,-7.24574 5.49805,-13.11956 12.28024,-13.11956c6.78219,0 12.28024,5.87383 12.28024,13.11956c0,7.24574 -5.49805,13.11956 -12.28024,13.11956c-6.78219,0 -12.28024,-5.87383 -12.28024,-13.11956z" fill="#f9f9f9" stroke="none" stroke-width="11.3386" stroke-linejoin="miter"/><path d="M287.05624,123.64649c0,-4.59901 3.65854,-8.32724 8.17158,-8.32724c4.51304,0 8.17158,3.72823 8.17158,8.32724c0,4.59901 -3.65854,8.32725 -8.17158,8.32725c-4.51304,0 -8.17158,-3.72824 -8.17158,-8.32725z" fill="#000000" stroke="#1ce652" stroke-width="0.41802" stroke-linejoin="bevel"/><path d="M293.48632,121.6437c0,-2.54114 1.85233,-4.60114 4.13729,-4.60114c2.28496,0 4.13729,2.06 4.13729,4.60114c0,2.54114 -1.85233,4.60114 -4.13729,4.60114c-2.28496,0 -4.13729,-2.06 -4.13729,-4.60114z" fill="#ffffff" stroke="#1ce652" stroke-width="0" stroke-linejoin="bevel"/></g><g stroke-linecap="round"><path d="M329.86924,136.65208c-6.78219,0 -12.28024,-5.87383 -12.28024,-13.11956c0,-7.24574 5.49805,-13.11956 12.28024,-13.11956c6.78219,0 12.28024,5.87383 12.28024,13.11956c0,7.24574 -5.49805,13.11956 -12.28024,13.11956z" fill="#f9f9f9" stroke="none" stroke-width="11.3386" stroke-linejoin="miter"/><path d="M330.01084,131.97374c-4.51304,0 -8.17158,-3.72824 -8.17158,-8.32725c0,-4.59901 3.65854,-8.32724 8.17158,-8.32724c4.51304,0 8.17158,3.72823 8.17158,8.32724c0,4.59901 -3.65854,8.32725 -8.17158,8.32725z" fill="#000000" stroke="#1ce652" stroke-width="0.41802" stroke-linejoin="bevel"/><path d="M327.61505,126.24483c-2.28496,0 -4.13729,-2.06 -4.13729,-4.60114c0,-2.54114 1.85233,-4.60114 4.13729,-4.60114c2.28496,0 4.13729,2.06 4.13729,4.60114c0,2.54114 -1.85233,4.60114 -4.13729,4.60114z" fill="#ffffff" stroke="#1ce652" stroke-width="0" stroke-linejoin="bevel"/></g><path d="M285.68055,147.38889c-3.57056,-0.05332 -6.44347,-2.4428 -6.41683,-5.33706c0.02664,-2.89425 2.94274,-5.19728 6.5133,-5.14396c3.57056,0.05332 6.44347,2.4428 6.41683,5.33706c-0.02664,2.89425 -2.94274,5.19728 -6.5133,5.14396z" fill="#f98787" stroke="none" stroke-width="3.38589" stroke-linecap="round" stroke-linejoin="miter"/><path d="M338.78076,147.38896c-3.57056,-0.05332 -6.44347,-2.4428 -6.41683,-5.33706c0.02664,-2.89425 2.94274,-5.19728 6.5133,-5.14396c3.57056,0.05332 6.44347,2.4428 6.41683,5.33706c-0.02664,2.89425 -2.94274,5.19728 -6.5133,5.14396z" fill="#f98787" stroke="none" stroke-width="3.38589" stroke-linecap="round" stroke-linejoin="miter"/><path d="M267.59313,66.58323c-1.30975,-9.04559 11.96423,-13.7496 18.19861,-9.47576c9.36184,6.41782 12.20233,39.25064 12.20233,39.25064c0,0 -5.11936,4.11444 -5.43651,1.58183c-1.03778,-8.28691 -1.81476,-25.79446 -8.66374,-32.75024c-4.95643,-5.03374 -15.19627,9.021 -16.30069,1.39353z" fill="#b22921" stroke="none" stroke-width="5.34855" stroke-linecap="round" stroke-linejoin="miter"/><path d="M338.83819,65.71064c-7.16035,7.28266 -7.16524,24.5251 -7.90088,32.7308c-0.22482,2.50779 -6.02671,-1.19397 -6.02671,-1.19397c0,0 1.52329,-32.42706 11.45996,-39.34754c6.61718,-4.60858 21.37284,-0.86679 20.37617,8.10185c-0.84042,7.56259 -12.7268,-5.56143 -17.90854,-0.29114z" fill="#b22921" stroke="none" stroke-width="5.55301" stroke-linecap="round" stroke-linejoin="miter"/><g fill="#000000" stroke="none" stroke-width="1" stroke-linecap="butt" stroke-linejoin="miter" font-family="&quot;Helvetica Neue&quot;, Helvetica, Arial, sans-serif" font-weight="400" font-size="16" text-anchor="start"/><path d="M320.94599,150.58162c-1.79215,-0.6289 -4.10414,-0.97633 -6.49935,-0.97668c-2.85258,0.00025 -5.56336,0.49229 -7.42487,1.34772c-2.26119,-1.30647 -4.01413,-3.19784 -4.73718,-5.35316c6.3838,1.5603 11.85514,2.69141 22.76606,-0.0739c-1.09814,2.23818 -2.5148,3.89274 -4.10466,5.05602z" fill="#000000" stroke="#000000" stroke-width="0.18816" stroke-linecap="butt" stroke-linejoin="miter"/><path d="M307.02177,150.95266c1.86151,-0.85543 4.57229,-1.34747 7.42487,-1.34772c2.39521,0.00035 4.7072,0.34778 6.49935,0.97668c-4.31886,3.16003 -9.91979,2.68472 -13.92422,0.37104z" fill="#fc455e" stroke="none" stroke-width="4.82053" stroke-linecap="round" stroke-linejoin="miter"/></g></g></g></svg>