<svg version="1.1" xmlns="http://www.w3.org/2000/svg" xmlns:xlink="http://www.w3.org/1999/xlink" width="149.05116" height="174.04731" viewBox="0,0,149.05116,174.04731"><g transform="translate(-244.54864,-93.90212)"><g data-paper-data="{&quot;isPaintingLayer&quot;:true}" fill-rule="nonzero" stroke="#ffffff" stroke-linecap="butt" stroke-linejoin="miter" stroke-miterlimit="10" stroke-dasharray="" stroke-dashoffset="0" style="mix-blend-mode: normal"><path d="M353.33685,120.93688c8.83081,16.78682 -1.00599,47.86234 3.75825,67.59232c1.24266,2.51475 11.55722,-1.23954 14.5178,-0.24424c7.72547,2.59723 8.94251,20.96382 2.50859,27.97504c-4.35537,4.74616 -19.70934,0.69002 -19.70934,0.69002c0,0 3.35675,21.55289 -3.94312,27.63002c-7.13533,5.94018 -21.15951,5.70032 -28.285,-0.25081c-6.99689,-5.84368 0.68405,-26.84649 -4.20339,-26.46159c-21.30029,1.67745 -33.70756,-0.89318 -41.67858,-1.53426c-48.29933,-3.88451 37.37623,-105.66545 56.13661,-105.24787c9.17664,0.20426 17.14015,2.70754 20.89819,9.85136zM292.41369,190.35712l31.8955,1.03505c2.12547,-45.64188 1.3178,-29.4054 2.1493,-46.62464l-0.01668,0.02367c0,-0.01623 0.01668,-0.35655 0.01668,-0.36827z" fill="#c962c4" stroke-width="7.5"/><path d="M244.54865,267.94944v-174.04731h149.05116v174.04731z" fill="none" stroke-width="0"/></g></g></svg>