<svg version="1.1" xmlns="http://www.w3.org/2000/svg" xmlns:xlink="http://www.w3.org/1999/xlink" width="320.42712" height="323.5" viewBox="0,0,320.42712,323.5"><g transform="translate(-159.78644,-18.25)"><g data-paper-data="{&quot;isPaintingLayer&quot;:true}" fill-rule="nonzero" stroke-linejoin="miter" stroke-miterlimit="10" stroke-dasharray="" stroke-dashoffset="0" style="mix-blend-mode: normal"><path d="M466.96356,180c0,82.01429 -65.79783,148.5 -146.96356,148.5c-81.16573,0 -146.96356,-66.48571 -146.96356,-148.5c0,-82.01429 65.79783,-148.5 146.96356,-148.5c81.16573,0 146.96356,66.48571 146.96356,148.5z" fill="#60a040" stroke="#29441b" stroke-width="26.5" stroke-linecap="butt"/><path d="M278.95592,123.99451c24.93225,-8.32225 53.78526,-7.71436 78.91526,0c13.33032,4.09212 28.5987,10.93151 34.54815,23.45592c16.13921,33.97526 19.04334,77.28607 -5.45496,100.31917c-33.26231,31.2729 -104.71547,31.80097 -137.46529,0c-24.00483,-23.30936 -25.82635,-68.89795 -2.18199,-99.9583c8.396,-11.02937 19.09209,-19.62875 31.63884,-23.81678z" fill="#c87137" stroke="#a05a2c" stroke-width="0.26685" stroke-linecap="butt"/><path d="M280.04422,122.30716c0,0 -22.82738,30.38498 -35.95073,24.30188c-16.87284,-7.82111 -22.166,-46.22084 -6.02909,-55.46543c15.12185,-8.66308 41.97982,31.16356 41.97982,31.16356z" fill="#c87137" stroke="#c87137" stroke-width="0.26459" stroke-linecap="butt"/><path d="M401.20717,91.66705c16.42174,8.7286 12.34807,47.27678 -4.26845,55.62863c-12.92401,6.4959 -36.70277,-23.15045 -36.70277,-23.15045c0,0 25.58242,-40.65772 40.97122,-32.47818z" fill="#c87137" stroke="#c87137" stroke-width="0.26459" stroke-linecap="butt"/><path d="M286.23224,125.24483c2.5038,0.17462 4.3619,2.05025 4.15017,4.18933c-0.21173,2.13908 -2.41311,3.73158 -4.91691,3.55696c-2.5038,-0.17462 -4.3619,-2.05025 -4.15016,-4.18933c0.21173,-2.13908 2.4131,-3.73158 4.9169,-3.55696z" fill="#a05a2c" stroke="#a05a2c" stroke-width="0.02121" stroke-linecap="butt"/><path d="M302.04014,224.02202c0,-4.93745 7.99898,-8.94005 17.86623,-8.94005c9.86725,0 17.86623,4.0026 17.86623,8.94005c0,4.93745 -7.99898,8.94004 -17.86623,8.94004c-9.86725,0 -17.86623,-4.00259 -17.86623,-8.94004z" fill="#763911" stroke="#763911" stroke-width="0.27589" stroke-linecap="butt"/><path d="M267.70821,204.89739c0,-7.07205 4.07885,-12.80508 9.11037,-12.80508c5.03152,0 9.11036,5.73303 9.11036,12.80508c0,7.07205 -4.07884,12.80508 -9.11036,12.80508c-5.03152,0 -9.11037,-5.73303 -9.11037,-12.80508z" fill="#000000" stroke="#000000" stroke-width="0.26459" stroke-linecap="butt"/><path d="M273.25256,200.32663c0,-2.02059 1.32562,-3.6586 2.96086,-3.6586c1.63524,0 2.96087,1.63801 2.96087,3.6586c0,2.02059 -1.32563,3.65859 -2.96087,3.65859c-1.63524,0 -2.96086,-1.638 -2.96086,-3.65859z" fill="#ffffff" stroke="#000000" stroke-width="0.26459" stroke-linecap="butt"/><path d="M350.96304,203.71794c0,-7.07976 3.66265,-12.81902 8.18076,-12.81902c4.5181,0 8.18075,5.73926 8.18075,12.81902c0,7.07976 -3.66264,12.81903 -8.18075,12.81903c-4.5181,0 -8.18076,-5.73927 -8.18076,-12.81903z" fill="#000000" stroke="#000000" stroke-width="0.26459" stroke-linecap="butt"/><path d="M355.94165,199.1422c0,-2.02278 1.19037,-3.66257 2.65876,-3.66257c1.46839,0 2.65874,1.63979 2.65874,3.66257c0,2.02278 -1.19035,3.66258 -2.65874,3.66258c-1.46839,0 -2.65876,-1.63979 -2.65876,-3.66258z" fill="#ffffff" stroke="#000000" stroke-width="0.26459" stroke-linecap="butt"/><path d="M267.71906,132.10919l-3.43169,0.4496c0,0 -20.80515,-1.08808 -23.8361,-29.64074" fill="#763911" stroke="#763911" stroke-width="0.26459" stroke-linecap="butt"/><path d="M403.29403,104.91963c-3.03094,28.55266 -23.8361,29.64074 -23.8361,29.64074l-3.43169,-0.4496" fill="#763911" stroke="#763911" stroke-width="0.26459" stroke-linecap="butt"/><path d="M299.24253,123.91045c2.5038,0.17462 4.3619,2.05026 4.15017,4.18934c-0.21173,2.13908 -2.4131,3.73158 -4.9169,3.55696c-2.5038,-0.17462 -4.3619,-2.05025 -4.15017,-4.18933c0.21173,-2.13908 2.4131,-3.73159 4.91691,-3.55697z" fill="#a05a2c" stroke="#a05a2c" stroke-width="0.02121" stroke-linecap="butt"/><path d="M312.92001,122.24246c2.5038,0.17462 4.3619,2.05025 4.15017,4.18934c-0.21173,2.13908 -2.4131,3.73157 -4.9169,3.55695c-2.5038,-0.17462 -4.3619,-2.05025 -4.15017,-4.18933c0.21173,-2.13908 2.4131,-3.73157 4.9169,-3.55695z" fill="#a05a2c" stroke="#a05a2c" stroke-width="0.02121" stroke-linecap="butt"/><path d="M325.59671,121.57525c2.5038,0.17462 4.3619,2.05025 4.15017,4.18934c-0.21173,2.13908 -2.4131,3.73158 -4.9169,3.55696c-2.5038,-0.17462 -4.3619,-2.05025 -4.15017,-4.18933c0.21173,-2.13908 2.4131,-3.73159 4.9169,-3.55697z" fill="#a05a2c" stroke="#a05a2c" stroke-width="0.02121" stroke-linecap="butt"/><path d="M338.60698,122.24245c2.5038,0.17462 4.3619,2.05025 4.15017,4.18934c-0.21173,2.13908 -2.41311,3.73158 -4.91691,3.55696c-2.5038,-0.17462 -4.3619,-2.05025 -4.15017,-4.18933c0.21173,-2.13908 2.4131,-3.73158 4.91691,-3.55696z" fill="#a05a2c" stroke="#a05a2c" stroke-width="0.02121" stroke-linecap="butt"/><path d="M352.28448,123.57684c2.5038,0.17462 4.3619,2.05027 4.15017,4.18935c-0.21173,2.13908 -2.4131,3.73158 -4.9169,3.55696c-2.5038,-0.17462 -4.3619,-2.05026 -4.15017,-4.18934c0.21173,-2.13908 2.4131,-3.73158 4.91691,-3.55696z" fill="#a05a2c" stroke="#a05a2c" stroke-width="0.02121" stroke-linecap="butt"/><path d="M294.57214,132.58397c2.5038,0.17462 4.3619,2.05025 4.15017,4.18934c-0.21173,2.13908 -2.4131,3.73158 -4.9169,3.55696c-2.5038,-0.17462 -4.3619,-2.05026 -4.15017,-4.18935c0.21173,-2.13908 2.4131,-3.73157 4.91691,-3.55695z" fill="#a05a2c" stroke="#a05a2c" stroke-width="0.02121" stroke-linecap="butt"/><path d="M308.24963,131.24958c2.5038,0.17462 4.3619,2.05025 4.15016,4.18934c-0.21173,2.13908 -2.4131,3.73158 -4.9169,3.55696c-2.5038,-0.17462 -4.3619,-2.05025 -4.15017,-4.18933c0.21173,-2.13908 2.41311,-3.73158 4.91691,-3.55696z" fill="#a05a2c" stroke="#a05a2c" stroke-width="0.02121" stroke-linecap="butt"/><path d="M322.59432,130.91599c2.5038,0.17462 4.3619,2.05025 4.15017,4.18934c-0.21173,2.13908 -2.4131,3.73157 -4.9169,3.55695c-2.5038,-0.17462 -4.3619,-2.05025 -4.15017,-4.18933c0.21173,-2.13908 2.4131,-3.73157 4.91691,-3.55695z" fill="#a05a2c" stroke="#a05a2c" stroke-width="0.02121" stroke-linecap="butt"/><path d="M333.93662,130.58238c2.5038,0.17462 4.3619,2.05025 4.15017,4.18934c-0.21173,2.13908 -2.41311,3.73158 -4.91691,3.55696c-2.5038,-0.17462 -4.3619,-2.05025 -4.15016,-4.18933c0.21173,-2.13908 2.4131,-3.73158 4.9169,-3.55696z" fill="#a05a2c" stroke="#a05a2c" stroke-width="0.02121" stroke-linecap="butt"/><path d="M346.27971,131.24958c2.5038,0.17462 4.3619,2.05025 4.15017,4.18934c-0.21173,2.13908 -2.4131,3.73159 -4.91691,3.55697c-2.5038,-0.17462 -4.3619,-2.05025 -4.15017,-4.18933c0.21173,-2.13908 2.4131,-3.73159 4.91691,-3.55697z" fill="#a05a2c" stroke="#a05a2c" stroke-width="0.02121" stroke-linecap="butt"/><path d="M302.24487,140.59031c2.5038,0.17462 4.3619,2.05025 4.15017,4.18934c-0.21173,2.13908 -2.4131,3.73157 -4.91691,3.55695c-2.5038,-0.17462 -4.3619,-2.05025 -4.15017,-4.18933c0.21173,-2.13908 2.4131,-3.73157 4.9169,-3.55695z" fill="#a05a2c" stroke="#a05a2c" stroke-width="0.02121" stroke-linecap="butt"/><path d="M317.25675,140.59031c2.5038,0.17462 4.3619,2.05025 4.15017,4.18934c-0.21173,2.13908 -2.41311,3.73158 -4.91691,3.55696c-2.5038,-0.17462 -4.36191,-2.05025 -4.15017,-4.18933c0.21173,-2.13908 2.41311,-3.73158 4.91692,-3.55696z" fill="#a05a2c" stroke="#a05a2c" stroke-width="0.02121" stroke-linecap="butt"/><path d="M330.93423,140.59032c2.5038,0.17462 4.3619,2.05025 4.15017,4.18934c-0.21173,2.13908 -2.4131,3.73158 -4.91691,3.55696c-2.5038,-0.17462 -4.3619,-2.05025 -4.15017,-4.18933c0.21173,-2.13908 2.4131,-3.73158 4.9169,-3.55696z" fill="#a05a2c" stroke="#a05a2c" stroke-width="0.02121" stroke-linecap="butt"/><path d="M342.94375,140.25673c2.5038,0.17462 4.3619,2.05025 4.15017,4.18934c-0.21173,2.13908 -2.41311,3.73158 -4.91691,3.55696c-2.5038,-0.17462 -4.3619,-2.05025 -4.15017,-4.18933c0.21173,-2.13908 2.4131,-3.73158 4.91691,-3.55696z" fill="#a05a2c" stroke="#a05a2c" stroke-width="0.02121" stroke-linecap="butt"/><path d="M308.91684,148.59665c2.5038,0.17462 4.3619,2.05025 4.15017,4.18934c-0.21173,2.13908 -2.4131,3.73158 -4.9169,3.55696c-2.5038,-0.17462 -4.3619,-2.05025 -4.15017,-4.18933c0.21173,-2.13908 2.4131,-3.73158 4.9169,-3.55696z" fill="#a05a2c" stroke="#a05a2c" stroke-width="0.02121" stroke-linecap="butt"/><path d="M323.5951,148.93025c2.5038,0.17462 4.3619,2.05025 4.15017,4.18934c-0.21173,2.13908 -2.41311,3.73158 -4.91691,3.55696c-2.5038,-0.17462 -4.3619,-2.05025 -4.15016,-4.18933c0.21173,-2.13908 2.4131,-3.73158 4.9169,-3.55696z" fill="#a05a2c" stroke="#a05a2c" stroke-width="0.02121" stroke-linecap="butt"/><path d="M336.60542,149.26385c2.5038,0.17462 4.3619,2.05025 4.15017,4.18933c-0.21173,2.13908 -2.4131,3.73159 -4.9169,3.55697c-2.5038,-0.17462 -4.3619,-2.05025 -4.15017,-4.18933c0.21173,-2.13908 2.4131,-3.73158 4.9169,-3.55696z" fill="#a05a2c" stroke="#a05a2c" stroke-width="0.02121" stroke-linecap="butt"/><path d="M315.5888,157.27018c2.5038,0.17462 4.3619,2.05025 4.15017,4.18934c-0.21173,2.13908 -2.4131,3.73158 -4.9169,3.55696c-2.5038,-0.17462 -4.3619,-2.05025 -4.15017,-4.18933c0.21173,-2.13908 2.4131,-3.73158 4.91691,-3.55696z" fill="#a05a2c" stroke="#a05a2c" stroke-width="0.02121" stroke-linecap="butt"/><path d="M329.93346,157.27018c2.5038,0.17462 4.3619,2.05025 4.15016,4.18934c-0.21173,2.13908 -2.4131,3.73158 -4.9169,3.55696c-2.5038,-0.17462 -4.3619,-2.05025 -4.15017,-4.18933c0.21173,-2.13908 2.41311,-3.73159 4.91691,-3.55697z" fill="#a05a2c" stroke="#a05a2c" stroke-width="0.02121" stroke-linecap="butt"/><path d="M322.92793,165.61011c2.5038,0.17462 4.3619,2.05025 4.15017,4.18934c-0.21173,2.13908 -2.4131,3.73157 -4.91691,3.55695c-2.5038,-0.17462 -4.3619,-2.05025 -4.15017,-4.18933c0.21173,-2.13908 2.4131,-3.73157 4.91691,-3.55695z" fill="#a05a2c" stroke="#a05a2c" stroke-width="0.02121" stroke-linecap="butt"/><path d="M262.41667,186.21795l9.08333,9.78205" fill="none" stroke="#000000" stroke-width="0.86154" stroke-linecap="round"/><path d="M267.38095,185.16667l7.11905,7.66666" fill="none" stroke="#000000" stroke-width="0.86154" stroke-linecap="round"/><path d="M367.6,186.07436l-6.83333,7.35897" data-paper-data="{&quot;index&quot;:null}" fill="none" stroke="#000000" stroke-width="0.86154" stroke-linecap="round"/><path d="M364.76666,195.4l7.83333,-8.43589" data-paper-data="{&quot;index&quot;:null}" fill="none" stroke="#000000" stroke-width="0.86154" stroke-linecap="round"/></g></g></svg>