<svg version="1.1" xmlns="http://www.w3.org/2000/svg" xmlns:xlink="http://www.w3.org/1999/xlink" width="60.00016" height="60" viewBox="0,0,60.00016,60"><g transform="translate(-239.99984,-150)"><g data-paper-data="{&quot;isPaintingLayer&quot;:true}" fill-rule="nonzero" stroke-linecap="butt" stroke-linejoin="miter" stroke-miterlimit="10" stroke-dasharray="" stroke-dashoffset="0" style="mix-blend-mode: normal"><path d="M300,150v60h-60.00015v-18.0593c1.74077,0.89953 3.67646,1.37424 5.64344,1.38402c6.76737,0.00004 12.25345,-5.38798 12.2535,-12.03449c0.00008,-3.19183 -1.29088,-6.25297 -3.58887,-8.50996c-2.29799,-2.25699 -5.41476,-3.52495 -8.66464,-3.52493c-1.96702,0.0099 -3.9027,0.48475 -5.64344,1.38441v-20.63975z" fill="#044281" stroke="none" stroke-width="0.11881"/><g data-paper-data="{&quot;index&quot;:null}"><path d="M296.14931,164.99656c-0.0677,9.13167 -0.0677,9.13167 -0.0677,9.13167l-6.56883,-4.71554z" fill="#d30000" stroke="#d30000" stroke-width="0.08546"/><path d="M275.75578,174.98447v-11.46628h15.31458v11.46628z" fill="#ff1515" stroke="#ff1515" stroke-width="0.07779"/><g><path d="M278.72989,168.7904c-0.81791,0 -1.48095,-0.8329 -1.48095,-1.86032c0,-1.02743 0.66305,-1.86032 1.48095,-1.86032c0.81791,0 1.48095,0.8329 1.48095,1.86032c0,1.02743 -0.66305,1.86032 -1.48095,1.86032z" fill="#000000" stroke="#000000" stroke-width="0.33116"/><path d="M278.09508,167.1089c-0.37882,0 -0.68592,-0.38214 -0.68592,-0.85354c0,-0.4714 0.3071,-0.85354 0.68592,-0.85354c0.37882,0 0.68592,0.38214 0.68592,0.85354c0,0.4714 -0.3071,0.85354 -0.68592,0.85354z" fill="#ffffff" stroke="#ffffff" stroke-width="0.15266"/></g><path d="M286.99839,166.77761c-0.0464,7.0288 -0.0464,7.0288 -0.0464,7.0288l-4.50272,-3.62963z" fill="#d30000" stroke="#d30000" stroke-width="0.06208"/></g><g><path d="M259.1729,161.08345l-6.56883,4.71554c0,0 0,0 -0.0677,-9.13167z" fill="#d30000" stroke="#d30000" stroke-width="0.08546"/><path d="M257.61533,166.65523v-11.46628h15.31458v11.46628z" fill="#ff1515" stroke="#ff1515" stroke-width="0.07779"/><g><path d="M268.47483,158.60083c0,-1.02743 0.66305,-1.86032 1.48095,-1.86032c0.81791,0 1.48095,0.8329 1.48095,1.86032c0,1.02743 -0.66305,1.86032 -1.48095,1.86032c-0.81791,0 -1.48095,-0.8329 -1.48095,-1.86032z" fill="#000000" stroke="#000000" stroke-width="0.33116"/><path d="M269.90468,157.92611c0,-0.4714 0.3071,-0.85354 0.68592,-0.85354c0.37882,0 0.68592,0.38214 0.68592,0.85354c0,0.4714 -0.3071,0.85354 -0.68592,0.85354c-0.37882,0 -0.68592,-0.38214 -0.68592,-0.85354z" fill="#ffffff" stroke="#ffffff" stroke-width="0.15266"/></g><path d="M266.23641,161.84754l-4.50272,3.62963c0,0 0,0 -0.0464,-7.0288z" fill="#d30000" stroke="#d30000" stroke-width="0.06208"/></g><g data-paper-data="{&quot;index&quot;:null}"><path d="M267.8872,184.7993l-6.56923,4.71553c0,0 0,0 -0.0677,-9.13166z" fill="#d30000" stroke="#d30000" stroke-width="0.08546"/><path d="M266.32953,190.37107v-11.46626h15.31551v11.46626z" fill="#ff1515" stroke="#ff1515" stroke-width="0.07779"/><g><path d="M277.1897,182.31668c0,-1.02743 0.66309,-1.86032 1.48104,-1.86032c0.81796,0 1.48104,0.83289 1.48104,1.86032c0,1.02743 -0.66309,1.86032 -1.48104,1.86032c-0.81796,0 -1.48104,-0.83289 -1.48104,-1.86032z" fill="#000000" stroke="#000000" stroke-width="0.33116"/><path d="M278.61963,181.64197c0,-0.4714 0.30711,-0.85354 0.68596,-0.85354c0.37884,0 0.68596,0.38214 0.68596,0.85354c0,0.4714 -0.30711,0.85354 -0.68596,0.85354c-0.37884,0 -0.68596,-0.38214 -0.68596,-0.85354z" fill="#ffffff" stroke="#ffffff" stroke-width="0.15266"/></g><path d="M274.95114,185.56339l-4.50299,3.62962c0,0 0,0 -0.0464,-7.02879z" fill="#d30000" stroke="#d30000" stroke-width="0.06208"/></g><g><path d="M296.37235,195.71357c-0.0677,9.13166 -0.0677,9.13166 -0.0677,9.13166l-6.56923,-4.71553z" fill="#d30000" stroke="#d30000" stroke-width="0.08546"/><path d="M275.97758,205.70147v-11.46626h15.31551v11.46626z" fill="#ff1515" stroke="#ff1515" stroke-width="0.07779"/><g><path d="M278.95187,199.5074c-0.81796,0 -1.48104,-0.83289 -1.48104,-1.86032c0,-1.02743 0.66309,-1.86032 1.48104,-1.86032c0.81796,0 1.48104,0.83289 1.48104,1.86032c0,1.02743 -0.66309,1.86032 -1.48104,1.86032z" fill="#000000" stroke="#000000" stroke-width="0.33116"/><path d="M278.31702,197.82591c-0.37884,0 -0.68596,-0.38214 -0.68596,-0.85354c0,-0.4714 0.30711,-0.85354 0.68596,-0.85354c0.37884,0 0.68596,0.38214 0.68596,0.85354c0,0.4714 -0.30711,0.85354 -0.68596,0.85354z" fill="#ffffff" stroke="#ffffff" stroke-width="0.15266"/></g><path d="M287.22088,197.49462c-0.0464,7.02879 -0.0464,7.02879 -0.0464,7.02879l-4.50299,-3.62962z" fill="#d30000" stroke="#d30000" stroke-width="0.06208"/></g></g></g></svg>