<svg version="1.1" xmlns="http://www.w3.org/2000/svg" xmlns:xlink="http://www.w3.org/1999/xlink" width="123.7417" height="303.69758" viewBox="0,0,123.7417,303.69758"><g transform="translate(-259.63065,-28.15121)"><g data-paper-data="{&quot;isPaintingLayer&quot;:true}" fill-rule="nonzero" stroke="#7802ff" stroke-width="0" stroke-linecap="round" stroke-linejoin="round" stroke-miterlimit="10" stroke-dasharray="" stroke-dashoffset="0" style="mix-blend-mode: normal"><path d="M324.28909,96.08381c4.69774,54.55136 -0.23361,234.07506 -0.23361,234.07506l-7.56065,1.68944c0,0 -1.05111,-186.21545 4.92814,-237.12272c0.78922,-6.71936 2.23281,-5.99634 2.86611,1.35822z" fill="#6b9b1f"/><path d="M381.52526,244.89262c-6.91074,36.88869 -35.55042,69.32765 -60.4931,67.87846c-26.45882,-1.53727 -55.02036,-39.38939 -60.4552,-79.24521c-10.15395,-74.46289 64.75441,-205.37466 64.75441,-205.37466c0,0 70.19548,142.00278 56.19389,216.74141z" fill="#85c227"/><g fill="#6b9b1f"><path d="M324.28937,96.0843c4.69774,54.55135 -0.23361,234.07506 -0.23361,234.07506l-7.56065,1.68943c0,0 -1.05111,-186.21544 4.92815,-237.12272c0.78922,-6.71935 2.23281,-5.99633 2.86611,1.35823z"/><path d="M320.19667,253.90833l-1.59158,12.35147c0,0 -26.20807,-8.73752 -31.85844,-21.28505c-0.74581,-1.65619 -0.2962,-3.95581 0.88191,-4.57015c8.73841,-4.55683 32.56812,13.50373 32.56812,13.50373z"/><path d="M326.42406,151.80072l-1.59158,12.35147c0,0 -26.20806,-8.73751 -31.85844,-21.28507c-0.7458,-1.65617 -0.2962,-3.95579 0.88191,-4.57013c8.7384,-4.55682 32.56812,13.50373 32.56812,13.50373z"/><path d="M353.015,185.25063c1.1781,0.61434 1.62771,2.91396 0.88191,4.57014c-5.65037,12.54754 -31.85845,21.28507 -31.85845,21.28507l-1.59158,-12.35148c0,0 23.82973,-18.06056 32.56812,-13.50373z"/></g></g></g></svg>