<svg version="1.1" xmlns="http://www.w3.org/2000/svg" xmlns:xlink="http://www.w3.org/1999/xlink" width="688.18769" height="425.42493" viewBox="0,0,688.18769,425.42493"><g transform="translate(23.34309,31.9617)"><g data-paper-data="{&quot;isPaintingLayer&quot;:true}" fill-rule="nonzero" stroke="#ffffff" stroke-linejoin="miter" stroke-miterlimit="10" stroke-dasharray="" stroke-dashoffset="0" style="mix-blend-mode: normal"><path d="M-23.09309,393.21322v-424.92492h687.68769v424.92493z" fill-opacity="0.22745" fill="#000000" stroke-width="0.5" stroke-linecap="butt"/><path d="M276.96195,148.66147c-7.83449,-15.62253 -3.19586,-19.44968 25.3661,-36.01415c7.93276,-4.60058 36.69024,-17.85976 37.0138,-4.76256c0.75789,30.67746 0,119.0802 0,119.0802c0,0 14.71181,-1.32653 21.2247,1.637c9.07526,4.12947 6.96165,26.97279 -1.81186,27.82913c-25.46217,2.48521 -44.0252,0.6988 -75.83947,0.54564c-9.50474,-0.04575 -9.83102,-25.46116 -1.29419,-29.19327c6.64044,-2.90303 23.81308,-1.09134 23.81308,-1.09134l-0.25884,-75.848c0,0 -22.78821,8.63536 -28.21332,-2.18267z" fill="#ff3535" stroke-width="7.5" stroke-linecap="round"/></g></g></svg>