<svg version="1.1" xmlns="http://www.w3.org/2000/svg" xmlns:xlink="http://www.w3.org/1999/xlink" width="204.59417" height="297.22955" viewBox="0,0,204.59417,297.22955"><defs><linearGradient x1="222.86283" y1="236.90176" x2="415.73705" y2="146.37198" gradientUnits="userSpaceOnUse" id="color-1"><stop offset="0" stop-color="#ff9900"/><stop offset="1" stop-color="#ab2100"/></linearGradient><linearGradient x1="222.86284" y1="236.90176" x2="415.73705" y2="146.37198" gradientUnits="userSpaceOnUse" id="color-2"><stop offset="0" stop-color="#000000"/><stop offset="1" stop-color="#000000" stop-opacity="0"/></linearGradient></defs><g transform="translate(-214.89515,-20.15421)"><g data-paper-data="{&quot;isPaintingLayer&quot;:true}" fill-rule="nonzero" stroke-miterlimit="10" stroke-dasharray="" stroke-dashoffset="0" style="mix-blend-mode: normal"><path d="M296.17939,65.41287c31.39132,-18.52224 58.7302,-13.67788 83.87338,17.93057c25.14318,31.60846 48.08766,89.97723 36.21547,135.3735c-11.87221,45.39627 -58.5596,77.81454 -94.43392,91.41884c-35.87431,13.6043 -60.93111,8.39298 -80.45024,-18.48105c-19.51913,-26.87401 -33.49846,-75.40841 -22.76757,-120.62027c10.73088,-45.21186 46.17158,-87.09935 77.56288,-105.62159z" fill="url(#color-1)" stroke="url(#color-2)" stroke-width="0" stroke-linecap="round" stroke-linejoin="bevel" style="mix-blend-mode: lighten"/><path d="M333.13324,73.71694l-0.08656,-51.34344c0,0 7.35149,-3.96195 10.06493,-1.29854c12.87863,12.64118 -1.15023,51.92396 -1.15023,51.92396z" fill="#502d16" stroke="#000000" stroke-width="0" stroke-linecap="round" stroke-linejoin="bevel"/><path d="M401.78013,63.99781c3.78989,7.88471 -0.68375,11.39955 -18.84855,9.82159c-18.16481,-1.57797 -25.27702,-3.51998 -35.99378,-13.29595c-10.71676,-9.77597 7.15708,-18.59493 22.59945,-17.25347c15.44236,1.34146 28.45297,12.84312 32.24288,20.72783z" fill="#008000" stroke="#000000" stroke-width="0" stroke-linecap="round" stroke-linejoin="bevel"/><path d="M287.22353,130.8962c14.52299,-5.82289 47.97179,-5.7432 73.179,-3.17991c7.6441,0.77732 5.65794,20.49631 2.9442,29.62229c-3.83838,12.90793 -32.71723,-0.08631 -46.15373,-0.32354c-5.01994,-0.08862 -4.98663,17.6811 0,17.14771c14.84072,-1.58738 34.46503,-2.55799 42.60346,8.4121c7.6505,10.31242 8.62176,25.70552 6.03546,40.44271c-2.4603,14.01923 -19.02026,26.756 -34.4378,28.79523c-18.90082,2.49995 -50.05702,4.78797 -58.93477,-11.6475c-4.39528,-8.13702 3.6338,-21.01624 12.78103,-24.58919c10.76627,-4.20536 24.01784,16.45402 33.3727,10.02981c9.32958,-6.40685 4.98171,-32.89888 -1.37703,-31.91288c-11.78559,1.82746 -32.82265,9.41664 -36.61104,-2.70609c-4.10668,-13.14129 -9.32645,-53.70574 6.5985,-60.09075z" fill="#4fe3e4" stroke="#ffffff" stroke-width="6.5" stroke-linecap="butt" stroke-linejoin="miter"/></g></g></svg>