<svg version="1.1" xmlns="http://www.w3.org/2000/svg" xmlns:xlink="http://www.w3.org/1999/xlink" width="77.8967" height="60" viewBox="0,0,77.8967,60"><g transform="translate(-260.00001,-149.73568)"><g data-paper-data="{&quot;isPaintingLayer&quot;:true}" fill-rule="nonzero" stroke-linecap="butt" stroke-linejoin="miter" stroke-miterlimit="10" stroke-dasharray="" stroke-dashoffset="0" style="mix-blend-mode: normal"><path d="M319.99976,149.73568v20.63975c1.74074,-0.89966 3.67642,-1.37451 5.64344,-1.38441c3.24988,-0.00002 6.36665,1.26794 8.66464,3.52493c2.29799,2.25699 3.58895,5.31812 3.58887,8.50996c-0.00005,6.64651 -5.48613,12.03454 -12.2535,12.03449c-1.96699,-0.00978 -3.90267,-0.48449 -5.64344,-1.38402v18.0593h-59.99976v-60z" fill="#cca676" stroke="none" stroke-width="0.11881"/><path d="M296.60212,162.73299c3.76149,1.73871 6.53849,6.28982 6.70548,10.75148c0.30158,8.05763 -7.36737,17.14342 -11.84937,23.88159c-1.72016,2.58606 -7.61187,2.93031 -9.09357,0.19044c-2.27467,-4.20618 7.53199,-12.17893 7.53199,-12.17893c0,0 -8.65779,-0.20205 -10.62182,-3.15608c-3.03973,-4.57193 -2.53469,-12.80406 1.16087,-16.8244c2.35168,-2.55835 6.13241,-3.85943 9.8537,-3.91291c2.23278,-0.0321 4.44412,0.38507 6.31272,1.2488zM285.57959,174.67362c-0.00011,2.28585 1.80931,4.13898 4.04145,4.13907c2.23226,0.00009 4.04188,-1.8531 4.04177,-4.13907c-0.00007,-2.28584 -1.80964,-4.13883 -4.04177,-4.13874c-2.23201,0.00009 -4.04138,1.85302 -4.04145,4.13874z" fill="#fd9b9b" stroke="#ffffff" stroke-width="2.5"/></g></g></svg>