<svg version="1.1" xmlns="http://www.w3.org/2000/svg" xmlns:xlink="http://www.w3.org/1999/xlink" width="178.80602" height="299.28923" viewBox="0,0,178.80602,299.28923"><g transform="translate(-230.59699,-30.56253)"><g data-paper-data="{&quot;isPaintingLayer&quot;:true}" fill-rule="nonzero" stroke-miterlimit="10" stroke-dasharray="" stroke-dashoffset="0" style="mix-blend-mode: normal"><g fill="#9e5423" stroke="#9e5423" stroke-width="0.26458" stroke-linecap="butt" stroke-linejoin="miter"><path d="M321.78085,198.64122l0.77314,-2.63947l-0.25772,129.86272c0,0 11.08169,3.16737 -11.08169,3.69528c-22.16337,0.52791 -0.51543,-1.05578 0,-129.86272z"/><path d="M330.66647,199.80904c0.51543,128.80693 22.16337,130.39061 0,129.86272c-22.16337,-0.52791 -11.08169,-3.69528 -11.08169,-3.69528l-0.25772,-129.86272l0.77314,2.63947z"/></g><g fill="#49aa2e" stroke="#49aa2e" stroke-linecap="butt" stroke-linejoin="miter"><path d="M303.023,149.04641c0,-19.90178 15.23825,-36.03538 34.03559,-36.03538c18.79733,0 34.03559,16.13358 34.03559,36.03538c0,19.90178 -15.23825,36.03538 -34.03559,36.03538c-18.79733,0 -34.03559,-16.13358 -34.03559,-36.03538z" stroke-width="0.31572"/><path d="M241.12592,162.93287c0,-20.09884 18.02867,-36.39216 40.26816,-36.39216c22.23949,0 40.26816,16.29333 40.26816,36.39216c0,20.09884 -18.02867,36.39216 -40.26816,36.39216c-22.23949,0 -40.26816,-16.29333 -40.26816,-36.39216z" stroke-width="0.34511"/><path d="M335.68293,168.82523c0,-19.90178 15.23825,-36.03538 34.03559,-36.03538c18.79733,0 34.03559,16.13358 34.03559,36.03538c0,19.90178 -15.23825,36.03538 -34.03559,36.03538c-18.79733,0 -34.03559,-16.13358 -34.03559,-36.03538z" stroke-width="0.31572"/><path d="M260.05622,112.21842c0,-19.90178 15.23825,-36.03538 34.03559,-36.03538c18.79733,0 34.03559,16.13358 34.03559,36.03538c0,19.90178 -15.23825,36.03538 -34.03559,36.03538c-18.79733,0 -34.03559,-16.13358 -34.03559,-36.03538z" stroke-width="0.31572"/><path d="M300.38362,103.44416c0,-19.90178 15.23825,-36.03538 34.03559,-36.03538c18.79733,0 34.03559,16.13358 34.03559,36.03538c0,19.90178 -15.23825,36.03538 -34.03559,36.03538c-18.79733,0 -34.03559,-16.13358 -34.03559,-36.03538z" stroke-width="0.31572"/><path d="M341.17397,115.65561c0,-19.90178 15.23825,-36.03538 34.03559,-36.03538c18.79733,0 34.03559,16.13358 34.03559,36.03538c0,19.90178 -15.23825,36.03538 -34.03559,36.03538c-18.79733,0 -34.03559,-16.13358 -34.03559,-36.03538z" stroke-width="0.31572"/><path d="M291.04853,173.46684c0,-19.90178 15.23825,-36.03538 34.03559,-36.03538c18.79733,0 34.03559,16.13358 34.03559,36.03538c0,19.90178 -15.23825,36.03538 -34.03559,36.03538c-18.79733,0 -34.03559,-16.13358 -34.03559,-36.03538z" stroke-width="0.31572"/><path d="M230.75485,124.16262c0,-19.90178 15.23825,-36.03538 34.03559,-36.03538c18.79733,0 34.03559,16.13358 34.03559,36.03538c0,19.90178 -15.23825,36.03538 -34.03559,36.03538c-18.79733,0 -34.03559,-16.13358 -34.03559,-36.03538z" stroke-width="0.31572"/><path d="M240.77092,83.90484c0,-19.86548 20.29884,-35.96963 45.33874,-35.96963c25.0399,0 45.33874,16.10415 45.33874,35.96963c0,19.86548 -20.29884,35.96963 -45.33874,35.96963c-25.0399,0 -45.33874,-16.10415 -45.33874,-35.96963z" stroke-width="0.36407"/><path d="M305.22572,54.61676c5.75027,-18.99999 28.98596,-28.64394 51.89837,-21.54039c22.9124,7.10356 36.82507,28.26465 31.0748,47.26464c-5.75027,18.99999 -28.98596,28.64394 -51.89837,21.54039c-22.9124,-7.10356 -36.82507,-28.26465 -31.0748,-47.26464z" stroke-width="0.35621"/></g><g stroke="#000000" stroke-width="0" stroke-linecap="round" stroke-linejoin="bevel"><path d="M280.83538,139.87249c0,0 -0.51859,0.32756 -1.03247,1.11101c-4.50308,6.86495 -7.12865,10.13537 -20.04539,9.28575c0,0 -11.23012,-11.97938 0.60713,-24.36482c9.0728,5.81193 13.57849,8.9722 20.47074,13.96808z" fill="#aa4400"/><path d="M274.58484,126.2311c1.67341,1.56295 7.54814,4.38743 8.20458,8.23466c0.48485,2.84155 -0.54095,7.4524 -3.67585,7.89009c-2.53204,1.04548 -5.58281,-2.45792 -10.14564,-6.67589c-0.84891,-0.78475 -9.5891,-3.10737 -10.51704,-6.36585c-0.82879,-2.91028 0.27006,-6.53339 5.12582,-7.23077c3.46604,-0.49778 8.54671,1.8488 11.00814,4.14776z" fill="#803300"/><path d="M276.79111,123.13996c0.96105,-0.06734 4.22373,2.13608 4.44339,2.96489c0.15821,0.59695 -0.6019,1.38195 -1.21248,1.30625c-0.58768,-0.07285 -1.44371,-1.94506 -2.76694,-1.78546c-0.99527,0.12005 -3.06811,4.23942 -3.85955,4.22272c-0.67632,-0.01426 -1.45131,-0.4778 -1.18391,-0.98308c0.49276,-0.9311 3.24324,-5.63169 4.57948,-5.72532z" fill="#aa4400"/></g><g stroke="#000000" stroke-width="0" stroke-linecap="round" stroke-linejoin="bevel"><path d="M377.11146,125.00635c0,0 -0.03535,0.61235 0.30279,1.48615c2.96289,7.65679 4.0949,11.6951 -4.11201,21.70563c0,0 -16.27709,2.16271 -19.46211,-14.67104c10.00595,-3.99689 15.19788,-5.8224 23.27134,-8.52074z" fill="#aa4400"/><path d="M362.38019,122.15219c2.24482,-0.45151 7.96028,-3.5858 11.4711,-1.88107c2.5931,1.25911 5.74611,4.7763 4.27796,7.58053c-0.62307,2.66758 -5.24747,3.11018 -11.33285,4.36671c-1.13218,0.23377 -8.10681,5.9905 -11.29681,4.84917c-2.84912,-1.01938 -5.15633,-4.02125 -2.89804,-8.37611c1.61197,-3.1085 6.47671,-5.87509 9.77865,-6.53921z" fill="#803300"/><path d="M361.14999,118.55923c0.50445,-0.82078 4.1949,-2.19214 4.99677,-1.88852c0.57754,0.21868 0.77367,1.29364 0.35684,1.74615c-0.4012,0.43556 -2.42194,0.04236 -3.06209,1.21137c-0.4815,0.87929 1.66257,4.96204 1.18847,5.59598c-0.40513,0.54173 -1.23306,0.9023 -1.4884,0.39082c-0.47052,-0.94254 -2.69298,-5.9146 -1.99159,-7.05581z" fill="#aa4400"/></g><g stroke="#000000" stroke-width="0" stroke-linecap="round" stroke-linejoin="bevel"><path d="M297.24171,73.57965c0,0 0.02749,0.61276 0.45327,1.44737c3.73083,7.31342 5.27012,11.21469 -1.86936,22.01246c0,0 -15.97035,3.81694 -20.86119,-12.60254c9.54444,-4.99979 14.52232,-7.34698 22.27729,-10.85729z" fill="#aa4400"/><path d="M282.2957,72.24788c2.18684,-0.67884 7.55157,-4.38153 11.21841,-3.04499c2.70832,0.98716 6.20469,4.16325 5.03119,7.10299c-0.34683,2.71734 -4.90167,3.63081 -10.82653,5.50343c-1.10232,0.3484 -7.45127,6.7886 -10.74131,5.97967c-2.93847,-0.72249 -5.54074,-3.47251 -3.73993,-8.0356c1.28542,-3.25713 5.84153,-6.50699 9.05818,-7.5055z" fill="#803300"/><path d="M280.70431,68.79966c0.41781,-0.86809 3.94857,-2.60988 4.7773,-2.38991c0.59689,0.15843 0.90199,1.20768 0.53364,1.70048c-0.35453,0.47433 -2.40489,0.28996 -2.92206,1.51835c-0.38899,0.92394 2.16159,4.76587 1.75485,5.445c-0.34757,0.58035 -1.13426,1.02374 -1.4406,0.54107c-0.5645,-0.88944 -3.28406,-5.60799 -2.70314,-6.81498z" fill="#aa4400"/></g><g stroke="#000000" stroke-width="0" stroke-linecap="round" stroke-linejoin="bevel"><path d="M362.21106,79.53908c0,0 -0.51858,0.32756 -1.03247,1.111c-4.50308,6.86495 -7.12865,10.13537 -20.04539,9.28575c0,0 -11.23012,-11.97938 0.60713,-24.36482c9.0728,5.81193 13.57849,8.97221 20.47074,13.96808z" fill="#aa4400"/><path d="M355.96053,65.89769c1.67341,1.56295 7.54814,4.38743 8.20457,8.23465c0.48485,2.84155 -0.54094,7.4524 -3.67584,7.89009c-2.53204,1.04547 -5.58281,-2.45792 -10.14564,-6.67589c-0.84891,-0.78475 -9.58909,-3.10737 -10.51704,-6.36584c-0.82879,-2.91028 0.27006,-6.53339 5.12581,-7.23077c3.46603,-0.49778 8.54672,1.8488 11.00815,4.14776z" fill="#803300"/><path d="M358.16679,62.80654c0.96105,-0.06733 4.22372,2.13608 4.44339,2.96489c0.15821,0.59695 -0.6019,1.38195 -1.21248,1.30625c-0.58769,-0.07285 -1.44371,-1.94506 -2.76694,-1.78547c-0.99527,0.12005 -3.06811,4.23942 -3.85955,4.22272c-0.67632,-0.01426 -1.45131,-0.47779 -1.18391,-0.98308c0.49275,-0.93111 3.24325,-5.6317 4.57948,-5.72532z" fill="#aa4400"/></g><g stroke="#000000" stroke-width="0" stroke-linecap="round" stroke-linejoin="bevel"><path d="M335.92464,168.73637c0,0 -0.51858,0.32756 -1.03247,1.111c-4.50308,6.86495 -7.12865,10.13537 -20.04539,9.28575c0,0 -11.23012,-11.97938 0.60713,-24.36482c9.0728,5.81193 13.57849,8.97221 20.47074,13.96808z" fill="#aa4400"/><path d="M329.67411,155.09498c1.67341,1.56295 7.54814,4.38743 8.20457,8.23465c0.48485,2.84155 -0.54094,7.4524 -3.67584,7.89009c-2.53204,1.04547 -5.58281,-2.45792 -10.14564,-6.67589c-0.84891,-0.78475 -9.58909,-3.10737 -10.51704,-6.36584c-0.82879,-2.91028 0.27006,-6.53339 5.12581,-7.23077c3.46603,-0.49778 8.54672,1.8488 11.00815,4.14776z" fill="#803300"/><path d="M331.88036,152.00383c0.96105,-0.06733 4.22372,2.13608 4.44339,2.96489c0.15821,0.59695 -0.6019,1.38195 -1.21248,1.30625c-0.58769,-0.07285 -1.44371,-1.94506 -2.76694,-1.78547c-0.99527,0.12005 -3.06811,4.23942 -3.85955,4.22272c-0.67632,-0.01426 -1.45131,-0.47779 -1.18391,-0.98308c0.49275,-0.93111 3.24325,-5.6317 4.57948,-5.72532z" fill="#aa4400"/></g></g></g></svg>