<svg version="1.1" xmlns="http://www.w3.org/2000/svg" xmlns:xlink="http://www.w3.org/1999/xlink" width="271.3309" height="248.21371" viewBox="0,0,271.3309,248.21371"><g transform="translate(-104.53545,-55.73476)"><g data-paper-data="{&quot;isPaintingLayer&quot;:true}" fill-rule="nonzero" stroke-linecap="butt" stroke-linejoin="miter" stroke-miterlimit="10" stroke-dasharray="" stroke-dashoffset="0" style="mix-blend-mode: normal"><g><path d="M104.71745,252.58732c1.19859,-126.04803 1.19859,-126.04803 1.19859,-126.04803l116.26262,65.09034z" fill="#c4c418" stroke="#e3e31c" stroke-width="0.35835"/><path d="M375.28255,175.94476l-188.25898,127.73941c0,0 0,0 -1.9408,-247.36832z" fill="#f6f626" stroke="#f6f626" stroke-width="0.6388"/><path d="M210.17422,211.95019c0.60791,-58.7006 0.60791,-58.7006 0.60791,-58.7006l58.9653,30.31261z" fill="#c4c418" stroke="#e3e31c" stroke-width="0.22208"/><g><path d="M284.40016,177.48017c0,-11.80209 9.37701,-21.36957 20.94411,-21.36957c11.56714,0 20.94414,9.56748 20.94414,21.36957c0,11.80209 -9.37701,21.36957 -20.94414,21.36957c-11.56714,0 -20.94411,-9.56748 -20.94411,-21.36957z" fill="#000000" stroke="#000000" stroke-width="0.33116"/><path d="M304.62152,169.72969c0,-5.41496 4.34304,-9.80471 9.70049,-9.80471c5.35741,0 9.70049,4.38971 9.70049,9.80471c0,5.41496 -4.34304,9.80467 -9.70049,9.80467c-5.35741,0 -9.70049,-4.38967 -9.70049,-9.80467z" fill="#ffffff" stroke="#ffffff" stroke-width="0.15266"/></g></g></g></g></svg>