<svg version="1.1" xmlns="http://www.w3.org/2000/svg" xmlns:xlink="http://www.w3.org/1999/xlink" width="362.97007" height="184.14461" viewBox="0,0,362.97007,184.14461"><g transform="translate(-110.18088,-63.13306)"><g data-paper-data="{&quot;isPaintingLayer&quot;:true}" fill-rule="nonzero" stroke-linecap="butt" stroke-linejoin="miter" stroke-miterlimit="10" stroke-dasharray="" stroke-dashoffset="0" style="mix-blend-mode: normal"><g><path d="M256.16806,132.28094c-0.16281,1.51111 -5.89419,-1.15598 -5.36772,-1.82804c3.98519,-5.08731 10.02115,-29.08558 5.27283,-38.30344c-0.97284,-1.88856 3.51931,-1.69099 3.61923,-1.41264c4.06182,11.31526 -3.34934,39.91991 -3.52434,41.54413z" fill="#82d22d" stroke="#82d22d" stroke-width="0.29531"/><path d="M250.50661,66.87285c2.92674,-4.13957 12.97832,-4.93948 15.92184,-0.81029c3.91968,5.49856 -9.26361,17.82624 -9.26361,17.82624c0,0 -10.2218,-11.97565 -6.65822,-17.01596z" fill="#ff8fc1" stroke="#ff9ac8" stroke-width="0.40929"/><path d="M258.76849,82.77815c0,0 18.50845,2.50738 18.668,9.44083c0.11982,5.20674 -8.67821,10.50088 -13.65396,8.76876c-6.05844,-2.10902 -5.01404,-18.20959 -5.01404,-18.20959z" fill="#ff8fc1" stroke="#ff8fc1" stroke-width="0.42118"/><path d="M250.50661,66.87285c2.92674,-4.13957 12.97832,-4.93948 15.92184,-0.81029c3.91968,5.49856 -9.26361,17.82624 -9.26361,17.82624c0,0 -10.2218,-11.97565 -6.65822,-17.01596z" fill="#ff8fc1" stroke="#ff8fc1" stroke-width="0.40929"/><path d="M254.91327,101.23724c-5.18911,1.78043 -14.36443,-3.66136 -14.23946,-9.01332c0.1664,-7.12683 19.46851,-9.70414 19.46851,-9.70414c0,0 1.08918,16.54962 -5.22905,18.71746z" fill="#ff8fc1" stroke="#ff8fc1" stroke-width="0.43607"/><path d="M258.70247,83.40815c0,0 6.6067,-16.58878 13.33227,-15.19009c5.05064,1.05036 8.16791,10.38261 5.37097,14.60628c-3.40553,5.14271 -18.70324,0.5838 -18.70324,0.5838z" fill="#ff8fc1" stroke="#ff8fc1" stroke-width="0.40929"/><path d="M238.69831,83.22011c-2.79694,-4.22368 0.32033,-13.55592 5.37097,-14.60628c6.72557,-1.39869 13.33227,15.19009 13.33227,15.19009c0,0 -15.29771,4.55891 -18.70324,-0.5838z" fill="#ff8fc1" stroke="#ff8fc1" stroke-width="0.40929"/><path d="M251.54876,84.06073c0,-3.75556 3.06245,-6.80004 6.84016,-6.80004c3.77772,0 6.84016,3.04448 6.84016,6.80004c0,3.75556 -3.06245,6.80004 -6.84016,6.80004c-3.77772,0 -6.84016,-3.04448 -6.84016,-6.80004z" fill="#ffed4c" stroke="#fff04c" stroke-width="0.38459"/><path d="M271.46562,110.38225c0,0 -4.93787,9.65686 -9.28525,8.4741c-3.2647,-0.88822 -4.95707,-6.66667 -2.97061,-9.069c2.41869,-2.92505 12.25586,0.5949 12.25586,0.5949z" fill="#82d22d" stroke="#82d22d" stroke-width="0.25751"/></g><g><path d="M337.7115,216.15701c-1.52713,-1.8786 -1.56252,-4.34312 -0.07905,-5.50466c1.48347,-1.16154 3.92405,-0.58024 5.45118,1.29836c1.52713,1.8786 1.56252,4.34312 0.07905,5.50466c-1.48347,1.16154 -3.92405,0.58024 -5.45118,-1.29836z" fill="#82d22d" stroke="#82d22d" stroke-width="0.29894"/><path d="M331.70332,217.84416c-1.48347,-1.16154 -1.44809,-3.62605 0.07905,-5.50466c1.52713,-1.8786 3.96771,-2.45989 5.45118,-1.29836c1.48347,1.16154 1.44809,3.62605 -0.07905,5.50466c-1.52713,1.8786 -3.96771,2.45989 -5.45118,1.29836z" fill="#82d22d" stroke="#82d22d" stroke-width="0.29894"/><path d="M339.62816,246.52885c0.07332,1.51809 -6.00212,-0.22867 -5.58615,-0.9742c3.14874,-5.64339 5.39311,-30.28711 -0.72622,-38.65784c-1.25373,-1.715 3.21477,-2.21591 3.35662,-1.9564c5.76613,10.54918 2.87696,39.95673 2.95576,41.58844z" fill="#82d22d" stroke="#82d22d" stroke-width="0.29531"/><path d="M328.63023,190.92258c0,-6.07593 4.2017,-11.00145 9.38476,-11.00145c5.18306,0 9.38476,4.92552 9.38476,11.00145c0,6.07593 -4.2017,11.00145 -9.38476,11.00145c-5.18306,0 -9.38476,-4.92552 -9.38476,-11.00145z" fill-opacity="0.95294" fill="#e62eff" stroke-opacity="0.95294" stroke="#b783d3" stroke-width="0.31445"/><path d="M339.24523,195.77704c3.6897,4.15464 0.8748,14.33171 -2.28513,16.55735c-15.85908,11.17013 -31.3063,-47.93085 2.28513,-16.55735z" fill-opacity="0.95294" fill="#e65dff" stroke-opacity="0.95294" stroke="#e55eff" stroke-width="0.36502"/><path d="M338.23119,212.33439c-3.15993,-2.22565 -5.97483,-12.40271 -2.28513,-16.55735c33.59144,-31.3735 18.14422,27.72748 2.28513,16.55735z" fill-opacity="0.95294" fill="#e55eff" stroke-opacity="0.95294" stroke="#e65dff" stroke-width="0.36502"/></g><g><path d="M454.65856,149.70642c0.04436,-0.26069 2.32403,-1.13044 2.79308,0.69206c1.38424,5.37888 0.80773,30.09908 4.1589,34.58049c0.44271,0.59202 -4.06596,2.61265 -4.20399,1.26551c-0.14836,-1.44796 -4.48586,-26.3249 -2.74799,-36.53806z" fill="#7ea723" stroke="#7ea723" stroke-width="0.25419"/><path d="M456.54786,186.47826c1.90248,-6.1568 12.44811,-10.31269 12.44811,-10.31269c0,0 -5.27378,14.23151 -9.11942,15.86548c-2.23448,0.94941 -4.36493,-2.19931 -3.32868,-5.5528z" fill="#7ea723" stroke="#7ea723" stroke-width="0.23474"/><path d="M456.31778,191.89452c-3.72493,-1.83361 -7.99914,-16.31689 -7.99914,-16.31689c0,0 10.23722,4.70391 11.70795,10.94966c0.80108,3.40193 -1.54447,6.43262 -3.70881,5.36723z" fill="#7ea723" stroke="#7ea723" stroke-width="0.23474"/><path d="M451.86597,148.21749c0.84996,-6.26842 13.69426,-19.98074 13.52106,-15.19142c-0.1732,4.78931 -3.64861,18.9116 -8.15299,21.64157c-2.61723,1.58624 -6.21803,-0.18173 -5.36807,-6.45015z" fill="#ff2400" stroke="#ff2400" stroke-width="0.29982"/><path d="M454.86441,149.50658c3.83131,-7.47951 19.29838,-15.92027 18.06704,-10.99154c-1.23135,4.92874 -9.95822,17.14357 -15.17719,18.57427c-3.03243,0.83131 -4.97667,-3.50881 -2.88984,-7.58274z" fill="#ff2400" stroke="#ff2400" stroke-width="0.29982"/><path d="M451.14172,152.97273c-2.75228,-4.09057 -0.16272,-28.37488 3.20415,-22.56946c2.4828,4.28102 7.81103,10.86863 4.83219,18.63259c-1.62251,4.22887 -6.43715,6.31367 -8.03634,3.93687z" fill="#ff2400" stroke="#ff2400" stroke-width="0.29982"/><path d="M455.50592,157.27605c-5.40958,-0.54798 -16.33253,-11.13085 -18.48636,-15.77844c-2.15382,-4.64759 14.681,1.11043 19.88105,7.83986c2.83235,3.66538 1.7485,8.25699 -1.39469,7.93859z" fill="#ff2400" stroke="#ff2400" stroke-width="0.29982"/><path d="M454.01939,154.93463c-4.95466,-1.94438 -11.07408,-15.26979 -12.15991,-19.95454c-1.08583,-4.68475 14.17541,6.69335 16.20995,12.7222c2.03454,6.02885 -1.17118,8.36211 -4.05004,7.23234z" fill="#ff2400" stroke="#ff2400" stroke-width="0.29982"/></g><g><path d="M128.15902,147.23601c0.04436,-0.26069 2.32403,-1.13044 2.79308,0.69206c1.38424,5.37888 0.80773,30.09908 4.1589,34.58049c0.44271,0.59202 -4.06596,2.61265 -4.20399,1.26551c-0.14836,-1.44796 -4.48586,-26.3249 -2.74799,-36.53806z" fill="#7ea723" stroke="#7ea723" stroke-width="0.25419"/><path d="M130.04832,184.00785c1.90248,-6.1568 12.44811,-10.31269 12.44811,-10.31269c0,0 -5.27378,14.23151 -9.11942,15.86548c-2.23448,0.94941 -4.36493,-2.19931 -3.32868,-5.5528z" fill="#7ea723" stroke="#7ea723" stroke-width="0.23474"/><path d="M129.81824,189.42411c-3.72493,-1.83361 -7.99914,-16.31689 -7.99914,-16.31689c0,0 10.23722,4.70391 11.70795,10.94966c0.80108,3.40193 -1.54447,6.43262 -3.70881,5.36723z" fill="#7ea723" stroke="#7ea723" stroke-width="0.23474"/><path d="M125.36643,145.74708c0.84996,-6.26842 13.69426,-19.98074 13.52106,-15.19142c-0.1732,4.78931 -3.64861,18.9116 -8.15299,21.64157c-2.61723,1.58624 -6.21803,-0.18173 -5.36807,-6.45015z" fill="#ff2400" stroke="#ff2400" stroke-width="0.29982"/><path d="M128.36487,147.03617c3.83131,-7.47951 19.29838,-15.92027 18.06704,-10.99154c-1.23135,4.92874 -9.95822,17.14357 -15.17719,18.57427c-3.03243,0.83131 -4.97667,-3.50881 -2.88984,-7.58274z" fill="#ff2400" stroke="#ff2400" stroke-width="0.29982"/><path d="M124.64218,150.50232c-2.75228,-4.09057 -0.16272,-28.37488 3.20415,-22.56946c2.4828,4.28102 7.81103,10.86863 4.83219,18.63259c-1.62251,4.22887 -6.43715,6.31367 -8.03634,3.93687z" fill="#ff2400" stroke="#ff2400" stroke-width="0.29982"/><path d="M129.00638,154.80564c-5.40958,-0.54798 -16.33253,-11.13085 -18.48636,-15.77844c-2.15382,-4.64759 14.681,1.11043 19.88105,7.83986c2.83235,3.66538 1.7485,8.25699 -1.39469,7.93859z" fill="#ff2400" stroke="#ff2400" stroke-width="0.29982"/><path d="M127.51985,152.46422c-4.95466,-1.94438 -11.07408,-15.26979 -12.15991,-19.95454c-1.08583,-4.68475 14.17541,6.69335 16.20995,12.7222c2.03454,6.02885 -1.17118,8.36211 -4.05004,7.23234z" fill="#ff2400" stroke="#ff2400" stroke-width="0.29982"/></g></g></g></svg>