<svg version="1.1" xmlns="http://www.w3.org/2000/svg" xmlns:xlink="http://www.w3.org/1999/xlink" width="251.25669" height="297.73512" viewBox="0,0,251.25669,297.73512"><g transform="translate(-194.37165,-31.00744)"><g data-paper-data="{&quot;isPaintingLayer&quot;:true}" fill-rule="nonzero" stroke-linecap="round" stroke-miterlimit="10" stroke-dasharray="" stroke-dashoffset="0" style="mix-blend-mode: normal"><path d="M291.31277,326.47621c-26.05933,-6.05225 -55.55289,-69.8232 -28.83072,-71.10526c59.376,-2.84872 66.16545,-10.19321 68.73248,13.54022c1.89263,17.49832 -19.44615,62.31585 -39.90177,57.56504z" fill="#5a6d28" stroke="#1ce652" stroke-width="0" stroke-linejoin="bevel"/><path d="M396.95873,47.56681c42.88523,27.90476 53.45902,91.3476 46.40965,138.93227c-7.04937,47.58467 -31.72208,79.30671 -80.18755,92.81854c-48.46546,13.51183 -120.72124,8.81227 -151.26962,-34.95417c-30.54838,-43.76642 -19.38691,-126.59622 23.79118,-171.83042c43.17809,-45.23419 118.37111,-52.871 161.25634,-24.96622z" fill="#dcff82" stroke="#1ce652" stroke-width="0.5" stroke-linejoin="bevel"/><path d="M355.95454,328.39209c-26.05933,-6.05225 -55.55288,-69.82321 -28.83071,-71.10526c59.376,-2.84872 66.16545,-10.19321 68.73248,13.54021c1.89263,17.49832 -19.44615,62.31586 -39.90177,57.56505z" fill="#8caa3f" stroke="#1ce652" stroke-width="0" stroke-linejoin="bevel"/><path d="M285.40039,125.42594c-7.07827,-14.11457 -2.88738,-17.5723 22.91764,-32.53789c7.16705,-4.15651 33.14872,-16.13585 33.44105,-4.30285c0.68474,27.71632 0,107.58598 0,107.58598c0,0 13.29175,-1.19848 19.17598,1.47899c8.19927,3.73087 6.28967,24.36924 -1.63697,25.14292c-23.00444,2.24532 -39.77567,0.63135 -68.51907,0.49297c-8.58729,-0.04133 -8.88208,-23.00352 -1.16927,-26.37539c5.99947,-2.62282 21.51452,-0.986 21.51452,-0.986l-0.23385,-68.52677c0,0 -20.58858,7.80184 -25.49003,-1.97198z" fill="#ff3535" stroke="#ffffff" stroke-width="7.5" stroke-linejoin="miter"/></g></g></svg>