<svg version="1.1" xmlns="http://www.w3.org/2000/svg" xmlns:xlink="http://www.w3.org/1999/xlink" width="137.88154" height="143.38385" viewBox="0,0,137.88154,143.38385"><g transform="translate(-245.70899,-116.14419)"><g data-paper-data="{&quot;isPaintingLayer&quot;:true}" fill-rule="nonzero" stroke="#ffffff" stroke-linecap="butt" stroke-linejoin="miter" stroke-miterlimit="10" stroke-dasharray="" stroke-dashoffset="0" style="mix-blend-mode: normal"><path d="M245.709,259.52805v-143.38385h137.88154v143.38385z" fill="none" stroke-width="0"/><path d="M280.12969,152.13207c1.49176,-16.60388 23.51517,-23.8869 38.26303,-25.47011c9.70547,-1.04189 21.97721,2.08112 27.5378,11.10234c8.32339,13.50347 9.53616,39.33285 -0.57973,49.3143c-3.60366,3.55578 7.65851,10.04313 10.67084,16.71622c4.06799,9.01162 1.49298,21.61414 -1.68484,29.3191c-5.84864,14.18064 -22.68303,23.71473 -36.5238,22.53124c-16.11895,-1.37828 -37.6117,-14.99115 -38.53231,-33.1718c-0.3514,-6.93945 7.19942,-13.71815 13.33408,-14.46339c9.69272,-1.17746 15.32972,19.88297 24.90835,17.26698c7.68691,-2.09935 11.83349,-21.61812 6.66706,-21.87815c-6.95871,-0.35024 -18.5398,-0.76063 -22.77977,-8.3876c-2.00353,-3.60397 -0.64059,-9.16376 1.53425,-12.6394c4.48033,-7.16006 17.47216,-4.13896 20.70698,-12.10518c1.75759,-4.32829 0.93711,-11.99759 -2.9399,-13.88955c-7.863,-3.83709 -13.8011,15.40967 -22.32011,14.36775c-8.1611,-0.99813 -19.08851,-9.41229 -18.26191,-18.61276z" fill="#ff950b" stroke-width="6"/></g></g></svg>