<svg version="1.1" xmlns="http://www.w3.org/2000/svg" xmlns:xlink="http://www.w3.org/1999/xlink" width="219.89334" height="156.69271" viewBox="0,0,219.89334,156.69271"><g transform="translate(-203.50889,-102.2146)"><g data-paper-data="{&quot;isPaintingLayer&quot;:true}" fill-rule="nonzero" stroke-linejoin="miter" stroke-miterlimit="10" stroke-dasharray="" stroke-dashoffset="0" style="mix-blend-mode: normal"><path d="M237.71444,156.01054c-6.01012,-11.9846 -2.45166,-14.92054 19.45924,-27.62773c6.0855,-3.52927 28.14639,-13.70086 28.3946,-3.65353c0.58141,23.53377 0,91.35063 0,91.35063c0,0 11.28595,-1.01763 16.28222,1.2558c6.96195,3.16786 5.34053,20.69178 -1.38995,21.34871c-19.53293,1.90649 -33.77329,0.53607 -58.17914,0.41858c-7.29142,-0.0351 -7.54172,-19.53216 -0.99282,-22.39519c5.09412,-2.22702 18.26785,-0.83721 18.26785,-0.83721l-0.19856,-58.18569c0,0 -17.48164,6.62449 -21.64344,-1.6744z" fill="#ff9400" stroke="#ffffff" stroke-width="7.5" stroke-linecap="round"/><path d="M383.24816,128.72868c7.66583,14.57226 -0.87327,41.54819 3.26246,58.67533c1.07873,2.183 10.03255,-1.07601 12.60257,-0.21202c6.7063,2.2546 7.76279,18.1982 2.17765,24.28448c-3.7808,4.12003 -17.10923,0.59899 -17.10923,0.59899c0,0 2.91391,18.70957 -3.42293,23.98499c-6.19401,5.15653 -18.36808,4.94831 -24.55356,-0.21773c-6.07383,-5.07277 0.5938,-23.30482 -3.64886,-22.9707c-18.49029,1.45615 -29.26075,-0.77535 -36.18021,-1.33186c-41.92753,-3.37205 32.44543,-91.72574 48.73089,-91.36324c7.96604,0.17732 14.87897,2.35035 18.14124,8.55173zM330.36217,188.99078l27.68775,0.89851c1.84507,-39.62065 1.14394,-25.52615 1.86576,-40.47378l-0.01448,0.02055c0,-0.01408 0.01448,-0.30952 0.01448,-0.31969z" fill="#ff9400" stroke="#ffffff" stroke-width="7.5" stroke-linecap="butt"/><path d="M203.50889,258.9073v-156.69271h219.89334v156.69271z" fill="none" stroke="none" stroke-width="none" stroke-linecap="butt"/></g></g></svg>