<svg version="1.1" xmlns="http://www.w3.org/2000/svg" xmlns:xlink="http://www.w3.org/1999/xlink" width="149.05116" height="174.04731" viewBox="0,0,149.05116,174.04731"><g transform="translate(-244.54864,-93.90212)"><g data-paper-data="{&quot;isPaintingLayer&quot;:true}" fill-rule="nonzero" stroke="#ffffff" stroke-linecap="butt" stroke-linejoin="miter" stroke-miterlimit="10" stroke-dasharray="" stroke-dashoffset="0" style="mix-blend-mode: normal"><path d="M286.61969,119.32866c14.67791,-12.30676 39.63881,-11.23982 55.7793,-1.28441c12.71967,7.84547 22.28075,25.58908 21.45358,41.35748c-1.29183,24.62637 -40.04668,60.10962 -40.04668,60.10962c0,0 27.02209,-2.54721 38.61643,3.5963c5.04808,2.67481 7.60718,24.58203 0.9535,25.17411c-21.30367,1.89572 -82.6466,2.7441 -85.81435,-3.5963c-15.65258,-31.32914 48.13816,-58.33158 50.77348,-90.67819c0.56235,-6.90229 -3.90206,-19.85336 -12.15702,-12.58705c-7.95816,7.00504 -6.68572,24.09872 -16.20937,28.25666c-7.82322,3.41553 -20.30789,1.1836 -24.55245,-6.67885c-7.04732,-13.05418 0.14258,-34.39529 11.20355,-43.66937z" fill="#53e300" stroke-width="7.5"/><path d="M244.54865,267.94944v-174.04731h149.05116v174.04731z" fill="none" stroke-width="0"/></g></g></svg>