<svg version="1.1" xmlns="http://www.w3.org/2000/svg" xmlns:xlink="http://www.w3.org/1999/xlink" width="137.88154" height="143.38385" viewBox="0,0,137.88154,143.38385"><g transform="translate(-245.70899,-116.14419)"><g data-paper-data="{&quot;isPaintingLayer&quot;:true}" fill-rule="nonzero" stroke="#ffffff" stroke-linecap="butt" stroke-linejoin="miter" stroke-miterlimit="10" stroke-dasharray="" stroke-dashoffset="0" style="mix-blend-mode: normal"><path d="M245.709,259.52805v-143.38385h137.88154v143.38385z" fill="none" stroke-width="0"/><path d="M347.61477,139.24367c7.93041,15.0752 -0.90341,42.98219 3.37506,60.70045c1.11595,2.25834 10.37882,-1.11315 13.03754,-0.21934c6.93776,2.33241 8.03071,18.8263 2.25281,25.12264c-3.91129,4.26222 -17.69974,0.61967 -17.69974,0.61967c0,0 3.01449,19.35531 -3.54107,24.81281c-6.40779,5.33451 -19.00204,5.1191 -25.401,-0.22524c-6.28346,-5.24784 0.6143,-24.10917 -3.7748,-23.76351c-19.12847,1.50641 -30.27066,-0.80211 -37.42893,-1.37782c-43.37462,-3.48843 33.56526,-94.89157 50.4128,-94.51656c8.24097,0.18344 15.39251,2.43147 18.76737,8.84689zM292.90348,201.58567l28.64337,0.92952c1.90875,-40.98813 1.18343,-26.40716 1.93015,-41.87069l-0.01498,0.02126c0,-0.01457 0.01498,-0.32019 0.01498,-0.33072z" fill="#c962c4" stroke-width="6"/></g></g></svg>