<svg version="1.1" xmlns="http://www.w3.org/2000/svg" xmlns:xlink="http://www.w3.org/1999/xlink" width="688.18769" height="425.42493" viewBox="0,0,688.18769,425.42493"><g transform="translate(23.34309,31.9617)"><g data-paper-data="{&quot;isPaintingLayer&quot;:true}" fill-rule="nonzero" stroke="#ffffff" stroke-linecap="butt" stroke-linejoin="miter" stroke-miterlimit="10" stroke-dasharray="" stroke-dashoffset="0" style="mix-blend-mode: normal"><path d="M-23.09309,393.21322v-424.92492h687.68769v424.92493z" fill-opacity="0.22745" fill="#000000" stroke-width="0.5"/><path d="M272.05073,131.5375c1.8549,-20.64573 29.23942,-29.70163 47.57732,-31.67024c12.06805,-1.29551 27.32707,2.58773 34.24127,13.80496c10.34954,16.7906 11.85753,48.90757 -0.72085,61.31877c-4.48089,4.42136 9.52281,12.48791 13.26842,20.78541c5.05825,11.20529 1.85641,26.87563 -2.09498,36.45618c-7.27236,17.6326 -28.20471,29.48755 -45.41471,28.01597c-20.04275,-1.71379 -46.76744,-18.64042 -47.91215,-41.24675c-0.43694,-8.6287 8.95196,-17.05753 16.57997,-17.98418c12.0522,-1.46408 19.0614,24.72304 30.97174,21.47024c9.55812,-2.61039 14.71409,-26.88057 8.29001,-27.2039c-8.65265,-0.4355 -23.0529,-0.94579 -28.32501,-10.42938c-2.49124,-4.48128 -0.79652,-11.39447 1.90773,-15.71619c5.57096,-8.90302 21.72537,-5.1465 25.74764,-15.05192c2.18543,-5.38192 1.16522,-14.91813 -3.65555,-17.27065c-9.77707,-4.77115 -17.16067,19.16081 -27.75345,17.86526c-10.14774,-1.2411 -23.73519,-11.70351 -22.70737,-23.14363z" fill="#ff950b" stroke-width="7.5"/></g></g></svg>