<svg version="1.1" xmlns="http://www.w3.org/2000/svg" xmlns:xlink="http://www.w3.org/1999/xlink" width="258.67749" height="334.4871" viewBox="0,0,258.67749,334.4871"><g transform="translate(-186.96539,72.29409)"><g data-paper-data="{&quot;isPaintingLayer&quot;:true}" fill-rule="nonzero" stroke-miterlimit="10" stroke-dasharray="" stroke-dashoffset="0" style="mix-blend-mode: normal"><path d="M395.54035,16.43993c44.15436,28.73056 55.04107,94.05091 47.78308,143.04378c-7.25799,48.99287 -32.66085,81.65368 -82.56059,95.56538c-49.89973,13.91169 -124.29382,9.07306 -155.74624,-35.98859c-31.45242,-45.06163 -19.96064,-130.34266 24.49525,-176.91551c44.45589,-46.57283 121.87414,-54.43565 166.0285,-25.70506z" fill="#dcff82" stroke="#1ce652" stroke-width="0.5" stroke-linecap="round" stroke-linejoin="bevel"/><path d="M197.9668,-18.6739c-16.33058,-15.94194 23.83984,-66.01465 45.7535,-50.7666c32.90654,22.89713 30.18833,114.31094 30.18833,114.31094c0,0 -22.65924,7.38142 -21.29253,1.22179c6.9669,-31.39929 3.71814,-71.57944 -19.42602,-94.51302c-16.74887,-16.59647 -24.24877,40.46023 -35.22329,29.7469z" fill="#5ea444" stroke="none" stroke-width="13.6911" stroke-linecap="round" stroke-linejoin="miter"/><g fill="#000000" stroke="#000000" stroke-width="1.79985" stroke-linecap="butt" stroke-linejoin="miter"><path d="M392.25583,78.74035c0,0 25.5394,-27.06908 0,0z"/><path d="M385.3663,76.58737c25.5394,-27.06908 0,0 0,0z"/></g><g fill="#000000" stroke="#000000" stroke-width="1.79985" stroke-linecap="butt" stroke-linejoin="miter"><path d="M238.47567,64.5568c25.5394,27.06908 0,0 0,0z"/><path d="M231.58615,66.70979c25.5394,27.06908 0,0 0,0z"/></g><path d="M400.9341,-48.42086c-23.14416,22.93357 -18.8939,71.25721 -19.42602,94.51301c-0.16263,7.10733 -21.29253,-1.22179 -21.29253,-1.22179c0,0 -2.71819,-91.4138 30.18833,-114.31093c21.91366,-15.24804 62.08409,34.82466 45.7535,50.7666c-10.97452,10.71334 -18.47442,-46.34337 -35.22329,-29.7469z" fill="#5ea444" stroke="none" stroke-width="13.6911" stroke-linecap="round" stroke-linejoin="miter"/><path d="M224.12549,113.19853c0,-24.97021 19.27843,-45.21256 43.05959,-45.21256c23.78115,0 43.05959,20.24235 43.05959,45.21256c0,24.97021 -19.27843,45.21256 -43.05959,45.21256c-23.78115,0 -43.05959,-20.24235 -43.05959,-45.21256z" fill="#ffffff" stroke="none" stroke-width="11.3386" stroke-linecap="round" stroke-linejoin="miter"/><path d="M323.16594,113.19853c0,-24.97021 19.27843,-45.21256 43.05959,-45.21256c23.78115,0 43.05959,20.24235 43.05959,45.21256c0,24.97021 -19.27843,45.21256 -43.05959,45.21256c-23.78115,0 -43.05959,-20.24235 -43.05959,-45.21256z" fill="#f9f9f9" stroke="none" stroke-width="11.3386" stroke-linecap="round" stroke-linejoin="miter"/><path d="M241.3451,113.59129c0,-15.84908 12.82834,-28.69729 28.65292,-28.69729c15.82459,0 28.65294,12.84822 28.65294,28.69729c0,15.84909 -12.82836,28.69732 -28.65294,28.69732c-15.82459,0 -28.65292,-12.84823 -28.65292,-28.69732z" fill="#000000" stroke="#1ce652" stroke-width="0.41802" stroke-linecap="round" stroke-linejoin="bevel"/><path d="M263.8916,106.68927c0,-8.75725 6.49503,-15.85641 14.50703,-15.85641c8.01201,0 14.50704,7.09916 14.50704,15.85641c0,8.75725 -6.49503,15.85641 -14.50704,15.85641c-8.012,0 -14.50703,-7.09916 -14.50703,-15.85641z" fill="#ffffff" stroke="#1ce652" stroke-width="0" stroke-linecap="round" stroke-linejoin="bevel"/><path d="M337.07612,113.59129c0,-15.84908 12.82834,-28.69729 28.65292,-28.69729c15.82459,0 28.65294,12.84822 28.65294,28.69729c0,15.84909 -12.82836,28.69732 -28.65294,28.69732c-15.82459,0 -28.65292,-12.84823 -28.65292,-28.69732z" fill="#000000" stroke="#1ce652" stroke-width="0.41802" stroke-linecap="round" stroke-linejoin="bevel"/><path d="M359.62262,106.68927c0,-8.75725 6.49503,-15.85641 14.50703,-15.85641c8.01201,0 14.50704,7.09916 14.50704,15.85641c0,8.75725 -6.49503,15.85641 -14.50704,15.85641c-8.012,0 -14.50703,-7.09916 -14.50703,-15.85641z" fill="#ffffff" stroke="#1ce652" stroke-width="0" stroke-linecap="round" stroke-linejoin="bevel"/><path d="M209.78068,175.19113c0,-7.68178 8.89062,-13.90909 19.85777,-13.90909c10.96713,0 19.85777,6.22731 19.85777,13.90909c0,7.68178 -8.89062,13.90909 -19.85777,13.90909c-10.96713,0 -19.85777,-6.22731 -19.85777,-13.90909z" fill="#e8abab" stroke="none" stroke-width="15.7952" stroke-linecap="round" stroke-linejoin="miter"/><path d="M384.94774,175.19113c0,-7.68178 8.89062,-13.90909 19.85777,-13.90909c10.96713,0 19.85777,6.22731 19.85777,13.90909c0,7.68178 -8.89062,13.90909 -19.85777,13.90909c-10.96713,0 -19.85777,-6.22731 -19.85777,-13.90909z" fill="#e8abab" stroke="none" stroke-width="15.7952" stroke-linecap="round" stroke-linejoin="miter"/><path d="M344.04652,175.09671c-2.43537,12.44379 -7.89673,24.3461 -25.6716,24.21808c-2.16651,0 -2.59587,0.0617 -4.64533,-0.2071c-13.71863,-1.79925 -27.38301,-11.35957 -27.38301,-23.9076" fill="#000000" stroke="none" stroke-width="23.695" stroke-linecap="round" stroke-linejoin="miter"/></g></g></svg>