<svg version="1.1" xmlns="http://www.w3.org/2000/svg" xmlns:xlink="http://www.w3.org/1999/xlink" width="688.18769" height="425.42493" viewBox="0,0,688.18769,425.42493"><g transform="translate(23.34309,31.9617)"><g data-paper-data="{&quot;isPaintingLayer&quot;:true}" fill-rule="nonzero" stroke="#ffffff" stroke-linecap="butt" stroke-linejoin="miter" stroke-miterlimit="10" stroke-dasharray="" stroke-dashoffset="0" style="mix-blend-mode: normal"><path d="M-23.09309,393.21322v-424.92492h687.68769v424.92493z" fill-opacity="0.22745" fill="#000000" stroke-width="0.5"/><path d="M366.79873,144.96222c-0.03172,11.30494 -5.90658,22.05302 -16.12856,29.50711c15.13044,8.12226 24.20176,21.70304 24.20326,36.23497c0.00004,24.13585 -24.56723,43.70195 -54.87277,43.70219c-14.55347,0.00015 -28.51093,-4.60408 -38.80184,-12.79987c-10.2909,-8.19579 -16.0723,-19.31169 -16.07226,-30.90232c0.03111,-14.29735 8.84163,-27.67851 23.59083,-35.82924c-10.53186,-7.47165 -16.60324,-18.40158 -16.61619,-29.91287c0.00056,-21.74262 21.19873,-39.36831 47.3481,-39.36868c26.14985,-0.00022 47.34881,17.62565 47.3494,39.36868zM304.76799,150.99066c-0.00004,8.01059 7.06605,14.50454 15.78268,14.5047c4.18609,0.00024 8.20084,-1.52781 11.16095,-4.24799c2.9601,-2.72019 4.62306,-6.40964 4.62306,-10.25669c0.00002,-3.84705 -1.66296,-7.5365 -4.62306,-10.25667c-2.9601,-2.72019 -6.97486,-4.24822 -11.16095,-4.24796c-8.71664,0.00015 -15.78275,6.49406 -15.78268,14.50463zM301.83194,204.48699c-0.00022,4.74618 2.08785,9.29802 5.80483,12.65416c3.717,3.35616 8.7584,5.24169 14.0152,5.24178c5.25679,-0.00013 10.29819,-1.88564 14.0152,-5.24178c3.717,-3.35616 5.80507,-7.90799 5.80485,-12.65416c-0.00041,-9.88285 -8.87395,-17.8944 -19.82005,-17.89461c-10.94612,0.00022 -19.81961,8.01174 -19.82003,17.89461z" fill="#a6a5e7" stroke-width="7.75"/></g></g></svg>